<?xml version="1.0" encoding="UTF-8"?> <svg xmlns="http://www.w3.org/2000/svg" width="445" height="163" viewBox="0 0 445 163" fill="none"><rect x="2.86123" y="42.0627" width="429.725" height="118.174" transform="rotate(-5.21024 2.86123 42.0627)" fill="#F92F61" stroke="black" stroke-width="5"></rect><path d="M71.4959 118.228C71.4647 117.347 71.4112 115.953 71.3354 114.045C71.3039 112.084 71.27 109.829 71.2339 107.279C71.2465 104.725 71.2435 102.001 71.225 99.1059C71.2508 96.1578 71.2832 93.2828 71.3222 90.4808C71.4056 87.6257 71.5066 84.9653 71.6255 82.4997C71.7886 79.981 71.965 77.8784 72.1549 76.1918C74.784 75.412 77.7341 74.6521 81.0051 73.9119C84.3203 73.1187 87.5847 72.5755 90.7983 72.2825C92.892 72.0916 94.8529 72.0601 96.6811 72.1879C98.558 72.3113 100.187 72.6783 101.568 73.2888C102.994 73.8461 104.149 74.6736 105.035 75.7711C105.92 76.8686 106.445 78.3182 106.61 80.1197C106.778 81.9699 106.642 83.7007 106.199 85.3121C105.802 86.8703 105.169 88.2781 104.302 89.5355C103.479 90.7398 102.468 91.7648 101.268 92.6106C100.069 93.4564 98.772 94.041 97.3777 94.3645C98.6039 94.3509 99.7482 94.5166 100.811 94.8616C101.922 95.2021 102.9 95.702 103.746 96.3613C104.64 97.0162 105.351 97.8106 105.878 98.7444C106.449 99.6251 106.786 100.625 106.888 101.745C106.946 102.378 106.924 103.215 106.822 104.255C106.765 105.242 106.52 106.32 106.086 107.489C105.697 108.605 105.066 109.767 104.195 110.975C103.319 112.135 102.117 113.227 100.59 114.25C99.1121 115.268 97.2288 116.152 94.9405 116.901C92.6567 117.698 89.908 118.243 86.6944 118.536C84.6007 118.727 82.2989 118.79 79.7891 118.724C77.2837 118.707 74.5193 118.542 71.4959 118.228ZM85.9018 85.6165C85.6277 86.918 85.4289 88.2371 85.3053 89.574C85.1773 90.8621 85.0493 92.1503 84.9213 93.4384C85.3197 93.5003 85.6893 93.5157 86.0301 93.4846C86.4197 93.4491 86.8092 93.4135 87.1987 93.378C89.3411 93.1827 90.9477 92.4961 92.0186 91.3184C93.0895 90.1406 93.5406 88.6266 93.3719 86.7764C93.2919 85.9 92.8956 85.3224 92.1829 85.0437C91.5188 84.7606 90.6999 84.6635 89.7261 84.7523C89.0931 84.81 88.4402 84.9186 87.7674 85.0782C87.0947 85.2377 86.4728 85.4171 85.9018 85.6165ZM85.0245 106.685C85.6221 106.777 86.2684 106.866 86.9634 106.95C87.6584 107.034 88.3954 107.04 89.1745 106.969C89.6614 106.925 90.166 106.805 90.6882 106.61C91.2592 106.411 91.7482 106.121 92.1554 105.74C92.6112 105.355 92.9586 104.857 93.1974 104.246C93.485 103.63 93.5866 102.86 93.5022 101.935C93.4134 100.961 93.0126 100.335 92.2999 100.056C91.6314 99.7244 90.7859 99.6051 89.7634 99.6984C88.9844 99.7694 88.1655 99.9423 87.3068 100.217C86.4924 100.438 85.6603 100.735 84.8105 101.107C84.8064 102.139 84.8222 103.119 84.8578 104.049C84.8935 104.978 84.9491 105.857 85.0245 106.685Z" fill="white"></path><path d="M111.954 72.5627C112.538 72.5094 113.169 72.4274 113.846 72.3165C114.43 72.2632 115.112 72.2011 115.891 72.13C116.714 72.0059 117.588 71.9016 118.513 71.8172C119.828 71.6974 121.194 71.5974 122.61 71.5173C124.027 71.4372 125.372 71.3882 126.647 71.3701C125.963 79.4841 125.5 85.7123 125.258 90.0548C125.011 94.3486 124.937 97.0311 125.034 98.1022C125.176 99.6603 125.624 100.798 126.376 101.515C127.173 102.178 128.059 102.466 129.033 102.377C130.006 102.288 130.918 101.788 131.768 100.876C132.662 99.9106 133.201 98.5604 133.387 96.8251C133.802 92.2214 133.889 87.7949 133.649 83.5455C133.457 79.2917 133.25 75.4075 133.028 71.8929C133.55 71.698 134.292 71.4831 135.252 71.2482C136.261 71.0089 137.37 70.7851 138.578 70.5767C139.831 70.3152 141.137 70.0979 142.496 69.9249C143.899 69.6988 145.233 69.528 146.499 69.4126L148.325 69.2461C148.478 76.3019 148.495 81.8726 148.376 85.9583C148.302 89.9909 148.186 93.0209 148.027 95.0483C147.811 97.5227 147.265 99.88 146.389 102.12C145.562 104.356 144.369 106.355 142.812 108.117C141.25 109.83 139.318 111.258 137.016 112.401C134.764 113.539 132.103 114.248 129.036 114.528C125.968 114.808 123.348 114.605 121.174 113.919C119.054 113.278 117.294 112.285 115.895 110.939C114.496 109.594 113.417 107.999 112.66 106.153C111.947 104.254 111.493 102.234 111.297 100.091C111.084 97.7542 110.953 95.2378 110.903 92.542C110.903 89.8419 110.959 87.2346 111.074 84.7203C111.184 82.1574 111.314 79.8135 111.464 77.6887C111.658 75.5108 111.821 73.8022 111.954 72.5627Z" fill="white"></path><path d="M150.592 70.5122C151.296 70.1534 152.243 69.7725 153.434 69.3694C154.62 68.9175 155.93 68.4789 157.364 68.0536C158.798 67.6283 160.31 67.2449 161.899 66.9037C163.537 66.558 165.155 66.2631 166.752 66.0192C166.708 66.6124 166.715 67.2255 166.773 67.8585C166.826 68.4427 166.882 69.0514 166.939 69.6843C167.077 71.1937 167.292 72.7452 167.585 74.3386C167.873 75.8834 168.207 77.3994 168.589 78.8866C168.965 80.3251 169.406 81.6596 169.911 82.89C170.416 84.1204 170.976 85.1494 171.592 85.977C172.773 83.8564 174.012 81.0187 175.308 77.4638C176.599 73.8603 177.521 69.7013 178.073 64.987C180.215 64.7916 182.674 64.8374 185.45 65.1244C188.221 65.3626 190.959 66.0458 193.664 67.1738C192.678 70.8967 191.474 74.124 190.054 76.8555C188.634 79.5871 187.161 82.0044 185.634 84.1074C184.103 86.1617 182.574 87.9704 181.048 89.5333C179.565 91.0432 178.269 92.4379 177.158 93.7175C177.26 94.8373 177.329 96.1321 177.365 97.6017C177.396 99.0226 177.401 100.421 177.379 101.798C177.357 103.175 177.322 104.405 177.274 105.49C177.274 106.57 177.268 107.307 177.255 107.701C175.613 107.998 174.041 108.264 172.541 108.499C171.04 108.734 169.608 108.914 168.245 109.038C167.369 109.118 166.539 109.169 165.755 109.191C164.972 109.214 164.235 109.207 163.544 109.172C163.69 107.539 163.782 106.131 163.822 104.949C163.857 103.718 163.901 102.585 163.954 101.549C164.002 100.465 164.055 99.429 164.112 98.4419C164.169 97.4548 164.266 96.3658 164.403 95.1751C163.177 94.1086 161.915 92.9227 160.618 91.6172C159.316 90.2631 158.041 88.661 156.792 86.8111C155.539 84.9125 154.376 82.6619 153.304 80.0594C152.228 77.4082 151.324 74.2258 150.592 70.5122Z" fill="white"></path><path d="M225.578 56.7521C226.091 56.4598 226.733 56.2294 227.503 56.061C228.322 55.8881 229.145 55.764 229.973 55.6885C230.801 55.613 231.608 55.5884 232.396 55.6148C233.184 55.6411 233.857 55.7516 234.415 55.9462C234.428 56.6323 234.276 57.6527 233.958 59.0073C233.639 60.3619 233.27 61.6966 232.85 63.0114C235.453 63.0195 237.987 63.353 240.453 64.0119C242.963 64.6176 245.28 65.5355 247.405 66.7654C247.149 67.7216 246.702 68.7443 246.065 69.8334C245.476 70.918 244.813 71.985 244.074 73.0343C243.379 74.0304 242.631 74.9824 241.83 75.89C241.078 76.7932 240.412 77.5658 239.832 78.2078C239.567 77.9866 239.1 77.7101 238.431 77.3783C237.758 76.9978 236.99 76.6505 236.127 76.3364C235.264 76.0224 234.334 75.7881 233.338 75.6334C232.386 75.4256 231.448 75.3639 230.523 75.4483C229.452 75.5459 228.449 75.8583 227.515 76.3853C226.63 76.9079 226.225 77.583 226.301 78.4108C226.394 79.4333 226.846 80.0794 227.656 80.3492C228.466 80.619 229.77 80.9174 231.567 81.2445C234.019 81.7573 236.078 82.2569 237.742 82.7434C239.407 83.2298 240.735 83.7961 241.727 84.442C242.767 85.0836 243.526 85.8735 244.005 86.8118C244.527 87.697 244.848 88.7969 244.968 90.1115C245.168 92.3026 244.803 94.226 243.874 95.8818C242.989 97.4844 241.837 98.8414 240.416 99.9529C238.991 101.016 237.446 101.844 235.782 102.437C234.118 103.031 232.604 103.39 231.241 103.514L231.341 104.61C231.416 105.438 231.483 106.168 231.541 106.801C231.647 107.429 231.764 107.91 231.893 108.242C231.331 108.538 230.64 108.773 229.822 108.946C229.051 109.114 228.252 109.236 227.425 109.312C226.597 109.387 225.789 109.412 225.001 109.386C224.262 109.355 223.613 109.242 223.056 109.048C223.051 108.459 223.173 107.638 223.42 106.584C223.668 105.53 223.937 104.45 224.229 103.344C222.804 103.326 221.463 103.154 220.205 102.827C218.997 102.495 217.877 102.057 216.845 101.513C215.814 100.969 214.922 100.338 214.169 99.6215C213.416 98.9046 212.834 98.1722 212.422 97.4242C213.55 95.7994 214.688 94.2719 215.834 92.8418C216.975 91.3631 218.274 89.9927 219.73 88.7308C221.244 90.2619 222.94 91.3592 224.817 92.0227C226.738 92.633 228.405 92.8738 229.817 92.745C230.742 92.6607 231.459 92.448 231.968 92.107C232.521 91.7129 232.767 91.175 232.705 90.4934C232.674 90.1525 232.572 89.8427 232.399 89.5639C232.275 89.2806 231.956 89.0151 231.443 88.7674C230.929 88.5196 230.146 88.272 229.092 88.0244C228.083 87.7236 226.704 87.4075 224.955 87.076C222.91 86.7225 221.195 86.2161 219.809 85.5569C218.419 84.8491 217.266 84.046 216.349 83.1477C215.481 82.2449 214.826 81.2491 214.383 80.1603C213.94 79.0715 213.665 77.9428 213.559 76.7743C213.394 74.9727 213.662 73.3282 214.361 71.8407C215.108 70.3488 216.093 69.0316 217.314 67.8892C218.584 66.7424 220.02 65.8014 221.623 65.0661C223.225 64.3309 224.823 63.817 226.416 63.5244L226.23 61.4794C226.136 60.4569 226.025 59.5097 225.897 58.6377C225.817 57.7612 225.711 57.1327 225.578 56.7521Z" fill="white"></path><path d="M252.658 101.709C252.627 100.828 252.573 99.4334 252.498 97.5256C252.466 95.5647 252.432 93.3094 252.396 90.7597C252.409 88.2056 252.406 85.4811 252.387 82.5862C252.413 79.6381 252.446 76.7631 252.485 73.9611C252.568 71.106 252.669 68.4456 252.788 65.98C252.951 63.4613 253.127 61.3587 253.317 59.6721C255.946 58.8923 258.896 58.1324 262.167 57.3922C265.483 56.599 268.747 56.0558 271.961 55.7628C274.054 55.5719 276.015 55.5404 277.843 55.6682C279.72 55.7917 281.349 56.1586 282.731 56.7691C284.156 57.3264 285.312 58.1539 286.197 59.2514C287.083 60.3489 287.608 61.7985 287.772 63.6C287.941 65.4502 287.804 67.181 287.362 68.7924C286.964 70.3507 286.331 71.7585 285.464 73.0158C284.641 74.2201 283.63 75.2451 282.431 76.0909C281.231 76.9367 279.934 77.5213 278.54 77.8448C279.766 77.8312 280.911 77.9969 281.973 78.3419C283.084 78.6824 284.063 79.1823 284.908 79.8416C285.802 80.4965 286.513 81.2909 287.04 82.2247C287.611 83.1055 287.948 84.1057 288.05 85.2256C288.108 85.8586 288.086 86.6952 287.985 87.7355C287.927 88.7226 287.682 89.8005 287.248 90.9692C286.859 92.0848 286.229 93.247 285.357 94.4556C284.481 95.6156 283.279 96.7071 281.753 97.73C280.274 98.7485 278.391 99.6321 276.103 100.381C273.819 101.178 271.07 101.723 267.857 102.017C265.763 102.207 263.461 102.27 260.951 102.204C258.446 102.187 255.682 102.022 252.658 101.709ZM267.064 69.0968C266.79 70.3983 266.591 71.7174 266.468 73.0543C266.34 74.3424 266.212 75.6306 266.084 76.9187C266.482 76.9806 266.852 76.996 267.193 76.9649C267.582 76.9294 267.972 76.8938 268.361 76.8583C270.503 76.663 272.11 75.9764 273.181 74.7987C274.252 73.6209 274.703 72.1069 274.534 70.2567C274.454 69.3803 274.058 68.8027 273.345 68.524C272.681 68.2409 271.862 68.1438 270.888 68.2326C270.255 68.2903 269.603 68.3989 268.93 68.5585C268.257 68.718 267.635 68.8974 267.064 69.0968ZM266.187 90.165C266.784 90.2578 267.431 90.3461 268.126 90.4301C268.821 90.514 269.558 90.5204 270.337 90.4494C270.824 90.405 271.328 90.2853 271.851 90.0904C272.422 89.8911 272.911 89.601 273.318 89.2202C273.774 88.835 274.121 88.3369 274.36 87.726C274.647 87.1106 274.749 86.3404 274.665 85.4152C274.576 84.4414 274.175 83.8152 273.462 83.5365C272.794 83.2047 271.948 83.0854 270.926 83.1787C270.147 83.2497 269.328 83.4226 268.469 83.6972C267.655 83.9188 266.823 84.2156 265.973 84.5877C265.969 85.619 265.984 86.5995 266.02 87.5291C266.056 88.4586 266.111 89.3373 266.187 90.165Z" fill="white"></path><path d="M307.198 52.9915C307.818 52.7877 308.683 52.586 309.794 52.3865C310.954 52.1826 312.313 52.0096 313.871 51.8675C315.477 51.721 317.286 51.6297 319.295 51.5938C320.403 56.2059 321.498 60.4019 322.579 64.1819C323.709 67.9574 324.812 71.4407 325.888 74.6319C327.013 77.8187 328.143 80.7842 329.277 83.5283C330.455 86.2193 331.669 88.7597 332.918 91.1497C331.205 92.2878 329.069 93.3662 326.511 94.385C324.006 95.4481 321.424 96.4691 318.763 97.4481C318.095 96.5763 317.371 95.3658 316.591 93.8168C315.812 92.2677 315.143 90.5858 314.585 88.7711C313.292 89.1344 311.754 89.4956 309.97 89.8547C308.235 90.2093 306.252 90.5374 304.021 90.839C303.761 92.2865 303.509 93.5614 303.265 94.6637C303.067 95.7128 302.901 96.8571 302.768 98.0966C300.276 98.2256 297.908 98.0979 295.664 97.7134C293.468 97.3245 291.191 96.8449 288.831 96.2745C289.631 93.2067 290.697 89.8201 292.029 86.1148C293.36 82.4094 294.833 78.6421 296.448 74.8127C298.106 70.9302 299.845 67.1141 301.663 63.3643C303.53 59.6101 305.375 56.1525 307.198 52.9915ZM310.575 67.4121C310.013 68.7889 309.387 70.5397 308.697 72.6647C308.056 74.7851 307.366 77.1801 306.628 79.8495C306.774 79.8361 306.971 79.8427 307.219 79.8692C307.462 79.847 307.754 79.8204 308.095 79.7893C308.777 79.7271 309.531 79.6583 310.359 79.5828C311.183 79.4587 311.911 79.3677 312.544 79.31C312.065 77.2916 311.668 75.364 311.354 73.5271C311.034 71.6415 310.775 69.6032 310.575 67.4121Z" fill="white"></path><path d="M350.206 49.0697C350.826 48.8659 351.691 48.6642 352.802 48.4647C353.962 48.2608 355.321 48.0878 356.879 47.9457C358.486 47.7992 360.294 47.7079 362.304 47.672C363.411 52.2841 364.506 56.4801 365.587 60.2601C366.717 64.0356 367.82 67.5189 368.896 70.7101C370.022 73.8969 371.151 76.8623 372.285 79.6065C373.463 82.2975 374.677 84.8379 375.926 87.2279C374.213 88.366 372.078 89.4444 369.519 90.4632C367.014 91.5263 364.432 92.5473 361.772 93.5263C361.103 92.6545 360.379 91.444 359.599 89.895C358.82 88.3459 358.151 86.664 357.593 84.8493C356.3 85.2126 354.762 85.5738 352.979 85.9329C351.243 86.2875 349.26 86.6156 347.03 86.9172C346.769 88.3647 346.517 89.6396 346.274 90.7419C346.075 91.791 345.909 92.9353 345.777 94.1748C343.285 94.3038 340.916 94.1761 338.672 93.7916C336.476 93.4027 334.199 92.9231 331.839 92.3527C332.64 89.2849 333.705 85.8983 335.037 82.193C336.368 78.4876 337.841 74.7203 339.456 70.8909C341.115 67.0084 342.853 63.1922 344.672 59.4425C346.538 55.6883 348.383 52.2307 350.206 49.0697ZM353.583 63.4903C353.021 64.8671 352.396 66.6179 351.706 68.7429C351.064 70.8633 350.374 73.2583 349.636 75.9277C349.782 75.9143 349.979 75.9209 350.227 75.9474C350.47 75.9252 350.763 75.8986 351.103 75.8675C351.785 75.8053 352.54 75.7365 353.367 75.661C354.191 75.5369 354.919 75.4459 355.552 75.3882C355.073 73.3698 354.677 71.4422 354.362 69.6053C354.043 67.7197 353.783 65.6814 353.583 63.4903Z" fill="white"></path></svg> 