<?xml version="1.0" encoding="UTF-8"?> <svg xmlns="http://www.w3.org/2000/svg" width="379" height="372" viewBox="0 0 379 372" fill="none"><path d="M54.5906 232.907C32.1561 249.87 63.5377 291.196 85.9387 274.233C75.6896 283.498 88.9433 298.095 99.1924 288.863C75.5895 319.891 112.613 347.92 136.216 316.892C116.285 353.385 144.996 368.982 164.893 332.489C157.382 376.448 193.838 382.68 201.349 338.688C226.321 394.278 270.722 374.382 245.717 318.825C286.513 365.65 349.51 310.959 308.714 264.134C353.316 292.963 375.583 258.602 330.982 229.807C382.194 251.137 395.314 219.809 344.068 198.479C402.091 176.05 379.857 118.694 321.834 141.123C358.691 107.962 332.517 78.934 295.661 112.128C317.294 83.6665 283.275 57.9045 261.642 86.3661C281.005 49.7392 234.567 25.2769 215.17 61.8704C216.005 24.4104 166.629 16.3785 169.934 58.9376C154.978 16.7451 105.669 34.1753 120.625 76.3678C103.799 50.8724 73.3861 70.8688 90.212 96.3643C70.081 77.3343 27.5157 122.293 47.6466 141.29C28.8177 132.791 16.4654 160.12 35.2943 168.618C16.3652 167.118 14.1618 195.247 33.0575 196.746C14.6626 203.512 20.9055 220.476 39.3004 213.71C19.1361 229.674 34.3929 248.904 54.5572 232.907H54.5906Z" fill="#1E3FE7"></path><path d="M34.6477 202.65C12.2133 219.613 43.5948 260.939 65.9958 243.976C55.7468 253.241 69.0005 267.838 79.2495 258.607C55.6466 289.634 92.6701 317.663 116.273 286.635C96.3424 323.128 125.053 338.726 144.95 302.232C137.439 346.191 173.895 352.423 181.406 308.431C206.378 364.021 250.78 344.125 225.775 288.568C266.57 335.393 329.567 280.703 288.771 233.878C333.373 262.706 355.641 228.345 311.039 199.55C362.251 220.88 375.371 189.552 324.126 168.223C382.148 145.793 359.914 88.4368 301.891 110.866C338.748 77.7054 312.574 48.6772 275.718 81.8713C297.351 53.4097 263.332 27.6476 241.699 56.1092C261.062 19.4824 214.624 -4.97991 195.228 31.6136C196.062 -5.84642 146.686 -13.8783 149.991 28.6808C135.035 -13.5117 85.7261 3.91851 100.682 46.111C83.8566 20.6155 53.4432 40.612 70.2691 66.1074C50.1382 47.0775 7.5728 92.0362 27.7037 111.033C8.8748 102.534 -3.47749 129.863 15.3514 138.361C-3.57765 136.862 -5.78103 164.99 13.1146 166.49C-5.28026 173.255 0.962657 190.219 19.3576 183.453C-0.806726 199.417 14.45 218.647 34.6143 202.65H34.6477Z" fill="#1B1925"></path></svg> 