<?xml version="1.0" encoding="UTF-8"?> <svg xmlns="http://www.w3.org/2000/svg" width="505" height="405" viewBox="0 0 505 405" fill="none"><path d="M43.9991 173.879C-11.0321 165.689 -16.295 189.178 38.7361 197.367C-0.608346 201.317 7.51603 254.986 46.8605 251.078C5.21668 294.438 46.1963 320.462 87.8401 277.102C45.021 302.96 89.4241 351.599 132.243 325.741C95.5046 364.029 121.819 380.741 158.558 342.453C131.426 394.792 175.113 409.8 202.246 357.461C192.742 416.909 231.32 420.983 240.824 361.535C235.765 400.197 277.664 403.855 282.723 365.193C277.971 416.784 313.534 418.987 318.337 367.355C312.512 409.259 357.171 413.375 363.047 371.471C377.047 412.169 405.151 405.767 391.15 365.068C427.327 388.058 448.634 365.817 412.457 342.869C448.634 365.858 478.321 334.887 442.145 311.94C509.184 326.656 531.564 259.143 464.576 244.427C513.527 241.392 506.22 163.943 457.269 166.978C496.614 141.453 460.131 104.205 420.786 129.771C456.758 98.5924 406.939 60.5541 370.967 91.733C413.633 47.2926 328.761 -6.58461 286.146 37.8142C293.555 -6.08575 249.612 -10.9912 242.203 32.9087C241.181 -11.6564 172.712 -10.6171 173.734 33.948C149.514 -3.13413 114.666 11.9149 138.886 48.9971C102.454 25.8831 52.9921 77.4323 89.373 100.588C52.941 77.4738 19.4727 112.353 55.8535 135.508C16.8156 129.106 10.7862 153.343 49.8241 159.786C-10.2145 143.615 -15.9885 157.791 44.0502 174.004L43.9991 173.879Z" fill="url(#paint0_linear_285_16)"></path><path d="M76.6371 179.7C81.1704 178.3 85.3704 177.233 89.2371 176.5C93.1704 175.767 96.8038 175.4 100.137 175.4C107.004 175.4 112.304 176.933 116.037 180C119.837 183 121.737 187.567 121.737 193.7C121.737 198.633 120.97 202.867 119.437 206.4C117.904 209.933 115.904 212.833 113.437 215.1C110.97 217.3 108.137 218.933 104.937 220C101.804 221 98.6371 221.5 95.4371 221.5C93.3038 221.5 91.2038 221.3 89.1371 220.9C88.6038 224.033 88.3038 226.567 88.2371 228.5C88.1704 230.433 88.0038 232.267 87.7371 234C86.2038 234.4 84.5704 234.667 82.8371 234.8C81.1704 235 79.5038 235.1 77.8371 235.1C76.3038 235.1 74.8704 235.033 73.5371 234.9C72.2704 234.767 71.0704 234.633 69.9371 234.5C69.9371 233.433 70.0371 231.6 70.2371 229C70.5038 226.333 70.8038 223.3 71.1371 219.9C71.5371 216.433 71.9704 212.733 72.4371 208.8C72.9038 204.867 73.3704 201.067 73.8371 197.4C74.3704 193.667 74.8704 190.267 75.3371 187.2C75.8038 184.067 76.2371 181.567 76.6371 179.7ZM93.5371 193.6C93.1371 195.533 92.6704 197.8 92.1371 200.4C91.6704 202.933 91.2704 205.867 90.9371 209.2C91.2704 209.267 91.6038 209.333 91.9371 209.4C92.2704 209.4 92.6371 209.4 93.0371 209.4C94.1038 209.4 95.2038 209.233 96.3371 208.9C97.5371 208.567 98.6038 208 99.5371 207.2C100.47 206.333 101.237 205.233 101.837 203.9C102.437 202.567 102.737 200.9 102.737 198.9C102.737 196.767 102.27 195.267 101.337 194.4C100.404 193.533 99.1371 193.1 97.5371 193.1C96.9371 193.1 96.3038 193.167 95.6371 193.3C94.9704 193.367 94.2704 193.467 93.5371 193.6ZM156.648 235.2C156.781 234 156.981 232.3 157.248 230.1C157.515 227.833 157.848 225.233 158.248 222.3C157.115 222.367 155.948 222.4 154.748 222.4C153.548 222.4 152.381 222.4 151.248 222.4C150.381 222.4 149.548 222.4 148.748 222.4C147.948 222.4 147.181 222.367 146.448 222.3C146.048 225.033 145.715 227.4 145.448 229.4C145.248 231.333 145.081 232.767 144.948 233.7C144.081 233.833 142.948 233.967 141.548 234.1C140.215 234.233 138.781 234.367 137.248 234.5C135.715 234.633 134.215 234.733 132.748 234.8C131.281 234.933 130.015 235 128.948 235C128.548 235 128.181 235 127.848 235C127.515 235 127.215 234.967 126.948 234.9C127.015 233.367 127.181 231 127.448 227.8C127.781 224.6 128.148 221 128.548 217C129.015 212.933 129.448 208.767 129.848 204.5C130.315 200.167 130.748 196.133 131.148 192.4C131.615 188.667 132.015 185.5 132.348 182.9C132.681 180.233 132.915 178.567 133.048 177.9C134.381 177.767 135.881 177.667 137.548 177.6C139.281 177.467 141.081 177.4 142.948 177.4C144.881 177.4 146.815 177.467 148.748 177.6C150.681 177.667 152.415 177.833 153.948 178.1C153.615 179.7 153.215 181.667 152.748 184C152.348 186.333 151.881 188.867 151.348 191.6C150.881 194.333 150.381 197.2 149.848 200.2C149.381 203.133 148.915 206.067 148.448 209C150.048 208.733 151.848 208.433 153.848 208.1C155.915 207.767 158.015 207.5 160.148 207.3C160.548 204.033 160.948 200.8 161.348 197.6C161.748 194.4 162.115 191.467 162.448 188.8C162.781 186.067 163.048 183.7 163.248 181.7C163.448 179.7 163.581 178.3 163.648 177.5C164.915 177.367 166.415 177.267 168.148 177.2C169.948 177.133 171.748 177.1 173.548 177.1C175.748 177.1 177.781 177.167 179.648 177.3C181.581 177.367 182.981 177.533 183.848 177.8C183.581 180.333 183.181 183.367 182.648 186.9C182.181 190.367 181.648 194.033 181.048 197.9C180.448 201.767 179.815 205.667 179.148 209.6C178.548 213.533 177.948 217.2 177.348 220.6C176.815 223.933 176.315 226.833 175.848 229.3C175.448 231.7 175.148 233.367 174.948 234.3C173.281 234.7 171.448 234.967 169.448 235.1C167.515 235.233 165.648 235.3 163.848 235.3C162.181 235.3 160.681 235.267 159.348 235.2C158.081 235.2 157.181 235.2 156.648 235.2ZM214.856 175.6C215.723 175.4 216.923 175.233 218.456 175.1C220.056 174.967 221.923 174.9 224.056 174.9C226.256 174.9 228.723 175 231.456 175.2C232.389 181.6 233.356 187.433 234.356 192.7C235.423 197.967 236.489 202.833 237.556 207.3C238.689 211.767 239.856 215.933 241.056 219.8C242.323 223.6 243.656 227.2 245.056 230.6C242.589 231.933 239.556 233.133 235.956 234.2C232.423 235.333 228.789 236.4 225.056 237.4C224.256 236.133 223.423 234.4 222.556 232.2C221.689 230 220.989 227.633 220.456 225.1C218.656 225.433 216.523 225.733 214.056 226C211.656 226.267 208.923 226.467 205.856 226.6C205.323 228.533 204.823 230.233 204.356 231.7C203.956 233.1 203.589 234.633 203.256 236.3C199.856 236.167 196.656 235.7 193.656 234.9C190.723 234.1 187.689 233.167 184.556 232.1C186.023 228.033 187.889 223.567 190.156 218.7C192.423 213.833 194.889 208.9 197.556 203.9C200.289 198.833 203.123 193.867 206.056 189C209.056 184.133 211.989 179.667 214.856 175.6ZM217.656 195.6C216.723 197.4 215.656 199.7 214.456 202.5C213.323 205.3 212.089 208.467 210.756 212C210.956 212 211.223 212.033 211.556 212.1C211.889 212.1 212.289 212.1 212.756 212.1C213.689 212.1 214.723 212.1 215.856 212.1C216.989 212.033 217.989 212 218.856 212C218.456 209.2 218.156 206.533 217.956 204C217.756 201.4 217.656 198.6 217.656 195.6ZM288.467 199.4C288.067 199.267 287.367 198.9 286.367 198.3C285.433 197.633 284.3 196.933 282.967 196.2C281.7 195.467 280.3 194.8 278.767 194.2C277.3 193.6 275.867 193.3 274.467 193.3C272.667 193.3 271.233 193.733 270.167 194.6C269.167 195.4 268.667 196.367 268.667 197.5C268.667 198.633 269.233 199.733 270.367 200.8C271.5 201.867 273.333 202.667 275.867 203.2C279.667 204 282.7 205.067 284.967 206.4C287.233 207.667 288.967 209.033 290.167 210.5C291.433 211.9 292.267 213.333 292.667 214.8C293.067 216.2 293.267 217.4 293.267 218.4C293.267 221.733 292.567 224.7 291.167 227.3C289.767 229.833 287.967 231.967 285.767 233.7C283.567 235.433 281.067 236.733 278.267 237.6C275.533 238.533 272.767 239 269.967 239C267.033 239 264.267 238.667 261.667 238C259.067 237.4 256.7 236.533 254.567 235.4C252.5 234.333 250.7 233.033 249.167 231.5C247.7 229.967 246.633 228.267 245.967 226.4C246.833 225.267 247.8 224.133 248.867 223C250 221.8 251.167 220.667 252.367 219.6C253.567 218.467 254.733 217.4 255.867 216.4C257.067 215.4 258.133 214.5 259.067 213.7C261.4 216.5 263.633 218.467 265.767 219.6C267.967 220.667 269.933 221.2 271.667 221.2C272.533 221.2 273.367 221 274.167 220.6C274.967 220.133 275.367 219.133 275.367 217.6C275.367 216.8 275.2 216.167 274.867 215.7C274.533 215.167 273.967 214.7 273.167 214.3C272.367 213.9 271.333 213.5 270.067 213.1C268.8 212.7 267.233 212.2 265.367 211.6C263.033 210.867 260.867 210.067 258.867 209.2C256.933 208.267 255.267 207.167 253.867 205.9C252.467 204.633 251.367 203.167 250.567 201.5C249.767 199.767 249.367 197.7 249.367 195.3C249.367 191.433 250.033 188.1 251.367 185.3C252.7 182.5 254.5 180.2 256.767 178.4C259.033 176.6 261.633 175.3 264.567 174.5C267.567 173.633 270.733 173.2 274.067 173.2C278.733 173.2 283.4 174 288.067 175.6C292.733 177.133 296.8 179.3 300.267 182.1C299.733 183.633 299 185.233 298.067 186.9C297.133 188.5 296.1 190.067 294.967 191.6C293.9 193.133 292.767 194.6 291.567 196C290.433 197.333 289.4 198.467 288.467 199.4ZM309.699 179.1C310.699 178.833 312.599 178.6 315.399 178.4C318.199 178.133 321.399 177.9 324.999 177.7C328.599 177.5 332.365 177.367 336.299 177.3C340.232 177.167 343.865 177.1 347.199 177.1C348.532 177.1 349.799 177.1 350.999 177.1C352.199 177.1 353.299 177.133 354.299 177.2C354.165 178.533 353.999 180.033 353.799 181.7C353.665 183.367 353.465 185 353.199 186.6C352.999 188.2 352.765 189.7 352.499 191.1C352.232 192.433 351.999 193.5 351.799 194.3C349.399 194.167 347.199 194 345.199 193.8C343.265 193.6 341.332 193.4 339.399 193.2C337.532 192.933 335.599 192.733 333.599 192.6C331.599 192.4 329.399 192.267 326.999 192.2L324.999 202.1C327.532 201.433 330.332 200.867 333.399 200.4C336.532 199.867 339.499 199.6 342.299 199.6H343.499C343.499 201.867 343.365 204.2 343.099 206.6C342.899 208.933 342.665 210.9 342.399 212.5H339.799C336.665 212.5 333.832 212.633 331.299 212.9C328.832 213.1 326.132 213.333 323.199 213.6C322.999 214.867 322.832 216.1 322.699 217.3C322.632 218.433 322.532 219.667 322.399 221C325.932 220.933 329.765 220.633 333.899 220.1C338.032 219.5 342.832 218.867 348.299 218.2C348.365 219.667 348.432 221.033 348.499 222.3C348.565 223.567 348.599 224.867 348.599 226.2C348.599 228.4 348.499 230.933 348.299 233.8C345.165 234.267 341.399 234.567 336.999 234.7C332.599 234.833 328.132 234.9 323.599 234.9C319.465 234.9 315.565 234.867 311.899 234.8C308.232 234.733 305.165 234.633 302.699 234.5C302.765 232.567 302.965 230.033 303.299 226.9C303.632 223.7 303.999 220.3 304.399 216.7C304.865 213.033 305.332 209.267 305.799 205.4C306.332 201.467 306.832 197.8 307.299 194.4C307.832 190.933 308.299 187.867 308.699 185.2C309.099 182.467 309.432 180.433 309.699 179.1ZM418.866 201.8C420.533 201.8 422.233 201.7 423.966 201.5C425.699 201.3 427.666 201.2 429.866 201.2C430.333 201.2 430.766 201.233 431.166 201.3C431.633 201.3 432.099 201.3 432.566 201.3C432.166 202.967 431.833 204.533 431.566 206C431.299 207.467 431.033 209.167 430.766 211.1C432.299 211.033 433.833 211 435.366 211C436.899 211 438.166 210.933 439.166 210.8C439.099 212.667 438.966 214.567 438.766 216.5C438.633 218.433 438.299 220.9 437.766 223.9H435.666C434.799 223.9 433.766 223.9 432.566 223.9C431.433 223.9 430.399 223.833 429.466 223.7C428.933 226.167 428.533 228.4 428.266 230.4C427.999 232.4 427.699 234.4 427.366 236.4C426.299 236.467 425.133 236.5 423.866 236.5C422.599 236.567 421.299 236.6 419.966 236.6C418.166 236.6 416.399 236.533 414.666 236.4C412.933 236.333 411.399 236.167 410.066 235.9C410.199 234.9 410.466 233.433 410.866 231.5C411.333 229.567 411.866 227.233 412.466 224.5C408.733 225.033 405.066 225.433 401.466 225.7C397.933 225.9 394.266 226 390.466 226H388.366C388.099 224.533 387.733 222.567 387.266 220.1C386.799 217.633 386.566 214.7 386.566 211.3C386.566 210.767 386.566 210.267 386.566 209.8C386.566 209.267 386.599 208.733 386.666 208.2C390.866 205.133 395.433 200.8 400.366 195.2C405.366 189.533 410.366 182.2 415.366 173.2C416.699 173.4 418.199 173.833 419.866 174.5C421.599 175.167 423.266 176 424.866 177C426.466 178 427.933 179.133 429.266 180.4C430.599 181.6 431.533 182.867 432.066 184.2C430.133 187 427.733 189.767 424.866 192.5C421.999 195.167 419.066 197.7 416.066 200.1C413.066 202.5 410.233 204.667 407.566 206.6C404.966 208.467 402.966 209.967 401.566 211.1C402.033 211.1 402.766 211.1 403.766 211.1C404.766 211.1 405.899 211.1 407.166 211.1C408.499 211.033 409.866 211 411.266 211C412.733 211 414.099 211 415.366 211C415.766 209.933 416.166 208.667 416.566 207.2C416.966 205.667 417.733 203.867 418.866 201.8Z" fill="white"></path><defs><linearGradient id="paint0_linear_285_16" x1="0" y1="405" x2="490.931" y2="-16.3912" gradientUnits="userSpaceOnUse"><stop stop-color="#B7A1FF"></stop><stop offset="0.485" stop-color="#7FA8DF"></stop><stop offset="1" stop-color="#83FBF0"></stop></linearGradient></defs></svg> 