<?xml version="1.0" encoding="UTF-8"?> <svg xmlns="http://www.w3.org/2000/svg" width="345" height="175" viewBox="0 0 345 175" fill="none"><g clip-path="url(#clip0_102_392)"><path d="M342.756 72.5553C338.618 67.0508 331.463 64.2861 325.43 61.4715C311.171 54.871 295.814 49.7401 279.984 49.1423C277.441 49.0427 274.898 49.0676 272.38 49.1921C274.599 43.6876 274.1 37.0373 271.483 31.6074C266.597 21.4203 254.755 16.4388 244.484 13.7239C221.674 7.72116 196.395 9.36506 174.582 18.3318C172.961 19.0043 171.366 19.7266 169.77 20.4738C165.432 12.354 157.106 6.30144 148.605 3.26272C136.464 -1.07118 123.202 -0.847012 110.936 2.76457C88.5248 9.36506 67.0605 29.2163 67.0355 53.9245C67.0355 58.3332 67.7086 62.6422 69.005 66.7519C65.2905 65.4567 61.3765 64.6099 57.2632 64.3857C45.3967 63.6883 32.6328 65.8054 21.6388 70.3137C11.8166 74.274 -0.523522 82.4436 -1.70466e-06 94.5237C0.274223 100.676 4.93605 105.632 9.42337 109.369C14.2597 113.404 19.819 116.442 25.7273 118.584C28.3449 119.531 30.9874 120.203 33.6798 120.776C31.2617 122.769 29.018 125.011 27.0984 127.427C18.1986 138.535 13.9855 156.269 25.4531 167.154C35.9235 177.067 52.6263 175.772 65.5647 172.957C81.046 169.595 95.5051 162.372 108.743 153.828C110.114 152.957 111.46 152.035 112.806 151.114C116.969 154.177 121.581 156.643 126.567 158.436C141.45 163.767 158.278 163.617 173.609 160.354C188.941 157.091 203.101 150.142 216.364 141.973C222.172 138.386 227.831 134.5 233.291 130.391C233.964 131.262 234.662 132.109 235.385 132.906C241.667 139.731 250.617 144.413 259.965 144.986C269.638 145.559 279.061 142.197 286.615 136.219C294.692 129.818 301.822 119.755 298.382 109.07C298.008 107.924 297.559 106.803 297.085 105.682C298.058 105.558 299.005 105.458 299.977 105.334C313.988 103.366 329.743 100.825 339.914 90.0155C344.501 85.1336 347.144 78.4086 342.731 72.5304L342.756 72.5553Z" fill="white"></path><path d="M273.078 135.148C261.835 131.188 251.414 123.491 245.656 112.955C241.119 116.417 236.606 120.004 231.371 122.296C224.391 125.334 217.485 124.836 210.48 122.246C208.785 121.623 207.04 120.951 205.395 120.228C205.046 120.079 205.395 120.029 205.095 120.228C204.946 120.328 204.273 120.577 203.575 120.976C199.885 123.093 196.694 126.007 193.079 128.224C185.974 132.558 178.122 135.696 170.169 138.087C156.732 142.147 135.617 144.737 129.559 129.469C120.958 132.831 112.781 137.29 104.181 140.603C95.2309 144.065 85.0098 147.452 75.2872 145.908C67.3347 144.638 59.806 139.905 59.9805 131.088C60.1301 122.794 65.7392 114.774 70.5257 108.422C73.3427 104.661 76.3841 101.099 79.5502 97.6123C68.5812 98.4093 57.338 99.8291 46.9174 95.9684C40.0618 93.4528 34.5524 88.6705 30.6384 82.5682C28.0208 78.5083 25.3035 73.8755 24.431 69.2178C23.4836 69.5665 22.5363 69.8903 21.6139 70.2639C11.8166 74.274 -0.523522 82.4436 -1.48642e-06 94.5238C0.274224 100.676 4.93605 105.633 9.42337 109.369C14.2597 113.404 19.819 116.442 25.7522 118.584C28.3698 119.531 31.0124 120.203 33.7047 120.776C31.2866 122.769 29.0429 125.011 27.1233 127.427C18.2235 138.535 14.0104 156.269 25.478 167.154C35.9484 177.067 52.6512 175.772 65.5896 172.957C81.0709 169.595 95.53 162.372 108.768 153.828C110.139 152.957 111.485 152.035 112.831 151.114C116.994 154.177 121.606 156.643 126.592 158.436C141.475 163.767 158.303 163.617 173.634 160.354C188.966 157.091 203.126 150.142 216.388 141.973C222.197 138.386 227.856 134.5 233.316 130.391C233.989 131.262 234.687 132.109 235.41 132.906C241.692 139.731 250.642 144.413 259.99 144.986C268.716 145.509 277.241 142.794 284.371 137.863C280.507 137.365 276.693 136.418 273.078 135.148Z" fill="#D1D7DE"></path><path d="M194.376 55.7178C190.935 53.3765 186.672 52.2308 182.634 53.7252C176.925 55.8673 173.535 61.87 171.341 67.1753C169.82 70.8616 164.784 69.5166 164.784 65.7555C164.784 56.8137 159.1 49.9393 149.727 51.1597C142.597 52.0813 137.088 56.465 134.021 62.4677C141.076 57.5112 152.918 61.7952 159.4 65.7555C166.43 70.0645 173.111 76.665 176.327 84.5358C183.98 78.3089 195.946 76.4658 204.771 80.6004C205.719 71.2601 202.253 61.1227 194.351 55.7178H194.376Z" fill="#D1D7DE"></path></g><defs><clipPath id="clip0_102_392"><rect width="345" height="175" fill="white"></rect></clipPath></defs></svg> 