<?xml version="1.0" encoding="UTF-8"?> <svg xmlns="http://www.w3.org/2000/svg" width="527" height="615" viewBox="0 0 527 615" fill="none"><path d="M108.87 21.1259L102.397 23.0688L101.485 29.7647C97.7141 57.4333 95.8378 86.606 95.8378 117.271C95.8378 146.718 97.7159 178.273 101.453 211.925L102.731 223.437L114.063 221.038C145.917 214.296 175.565 209.099 203.016 205.437C230.294 201.798 258.201 199.975 286.741 199.975C294.805 199.975 302.871 200.252 310.937 200.807C308.633 202.332 306.224 203.852 303.708 205.365C291.641 212.001 278.648 218.653 264.723 225.318C251.479 231.338 237.932 236.759 224.08 241.579L224.011 241.604L223.942 241.629C210.395 246.558 198.401 250.866 187.955 254.555L182.325 256.543L181.155 262.398C180.363 266.358 180.026 270.789 180.026 275.564V275.586V275.607V275.629V275.651V275.672V275.694V275.716V275.737V275.759V275.781V275.802V275.824V275.846V275.868V275.889V275.911V275.933V275.954V275.976V275.998V276.019V276.041V276.063V276.085V276.106V276.128V276.15V276.171V276.193V276.215V276.236V276.258V276.28V276.301V276.323V276.345V276.367V276.388V276.41V276.432V276.453V276.475V276.497V276.518V276.54V276.562V276.584V276.605V276.627V276.649V276.67V276.692V276.714V276.735V276.757V276.779V276.8V276.822V276.844V276.866V276.887V276.909V276.931V276.952V276.974V276.996V277.017V277.039V277.061V277.083V277.104V277.126V277.148V277.169V277.191V277.213V277.234V277.256V277.278V277.299V277.321V277.343V277.365V277.386V277.408V277.43V277.451V277.473V277.495V277.516V277.538V277.56V277.582V277.603V277.625V277.647V277.668V277.69V277.712V277.733V277.755V277.777V277.798V277.82V277.842V277.864V277.885V277.907V277.929V277.95V277.972V277.994V278.015V278.037V278.059V278.081V278.102V278.124V278.146V278.167V278.189V278.211V278.232V278.254V278.276V278.297V278.319V278.341V278.363V278.384V278.406V278.428V278.449V278.471V278.493V278.514V278.536V278.558V278.58V278.601V278.623V278.645V278.666V278.688V278.71V278.731V278.753V278.775V278.797V278.818V278.84V278.862V278.883V278.905V278.927V278.948V278.97V278.992V279.013V279.035V279.057V279.079V279.1V279.122V279.144V279.165V279.187V279.209V279.23V279.252V279.274V279.296V279.317V279.339V279.361V279.382V279.404V279.426V279.447V279.469V279.491V279.512V279.534V279.556V279.578V279.599V279.621V279.643V279.664V279.686V279.708V279.729V279.751V279.773V279.794V279.816V279.838V279.86V279.881V279.903V279.925V279.946V279.968V279.99V280.011V280.033V280.055V280.077V280.098V280.12V280.142V280.163V280.185V280.207V280.228V280.25V280.272V280.294V280.315V280.337V280.359V280.38V280.402V280.424V280.445V280.467V280.489V280.51V280.532V280.554V280.576V280.597V280.619V280.641V280.662V280.684V280.706V280.727V280.749V280.771V280.793V280.814V280.836V280.858V280.879V280.901V280.923V280.944V280.966V280.988V281.009V281.031V281.053V281.075V281.096V281.118V281.14V281.161V281.183V281.205V281.226V281.248V281.27V281.292V281.313V281.335V281.357V281.378V281.4V281.422V281.443V281.465V281.487V281.508V281.53V281.552V281.574V281.595V281.617V281.639V281.66V281.682V281.704V281.725V281.747V281.769V281.791V281.812V281.834V281.856V281.877V281.899V281.921V281.942V281.964V281.986V282.007V282.029V282.051V282.073V282.094V282.116V282.138V282.159V282.181V282.203V282.224V282.246V282.268V282.29V282.311V282.333V282.355V282.376V282.398V282.42V282.441V282.463V282.485V282.506V282.528V282.55V282.572V282.593V282.615V282.637V282.658V282.68V282.702V282.723V282.745V282.767V282.789V282.81V282.832V282.854V282.875V282.897V282.919V282.94V282.962V282.984V283.005V283.027V283.049V283.071V283.092V283.114V283.136V283.157V283.179V283.201V283.222V283.244V283.266V283.288V283.309V283.331V283.353V283.374V283.396V283.418V283.439V283.461V283.483V283.504V283.526V283.548V283.57V283.591V283.613V283.635V283.656V283.678V283.7V283.721V283.743V283.765V283.787V283.808V283.83V283.852V283.873V283.895V283.917V283.938V283.96V283.982V284.003V284.025V284.047V284.069V284.09V284.112V284.134V284.155V284.177V284.199V284.22V284.242V284.264V284.286V284.307V284.329V284.351V284.372V284.394V284.416V284.437V284.459V284.481V284.502V284.524V284.546V284.568V284.589V284.611V284.633V284.654V284.676V284.698V284.719V284.741V284.763V284.785V284.806V284.828V284.85V284.871V284.893V284.915V284.936V284.958V284.98V285.001V285.023V285.045V285.067V285.088V285.11V285.132V285.153V285.175V285.197V285.218V285.24V285.262V285.284V285.305V285.327V285.349V285.37V285.392V285.414V285.435V285.457V285.479V285.5V285.522V285.544V285.566V285.587V285.609V285.631V285.652V285.674V285.696V285.717V285.739V285.761V285.783V285.804V285.826V285.848V285.869V285.891V285.913V285.934V285.956V285.978V285.999V286.021V286.043V286.065V286.086V286.108V286.13V286.151V286.173V286.195V286.216V286.238V286.26V286.282V286.303V286.325V286.347V286.368V286.39V286.412V286.433V286.455V286.477V286.499V286.52V286.542V286.564V286.585V286.607V286.629V286.65V286.672C180.026 298.169 180.664 309.379 181.948 320.297C183.237 331.26 185.219 340.764 188.059 348.577L191.121 357.003L199.923 355.299C218.578 351.686 234.849 349.936 248.81 349.936C269.855 349.936 282.409 353.354 288.855 358.084L288.984 358.179L289.116 358.27C296.827 363.574 299.37 368.956 299.37 374.612C299.37 378.997 298.639 383.839 297.036 389.185C295.688 393.684 293.141 398.229 289.068 402.815L289.04 402.846L289.013 402.876C285.85 406.493 281.29 409.989 274.974 413.19C269.227 415.523 261.838 416.876 252.511 416.876C233.365 416.876 214.101 410.616 194.561 397.39C173.785 383.328 152.684 368.029 131.256 351.489L124.194 346.038L117.674 352.127C108.06 361.106 98.2122 371.605 88.1277 383.588C78.0381 395.576 68.2865 408.481 58.8692 422.295C49.4416 435.509 40.9401 449.052 33.3699 462.923C25.1142 476.922 18.6579 490.457 14.0889 503.519L12.0641 509.307L16.1108 513.914C34.6142 534.982 54.304 551.529 75.2341 563.318C96.1858 575.384 116.984 584.375 137.622 590.193C158.498 596.516 178.314 600.38 197.04 601.687C215.726 603.552 232.378 604.5 246.96 604.5C277.957 604.5 305.571 600.712 329.641 592.919C353.301 585.868 373.796 576.163 390.926 563.654C408.282 551.423 422.652 537.757 433.872 522.598C445.317 507.95 454.38 493.427 460.934 479.023C467.981 464.263 472.921 450.19 475.59 436.84L475.599 436.793L475.608 436.746C478.119 423.556 479.494 412.619 479.494 404.234C479.494 364.607 468.41 332.123 445.125 308.108C427.793 289.764 406.3 276.446 380.924 267.998L430.027 238.261L430.06 238.241L430.093 238.22C454.391 223.259 475.974 208.555 494.813 194.103L497.101 192.348L498.172 189.67C503.581 176.141 507.722 157.268 510.845 133.564C514.63 108.899 516.5 81.5477 516.5 51.5476V33.9596V26.0407L508.886 23.8641C499.353 21.1388 486.94 19.2196 471.933 17.9599C456.852 16.0817 440.003 14.8388 421.412 14.2144C402.814 12.9763 383.004 12.0488 361.986 11.4302C340.914 10.8101 319.841 10.5 298.768 10.5C278.365 10.5 258.265 10.8085 238.469 11.4257C218.658 11.4291 200.32 12.048 183.468 13.2915C166.744 13.9141 151.797 14.8484 138.647 16.1015L138.622 16.1039L138.598 16.1063C126.087 17.3581 116.026 18.9777 108.87 21.1259Z" stroke="white" stroke-width="21"></path></svg> 