<?xml version="1.0" encoding="UTF-8"?> <svg xmlns="http://www.w3.org/2000/svg" width="120" height="116" viewBox="0 0 120 116" fill="none"><g clip-path="url(#clip0_287_11668)"><path d="M75.9601 45.7799C74.5001 40.3599 70.9001 35.8299 66.9501 31.9499C64.9601 29.9999 62.8401 28.1799 60.5201 26.6599C58.2001 25.1499 55.7001 23.8699 53.0401 23.2399C50.3901 22.5999 47.5901 22.6399 44.9901 23.3899C42.3801 24.1299 40.0401 25.5599 38.0101 27.3999C33.9301 31.0499 30.9501 35.7799 28.4101 40.6799C25.8101 45.5799 23.8701 50.7499 23.1701 56.1699C22.8501 58.8699 22.8201 61.6099 23.2001 64.2999C23.4001 65.6399 23.6401 66.9799 24.0301 68.2899C24.3701 69.6099 24.8501 70.8299 25.4801 72.0099C26.7201 74.3699 28.5901 76.3799 30.7601 78.0099C31.8401 78.8099 33.0101 79.5699 34.2001 80.1299C35.4101 80.6899 36.7101 81.0699 38.0401 81.2999C40.7001 81.7599 43.4901 81.6599 46.1501 81.0699C46.8101 80.9299 47.4801 80.7399 48.1101 80.5299C48.7501 80.3299 49.3801 79.9899 50.0201 79.7299L53.8401 78.0399L53.8001 78.0599C56.2701 76.6399 58.4601 74.7599 60.2101 72.5199L60.2301 72.4999H60.2401C62.2301 70.5199 63.8601 68.2 65.0601 65.66C66.3101 63.14 67.1501 60.4299 67.5501 57.6599V57.6399V57.6199C68.3401 54.6599 68.5901 51.5799 68.3101 48.5299V48.5599L67.6901 44.7999C67.4701 43.5399 67.3101 42.2899 66.9601 41.0899C66.3201 38.6599 65.4001 36.2999 64.2501 34.0699V34.0499L64.2301 34.0199C63.4901 32.0799 62.4501 30.2599 61.1501 28.6599C59.8401 27.0799 58.3001 25.5899 56.7101 24.2599C55.1001 22.9399 53.3701 21.7799 51.4801 21.0299C50.5401 20.6499 49.5601 20.3699 48.5701 20.1899C47.5901 20.0399 46.5401 19.9899 45.5101 19.9799C41.3801 19.9699 37.2901 20.9899 33.3801 22.4699L31.8901 23.0499C31.3801 23.2299 30.8901 23.4099 30.4201 23.5999C29.4601 23.9799 28.5201 24.4099 27.5901 24.8799C25.7501 25.8199 24.0001 26.9399 22.3601 28.1899L22.4301 28.1299L16.7201 33.4999L16.7701 33.4499C14.1901 36.2999 12.0601 39.5299 10.4801 43.0199L10.4601 43.0699L10.4301 43.1299C9.55006 44.5699 8.83006 46.0899 8.28006 47.6799C7.74006 49.2599 7.35006 50.9299 7.18006 52.5799C6.83006 55.9699 6.96006 59.4099 7.53006 62.7699V62.8499L7.55006 62.9199C7.64006 66.4799 8.64006 69.9699 10.4001 73.0699L10.2501 72.8699C11.7201 74.4699 12.9901 76.1099 14.4401 77.4899C15.8801 78.8699 17.4901 79.9499 19.3101 80.1799C20.2501 80.3199 21.4101 80.3199 22.6101 80.7399C23.6601 81.2099 24.6801 81.7399 25.5701 82.2299C27.4001 83.2299 29.2401 84.1299 31.1401 84.8699C34.9701 86.3399 39.0201 87.3299 43.0901 87.3499C47.1401 87.2599 51.2801 86.4699 55.1601 85.0999C62.9301 82.3599 69.9601 77.11 74.3401 69.9799C76.6101 66.4899 77.6801 62.2999 77.8701 58.1399C77.9401 56.0599 77.8401 53.9499 77.3801 51.9099L75.9601 45.7699V45.7799ZM76.1501 45.7299L77.6401 51.8599C78.1401 53.9199 78.2601 56.0499 78.2201 58.1599C78.0901 62.3799 77.0301 66.6299 74.8401 70.2899C70.6101 77.6699 63.5801 83.3 55.6401 86.41C51.6501 87.98 47.4401 88.9199 43.1001 89.0799C38.7401 89.1499 34.4701 88.1799 30.4401 86.7299C28.4001 85.9999 26.4701 85.0299 24.6001 84.0199C23.6501 83.4899 22.7901 83.0699 21.9401 82.6699C21.1501 82.3799 20.1601 82.3699 19.0301 82.2199C17.8701 82.0699 16.6901 81.6499 15.7001 81.0599C14.6901 80.4799 13.8101 79.7599 13.0101 78.9999C11.4101 77.4799 10.1001 75.7899 8.72006 74.2999L8.64006 74.2099L8.58006 74.0999C6.65006 70.7399 5.54006 66.8699 5.43006 62.9799L5.45006 63.1299C4.81006 59.5799 4.71006 55.9299 5.11006 52.3399C5.32006 50.4999 5.75006 48.7299 6.35006 46.9899C6.96006 45.2599 7.76006 43.6099 8.73006 42.0599L8.67006 42.1699C10.3701 38.5099 12.6501 35.1199 15.3701 32.1599L15.4001 32.1299L15.4301 32.1099L21.1901 26.7799L21.2301 26.7499L21.2601 26.7199C23.0001 25.4099 24.8601 24.2599 26.8201 23.2999C27.8001 22.8199 28.8001 22.3899 29.8101 21.9999C30.3201 21.7999 30.8301 21.6199 31.3301 21.4599L32.8201 20.9099C36.8601 19.4599 41.1601 18.4199 45.5501 18.5299C46.6501 18.5699 47.7201 18.6399 48.8301 18.8399C49.9301 19.0499 50.9901 19.3899 52.0101 19.8299C54.0501 20.6999 55.8501 21.9699 57.4901 23.3799C58.3101 24.0799 59.0901 24.8399 59.8301 25.6099C60.5701 26.3799 61.3201 27.1699 61.9801 28.0299C63.3201 29.7499 64.3801 31.6799 65.1101 33.7199L65.0901 33.6699C66.2201 35.9799 67.1101 38.4099 67.7201 40.9099C68.0501 42.1599 68.2201 43.4399 68.4201 44.6899L69.0201 48.4599V48.4899C69.2801 51.6099 69.0001 54.7799 68.1701 57.7999V57.7699C67.7301 60.5999 66.8701 63.3699 65.6301 65.9599C64.4301 68.5599 62.7701 70.9799 60.7401 73.0199L60.7701 72.9899C58.9801 75.3199 56.7301 77.2999 54.1901 78.7899H54.1801L54.1601 78.8099L50.3601 80.6099C49.7101 80.8999 49.1201 81.2399 48.4301 81.4799C47.7401 81.7399 47.0701 81.9399 46.3701 82.1099C43.5901 82.7999 40.6901 82.9699 37.8301 82.5499C36.4001 82.3299 34.9901 81.9599 33.6501 81.3799C32.2901 80.7799 31.1001 80.0299 29.9101 79.1999C27.5701 77.5299 25.4901 75.3999 24.0601 72.8399C23.3401 71.5699 22.7701 70.1799 22.4101 68.7999C21.9901 67.4299 21.7201 66.0099 21.5001 64.5899C21.0701 61.7499 21.0801 58.8499 21.4101 56.0099C22.0401 50.2999 24.2301 44.8699 26.9301 39.9499C29.5801 34.9999 32.7201 30.1099 37.1501 26.4399C39.3101 24.5899 41.9101 23.0999 44.7101 22.4099C47.5101 21.6899 50.4801 21.7599 53.2401 22.5099C56.0101 23.2599 58.5201 24.6499 60.8301 26.2499C63.1301 27.8699 65.2301 29.7599 67.2001 31.7499C69.1701 33.7399 71.0001 35.8799 72.5901 38.1999C74.1701 40.5099 75.4401 43.0599 76.1601 45.7799L76.1501 45.7299Z" fill="url(#paint0_linear_287_11668)"></path><path d="M50.49 16.0703L46 15.2003H46.03C44.52 15.1503 43.01 15.3003 41.55 15.6603C40.1 16.0403 38.64 16.5103 37.26 17.1103C34.48 18.3003 31.9 19.9203 29.46 21.7003C24.57 25.2703 20.28 29.6703 17 34.7203C15.36 37.2403 14 39.9403 12.95 42.7403C11.95 45.5603 11.16 48.5003 10.66 51.4603C10.16 54.4203 9.96996 57.4203 10.21 60.3903C10.46 63.3503 11.12 66.2903 12.13 69.0903C12.63 70.4903 13.22 71.8603 13.92 73.1703C14.59 74.5003 15.38 75.7503 16.25 76.9403C17.11 78.1403 18.12 79.2203 19.18 80.2303C20.28 81.2003 21.45 82.0803 22.72 82.8003C27.93 85.6903 33.89 87.2303 39.89 87.2803C45.9 87.3003 51.93 86.1203 57.61 84.0403C63.3 81.9503 68.66 78.9703 73.58 75.3803C78.48 71.7803 83.26 67.9103 87.12 63.2003C90.98 58.5403 94.05 53.0803 95.05 47.1003C95.56 44.1203 95.62 41.0803 95.31 38.0803C95.03 35.0803 94.21 32.1603 92.99 29.4103C90.55 23.9103 86.66 19.0903 82.02 15.3103C77.41 11.4803 71.75 9.0303 65.86 8.0803C64.38 7.8603 62.92 7.6703 61.44 7.7003C59.93 7.7003 58.43 7.7403 56.93 7.8403C53.93 8.0403 50.94 8.4703 48 9.1203C42.09 10.4003 36.4 12.4503 31.21 15.4903C26.01 18.5303 21.23 22.2403 17.2 26.6903L17.17 26.7303L17.14 26.7603C14.35 29.3303 11.87 32.2503 9.77996 35.4203L8.22996 37.8603C7.72996 38.6603 7.25996 39.4903 6.79996 40.3203C5.89996 41.9903 5.10996 43.7203 4.42996 45.4903C3.75996 47.2503 3.18996 49.1003 2.74996 50.9103C2.55996 51.8003 2.44996 52.7403 2.32996 53.6903C2.20996 54.6403 2.12996 55.5903 2.05996 56.5403C1.79996 60.3403 1.96996 64.1803 2.52996 67.9503L2.50996 67.8703L4.92996 77.8103L4.89996 77.7203C6.51996 82.1803 9.02996 86.2903 12.24 89.7903C15.45 93.2903 19.37 96.1503 23.72 98.1003C25.9 99.0703 28.18 99.8203 30.51 100.33C32.83 100.87 35.24 101.05 37.64 101.19C42.45 101.42 47.3 101.02 52.03 100.03L52.07 100.23C47.36 101.38 42.49 101.95 37.62 101.88C35.19 101.82 32.74 101.73 30.32 101.24C27.91 100.77 25.55 100.06 23.28 99.1103C18.74 97.2103 14.61 94.3403 11.19 90.7803C7.73996 87.2403 5.08996 82.9303 3.32996 78.3203V78.2803L3.29996 78.2303L0.739958 68.3303V68.3003L0.719958 68.2503C0.0799583 64.3503 -0.150042 60.3803 0.0599582 56.4303C0.179958 54.4403 0.349958 52.5203 0.749958 50.4903C1.21996 48.5103 1.78996 46.6403 2.49996 44.7803C3.19996 42.9203 4.01996 41.1103 4.95996 39.3603C5.42996 38.4903 5.91996 37.6203 6.44996 36.7803L8.01996 34.2903C10.19 30.9703 12.77 27.9103 15.68 25.2103L15.61 25.2803C17.7 22.9703 19.98 20.8303 22.42 18.8903C24.88 16.9603 27.46 15.2603 30.16 13.7003C35.56 10.6003 41.53 8.5003 47.58 7.2503C50.62 6.6103 53.7 6.1903 56.8 6.0003C58.35 5.9103 59.9 5.8703 61.45 5.8903C63.03 5.8903 64.61 6.1103 66.15 6.3603C72.31 7.4403 78.23 10.1003 82.97 14.1703C87.71 18.2003 91.6 23.2503 94.01 28.9903C95.21 31.8503 96.01 34.9103 96.24 38.0103C96.5 41.0903 96.38 44.2103 95.8 47.2603C95.24 50.3003 94.21 53.2603 92.77 56.0003C91.32 58.7303 89.59 61.2903 87.6 63.6403C83.63 68.3503 78.93 72.3603 74 76.0003C69.06 79.6403 63.7 82.7603 57.96 85.0403C52.22 87.2903 46.09 88.6403 39.87 88.7603C33.65 88.8703 27.35 87.3703 21.86 84.3403C20.46 83.5703 19.17 82.6103 17.97 81.5603C16.81 80.4703 15.72 79.3103 14.78 78.0403C12.88 75.5103 11.44 72.6703 10.42 69.7103C9.37996 66.7503 8.71996 63.6703 8.47996 60.5403C8.24996 57.4103 8.47996 54.2703 9.02996 51.2003C9.57996 48.1303 10.4 45.1503 11.48 42.2203C12.59 39.3003 14.07 36.5303 15.81 33.9703C19.3 28.8303 23.8 24.4403 28.85 20.9103C31.37 19.1403 34.08 17.6003 36.96 16.4703C38.41 15.9003 39.88 15.4803 41.4 15.1403C42.92 14.8203 44.48 14.7203 46.03 14.8303H46.05L50.5 15.9003L50.45 16.1003L50.49 16.0703Z" fill="url(#paint1_linear_287_11668)"></path><path d="M69.7399 16.0601C66.0499 18.0001 62.72 20.4601 59.57 23.1301C56.4299 25.8201 53.3699 28.6101 50.5499 31.6101C47.7299 34.6201 45.1199 37.8001 42.6699 41.1201C40.1299 44.3801 38.06 47.9201 36.65 51.8101V51.8401H36.63C35.92 53.3401 35.32 54.9001 34.9 56.5101C34.47 58.1201 34.19 59.7701 34.07 61.4301V61.4001L34.1699 65.4101C34.2199 66.7501 34.1999 68.0801 34.4599 69.3601C34.8999 71.9301 36.05 74.3301 37.72 76.2801L37.75 76.3101L37.79 76.3901C38.59 77.8401 39.6 79.1601 40.77 80.3001C41.95 81.4401 43.2999 82.3801 44.7599 83.1301L44.68 83.0901L50.81 85.5301L50.61 85.4701C52.74 85.8401 54.89 86.0301 57.04 86.0301C59.19 86.0301 61.34 85.8901 63.47 85.5501H63.52L63.58 85.5401C66.72 85.3801 69.8499 85.0601 72.9499 84.5001C76.0599 83.9801 79.0899 83.1801 82.1699 82.3101C85.2199 81.4301 88.2699 80.5201 91.2799 79.4701C94.2899 78.4301 97.2899 77.3401 100.27 76.1901L100.35 76.3701C97.5099 77.8401 94.61 79.2201 91.66 80.4601C88.7 81.7001 85.71 82.8701 82.66 83.8801C79.63 84.9101 76.51 85.8301 73.33 86.4801C70.15 87.1101 66.9299 87.5401 63.6899 87.7001H63.7999C61.5599 88.0301 59.2799 88.2101 57.0099 88.1401C54.7399 88.0801 52.47 87.8301 50.25 87.3901L50.1399 87.3701L50.06 87.3301L43.99 84.7401L43.93 84.7201L43.9 84.7001C42.33 83.8201 40.88 82.7201 39.63 81.4101C38.38 80.1101 37.3599 78.6001 36.5999 76.9801L36.6699 77.0901C34.9899 74.8601 33.9 72.2001 33.58 69.4701C33.38 68.1001 33.4799 66.7401 33.4599 65.4101V61.3901L33.45 61.3701C33.6 59.6701 33.8699 57.9801 34.2799 56.3301C34.6999 54.6801 35.2099 53.0601 35.8899 51.4901L35.8699 51.5301C37.0299 47.4901 38.97 43.6201 41.34 40.1601C43.66 36.6501 46.3299 33.3701 49.2799 30.3601C52.2199 27.3301 55.4299 24.6201 58.7599 22.0801C62.1099 19.5601 65.74 17.3301 69.66 15.8501L69.7399 16.0301V16.0601Z" fill="url(#paint2_linear_287_11668)"></path><path d="M118.3 55.3402C115.05 57.4302 111.29 58.7202 107.5 59.5002C105.6 59.9102 103.69 60.1802 101.79 60.4402C99.8799 60.7202 97.9699 60.9002 96.0499 61.0902C88.3799 61.8602 80.6499 61.4602 72.9999 60.9702C65.3499 60.4702 57.6699 60.1102 50.0499 58.8202C46.2399 58.1702 42.4399 57.1302 38.8499 55.7902C37.0599 55.2402 35.1699 54.5802 33.3799 53.8302C31.5799 53.0702 29.8299 52.2102 28.1199 51.2702L28.0799 51.2502L28.0499 51.2302L22.3299 47.3302L22.2799 47.3002L22.2599 47.2802C18.9299 44.5202 15.9799 41.3002 13.6299 37.7002L13.5999 37.6602C12.6099 35.8702 11.7799 33.9902 11.1199 32.0702C10.4799 30.1402 9.96985 28.1902 9.59985 26.2102L9.79985 26.1602C11.0599 29.9702 12.5999 33.6702 14.7699 36.9602L14.7399 36.9202C17.2999 40.2202 20.2299 43.1902 23.5299 45.7102L23.4599 45.6602L29.2599 49.4402L29.1799 49.3902C30.8199 50.3002 32.5099 51.1302 34.2299 51.8802C35.9599 52.6502 37.6699 53.3002 39.5299 53.9302C43.0799 55.3502 46.6699 56.4402 50.3699 57.2902C57.7799 59.0102 65.3999 60.0902 73.0499 60.3302C80.7099 60.5202 88.3299 59.8202 95.9199 59.3302C103.5 58.6302 111.21 58.3702 118.22 55.1902L118.32 55.3702L118.3 55.3402Z" fill="url(#paint3_linear_287_11668)"></path><path d="M14.0999 12.93C13.3499 14.17 12.8299 15.52 12.2699 16.86C11.7099 18.22 11.0799 19.52 10.5599 20.87C9.48985 23.56 8.53985 26.29 7.88985 29.09C7.21985 31.89 6.83985 34.74 6.63985 37.6C6.44985 40.46 6.49985 43.33 6.79985 46.17V46.1L8.06985 52.94L8.01986 52.77C8.89986 55.04 9.77985 57.3 10.6199 59.58L10.5399 59.42C11.8599 61.46 13.1499 63.53 14.4399 65.59L14.3499 65.48L19.1999 70.53L19.1099 70.46L23.7299 73.64C25.2399 74.76 26.8599 75.63 28.5299 76.48C30.1899 77.32 31.9099 78.06 33.6399 78.73C34.5099 79.07 35.3899 79.37 36.2799 79.65L38.9499 80.53C42.5099 81.66 46.1399 82.55 49.8199 83.15L52.5999 83.59C53.5199 83.77 54.4199 83.91 55.3399 84C57.1699 84.19 59.0099 84.21 60.8399 84.06H60.8699H60.9399C64.0999 84.25 67.2799 84.02 70.3499 83.32H70.3999L70.4699 83.3C73.8099 83.02 77.1099 82.34 80.2699 81.23L80.3199 81.21H80.3899C83.5099 80.57 86.5299 79.51 89.3499 78.07L89.4099 78.04L89.4899 78.01C92.2499 77.05 94.8699 75.71 97.2399 74.02L97.2999 73.98L97.3699 73.95C99.8699 72.63 102.19 71.01 104.3 69.14L104.36 69.09L104.41 69.06C106.5 67.66 108.38 65.97 110.03 64.07L110.1 63.99L110.16 63.94C111.7 62.7 112.98 61.14 113.88 59.36L113.93 59.26L113.98 59.2C115.08 57.85 115.86 56.26 116.26 54.55L116.29 54.44L116.33 54.37C117.1 52.85 117.47 51.15 117.41 49.43V49.31L117.43 49.23C117.87 47.54 117.74 45.74 117.03 44.11L116.99 44.02V43.95C116.76 41.97 115.99 40.06 114.75 38.46L114.72 38.43V38.41C113.03 35.36 111.03 32.48 108.6 29.95L108.74 29.8C111.4 32.13 113.59 34.96 115.5 37.94L115.46 37.89C116.88 39.54 117.84 41.62 118.19 43.79L118.14 43.62C119.03 45.42 119.31 47.58 118.88 49.57L118.9 49.37C119.05 51.32 118.67 53.33 117.83 55.1L117.89 54.92C117.5 56.87 116.64 58.74 115.43 60.33L115.53 60.17C114.57 62.19 113.17 64.02 111.46 65.48L111.58 65.36C109.87 67.44 107.85 69.27 105.63 70.8L105.74 70.71C103.54 72.74 101.05 74.48 98.3899 75.86L98.5099 75.78C95.9699 77.6 93.1399 79.02 90.1699 79.98L90.2999 79.92C87.2899 81.4 84.0699 82.46 80.7799 83.07L80.9099 83.04C77.5799 84.15 74.0999 84.82 70.5999 84.99L70.7199 84.97C67.4699 85.61 64.1199 85.79 60.8399 85.43H60.9399C59.0299 85.5 57.1099 85.4 55.2199 85.12C54.2799 84.98 53.3299 84.8 52.4199 84.58L49.6699 84.04C45.9799 83.27 42.3299 82.32 38.7599 81.14C36.9799 80.53 35.2199 79.93 33.4399 79.28C31.6699 78.63 29.9399 77.87 28.2399 77.07C26.5399 76.28 24.8499 75.38 23.2799 74.35L18.4999 71.37L18.4599 71.35L18.4099 71.3L13.3399 66.48L13.2999 66.44L13.2499 66.37C11.8699 64.37 10.4699 62.37 9.11985 60.35L9.06985 60.28L9.02985 60.19C8.10985 57.94 7.22985 55.67 6.33985 53.41L6.30985 53.33L6.28985 53.25L5.06985 46.4V46.36V46.33C4.76985 43.37 4.79985 40.4 5.06985 37.45C5.32985 34.51 5.86985 31.59 6.66985 28.75C7.47985 25.91 8.50985 23.15 9.78985 20.51C10.4199 19.18 11.1399 17.91 11.7799 16.61C12.4199 15.31 13.0799 13.98 13.9499 12.79L14.1199 12.9L14.0999 12.93Z" fill="url(#paint4_linear_287_11668)"></path><path d="M8.79992 31.1498C7.90992 32.4098 7.39992 33.8898 7.24992 35.4098C7.08992 36.9298 7.14992 38.4699 7.32992 39.9899C7.70992 43.0299 8.58992 45.9898 9.60992 48.8798C11.6599 54.6398 15.1499 59.8998 19.8399 63.7898C24.5299 67.7298 30.2199 70.1999 35.9899 72.2999C38.8799 73.3299 41.8199 74.2198 44.8199 74.8298C47.8099 75.4498 50.8799 75.6398 53.9599 75.7098C60.1099 75.8198 66.2599 75.1099 72.2999 73.9099C78.3299 72.6799 84.2799 70.9198 89.8299 68.2798C92.6099 66.9698 95.2599 65.3998 97.8299 63.7198C100.4 62.0298 102.86 60.1898 105.15 58.1498C107.45 56.1198 109.55 53.8798 111.27 51.3698C112.98 48.8698 114.39 46.0998 114.76 43.1398V43.1798L114.91 38.2899L114.93 38.4398L113.56 33.7598L113.59 33.8398C112.38 31.3198 110.61 29.0898 108.44 27.3298L108.4 27.2998L108.37 27.2698C107.02 25.7198 105.38 24.4198 103.57 23.4398H103.55L103.53 23.4198C101.9 22.3598 100.2 21.4098 98.4399 20.5798C96.6699 19.7698 94.8399 19.0898 92.9799 18.5298C89.2399 17.4498 85.3599 16.8398 81.4499 16.7598C77.5499 16.6598 73.6199 17.0498 69.7799 17.8198C65.9499 18.5998 62.1999 19.8898 58.8699 21.9398H58.8899L54.2699 25.4098L54.2899 25.3898C51.8899 27.7498 50.0599 30.6998 49.0299 33.9298L48.9299 33.8999C49.8699 30.6299 51.6199 27.5798 53.9999 25.1098L54.0099 25.0898L58.5599 21.5198L58.5699 21.5098C61.9299 19.3598 65.7399 17.9898 69.6099 17.1398C73.4899 16.2998 77.4599 15.8398 81.4399 15.8798C85.4199 15.9098 89.4099 16.4398 93.2399 17.5598C95.1499 18.1298 97.0299 18.8198 98.8499 19.6498C100.66 20.4998 102.41 21.4698 104.09 22.5498L104.05 22.5298C105.97 23.5598 107.72 24.9398 109.16 26.5798L109.1 26.5198C111.39 28.3698 113.24 30.7598 114.5 33.4098L114.52 33.4499V33.4899L115.87 38.1798L115.89 38.2598V38.3398L115.7 43.2298V43.2498V43.2698C115.27 46.4598 113.77 49.3398 111.97 51.8798C110.16 54.4298 107.97 56.6898 105.62 58.7098C103.27 60.7398 100.76 62.5699 98.1399 64.2299C95.5299 65.8899 92.8299 67.4198 90.0099 68.6998C84.3699 71.2598 78.3999 73.0098 72.3499 74.2398C66.2999 75.4898 60.1399 76.2498 53.9499 76.2898C50.8599 76.2898 47.7399 76.1598 44.6799 75.5798C41.6199 75.0298 38.6199 74.1698 35.6999 73.1398C32.7899 72.0898 29.8899 70.9898 27.0999 69.5798C24.3299 68.1698 21.6799 66.4798 19.2999 64.4598C14.4999 60.4398 10.9899 54.9998 9.03992 49.0998C8.07992 46.1598 7.20992 43.1598 6.93992 40.0498C6.80992 38.4998 6.79992 36.9399 6.99992 35.3999C7.20992 33.8599 7.77992 32.3498 8.71992 31.1098L8.79992 31.1698V31.1498Z" fill="url(#paint5_linear_287_11668)"></path><path d="M39.12 41.9301C39.89 43.6101 40.68 45.3301 41.95 46.6501C43.22 47.9701 44.8 48.9501 46.46 49.7101C49.82 51.2101 53.42 52.1501 57.07 52.6301C64.39 53.5801 71.87 53.2401 79.03 51.4101C82.61 50.5101 86.09 49.2101 89.39 47.5501C92.69 45.8901 95.78 43.7701 98.39 41.1501C100.95 38.5201 103.18 35.4001 104.11 31.8401C104.55 30.0701 104.66 28.2101 104.61 26.3801C104.55 24.5501 104.23 22.7301 103.57 21.0401L103.59 21.0801L101.24 16.9601L101.29 17.0301L97.85 13.2501L97.88 13.2801C94.61 10.3001 90.61 8.16008 86.39 6.82008C82.16 5.46008 77.72 4.86008 73.28 5.16008C71.07 5.31008 68.83 5.54008 66.72 6.12008C64.59 6.68008 62.55 7.57008 60.63 8.68008C56.79 10.9101 53.33 13.8701 50.92 17.6301V17.6501C49.86 19.0001 49.05 20.5401 48.49 22.1701V22.1901H48.48C47.34 24.4001 46.59 26.8101 46.25 29.2801H46.15C46.39 26.7701 47.05 24.3001 48.11 22.0001V22.0301C48.6 20.3301 49.43 18.7201 50.49 17.3001V17.3201C52.85 13.4201 56.34 10.2901 60.21 7.93008C62.16 6.74008 64.25 5.77008 66.47 5.14008C68.7 4.52008 70.97 4.29008 73.23 4.12008C77.77 3.81008 82.41 4.36008 86.73 5.83008C91.05 7.26008 95.15 9.49008 98.51 12.6201L98.53 12.6401H98.54L101.89 16.5101L101.92 16.5501L101.94 16.5801L104.2 20.7501V20.7801L104.22 20.8001C104.87 22.5901 105.16 24.4901 105.18 26.3701C105.19 28.2501 105.04 30.1301 104.54 31.9601C103.47 35.6001 101.23 38.7401 98.61 41.3701C96 44.0401 92.89 46.2001 89.6 47.9601C86.31 49.7301 82.83 51.1501 79.23 52.1601C75.63 53.2001 71.9 53.7501 68.17 53.9801C64.42 54.1601 60.68 53.9401 56.97 53.4301C53.25 52.9301 49.62 51.8301 46.23 50.2201C44.54 49.4001 42.94 48.3201 41.69 46.9001C40.43 45.4701 39.72 43.7001 39.02 41.9901L39.11 41.9501L39.12 41.9301Z" fill="url(#paint6_linear_287_11668)"></path><path d="M2.66999 67.6003C2.97999 69.0503 3.18999 70.5203 3.52999 71.9503C3.86999 73.3703 4.37999 74.7503 4.99999 76.0803C6.23999 78.7303 7.94999 81.1503 10.02 83.1803C12.08 85.2303 14.53 86.8403 17.12 88.2003C19.71 89.5703 22.4 90.7203 25.18 91.6203C30.75 93.4003 36.55 94.4703 42.39 94.8003C48.24 95.1303 54.11 94.7203 59.92 93.8903C65.72 93.0303 71.49 91.8703 77.01 89.9303C82.54 88.0403 87.77 85.3803 92.53 81.9503C94.91 80.2403 97.2 78.4103 99.25 76.3403C101.3 74.2803 103.03 71.9103 104.41 69.3503C107.18 64.2303 108.49 58.2603 107.82 52.4403C107.5 49.5303 106.76 46.6703 105.68 43.9403C104.59 41.2103 103.18 38.6203 101.56 36.1703C98.27 31.3003 94.3 26.8603 89.64 23.2903C85.01 19.6703 79.62 17.2003 74.05 15.3703C68.48 13.5603 62.67 12.3903 56.87 11.8203C51.07 11.3203 45.17 11.7603 39.63 13.4103C34.13 15.1203 28.85 17.9003 24.46 21.5803C22.28 23.4503 20.36 25.6203 18.61 27.9403C16.84 30.2503 15.28 32.6903 13.99 35.2603C12.69 37.8203 11.74 40.5703 10.93 43.3603C10.13 46.1503 9.54999 49.0103 9.16999 51.8903V51.9303L9.15999 51.9703C8.73999 53.9503 8.61999 55.9803 8.78999 58.0003V58.0903V58.1703C8.61999 60.1703 8.85999 62.1803 9.50999 64.0803L9.52999 64.1303V64.1803C10.59 68.8703 12.5 73.3403 15.05 77.4603L15.08 77.5003L15.1 77.5303C16.14 79.6303 17.55 81.5403 19.26 83.1503L19.32 83.2103L19.36 83.2703C20.74 85.1303 22.46 86.7303 24.42 87.9803L24.49 88.0203L24.54 88.0703C26.24 89.6803 28.25 90.9503 30.44 91.8103L30.52 91.8403L30.58 91.8803C32.52 93.1803 34.74 94.0203 37.07 94.3103H37.15L37.21 94.3403C39.63 95.2303 42.25 95.5203 44.83 95.1903H44.89H44.94C48.05 95.4203 51.19 95.1603 54.24 94.4503H54.26H54.27C60.24 93.5803 66.15 92.1803 71.84 90.0903L71.91 90.2803C66.29 92.5903 60.4 94.2203 54.41 95.3103H54.45C51.34 96.1403 48.09 96.4803 44.87 96.3303H44.98C42.25 96.7403 39.4 96.5003 36.77 95.6103L36.91 95.6403C34.38 95.3903 31.9 94.5303 29.74 93.1603L29.88 93.2303C27.5 92.3403 25.29 90.9903 23.42 89.2703L23.54 89.3603C21.4 88.0403 19.5 86.3203 17.96 84.3203L18.06 84.4303C16.17 82.7103 14.59 80.6403 13.42 78.3603L13.46 78.4303C10.77 74.2103 8.62999 69.5503 7.53999 64.6003L7.56999 64.7003C6.83999 62.5503 6.54999 60.2403 6.72999 57.9703V58.1403C6.53999 55.9303 6.66999 53.6903 7.11999 51.5203V51.6003C7.48999 48.6203 8.07999 45.6603 8.89999 42.7603C9.71999 39.8703 10.71 37.0003 12.08 34.2703C13.42 31.5403 15.11 29.0003 16.95 26.6303C18.79 24.2503 20.82 21.9803 23.16 20.0103C27.88 16.1403 33.31 13.3403 39.11 11.5903C44.94 9.8803 51.07 9.5703 57.03 10.1703C62.99 10.8203 68.83 12.1603 74.47 14.1303C80.08 16.1203 85.55 18.7603 90.2 22.5503C94.85 26.3103 98.84 30.8103 102.13 35.7603C103.75 38.2603 105.17 40.8903 106.26 43.6703C107.38 46.4303 108.17 49.3403 108.53 52.3103C109.28 58.2703 107.97 64.3803 105.29 69.7403C103.93 72.4103 102.2 74.9203 100.13 77.1103C98.07 79.3003 95.77 81.2303 93.39 83.0303C91 84.8303 88.48 86.4703 85.84 87.9003C83.2 89.3503 80.42 90.4903 77.6 91.5003C71.95 93.4903 66.09 94.8303 60.18 95.6003C54.28 96.3903 48.28 96.7603 42.31 96.3603C36.34 95.9803 30.41 94.8303 24.77 92.8403C21.94 91.8603 19.2 90.6003 16.59 89.1503C13.99 87.6903 11.45 85.9803 9.38999 83.7703C7.31999 81.5803 5.64999 79.0303 4.47999 76.2703C3.89999 74.8903 3.41999 73.4703 3.13999 71.9903C2.85999 70.5203 2.72999 69.0503 2.48999 67.5903L2.68999 67.5503L2.66999 67.6003Z" fill="url(#paint7_linear_287_11668)"></path><path d="M28.66 40.4199C28.54 41.8999 28.3 43.4299 28.19 44.8799C28.11 46.3499 28.14 47.8199 28.2 49.3199C28.25 50.8299 28.27 52.2999 28.41 53.7599C28.51 55.2299 28.74 56.6799 28.95 58.1299C29.46 61.0299 30.2 63.8699 31.07 66.6899C31.91 69.5199 33 72.2899 34.26 74.9899C36.78 80.3899 40.44 85.2599 44.95 89.0999C49.47 92.8999 54.62 95.9299 60.24 97.4599H60.26L60.31 97.4899C61.5 97.9099 62.74 98.1899 63.98 98.3599C65.23 98.5199 66.49 98.5099 67.75 98.3999C68.35 98.3599 69.01 98.2299 69.68 98.1199L71.66 97.7899L75.63 97.1599L75.48 97.1999C77.74 96.4399 80.02 95.6999 82.3 94.9799L82.24 94.9999C85.54 93.6499 88.59 91.6699 91.27 89.2099L91.42 89.3499C90.28 90.7899 88.95 92.0899 87.52 93.2699C86.07 94.4199 84.49 95.4299 82.83 96.2899L82.77 96.3099C80.56 97.2199 78.34 98.1099 76.11 98.9699L76.05 98.9899L75.95 99.0099L71.99 99.8099L70.01 100.19C69.35 100.32 68.7 100.46 67.96 100.54C65.14 100.85 62.21 100.49 59.57 99.4399L59.65 99.4699C53.74 97.6599 48.37 94.3199 44.13 89.9799C39.86 85.6499 36.46 80.6299 33.47 75.4099C31.96 72.7999 30.6 70.0799 29.49 67.2499C28.41 64.4099 27.65 61.4299 27.21 58.4099C26.76 55.3999 26.73 52.2899 26.9 49.3099C26.98 47.8099 27.05 46.2799 27.35 44.7799C27.67 43.2599 28.05 41.8699 28.45 40.3999L28.65 40.4299L28.66 40.4199Z" fill="url(#paint8_linear_287_11668)"></path><path d="M39.1401 29.6503C38.2301 30.6503 37.3901 31.7103 36.8301 32.9003C36.2601 34.0803 35.9401 35.3803 35.6801 36.6803C35.1901 39.2903 35.1601 41.9603 35.3701 44.6203C35.6001 47.2703 36.0501 49.9103 36.7001 52.5103C37.3401 55.1103 38.0801 57.6903 38.9901 60.2103C39.8701 62.7403 40.8801 65.2403 42.1101 67.6403C43.3201 70.0403 44.6701 72.3902 46.2901 74.5602C49.4801 78.9302 53.5001 82.6803 58.0101 85.6003C62.4801 88.5703 67.5801 90.4903 72.8201 90.8003C78.0601 91.0903 83.3701 89.9103 88.1301 87.7203C92.9101 85.5203 97.1801 82.1903 100.22 77.8603C101.75 75.7003 103.03 73.3503 103.95 70.8303C104.4 69.5803 104.79 68.2803 105.07 66.9803C105.35 65.6803 105.35 64.3403 105.16 63.0003L105.36 62.9603C105.74 64.2703 105.88 65.6903 105.72 67.0803C105.57 68.4603 105.31 69.8203 104.93 71.1503C104.16 73.8103 103.05 76.3803 101.55 78.7503C98.6101 83.5303 94.0901 87.2603 89.0501 89.6803C83.9701 92.0703 78.2901 93.1502 72.6801 92.7002C67.0501 92.2402 61.7201 89.8703 57.3701 86.5103C55.1401 84.9003 53.1201 83.0203 51.1701 81.1103C49.2201 79.1903 47.4401 77.1102 45.7601 74.9502C42.4101 70.6402 39.5001 65.9203 37.4101 60.8103C36.3501 58.2603 35.5501 55.6103 34.9501 52.9203C34.3101 50.2403 33.9101 47.4903 33.8001 44.7203C33.6901 41.9503 33.8901 39.1403 34.6301 36.4503C35.0001 35.1103 35.4801 33.7803 36.2301 32.5803C36.9601 31.3703 37.9501 30.3703 39.0101 29.5103L39.1501 29.6603L39.1401 29.6503Z" fill="url(#paint9_linear_287_11668)"></path><path d="M21.23 26.8201C19.98 33.1601 20.91 39.5601 22.37 45.7401C23.11 48.8401 23.97 51.9201 24.94 54.9601C25.91 58.0001 26.88 61.0701 27.96 64.0601C30.19 70.0101 33.1 75.8501 37.38 80.6301C38.42 81.8301 39.66 82.8901 40.79 84.0101L42.54 85.6601C43.13 86.2101 43.7 86.7801 44.32 87.2301C46.81 89.1701 49.72 90.5001 52.74 91.2201H52.78L52.85 91.2601C55.21 92.2301 57.73 92.7601 60.25 92.8901C60.88 92.9201 61.52 92.9301 62.15 92.9101C62.47 92.9101 62.77 92.8801 63.08 92.8701L64.06 92.7701L67.98 92.3701L71.89 91.9601C73.13 91.7601 74.43 91.5501 75.68 91.2601C78.19 90.6901 80.67 89.9401 83.08 89.0201L83.13 89.0001H83.16C84.99 88.4501 86.78 87.7601 88.5 86.9301C90.22 86.1001 91.86 85.0701 93.48 84.0001C94.29 83.4601 95.08 82.8901 95.86 82.3101L97.05 81.4301C97.5 81.1001 97.99 80.8401 98.46 80.6301C98.95 80.4101 99.38 80.2701 99.78 80.0501C100.19 79.8401 100.59 79.6001 100.98 79.3301C101.76 78.7901 102.49 78.1601 103.22 77.5101L103.25 77.4901C104.32 76.7001 105.25 75.7001 105.96 74.5501L105.94 74.5901C106.33 73.7001 106.39 72.6701 106.07 71.7101L106.26 71.6401C106.71 72.5901 106.8 73.7501 106.45 74.7801L106.44 74.8201C105.81 76.0901 104.92 77.2601 103.84 78.2201L103.87 78.1901C103.18 78.9001 102.46 79.6101 101.66 80.2501C101.26 80.5701 100.83 80.8701 100.38 81.1401C99.93 81.4201 99.43 81.6301 99.04 81.8401C98.63 82.0601 98.26 82.2901 97.93 82.5701L96.8 83.5301C96.03 84.1601 95.25 84.7801 94.44 85.3801C92.84 86.5701 91.17 87.7001 89.37 88.6601C87.58 89.6201 85.7 90.4101 83.76 91.0101L83.84 90.9801C81.35 92.0001 78.77 92.8301 76.14 93.4001C74.82 93.6901 73.52 93.9301 72.15 94.1101L68.18 94.4301L64.22 94.7401L63.23 94.8201C62.88 94.8301 62.53 94.8501 62.19 94.8501C61.51 94.8501 60.82 94.8301 60.14 94.7801C57.41 94.5801 54.72 93.8501 52.24 92.7301L52.35 92.7701C49.15 91.8401 46.2 90.1801 43.71 88.0401C43.06 87.5101 42.52 86.9001 41.96 86.3301L40.28 84.5901L38.58 82.8601C38.01 82.2901 37.43 81.7301 36.91 81.1001C34.79 78.6401 32.9 76.0101 31.19 73.2501C29.45 70.5101 27.94 67.6301 26.6 64.6601C24.01 58.7001 22.07 52.5101 20.76 46.1301C20.12 42.9501 19.66 39.7001 19.63 36.4401C19.59 33.1801 20.01 29.8901 21.02 26.8101L21.22 26.8601L21.23 26.8201Z" fill="url(#paint10_linear_287_11668)"></path><path d="M32.9299 23.7898C32.3599 24.1198 31.6899 24.3898 31.2899 24.7998C30.8999 25.2098 30.8499 25.8698 30.7499 26.5198C30.5599 27.8398 30.4099 29.1598 30.2599 30.4698C29.9799 33.1098 29.8799 35.7198 29.9099 38.3698C29.9699 43.6598 30.4599 48.9098 31.4199 54.0998C32.3399 59.2898 33.5899 64.4898 35.7799 69.3298C36.8699 71.7498 38.2199 74.0298 39.7799 76.1798C41.3199 78.3498 43.0399 80.3698 44.8499 82.2898C46.6899 84.1898 48.6799 85.9098 50.7899 87.4498C52.8899 88.9898 55.1999 90.2199 57.5499 91.4099C62.2399 93.7399 67.2899 95.2198 72.4299 94.8898C77.6599 94.6998 82.8599 93.7698 87.8699 92.1698C92.8799 90.5598 97.7499 88.3698 101.78 84.8598L101.92 84.9998C100.13 86.9998 97.9999 88.7098 95.6899 90.1198C93.3699 91.5198 90.9199 92.6898 88.3999 93.6698C83.3499 95.6298 77.9599 96.7398 72.5299 97.0398C69.7899 97.2098 66.9499 96.9098 64.2899 96.1798C61.6199 95.4498 59.0899 94.3498 56.6899 93.0998C54.2999 91.8398 51.9499 90.4398 49.8199 88.7198C47.6699 87.0398 45.7799 85.0698 44.0299 83.0198C42.2699 80.9698 40.7199 78.7798 39.2099 76.5598C37.7099 74.3498 36.3299 72.0198 35.1799 69.5998C32.8299 64.7798 30.9899 59.6798 29.7599 54.4298C28.5399 49.1598 28.1599 43.7198 28.3299 38.3498C28.4099 35.6698 28.6699 32.9498 29.1799 30.3098C29.4199 28.9898 29.7299 27.6798 30.0599 26.3798C30.2299 25.7598 30.3399 24.9798 30.9499 24.4398C31.5599 23.9698 32.2199 23.8598 32.8299 23.5898L32.9199 23.7698L32.9299 23.7898Z" fill="url(#paint11_linear_287_11668)"></path><path d="M27.1099 20.3003C27.4599 26.2603 27.3799 32.2403 27.6699 38.1503C27.9599 44.0403 28.7199 49.9303 29.8399 55.7103C30.9299 61.4903 32.7599 67.1703 35.6999 72.3303C38.6099 77.4903 42.5699 82.0403 47.2599 85.6303C48.4499 86.5603 49.5499 87.4903 50.7899 88.2703C52.0099 89.0603 53.2799 89.7603 54.5999 90.3703C57.2299 91.5803 60.0399 92.4003 62.8899 92.8003C65.7599 93.2103 68.6199 93.0803 71.5399 92.7003C74.4399 92.3303 77.3299 91.8003 80.1499 91.0503C85.8299 89.6003 91.2799 87.3503 96.3699 84.3903C98.9199 82.9103 101.4 81.3103 103.77 79.5403C104.94 78.6503 106.15 77.7603 107.26 76.8003C107.8 76.3103 108.32 75.8003 108.72 75.2003C109.12 74.6203 109.41 73.9203 109.2 73.2303L109.39 73.1603C109.54 73.5303 109.58 73.9403 109.51 74.3303C109.43 74.7203 109.29 75.0903 109.1 75.4303C108.73 76.1203 108.23 76.7003 107.71 77.2603C106.65 78.3603 105.55 79.3503 104.41 80.3303C102.13 82.2803 99.7299 84.1103 97.1999 85.7403C92.1599 89.0503 86.5399 91.5303 80.6999 93.1203C77.7699 93.9003 74.7899 94.4803 71.7699 94.7803C68.7799 95.1103 65.6299 95.1803 62.5999 94.6703C59.5599 94.1903 56.6099 93.1903 53.8899 91.8003C51.1499 90.4503 48.6899 88.5003 46.5399 86.4603C41.9899 82.5303 38.1999 77.7703 35.1299 72.6403C33.5899 70.0703 32.2099 67.4003 31.0199 64.6303C29.8599 61.8503 28.9099 58.9803 28.1899 56.0503C27.4799 53.1203 26.9999 50.1403 26.6699 47.1603C26.5099 45.6703 26.3699 44.1803 26.2599 42.6703C26.1599 41.1703 26.1299 39.6703 26.0999 38.1703C26.0399 32.1703 26.5399 26.2303 26.9099 20.2803H27.1099V20.3003Z" fill="url(#paint12_linear_287_11668)"></path><path d="M13.5 31.4499C13.31 33.2299 13.39 35.0099 13.59 36.7799C13.79 38.5599 14.01 40.3299 14.28 42.0899C14.83 45.6199 15.61 49.0999 16.46 52.5699C17.27 56.0699 18.2 59.4799 19.32 62.8699C20.44 66.2599 21.62 69.5899 23.1 72.8399C23.84 74.4599 24.63 76.0599 25.48 77.6199C25.9 78.3999 26.35 79.1799 26.8 79.9399C27.28 80.6799 27.8 81.3899 28.35 82.0999C30.51 84.9299 33.04 87.5099 35.93 89.5799C41.67 93.8199 49.03 95.5599 55.94 94.6499H55.97H56.04C58.74 94.6499 61.44 94.4099 64.09 93.9399C65.42 93.6999 66.73 93.3999 68.03 93.0499C69.31 92.6899 70.65 92.2699 71.94 91.8599C77.09 90.1699 82.07 87.9399 86.87 85.3699C89.26 84.0699 91.64 82.7199 93.96 81.2799C96.27 79.8499 98.47 78.2499 100.6 76.5499C102.74 74.8599 104.79 73.0499 106.73 71.1199C107.71 70.1599 108.69 69.2099 109.51 68.1399C110.31 67.0799 111.06 65.8699 111.02 64.5199L111.22 64.4999C111.43 65.9499 110.73 67.3199 110 68.4899C109.24 69.6699 108.32 70.7399 107.41 71.7699C105.57 73.8399 103.61 75.8099 101.54 77.6699C99.46 79.5199 97.25 81.2199 94.93 82.7899C92.63 84.3399 90.28 85.8299 87.85 87.1799C83.01 89.8999 77.9 92.2299 72.54 93.8299C71.19 94.2199 69.89 94.5999 68.52 94.9599C67.16 95.2999 65.78 95.5799 64.39 95.7999C61.61 96.2499 58.79 96.3799 55.99 96.2699H56.09C48.68 96.9599 41.29 94.4499 35.51 90.1199C32.6 87.9399 30.06 85.3399 27.73 82.5699C27.16 81.8699 26.57 81.1699 26.03 80.4399C25.51 79.6799 25.02 78.9299 24.54 78.1599C23.57 76.6299 22.67 75.0599 21.82 73.4499C18.39 67.0299 16.27 59.9899 14.83 52.9299C14.05 49.4099 13.48 45.8199 13.14 42.2199C12.96 40.4199 12.85 38.6099 12.83 36.8099C12.8 35.0099 12.86 33.1599 13.29 31.3999L13.49 31.4299L13.5 31.4499Z" fill="url(#paint13_linear_287_11668)"></path><path d="M21.81 33.3699C21.07 33.9699 20.26 34.4899 19.7 35.1899C19.41 35.5299 19.22 35.9199 19.15 36.3399C19.07 36.7399 19.11 37.2099 19.17 37.6499C19.46 39.4399 20.39 41.0799 21.18 42.8099C22.74 46.2199 24.61 49.4799 26.66 52.5999C30.78 58.8499 35.77 64.4699 41.38 69.4199C44.17 71.9099 47.12 74.2299 50.25 76.2999C53.37 78.3699 56.68 80.1999 60.16 81.6199C67.07 84.5699 74.87 85.3099 82.19 83.8899C84.02 83.5399 85.82 83.0699 87.59 82.4499C89.38 81.8799 91.07 81.1999 92.69 80.3299C94.3 79.4599 95.82 78.4199 97.22 77.2399C98.63 76.0799 99.81 74.7499 100.77 73.2299C101.72 71.7099 102.38 70.0699 102.8 68.2899C103.27 66.4999 103.57 64.7199 103.67 62.8899C103.89 59.2499 103.41 55.5799 102.47 52.0099C101.57 48.4299 100.22 44.9299 98.69 41.5399C97.15 38.1499 95.3 34.8999 93.11 31.8999C90.92 28.8999 88.42 26.0999 85.52 23.7599C82.63 21.4299 79.27 19.6199 75.57 18.8499L75.6 18.6499C79.39 19.0899 83.02 20.6999 86.13 22.9499C89.23 25.2099 92 27.9299 94.37 30.9499C96.74 33.9799 98.75 37.2699 100.45 40.7099C102.15 44.1499 103.54 47.7399 104.56 51.4699C106.59 58.8999 106.5 67.2799 102.38 74.2499C101.29 75.9099 99.91 77.4299 98.36 78.6099C96.83 79.8199 95.18 80.8799 93.44 81.7499C91.71 82.6299 89.84 83.2899 88 83.7699C86.17 84.3099 84.28 84.7099 82.38 84.9799C74.79 86.0899 66.98 85.0999 59.93 82.2299C52.84 79.4799 46.2 75.5499 40.3 70.6899C34.42 65.8199 29.36 59.9299 25.35 53.4299C23.33 50.1799 21.65 46.7399 20.21 43.2099C19.51 41.4899 18.67 39.6999 18.49 37.7099C18.46 37.2099 18.45 36.7199 18.59 36.1999C18.73 35.6899 19.01 35.2299 19.35 34.8699C20.05 34.1399 20.92 33.7199 21.7 33.1999L21.82 33.3599L21.81 33.3699Z" fill="url(#paint14_linear_287_11668)"></path><path d="M33.2701 16.3502C32.6201 17.1202 32.1801 18.0202 32.0801 18.9902C31.9801 19.9602 31.9901 20.9902 32.0001 21.9902C32.0401 24.0002 32.2301 25.9902 32.5601 27.9702C33.2201 31.9302 34.4101 35.7702 35.7501 39.5602C38.3801 47.1602 42.3701 54.1702 47.4701 60.3702C52.6101 66.4802 58.8801 71.9602 66.3401 75.0802C68.2001 75.8502 70.1101 76.4902 72.0701 76.9202C74.0301 77.3402 76.0201 77.5702 78.0201 77.5902C82.0201 77.7202 85.9601 76.8502 89.5101 75.1502L89.4401 75.1902C94.6801 72.0002 98.5001 66.7002 99.7601 60.7402C101.06 54.7602 100.44 48.4502 99.1301 42.3802C97.7701 36.3102 95.6301 30.3602 92.2901 25.1002C89.0201 19.8302 84.4001 15.2902 78.6301 12.6602L78.7001 12.4702C81.7101 13.5102 84.5201 15.1502 87.0201 17.1802C89.5001 19.2302 91.6701 21.6502 93.5201 24.2902C97.1701 29.6102 99.6501 35.6702 101.15 41.9202C101.89 45.0502 102.43 48.2402 102.58 51.4902C102.75 54.7302 102.53 58.0202 101.76 61.2202C100.27 67.6502 95.9901 73.4002 90.2501 76.5802L90.2001 76.6102H90.1801C86.3601 78.3302 82.0801 78.9602 77.9901 78.6502C75.9301 78.5402 73.8901 78.2102 71.9001 77.6902C69.9101 77.1902 67.9701 76.5302 66.0901 75.7102C62.3501 74.0502 58.8501 71.9102 55.5701 69.4802C52.2901 67.0602 49.1901 64.3502 46.4201 61.3202C45.0301 59.8102 43.6901 58.2502 42.4901 56.5802C41.8701 55.7602 41.3001 54.9002 40.7201 54.0502C40.1801 53.1702 39.6201 52.3102 39.1301 51.4002C37.0801 47.8402 35.4901 43.9802 34.2201 40.1102C32.9301 36.2302 31.9301 32.2202 31.4601 28.1402C31.2201 26.1002 31.1401 24.0402 31.2801 21.9902C31.3601 20.9602 31.4201 19.9602 31.6101 18.9202C31.7901 17.8702 32.4101 16.9302 33.1401 16.2302L33.2901 16.3702L33.2701 16.3502Z" fill="url(#paint15_linear_287_11668)"></path><path d="M38.1999 14.5103C37.4599 15.0203 36.6199 15.4603 36.2499 16.2003L36.2699 16.1503C35.8399 18.3703 35.2999 20.5503 35.1799 22.7903C34.9499 25.0503 34.7599 27.2703 34.6899 29.5203C34.5399 34.0103 34.7099 38.5103 35.0899 42.9803C35.2799 45.2203 35.5699 47.4403 35.8099 49.7003C36.0499 51.9103 36.4399 54.1103 36.9299 56.2803C37.4399 58.4603 38.0199 60.5803 38.8199 62.6803C39.5999 64.8003 40.3699 66.9203 41.1199 69.0503L41.0699 68.9503L44.6499 75.7003L44.5999 75.6203L49.1699 81.7203L49.1199 81.6703L54.2399 86.3803L54.1899 86.3403L59.4999 89.6003L59.4399 89.5703L64.8599 91.4103H64.8199C66.3899 91.7303 67.9999 91.8903 69.5999 91.8503C71.1999 91.8003 72.7899 91.5503 74.3299 91.1203H74.3699L74.4199 91.1103C76.8999 90.9203 79.3199 90.1803 81.4599 88.9403L81.5099 88.9103L81.5899 88.8903C83.9899 88.1403 86.2099 86.9103 88.1199 85.3003L88.1699 85.2603L88.2499 85.2203C90.3299 84.1003 92.1499 82.5603 93.5899 80.7003L93.6299 80.6503L93.6999 80.5903C95.4499 79.0403 96.9299 77.2003 98.0599 75.1503L98.0799 75.1203L98.1099 75.0803C100.83 71.0103 103.11 66.6203 104.12 61.9203C104.6 59.5803 104.92 57.1203 105.06 54.7003C105.19 52.2703 105.14 49.8403 104.88 47.4403L104.9 47.5303L103.38 40.1103L103.43 40.2703L100.82 33.2903L100.85 33.3603C99.5999 30.7503 98.0399 28.2803 96.2499 25.9803C94.4299 23.6903 92.5199 21.4803 90.1999 19.7303C87.8999 17.9503 85.3199 16.5303 82.6099 15.4003C79.8999 14.2703 77.0099 13.6203 74.0699 13.2703L74.0899 13.0703C77.0599 13.1703 80.0499 13.6703 82.8999 14.6503C85.7399 15.6203 88.4499 17.0003 90.9399 18.7403C93.4399 20.4803 95.5899 22.6703 97.4999 24.9903C99.4199 27.3203 101.12 29.8403 102.51 32.5503V32.5703L102.54 32.6203L105.34 39.5303L105.37 39.6003L105.39 39.6903L107 47.0903V47.1303L107.02 47.1803C107.35 49.7203 107.39 52.2803 107.25 54.8203C107.09 57.3703 106.79 59.8603 106.22 62.3803C105.05 67.4303 102.57 72.0003 99.6999 76.1303L99.7399 76.0603C98.4899 78.2803 96.8199 80.2703 94.8699 81.9003L94.9799 81.7803C93.3499 83.7703 91.2899 85.4203 88.9999 86.5703L89.1299 86.4903C87.0199 88.1603 84.5599 89.3803 81.9799 90.0603L82.0999 90.0103C79.7599 91.2303 77.1499 91.9303 74.5399 92.0303H74.6299C71.3899 92.7903 67.9799 92.7903 64.7399 92.0703H64.7199L64.6999 92.0603L59.2999 90.1503H59.2699L59.2399 90.1203L53.9099 86.8903H53.8899L53.8699 86.8503L48.6199 82.2903L48.5999 82.2703L48.5699 82.2303L43.7399 76.3403L43.7199 76.3103L43.6899 76.2603L39.8199 69.6703L39.7999 69.6403L39.7699 69.5703C38.9099 67.4703 38.0799 65.3603 37.2599 63.2503C36.3899 61.1503 35.7799 58.8803 35.2499 56.6603C34.7299 54.4203 34.3799 52.1403 34.1499 49.8603C33.9399 47.6203 33.6599 45.3603 33.5399 43.0803C33.2399 38.5303 33.2499 33.9703 33.5999 29.4203C33.7799 27.1503 34.0199 24.8803 34.4099 22.6503C34.6799 20.3703 35.3799 18.1803 35.9499 15.9903V15.9603L35.9699 15.9403C36.5199 15.0803 37.4399 14.7403 38.1899 14.2903L38.2999 14.4603L38.1999 14.5103Z" fill="url(#paint16_linear_287_11668)"></path><path d="M20.57 23.4801C19.25 24.3601 17.93 25.2501 17.03 26.5001C16.11 27.7501 15.39 29.1501 14.81 30.6001C13.68 33.5001 13.03 36.6001 12.56 39.6901C11.69 45.9001 11.85 52.2201 12.91 58.3901C13.96 64.5601 15.81 70.6101 18.65 76.1401C20.07 78.8901 21.86 81.4801 23.81 83.9301C25.77 86.3701 27.96 88.6301 30.44 90.5201L30.4 90.5001L34.46 93.0201L36.5 94.2601C37.18 94.6301 37.89 94.9801 38.61 95.2901C40.06 95.9201 41.55 96.4201 43.08 96.8101C44.6 97.2001 46.19 97.3901 47.75 97.6701C50.88 98.1501 54.05 98.3601 57.21 98.2201C60.38 98.0901 63.48 97.5401 66.56 96.7801C69.64 96.0401 72.65 95.0701 75.56 93.8901C78.48 92.7101 81.28 91.2801 83.88 89.5501C86.49 87.8301 88.85 85.7801 90.89 83.4701C92.94 81.1501 94.6 78.5001 95.94 75.7101C98.55 70.0901 99.79 63.8301 99.83 57.6301C99.83 54.5501 99.39 51.4401 98.72 48.3801C98.04 45.3201 97.17 42.2801 96.13 39.3101C94.03 33.4001 91.06 27.7501 86.84 23.0801C84.76 20.7301 82.39 18.6201 79.72 16.9901C77.02 15.4001 73.95 14.4601 70.89 13.5901L70.94 13.3901C74.06 14.0301 77.2 14.8101 80.1 16.2901C82.98 17.8101 85.48 19.9301 87.74 22.2401C92.32 26.8401 95.54 32.6601 97.85 38.6701C100.11 44.6901 101.87 51.0001 102 57.6001C101.98 64.1301 100.66 70.6701 97.79 76.5801C96.33 79.5101 94.53 82.2901 92.32 84.7201C90.12 87.1501 87.59 89.2801 84.82 90.9901C79.3 94.4801 73.08 96.5601 66.81 97.8501C60.53 99.2601 53.97 99.3601 47.66 98.3101C46.09 98.0101 44.52 97.7801 42.94 97.4001C41.37 97.0201 39.84 96.5201 38.36 95.8901C37.62 95.5701 36.89 95.2501 36.16 94.8701L34.09 93.6701L29.93 91.2901H29.92L29.9 91.2701C27.26 89.4201 24.91 87.1901 22.8 84.7701C20.71 82.3401 18.75 79.7701 17.17 76.9301C14.03 71.2601 12.21 64.9901 11.2 58.6601C10.19 52.3201 10.17 45.7901 11.34 39.4801C11.63 37.9001 11.99 36.3401 12.42 34.8001C12.84 33.2501 13.37 31.7201 14.06 30.2601C14.74 28.8001 15.57 27.4001 16.61 26.1601C17.65 24.8701 19.1 24.0701 20.47 23.3001L20.58 23.4701L20.57 23.4801Z" fill="url(#paint17_linear_287_11668)"></path><path d="M6.94998 35.7899C5.78998 37.6299 4.94998 39.6599 4.46998 41.7699V41.7899C3.87998 43.3199 3.55998 44.9499 3.47998 46.5799V46.5999C2.99998 50.4099 2.96998 54.2799 3.48998 58.0699C4.01998 61.8499 5.08998 65.5799 6.55998 69.1099C8.04998 72.6399 9.93998 75.9899 12.21 79.0699C14.51 82.1299 17.11 84.9799 19.95 87.5799C25.62 92.7799 32.19 96.9999 39.19 100.23C46.19 103.46 53.74 105.54 61.42 106C69.08 106.49 76.89 105.55 83.97 102.65C91.05 99.7599 97.17 94.7599 101.73 88.6399C104.04 85.5799 105.85 82.2099 107.41 78.6899C108.99 75.1699 110.48 71.6299 111.29 67.8699C111.74 66.0099 112.13 64.1199 112.02 62.2299C112.02 60.3399 110.98 58.5999 110.84 56.5899C110.46 52.6799 111.56 48.8099 110.49 45.0399L110.59 45.0099C111.79 48.7699 110.87 52.7699 111.33 56.5299C111.42 57.4799 111.69 58.3699 112 59.2899C112.32 60.1999 112.56 61.1999 112.61 62.1799C112.76 64.1699 112.39 66.1199 111.97 68.0099C111.22 71.8299 109.76 75.4899 108.25 79.0399C107.49 80.8199 106.68 82.5999 105.73 84.3099C104.78 86.0199 103.7 87.6599 102.55 89.2299C100.23 92.3699 97.51 95.2299 94.45 97.6699C91.38 100.1 87.97 102.1 84.33 103.54C77.06 106.48 69.09 107.27 61.36 106.63C53.6 106.03 46.06 103.74 39.04 100.49C32.03 97.2199 25.37 93.1299 19.5 88.0299C16.58 85.4699 13.85 82.6699 11.51 79.5499C9.15998 76.4399 7.19998 73.0199 5.73998 69.3999C4.26998 65.7799 3.22998 62.0099 2.71998 58.1299C2.25998 54.2499 2.38998 50.3299 2.94998 46.4899V46.5099C3.04998 44.8199 3.46998 43.1599 4.12998 41.6199V41.6399C4.68998 39.5099 5.62998 37.4899 6.85998 35.6899L6.93998 35.7499L6.94998 35.7899Z" fill="url(#paint18_linear_287_11668)"></path><path d="M18.7 29.6101C18.16 30.1901 17.57 30.7301 16.95 31.2301C16.33 31.7301 15.74 32.2401 15.24 32.8401C14.22 34.0301 13.46 35.4201 12.8 36.8501C11.46 39.7001 10.5 42.7101 9.84003 45.7901C8.58003 51.9501 8.30003 58.3201 8.81003 64.5801C9.38003 70.8401 10.78 77.0401 13.16 82.8601C15.5 88.6901 18.83 94.1501 23.16 98.7401C27.5 103.28 32.76 107.14 38.85 108.91C41.86 109.83 45.02 110.3 48.16 110.08C51.31 109.94 54.43 109.38 57.44 108.49C63.47 106.7 69.06 103.55 73.92 99.5901C76.34 97.5901 78.66 95.4401 80.67 93.0601C82.67 90.6501 84.38 88.0101 85.77 85.2101V85.1901L85.79 85.1701C88.98 80.0301 90.63 74.0901 91.62 68.1201C92.09 65.1301 92.29 62.1001 92.19 59.0801C92.08 56.0601 91.77 53.0201 91.3 50.0201C90.83 47.0201 90.19 44.0401 89.38 41.1001C88.57 38.1701 87.61 35.2701 86.31 32.5301C85.01 29.7901 83.42 27.1601 81.31 24.9801C79.24 22.8101 76.47 21.1301 73.4 20.9701V20.8701C76.51 20.9301 79.41 22.5601 81.59 24.7101C83.83 26.8601 85.46 29.5401 86.83 32.2801C88.19 35.0401 89.22 37.9601 90.08 40.9001C90.94 43.8501 91.64 46.8501 92.16 49.8701C92.68 52.9001 93.05 55.9501 93.2 59.0401C93.32 62.1301 93.11 65.2301 92.64 68.2801C92.17 71.3301 91.45 74.3301 90.54 77.2801C89.62 80.2401 88.3 83.0801 86.66 85.7101L86.68 85.6701C85.23 88.5301 83.46 91.2301 81.39 93.6801C79.3 96.1201 76.95 98.3001 74.45 100.28C69.44 104.23 63.72 107.33 57.58 109.05C54.51 109.91 51.34 110.41 48.16 110.51C44.98 110.66 41.77 110.2 38.73 109.24C35.7 108.28 32.79 106.92 30.13 105.16C27.49 103.39 25.05 101.33 22.82 99.0601C18.35 94.5201 14.86 89.0501 12.37 83.1901C9.92003 77.3001 8.42003 71.0201 7.94003 64.6601C7.48003 58.3101 7.78003 51.8801 9.21003 45.6601C9.95003 42.5601 10.95 39.5101 12.41 36.6701C13.13 35.2501 13.95 33.8601 15.03 32.6801C15.56 32.0801 16.19 31.5701 16.82 31.1001C17.45 30.6201 18.05 30.1101 18.61 29.5501L18.68 29.6201L18.7 29.6101Z" fill="url(#paint19_linear_287_11668)"></path><path d="M37.5801 17.6002C36.2201 18.4602 34.8701 19.3502 33.7701 20.4902C32.6501 21.6102 31.8401 22.9902 31.1001 24.4002C29.6601 27.2402 28.8001 30.3402 28.2201 33.4702C27.6701 36.6102 27.3801 39.8102 27.4101 42.9802C27.4501 46.1602 27.8801 49.3102 28.7001 52.3502C30.3801 58.4102 33.8001 64.0302 38.4701 68.2002C40.8201 70.2602 43.4801 71.9702 46.3801 73.0902C49.2901 74.2002 52.4001 74.7402 55.5301 74.7602C61.8201 74.8802 68.0701 72.8302 73.5401 69.6402C76.2901 68.0402 78.8101 66.0402 81.0801 63.8102C83.3301 61.5502 85.2801 58.9902 86.9001 56.2302C90.1801 50.7502 92.1301 44.4102 92.1301 38.0102C92.1801 31.6002 89.77 25.4102 86.32 20.0902C82.91 14.7302 77.93 10.3902 72.07 8.14024C66.25 5.87024 59.55 5.40024 53.92 7.99024C48.26 10.5102 43.9 15.6002 41.85 21.4102C40.83 24.3202 40.3901 27.4302 40.4301 30.5502C40.4901 33.6802 40.8701 36.8602 41.4701 39.9602C42.0601 43.0702 42.9301 46.1202 44.0701 49.0702C44.6401 50.5502 45.29 51.9602 46.01 53.3902C46.73 54.8202 47.46 56.2302 48.26 57.6002C49.85 60.3402 51.6601 62.9602 53.7701 65.2902C55.8901 67.6002 58.3401 69.6502 60.9901 71.3702C63.6301 73.0902 66.5 74.4802 69.52 75.3602C72.55 76.2102 75.7201 76.5202 78.8701 76.1302C85.1901 75.4002 91.1401 72.5302 96.5501 69.0802L96.6601 69.2502C94.0101 71.1002 91.25 72.8102 88.32 74.2102C85.39 75.6102 82.2601 76.6802 79.0101 77.1502C75.7601 77.6602 72.38 77.4502 69.18 76.6502C65.98 75.8202 62.92 74.4802 60.14 72.7202C57.34 70.9802 54.7701 68.9102 52.4801 66.5102C50.2101 64.1102 48.2801 61.4202 46.5801 58.6102C44.9001 55.8002 43.3601 52.9202 42.1301 49.8502C40.9101 46.7902 39.9801 43.6202 39.3401 40.4002C38.7001 37.1702 38.3301 33.9102 38.2701 30.6002C38.2301 27.2802 38.7001 23.8902 39.8601 20.7302C41.0101 17.5602 42.7901 14.6502 45.0301 12.1602C47.2801 9.67024 50.0601 7.63024 53.1401 6.28024C56.2301 4.91024 59.65 4.33024 62.98 4.49024C66.32 4.64024 69.5901 5.43024 72.6501 6.68024C78.8401 9.16024 83.89 13.9402 87.25 19.5302C90.68 25.0602 92.9 31.4902 92.84 38.0502C92.77 44.5902 90.72 50.9802 87.5 56.6102C85.9 59.4402 83.92 62.0602 81.67 64.4202C79.42 66.7802 76.91 68.9002 74.13 70.6302C71.36 72.3702 68.3901 73.7902 65.2601 74.8202C62.1401 75.8602 58.8501 76.4502 55.5301 76.4702C52.2101 76.4802 48.8801 75.9302 45.7501 74.7702C42.6201 73.5902 39.7401 71.7902 37.2901 69.5502C32.3901 65.0602 28.9001 59.1602 27.2101 52.7802C25.5101 46.3602 25.9201 39.6502 27.1901 33.2902C27.8501 30.1002 28.9001 26.9602 30.5101 24.1002C31.3201 22.6902 32.2301 21.3002 33.4501 20.1702C34.6501 19.0402 36.0801 18.2302 37.4901 17.4502L37.5901 17.6202L37.5801 17.6002Z" fill="url(#paint20_linear_287_11668)"></path><path d="M57.0399 9.88018C55.7799 10.2802 54.4599 10.5402 53.3699 11.2502C52.3099 11.9902 51.3599 12.9302 50.4699 13.8902C48.7099 15.8402 47.1999 18.0202 45.7199 20.2002C42.7699 24.5802 40.1999 29.2002 38.0699 34.0102C36.9999 36.4102 36.0599 38.8702 35.2399 41.3702C34.4499 43.8802 33.6399 46.4002 33.0999 48.9502C32.5699 51.5002 32.1899 54.1202 32.0199 56.7102C31.8699 59.3102 31.9899 61.9102 32.3699 64.4802V64.4202C32.9199 66.8502 33.6799 69.2502 34.7699 71.4702C35.8499 73.6902 37.2599 75.7502 39.0799 77.3502C42.7799 80.6502 47.3799 82.8602 52.2199 83.9702C57.0699 85.0302 62.1599 84.9902 66.9999 83.8902C69.4199 83.3302 71.7399 82.4502 74.0499 81.4402C76.3499 80.4402 78.5699 79.2702 80.6799 77.9302C82.7999 76.5902 84.8099 75.1002 86.6999 73.4602C88.5699 71.8002 90.2999 69.9902 91.8599 68.0402C94.9999 64.1502 97.3599 59.6702 98.9099 54.9102C100.46 50.1502 101.16 45.0902 100.7 40.1102C100.26 35.1402 98.5599 30.2702 95.6099 26.2202C92.6799 22.1802 88.5999 18.9202 83.9699 17.0002C79.2899 15.1502 74.0999 14.9902 69.0599 15.2302C63.9999 15.4402 59.0199 16.6102 54.2399 18.3002C49.4799 20.0502 44.7999 22.1202 40.5799 24.9002C36.3399 27.6702 32.4599 31.0002 29.0799 34.7602C25.6899 38.5102 22.8999 42.8002 21.0699 47.5002C20.1599 49.8502 19.4499 52.2702 19.0899 54.7402C18.7299 57.2102 18.7199 59.7302 19.0299 62.2102C19.6699 67.1702 21.2199 72.0702 23.8299 76.3202C26.4499 80.5602 30.0299 84.2402 34.2399 86.8702C36.3499 88.1802 38.6199 89.2202 40.9899 89.9602C43.3499 90.6902 45.8499 91.1902 48.3099 91.5302C50.7899 91.8502 53.2799 91.9702 55.7499 91.7802C58.2299 91.6202 60.6299 91.0802 63.0699 90.4102C67.9099 89.0702 72.5999 87.1902 76.8399 84.5602C77.9099 83.9102 78.9199 83.1902 79.9199 82.4602C80.8999 81.7102 81.8699 80.8902 82.8299 80.0802C84.7299 78.4302 86.5499 76.6902 88.2599 74.8602C89.9799 73.0402 91.5599 71.0902 93.0099 69.0602C94.4499 67.0202 95.7599 64.8902 96.8099 62.6502C97.8699 60.4102 98.7399 58.0802 99.3499 55.6902C99.6099 54.4802 99.8799 53.2802 100.01 52.0502C100.21 50.8302 100.26 49.6002 100.28 48.3702C100.33 43.4502 99.0899 38.5302 96.4699 34.3902C93.8599 30.2502 90.0699 26.8302 85.6899 24.6202C83.4699 23.5602 81.1599 22.6402 78.7399 22.0902C76.3299 21.5302 73.8699 21.1602 71.3799 21.0602C68.8899 20.9602 66.3899 21.0302 63.9099 21.3202C61.4299 21.6202 58.9499 22.0502 56.5199 22.6602C51.6699 23.9202 46.8499 25.5602 42.4499 27.9402C38.0499 30.3302 33.9799 33.3702 30.3899 36.8802C26.7699 40.3002 24.4299 44.8302 22.8499 49.6002C21.1899 54.3502 20.4199 59.3902 20.5399 64.4202C20.5799 69.4802 21.4099 74.5002 23.1899 79.2402V79.2702L23.2099 79.2902C24.0299 83.0302 25.5799 86.6202 27.7799 89.7802C28.8799 91.3602 30.0999 92.8702 31.3699 94.3202C32.6499 95.7702 33.9999 97.1502 35.4299 98.4702L35.2899 98.6202C33.8299 97.3402 32.4299 95.9802 31.1099 94.5502C29.7899 93.1102 28.5399 91.6402 27.3699 90.0602C25.0599 86.9002 23.3899 83.2802 22.4499 79.4602L22.4699 79.5102C21.5199 77.1202 20.7699 74.6502 20.2799 72.1102C19.7699 69.5802 19.5799 66.9902 19.4699 64.4402C19.2599 59.2902 19.9699 54.0802 21.5899 49.1702C22.3799 46.7202 23.3199 44.2902 24.5799 42.0002C25.8299 39.7202 27.4099 37.5602 29.2899 35.7502C32.9499 32.1002 37.0899 28.9302 41.6199 26.4102C46.1699 23.8902 51.0599 22.1702 56.0499 20.8202C61.0499 19.5402 66.2399 18.8302 71.4599 19.0102C74.0699 19.1102 76.6699 19.4902 79.2199 20.0802C81.7799 20.6602 84.2399 21.6302 86.6099 22.7602C91.3299 25.1402 95.3899 28.7802 98.2299 33.2602C101.1 37.7502 102.44 43.1002 102.4 48.3702C102.38 49.6902 102.33 51.0102 102.12 52.3102C101.98 53.6202 101.69 54.9002 101.42 56.1902C100.78 58.7402 99.8599 61.2102 98.7199 63.5602C97.5999 65.9202 96.2099 68.1502 94.6999 70.2602C93.1799 72.3702 91.5299 74.3802 89.7399 76.2502C87.9599 78.1302 86.0799 79.9102 84.1199 81.5902C83.1299 82.4102 82.1399 83.2402 81.0999 84.0302C80.0399 84.8002 78.9699 85.5502 77.8599 86.2102C73.4099 88.9402 68.5399 90.8502 63.5599 92.2002C62.2999 92.5302 61.0699 92.8402 59.7699 93.0902C58.4799 93.3302 57.1799 93.5002 55.8699 93.5902C53.2499 93.7702 50.6299 93.6002 48.0599 93.2402C45.4799 92.8502 42.9799 92.3102 40.4699 91.5102C37.9899 90.7002 35.5999 89.5802 33.3999 88.1702C28.9999 85.3402 25.3299 81.4802 22.6499 77.0202C19.9799 72.5302 18.4499 67.4802 17.8499 62.3402C17.5699 59.7602 17.6099 57.1402 18.0199 54.5702C18.4199 52.0002 19.1899 49.5102 20.1499 47.1302C22.0799 42.3402 24.9999 37.9902 28.4899 34.2302C31.9499 30.4402 35.8799 27.0902 40.1899 24.3102C44.4899 21.5002 49.2199 19.4402 54.0199 17.7002C58.8399 15.9902 63.8699 14.7602 69.0099 14.5102C74.0899 14.2402 79.3699 14.3502 84.2399 16.2402C89.0499 18.1702 93.2999 21.4302 96.4199 25.5902C99.5499 29.7402 101.42 34.8002 101.96 39.9702C102.52 45.1402 101.87 50.4002 100.35 55.3502C98.8299 60.3002 96.4399 65.0302 93.1799 69.0802C91.5699 71.1202 89.7699 73.0102 87.8399 74.7402C85.8899 76.4602 83.8099 78.0102 81.6199 79.4102C79.4399 80.8102 77.1399 82.0302 74.7699 83.0802C72.4199 84.1302 69.9399 85.0302 67.3899 85.6102C62.2799 86.7402 56.9399 86.7402 51.8399 85.6002C46.7599 84.4102 41.9099 82.0502 38.0099 78.5202C36.0099 76.7402 34.4999 74.4902 33.3699 72.1302C32.2399 69.7602 31.4399 67.2602 30.9099 64.7202V64.6902L30.8999 64.6702C30.5499 62.0002 30.4699 59.2902 30.6599 56.6002C30.8799 53.9102 31.2999 51.2802 31.8899 48.6602C32.4899 46.0302 33.3399 43.5202 34.1799 40.9902C35.0499 38.4702 36.0499 36.0002 37.1599 33.5802C39.3999 28.7502 42.1499 24.1702 45.2199 19.8402C46.7699 17.6902 48.3399 15.5402 50.1799 13.6002C51.1099 12.6402 52.0799 11.7302 53.2099 10.9802C54.3799 10.2602 55.7299 10.0502 56.9799 9.68018L57.0399 9.87018V9.88018Z" fill="url(#paint21_linear_287_11668)"></path><path d="M99.62 25.0002C97.69 22.5502 95.26 20.5502 92.64 18.9102C90.01 17.2602 87.22 15.9302 84.28 14.9402C78.39 12.9702 72.34 11.3102 66.19 11.5702C63.11 11.6202 60.03 11.9302 57.01 12.5202C53.98 13.0702 50.99 13.8702 48.1 14.9302C46.64 15.4202 45.22 16.0402 43.8 16.6402C43.09 16.9502 42.41 17.3202 41.72 17.6502L40.68 18.1702L39.68 18.7502C36.97 20.2402 34.45 22.0602 32.09 24.0702C27.41 28.1102 23.57 33.2502 21.37 39.0702C20.28 41.9802 19.48 45.0002 19.03 48.0702C18.58 51.1502 18.46 54.2602 18.55 57.3602C18.71 63.5602 20.46 69.5802 22.71 75.3402C24.98 81.0802 27.97 86.5802 32.23 90.9602L32.16 90.9002L36.59 94.7202C36.96 95.0302 37.33 95.3702 37.69 95.6602L38.82 96.4802C39.59 97.0202 40.39 97.5302 41.21 98.0002C42.85 98.9402 44.57 99.7302 46.36 100.35C48.23 101 50.01 101.72 51.85 102.24C55.53 103.33 59.32 104.06 63.14 104.34C64.1 104.41 65.05 104.44 65.99 104.45L68.91 104.32L74.76 104.07L74.63 104.09L81.68 102.65C84.06 102.24 86.28 101.57 88.54 100.75C93 99.1002 97.33 96.9902 101.19 94.1302L101.32 94.2902C99.5 95.8702 97.5 97.2402 95.42 98.4702C93.34 99.6902 91.17 100.79 88.93 101.71C87.81 102.17 86.68 102.61 85.52 102.99C84.35 103.4 83.18 103.67 82.01 103.95L74.99 105.65H74.94L74.86 105.67L68.99 106.08L66.05 106.28C65.03 106.29 64.03 106.29 63.03 106.24C59.04 106.08 55.08 105.36 51.26 104.26C49.34 103.73 47.46 103.02 45.64 102.39C43.73 101.72 41.89 100.87 40.13 99.8602C39.25 99.3602 38.4 98.8102 37.57 98.2302C37.16 97.9402 36.75 97.6402 36.33 97.3102C35.94 96.9902 35.59 96.6602 35.21 96.3302L30.8 92.4202L30.76 92.3802L30.73 92.3502C26.31 87.6402 23.23 81.8802 21.08 75.9402C18.9 70.0202 17.34 63.7302 17.43 57.3602C17.44 54.2002 17.67 51.0402 18.23 47.9302C18.75 44.8202 19.58 41.7502 20.73 38.8102C23.06 32.9302 26.83 27.6802 31.43 23.3502C33.75 21.2002 36.25 19.2202 38.97 17.5802C41.67 15.9102 44.51 14.4502 47.48 13.3202C48.95 12.7102 50.48 12.2802 52 11.7802C53.55 11.4102 55.08 10.9602 56.65 10.7102C59.77 10.0802 62.96 9.83018 66.14 9.80018C69.32 9.69018 72.56 10.1402 75.64 10.8602C78.75 11.5802 81.73 12.6202 84.68 13.7402C87.63 14.8802 90.51 16.3202 93.07 18.1802C95.64 20.0202 98.03 22.1902 99.76 24.8402L99.6 24.9602L99.62 25.0002Z" fill="url(#paint22_linear_287_11668)"></path><path d="M61.9599 16.0202C60.0499 15.8402 58.1599 15.5802 56.2499 15.4302C54.3499 15.2702 52.4499 15.3002 50.5499 15.4402C46.7599 15.7202 43.0099 16.5602 39.4799 17.9102C35.9299 19.2402 32.6099 21.1302 29.5399 23.3602C26.4699 25.6002 23.5899 28.1002 20.9699 30.8402C18.3599 33.5902 16.1299 36.6802 14.3399 40.0302C12.5499 43.3802 11.1999 46.9602 10.1999 50.6402C9.21995 54.3202 8.64995 58.1202 8.43995 61.9202C8.26995 65.7302 8.58995 69.5502 9.21995 73.3202V73.3302C9.43995 75.7802 10.0599 78.1902 11.0299 80.4402V80.4602L11.0399 80.4802C11.5799 82.7902 12.5699 84.9902 13.9599 86.9102L13.9799 86.9302V86.9602C14.9099 88.9902 16.2299 90.8202 17.8699 92.3102L17.8999 92.3302L17.9199 92.3602C19.2199 94.1302 20.8799 95.6102 22.7699 96.7102H22.7899L22.8099 96.7402C26.5399 99.4702 30.6099 101.73 34.9099 103.4H34.9299L34.9499 103.42C36.8499 104.38 38.9199 104.97 41.0299 105.18H41.0699L41.1099 105.2C43.3399 105.79 45.6499 106.05 47.9499 105.92H47.9899H48.0299C50.7599 106.18 53.5199 106.07 56.2199 105.6H56.2599H56.2899C59.3199 105.5 62.3199 104.98 65.2299 104.11H65.2699L65.2999 104.09C68.3199 103.63 71.2699 102.73 74.0399 101.42H74.0699L74.0899 101.4C76.9799 100.5 79.7499 99.2102 82.3099 97.5802H82.3299L82.3499 97.5602C84.9599 96.3402 87.4299 94.8002 89.6699 92.9802H89.6799V92.9702C92.7199 91.0002 95.5599 88.7002 98.1099 86.1102L98.1799 86.1802C95.7099 88.8602 92.9499 91.2802 89.9399 93.3602H89.9599C87.7199 95.2302 85.2399 96.8402 82.6099 98.1302L82.6399 98.1102C80.0699 99.8202 77.2599 101.18 74.3199 102.16L74.3699 102.14C71.5599 103.53 68.5399 104.51 65.4399 105.04L65.5099 105.02C62.5499 105.98 59.4399 106.5 56.3199 106.62H56.3899C53.5999 107.1 50.7499 107.22 47.9299 106.97H48.0099C45.5999 107.11 43.1599 106.87 40.8299 106.22L40.9099 106.24C38.6699 106 36.4799 105.35 34.4799 104.32L34.5199 104.34C30.1599 102.59 26.0099 100.28 22.2599 97.4402L22.2999 97.4602C20.3299 96.2702 18.6099 94.6702 17.2899 92.8002L17.3399 92.8602C15.6499 91.2702 14.2999 89.3402 13.3899 87.2102L13.4199 87.2702C12.0199 85.2602 11.0299 82.9702 10.5299 80.5902V80.6302C9.58995 78.3102 9.00995 75.8402 8.82995 73.3502C8.21995 69.5802 7.94995 65.7302 8.10995 61.8902C8.26995 58.0502 8.83995 54.2402 9.75995 50.5102C11.5899 43.0902 14.9299 35.8202 20.3199 30.2202C22.9499 27.3902 25.8799 24.8702 29.0299 22.6402C32.1699 20.4102 35.5699 18.4902 39.2099 17.1802C42.8499 15.8702 46.6699 15.1102 50.5099 14.9102C52.4299 14.8002 54.3699 14.8702 56.2699 15.0902C58.1799 15.3102 60.0599 15.6302 61.9599 15.8902V15.9902V16.0202Z" fill="url(#paint23_linear_287_11668)"></path><path d="M43.42 20.0901C41.52 20.5201 39.61 20.9601 37.92 21.8601C36.2 22.7501 34.58 23.7901 33.05 24.9501C29.98 27.2701 27.59 30.3101 25.69 33.6201C23.79 36.9401 22.38 40.5401 21.13 44.2101C19.91 47.8901 18.7 51.6101 17.64 55.3201C16.57 59.0401 15.71 62.8201 15.38 66.6601C15.03 70.4901 15.24 74.4101 16.36 78.1101C17.46 81.8101 19.44 85.2301 21.99 88.1301C23.25 89.5901 24.66 90.9301 26.18 92.1201C27.69 93.3101 29.28 94.4301 30.99 95.3201C32.63 96.3401 34.44 97.0101 36.19 97.7701C38.03 98.3201 39.83 98.9601 41.73 99.2701C45.48 100 49.33 100.26 53.15 99.9501C60.81 99.4301 68.27 97.1401 75.31 94.0501C82.33 90.8901 89.08 86.9801 95.04 82.0501C98.02 79.5901 100.85 76.9401 103.4 74.0201C104.65 72.5501 105.93 71.0601 107.1 69.5201C107.69 68.7501 108.24 67.9601 108.77 67.1401C109.26 66.3301 109.83 65.4701 109.82 64.5501L110.02 64.5201C110.1 65.0501 109.95 65.5501 109.78 66.0201C109.61 66.4901 109.39 66.9401 109.15 67.3701C108.68 68.2301 108.17 69.0801 107.63 69.9001C106.54 71.5501 105.4 73.1201 104.18 74.6801C101.74 77.7701 99.03 80.6601 96.06 83.2601C93.09 85.8601 89.92 88.2401 86.6 90.3701C83.27 92.4901 79.78 94.3501 76.19 96.0201C72.58 97.6401 68.84 98.9801 65.01 100C61.18 101.03 57.23 101.62 53.26 101.85C49.29 102.12 45.27 101.72 41.39 100.84C40.43 100.58 39.44 100.44 38.51 100.06L35.7 99.0501C33.91 98.1801 32.08 97.4001 30.43 96.2701C27.01 94.2501 24.04 91.5701 21.46 88.5901C18.9 85.5801 16.96 82.0601 15.75 78.3001C14.53 74.5401 14.12 70.5401 14.27 66.5901C14.42 62.6301 15.1 58.7101 16.03 54.8901C16.99 51.0601 18.16 47.3401 19.45 43.6201C20.75 39.9101 22.27 36.2201 24.36 32.8201C26.43 29.4201 29.16 26.3601 32.44 24.0901C34.07 22.9401 35.83 22.0101 37.64 21.2301C39.48 20.4201 41.46 20.1201 43.39 19.8901L43.43 20.0901H43.42Z" fill="url(#paint24_linear_287_11668)"></path><path fill-rule="evenodd" clip-rule="evenodd" d="M19.0599 64.9199C19.0599 64.9199 27.6399 91.0199 39.0799 97.6499C39.0799 97.6499 20.2199 91.4299 9.66991 68.4499C9.66991 68.4499 18.6699 92.8899 40.5099 101.01C40.5099 101.01 20.8199 102.97 8.15991 85.0099C8.15991 85.0099 15.3599 103.72 49.9899 102.43C84.6199 101.15 94.6599 90.1299 94.6599 90.1299C94.6599 90.1299 73.4599 100.11 56.9799 100.56C56.9799 100.56 73.9699 99.2999 91.6299 86.2499C91.6299 86.2499 69.0999 99.8299 51.4099 94.0699C33.7099 88.3099 19.0699 64.9299 19.0699 64.9299L19.0599 64.9199Z" fill="#6F3647"></path><path fill-rule="evenodd" clip-rule="evenodd" d="M41.8101 88.0999C41.8101 88.0999 56.0901 102.49 76.8701 86.3799C76.8701 86.3799 65.4901 87.0899 41.8101 88.0999Z" fill="#6F3647"></path><path fill-rule="evenodd" clip-rule="evenodd" d="M26.23 61.5801C26.23 61.5801 32.99 79.4701 52.24 84.0501C52.24 84.0501 30.4 85.7201 26.23 61.5801Z" fill="#6F3647"></path><path fill-rule="evenodd" clip-rule="evenodd" d="M33.21 29.3801C33.21 29.3801 51.35 18.1401 71.99 19.5601C92.63 20.9801 99.16 37.7801 99.16 37.7801C99.16 37.7801 91.36 21.3001 70.94 20.9201C50.51 20.5401 33.22 29.3801 33.22 29.3801H33.21Z" fill="#D3A14F"></path><path fill-rule="evenodd" clip-rule="evenodd" d="M39.23 22.8099C39.23 22.8099 44.37 6.34993 58.53 4.54993C72.69 2.74993 82.9 13.1899 82.9 13.1899C82.9 13.1899 66.9 0.0699248 53.51 7.90992C40.12 15.7499 39.24 22.8099 39.24 22.8099H39.23Z" fill="#D3A14F"></path><path fill-rule="evenodd" clip-rule="evenodd" d="M14.73 26.1801C14.73 26.1801 37.6 8.1801 52.24 6.5101C52.24 6.5101 33.21 5.0301 14.73 26.1801Z" fill="#D3A14F"></path><path fill-rule="evenodd" clip-rule="evenodd" d="M45.3101 15.11C45.3101 15.11 68.6501 1.50999 91.3401 17.56C91.3401 17.56 72.3801 5.29999 45.3101 15.11Z" fill="#D3A14F"></path><path fill-rule="evenodd" clip-rule="evenodd" d="M44.3301 83.9202C44.3301 83.9202 79.9101 92.6102 98.1501 57.1802C98.1501 57.1802 88.8901 92.7202 44.3301 83.9202Z" fill="#D3A14F"></path><path fill-rule="evenodd" clip-rule="evenodd" d="M88.5701 85.9202C88.5701 85.9202 106.33 75.9002 101.86 45.9102C101.86 45.9102 112.46 68.8802 88.5701 85.9202Z" fill="#D3A14F"></path><path fill-rule="evenodd" clip-rule="evenodd" d="M23.3899 56.0601C23.3899 56.0601 27.1899 84.2601 53.5699 93.1001C53.5699 93.1001 25.6699 90.6201 23.3899 56.0601Z" fill="#D3A14F"></path><path fill-rule="evenodd" clip-rule="evenodd" d="M50.4399 60.4999L49.1899 53.3599L53.1899 65.6299L50.4399 60.4999Z" fill="#6F3647"></path><path fill-rule="evenodd" clip-rule="evenodd" d="M46.9001 66.7402H44.5801L51.4001 69.9802L46.9001 66.7402Z" fill="#6F3647"></path><path fill-rule="evenodd" clip-rule="evenodd" d="M0.969971 43.4998L2.57997 37.7798V44.7498L0.969971 43.4998Z" fill="#6F3647"></path><path fill-rule="evenodd" clip-rule="evenodd" d="M106.17 83.7001L112.33 78.3101L104.21 88.2201L106.17 83.7001Z" fill="#6F3647"></path><path fill-rule="evenodd" clip-rule="evenodd" d="M82.8999 105.38L94.6499 102.49L85.3199 106.21L82.8999 105.38Z" fill="#6F3647"></path><path fill-rule="evenodd" clip-rule="evenodd" d="M19.51 98.7798L26.74 106.61L21.48 102.92L19.51 98.7798Z" fill="#6F3647"></path><path fill-rule="evenodd" clip-rule="evenodd" d="M41.99 110.94L44.33 115.27L53.57 113.11L41.99 110.94Z" fill="#6F3647"></path><path fill-rule="evenodd" clip-rule="evenodd" d="M33.21 9.73L50.9 0L61.07 1.55L33.21 9.73Z" fill="#D3A14F"></path></g><defs><linearGradient id="paint0_linear_287_11668" x1="41.5401" y1="89.2299" x2="41.5401" y2="18.2399" gradientUnits="userSpaceOnUse"><stop stop-color="#8B4047"></stop><stop offset="0.97" stop-color="#B07C3B"></stop></linearGradient><linearGradient id="paint1_linear_287_11668" x1="48.19" y1="102.54" x2="48.19" y2="5.7603" gradientUnits="userSpaceOnUse"><stop stop-color="#8B4047"></stop><stop offset="0.97" stop-color="#B07C3B"></stop></linearGradient><linearGradient id="paint2_linear_287_11668" x1="66.8999" y1="88.1601" x2="66.8999" y2="15.1001" gradientUnits="userSpaceOnUse"><stop stop-color="#8B4047"></stop><stop offset="0.97" stop-color="#B07C3B"></stop></linearGradient><linearGradient id="paint3_linear_287_11668" x1="63.9499" y1="61.8302" x2="63.9499" y2="25.9202" gradientUnits="userSpaceOnUse"><stop stop-color="#8B4047"></stop><stop offset="0.97" stop-color="#B07C3B"></stop></linearGradient><linearGradient id="paint4_linear_287_11668" x1="61.9499" y1="85.9" x2="61.9499" y2="12.31" gradientUnits="userSpaceOnUse"><stop stop-color="#8B4047"></stop><stop offset="0.97" stop-color="#B07C3B"></stop></linearGradient><linearGradient id="paint5_linear_287_11668" x1="61.3699" y1="76.4999" x2="61.3699" y2="15.7898" gradientUnits="userSpaceOnUse"><stop stop-color="#8B4047"></stop><stop offset="0.97" stop-color="#B07C3B"></stop></linearGradient><linearGradient id="paint6_linear_287_11668" x1="72.1" y1="54.1001" x2="72.1" y2="4.04008" gradientUnits="userSpaceOnUse"><stop stop-color="#8B4047"></stop><stop offset="0.97" stop-color="#B07C3B"></stop></linearGradient><linearGradient id="paint7_linear_287_11668" x1="55.6" y1="96.9503" x2="55.6" y2="9.7703" gradientUnits="userSpaceOnUse"><stop stop-color="#8B4047"></stop><stop offset="0.97" stop-color="#B07C3B"></stop></linearGradient><linearGradient id="paint8_linear_287_11668" x1="59.12" y1="100.57" x2="59.12" y2="40.3199" gradientUnits="userSpaceOnUse"><stop stop-color="#8B4047"></stop><stop offset="0.97" stop-color="#B07C3B"></stop></linearGradient><linearGradient id="paint9_linear_287_11668" x1="69.7801" y1="92.8003" x2="69.7801" y2="28.8003" gradientUnits="userSpaceOnUse"><stop stop-color="#8B4047"></stop><stop offset="0.97" stop-color="#B07C3B"></stop></linearGradient><linearGradient id="paint10_linear_287_11668" x1="63.16" y1="94.8101" x2="63.16" y2="26.4701" gradientUnits="userSpaceOnUse"><stop stop-color="#8B4047"></stop><stop offset="0.97" stop-color="#B07C3B"></stop></linearGradient><linearGradient id="paint11_linear_287_11668" x1="65.1199" y1="97.0998" x2="65.1199" y2="22.8498" gradientUnits="userSpaceOnUse"><stop stop-color="#8B4047"></stop><stop offset="0.97" stop-color="#B07C3B"></stop></linearGradient><linearGradient id="paint12_linear_287_11668" x1="67.8099" y1="95.0503" x2="67.8099" y2="20.3003" gradientUnits="userSpaceOnUse"><stop stop-color="#8B4047"></stop><stop offset="0.97" stop-color="#B07C3B"></stop></linearGradient><linearGradient id="paint13_linear_287_11668" x1="62.06" y1="96.6499" x2="62.06" y2="31.2699" gradientUnits="userSpaceOnUse"><stop stop-color="#8B4047"></stop><stop offset="0.97" stop-color="#B07C3B"></stop></linearGradient><linearGradient id="paint14_linear_287_11668" x1="62.15" y1="86.0199" x2="62.15" y2="17.7499" gradientUnits="userSpaceOnUse"><stop stop-color="#8B4047"></stop><stop offset="0.97" stop-color="#B07C3B"></stop></linearGradient><linearGradient id="paint15_linear_287_11668" x1="66.9101" y1="79.1602" x2="66.9101" y2="11.6302" gradientUnits="userSpaceOnUse"><stop stop-color="#8B4047"></stop><stop offset="0.97" stop-color="#B07C3B"></stop></linearGradient><linearGradient id="paint16_linear_287_11668" x1="70.2399" y1="93.2703" x2="70.2399" y2="12.1803" gradientUnits="userSpaceOnUse"><stop stop-color="#8B4047"></stop><stop offset="0.97" stop-color="#B07C3B"></stop></linearGradient><linearGradient id="paint17_linear_287_11668" x1="56.23" y1="99.6501" x2="56.23" y2="12.5101" gradientUnits="userSpaceOnUse"><stop stop-color="#8B4047"></stop><stop offset="0.97" stop-color="#B07C3B"></stop></linearGradient><linearGradient id="paint18_linear_287_11668" x1="57.54" y1="107.01" x2="57.54" y2="35.4899" gradientUnits="userSpaceOnUse"><stop stop-color="#8B4047"></stop><stop offset="0.97" stop-color="#B07C3B"></stop></linearGradient><linearGradient id="paint19_linear_287_11668" x1="50.49" y1="110.84" x2="50.49" y2="20.4101" gradientUnits="userSpaceOnUse"><stop stop-color="#8B4047"></stop><stop offset="0.97" stop-color="#B07C3B"></stop></linearGradient><linearGradient id="paint20_linear_287_11668" x1="61.3701" y1="77.8802" x2="61.3701" y2="4.33024" gradientUnits="userSpaceOnUse"><stop stop-color="#8B4047"></stop><stop offset="0.97" stop-color="#B07C3B"></stop></linearGradient><linearGradient id="paint21_linear_287_11668" x1="60.0399" y1="99.3102" x2="60.0399" y2="8.81017" gradientUnits="userSpaceOnUse"><stop stop-color="#8B4047"></stop><stop offset="0.97" stop-color="#B07C3B"></stop></linearGradient><linearGradient id="paint22_linear_287_11668" x1="59.37" y1="106.3" x2="59.37" y2="9.57018" gradientUnits="userSpaceOnUse"><stop stop-color="#8B4047"></stop><stop offset="0.97" stop-color="#B07C3B"></stop></linearGradient><linearGradient id="paint23_linear_287_11668" x1="53.1299" y1="107.13" x2="53.1299" y2="14.6202" gradientUnits="userSpaceOnUse"><stop stop-color="#8B4047"></stop><stop offset="0.97" stop-color="#B07C3B"></stop></linearGradient><linearGradient id="paint24_linear_287_11668" x1="62.12" y1="102.02" x2="62.12" y2="18.9901" gradientUnits="userSpaceOnUse"><stop stop-color="#8B4047"></stop><stop offset="0.97" stop-color="#B07C3B"></stop></linearGradient><clipPath id="clip0_287_11668"><rect width="119.07" height="115.27" fill="white"></rect></clipPath></defs></svg> 