<?xml version="1.0" encoding="UTF-8"?> <svg xmlns="http://www.w3.org/2000/svg" width="419" height="335" viewBox="0 0 419 335" fill="none"><path d="M36.5062 143.826C-9.15335 137.052 -13.52 156.48 32.1395 163.254C-0.504746 166.521 6.23607 210.914 38.8803 207.682C4.3283 243.547 38.3292 265.073 72.8812 229.208C37.3541 250.597 74.1954 290.829 109.722 269.44C79.2404 301.111 101.074 314.934 131.556 283.264C109.044 326.557 145.292 338.97 167.804 295.677C159.918 344.85 191.927 348.22 199.812 299.047C195.615 331.027 230.379 334.053 234.576 302.073C230.633 344.747 260.14 346.57 264.125 303.861C259.292 338.523 296.346 341.928 301.221 307.266C312.837 340.93 336.155 335.635 324.538 301.97C354.554 320.986 372.233 302.589 342.217 283.608C372.233 302.624 396.864 277.005 366.849 258.024C422.471 270.197 441.04 214.353 385.46 202.18C426.075 199.67 420.012 135.608 379.398 138.118C412.042 117.004 381.772 86.1939 349.128 107.342C378.974 81.5517 337.639 50.0879 307.792 75.8779C343.192 39.1186 272.774 -5.44653 237.417 31.2784C243.564 -5.03389 207.104 -9.09151 200.957 27.2208C200.109 -9.6417 143.299 -8.78203 144.147 28.0805C124.052 -2.59243 95.1386 9.85554 115.234 40.5284C85.0062 21.4095 43.9677 64.0489 74.153 83.2023C43.9253 64.0833 16.1565 92.9337 46.3418 112.087C13.952 106.792 8.94936 126.839 41.3392 132.169C-8.47502 118.792 -13.2657 130.518 36.5486 143.929L36.5062 143.826Z" fill="white"></path></svg> 