<?xml version="1.0" encoding="UTF-8"?> <svg xmlns="http://www.w3.org/2000/svg" width="201" height="161" viewBox="0 0 201 161" fill="none"><path d="M17.5125 69.1223C-4.39099 65.8667 -6.48575 75.2039 15.4177 78.4596C-0.242134 80.0296 2.99153 101.365 18.6514 99.8113C2.07634 117.048 18.387 127.393 34.9621 110.157C17.9193 120.436 35.5925 139.772 52.6354 129.492C38.0127 144.713 48.4865 151.356 63.1092 136.136C52.31 156.942 69.6985 162.908 80.4978 142.102C76.715 165.734 92.0698 167.354 95.8526 143.721C93.8392 159.091 110.516 160.545 112.529 145.176C110.638 165.684 124.793 166.56 126.705 146.035C124.386 162.693 142.161 164.329 144.5 147.671C150.072 163.85 161.258 161.305 155.686 145.126C170.084 154.265 178.565 145.423 164.166 136.301C178.565 145.44 190.381 133.128 175.982 124.006C202.665 129.856 211.573 103.017 184.911 97.1672C204.394 95.9608 201.486 65.1726 182.002 66.379C197.662 56.2319 183.141 41.4245 167.481 51.5881C181.799 39.1935 161.97 24.0721 147.652 36.4667C164.634 18.8003 130.853 -2.61758 113.892 15.0323C116.841 -2.41927 99.3506 -4.36935 96.4017 13.0822C95.9949 -4.63377 68.7427 -4.22062 69.1494 13.4954C59.5095 -1.24591 45.6393 4.73654 55.2793 19.4778C40.7786 10.2893 21.0919 30.7817 35.5722 39.9868C21.0716 30.7982 7.75051 44.6637 22.2308 53.8687C6.69296 51.3237 4.29313 60.9584 19.831 63.52C-4.06558 57.0913 -6.36372 62.7267 17.5328 69.1719L17.5125 69.1223Z" fill="white"></path><mask id="mask0_108_722" style="mask-type:alpha" maskUnits="userSpaceOnUse" x="0" y="0" width="201" height="161"><path d="M17.5125 69.1223C-4.39099 65.8667 -6.48575 75.2039 15.4177 78.4596C-0.242134 80.0296 2.99153 101.365 18.6514 99.8113C2.07634 117.048 18.387 127.393 34.9621 110.157C17.9193 120.436 35.5925 139.772 52.6354 129.492C38.0127 144.713 48.4865 151.356 63.1092 136.136C52.31 156.942 69.6985 162.908 80.4978 142.102C76.715 165.734 92.0698 167.354 95.8526 143.721C93.8392 159.091 110.516 160.545 112.529 145.176C110.638 165.684 124.793 166.56 126.705 146.035C124.386 162.693 142.161 164.329 144.5 147.671C150.072 163.85 161.258 161.305 155.686 145.126C170.084 154.265 178.565 145.423 164.166 136.301C178.565 145.44 190.381 133.128 175.982 124.006C202.665 129.856 211.573 103.017 184.911 97.1672C204.394 95.9608 201.486 65.1726 182.002 66.379C197.662 56.2319 183.141 41.4245 167.481 51.5881C181.799 39.1935 161.97 24.0721 147.652 36.4667C164.634 18.8003 130.853 -2.61758 113.892 15.0323C116.841 -2.41927 99.3506 -4.36935 96.4017 13.0822C95.9949 -4.63377 68.7427 -4.22062 69.1494 13.4954C59.5095 -1.24591 45.6393 4.73654 55.2793 19.4778C40.7786 10.2893 21.0919 30.7817 35.5722 39.9868C21.0716 30.7982 7.75051 44.6637 22.2308 53.8687C6.69296 51.3237 4.29313 60.9584 19.831 63.52C-4.06558 57.0913 -6.36372 62.7267 17.5328 69.1719L17.5125 69.1223Z" fill="white"></path></mask><g mask="url(#mask0_108_722)"><mask id="mask1_108_722" style="mask-type:luminance" maskUnits="userSpaceOnUse" x="-108" y="-86" width="360" height="288"><path d="M252 -86H-108V202H252V-86Z" fill="white"></path></mask><g mask="url(#mask1_108_722)"><g style="mix-blend-mode:multiply" opacity="0.7"><path d="M126.99 35.18C89.91 46.78 92.46 61.84 119.76 73.03C153.21 86.75 207.07 106.21 167.39 126.56C128.21 146.65 35.67 151.57 7.57004 178.68C-20.53 205.79 29.24 233.68 47.16 244.52L-88.3 284.49C-90.28 282.46 -127.9 243.83 -123.86 197.33C-119.05 142.03 -37.24 129.5 27.82 121.9C97.52 113.76 106.07 106.43 79.52 95.61C45.29 81.66 -5.24997 64.8 69.31 37.22C143.88 9.63996 263.7 -7.87004 270 -8.79004L265.84 1.45996C213.55 9.89996 164.06 23.59 126.99 35.19V35.18Z" fill="#595959"></path></g><path d="M265.83 -2.14011C213.54 6.29988 163.54 17.9099 126.47 29.5099C125.72 29.7499 124.98 29.9799 124.26 30.2199C124.06 30.2799 123.87 30.3499 123.67 30.4099C123.08 30.6099 122.5 30.7999 121.93 30.9999C121.8 31.0399 121.67 31.0899 121.54 31.1299C120.87 31.3599 120.21 31.5999 119.57 31.8299C119.41 31.8899 119.26 31.9399 119.11 31.9999C118.6 32.1899 118.1 32.3799 117.61 32.5699C117.45 32.6299 117.29 32.6899 117.13 32.7499C116.53 32.9799 115.94 33.2199 115.38 33.4499C115.29 33.4899 115.21 33.5199 115.13 33.5599C114.64 33.7599 114.16 33.9699 113.7 34.1699C113.55 34.2399 113.4 34.2999 113.25 34.3699C112.77 34.5799 112.3 34.7999 111.84 35.0099C111.79 35.0299 111.73 35.0599 111.68 35.0799C111.18 35.3199 110.7 35.5499 110.23 35.7899C110.11 35.8499 109.98 35.9099 109.86 35.9799C109.49 36.1699 109.13 36.3599 108.78 36.5499C108.68 36.5999 108.58 36.6599 108.48 36.7099C108.05 36.9399 107.64 37.1799 107.25 37.4099C107.16 37.4599 107.08 37.5099 107 37.5599C106.68 37.7499 106.37 37.9399 106.07 38.1399C105.97 38.1999 105.87 38.2699 105.77 38.3299C105.41 38.5599 105.06 38.7999 104.73 39.0299C104.71 39.0499 104.68 39.0599 104.66 39.0799C104.35 39.2999 104.06 39.5199 103.78 39.7399C103.7 39.8099 103.61 39.8699 103.53 39.9399C103.28 40.1399 103.04 40.3399 102.81 40.5399C102.77 40.5799 102.72 40.6199 102.68 40.6599C102.42 40.8899 102.17 41.1299 101.94 41.3599C101.88 41.4199 101.82 41.4799 101.77 41.5399C101.59 41.7299 101.41 41.9199 101.25 42.0999C101.22 42.1399 101.18 42.1799 101.14 42.2099C101.13 42.2299 101.12 42.2399 101.1 42.2599C100.84 42.5699 100.61 42.8699 100.4 43.1799C100.37 43.2299 100.33 43.2799 100.3 43.3199C100.1 43.6199 99.9199 43.9299 99.7599 44.2299C99.7499 44.2499 99.73 44.2799 99.72 44.2999C99.7 44.3299 99.69 44.3699 99.68 44.3999C99.57 44.6199 99.47 44.8499 99.39 45.0699C99.39 45.0899 99.37 45.1099 99.36 45.1299C99.27 45.3699 99.2 45.6099 99.14 45.8599C99.14 45.8899 99.1199 45.9199 99.1199 45.9399C99.1199 45.9799 99.11 46.0199 99.1 46.0599C99.07 46.2199 99.04 46.3699 99.02 46.5299C99.02 46.5999 99 46.6599 98.99 46.7299C98.97 46.9499 98.95 47.1599 98.95 47.3799V56.9199C98.95 56.6999 98.96 56.4899 98.99 56.2699C98.99 56.1999 99.01 56.1399 99.02 56.0699C99.04 55.9099 99.07 55.7599 99.1 55.5999C99.11 55.5299 99.13 55.4699 99.15 55.3999C99.21 55.1599 99.2799 54.9199 99.3699 54.6699C99.3699 54.6499 99.39 54.6299 99.4 54.6099C99.48 54.3899 99.58 54.1599 99.69 53.9399C99.72 53.8799 99.75 53.8299 99.78 53.7699C99.94 53.4699 100.11 53.1599 100.32 52.8599C100.35 52.8099 100.39 52.7599 100.42 52.7199C100.63 52.4099 100.86 52.1099 101.12 51.7999C101.17 51.7499 101.22 51.6899 101.26 51.6399C116.89 33.7499 193.24 14.4399 265.85 1.30988L270.01 -8.33012V-17.8701L265.85 -2.14011H265.83Z" fill="url(#paint0_radial_108_722)"></path><path d="M79.51 96.0701C88.44 99.7101 93.4 102.95 93.4 105.97V96.4301C93.4 93.4201 88.44 90.1701 79.51 86.5301C58.27 77.8701 30.74 68.0901 30.74 55.3301V64.8701C30.74 77.6401 58.27 87.4201 79.51 96.0701Z" fill="url(#paint1_radial_108_722)"></path><path d="M181.28 103.73C181.25 103.94 181.22 104.16 181.17 104.37C181.15 104.46 181.12 104.55 181.1 104.64C181.03 104.91 180.95 105.18 180.86 105.45C180.82 105.57 180.77 105.69 180.72 105.81C180.62 106.06 180.52 106.3 180.4 106.55C180.33 106.69 180.27 106.83 180.2 106.97C180.15 107.06 180.1 107.15 180.05 107.24C179.93 107.45 179.81 107.65 179.68 107.86C179.63 107.94 179.58 108.02 179.52 108.1C179.33 108.38 179.13 108.66 178.91 108.94C178.88 108.98 178.85 109.02 178.81 109.06C178.62 109.29 178.42 109.53 178.22 109.77C178.07 109.94 177.91 110.11 177.74 110.28C177.6 110.43 177.46 110.58 177.31 110.73C177.14 110.9 176.95 111.07 176.76 111.25C176.6 111.4 176.45 111.55 176.28 111.69C176.08 111.86 175.87 112.04 175.66 112.21C175.48 112.36 175.31 112.51 175.12 112.65C174.9 112.83 174.66 113 174.42 113.18C174.23 113.32 174.04 113.47 173.84 113.61C173.59 113.79 173.31 113.97 173.04 114.16C172.83 114.3 172.64 114.44 172.42 114.58C172.13 114.77 171.82 114.96 171.51 115.15C171.3 115.28 171.09 115.41 170.87 115.55C170.52 115.76 170.14 115.98 169.76 116.19C169.57 116.3 169.38 116.41 169.18 116.52C168.6 116.84 167.99 117.17 167.36 117.49C128.18 137.58 35.64 142.5 7.54 169.61C7.12 170.02 6.71 170.43 6.32 170.84C6.2 170.97 6.08 171.1 5.96 171.23C5.7 171.52 5.43999 171.8 5.18999 172.09C5.12999 172.16 5.05999 172.23 4.99999 172.3C4.93999 172.37 4.88999 172.44 4.82999 172.51C4.56999 172.82 4.31999 173.14 4.07999 173.45C3.98999 173.57 3.9 173.68 3.81 173.8C3.49 174.22 3.19 174.64 2.91 175.06C2.86 175.13 2.82 175.21 2.77 175.28C2.54 175.63 2.31999 175.98 2.10999 176.33C2.02999 176.47 1.95 176.6 1.88 176.74C1.71 177.04 1.54999 177.35 1.38999 177.65C1.34999 177.73 1.29999 177.82 1.25999 177.9C1.22999 177.96 1.20999 178.01 1.17999 178.07C1.07999 178.27 0.989994 178.48 0.899994 178.68C0.829994 178.85 0.749993 179.01 0.679993 179.18C0.589993 179.39 0.509995 179.59 0.439995 179.8C0.379995 179.96 0.309994 180.12 0.259995 180.28C0.179994 180.49 0.119995 180.7 0.0499954 180.92C-4.58956e-06 181.08 -0.0500061 181.23 -0.100006 181.39C-0.170006 181.61 -0.220006 181.84 -0.280006 182.06C-0.310006 182.19 -0.350005 182.31 -0.380005 182.44C-0.380005 182.46 -0.380007 182.48 -0.390007 182.49C-0.440007 182.7 -0.480004 182.91 -0.520004 183.12C-0.550004 183.27 -0.580008 183.42 -0.610008 183.57C-0.650008 183.79 -0.670005 184 -0.700005 184.22C-0.720005 184.36 -0.740002 184.51 -0.760002 184.65C-0.790002 184.89 -0.800007 185.13 -0.820007 185.37C-0.820007 185.49 -0.840006 185.61 -0.850006 185.73C-0.870006 186.09 -0.880005 186.45 -0.880005 186.8V196.34C-0.880005 195.98 -0.870006 195.62 -0.850006 195.27C-0.850006 195.15 -0.830007 195.03 -0.820007 194.91C-0.800007 194.67 -0.790002 194.43 -0.760002 194.19C-0.740002 194.05 -0.720005 193.9 -0.700005 193.76C-0.670005 193.54 -0.640008 193.33 -0.610008 193.11C-0.580008 192.96 -0.550004 192.81 -0.520004 192.66C-0.480004 192.45 -0.440007 192.24 -0.390007 192.03C-0.360007 191.89 -0.320006 191.74 -0.280006 191.6C-0.220006 191.38 -0.170006 191.15 -0.100006 190.93C-0.0500061 190.77 -4.58956e-06 190.62 0.0499954 190.46C0.119995 190.25 0.179994 190.04 0.259995 189.82C0.319994 189.66 0.379995 189.5 0.439995 189.34C0.519995 189.13 0.599993 188.93 0.679993 188.72C0.749993 188.56 0.819994 188.39 0.899994 188.22C0.989994 188.02 1.07999 187.81 1.17999 187.61C1.24999 187.47 1.31999 187.33 1.38999 187.2C1.53999 186.9 1.71 186.59 1.88 186.29C1.96 186.15 2.02999 186.02 2.10999 185.88C2.31999 185.53 2.54 185.18 2.77 184.82C2.82 184.75 2.86 184.67 2.91 184.6C3.19 184.18 3.49 183.76 3.81 183.34C3.9 183.22 3.98999 183.11 4.07999 182.99C4.31999 182.68 4.56999 182.36 4.82999 182.05C4.94999 181.91 5.06999 181.77 5.18999 181.62C5.43999 181.33 5.69 181.05 5.96 180.76C6.08 180.63 6.2 180.5 6.32 180.37C6.71 179.96 7.11 179.55 7.54 179.14C35.64 152.04 128.18 147.11 167.36 127.02C167.99 126.7 168.6 126.37 169.18 126.05C169.38 125.94 169.56 125.83 169.76 125.72C170.13 125.51 170.51 125.29 170.87 125.08C171.09 124.95 171.29 124.82 171.5 124.69C171.81 124.5 172.12 124.31 172.42 124.11C172.63 123.97 172.83 123.83 173.03 123.7C173.3 123.52 173.58 123.33 173.84 123.15C174.04 123.01 174.22 122.86 174.41 122.72C174.65 122.54 174.89 122.36 175.12 122.18C175.31 122.03 175.48 121.89 175.65 121.74C175.86 121.57 176.07 121.39 176.27 121.22C176.44 121.07 176.59 120.93 176.75 120.78C176.94 120.61 177.13 120.43 177.3 120.26C177.45 120.11 177.59 119.96 177.73 119.82C177.89 119.65 178.06 119.48 178.21 119.3C178.25 119.26 178.29 119.21 178.33 119.17C178.5 118.98 178.65 118.79 178.8 118.59C178.83 118.55 178.87 118.51 178.9 118.47C179.12 118.19 179.32 117.91 179.51 117.62C179.56 117.54 179.61 117.46 179.66 117.38C179.79 117.17 179.92 116.97 180.04 116.76C180.09 116.67 180.14 116.58 180.19 116.49C180.22 116.43 180.26 116.36 180.3 116.3C180.34 116.23 180.36 116.15 180.4 116.08C180.52 115.83 180.63 115.59 180.72 115.34C180.77 115.22 180.81 115.1 180.86 114.98C180.95 114.71 181.03 114.44 181.1 114.17C181.12 114.1 181.14 114.03 181.16 113.97C181.16 113.95 181.16 113.93 181.17 113.91C181.22 113.7 181.25 113.48 181.28 113.27C181.3 113.16 181.32 113.06 181.33 112.95C181.36 112.64 181.38 112.32 181.38 112.01C181.38 112.01 181.38 112 181.38 111.99V102.45C181.38 102.77 181.36 103.09 181.33 103.4C181.32 103.5 181.3 103.61 181.28 103.71V103.73Z" fill="url(#paint2_radial_108_722)"></path><path d="M126.47 29.5094C89.39 41.1094 92.46 52.7694 119.76 63.9694C153.21 77.6894 207.07 97.1494 167.39 117.499C128.21 137.589 35.67 142.509 7.57004 169.619C-20.53 196.729 29.24 224.619 47.16 235.459L-88.3 275.429C-90.28 273.399 -127.9 234.769 -123.86 188.269C-119.05 132.969 -37.24 120.439 27.82 112.839C97.52 104.699 106.07 97.3694 79.52 86.5494C45.29 72.5994 -5.24997 55.7394 69.31 28.1594C143.88 0.579416 263.7 -16.9306 270 -17.8506L265.84 -2.12059C213.55 6.31941 163.55 17.9294 126.48 29.5294L126.47 29.5094Z" fill="url(#paint3_radial_108_722)"></path><path d="M266.39 -4.95996C242.97 -1.03996 219.67 3.56003 196.51 8.77003C173.36 14.02 150.32 19.82 127.69 26.95C122.04 28.76 116.39 30.56 110.93 32.84C108.21 34 105.52 35.23 102.95 36.66C100.39 38.1 97.9 39.73 95.91 41.83C94.89 42.85 94.07 44.05 93.55 45.34C93.03 46.64 92.92 48.06 93.27 49.4C93.6 50.75 94.36 51.99 95.27 53.1C95.7 53.68 96.23 54.17 96.73 54.7C97.28 55.18 97.79 55.69 98.37 56.14C102.96 59.78 108.34 62.37 113.73 64.76C124.65 69.36 135.73 73.71 146.4 79.01C151.72 81.68 156.98 84.55 161.81 88.14C164.21 89.94 166.51 91.95 168.38 94.39C169.31 95.61 170.12 96.96 170.64 98.46C171.16 99.95 171.39 101.6 171.13 103.2C170.89 104.8 170.25 106.3 169.39 107.61C168.53 108.92 167.47 110.07 166.34 111.1C164.07 113.16 161.52 114.81 158.89 116.26C153.61 119.15 148.05 121.35 142.43 123.36C131.17 127.31 119.64 130.29 108.11 133.13C85.04 138.79 61.74 143.54 39.19 150.73C33.55 152.52 28 154.54 22.57 156.81C17.15 159.1 11.84 161.67 6.91003 164.81C1.99003 167.94 -2.54996 171.67 -5.97996 176.27C-6.19996 176.56 -6.42997 176.83 -6.62997 177.12L-7.19997 178.03C-7.56997 178.64 -7.97997 179.23 -8.31997 179.85C-8.92997 181.13 -9.62997 182.37 -10.03 183.72C-10.98 186.37 -11.47 189.17 -11.33 191.98C-11.22 194.78 -10.61 197.57 -9.62997 200.24C-8.58997 202.9 -7.22997 205.43 -5.65997 207.85C-4.06997 210.26 -2.23997 212.52 -0.319969 214.71C1.64003 216.87 3.70003 218.94 5.86003 220.91C14.55 228.8 24.42 235.32 34.54 241.47L32.97 244.02C22.85 237.8 12.83 231.12 3.97003 222.98C1.76003 220.94 -0.359966 218.79 -2.37997 216.54C-4.35997 214.26 -6.25997 211.88 -7.92997 209.33C-9.57997 206.76 -11.03 204.05 -12.13 201.16C-13.18 198.25 -13.84 195.17 -13.95 192.05C-14.09 188.92 -13.52 185.77 -12.46 182.85C-12 181.35 -11.24 180 -10.56 178.6C-10.18 177.93 -9.73997 177.29 -9.32997 176.64L-8.70997 175.66C-8.48997 175.34 -8.23996 175.05 -8.00996 174.75C-4.28996 169.84 0.520031 165.95 5.61003 162.75C10.72 159.54 16.15 156.94 21.67 154.65C27.2 152.37 32.82 150.36 38.51 148.59C61.27 141.47 84.61 136.85 107.67 131.32C119.2 128.55 130.7 125.64 141.88 121.78C147.45 119.83 152.97 117.66 158.13 114.88C160.7 113.48 163.17 111.89 165.31 109.97C167.44 108.07 169.25 105.7 169.66 102.99C170.11 100.29 168.96 97.53 167.23 95.28C165.5 92.99 163.3 91.04 160.97 89.27C156.29 85.74 151.09 82.87 145.82 80.19C135.24 74.86 124.23 70.46 113.29 65.79C107.87 63.35 102.45 60.72 97.73 56.94C97.13 56.48 96.59 55.94 96.03 55.44C95.51 54.88 94.95 54.36 94.5 53.74C93.54 52.55 92.71 51.2 92.33 49.65C91.93 48.12 92.07 46.44 92.66 44.99C93.25 43.54 94.16 42.25 95.24 41.18C97.36 38.98 99.92 37.34 102.52 35.88C105.14 34.44 107.86 33.21 110.61 32.06C116.13 29.8 121.81 28.02 127.47 26.24C150.17 19.22 173.25 13.54 196.43 8.41004C219.62 3.32004 242.95 -1.15996 266.39 -4.95996Z" fill="white"></path><path d="M268.06 -11.3701C243.16 -7.11012 218.35 -2.29012 193.67 3.08988C181.33 5.79988 169.04 8.67988 156.79 11.7399C144.56 14.8499 132.38 18.1799 120.3 21.8399L111.29 24.7099C108.27 25.6299 105.33 26.7499 102.34 27.7499C96.37 29.7699 90.5 32.0299 84.83 34.6799C82.03 36.0499 79.22 37.4399 76.61 39.1099C74.01 40.7499 71.47 42.5699 69.52 44.8099C67.6 47.0199 66.33 49.7499 67.03 52.3899C67.37 53.6899 67.97 54.9799 68.91 56.1099C69.3 56.7099 69.88 57.2199 70.35 57.7799C70.89 58.2999 71.43 58.8099 72 59.3099C76.68 63.1999 82.32 66.0699 87.96 68.7399C93.63 71.4199 99.47 73.7099 105.33 76.1999C111.16 78.7299 116.97 81.3499 122.48 84.7899C125.22 86.5299 127.91 88.4699 130.16 91.1799C131.24 92.5599 132.23 94.1999 132.56 96.1899C132.6 96.6899 132.66 97.1999 132.66 97.6999C132.6 98.1999 132.54 98.7099 132.46 99.2099C132.32 99.6899 132.15 100.15 131.98 100.61C131.82 101.08 131.53 101.45 131.31 101.87C131.19 102.07 131.07 102.28 130.94 102.48L130.51 103.01C130.22 103.36 129.94 103.73 129.64 104.05L128.69 104.95C128.38 105.26 128.05 105.54 127.71 105.79C126.38 106.86 124.97 107.76 123.54 108.58C120.69 110.24 117.71 111.49 114.72 112.7C108.73 115.03 102.61 116.85 96.47 118.51C84.2 121.8 71.84 124.5 59.52 127.3C47.21 130.09 34.91 132.9 22.77 136.17C16.7 137.79 10.67 139.55 4.71004 141.48C-1.24996 143.41 -7.14997 145.48 -12.9 147.89C-18.65 150.28 -24.27 152.94 -29.6 156.03C-34.92 159.12 -39.97 162.64 -44.34 166.79C-48.71 170.93 -52.37 175.73 -54.75 181.08C-57.22 186.44 -58.3 192.35 -58.21 198.2C-58.02 204.07 -56.63 209.92 -54.27 215.43C-53.73 216.83 -53.02 218.16 -52.39 219.52C-51.66 220.84 -50.99 222.19 -50.19 223.48C-48.67 226.1 -46.94 228.61 -45.11 231.05C-41.45 235.93 -37.3 240.48 -32.83 244.7C-30.6 246.81 -28.29 248.84 -25.9 250.77C-23.53 252.67 -21.03 254.57 -18.62 256.07L-22.29 262.03C-25.22 260.15 -27.72 258.18 -30.26 256.1C-32.77 254.03 -35.18 251.86 -37.51 249.6C-42.17 245.09 -46.51 240.23 -50.38 234.96C-52.31 232.32 -54.13 229.6 -55.76 226.74C-56.61 225.33 -57.34 223.85 -58.11 222.39C-58.8 220.88 -59.55 219.41 -60.14 217.86C-62.68 211.73 -64.21 205.08 -64.34 198.31C-64.37 191.55 -63.02 184.75 -60.14 178.65C-57.31 172.48 -53.08 167.11 -48.24 162.63C-43.39 158.14 -37.96 154.45 -32.33 151.27C-26.69 148.09 -20.83 145.41 -14.89 143.01C-8.94997 140.61 -2.89997 138.56 3.18003 136.67C9.26003 134.78 15.39 133.07 21.54 131.51C33.84 128.35 46.21 125.67 58.57 123.02C70.92 120.36 83.28 117.81 95.46 114.7C101.53 113.13 107.56 111.41 113.37 109.23C116.25 108.11 119.12 106.93 121.75 105.44C123.07 104.7 124.34 103.91 125.48 103.01C125.79 102.8 126.06 102.57 126.3 102.32L127.08 101.6C127.32 101.35 127.51 101.08 127.74 100.83L128.07 100.45C128.16 100.32 128.23 100.18 128.31 100.04C129.01 98.9599 129.33 97.8399 129.14 96.6999C128.97 95.5499 128.33 94.3799 127.49 93.2799C125.72 91.0899 123.27 89.2099 120.71 87.5499C115.53 84.2299 109.83 81.5599 104.1 78.9999C98.37 76.4799 92.45 74.0899 86.74 71.2999C83.87 69.9099 81.03 68.4699 78.26 66.8399C75.49 65.2099 72.78 63.4399 70.29 61.2899C69.67 60.7399 69.08 60.1699 68.49 59.5799C67.95 58.9299 67.33 58.3699 66.86 57.6499C65.8 56.3299 65.01 54.6899 64.58 52.9499C64.11 51.1899 64.37 49.2599 64.98 47.5999C65.15 47.1899 65.3 46.7699 65.5 46.3699L66.17 45.2599L66.51 44.7099L66.91 44.2199L67.71 43.2299C69.96 40.7199 72.66 38.8599 75.39 37.1699C78.13 35.4599 81.01 34.0799 83.9 32.7099C89.71 30.0799 95.67 27.8599 101.69 25.8999C104.7 24.9199 107.68 23.8399 110.71 22.9499L119.79 20.1799C131.94 16.6599 144.18 13.4599 156.46 10.4899C168.76 7.56988 181.1 4.81989 193.47 2.25989C218.23 -2.83011 243.09 -7.37011 268.04 -11.3401L268.06 -11.3701Z" fill="#81D3E8"></path><path d="M269.72 -17.7803C242.31 -13.3703 215.01 -8.32028 187.85 -2.58028C160.69 3.13972 133.68 9.63972 107.08 17.4997C103.74 18.4297 100.45 19.5397 97.14 20.5797L92.19 22.1597C90.54 22.6897 88.88 23.1997 87.26 23.7997C80.74 26.1497 74.14 28.3197 67.77 31.0297C61.39 33.6997 55.09 36.6397 49.32 40.3997C47.88 41.3397 46.48 42.3497 45.17 43.4397C43.85 44.5297 42.6 45.6897 41.52 46.9997C40.44 48.2997 39.51 49.7197 38.98 51.2797C38.68 52.0497 38.55 52.8597 38.46 53.6697C38.43 54.4797 38.46 55.2997 38.65 56.0997C39.38 59.3197 41.74 61.9997 44.29 64.1997C46.88 66.4197 49.79 68.2897 52.78 69.9997C58.78 73.3997 65.13 76.1897 71.51 78.8897L81.12 82.8697C84.33 84.1797 87.57 85.4997 90.7 87.0797C92.27 87.8597 93.81 88.7097 95.3 89.6697C96.78 90.6497 98.24 91.7097 99.43 93.1797C100.02 93.9097 100.52 94.7897 100.71 95.8197C100.9 96.8497 100.65 97.9697 100.13 98.8097C99.07 100.52 97.5 101.55 95.96 102.45C92.83 104.2 89.5 105.34 86.16 106.38C82.82 107.4 79.43 108.26 76.04 109.04C69.25 110.6 62.41 111.84 55.55 112.99C48.69 114.14 41.81 115.11 34.95 116.13C28.09 117.14 21.23 118.18 14.39 119.3C0.710014 121.53 -12.93 124.07 -26.37 127.35C-39.8 130.66 -53.08 134.71 -65.65 140.36C-71.93 143.19 -78 146.48 -83.63 150.38C-89.26 154.27 -94.44 158.83 -98.65 164.17C-102.87 169.49 -106.06 175.6 -107.85 182.13C-109.61 188.65 -110.19 195.55 -109.76 202.34C-109.35 209.15 -108.08 215.91 -106.02 222.43C-104.01 228.97 -101.26 235.29 -98.06 241.36C-94.84 247.42 -91.13 253.23 -87.06 258.76C-85.02 261.53 -82.88 264.21 -80.65 266.82C-79.53 268.11 -78.39 269.41 -77.22 270.65C-76.64 271.27 -76.04 271.89 -75.45 272.49C-75.15 272.79 -74.85 273.08 -74.55 273.37C-74.4 273.52 -74.25 273.65 -74.11 273.78L-73.9 273.96C-73.9 273.96 -73.84 274.01 -73.81 274.04L-75.38 276.59C-75.53 276.49 -75.67 276.38 -75.81 276.27L-76.09 276.02C-76.27 275.86 -76.44 275.7 -76.6 275.55C-76.93 275.24 -77.25 274.92 -77.56 274.61C-78.19 273.98 -78.8 273.34 -79.39 272.7C-80.59 271.41 -81.75 270.09 -82.89 268.76C-85.16 266.09 -87.33 263.33 -89.4 260.5C-93.53 254.84 -97.29 248.9 -100.55 242.69C-103.79 236.47 -106.58 229.99 -108.62 223.25C-110.71 216.53 -112 209.55 -112.39 202.5C-112.8 195.45 -112.18 188.33 -110.29 181.46C-108.38 174.61 -104.99 168.2 -100.56 162.67C-96.14 157.12 -90.76 152.43 -84.97 148.47C-79.17 144.49 -72.97 141.17 -66.58 138.33C-53.79 132.65 -40.38 128.64 -26.86 125.37C-13.32 122.13 0.37001 119.64 14.09 117.47C20.95 116.38 27.82 115.37 34.69 114.39C41.57 113.4 48.43 112.47 55.27 111.35C62.11 110.24 68.93 109.03 75.68 107.51C79.05 106.75 82.41 105.92 85.7 104.92C88.98 103.92 92.26 102.79 95.21 101.16C96.65 100.34 98.07 99.3497 98.84 98.0797C99.23 97.4497 99.36 96.7597 99.25 96.0797C99.12 95.3997 98.77 94.7097 98.27 94.0897C97.28 92.8397 95.91 91.8097 94.5 90.8797C93.08 89.9597 91.58 89.1197 90.05 88.3497C86.98 86.7897 83.8 85.4697 80.59 84.1397L70.98 80.1197C64.6 77.3797 58.23 74.5397 52.16 71.0797C49.14 69.3297 46.18 67.4197 43.51 65.1097C42.18 63.9497 40.93 62.6797 39.85 61.2397C38.8 59.7997 37.92 58.1597 37.53 56.3597C37.32 55.4597 37.29 54.5297 37.33 53.6097C37.43 52.6997 37.59 51.7797 37.92 50.9297C38.53 49.1997 39.53 47.6797 40.68 46.3197C41.82 44.9497 43.13 43.7497 44.49 42.6397C45.85 41.5197 47.28 40.4997 48.75 39.5497C54.63 35.7497 60.99 32.8297 67.41 30.1697C73.83 27.4797 80.44 25.3297 86.99 23.0097C88.62 22.4097 90.28 21.9097 91.94 21.3897L96.91 19.8297C100.23 18.7997 103.52 17.7097 106.87 16.7897C133.54 9.02973 160.59 2.65972 187.78 -2.94028C214.97 -8.56028 242.3 -13.4903 269.72 -17.7703V-17.7803Z" fill="white"></path></g></g><defs><radialGradient id="paint0_radial_108_722" cx="0" cy="0" r="1" gradientUnits="userSpaceOnUse" gradientTransform="translate(195.27 36.4899) scale(508.88 508.88)"><stop offset="0.39" stop-color="#676767"></stop><stop offset="0.5" stop-color="#616161"></stop><stop offset="0.63" stop-color="#535353"></stop><stop offset="0.76" stop-color="#3B3B3B"></stop><stop offset="0.91" stop-color="#1A1A1A"></stop><stop offset="1"></stop></radialGradient><radialGradient id="paint1_radial_108_722" cx="0" cy="0" r="1" gradientUnits="userSpaceOnUse" gradientTransform="translate(195.27 36.4901) scale(508.88 508.88)"><stop offset="0.39" stop-color="#676767"></stop><stop offset="0.5" stop-color="#616161"></stop><stop offset="0.63" stop-color="#535353"></stop><stop offset="0.76" stop-color="#3B3B3B"></stop><stop offset="0.91" stop-color="#1A1A1A"></stop><stop offset="1"></stop></radialGradient><radialGradient id="paint2_radial_108_722" cx="0" cy="0" r="1" gradientUnits="userSpaceOnUse" gradientTransform="translate(195.27 36.4902) scale(508.88 508.88)"><stop offset="0.39" stop-color="#676767"></stop><stop offset="0.5" stop-color="#616161"></stop><stop offset="0.63" stop-color="#535353"></stop><stop offset="0.76" stop-color="#3B3B3B"></stop><stop offset="0.91" stop-color="#1A1A1A"></stop><stop offset="1"></stop></radialGradient><radialGradient id="paint3_radial_108_722" cx="0" cy="0" r="1" gradientUnits="userSpaceOnUse" gradientTransform="translate(214.86 -61.9106) scale(307.37 307.37)"><stop offset="0.39" stop-color="#404040"></stop><stop offset="0.53" stop-color="#3A3A3A"></stop><stop offset="0.7" stop-color="#2C2C2C"></stop><stop offset="0.88" stop-color="#141414"></stop><stop offset="1"></stop></radialGradient></defs></svg> 