<?xml version="1.0" encoding="UTF-8"?> <svg xmlns="http://www.w3.org/2000/svg" width="453" height="615" viewBox="0 0 453 615" fill="none"><path d="M26.5488 152.776L16.6389 154.98L18.5081 164.959C20.5121 175.657 23.1702 187.62 26.4701 200.832L26.4858 200.894L26.5022 200.957C29.8713 213.772 34.232 227.188 39.5653 241.202L39.5961 241.283L39.6283 241.363C45.0153 254.843 51.399 268.29 58.7692 281.703C66.283 295.377 74.8641 307.761 84.5305 318.818L89.8742 324.931L97.135 321.297C108.973 315.373 120.176 309.438 130.742 303.492C142.225 297.4 153.058 290.621 163.235 283.152C173.659 275.5 183.62 266.207 193.137 255.344C189.658 271.694 185.934 289.517 181.965 308.813C177.392 331.046 172.82 353.929 168.248 377.463C164.398 396.734 161.23 414.206 158.75 429.87C149.173 430.134 135.377 430.744 117.464 431.687C92.8209 432.334 63.932 432.659 30.7857 432.659H22.0418L20.4591 441.258C15.8117 466.511 12.822 491.775 11.4931 517.049L11.486 517.183L11.4824 517.317C10.8278 541.557 10.5 564.181 10.5 585.185V594.416L19.6551 595.598C40.3076 598.265 67.7022 600.239 101.717 601.55C135.856 603.519 173.866 604.5 215.736 604.5C247.845 604.5 280.925 603.844 314.975 602.533C349.813 601.217 384.649 598.585 419.482 594.638L427.095 593.776L428.596 586.263C430.609 576.19 432.274 565.19 433.602 553.28C435.575 540.743 437.218 527.892 438.534 514.726L438.536 514.701L438.538 514.677C439.857 500.815 440.848 487.272 441.508 474.047C442.168 460.832 442.5 448.249 442.5 436.303V425.803H432H400.686C393.958 425.803 386.945 426.132 379.654 426.783C375.89 426.797 371.852 426.974 367.546 427.306C369.439 416.337 371.877 401.242 374.854 382.084C379.431 352.634 384.33 318.632 389.552 280.087C395.434 240.834 400.987 199.311 406.211 155.52C412.098 110.988 416.682 68.7186 419.958 28.7134L420.699 19.6683L411.856 17.6258C402.708 15.5128 390.757 13.8273 376.194 12.5022C361.476 11.1629 345.497 10.5 328.271 10.5C314.959 10.5 301.649 11.162 288.343 12.4853C275.025 13.1611 262.602 14.5044 251.095 16.537L246.541 17.3414L244.061 21.2435C235.863 34.138 222.267 47.9377 202.626 62.5241C182.78 77.2617 161.636 91.055 139.186 103.9C116.652 116.141 94.8085 126.747 73.6531 135.73L73.599 135.753L73.5452 135.777C52.8443 144.842 37.28 150.389 26.5488 152.776Z" stroke="white" stroke-width="21"></path></svg> 