<?xml version="1.0" encoding="UTF-8"?> <svg xmlns="http://www.w3.org/2000/svg" width="174" height="315" viewBox="0 0 174 315" fill="none"><g clip-path="url(#clip0_14_30638)"><path d="M81.6117 302.625C81.1913 305.588 80.1839 308.196 77.7199 309.246C74.3209 310.688 62.2687 310.181 61.2251 306.124C60.7395 304.233 66.82 239.416 67.262 226.948C68.6463 188.19 71.1756 148.947 72.8424 110.196C73.4512 96.0621 77.1256 37.2584 78.0677 23.1389C78.3069 19.6108 78.5533 16.0828 78.807 12.5547C78.9954 9.97564 78.4808 6.23023 79.249 3.8323C80.5391 -0.195644 84.3294 -0.202888 87.6921 0.130359C90.4099 0.398405 92.9609 1.23152 95.4757 2.28198C100.02 4.18004 108.492 7.29517 109.521 12.7285C110.369 17.2057 107.238 67.2652 106.738 71.6916C105.999 78.2551 105.26 84.8186 104.528 91.3894C102.933 105.574 101.339 119.766 99.7444 133.951C98.6645 143.593 97.5774 153.236 96.4903 162.878C93.7146 187.524 90.8954 212.162 88.1487 236.808C86.7572 249.254 85.3875 261.708 84.054 274.161C83.3872 280.391 83.438 285.774 82.7857 292.004C82.5248 294.532 82.09 299.234 81.6117 302.632V302.625Z" fill="#C28848"></path><g style="mix-blend-mode:screen"><path d="M102.411 12.0476C96.8092 11.0623 91.3592 8.70063 86.6919 5.46234C84.7932 4.14384 82.9596 2.65871 81.3217 0.97799C83.0756 -0.159397 85.4744 -0.0941965 87.6921 0.130383C90.4098 0.39843 92.9608 1.23155 95.4757 2.282C99.9255 4.13659 108.137 7.17204 109.441 12.4026C107.086 12.533 104.774 12.4605 102.411 12.0476Z" fill="#C28848"></path></g><g style="mix-blend-mode:multiply"><path d="M102.759 5.57849C102.643 5.51329 102.527 5.44809 102.404 5.39014C102.52 5.45534 102.636 5.51329 102.759 5.57849Z" fill="#C28848"></path></g><g style="mix-blend-mode:multiply"><path d="M99.708 4.0714C99.621 4.02793 99.5268 3.99171 99.4399 3.94824C99.5268 3.98446 99.621 4.02793 99.708 4.0714Z" fill="#C28848"></path></g><g style="mix-blend-mode:multiply"><path d="M98.6863 3.62242C98.6066 3.5862 98.5268 3.54997 98.4471 3.521C98.5268 3.55722 98.6066 3.5862 98.6863 3.62242Z" fill="#C28848"></path></g><g style="mix-blend-mode:multiply"><path d="M97.7007 3.20209C97.6282 3.17311 97.5557 3.14413 97.4833 3.10791C97.5557 3.13689 97.6282 3.16587 97.7007 3.20209Z" fill="#C28848"></path></g><g style="mix-blend-mode:multiply"><path d="M96.7294 2.80371C96.7294 2.80371 96.7584 2.81096 96.7656 2.8182C96.7511 2.8182 96.7439 2.81096 96.7294 2.80371Z" fill="#C28848"></path></g><g style="mix-blend-mode:multiply" opacity="0.6"><path d="M61.2323 304.356C62.602 303.943 63.95 303.45 65.2473 302.871C67.8418 301.712 70.5741 300.227 72.3714 297.966C74.2194 295.641 75.0311 292.728 75.6254 289.874C77.0966 282.876 78.5968 275.965 78.778 268.778C78.8722 265.091 78.6765 261.396 78.0677 257.759C77.6619 255.325 77.4735 252.753 76.3936 250.493C75.2196 248.03 73.1686 246.596 70.8857 245.255C69.3058 244.328 67.7983 243.227 66.2257 242.249C66.7692 235.345 67.1606 229.788 67.262 226.941C67.8636 210.119 68.6825 193.204 69.5522 176.28C72.3859 177.251 75.234 178.207 78.0967 179.106C79.2563 179.468 80.4376 179.779 81.5609 180.236C82.3726 180.562 83.1916 180.881 84.025 181.149C85.4382 181.598 87.4095 182.235 88.6705 181.112C89.9895 179.932 89.5257 178.019 88.8444 176.628C88.0183 174.926 86.808 173.346 85.431 172.05C83.6626 170.391 81.1623 169.659 78.9302 168.869C76.8357 168.123 74.8282 167.188 72.7482 166.406C71.9655 166.109 71.0451 165.689 70.1175 165.414C71.0814 146.962 72.0597 128.525 72.8497 110.189C73.2193 101.546 74.7412 76.212 76.0747 54.5944C81.916 55.7391 88.069 55.8695 93.8016 54.0946C95.0191 53.7178 96.7005 52.9499 97.2078 51.6821C97.5122 50.9287 97.6789 50.0883 97.9036 49.3059C98.1065 48.6032 98.2804 47.8933 98.3964 47.1688C98.9182 43.8291 98.5341 40.2576 98.2007 36.9178C97.8456 33.4115 97.3455 29.9269 96.9904 26.4206C96.6425 22.9649 96.5628 19.5093 96.6208 16.0319C96.6498 14.2208 96.715 12.388 96.7657 10.5479C98.6138 11.1854 100.505 11.6925 102.419 12.0257C104.774 12.4387 107.086 12.5111 109.434 12.3807C109.463 12.4894 109.499 12.598 109.521 12.714C110.369 17.1911 107.238 67.2506 106.738 71.677C105.999 78.2405 105.26 84.804 104.528 91.3748C102.933 105.56 101.339 119.751 99.7444 133.936C98.6645 143.579 97.5774 153.221 96.4903 162.864C93.7146 187.509 90.8954 212.148 88.1487 236.794C86.7572 249.24 85.3875 261.693 84.054 274.146C83.3872 280.377 83.438 285.759 82.7857 291.99C82.5248 294.518 82.09 299.22 81.6117 302.617C81.1913 305.58 80.1839 308.188 77.7199 309.239C74.3209 310.68 62.2687 310.173 61.2251 306.116C61.1816 305.957 61.1888 305.334 61.2395 304.341L61.2323 304.356Z" fill="#C28848"></path></g><g style="mix-blend-mode:multiply"><path d="M106.977 8.52686C107.057 8.5993 107.129 8.67899 107.209 8.75143C107.137 8.67899 107.057 8.5993 106.977 8.52686Z" fill="#C28848"></path></g><g style="mix-blend-mode:multiply"><path d="M107.897 9.50485C107.832 9.43241 107.774 9.35272 107.709 9.28027C107.774 9.35272 107.832 9.42516 107.897 9.50485Z" fill="#C28848"></path></g><g style="mix-blend-mode:multiply"><path d="M108.477 10.2871C108.419 10.1929 108.354 10.106 108.289 10.019C108.354 10.106 108.412 10.2002 108.477 10.2871Z" fill="#C28848"></path></g><g style="mix-blend-mode:multiply"><path d="M108.941 11.0771C108.898 10.983 108.847 10.896 108.796 10.8091C108.847 10.896 108.898 10.9902 108.941 11.0771Z" fill="#C28848"></path></g><g style="mix-blend-mode:multiply"><path d="M109.296 11.9027C109.267 11.823 109.238 11.7506 109.209 11.6709C109.238 11.7506 109.275 11.823 109.296 11.9027Z" fill="#C28848"></path></g><g style="mix-blend-mode:multiply"><path d="M104.629 6.70105C104.535 6.63585 104.433 6.5779 104.339 6.5127C104.44 6.5779 104.535 6.63585 104.629 6.70105Z" fill="#C28848"></path></g><g style="mix-blend-mode:multiply"><path d="M103.701 6.11455C103.593 6.04935 103.484 5.98415 103.368 5.91895C103.477 5.98415 103.585 6.04935 103.701 6.11455Z" fill="#C28848"></path></g><g style="mix-blend-mode:multiply"><path d="M105.557 7.34591C105.462 7.27347 105.368 7.20827 105.274 7.14307C105.368 7.20827 105.462 7.28071 105.557 7.34591Z" fill="#C28848"></path></g><g style="mix-blend-mode:screen"><path d="M96.1352 15.5469C95.7221 32.9482 93.9393 50.1684 90.8157 67.2726C95.8236 50.603 97.6427 32.883 96.1352 15.5469Z" fill="#9B5826"></path><path d="M91.6783 31.9194C90.0331 36.6936 89.3011 41.772 89.5476 46.8214C91.1999 42.0472 91.9174 36.9689 91.6783 31.9194Z" fill="#9B5826"></path><path d="M88.2792 31.6006C86.5181 35.7444 85.9021 40.3954 86.5399 44.8508C87.8154 40.5475 88.3952 36.0849 88.2792 31.6006Z" fill="#9B5826"></path><path d="M82.8291 9.46875C80.6694 23.1826 79.4591 37.0196 79.2055 50.8928C81.3652 37.179 82.5682 23.3492 82.8291 9.46875Z" fill="#9B5826"></path><path d="M88.1704 15.5396C86.9093 19.4516 86.576 23.6172 87.221 27.6741C88.4892 23.7838 88.8081 19.582 88.1704 15.5396Z" fill="#9B5826"></path><path d="M84.5034 168.783C82.4742 174.187 81.735 180.106 82.409 185.844C83.6555 180.222 84.3512 174.542 84.5034 168.783Z" fill="#9B5826"></path><path d="M80.7565 170.268C79.5897 171.695 79.2926 173.672 80.0028 175.375C81.1769 173.948 81.4595 171.97 80.7565 170.268Z" fill="#9B5826"></path><path d="M78.9158 247.9C75.2052 266.301 72.4222 284.876 70.5959 303.552C74.3138 285.151 77.0822 266.583 78.9158 247.9Z" fill="#9B5826"></path><path d="M70.7118 269.843C68.958 275.175 68.1173 280.797 68.2622 286.404C70.0233 281.072 70.8495 275.451 70.7118 269.843Z" fill="#9B5826"></path><path d="M72.3859 249.544C70.8133 253.348 70.3349 257.6 71.0452 261.657C72.2555 257.738 72.6975 253.638 72.3859 249.544Z" fill="#9B5826"></path></g><path d="M171.384 74.2199C171.384 74.2199 134.256 59.0789 118.863 58.5283C103.47 57.9777 92.3594 60.3539 74.5891 56.9345C56.8188 53.5151 22.6406 54.0367 16.6906 55.3262C10.7405 56.6157 7.53725 58.1878 6.64583 59.9409C5.75441 61.6941 157.737 82.8263 159.824 82.6307C161.919 82.4424 171.384 74.2126 171.384 74.2126V74.2199Z" fill="#9B5826"></path><g style="mix-blend-mode:screen"><path d="M171.384 74.2199C171.384 74.2199 134.256 59.0789 118.863 58.5283C103.47 57.9777 92.3594 60.3539 74.5891 56.9345C56.8188 53.5151 22.6406 54.0367 16.6906 55.3262C10.7405 56.6157 7.53725 58.1878 6.64583 59.9409C5.75441 61.6941 157.737 82.8263 159.824 82.6307C161.919 82.4424 171.384 74.2126 171.384 74.2126V74.2199Z" fill="#9B5826"></path></g><path d="M162.39 80.3486L171.384 74.2197C171.384 74.2197 175.29 78.9069 173.558 84.5431C171.819 90.1794 171.362 90.5271 170.862 92.7729C170.355 95.0187 166.63 96.3372 166.63 96.3372C166.63 96.3372 170.739 98.9525 170.079 99.9377C169.42 100.923 168.318 110.015 167.608 111.478C166.898 112.942 163.448 113.456 163.158 113.949C162.868 114.441 166.311 115.666 165.869 116.644C165.427 117.622 166.166 122.323 164.905 122.396C163.644 122.468 161.136 122.925 161.506 123.859C161.875 124.794 164.687 126.844 163.629 130.546C162.571 134.248 159.491 168.304 158.679 170.724C157.868 173.143 158.324 172.803 156.962 173.991C155.606 175.179 143.844 177.918 143.844 177.918C143.844 177.918 144.351 127.851 148.243 110.058C152.135 92.2658 162.39 80.3558 162.39 80.3558V80.3486Z" fill="#9B5826"></path><g style="mix-blend-mode:multiply"><path d="M162.39 80.3486L171.384 74.2197C171.384 74.2197 175.29 78.9069 173.558 84.5431C171.819 90.1794 171.362 90.5271 170.862 92.7729C170.355 95.0187 166.63 96.3372 166.63 96.3372C166.63 96.3372 170.739 98.9525 170.079 99.9377C169.42 100.923 168.318 110.015 167.608 111.478C166.898 112.942 163.448 113.456 163.158 113.949C162.868 114.441 166.311 115.666 165.869 116.644C165.427 117.622 166.166 122.323 164.905 122.396C163.644 122.468 161.136 122.925 161.506 123.859C161.875 124.794 164.687 126.844 163.629 130.546C162.571 134.248 159.491 168.304 158.679 170.724C157.868 173.143 158.324 172.803 156.962 173.991C155.606 175.179 143.844 177.918 143.844 177.918C143.844 177.918 144.351 127.851 148.243 110.058C152.135 92.2658 162.39 80.3558 162.39 80.3558V80.3486Z" fill="#9B5826"></path></g><g style="mix-blend-mode:multiply"><path d="M166.296 112.377C166.586 112.239 166.905 112.123 167.224 111.985C166.419 112.753 164.847 113.202 163.905 113.55C164.702 113.152 165.492 112.753 166.296 112.377Z" fill="#9B5826"></path></g><g style="mix-blend-mode:multiply"><path d="M161.665 99.6043C158.317 99.8724 155.056 100.445 151.831 101.372C151.439 101.437 151.055 101.531 150.671 101.64C151.171 100.227 151.708 98.8654 152.251 97.5614C152.889 97.5614 153.541 97.6338 154.135 97.5976C155.099 97.5469 156.056 97.4165 157.005 97.2571C158.81 96.9528 160.593 96.5544 162.39 96.2067C164.093 95.8734 165.782 95.6561 167.507 95.4894C167.869 95.4532 168.231 95.417 168.601 95.3735C167.594 95.9966 166.637 96.3371 166.637 96.3371C166.637 96.3371 169.413 98.1047 170.036 99.2856C167.26 99.1624 164.419 99.3798 161.673 99.6043H161.665Z" fill="#9B5826"></path></g><g style="mix-blend-mode:multiply"><path d="M146.801 127.09C146.576 127.09 146.352 127.09 146.134 127.119C146.091 127.119 146.047 127.134 146.004 127.141C146.2 124.83 146.417 122.599 146.656 120.498C148.526 120.259 150.287 119.375 152.005 118.643C153.882 117.839 155.838 117.288 157.73 116.513C159.607 115.745 161.404 114.811 163.216 113.898C163.202 113.912 163.173 113.934 163.165 113.949C162.963 114.304 164.658 115.028 165.485 115.774C164.571 116.252 163.745 116.955 162.919 117.542C161.375 118.643 159.738 119.628 158.114 120.606C154.846 122.57 151.497 124.402 148.396 126.634C148.091 126.627 147.794 126.605 147.468 126.583C147.069 126.561 146.845 126.808 146.808 127.09H146.801Z" fill="#9B5826"></path></g><g style="mix-blend-mode:multiply"><path d="M163.564 127.199C161.056 127.996 158.621 129.032 156.244 130.14C153.425 131.451 150.78 132.98 148.127 134.552C148.04 134.545 147.953 134.552 147.866 134.588C147.576 134.719 147.316 134.885 147.018 135.008C146.721 135.132 146.431 135.276 146.141 135.421C145.873 135.559 145.612 135.697 145.352 135.842C145.489 133.675 145.641 131.538 145.808 129.452C145.982 129.401 146.156 129.343 146.33 129.293C147.047 129.068 147.765 128.843 148.468 128.561C148.54 128.532 148.613 128.503 148.685 128.474C148.729 128.452 148.772 128.43 148.816 128.409C148.823 128.409 148.823 128.409 148.83 128.401C149.011 128.315 148.765 128.438 148.83 128.401C148.845 128.401 148.859 128.387 148.903 128.365C149.048 128.293 149.178 128.228 149.294 128.104C149.294 128.104 149.294 128.104 149.294 128.097C150.156 128.119 151.019 128.01 151.852 127.771C153.469 127.3 154.903 126.366 156.418 125.663C158.085 124.888 159.788 124.185 161.498 123.526C161.455 123.635 161.448 123.75 161.498 123.874C161.738 124.475 162.984 125.54 163.564 127.213V127.199Z" fill="#9B5826"></path></g><path d="M1.14511 147.607C1.31905 147.237 1.53647 146.882 1.78287 146.549C2.08 146.143 2.6163 145.745 2.60905 145.201C2.60181 144.491 1.81911 143.963 1.37703 143.499C0.971176 143.072 0.558075 142.564 0.833481 141.963C0.862473 141.898 0.934937 141.854 1.02916 141.826C0.0290375 139.725 0.24646 137.16 0.420395 134.871C0.703033 131.096 0.833481 127.308 0.797241 123.519C0.761002 119.809 0.572571 116.108 0.231949 112.413C0.0290222 110.21 -0.695694 106.364 2.29019 105.704C2.76126 105.603 3.30481 105.639 3.73964 105.436C4.05852 105.291 4.44987 104.879 4.34116 104.487C4.23245 104.096 3.66716 103.98 3.37003 103.77C3.13086 103.596 2.92793 103.379 2.79024 103.118C2.29742 102.22 2.55833 101.017 3.36278 100.416C2.86272 100.09 2.5076 99.6263 2.34816 98.9888C2.24669 98.5758 2.21046 98.1339 2.21771 97.7065C2.22496 97.2718 2.21771 96.6633 2.39165 96.2576C2.57283 95.8374 3.3483 95.5983 3.73964 95.3882C4.30493 95.084 5.15286 94.8014 5.56595 94.3016C5.96455 93.8162 5.63843 93.1787 5.22533 92.8237C4.776 92.4397 4.13098 92.3383 3.5947 92.121C2.53659 91.7008 1.86259 90.9691 1.7104 89.8172C1.53647 88.5205 1.7249 87.144 1.77562 85.84L1.94231 81.5947C1.98579 80.4501 1.85535 79.0954 2.35541 78.0304C2.95694 76.7626 4.43538 76.6612 5.66017 76.4584C7.16035 76.212 8.65329 75.9657 10.1535 75.7194C10.1462 74.8283 9.00842 74.4299 8.33441 74.0822C7.4575 73.6258 6.60231 73.1331 5.78337 72.5898C5.00792 72.0754 4.131 71.5466 3.49323 70.8584C2.78299 70.0977 3.06564 69.2718 3.33379 68.3735C3.92807 66.3668 4.63104 64.3963 5.45 62.4692C5.80511 61.6289 6.12399 60.6798 6.66029 59.9337C7.14586 59.2527 7.79086 59.0426 8.60257 59.144C8.61707 59.144 8.64604 59.1512 8.68228 59.1657C18.7923 57.543 28.9892 55.9709 39.2658 56.2824C49.3323 56.5867 59.1234 59.0064 68.9724 60.8537C73.9223 61.781 78.9157 62.5562 83.9526 62.8025C89.1923 63.056 94.4394 62.7807 99.6792 62.701C104.803 62.6286 109.912 62.8097 114.978 63.6646C119.993 64.5049 124.914 65.8452 129.784 67.3086C139.51 70.2353 149.048 73.7996 158.31 77.9725C159.469 78.4941 160.629 79.0302 161.781 79.5663C161.904 79.6242 162.006 79.6967 162.049 79.7836C162.296 79.885 162.477 80.0806 162.412 80.3342C161.498 83.9999 160.977 87.7525 160.861 91.5269C160.81 93.2221 160.578 94.758 159.274 95.9606C158.745 96.4532 158.107 96.8444 157.44 97.1052C157.114 97.2356 156.781 97.3443 156.44 97.424C156.121 97.4964 155.766 97.4964 155.454 97.6123C154.947 97.8079 155.44 97.96 155.722 98.0977C156.135 98.2933 156.541 98.5034 156.933 98.7425C157.737 99.2423 158.476 99.8509 159.129 100.546C159.346 100.778 159.324 100.974 159.187 101.111C158.701 103.089 158.23 105.074 157.904 107.081C157.592 108.979 157.541 110.899 157.281 112.797C157.049 114.47 156.556 116.151 155.396 117.426C154.476 118.44 153.258 119.092 151.91 119.179C152.309 121.099 154.027 122.381 154.577 124.25C155.027 125.779 154.36 127.467 152.7 127.786C152.222 127.88 152.07 128.032 152.244 128.525C152.389 128.923 152.671 129.249 152.925 129.582C153.461 130.292 153.751 131.111 153.86 131.995C154.092 133.951 153.548 135.95 153.171 137.856C152.664 140.464 152.149 143.072 151.642 145.687C151.62 145.81 151.512 145.882 151.36 145.919C151.36 145.962 151.345 145.998 151.338 146.042C150.809 152.178 150.28 158.314 149.758 164.457C149.606 166.225 149.454 167.985 149.301 169.753C149.193 171.035 149.258 172.542 148.323 173.549C147.576 174.353 146.272 174.781 145.888 175.889C145.707 176.411 145.757 177.027 145.352 177.454C144.975 177.838 144.38 177.91 143.873 177.889C143.228 177.86 142.561 177.686 142.011 177.338C141.366 176.932 140.916 176.295 140.307 175.838C138.626 174.571 136.053 176.353 134.546 177.15C133.77 177.555 133.509 177.968 132.082 177.889C130.48 177.794 128.936 177.258 127.4 176.838C124.82 176.143 122.24 175.454 119.653 174.781C114.558 173.448 109.449 172.165 104.325 170.934C93.9466 168.442 83.5105 166.196 72.9947 164.341C62.5658 162.501 52.0573 161.045 41.5052 160.132C30.9242 159.22 20.2924 158.85 9.67516 159.183C8.3634 159.227 7.05165 159.278 5.73988 159.335C4.74701 159.386 3.64543 159.459 2.76126 158.915C1.91333 158.394 1.7104 157.285 1.44949 156.394C1.15961 155.416 0.905945 154.424 0.73201 153.417C0.391388 151.49 0.311676 149.382 1.1741 147.57L1.14511 147.607Z" fill="#9B5826"></path><g style="mix-blend-mode:multiply" opacity="0.5"><path d="M21.8432 105.53C25.7494 106.211 29.6557 106.907 33.5765 107.53C39.4541 108.472 45.4983 108.501 51.3396 109.667C46.4259 109.776 41.5123 109.544 36.6131 109.225C30.9675 108.856 25.3291 108.363 19.6762 108.124C13.9001 107.885 8.11681 107.668 2.34072 107.465C1.66673 107.443 0.992733 107.429 0.318737 107.407C0.630371 106.581 1.2174 105.936 2.29 105.704C2.76107 105.603 3.30462 105.639 3.73946 105.436C4.05833 105.291 4.44968 104.878 4.34097 104.487C4.23226 104.096 3.66698 103.98 3.36983 103.77C3.13068 103.596 2.92775 103.379 2.79005 103.118C2.58713 102.741 2.51466 102.321 2.55814 101.908C5.18891 102.423 7.78344 103.176 10.407 103.647C14.2118 104.328 18.0456 104.871 21.8504 105.538L21.8432 105.53Z" fill="#9B5826"></path></g><g style="mix-blend-mode:multiply" opacity="0.5"><path d="M0.492744 150.178C0.565217 149.287 0.753646 148.418 1.13775 147.599C1.31169 147.23 1.52911 146.875 1.77552 146.542C1.92771 146.339 2.13063 146.143 2.30456 145.926C3.49312 146.875 5.0223 147.411 6.08765 148.469C4.30482 149.287 2.42052 149.823 0.492744 150.178Z" fill="#9B5826"></path></g><g style="mix-blend-mode:multiply" opacity="0.5"><path d="M22.9592 142.376C27.5902 143.129 32.1778 144.021 36.8378 144.564C45.3316 145.549 54.0936 145.955 62.3772 148.23C59.2029 148.128 56.0286 147.86 52.8688 147.541C48.6798 147.114 44.4982 146.585 40.3092 146.187C36.1493 145.788 31.9748 145.585 27.8077 145.361C19.3356 144.919 10.8635 144.564 2.39145 144.209C2.31173 144.209 2.232 144.223 2.14503 144.245C1.89862 143.97 1.59424 143.731 1.37682 143.499C0.970978 143.071 0.55788 142.564 0.833279 141.963C0.862267 141.898 0.934742 141.854 1.02896 141.825C0.32597 140.348 0.231754 138.645 0.28973 136.964C3.09443 138.196 6.06581 139.065 9.05169 139.79C13.6392 140.898 18.3065 141.623 22.9592 142.383V142.376Z" fill="#9B5826"></path></g><g style="mix-blend-mode:multiply" opacity="0.5"><path d="M121.015 134.907C101.36 132.306 81.8 128.916 62.0512 127.054C57.8405 126.655 53.6081 126.452 49.4047 126.025C47.5494 125.837 45.5636 125.677 43.7808 125.105C43.6721 125.069 43.5054 125.004 43.346 124.938C43.4257 124.888 43.5126 124.844 43.6214 124.793C46.7667 123.46 50.2599 123.229 53.6371 123.33C57.9275 123.453 62.2179 124.134 66.4865 124.576C71.5016 125.105 76.495 125.808 81.4884 126.467C86.4745 127.119 91.4679 127.648 96.4468 128.322C115.464 130.893 134.299 134.646 153.367 136.79C153.287 137.16 153.215 137.522 153.142 137.884C153.012 138.536 152.889 139.181 152.758 139.833C152.004 139.666 151.251 139.5 150.497 139.34C140.749 137.355 130.857 136.211 121.008 134.907H121.015Z" fill="#9B5826"></path></g><g style="mix-blend-mode:multiply" opacity="0.5"><path d="M107.071 84.0722C98.8674 82.8189 90.7069 81.428 82.5755 79.7617C87.8297 80.2833 93.084 80.7904 98.3528 81.102C105.216 81.5076 112.072 81.3193 118.935 81.4714C122.421 81.5511 125.907 81.7684 129.349 82.3118C132.763 82.8479 136.147 83.5868 139.517 84.3402C142.851 85.0864 146.17 85.9195 149.497 86.6802C151.12 87.0497 152.751 87.3902 154.382 87.7307C156.019 88.0712 157.505 88.4624 159.186 88.4334C159.766 88.658 160.361 88.8391 160.977 88.9767C160.911 89.8316 160.853 90.6864 160.832 91.5413C160.817 92.1064 160.774 92.6497 160.679 93.1713C160.448 93.1206 160.208 93.0626 159.976 93.0119C142.489 89.1941 124.747 86.7816 107.064 84.0722H107.071Z" fill="#9B5826"></path></g><g style="mix-blend-mode:multiply" opacity="0.5"><path d="M31.2212 158.053C37.0553 157.082 42.9546 157.162 48.8393 157.401C54.8184 157.647 60.7901 157.901 66.7546 158.35C78.6764 159.241 90.5764 160.726 102.252 163.327C108.057 164.616 113.71 166.341 119.406 168.036C124.892 169.673 130.799 171.021 136.51 169.731C141.054 168.702 145.518 166.181 148.475 162.544C149.127 161.748 149.656 160.885 150.12 159.98C149.99 161.48 149.859 162.979 149.736 164.479C149.584 166.246 149.432 168.007 149.279 169.774C149.171 171.057 149.236 172.564 148.301 173.571C147.555 174.375 146.25 174.802 145.866 175.911C145.685 176.432 145.736 177.048 145.33 177.475C144.953 177.859 144.359 177.932 143.851 177.91C143.206 177.881 142.539 177.707 141.989 177.359C141.344 176.954 140.894 176.316 140.286 175.86C138.604 174.592 136.031 176.374 134.524 177.171C133.749 177.577 133.488 177.99 132.06 177.91C130.458 177.816 128.915 177.28 127.378 176.86C124.798 176.164 122.218 175.476 119.631 174.802C114.536 173.469 109.427 172.187 104.303 170.955C93.9247 168.463 83.4886 166.217 72.9728 164.363C62.544 162.523 52.0354 161.067 41.4834 160.154C36.2363 159.697 30.9748 159.386 25.706 159.219C27.5323 158.756 29.3659 158.357 31.2212 158.046V158.053Z" fill="#9B5826"></path></g><g style="mix-blend-mode:multiply" opacity="0.5"><path d="M1.70295 89.8169C1.52901 88.5202 1.71745 87.1437 1.76818 85.8397C1.80442 84.9631 1.8334 84.0865 1.86964 83.21C2.34071 83.2824 2.80453 83.3621 3.2756 83.4345C6.44267 83.9634 9.60973 84.4995 12.7768 85.0428C24.1115 86.9843 35.4173 89.078 46.6796 91.3673C55.6952 93.2001 64.6891 95.1706 73.6467 97.2933C67.8489 96.8876 62.0728 96.1704 56.304 95.4604C49.2016 94.5838 42.1066 93.7797 34.968 93.2653C27.7859 92.7437 20.5966 92.4032 13.4001 92.1279C9.90687 91.9975 6.42093 91.8816 2.92774 91.773C2.26099 91.331 1.8334 90.7008 1.71021 89.8169H1.70295Z" fill="#9B5826"></path></g><g style="mix-blend-mode:screen"><path d="M158.027 81.2689C142.953 73.5245 126.248 68.7938 109.347 67.4971C125.936 70.7788 142.177 75.3646 158.027 81.2689Z" fill="#9B5826"></path><path d="M133.415 77.5742C131.676 76.1543 129.589 75.2705 127.451 74.6837C125.298 74.1331 123.052 73.8723 120.834 74.249C121.892 74.6474 122.936 74.9445 123.972 75.2343C126.907 76.0094 130.415 77.0454 133.415 77.567V77.5742Z" fill="#9B5826"></path><path d="M151.157 128.366C140.308 124.924 129.038 122.773 117.682 122.005C128.719 124.751 139.88 126.859 151.157 128.366Z" fill="#9B5826"></path><path d="M133.618 130.612C130.009 128.576 125.914 127.424 121.769 127.301C125.378 129.344 129.473 130.481 133.618 130.612Z" fill="#9B5826"></path><path d="M51.4702 145.883C35.8306 141.826 19.4227 140.493 3.33377 141.992C19.4517 142.5 35.4755 143.782 51.4702 145.883Z" fill="#9B5826"></path><path d="M28.8733 146.912C20.5607 144.847 11.8639 144.209 3.33386 145.057C11.8132 146.209 20.3142 146.817 28.8733 146.912Z" fill="#9B5826"></path><path d="M47.3755 153.946C37.2003 150.968 26.5106 149.643 15.915 150.063C26.0467 151.591 37.1786 152.961 47.3755 153.946Z" fill="#9B5826"></path><path d="M23.6914 119.571C18.14 117.68 11.9943 117.397 6.29793 118.781C12.103 119.404 17.8573 119.658 23.6914 119.571Z" fill="#9B5826"></path><path d="M19.8069 122.085C15.4223 120.875 10.784 120.636 6.29795 121.418C10.6826 122.635 15.3208 122.86 19.8069 122.085Z" fill="#9B5826"></path><path d="M52.5864 65.5991C40.0124 61.5205 26.4382 60.2599 13.3351 61.9769C26.5179 62.2739 39.5776 63.4765 52.5864 65.5991Z" fill="#9B5826"></path><path d="M15.176 75.5529C10.8856 74.4155 6.25461 74.5459 2.04394 75.9441C6.4213 76.5454 10.8422 76.4077 15.176 75.5529Z" fill="#9B5826"></path><path d="M11.8494 78.4076C8.79826 77.4224 5.45727 77.4224 2.41341 78.4294C5.46452 79.4219 8.79826 79.4074 11.8494 78.4076Z" fill="#9B5826"></path><path d="M143.634 153.823C133.053 150.164 121.849 148.216 110.652 148.114C121.276 150.143 132.944 152.157 143.634 153.823Z" fill="#9B5826"></path><path d="M116.754 159.575C110.362 157.083 103.607 155.518 96.7659 154.967C103.158 157.467 109.912 159.017 116.754 159.575Z" fill="#9B5826"></path><path d="M104.919 154.533C99.8748 151.903 94.1422 150.534 88.4531 150.628C93.8016 152.512 99.2951 153.801 104.919 154.533Z" fill="#9B5826"></path><path d="M100.687 160.734C97.976 159.082 94.7583 158.321 91.5984 158.611C94.3089 160.27 97.5267 161.016 100.687 160.734Z" fill="#9B5826"></path></g><path d="M82.119 65.7365C83.7641 65.1714 85.6846 66.5985 86.0905 68.1634C86.4891 69.7064 85.5469 71.0829 83.9888 71.3075C81.7638 71.6335 80.0752 70.4961 80.4811 68.1561C80.6478 67.2216 81.1551 66.0697 82.119 65.7365Z" fill="#A6A6A6"></path><g style="mix-blend-mode:multiply"><path d="M85.0396 68.2648C84.7207 67.026 83.4525 65.8814 82.1262 65.7293C83.7713 65.1714 85.6846 66.5986 86.0905 68.1562C86.4891 69.6992 85.5469 71.0757 83.9888 71.3003C83.7134 71.3437 83.4452 71.3582 83.1843 71.3582C84.5975 71.025 85.4237 69.721 85.0396 68.2576V68.2648Z" fill="#A6A6A6"></path></g><path d="M76.1544 153.794C77.7995 153.229 79.72 154.656 80.1259 156.22C80.5245 157.764 79.5823 159.133 78.0242 159.365C75.7992 159.691 74.1106 158.553 74.5165 156.213C74.6832 155.279 75.1905 154.127 76.1544 153.794Z" fill="#A6A6A6"></path><g style="mix-blend-mode:multiply"><path d="M79.075 156.322C78.7561 155.083 77.4879 153.938 76.1616 153.786C77.8067 153.228 79.72 154.648 80.1259 156.213C80.5245 157.756 79.5823 159.126 78.0242 159.357C77.7488 159.401 77.4806 159.415 77.2197 159.415C78.6329 159.082 79.4591 157.778 79.075 156.315V156.322Z" fill="#A6A6A6"></path></g><path d="M145.562 208.895C145.562 208.895 115.094 193.341 106.861 190.19C98.6284 187.038 66.3925 179.352 63.5515 179.243C60.7106 179.135 58.0001 180.279 57.5 179.548C56.9927 178.816 36.3452 172.542 33.3086 172.955C30.272 173.375 25.2714 177.338 24.6336 178.157C23.9959 178.975 130.56 212.387 132.698 212.112C134.843 211.836 145.562 208.888 145.562 208.888V208.895Z" fill="#9B5826"></path><g style="mix-blend-mode:screen"><path d="M145.562 208.895C145.562 208.895 115.094 193.341 106.861 190.19C98.6284 187.038 66.3925 179.352 63.5515 179.243C60.7106 179.135 58.0001 180.279 57.5 179.548C56.9927 178.816 36.3452 172.542 33.3086 172.955C30.272 173.375 25.2714 177.338 24.6336 178.157C23.9959 178.975 130.56 212.387 132.698 212.112C134.843 211.836 145.562 208.888 145.562 208.888V208.895Z" fill="#9B5826"></path></g><path d="M136.126 209.424L145.562 208.888C145.562 208.888 145.808 215.017 144.554 216.038C143.301 217.059 139.568 218.081 138.981 218.842C138.394 219.595 144.192 218.856 144.061 219.559C143.924 220.254 143.416 225.565 142.184 227.542C140.952 229.52 136.43 230.201 136.43 230.201C136.43 230.201 140.119 232.034 139.735 233.055C139.351 234.077 135.386 234.236 134.263 234.555C133.14 234.874 138.67 234.7 138.706 236.975C138.742 239.249 131.48 254.361 129.603 255.774C127.726 257.187 117.305 258.447 115.899 257.947C114.5 257.455 114.775 245.559 118.334 233.867C121.892 222.174 136.133 209.431 136.133 209.431L136.126 209.424Z" fill="#9B5826"></path><g style="mix-blend-mode:multiply"><path d="M136.126 209.424L145.562 208.888C145.562 208.888 145.808 215.017 144.554 216.038C143.301 217.059 139.568 218.081 138.981 218.842C138.394 219.595 144.192 218.856 144.061 219.559C143.924 220.254 143.416 225.565 142.184 227.542C140.952 229.52 136.43 230.201 136.43 230.201C136.43 230.201 140.119 232.034 139.735 233.055C139.351 234.077 135.386 234.236 134.263 234.555C133.14 234.874 138.67 234.7 138.706 236.975C138.742 239.249 131.48 254.361 129.603 255.774C127.726 257.187 117.305 258.447 115.899 257.947C114.5 257.455 114.775 245.559 118.334 233.867C121.892 222.174 136.133 209.431 136.133 209.431L136.126 209.424Z" fill="#9B5826"></path></g><g style="mix-blend-mode:multiply"><path d="M144.025 219.479C142.96 219.776 141.902 220.356 140.96 220.812C139.728 221.406 138.524 222.051 137.307 222.674C134.604 224.065 131.806 225.391 128.799 225.963C126.508 226.398 124.226 226.354 121.935 226.18C123.276 223.993 124.798 221.877 126.342 219.928C128.154 219.726 129.958 219.414 131.77 219.218C134.234 218.958 136.633 218.805 139.039 218.197C140.155 217.914 141.257 217.574 142.337 217.19C140.894 217.798 139.322 218.371 138.959 218.842C138.401 219.566 143.663 218.921 144.011 219.479H144.025Z" fill="#9B5826"></path></g><g style="mix-blend-mode:multiply"><path d="M119.74 230.288C120.203 230.549 120.682 230.759 121.189 230.911C121.53 231.012 121.892 231.078 122.24 231.056C125.045 232.418 128.088 233.389 131.154 233.954C132.451 234.193 133.828 234.388 135.176 234.374C134.792 234.432 134.466 234.49 134.249 234.548C133.14 234.866 138.51 234.7 138.677 236.888C137.524 237.395 136.162 237.431 134.923 237.489C133.285 237.569 131.69 237.525 130.074 237.243C126.748 236.663 123.508 235.359 120.464 233.917C120.385 233.881 120.305 233.874 120.232 233.874C120.203 233.859 120.182 233.852 120.153 233.838C119.935 233.744 119.725 233.649 119.508 233.548C119.196 233.41 118.892 233.251 118.587 233.099C118.906 232.157 119.29 231.215 119.725 230.273C119.725 230.273 119.732 230.273 119.74 230.281V230.288Z" fill="#9B5826"></path></g><g style="mix-blend-mode:multiply"><path d="M118.921 234.838C119.152 234.932 119.384 235.012 119.616 235.091C119.913 235.193 120.211 235.294 120.522 235.2C123.501 237.062 126.762 238.366 130.255 238.88C132.002 239.134 133.712 239.105 135.459 238.953C136.466 238.866 137.517 238.75 138.408 238.308C138.082 239.366 137.495 240.865 136.763 242.546C136.698 242.452 136.589 242.394 136.43 242.415C133.27 242.886 130.06 242.684 127.008 241.756C123.747 240.764 120.508 239.655 117.304 238.474C117.232 238.445 117.159 238.438 117.094 238.446C117.399 237.149 117.754 235.83 118.145 234.512C118.399 234.628 118.66 234.744 118.921 234.845V234.838Z" fill="#9B5826"></path></g><path d="M1.18141 196.094C1.26114 195.985 1.34811 195.891 1.43507 195.79C1.71046 194.783 2.39171 193.928 3.45706 193.565C3.50055 193.551 3.52954 193.529 3.57303 193.515C3.58751 193.515 3.60201 193.515 3.6165 193.515C6.72559 190.624 10.1753 188.096 13.8859 186.031C17.4951 184.024 21.3796 182.329 23.9741 178.982C25.1482 177.468 26.2498 175.947 28.2645 175.585C30.4532 175.193 32.7941 175.874 34.9393 176.258L42.288 177.562C44.4332 177.946 46.7958 178.12 48.8106 178.968C49.6802 179.337 50.4847 179.873 51.05 180.641C51.6153 181.402 51.8834 182.315 52.2168 183.191C52.5067 183.966 53.1372 185.568 54.1736 184.952C54.9852 184.466 55.565 183.684 56.4202 183.242C60.0511 181.358 64.7328 183.104 68.4 184.003C77.604 186.263 86.8081 188.574 95.8599 191.399C101.129 193.044 106.347 194.855 111.463 196.927C114.848 198.296 118.087 199.919 121.494 201.223C124.856 202.505 128.183 203.94 131.183 205.946C132.422 206.772 133.604 207.692 134.872 208.482C135.314 208.757 135.778 209.025 136.104 209.431C137.249 210.887 136.242 213.741 136.082 215.4C135.93 216.907 135.647 217.943 134.256 218.704C131.64 220.124 128.893 221.341 126.125 222.442C126.719 223.116 127.371 223.724 128.103 224.253C128.871 224.811 129.741 225.267 130.306 226.064C130.901 226.89 130.872 227.81 130.611 228.752C130.256 230.056 129.813 231.346 129.415 232.635C129.292 233.026 128.821 233.135 128.465 233.106C127.393 233.019 126.342 233.019 125.277 233.12C126.067 234.272 126.871 235.417 127.719 236.525C128.205 237.163 127.538 237.626 126.922 237.59C124.704 237.453 122.486 237.315 120.269 237.17C120.269 238.134 121.312 238.829 122.059 239.358C122.849 239.916 123.682 240.568 124.088 241.473C124.574 242.567 124.19 243.625 123.718 244.646C123.11 245.965 122.501 247.276 121.892 248.587C120.66 251.253 119.479 253.948 118.182 256.585C116.812 259.367 114.123 257.288 112.355 256.122C111.833 255.774 111.304 255.433 110.782 255.086C101.571 251.565 92.3595 248.044 83.1482 244.523C78.3142 242.676 73.4803 240.829 68.6464 238.981C66.2838 238.076 63.9212 237.177 61.5585 236.272C59.3264 235.417 56.9203 234.714 54.7823 233.635C53.9561 233.215 53.3619 232.671 53.043 231.795C52.898 231.411 52.8183 230.998 52.6661 230.614C52.5864 230.418 52.4487 230.013 52.253 229.897C52.3907 229.86 52.369 229.853 52.1805 229.882C52.0429 229.889 51.9052 229.911 51.7747 229.947C50.7963 230.15 49.9049 230.636 48.9555 230.94C48.0134 231.244 47.0205 231.36 46.0421 231.338C41.701 231.244 37.9396 228.839 33.9536 227.455C30.2358 226.166 26.1845 226.383 22.445 225.137C20.6984 224.557 19.0097 223.688 17.7342 222.341C16.2485 220.769 15.3136 218.711 14.2265 216.864C11.5015 212.242 8.47943 207.801 5.18192 203.57C3.79768 201.795 1.81194 199.933 1.36986 197.637C1.28288 197.195 1.27563 196.746 1.33362 196.311C1.21765 196.224 1.15244 196.144 1.18867 196.087L1.18141 196.094Z" fill="#9B5826"></path><g style="mix-blend-mode:multiply" opacity="0.5"><path d="M102.788 203.577C94.0192 199.752 85.1412 196.072 76.546 191.855C80.5102 192.558 84.402 193.58 88.2358 194.847C97.5921 197.934 106.383 202.331 115.493 206.011C122.457 208.822 129.393 211.684 136.162 214.915C136.133 215.081 136.111 215.248 136.097 215.4C135.959 216.806 135.691 217.798 134.531 218.537C133.915 218.204 133.299 217.87 132.676 217.544C122.95 212.408 112.862 207.982 102.788 203.584V203.577Z" fill="#9B5826"></path></g><g style="mix-blend-mode:multiply" opacity="0.5"><path d="M37.889 184.155C40.643 185.183 43.4477 186.045 46.2016 187.052C48.2961 187.82 50.4123 188.704 52.2241 190.023C51.1443 190.081 49.9412 189.733 49.0208 189.53C47.0713 189.088 45.0855 188.813 43.1288 188.422C36.2801 187.045 29.4314 185.589 22.6262 184.031C21.4304 183.756 20.2201 183.481 18.9953 183.213C20.7347 182.155 22.3581 180.938 23.6843 179.344C25.0251 179.685 26.3513 180.083 27.6776 180.511C31.1273 181.612 34.5118 182.894 37.8962 184.155H37.889Z" fill="#9B5826"></path></g><g style="mix-blend-mode:multiply" opacity="0.5"><path d="M35.1929 196.007C30.9532 195.739 26.8368 193.862 22.771 192.848C17.9516 191.646 13.0234 190.204 8.03006 189.842C9.18962 188.972 10.3854 188.154 11.6102 187.386C12.045 187.509 12.4799 187.632 12.9147 187.755C15.7702 188.581 18.6328 189.392 21.4665 190.284C26.1772 191.769 30.9097 193.507 35.1929 196.007Z" fill="#9B5826"></path></g><g style="mix-blend-mode:multiply" opacity="0.5"><path d="M14.7919 216.045C17.1907 217.03 19.5823 218.015 21.9739 219.008C29.8445 222.282 37.7078 225.731 45.2522 229.693C46.1799 230.179 47.1003 230.679 48.0134 231.186C47.3612 231.309 46.6944 231.367 46.0349 231.352C41.6938 231.258 37.9325 228.853 33.9465 227.469C30.2286 226.18 26.1774 226.397 22.4378 225.151C20.6912 224.572 19.0026 223.702 17.727 222.355C16.2413 220.783 15.3064 218.725 14.2193 216.878C13.9367 216.4 13.6323 215.929 13.3424 215.451C13.8208 215.654 14.2991 215.856 14.7846 216.052L14.7919 216.045Z" fill="#9B5826"></path></g><g style="mix-blend-mode:multiply" opacity="0.5"><path d="M89.0113 237.307C83.2642 234.518 77.5388 231.715 71.741 229.027C68.7334 227.636 65.7258 226.252 62.7326 224.847C61.2469 224.151 59.6888 223.572 58.1958 222.869C62.7906 223.862 67.3057 225.231 71.7193 226.854C81.764 230.556 91.3232 235.431 100.991 239.988C105.6 242.161 110.282 244.11 114.993 246.066C117.247 247.001 119.493 247.964 121.697 249.022C121.081 250.355 120.479 251.688 119.863 253.021C109.854 247.276 99.3821 242.342 89.004 237.307H89.0113Z" fill="#9B5826"></path></g><g style="mix-blend-mode:multiply" opacity="0.5"><path d="M9.93624 197.137C14.5962 199.173 19.1838 201.411 23.9597 203.179C25.873 203.889 27.7936 204.606 29.6199 205.519C30.678 206.048 31.7578 206.649 32.6782 207.424C31.1273 207.228 29.5981 206.772 28.1052 206.323C25.931 205.671 23.7206 205.185 21.5029 204.671C15.1833 203.215 8.86365 201.781 2.55126 200.281C1.99322 199.455 1.54389 198.593 1.36271 197.644C1.27574 197.202 1.2685 196.753 1.32648 196.318C1.21052 196.231 1.14529 196.152 1.18153 196.094C1.26125 195.985 1.34822 195.891 1.43519 195.789C1.64536 195.021 2.08744 194.348 2.76144 193.906C3.01509 194.036 3.24701 194.181 3.42819 194.275C4.08769 194.616 4.76893 194.898 5.45018 195.195C6.94312 195.847 8.43607 196.485 9.92176 197.137H9.93624Z" fill="#9B5826"></path></g><g style="mix-blend-mode:multiply" opacity="0.5"><path d="M83.0831 215.791C75.4807 212.821 67.8855 209.843 60.2976 206.851C56.8551 205.497 53.4272 204.077 49.934 202.845C48.1729 202.222 46.2741 201.606 44.5927 200.672C45.2233 200.875 45.8465 201.114 46.4843 201.302C48.3033 201.831 50.1297 202.345 51.956 202.86C55.6521 203.91 59.341 204.968 63.0443 205.997C69.4944 207.786 75.8793 209.814 82.2279 211.93C88.5258 214.031 94.8237 216.139 101.042 218.45C107.173 220.732 113.224 223.246 119.117 226.093C121.842 227.404 124.451 228.882 127.096 230.345C127.958 230.823 128.835 231.273 129.727 231.678C129.625 231.997 129.524 232.316 129.422 232.627C129.299 233.019 128.828 233.127 128.473 233.098C127.4 233.004 126.349 233.011 125.284 233.113C125.458 233.366 125.639 233.62 125.82 233.873C111.833 227.266 97.4834 221.413 83.0758 215.791H83.0831Z" fill="#9B5826"></path></g><g style="mix-blend-mode:screen"><path d="M133.879 211.575C127.197 206.222 119.116 202.513 110.688 200.955C118.486 204.425 126.161 207.932 133.879 211.575Z" fill="#9B5826"></path><path d="M116.08 205.874C110.586 202.926 104.745 200.687 98.6791 199.231C103.977 202.534 109.927 204.795 116.08 205.874Z" fill="#9B5826"></path><path d="M24.6843 206.584C18.5386 203.244 11.9291 200.789 5.08767 199.318C11.2261 202.665 17.8429 205.106 24.6843 206.584Z" fill="#9B5826"></path><path d="M21.7058 208.678C19.1765 206.381 15.6761 205.142 12.2626 205.367C15.1833 207.091 18.3576 208.192 21.7058 208.678Z" fill="#9B5826"></path><path d="M34.8379 221.457C29.8518 218.596 24.3801 216.603 18.7127 215.618C23.6988 218.487 29.1778 220.465 34.8379 221.457Z" fill="#9B5826"></path><path d="M75.7776 193.957C74.4586 192.414 72.4076 191.639 70.4001 191.95C71.7119 193.501 73.7701 194.261 75.7776 193.957Z" fill="#9B5826"></path><path d="M77.8069 197.695C73.7557 194.645 68.5883 193.001 63.5152 193.175C68.139 194.957 73.0019 196.478 77.8069 197.695Z" fill="#9B5826"></path><path d="M95.3455 234.772C87.6996 229.81 79.0971 226.275 70.1757 224.435C78.1984 228.057 87.0981 231.701 95.3455 234.772Z" fill="#9B5826"></path><path d="M89.8157 235.084C86.6848 232.722 82.967 231.179 79.0824 230.65C82.206 233.019 85.9311 234.548 89.8157 235.084Z" fill="#9B5826"></path></g><path d="M76.6981 189.762C78.3432 189.197 80.2637 190.624 80.6696 192.189C81.0682 193.732 80.126 195.102 78.5679 195.333C76.3429 195.659 74.6543 194.522 75.0602 192.182C75.2269 191.247 75.7342 190.096 76.6981 189.762Z" fill="#A6A6A6"></path><g style="mix-blend-mode:multiply"><path d="M79.6187 192.291C79.2998 191.052 78.0316 189.907 76.7053 189.755C78.3504 189.197 80.2637 190.624 80.6696 192.182C81.0682 193.725 80.126 195.094 78.5679 195.326C78.2925 195.37 78.0243 195.384 77.7634 195.384C79.1766 195.051 80.0028 193.747 79.6187 192.283V192.291Z" fill="#A6A6A6"></path></g><path d="M72.1976 231.903C73.8427 231.338 75.7632 232.766 76.1691 234.33C76.5677 235.873 75.6255 237.243 74.0674 237.474C71.8425 237.8 70.1538 236.663 70.5597 234.323C70.7264 233.389 71.2337 232.237 72.1976 231.903Z" fill="#A6A6A6"></path><g style="mix-blend-mode:multiply"><path d="M75.1182 234.432C74.7993 233.193 73.5311 232.048 72.2048 231.896C73.85 231.338 75.7632 232.758 76.1691 234.323C76.5677 235.866 75.6255 237.235 74.0674 237.467C73.792 237.511 73.5238 237.525 73.2629 237.525C74.6761 237.192 75.5023 235.888 75.1182 234.425V234.432Z" fill="#A6A6A6"></path></g><path d="M21.2563 193.233C22.1985 190.509 26.3946 190.639 29.3153 190.241C31.9533 189.878 34.6058 189.581 37.2583 189.342C39.4905 189.139 41.7299 188.98 43.9765 188.857C45.5999 188.77 48.2379 188.176 49.8106 188.683C50.5498 188.922 50.9194 189.61 50.8035 190.357C51.3833 190.023 52.2602 189.799 52.8617 190.255C53.0067 190.371 53.1444 190.516 53.3183 190.567C53.5285 190.632 53.7531 190.567 53.9633 190.509C54.6156 190.335 55.6447 190.212 56.2897 190.516C57.2391 190.972 58 192.291 57.7174 193.414C57.1883 195.529 53.9561 195.058 52.5936 196.145C53.2893 196.362 54.0575 196.427 54.7967 196.543C56.768 196.84 58.7248 197.21 60.6743 197.623C64.6168 198.463 68.5086 199.506 72.4004 200.557C80.4666 202.737 88.5328 204.918 96.5991 207.099C101.121 208.323 105.644 209.54 110.159 210.764C110.934 210.974 110.985 211.692 110.673 212.373C112.326 213.054 113.964 213.771 115.572 214.553C116.268 214.886 116.935 215.64 116.594 216.466C116.58 216.495 116.565 216.516 116.551 216.545C116.667 216.842 116.645 217.183 116.384 217.567C116.188 217.864 115.848 218.103 115.456 218.262C115.623 218.422 115.717 218.603 115.754 218.791C116.507 219.537 115.79 220.689 114.703 220.834C114.594 220.849 114.478 220.856 114.369 220.87C114.355 221.153 114.224 221.443 114.051 221.638C113.906 221.798 113.724 221.914 113.521 222.015C114.036 222.471 114.543 222.935 115.007 223.442C116.747 225.319 117.71 227.977 116.029 230.172C116.029 230.288 116.036 230.411 116.044 230.527C116.044 230.571 116.044 230.607 116.036 230.643C116.065 230.694 116.109 230.737 116.138 230.781C116.493 231.317 116.102 231.962 115.645 232.28C115.196 232.592 114.601 232.701 114.058 232.606C114.051 232.606 114.043 232.614 114.036 232.621C114.565 233.027 114.746 233.642 114.232 234.215C113.681 234.816 112.84 234.917 112.094 234.722C111.47 234.939 110.739 234.845 110.108 234.671C109.724 234.57 109.362 234.41 108.999 234.251C108.934 234.222 108.76 234.171 108.695 234.113C108.637 234.142 108.463 234.193 108.419 234.208C107.042 234.838 106.796 236.598 106.557 237.895C106.412 238.663 106.245 239.453 105.803 240.119C105.296 240.894 104.165 240.793 103.44 240.329C102.759 239.902 103.187 239.09 103.383 238.489C103.665 237.605 103.991 236.736 104.274 235.845C104.578 234.888 104.825 233.918 104.926 232.918C104.962 232.534 104.97 232.143 104.955 231.759C103.81 231.216 102.672 230.658 101.534 230.107C100.853 230.897 100.346 231.788 99.9546 232.744L99.8966 233.005C99.8893 233.077 99.8821 233.143 99.8676 233.215C99.8676 233.273 99.8386 233.324 99.8096 233.374C99.5922 234.28 99.382 235.193 99.1646 236.098C99.1284 236.258 99.0124 236.359 98.8675 236.424C98.7443 236.953 98.6211 237.475 98.4979 237.989C98.1065 239.605 97.7151 241.22 97.3238 242.828C97.1861 243.394 97.1354 244.198 96.686 244.632C96.2874 245.016 95.6497 245.031 95.1496 244.893C93.432 244.43 94.4104 242.944 94.8887 241.836C95.4902 240.431 95.8961 239.018 96.1642 237.511C96.7078 234.454 97.2223 231.389 97.7441 228.332C93.5914 226.514 89.3155 225.268 84.8875 224.261C80.068 223.167 75.2776 222.124 70.5741 220.595C65.6387 218.987 60.7178 217.473 55.6519 216.299C52.5936 215.589 49.5207 214.93 46.4406 214.278C46.2522 214.488 45.9043 214.597 45.6072 214.589C44.9042 214.582 44.2012 214.227 43.7301 213.706C43.3098 213.619 42.8895 213.532 42.4764 213.445C42.9474 214.097 43.4113 214.749 43.8823 215.401C44.2954 215.98 44.02 216.531 43.3315 216.611C42.5198 216.705 41.6792 216.219 41.1719 215.625C40.7008 215.082 40.237 214.524 39.7804 213.966C40.766 216.161 41.7516 218.349 42.7445 220.544C43.3388 221.863 40.9327 221.37 40.4471 221.015C40.3022 220.907 40.1645 220.798 40.0195 220.682C39.1571 220.986 38.0048 221.08 37.7511 220.733C37.0916 219.842 36.4466 218.943 35.8161 218.031C35.6422 217.951 35.49 217.842 35.3668 217.719C31.8736 214.061 28.7428 210.062 26.0323 205.795C24.0248 202.636 19.8938 197.239 21.2853 193.225L21.2563 193.233ZM112.231 226.398C112.398 226.528 112.558 226.666 112.724 226.804C112.826 226.615 112.985 226.456 113.188 226.326C112.978 225.956 112.717 225.608 112.442 225.282C112.355 225.579 112.268 225.876 112.173 226.173C112.195 226.246 112.224 226.318 112.231 226.398ZM108.166 222.066C108.593 222.327 109.014 222.595 109.42 222.884C109.456 222.776 109.485 222.667 109.521 222.566C108.514 221.675 107.499 220.791 106.492 219.907C106.448 220.247 106.303 220.602 106.115 220.907C106.803 221.276 107.492 221.66 108.166 222.058V222.066ZM83.3655 210.685C76.0313 207.772 68.4361 205.483 60.696 203.904C59.5872 203.679 58.4784 203.469 57.3623 203.266C57.7246 203.578 58.0798 203.904 58.4204 204.252C67.5665 206.352 76.6256 208.801 85.5832 211.597C84.844 211.286 84.1048 210.982 83.3583 210.685H83.3655ZM55.1446 207.417C55.1881 207.439 55.2316 207.461 55.2751 207.49C55.4055 207.562 55.536 207.627 55.6664 207.7C55.7026 207.714 55.7316 207.743 55.7679 207.765C65.0589 209.946 74.2484 212.561 83.3003 215.589C88.0255 217.031 92.6855 218.668 97.2223 220.617C97.5992 220.762 97.976 220.899 98.3457 221.044C99.3675 221.45 100.389 221.877 101.404 222.29C101.353 222.269 101.303 222.24 101.252 222.218C97.6282 220.515 93.8958 219.081 90.1417 217.69C82.4016 214.836 74.5456 212.307 66.6171 210.04C62.2687 208.794 57.8986 207.635 53.514 206.534C54.0575 206.823 54.5938 207.12 55.1374 207.41L55.1446 207.417ZM52.6515 204.961C51.6514 204.454 50.6513 203.947 49.6657 203.411C48.0133 202.81 46.3681 202.187 44.7375 201.528C44.2085 201.419 43.6794 201.317 43.1504 201.209C44.4621 201.89 45.7811 202.571 47.0929 203.252C48.9989 204.186 50.8905 205.15 52.7675 206.142C52.5791 205.831 52.5791 205.36 52.6515 204.961ZM44.6795 205.135C46.4841 206.345 48.4264 207.613 48.3177 207.961C48.4988 207.367 48.9192 206.809 49.441 206.577C48.4191 206.048 47.3973 205.519 46.3754 204.99C45.0781 204.317 43.2591 202.643 41.7226 202.853C41.9618 203.281 43.2881 204.194 44.6868 205.128L44.6795 205.135ZM40.5486 206.026C40.8312 206.316 41.1139 206.613 41.3965 206.903C41.6936 206.99 41.9908 207.077 42.2952 207.171C41.6067 206.678 40.9182 206.186 40.2297 205.686C40.3384 205.802 40.4471 205.911 40.5558 206.026H40.5486ZM38.5628 207.874C38.5991 207.787 38.6353 207.7 38.6788 207.613C38.2295 207.077 37.7801 206.541 37.3235 206.005C37.7294 206.628 38.1425 207.251 38.5628 207.867V207.874ZM37.1858 197.253C40.6066 197.768 44.5998 197.094 47.8321 195.942C48.1437 195.833 48.1147 195.377 47.7886 195.312C45.9478 194.935 39.9181 195.616 36.9394 195.609C36.4901 195.609 35.5552 195.594 35.2291 196.007C34.6493 196.739 35.9103 197.021 36.5698 197.145C36.7727 197.181 36.9757 197.217 37.1858 197.253ZM36.838 213.872C36.0553 212.141 35.2798 210.402 34.4971 208.671C33.6854 206.867 32.8737 205.063 32.062 203.259C31.6417 202.332 31.2068 201.47 30.8662 200.506C30.6053 199.753 29.9531 198.753 29.9023 197.971C29.8878 197.753 29.9386 197.536 29.8878 197.326C29.7429 196.703 29.0399 196.927 28.7428 196.594C28.6558 196.5 28.5761 196.442 28.4529 196.456C27.8441 197.587 28.9384 199.057 29.3805 200.057C30.0835 201.629 30.8227 203.187 31.6054 204.73C33.1926 207.867 34.9392 210.916 36.838 213.879V213.872ZM29.7719 193.421C30.0255 193.233 30.2937 193.059 30.5546 192.892C28.4819 193.16 26.4091 193.457 24.3509 193.805C26.1627 193.711 27.9673 193.58 29.7719 193.428V193.421Z" fill="#4D1D0C"></path><path d="M31.5199 107.87C31.3854 107.807 31.1555 107.65 30.8302 107.4C30.5311 107.13 30.1633 106.839 29.7269 106.529C29.3139 106.222 28.8513 105.932 28.3394 105.66C27.8508 105.39 27.3614 105.226 26.8713 105.167C26.2411 105.092 25.7213 105.183 25.312 105.439C24.9287 105.675 24.7136 105.989 24.6667 106.383C24.6197 106.776 24.7725 107.182 25.1251 107.599C25.4777 108.017 26.0864 108.371 26.9512 108.662C28.2484 109.099 29.2662 109.596 30.0045 110.153C30.7456 110.687 31.2958 111.234 31.6551 111.793C32.0406 112.332 32.2729 112.865 32.3522 113.39C32.4342 113.893 32.4545 114.318 32.4131 114.665C32.275 115.822 31.907 116.822 31.3091 117.666C30.714 118.487 29.9954 119.152 29.1534 119.662C28.3114 120.171 27.3823 120.518 26.3661 120.702C25.3705 120.912 24.3825 120.958 23.4023 120.841C22.3753 120.718 21.4205 120.487 20.5379 120.147C19.6525 119.83 18.8598 119.43 18.1599 118.948C17.4806 118.491 16.9043 117.965 16.431 117.368C15.981 116.775 15.6781 116.14 15.522 115.465C15.8724 115.107 16.2578 114.755 16.6782 114.406C17.1247 114.037 17.5801 113.692 18.0444 113.372C18.5115 113.029 18.9641 112.707 19.4023 112.408C19.8639 112.111 20.2746 111.843 20.6345 111.604C21.3354 112.674 22.0358 113.45 22.7357 113.932C23.4617 114.394 24.1281 114.662 24.735 114.734C25.0384 114.77 25.3384 114.736 25.6351 114.63C25.9345 114.502 26.116 114.171 26.1795 113.639C26.2126 113.361 26.1805 113.135 26.0832 112.959C25.9886 112.76 25.8095 112.574 25.546 112.402C25.2825 112.23 24.9373 112.048 24.5104 111.856C24.0835 111.664 23.5558 111.425 22.9271 111.139C22.1406 110.787 21.4152 110.418 20.7509 110.034C20.1127 109.629 19.5748 109.178 19.1372 108.68C18.6995 108.182 18.3752 107.627 18.1642 107.015C17.9559 106.38 17.9015 105.646 18.0009 104.813C18.1612 103.471 18.5327 102.341 19.1155 101.425C19.6983 100.509 20.4238 99.7862 21.2919 99.2562C22.16 98.7262 23.1242 98.3837 24.1843 98.2286C25.2705 98.0532 26.3971 98.0351 27.5641 98.1744C29.1978 98.3695 30.7985 98.8422 32.366 99.5926C33.9362 100.32 35.2702 101.242 36.3678 102.358C36.1176 102.868 35.7946 103.393 35.3987 103.933C35.0057 104.449 34.579 104.949 34.1187 105.434C33.6817 105.922 33.2242 106.384 32.7461 106.819C32.294 107.235 31.8853 107.585 31.5199 107.87Z" fill="#4D1D0C"></path><path d="M45.0785 117.303C45.7086 117.379 46.2689 117.246 46.7594 116.906C47.2759 116.545 47.7128 116.057 48.0703 115.443C48.451 114.831 48.7584 114.14 48.9924 113.37C49.2263 112.6 49.3875 111.845 49.4759 111.105C49.5781 110.249 49.5092 109.536 49.2694 108.968C49.0528 108.402 48.5361 108.071 47.7192 107.973C47.1357 107.903 46.5871 108.037 46.0733 108.375C45.5596 108.713 45.0917 109.161 44.6698 109.721C44.2712 110.284 43.933 110.936 43.6551 111.677C43.4034 112.398 43.236 113.106 43.1532 113.8C43.0261 114.864 43.1059 115.683 43.3924 116.257C43.7051 116.811 44.2671 117.16 45.0785 117.303ZM48.8524 101.455C49.9727 101.589 51.0634 101.872 52.1245 102.303C53.2116 102.715 54.147 103.308 54.9304 104.082C55.74 104.835 56.3483 105.788 56.7553 106.94C57.1622 108.091 57.2704 109.465 57.0798 111.062C56.881 112.728 56.5174 114.187 55.9893 115.438C55.464 116.666 54.8296 117.716 54.0861 118.59C53.3688 119.443 52.5761 120.135 51.7079 120.665C50.8398 121.195 49.9635 121.595 49.0791 121.864C48.1919 122.158 47.3185 122.335 46.4589 122.397C45.6227 122.461 44.8778 122.454 44.2243 122.376C42.8706 122.215 41.6426 121.892 40.5404 121.408C39.4588 120.951 38.551 120.326 37.8169 119.534C37.0829 118.743 36.5474 117.775 36.2104 116.632C35.8968 115.491 35.8298 114.169 36.0093 112.665C36.2635 110.536 36.8112 108.724 37.6525 107.229C38.4939 105.734 39.5019 104.528 40.6765 103.612C41.8744 102.699 43.1806 102.069 44.5951 101.721C46.0096 101.374 47.4287 101.285 48.8524 101.455Z" fill="#4D1D0C"></path><path d="M62.9434 103.947C63.3952 103.93 64.0178 103.97 64.8114 104.064C65.675 104.167 66.6017 104.337 67.5915 104.572C68.6074 104.787 69.5127 105.036 70.3075 105.319C69.9458 106.168 69.54 107.187 69.0902 108.377C68.6637 109.57 68.2317 110.809 67.7942 112.095C67.3828 113.36 66.9858 114.603 66.6032 115.825C66.244 117.049 65.9391 118.116 65.6886 119.025C66.647 118.928 67.8286 118.846 69.2333 118.779C70.6407 118.689 72.298 118.687 74.2051 118.774C74.1747 119.029 74.136 119.352 74.0891 119.746C74.0682 120.119 74.0302 120.537 73.9749 120.999C73.8948 121.67 73.7872 122.373 73.6521 123.108C73.5171 123.843 73.3594 124.47 73.1792 124.988C72.7041 125.002 71.997 124.976 71.0579 124.911C70.116 124.869 69.0705 124.803 67.9213 124.712C66.7955 124.625 65.6127 124.519 64.3729 124.394C63.1331 124.27 61.9764 124.143 60.9028 124.015C60.2959 123.943 59.7372 123.864 59.2264 123.78C58.713 123.719 58.2475 123.651 57.8302 123.578C57.9941 122.8 58.1966 121.897 58.4376 120.87C58.6786 119.842 58.9396 118.747 59.2205 117.584C59.5275 116.4 59.8373 115.193 60.1498 113.963C60.4885 112.713 60.8113 111.496 61.1183 110.312C61.4514 109.108 61.766 107.96 62.062 106.869C62.3813 105.781 62.6751 104.807 62.9434 103.947Z" fill="#4D1D0C"></path><path d="M88.305 106.271C88.6167 106.237 89.0437 106.23 89.5861 106.248C90.1517 106.268 90.808 106.323 91.5549 106.412C92.3251 106.504 93.1845 106.642 94.1332 106.826C94.1948 109.086 94.2915 111.151 94.4234 113.021C94.5786 114.893 94.7504 116.627 94.9387 118.222C95.1504 119.819 95.3862 121.314 95.6461 122.707C95.9321 124.078 96.2498 125.384 96.599 126.622C95.6802 126.982 94.5685 127.272 93.264 127.491C91.98 127.737 90.6638 127.955 89.3153 128.146C89.0877 127.673 88.8678 127.037 88.6556 126.237C88.4433 125.437 88.2963 124.587 88.2145 123.685C87.5705 123.726 86.8112 123.741 85.9366 123.73C85.0853 123.722 84.1201 123.677 83.041 123.596C82.7741 124.244 82.5286 124.813 82.3045 125.303C82.1064 125.772 81.9145 126.289 81.7288 126.854C80.544 126.665 79.443 126.369 78.4259 125.966C77.4321 125.566 76.4088 125.115 75.356 124.614C76.038 123.264 76.8765 121.792 77.8718 120.197C78.867 118.603 79.9349 116.994 81.0757 115.37C82.2426 113.726 83.4403 112.12 84.6689 110.554C85.9209 108.99 87.1329 107.562 88.305 106.271ZM88.4566 113.329C88.0552 113.915 87.5865 114.669 87.0504 115.59C86.5376 116.515 85.9746 117.562 85.3614 118.733C85.4314 118.741 85.5234 118.764 85.6373 118.801C85.754 118.815 85.8941 118.832 86.0574 118.851C86.3842 118.89 86.746 118.933 87.1427 118.981C87.5423 119.005 87.8938 119.035 88.1972 119.071C88.1731 118.083 88.1786 117.145 88.2136 116.257C88.2513 115.346 88.3323 114.37 88.4566 113.329Z" fill="#4D1D0C"></path><path d="M98.4652 128.499C98.5561 128.135 98.7151 127.497 98.9423 126.585C99.1723 125.65 99.4305 124.578 99.7169 123.369C100.027 122.162 100.358 120.875 100.71 119.509C101.063 118.143 101.41 116.823 101.751 115.55C102.119 114.256 102.448 113.087 102.738 112.042C103.031 110.974 103.285 110.136 103.5 109.528C104.648 109.43 105.816 109.359 107.005 109.313C108.194 109.267 109.514 109.319 110.964 109.468C111.092 109.977 111.229 110.615 111.374 111.383C111.519 112.151 111.669 112.979 111.824 113.866C111.978 114.753 112.117 115.673 112.24 116.626C112.389 117.559 112.508 118.442 112.598 119.274C112.688 120.106 112.753 120.853 112.792 121.515C112.858 122.156 112.883 122.64 112.868 122.967C113.07 121.865 113.251 120.842 113.411 119.899C113.574 118.933 113.76 117.969 113.969 117.009C114.179 116.048 114.427 115.057 114.715 114.035C115.003 113.013 115.35 111.893 115.755 110.674L117.156 110.841C118.136 110.958 119.101 111.109 120.049 111.292C121.001 111.453 121.783 111.64 122.397 111.854C121.853 113.432 121.333 114.919 120.835 116.314C120.36 117.713 119.895 119.124 119.441 120.548C118.987 121.973 118.548 123.469 118.124 125.038C117.7 126.607 117.267 128.35 116.825 130.269C115.942 130.328 115.136 130.337 114.407 130.297C113.699 130.283 113.041 130.24 112.434 130.167C111.944 130.109 111.479 130.041 111.038 129.965C110.621 129.892 110.213 129.832 109.817 129.784C109.533 128.389 109.264 127.172 109.01 126.132C108.781 125.073 108.561 124.143 108.349 123.343C108.139 122.52 107.93 121.791 107.722 121.156C107.516 120.498 107.297 119.861 107.062 119.247C106.873 120.233 106.693 121.15 106.521 121.998C106.348 122.846 106.192 123.66 106.051 124.442C105.911 125.223 105.773 125.981 105.638 126.716C105.526 127.453 105.427 128.181 105.342 128.898C104.838 128.955 104.28 128.971 103.667 128.945C103.055 128.918 102.434 128.868 101.804 128.792C101.194 128.743 100.597 128.684 100.014 128.614C99.4277 128.567 98.9114 128.529 98.4652 128.499Z" fill="#4D1D0C"></path><path d="M133.159 111.625C133.47 111.592 133.897 111.584 134.44 111.602C135.005 111.623 135.662 111.678 136.408 111.767C137.179 111.859 138.038 111.997 138.987 112.18C139.048 114.441 139.145 116.506 139.277 118.375C139.432 120.248 139.604 121.982 139.792 123.576C140.004 125.174 140.24 126.669 140.5 128.061C140.786 129.433 141.103 130.738 141.453 131.977C140.534 132.337 139.422 132.626 138.117 132.846C136.834 133.092 135.517 133.31 134.169 133.501C133.941 133.028 133.721 132.392 133.509 131.592C133.297 130.792 133.15 129.941 133.068 129.04C132.424 129.08 131.665 129.095 130.79 129.085C129.939 129.077 128.974 129.032 127.894 128.95C127.628 129.599 127.382 130.168 127.158 130.658C126.96 131.127 126.768 131.644 126.582 132.208C125.397 132.02 124.297 131.724 123.279 131.321C122.286 130.921 121.262 130.47 120.209 129.969C120.891 128.619 121.73 127.146 122.725 125.552C123.72 123.958 124.788 122.348 125.929 120.725C127.096 119.08 128.294 117.475 129.522 115.908C130.774 114.345 131.986 112.917 133.159 111.625ZM133.31 118.684C132.909 119.27 132.44 120.023 131.904 120.945C131.391 121.869 130.828 122.917 130.215 124.088C130.285 124.096 130.377 124.119 130.491 124.156C130.608 124.17 130.748 124.186 130.911 124.206C131.238 124.245 131.599 124.288 131.996 124.335C132.396 124.36 132.747 124.39 133.051 124.426C133.027 123.438 133.032 122.499 133.067 121.612C133.105 120.701 133.186 119.725 133.31 118.684Z" fill="#4D1D0C"></path></g><g clip-path="url(#clip1_14_30638)"><path d="M54.5521 301.645C54.8614 299.351 55.0676 297.044 55.1707 294.73C55.2094 293.854 55.377 291.437 56.421 293.216C57.6196 295.271 58.4445 297.533 59.1341 299.808C59.2952 300.343 60.5261 303.804 60.1974 304.049C60.2167 304.036 60.2296 304.016 60.249 304.004C60.2618 303.958 60.2812 303.913 60.2941 303.868C60.4938 303.166 60.6614 302.309 60.7903 301.535C60.9192 300.749 60.7581 300.227 61.5894 300.388C62.3305 300.536 63.2327 301.51 63.7676 302.025C64.5023 302.734 65.1854 303.501 65.8041 304.319C66.0296 304.616 67.3443 306.214 67.151 306.601C67.9501 305.022 68.5623 303.366 69.181 301.709C69.3936 301.142 69.5483 300.072 70.1541 299.918C70.5665 299.815 71.4043 300.304 71.6556 300.62C73.067 302.438 73.937 305.228 74.6781 307.387C74.3752 306.498 75.4321 304.216 75.7414 303.353C76.5212 301.181 77.8165 299.106 79.4534 297.417C80.2396 296.612 81.1225 295.8 82.0763 295.2C82.3856 295.007 83.6358 294.292 83.2363 295.226C81.8314 298.513 81.5478 302.032 81.5865 305.55C81.5801 304.7 82.811 303.726 83.3394 303.172C84.3383 302.135 85.2534 301.033 86.1814 299.931C86.4778 299.576 87.2963 298.958 87.5992 299.589C87.8118 300.034 87.2834 300.93 87.1287 301.361C86.7872 302.302 86.4714 303.237 86.2781 304.223C85.9043 306.111 85.8592 308.07 86.1685 309.978C86.6067 312.691 84.7958 313.206 82.5016 313.593C80.723 313.896 78.9314 314.147 77.1334 314.34C73.1572 314.772 69.1487 315.017 65.1532 314.714C61.5314 314.437 57.5616 313.999 54.9323 311.208C52.6638 308.805 53.8303 306.298 54.2878 303.436C54.3845 302.837 54.4747 302.231 54.5521 301.632V301.645Z" fill="#379C43"></path><g style="mix-blend-mode:multiply"><path d="M81.1935 308.714C81.2579 307.47 81.3933 306.233 81.5801 304.996C81.5801 305.183 81.5801 305.369 81.5801 305.556C81.5737 304.706 82.8046 303.733 83.333 303.178C84.3319 302.141 85.247 301.039 86.175 299.937C86.3684 299.705 86.7873 299.363 87.1353 299.331C84.957 301.715 83.565 304.693 82.7144 307.793C82.1859 309.7 81.8766 311.704 81.9024 313.689C81.6381 313.734 81.3739 313.767 81.1097 313.812C81.013 312.13 81.0968 310.435 81.187 308.708L81.1935 308.714Z" fill="#379C43"></path></g><g style="mix-blend-mode:multiply"><path d="M78.0808 305.505C78.809 303.25 79.7692 301.091 80.8132 298.97C81.5028 297.572 82.3276 296.161 83.3008 294.891C83.3136 294.962 83.3008 295.072 83.2299 295.233C82.8561 296.109 82.5661 296.998 82.3341 297.901C80.9936 301.439 80.0463 305.06 79.7563 308.856C79.6274 310.525 79.505 312.207 79.6145 313.883C79.6145 313.934 79.621 313.986 79.6274 314.038C78.7961 314.154 77.9648 314.257 77.1334 314.347C76.9659 314.366 76.7919 314.379 76.6243 314.398C76.7016 311.382 77.1528 308.379 78.0808 305.505Z" fill="#379C43"></path></g><g style="mix-blend-mode:multiply"><path d="M66.6678 311.563C66.9514 308.598 67.5765 305.692 68.9169 303.017C69.0007 302.843 68.9427 302.701 68.8331 302.611C68.9491 302.315 69.0587 302.012 69.1747 301.715C69.2649 301.483 69.3423 301.168 69.4454 300.865C69.4776 301.019 69.5034 301.181 69.5291 301.329C69.6774 302.102 69.7805 302.882 69.8514 303.668C69.9996 305.273 69.9867 306.897 69.8385 308.501C69.6387 310.66 69.2456 312.781 68.6591 314.856C67.9374 314.856 67.2156 314.83 66.4938 314.798C66.526 313.715 66.5711 312.639 66.6743 311.563H66.6678Z" fill="#379C43"></path></g><g style="mix-blend-mode:multiply"><path d="M56.3823 302.502C56.4596 300.15 56.4145 297.784 56.2792 295.432C56.2534 294.942 56.247 294.44 56.2405 293.931C59.2114 299.776 59.2372 306.878 58.0321 313.348C57.0138 312.916 56.073 312.323 55.2416 311.53C55.9054 308.572 56.2727 305.544 56.3758 302.502H56.3823Z" fill="#379C43"></path></g><g style="mix-blend-mode:multiply"><path d="M54.9065 302.483C54.8228 305.112 54.6165 307.722 54.2234 310.3C52.9474 308.179 53.8819 305.95 54.2814 303.456C54.3781 302.856 54.4683 302.251 54.5457 301.651C54.7132 300.433 54.8421 299.209 54.9517 297.984C54.9517 299.486 54.9517 300.981 54.9001 302.483H54.9065Z" fill="#379C43"></path></g></g><defs><clipPath id="clip0_14_30638"><rect width="174" height="309.978" fill="white" transform="matrix(-1 0 0 1 174 0)"></rect></clipPath><clipPath id="clip1_14_30638"><rect width="34.0653" height="22.2849" fill="white" transform="matrix(-1 0 0 1 87.6445 292.578)"></rect></clipPath></defs></svg> 