<?xml version="1.0" encoding="UTF-8"?> <svg xmlns="http://www.w3.org/2000/svg" width="510" height="615" viewBox="0 0 510 615" fill="none"><path d="M28.7748 130.307L24.5957 134.34L25.7913 140.023C28.4577 152.699 32.7501 166.191 38.5884 180.474L38.6645 180.661L38.7476 180.844C45.1888 195.026 52.5834 209.18 60.9241 223.307C69.3114 237.513 78.3642 250.784 88.0881 263.111L88.1908 263.242L88.2977 263.369C98.7571 275.8 109.658 286.405 121.025 295.105L127.932 300.391L134.411 294.589L170.094 262.636C182.373 252.195 194.29 243.027 205.846 235.114L205.892 235.082L205.938 235.05C217.961 226.628 229.524 220.118 240.627 215.43C252.008 210.886 263.214 208.678 274.304 208.678C277.439 208.678 281.83 210.199 287.592 215.966C292.611 220.989 294.878 226.519 294.878 233.048C294.878 245.541 286.905 261.136 266.285 279.953L266.227 280.005L266.17 280.059C246.016 299.007 221.121 318.104 191.389 337.322L191.346 337.349L191.304 337.377C162.065 356.678 131.571 375.054 99.8198 392.503C67.8154 409.461 40.8107 423.917 18.8123 435.869L14.0188 438.473L13.394 443.893C11.4669 460.609 10.5 477.032 10.5 493.16C10.5 507.14 10.8175 521.737 11.4507 536.948L11.4511 536.958L11.4515 536.967C12.0837 551.519 13.0304 568.252 14.2898 587.158L14.8124 595.003L22.487 596.71C29.0636 598.173 38.9233 599.143 51.5497 599.775C64.1284 600.404 79.1893 601.032 96.7241 601.66C115.124 602.925 135.35 603.555 157.388 603.558C179.427 604.186 202.705 604.5 227.221 604.5C259.968 604.5 293.337 603.87 327.326 602.612C361.326 601.98 393.465 600.719 423.74 598.825L430.968 598.373L433.113 591.455C438.984 572.522 444.102 548.065 448.537 518.266L448.539 518.25L448.541 518.234C453.011 487.56 455.242 456.267 455.242 424.362V402.686V390.355L443.069 392.32C423.678 395.45 403.024 398.582 381.107 401.716L381.086 401.719L381.065 401.722C359.859 404.843 338.969 407.652 318.395 410.15C298.894 411.924 280.224 413.699 262.383 415.475C281.488 405.504 300.294 395.533 318.799 385.56C352.475 367.752 382.458 348.928 408.704 329.067L408.768 329.018L408.832 328.969C435.289 308.302 456.803 285.852 473.202 261.567C490.733 235.914 499.5 207.146 499.5 175.559C499.5 145.554 494.302 119.64 483.328 98.3001C473.241 77.482 459.351 60.46 441.629 47.4714C424.12 34.0153 403.998 24.647 381.414 19.3041C359.779 13.4168 336.931 10.5 312.911 10.5H312.773L312.635 10.5036C287.99 11.1528 262.785 14.7163 237.035 21.1506C211.314 26.951 185.945 35.3128 160.934 46.2196C136.605 56.4757 112.93 68.6466 89.9118 82.7252L89.8553 82.7597L89.7992 82.795C67.2542 96.9779 46.9031 112.811 28.7748 130.307Z" stroke="white" stroke-width="21"></path></svg> 