<?xml version="1.0" encoding="UTF-8"?> <svg xmlns="http://www.w3.org/2000/svg" width="144" height="143" viewBox="0 0 144 143" fill="none"><rect x="3.37722" y="31.891" width="112.37" height="112.37" transform="rotate(-15 3.37722 31.891)" fill="#83FBF0" stroke="black" stroke-width="4"></rect><path fill-rule="evenodd" clip-rule="evenodd" d="M74.6528 60.7484C76.2939 59.3119 78.3323 57.2983 80.2379 54.7774C81.0244 55.6817 81.3233 56.5747 81.2581 57.3779C81.2111 57.9442 80.9822 58.4872 80.6186 58.9677C80.2247 59.4874 79.6789 59.9351 79.0328 60.2712C77.8074 60.9099 76.2407 61.1485 74.6528 60.7484ZM77.5338 70.1897L80.4182 70.9453C76.0661 75.1398 76.083 80.7584 75.8023 86.3105C72.7833 81.6425 69.9884 76.7683 64.1224 75.3118L66.2425 73.2152C66.4604 73.0601 66.6235 72.8411 66.7084 72.5896C66.7933 72.3381 66.7956 72.0671 66.7152 71.8153C65.2036 67.091 65.9461 64.6238 67.3566 62.8217C67.8627 62.1759 68.4903 61.7516 69.1727 61.5687C69.8551 61.3859 70.6109 61.4395 71.3722 61.7457C73.4948 62.6011 75.3715 64.3666 76.4245 69.2137C76.4807 69.472 76.6183 69.7055 76.8176 69.8809C77.0169 70.0562 77.2676 70.1643 77.5338 70.1897ZM63.515 40.4539C66.428 39.7555 69.476 39.5326 72.2813 39.9361C74.2242 40.2165 76.1147 40.7679 77.9033 41.5538C78.711 41.9086 79.3965 42.2767 80.1584 42.7077C81.7999 42.3273 83.6994 39.9073 84.356 37.9432C84.1029 44.5961 77.3797 54.1739 72.1231 58.558C72.1204 58.5577 72.1183 58.5567 72.1161 58.556C70.8219 58.0332 69.502 57.952 68.2906 58.2766C67.0792 58.6012 65.977 59.3314 65.1175 60.4313C65.1159 60.4328 65.1147 60.435 65.1125 60.4365C58.3679 59.2681 47.7567 54.335 44.2111 48.7C45.7616 50.0727 48.6166 51.2188 50.2284 50.7274C50.6729 49.9733 51.0824 49.3116 51.6044 48.6006C52.7604 47.0257 54.1219 45.6028 55.6643 44.3886C57.8922 42.6365 60.6434 41.3055 63.515 40.4539ZM64.0167 63.5983C61.8774 63.1747 59.1051 62.4503 56.1946 61.2198C55.9656 62.3962 56.1533 63.319 56.6111 63.982C56.9351 64.4489 57.4049 64.8047 57.9598 65.0392C58.561 65.2922 59.2576 65.407 59.9851 65.375C61.3657 65.3155 62.8416 64.7388 64.0167 63.5983Z" fill="black"></path><path fill-rule="evenodd" clip-rule="evenodd" d="M82.2594 51.7723C83.2314 50.097 84.008 48.3229 84.5979 46.7674L85.3124 47.5255C87.6605 50.1458 89.2676 52.9515 90.1781 56.3496L91.6197 61.7429L92.3976 64.5305C94.3476 71.3633 97.713 77.9034 102.825 83.344L94.1714 79.5803L91.2899 89.0132L84.6683 85.5092L79.8309 101.345L67.7234 90.0497L63.7412 96.3951L56.5293 89.6667L50.9171 97.2528C52.6235 89.9853 52.268 82.6387 50.5406 75.7463L49.8204 72.9432L48.3722 67.5517C47.4617 64.1533 47.4503 60.92 48.1743 57.4769L48.4137 56.4632C49.7024 57.5153 51.2617 58.6632 52.9414 59.6282L52.7547 60.5877C52.392 62.4513 52.6194 64.3654 53.7156 65.9501C54.422 66.9706 55.4186 67.7411 56.567 68.2254C57.6821 68.6958 58.9038 68.8869 60.1153 68.8346C60.9044 68.8004 61.6815 68.6652 62.4292 68.44C62.5169 69.471 62.7135 70.5121 62.9872 71.5532L57.2864 77.1903L63.2478 78.6707C63.7243 78.7891 64.1898 78.9462 64.6396 79.1406C69.9362 81.7857 75.5157 92.3143 78.7525 97.32C79.053 91.3665 78.6204 79.4587 81.8851 74.5197C82.1774 74.1264 82.502 73.7576 82.8555 73.4169L87.278 69.1541L79.5222 67.1226C79.2387 66.0842 78.8884 65.0843 78.4489 64.1476C79.209 63.9687 79.9496 63.6973 80.6501 63.3323C81.7254 62.7719 82.6881 61.9955 83.4184 61.0306C84.1706 60.037 84.6486 58.8714 84.7499 57.6344C84.9071 55.714 84.1468 53.9428 82.901 52.51L82.2597 51.7724L82.2594 51.7723Z" fill="black"></path></svg> 