<?xml version="1.0" encoding="UTF-8"?> <svg xmlns="http://www.w3.org/2000/svg" width="97" height="60" viewBox="0 0 97 60" fill="none"><rect x="1.63002" y="9.76286" width="89.5618" height="48.6217" transform="rotate(-5.21024 1.63002 9.76286)" fill="#F92F61" stroke="black" stroke-width="3"></rect><path d="M22.9781 40.6661C22.9656 40.3124 22.9441 39.7527 22.9137 38.9868C22.901 38.1996 22.8874 37.2942 22.873 36.2707C22.878 35.2454 22.8768 34.1516 22.8694 32.9895C22.8797 31.806 22.8928 30.6518 22.9084 29.527C22.9419 28.3808 22.9825 27.3128 23.0302 26.323C23.0957 25.3119 23.1665 24.4678 23.2427 23.7907C24.2982 23.4777 25.4825 23.1726 26.7956 22.8755C28.1265 22.5571 29.437 22.339 30.727 22.2214C31.5675 22.1447 32.3547 22.1321 33.0886 22.1834C33.8421 22.233 34.4961 22.3803 35.0506 22.6254C35.6228 22.8491 36.0867 23.1813 36.4422 23.6219C36.7977 24.0625 37.0085 24.6444 37.0744 25.3676C37.1422 26.1104 37.0873 26.8052 36.9097 27.4521C36.75 28.0776 36.496 28.6428 36.1479 29.1475C35.8175 29.631 35.4115 30.0425 34.9301 30.382C34.4486 30.7215 33.928 30.9562 33.3683 31.0861C33.8605 31.0806 34.3199 31.1472 34.7464 31.2856C35.1925 31.4224 35.5852 31.623 35.9247 31.8877C36.2837 32.1506 36.569 32.4695 36.7806 32.8444C37.0099 33.198 37.1451 33.5995 37.1861 34.0491C37.2092 34.3032 37.2004 34.6391 37.1597 35.0567C37.1367 35.4529 37.0382 35.8857 36.8642 36.3548C36.7079 36.8027 36.4548 37.2692 36.1049 37.7544C35.7532 38.2201 35.2708 38.6583 34.6579 39.0689C34.0645 39.4778 33.3085 39.8325 32.3898 40.1331C31.473 40.4532 30.3695 40.672 29.0795 40.7897C28.239 40.8663 27.3149 40.8915 26.3074 40.8651C25.3016 40.8582 24.1918 40.7919 22.9781 40.6661ZM28.7613 27.5742C28.6513 28.0967 28.5715 28.6263 28.5219 29.1629C28.4705 29.6801 28.4191 30.1972 28.3677 30.7143C28.5276 30.7391 28.676 30.7453 28.8128 30.7328C28.9692 30.7186 29.1256 30.7043 29.282 30.6901C30.142 30.6116 30.787 30.336 31.2169 29.8632C31.6468 29.3904 31.8279 28.7826 31.7601 28.0399C31.7281 27.688 31.569 27.4562 31.2828 27.3443C31.0163 27.2307 30.6875 27.1917 30.2966 27.2273C30.0425 27.2505 29.7804 27.2941 29.5103 27.3581C29.2402 27.4222 28.9905 27.4942 28.7613 27.5742ZM28.4091 36.032C28.649 36.0692 28.9085 36.1047 29.1875 36.1384C29.4665 36.172 29.7623 36.1746 30.0751 36.1461C30.2706 36.1283 30.4731 36.0803 30.6828 36.002C30.912 35.922 31.1083 35.8055 31.2718 35.6527C31.4548 35.498 31.5942 35.2981 31.6901 35.0528C31.8055 34.8058 31.8463 34.4966 31.8124 34.1252C31.7768 33.7343 31.6159 33.4829 31.3298 33.371C31.0614 33.2378 30.722 33.1899 30.3115 33.2273C29.9988 33.2559 29.6701 33.3252 29.3254 33.4355C28.9984 33.5244 28.6644 33.6436 28.3232 33.793C28.3216 34.207 28.3279 34.6006 28.3422 34.9738C28.3565 35.3469 28.3788 35.6997 28.4091 36.032Z" fill="white"></path><path d="M40.3925 22.227C40.627 22.2056 40.8803 22.1726 41.1521 22.1281C41.3867 22.1067 41.6603 22.0818 41.9731 22.0533C42.3036 22.0034 42.6545 21.9616 43.0259 21.9277C43.5537 21.8796 44.1019 21.8395 44.6705 21.8073C45.2391 21.7752 45.7793 21.7555 46.2911 21.7482C46.0166 25.0055 45.8306 27.5058 45.7334 29.2491C45.6343 30.9728 45.6044 32.0497 45.6436 32.4797C45.7007 33.1052 45.8803 33.5618 46.1824 33.8496C46.5024 34.1161 46.8578 34.2315 47.2487 34.1958C47.6397 34.1602 48.0057 33.9593 48.3468 33.5931C48.7056 33.2057 48.9222 32.6636 48.9967 31.967C49.1632 30.1189 49.1983 28.3419 49.1019 26.636C49.025 24.9283 48.9419 23.369 48.8527 21.9581C49.0624 21.8799 49.36 21.7936 49.7456 21.6993C50.1507 21.6032 50.5958 21.5134 51.0809 21.4297C51.5838 21.3248 52.108 21.2375 52.6535 21.1681C53.2168 21.0773 53.7525 21.0088 54.2607 20.9624L54.9937 20.8956C55.0549 23.7281 55.0617 25.9644 55.0142 27.6046C54.9844 29.2235 54.9377 30.4398 54.8739 31.2537C54.7871 32.2471 54.5679 33.1934 54.2163 34.0927C53.8843 34.9901 53.4056 35.7926 52.7803 36.5C52.1532 37.1879 51.3777 37.7612 50.4538 38.2199C49.5494 38.6768 48.4815 38.9614 47.2501 39.0737C46.0186 39.186 44.9666 39.1045 44.094 38.8293C43.2428 38.5719 42.5363 38.1732 41.9746 37.6331C41.413 37.093 40.9801 36.4526 40.676 35.7116C40.3897 34.9494 40.2074 34.1382 40.1289 33.2782C40.0434 32.34 39.9907 31.3297 39.9709 30.2476C39.9706 29.1636 39.9934 28.1169 40.0393 27.1076C40.0834 26.0787 40.1356 25.1378 40.1958 24.2848C40.2738 23.4105 40.3393 22.7245 40.3925 22.227Z" fill="white"></path><path d="M57.0767 21.2969C57.3592 21.1529 57.7394 21 58.2174 20.8381C58.6936 20.6568 59.2195 20.4807 59.7952 20.3099C60.3709 20.1392 60.9777 19.9853 61.6156 19.8483C62.2731 19.7095 62.9225 19.5912 63.564 19.4933C63.5463 19.7314 63.549 19.9775 63.5722 20.2316C63.5936 20.4662 63.6159 20.7105 63.639 20.9646C63.6943 21.5706 63.7806 22.1934 63.8981 22.8331C64.0138 23.4532 64.1481 24.0618 64.3011 24.6588C64.4523 25.2363 64.6292 25.772 64.8319 26.266C65.0347 26.7599 65.2596 27.173 65.5067 27.5052C65.9809 26.6539 66.4781 25.5147 66.9984 24.0877C67.5169 22.641 67.8869 20.9715 68.1086 19.0789C68.9686 19.0005 69.9557 19.0189 71.0699 19.1341C72.1824 19.2297 73.2815 19.504 74.3674 19.9568C73.9715 21.4514 73.4885 22.7469 72.9184 23.8435C72.3483 24.9401 71.7568 25.9105 71.144 26.7547C70.5294 27.5794 69.9156 28.3055 69.3027 28.9329C68.7076 29.539 68.1871 30.0989 67.7412 30.6126C67.7822 31.0622 67.8099 31.5819 67.8242 32.1719C67.8368 32.7423 67.8388 33.3038 67.83 33.8565C67.8213 34.4091 67.8072 34.9031 67.7878 35.3385C67.7879 35.7721 67.7853 36.068 67.78 36.2261C67.1208 36.3454 66.49 36.4522 65.8876 36.5465C65.2852 36.6408 64.7104 36.713 64.1631 36.7629C63.8113 36.7949 63.4781 36.8155 63.1635 36.8244C62.849 36.8334 62.5531 36.8308 62.2759 36.8167C62.3344 36.161 62.3716 35.5959 62.3874 35.1214C62.4015 34.6274 62.4192 34.1725 62.4404 33.7567C62.4598 33.3213 62.481 32.9055 62.504 32.5092C62.527 32.1129 62.566 31.6758 62.6209 31.1977C62.1286 30.7696 61.622 30.2935 61.1012 29.7694C60.5786 29.2258 60.0667 28.5827 59.5654 27.84C59.0623 27.0778 58.5955 26.1744 58.1652 25.1296C57.7331 24.0653 57.3703 22.7877 57.0767 21.2969Z" fill="white"></path></svg> 