<?xml version="1.0" encoding="UTF-8"?> <svg xmlns="http://www.w3.org/2000/svg" width="143" height="143" viewBox="0 0 143 143" fill="none"><rect x="31.9967" y="2.44949" width="112.37" height="112.37" transform="rotate(15 31.9967 2.44949)" fill="#83FBF0" stroke="black" stroke-width="4"></rect><path d="M44.885 61.1323L84.6103 55.581C88.5538 54.9506 101.847 53.1139 101.847 53.1139C101.847 53.1139 107.949 52.3872 106.056 57.6159C105.312 59.7785 102.021 67.1631 98.5605 75.1772L88.1109 98.8639C88.1109 98.8639 86.8346 102.402 84.0629 102.334C81.2912 102.266 77.7631 98.2844 77.1662 97.4496C76.6803 96.8133 67.7068 86.8172 64.6537 82.2876C63.8349 81.056 63.1161 78.8389 66.1564 77.2917C73.0605 73.5744 81.3737 68.885 86.4514 65.8592C88.7949 64.4627 91.8133 60.5478 82.7234 63.8481L57.127 73.0165C57.127 73.0165 54.2554 73.9341 50.0415 71.2867C45.8275 68.6392 40.9745 65.3144 40.9745 65.3144C40.9745 65.3144 37.9323 61.9686 44.885 61.1323Z" fill="black"></path></svg> 