<?xml version="1.0" encoding="UTF-8"?> <svg xmlns="http://www.w3.org/2000/svg" width="530" height="425" viewBox="0 0 530 425" fill="none"><path d="M483.823 182.466C541.578 173.872 547.102 198.52 489.346 207.114C530.638 211.258 522.112 267.578 480.82 263.477C524.525 308.978 481.517 336.287 437.811 290.786C482.75 317.921 436.149 368.962 391.21 341.827C429.767 382.006 402.15 399.543 363.593 359.365C392.068 414.288 346.218 430.037 317.742 375.113C327.717 437.497 287.229 441.772 277.254 379.388C282.563 419.96 238.59 423.799 233.281 383.227C238.268 437.366 200.944 439.678 195.903 385.496C202.017 429.47 155.147 433.789 148.98 389.815C134.287 432.524 104.792 425.805 119.486 383.097C81.5186 407.221 59.1564 383.882 97.1238 359.801C59.1564 383.925 27.9996 351.425 65.967 327.344C-4.39067 342.787 -27.879 271.94 42.4251 256.497C-8.94889 253.313 -1.28034 172.039 50.0936 175.224C8.8014 148.438 47.0905 109.351 88.3828 136.18C50.6299 103.461 102.915 63.5444 140.668 96.263C95.8904 49.6281 184.964 -6.90977 229.688 39.6816C221.912 -6.38628 268.031 -11.534 275.806 34.5339C276.879 -12.232 348.738 -11.1414 347.666 35.6245C373.085 -3.28891 409.658 12.5033 384.239 51.4167C422.474 27.1613 474.385 81.2561 436.203 105.555C474.438 81.2997 509.563 117.901 471.381 142.2C512.352 135.482 518.68 160.915 477.709 167.677C540.72 150.707 546.78 165.583 483.769 182.597L483.823 182.466Z" fill="white"></path></svg> 