<?xml version="1.0" encoding="UTF-8"?> <svg xmlns="http://www.w3.org/2000/svg" width="110" height="105" viewBox="0 0 110 105" fill="none"><path d="M10.6434 62.3107C3.75178 67.5267 13.3918 80.2336 20.2732 75.0177C17.1248 77.8665 21.1962 82.3549 24.3446 79.5163C17.094 89.0567 28.4672 97.6749 35.7178 88.1345C29.5953 99.3555 38.415 104.151 44.5272 92.9303C42.2197 106.447 53.4186 108.363 55.7261 94.8363C63.3971 111.929 77.0367 105.811 69.3555 88.7288C81.8875 103.127 101.239 86.3104 88.7074 71.9127C102.409 80.7768 109.249 70.2116 95.5477 61.3577C111.279 67.9161 115.31 58.2835 99.5678 51.7251C117.392 44.8285 110.562 27.1925 92.7377 34.0891C104.06 23.8928 96.0194 14.9673 84.6975 25.1738C91.343 16.4224 80.8927 8.50109 74.2473 17.2525C80.1954 5.99045 65.9302 -1.53122 59.9718 9.72054C60.2282 -1.79766 45.0605 -4.26731 46.0757 8.81876C41.4813 -4.15458 26.3341 1.20486 30.9285 14.1782C25.7598 6.33886 16.4172 12.4874 21.5859 20.3267C15.4019 14.4754 2.32628 28.2993 8.51028 34.1404C2.72624 31.5272 -1.06825 39.9302 4.71579 42.5433C-1.09901 42.0822 -1.77587 50.7311 4.02868 51.1922C-1.62204 53.2724 0.295718 58.4884 5.94643 56.4082C-0.247817 61.3167 4.43889 67.2296 10.6331 62.3107H10.6434Z" fill="#FEA5F1"></path></svg> 