<svg width="2082" height="38" viewBox="0 0 2082 38" fill="none" xmlns="http://www.w3.org/2000/svg">
<path d="M0.75 33C0.783333 32.4 0.833333 31.45 0.9 30.15C1 28.8167 1.11667 27.2833 1.25 25.55C1.41667 23.8167 1.58333 21.9667 1.75 20C1.95 18 2.15 16.05 2.35 14.15C2.58333 12.2167 2.81667 10.4167 3.05 8.75C3.31667 7.05 3.56667 5.63333 3.8 4.5C5.63333 4.13333 7.68333 3.8 9.95 3.5C12.25 3.16666 14.5 3 16.7 3C18.1333 3 19.4667 3.1 20.7 3.3C21.9667 3.5 23.05 3.85 23.95 4.35C24.8833 4.81666 25.6167 5.45 26.15 6.25C26.6833 7.05 26.95 8.06667 26.95 9.3C26.95 10.5667 26.75 11.7333 26.35 12.8C25.9833 13.8333 25.4667 14.75 24.8 15.55C24.1667 16.3167 23.4167 16.95 22.55 17.45C21.6833 17.95 20.7667 18.2667 19.8 18.4C20.6333 18.4667 21.4 18.65 22.1 18.95C22.8333 19.25 23.4667 19.65 24 20.15C24.5667 20.65 25 21.2333 25.3 21.9C25.6333 22.5333 25.8 23.2333 25.8 24C25.8 24.4333 25.7333 25 25.6 25.7C25.5 26.3667 25.2667 27.0833 24.9 27.85C24.5667 28.5833 24.0667 29.3333 23.4 30.1C22.7333 30.8333 21.85 31.5 20.75 32.1C19.6833 32.7 18.35 33.1833 16.75 33.55C15.15 33.95 13.25 34.15 11.05 34.15C9.61667 34.15 8.05 34.05 6.35 33.85C4.65 33.6833 2.78333 33.4 0.75 33ZM12.55 11.75C12.2833 12.6167 12.0667 13.5 11.9 14.4C11.7333 15.2667 11.5667 16.1333 11.4 17C11.6667 17.0667 11.9167 17.1 12.15 17.1C12.4167 17.1 12.6833 17.1 12.95 17.1C14.4167 17.1 15.55 16.7333 16.35 16C17.15 15.2667 17.55 14.2667 17.55 13C17.55 12.4 17.3167 11.9833 16.85 11.75C16.4167 11.5167 15.8667 11.4 15.2 11.4C14.7667 11.4 14.3167 11.4333 13.85 11.5C13.3833 11.5667 12.95 11.65 12.55 11.75ZM10.65 26C11.05 26.1 11.4833 26.2 11.95 26.3C12.4167 26.4 12.9167 26.45 13.45 26.45C13.7833 26.45 14.1333 26.4 14.5 26.3C14.9 26.2 15.25 26.0333 15.55 25.8C15.8833 25.5667 16.15 25.25 16.35 24.85C16.5833 24.45 16.7 23.9333 16.7 23.3C16.7 22.6333 16.4667 22.1833 16 21.95C15.5667 21.6833 15 21.55 14.3 21.55C13.7667 21.55 13.2 21.6167 12.6 21.75C12.0333 21.85 11.45 22 10.85 22.2C10.7833 22.9 10.7333 23.5667 10.7 24.2C10.6667 24.8333 10.65 25.4333 10.65 26ZM42.7961 3.3C43.2294 3.2 43.8294 3.11667 44.5961 3.05C45.3961 2.98333 46.3294 2.95 47.3961 2.95C48.4961 2.95 49.7294 3 51.0961 3.1C51.5628 6.3 52.0461 9.21667 52.5461 11.85C53.0794 14.4833 53.6128 16.9167 54.1461 19.15C54.7128 21.3833 55.2961 23.4667 55.8961 25.4C56.5294 27.3 57.1961 29.1 57.8961 30.8C56.6628 31.4667 55.1461 32.0667 53.3461 32.6C51.5794 33.1667 49.7628 33.7 47.8961 34.2C47.4961 33.5667 47.0794 32.7 46.6461 31.6C46.2128 30.5 45.8628 29.3167 45.5961 28.05C44.6961 28.2167 43.6294 28.3667 42.3961 28.5C41.1961 28.6333 39.8294 28.7333 38.2961 28.8C38.0294 29.7667 37.7794 30.6167 37.5461 31.35C37.3461 32.05 37.1628 32.8167 36.9961 33.65C35.2961 33.5833 33.6961 33.35 32.1961 32.95C30.7294 32.55 29.2128 32.0833 27.6461 31.55C28.3794 29.5167 29.3128 27.2833 30.4461 24.85C31.5794 22.4167 32.8128 19.95 34.1461 17.45C35.5128 14.9167 36.9294 12.4333 38.3961 10C39.8961 7.56667 41.3628 5.33333 42.7961 3.3ZM44.1961 13.3C43.7294 14.2 43.1961 15.35 42.5961 16.75C42.0294 18.15 41.4128 19.7333 40.7461 21.5C40.8461 21.5 40.9794 21.5167 41.1461 21.55C41.3128 21.55 41.5128 21.55 41.7461 21.55C42.2128 21.55 42.7294 21.55 43.2961 21.55C43.8628 21.5167 44.3628 21.5 44.7961 21.5C44.5961 20.1 44.4461 18.7667 44.3461 17.5C44.2461 16.2 44.1961 14.8 44.1961 13.3ZM74.2395 3.3C74.6728 3.2 75.2728 3.11667 76.0395 3.05C76.8395 2.98333 77.7728 2.95 78.8395 2.95C79.9395 2.95 81.1728 3 82.5395 3.1C83.0061 6.3 83.4895 9.21667 83.9895 11.85C84.5228 14.4833 85.0561 16.9167 85.5895 19.15C86.1561 21.3833 86.7395 23.4667 87.3395 25.4C87.9728 27.3 88.6395 29.1 89.3395 30.8C88.1061 31.4667 86.5895 32.0667 84.7895 32.6C83.0228 33.1667 81.2061 33.7 79.3395 34.2C78.9395 33.5667 78.5228 32.7 78.0895 31.6C77.6561 30.5 77.3061 29.3167 77.0395 28.05C76.1395 28.2167 75.0728 28.3667 73.8395 28.5C72.6395 28.6333 71.2728 28.7333 69.7395 28.8C69.4728 29.7667 69.2228 30.6167 68.9895 31.35C68.7895 32.05 68.6061 32.8167 68.4395 33.65C66.7395 33.5833 65.1395 33.35 63.6395 32.95C62.1728 32.55 60.6561 32.0833 59.0895 31.55C59.8228 29.5167 60.7561 27.2833 61.8895 24.85C63.0228 22.4167 64.2561 19.95 65.5895 17.45C66.9561 14.9167 68.3728 12.4333 69.8395 10C71.3395 7.56667 72.8061 5.33333 74.2395 3.3ZM75.6395 13.3C75.1728 14.2 74.6395 15.35 74.0395 16.75C73.4728 18.15 72.8561 19.7333 72.1895 21.5C72.2895 21.5 72.4228 21.5167 72.5895 21.55C72.7561 21.55 72.9561 21.55 73.1895 21.55C73.6561 21.55 74.1728 21.55 74.7395 21.55C75.3061 21.5167 75.8061 21.5 76.2395 21.5C76.0395 20.1 75.8895 18.7667 75.7895 17.5C75.6895 16.2 75.6395 14.8 75.6395 13.3ZM93.1828 27.1C93.1828 26.3 93.3328 25.6167 93.6328 25.05C93.9661 24.45 94.3828 23.95 94.8828 23.55C95.4161 23.15 95.9995 22.85 96.6328 22.65C97.2995 22.45 97.9828 22.35 98.6828 22.35C100.283 22.35 101.599 22.8167 102.633 23.75C103.699 24.65 104.233 26.05 104.233 27.95C104.233 29.25 103.983 30.45 103.483 31.55C102.983 32.65 102.333 33.6167 101.533 34.45C100.766 35.3167 99.8995 36.0167 98.9328 36.55C97.9995 37.1167 97.0828 37.5167 96.1828 37.75C95.8828 37.6167 95.6161 37.3833 95.3828 37.05C95.1495 36.75 94.9328 36.4 94.7328 36C94.5661 35.6333 94.4328 35.25 94.3328 34.85C94.2328 34.45 94.1828 34.0667 94.1828 33.7C94.1828 33.4667 94.4495 33.2333 94.9828 33C95.5495 32.8 96.1495 32.55 96.7828 32.25C97.4495 31.95 98.0495 31.5833 98.5828 31.15C99.1495 30.6833 99.4328 30.1 99.4328 29.4V29.2C98.8995 29.7 98.3661 30.0667 97.8328 30.3C97.3328 30.5 96.8495 30.6 96.3828 30.6C95.4828 30.6 94.7161 30.2833 94.0828 29.65C93.4828 28.9833 93.1828 28.1333 93.1828 27.1ZM123.592 33C123.625 32.4 123.675 31.45 123.742 30.15C123.842 28.8167 123.958 27.2833 124.092 25.55C124.258 23.8167 124.425 21.9667 124.592 20C124.792 18 124.992 16.05 125.192 14.15C125.425 12.2167 125.658 10.4167 125.892 8.75C126.158 7.05 126.408 5.63333 126.642 4.5C128.475 4.13333 130.525 3.8 132.792 3.5C135.092 3.16666 137.342 3 139.542 3C140.975 3 142.308 3.1 143.542 3.3C144.808 3.5 145.892 3.85 146.792 4.35C147.725 4.81666 148.458 5.45 148.992 6.25C149.525 7.05 149.792 8.06667 149.792 9.3C149.792 10.5667 149.592 11.7333 149.192 12.8C148.825 13.8333 148.308 14.75 147.642 15.55C147.008 16.3167 146.258 16.95 145.392 17.45C144.525 17.95 143.608 18.2667 142.642 18.4C143.475 18.4667 144.242 18.65 144.942 18.95C145.675 19.25 146.308 19.65 146.842 20.15C147.408 20.65 147.842 21.2333 148.142 21.9C148.475 22.5333 148.642 23.2333 148.642 24C148.642 24.4333 148.575 25 148.442 25.7C148.342 26.3667 148.108 27.0833 147.742 27.85C147.408 28.5833 146.908 29.3333 146.242 30.1C145.575 30.8333 144.692 31.5 143.592 32.1C142.525 32.7 141.192 33.1833 139.592 33.55C137.992 33.95 136.092 34.15 133.892 34.15C132.458 34.15 130.892 34.05 129.192 33.85C127.492 33.6833 125.625 33.4 123.592 33ZM135.392 11.75C135.125 12.6167 134.908 13.5 134.742 14.4C134.575 15.2667 134.408 16.1333 134.242 17C134.508 17.0667 134.758 17.1 134.992 17.1C135.258 17.1 135.525 17.1 135.792 17.1C137.258 17.1 138.392 16.7333 139.192 16C139.992 15.2667 140.392 14.2667 140.392 13C140.392 12.4 140.158 11.9833 139.692 11.75C139.258 11.5167 138.708 11.4 138.042 11.4C137.608 11.4 137.158 11.4333 136.692 11.5C136.225 11.5667 135.792 11.65 135.392 11.75ZM133.492 26C133.892 26.1 134.325 26.2 134.792 26.3C135.258 26.4 135.758 26.45 136.292 26.45C136.625 26.45 136.975 26.4 137.342 26.3C137.742 26.2 138.092 26.0333 138.392 25.8C138.725 25.5667 138.992 25.25 139.192 24.85C139.425 24.45 139.542 23.9333 139.542 23.3C139.542 22.6333 139.308 22.1833 138.842 21.95C138.408 21.6833 137.842 21.55 137.142 21.55C136.608 21.55 136.042 21.6167 135.442 21.75C134.875 21.85 134.292 22 133.692 22.2C133.625 22.9 133.575 23.5667 133.542 24.2C133.508 24.8333 133.492 25.4333 133.492 26ZM165.638 3.3C166.071 3.2 166.671 3.11667 167.438 3.05C168.238 2.98333 169.171 2.95 170.238 2.95C171.338 2.95 172.571 3 173.938 3.1C174.405 6.3 174.888 9.21667 175.388 11.85C175.921 14.4833 176.455 16.9167 176.988 19.15C177.555 21.3833 178.138 23.4667 178.738 25.4C179.371 27.3 180.038 29.1 180.738 30.8C179.505 31.4667 177.988 32.0667 176.188 32.6C174.421 33.1667 172.605 33.7 170.738 34.2C170.338 33.5667 169.921 32.7 169.488 31.6C169.055 30.5 168.705 29.3167 168.438 28.05C167.538 28.2167 166.471 28.3667 165.238 28.5C164.038 28.6333 162.671 28.7333 161.138 28.8C160.871 29.7667 160.621 30.6167 160.388 31.35C160.188 32.05 160.005 32.8167 159.838 33.65C158.138 33.5833 156.538 33.35 155.038 32.95C153.571 32.55 152.055 32.0833 150.488 31.55C151.221 29.5167 152.155 27.2833 153.288 24.85C154.421 22.4167 155.655 19.95 156.988 17.45C158.355 14.9167 159.771 12.4333 161.238 10C162.738 7.56667 164.205 5.33333 165.638 3.3ZM167.038 13.3C166.571 14.2 166.038 15.35 165.438 16.75C164.871 18.15 164.255 19.7333 163.588 21.5C163.688 21.5 163.821 21.5167 163.988 21.55C164.155 21.55 164.355 21.55 164.588 21.55C165.055 21.55 165.571 21.55 166.138 21.55C166.705 21.5167 167.205 21.5 167.638 21.5C167.438 20.1 167.288 18.7667 167.188 17.5C167.088 16.2 167.038 14.8 167.038 13.3ZM197.081 3.3C197.515 3.2 198.115 3.11667 198.881 3.05C199.681 2.98333 200.615 2.95 201.681 2.95C202.781 2.95 204.015 3 205.381 3.1C205.848 6.3 206.331 9.21667 206.831 11.85C207.365 14.4833 207.898 16.9167 208.431 19.15C208.998 21.3833 209.581 23.4667 210.181 25.4C210.815 27.3 211.481 29.1 212.181 30.8C210.948 31.4667 209.431 32.0667 207.631 32.6C205.865 33.1667 204.048 33.7 202.181 34.2C201.781 33.5667 201.365 32.7 200.931 31.6C200.498 30.5 200.148 29.3167 199.881 28.05C198.981 28.2167 197.915 28.3667 196.681 28.5C195.481 28.6333 194.115 28.7333 192.581 28.8C192.315 29.7667 192.065 30.6167 191.831 31.35C191.631 32.05 191.448 32.8167 191.281 33.65C189.581 33.5833 187.981 33.35 186.481 32.95C185.015 32.55 183.498 32.0833 181.931 31.55C182.665 29.5167 183.598 27.2833 184.731 24.85C185.865 22.4167 187.098 19.95 188.431 17.45C189.798 14.9167 191.215 12.4333 192.681 10C194.181 7.56667 195.648 5.33333 197.081 3.3ZM198.481 13.3C198.015 14.2 197.481 15.35 196.881 16.75C196.315 18.15 195.698 19.7333 195.031 21.5C195.131 21.5 195.265 21.5167 195.431 21.55C195.598 21.55 195.798 21.55 196.031 21.55C196.498 21.55 197.015 21.55 197.581 21.55C198.148 21.5167 198.648 21.5 199.081 21.5C198.881 20.1 198.731 18.7667 198.631 17.5C198.531 16.2 198.481 14.8 198.481 13.3ZM216.025 27.1C216.025 26.3 216.175 25.6167 216.475 25.05C216.808 24.45 217.225 23.95 217.725 23.55C218.258 23.15 218.841 22.85 219.475 22.65C220.141 22.45 220.825 22.35 221.525 22.35C223.125 22.35 224.441 22.8167 225.475 23.75C226.541 24.65 227.075 26.05 227.075 27.95C227.075 29.25 226.825 30.45 226.325 31.55C225.825 32.65 225.175 33.6167 224.375 34.45C223.608 35.3167 222.741 36.0167 221.775 36.55C220.841 37.1167 219.925 37.5167 219.025 37.75C218.725 37.6167 218.458 37.3833 218.225 37.05C217.991 36.75 217.775 36.4 217.575 36C217.408 35.6333 217.275 35.25 217.175 34.85C217.075 34.45 217.025 34.0667 217.025 33.7C217.025 33.4667 217.291 33.2333 217.825 33C218.391 32.8 218.991 32.55 219.625 32.25C220.291 31.95 220.891 31.5833 221.425 31.15C221.991 30.6833 222.275 30.1 222.275 29.4V29.2C221.741 29.7 221.208 30.0667 220.675 30.3C220.175 30.5 219.691 30.6 219.225 30.6C218.325 30.6 217.558 30.2833 216.925 29.65C216.325 28.9833 216.025 28.1333 216.025 27.1ZM246.434 33C246.467 32.4 246.517 31.45 246.584 30.15C246.684 28.8167 246.8 27.2833 246.934 25.55C247.1 23.8167 247.267 21.9667 247.434 20C247.634 18 247.834 16.05 248.034 14.15C248.267 12.2167 248.5 10.4167 248.734 8.75C249 7.05 249.25 5.63333 249.484 4.5C251.317 4.13333 253.367 3.8 255.634 3.5C257.934 3.16666 260.184 3 262.384 3C263.817 3 265.15 3.1 266.384 3.3C267.65 3.5 268.734 3.85 269.634 4.35C270.567 4.81666 271.3 5.45 271.834 6.25C272.367 7.05 272.634 8.06667 272.634 9.3C272.634 10.5667 272.434 11.7333 272.034 12.8C271.667 13.8333 271.15 14.75 270.484 15.55C269.85 16.3167 269.1 16.95 268.234 17.45C267.367 17.95 266.45 18.2667 265.484 18.4C266.317 18.4667 267.084 18.65 267.784 18.95C268.517 19.25 269.15 19.65 269.684 20.15C270.25 20.65 270.684 21.2333 270.984 21.9C271.317 22.5333 271.484 23.2333 271.484 24C271.484 24.4333 271.417 25 271.284 25.7C271.184 26.3667 270.95 27.0833 270.584 27.85C270.25 28.5833 269.75 29.3333 269.084 30.1C268.417 30.8333 267.534 31.5 266.434 32.1C265.367 32.7 264.034 33.1833 262.434 33.55C260.834 33.95 258.934 34.15 256.734 34.15C255.3 34.15 253.734 34.05 252.034 33.85C250.334 33.6833 248.467 33.4 246.434 33ZM258.234 11.75C257.967 12.6167 257.75 13.5 257.584 14.4C257.417 15.2667 257.25 16.1333 257.084 17C257.35 17.0667 257.6 17.1 257.834 17.1C258.1 17.1 258.367 17.1 258.634 17.1C260.1 17.1 261.234 16.7333 262.034 16C262.834 15.2667 263.234 14.2667 263.234 13C263.234 12.4 263 11.9833 262.534 11.75C262.1 11.5167 261.55 11.4 260.884 11.4C260.45 11.4 260 11.4333 259.534 11.5C259.067 11.5667 258.634 11.65 258.234 11.75ZM256.334 26C256.734 26.1 257.167 26.2 257.634 26.3C258.1 26.4 258.6 26.45 259.134 26.45C259.467 26.45 259.817 26.4 260.184 26.3C260.584 26.2 260.934 26.0333 261.234 25.8C261.567 25.5667 261.834 25.25 262.034 24.85C262.267 24.45 262.384 23.9333 262.384 23.3C262.384 22.6333 262.15 22.1833 261.684 21.95C261.25 21.6833 260.684 21.55 259.984 21.55C259.45 21.55 258.884 21.6167 258.284 21.75C257.717 21.85 257.134 22 256.534 22.2C256.467 22.9 256.417 23.5667 256.384 24.2C256.35 24.8333 256.334 25.4333 256.334 26ZM279.28 4.3C279.913 4.2 280.796 4.15 281.93 4.15C283.163 4.15 284.496 4.23333 285.93 4.4C287.396 4.53333 288.713 4.73333 289.88 5C289.513 6.26667 289.113 7.78333 288.68 9.55C288.28 11.3167 287.88 13.15 287.48 15.05C287.113 16.9167 286.763 18.75 286.43 20.55C286.13 22.35 285.88 23.9167 285.68 25.25C287.013 24.95 288.663 24.6333 290.63 24.3C292.596 23.9333 294.93 23.65 297.63 23.45C297.63 23.8167 297.63 24.2833 297.63 24.85C297.663 25.3833 297.68 25.9833 297.68 26.65C297.68 27.6167 297.646 28.6333 297.58 29.7C297.513 30.7667 297.396 31.6833 297.23 32.45C296.563 32.55 295.563 32.6333 294.23 32.7C292.896 32.8 291.413 32.8833 289.78 32.95C288.18 33.0167 286.496 33.0667 284.73 33.1C282.963 33.1333 281.313 33.15 279.78 33.15C278.913 33.15 278.113 33.1333 277.38 33.1C276.646 33.1 275.98 33.0833 275.38 33.05C275.48 31.9167 275.613 30.6 275.78 29.1C275.946 27.6 276.13 26 276.33 24.3C276.563 22.5667 276.796 20.8 277.03 19C277.296 17.1667 277.546 15.3833 277.78 13.65C278.046 11.8833 278.296 10.2 278.53 8.6C278.796 7 279.046 5.56667 279.28 4.3ZM315.382 3.3C315.815 3.2 316.415 3.11667 317.182 3.05C317.982 2.98333 318.915 2.95 319.982 2.95C321.082 2.95 322.315 3 323.682 3.1C324.149 6.3 324.632 9.21667 325.132 11.85C325.665 14.4833 326.199 16.9167 326.732 19.15C327.299 21.3833 327.882 23.4667 328.482 25.4C329.115 27.3 329.782 29.1 330.482 30.8C329.249 31.4667 327.732 32.0667 325.932 32.6C324.165 33.1667 322.349 33.7 320.482 34.2C320.082 33.5667 319.665 32.7 319.232 31.6C318.799 30.5 318.449 29.3167 318.182 28.05C317.282 28.2167 316.215 28.3667 314.982 28.5C313.782 28.6333 312.415 28.7333 310.882 28.8C310.615 29.7667 310.365 30.6167 310.132 31.35C309.932 32.05 309.749 32.8167 309.582 33.65C307.882 33.5833 306.282 33.35 304.782 32.95C303.315 32.55 301.799 32.0833 300.232 31.55C300.965 29.5167 301.899 27.2833 303.032 24.85C304.165 22.4167 305.399 19.95 306.732 17.45C308.099 14.9167 309.515 12.4333 310.982 10C312.482 7.56667 313.949 5.33333 315.382 3.3ZM316.782 13.3C316.315 14.2 315.782 15.35 315.182 16.75C314.615 18.15 313.999 19.7333 313.332 21.5C313.432 21.5 313.565 21.5167 313.732 21.55C313.899 21.55 314.099 21.55 314.332 21.55C314.799 21.55 315.315 21.55 315.882 21.55C316.449 21.5167 316.949 21.5 317.382 21.5C317.182 20.1 317.032 18.7667 316.932 17.5C316.832 16.2 316.782 14.8 316.782 13.3ZM359.649 4.4C359.482 5.33333 359.265 6.31666 358.999 7.35C358.732 8.38333 358.432 9.38333 358.099 10.35C357.799 11.2833 357.499 12.15 357.199 12.95C356.899 13.75 356.649 14.3667 356.449 14.8C356.149 14.7333 355.682 14.65 355.049 14.55C354.415 14.4167 353.765 14.3 353.099 14.2C352.432 14.1 351.799 14.0167 351.199 13.95C350.599 13.85 350.165 13.8 349.899 13.8C348.632 13.8 347.582 14.05 346.749 14.55C345.915 15.0167 345.249 15.6167 344.749 16.35C344.249 17.05 343.882 17.8333 343.649 18.7C343.449 19.5333 343.349 20.3 343.349 21C343.349 21.5667 343.432 22.0667 343.599 22.5C343.799 22.9333 344.032 23.2833 344.299 23.55C344.565 23.8167 344.849 24.0167 345.149 24.15C345.482 24.2833 345.799 24.35 346.099 24.35C347.265 24.35 348.465 24.0167 349.699 23.35C350.965 22.6833 352.232 21.8167 353.499 20.75C353.799 21.05 354.165 21.5167 354.599 22.15C355.032 22.7833 355.449 23.4667 355.849 24.2C356.249 24.9333 356.599 25.6833 356.899 26.45C357.199 27.1833 357.399 27.8167 357.499 28.35C355.532 30.25 353.415 31.7333 351.149 32.8C348.915 33.8667 346.615 34.4 344.249 34.4C342.182 34.4 340.432 34 338.999 33.2C337.599 32.4333 336.449 31.45 335.549 30.25C334.682 29.05 334.049 27.7333 333.649 26.3C333.249 24.8667 333.049 23.5 333.049 22.2C333.049 18.9333 333.632 16.1333 334.799 13.8C335.965 11.4333 337.399 9.5 339.099 8C340.832 6.46667 342.665 5.35 344.599 4.65C346.565 3.91667 348.332 3.55 349.899 3.55C350.532 3.55 351.265 3.56667 352.099 3.6C352.965 3.63333 353.849 3.68333 354.749 3.75C355.649 3.81667 356.515 3.9 357.349 4C358.215 4.1 358.982 4.23333 359.649 4.4ZM361.854 32.65C361.854 31.9167 361.904 30.7833 362.004 29.25C362.104 27.6833 362.238 25.95 362.404 24.05C362.571 22.1167 362.754 20.1 362.954 18C363.188 15.9 363.421 13.9167 363.654 12.05C363.888 10.1833 364.121 8.53333 364.354 7.1C364.588 5.66667 364.804 4.66667 365.004 4.1C365.438 4.06667 365.888 4.05 366.354 4.05C366.821 4.01667 367.304 4 367.804 4C369.004 4 370.238 4.05 371.504 4.15C372.804 4.21667 374.038 4.33333 375.204 4.5C375.038 5.5 374.821 6.48333 374.554 7.45C374.321 8.38333 374.054 9.35 373.754 10.35C373.488 11.3167 373.238 12.3333 373.004 13.4C372.771 14.4333 372.604 15.55 372.504 16.75H372.854C373.588 15.4167 374.404 14.0333 375.304 12.6C376.204 11.1667 377.254 9.83333 378.454 8.6C379.654 7.36667 381.004 6.3 382.504 5.4C384.038 4.46667 385.788 3.86667 387.754 3.6C387.954 3.96666 388.171 4.5 388.404 5.2C388.638 5.9 388.871 6.68333 389.104 7.55C389.338 8.41667 389.521 9.33333 389.654 10.3C389.821 11.2333 389.921 12.1333 389.954 13C387.288 13.3667 384.988 14.0333 383.054 15C381.154 15.9333 379.504 16.9667 378.104 18.1C378.371 18.8333 378.838 19.4833 379.504 20.05C380.204 20.5833 381.054 21.05 382.054 21.45C383.054 21.85 384.171 22.1667 385.404 22.4C386.671 22.6333 388.021 22.7667 389.454 22.8C389.354 23.9 389.188 24.9833 388.954 26.05C388.721 27.1167 388.454 28.1333 388.154 29.1C387.888 30.0667 387.588 30.9667 387.254 31.8C386.954 32.6 386.671 33.3 386.404 33.9C385.238 33.8667 383.954 33.6 382.554 33.1C381.154 32.6 379.804 31.8667 378.504 30.9C377.238 29.9333 376.104 28.7333 375.104 27.3C374.104 25.8333 373.454 24.1167 373.154 22.15C372.788 22.6167 372.421 23.0333 372.054 23.4C371.688 23.7667 371.454 24.0667 371.354 24.3C371.288 24.9333 371.221 25.6333 371.154 26.4C371.088 27.1333 371.021 27.8667 370.954 28.6C370.921 29.3 370.871 29.9667 370.804 30.6C370.738 31.2 370.688 31.7 370.654 32.1C369.288 32.3 367.771 32.4333 366.104 32.5C364.438 32.6 363.021 32.65 361.854 32.65ZM427.865 15.2C427.665 15.1333 427.315 14.95 426.815 14.65C426.349 14.3167 425.782 13.9667 425.115 13.6C424.482 13.2333 423.782 12.9 423.015 12.6C422.282 12.3 421.565 12.15 420.865 12.15C419.965 12.15 419.249 12.3667 418.715 12.8C418.215 13.2 417.965 13.6833 417.965 14.25C417.965 14.8167 418.249 15.3667 418.815 15.9C419.382 16.4333 420.299 16.8333 421.565 17.1C423.465 17.5 424.982 18.0333 426.115 18.7C427.249 19.3333 428.115 20.0167 428.715 20.75C429.349 21.45 429.765 22.1667 429.965 22.9C430.165 23.6 430.265 24.2 430.265 24.7C430.265 26.3667 429.915 27.85 429.215 29.15C428.515 30.4167 427.615 31.4833 426.515 32.35C425.415 33.2167 424.165 33.8667 422.765 34.3C421.399 34.7667 420.015 35 418.615 35C417.149 35 415.765 34.8333 414.465 34.5C413.165 34.2 411.982 33.7667 410.915 33.2C409.882 32.6667 408.982 32.0167 408.215 31.25C407.482 30.4833 406.949 29.6333 406.615 28.7C407.049 28.1333 407.532 27.5667 408.065 27C408.632 26.4 409.215 25.8333 409.815 25.3C410.415 24.7333 410.999 24.2 411.565 23.7C412.165 23.2 412.699 22.75 413.165 22.35C414.332 23.75 415.449 24.7333 416.515 25.3C417.615 25.8333 418.599 26.1 419.465 26.1C419.899 26.1 420.315 26 420.715 25.8C421.115 25.5667 421.315 25.0667 421.315 24.3C421.315 23.9 421.232 23.5833 421.065 23.35C420.899 23.0833 420.615 22.85 420.215 22.65C419.815 22.45 419.299 22.25 418.665 22.05C418.032 21.85 417.249 21.6 416.315 21.3C415.149 20.9333 414.065 20.5333 413.065 20.1C412.099 19.6333 411.265 19.0833 410.565 18.45C409.865 17.8167 409.315 17.0833 408.915 16.25C408.515 15.3833 408.315 14.35 408.315 13.15C408.315 11.2167 408.649 9.55 409.315 8.15C409.982 6.75 410.882 5.6 412.015 4.7C413.149 3.8 414.449 3.15 415.915 2.75C417.415 2.31666 418.999 2.1 420.665 2.1C422.999 2.1 425.332 2.5 427.665 3.3C429.999 4.06667 432.032 5.15 433.765 6.55C433.499 7.31667 433.132 8.11667 432.665 8.95C432.199 9.75 431.682 10.5333 431.115 11.3C430.582 12.0667 430.015 12.8 429.415 13.5C428.849 14.1667 428.332 14.7333 427.865 15.2ZM450.231 33.1C450.298 32.5 450.398 31.65 450.531 30.55C450.665 29.4167 450.831 28.1167 451.031 26.65C450.465 26.6833 449.881 26.7 449.281 26.7C448.681 26.7 448.098 26.7 447.531 26.7C447.098 26.7 446.681 26.7 446.281 26.7C445.881 26.7 445.498 26.6833 445.131 26.65C444.931 28.0167 444.765 29.2 444.631 30.2C444.531 31.1667 444.448 31.8833 444.381 32.35C443.948 32.4167 443.381 32.4833 442.681 32.55C442.015 32.6167 441.298 32.6833 440.531 32.75C439.765 32.8167 439.015 32.8667 438.281 32.9C437.548 32.9667 436.915 33 436.381 33C436.181 33 435.998 33 435.831 33C435.665 33 435.515 32.9833 435.381 32.95C435.415 32.1833 435.498 31 435.631 29.4C435.798 27.8 435.981 26 436.181 24C436.415 21.9667 436.631 19.8833 436.831 17.75C437.065 15.5833 437.281 13.5667 437.481 11.7C437.715 9.83333 437.915 8.25 438.081 6.95C438.248 5.61667 438.365 4.78333 438.431 4.45C439.098 4.38333 439.848 4.33333 440.681 4.3C441.548 4.23333 442.448 4.2 443.381 4.2C444.348 4.2 445.315 4.23333 446.281 4.3C447.248 4.33333 448.115 4.41667 448.881 4.55C448.715 5.35 448.515 6.33333 448.281 7.5C448.081 8.66667 447.848 9.93333 447.581 11.3C447.348 12.6667 447.098 14.1 446.831 15.6C446.598 17.0667 446.365 18.5333 446.131 20C446.931 19.8667 447.831 19.7167 448.831 19.55C449.865 19.3833 450.915 19.25 451.981 19.15C452.181 17.5167 452.381 15.9 452.581 14.3C452.781 12.7 452.965 11.2333 453.131 9.9C453.298 8.53333 453.431 7.35 453.531 6.35C453.631 5.35 453.698 4.65 453.731 4.25C454.365 4.18333 455.115 4.13333 455.981 4.1C456.881 4.06667 457.781 4.05 458.681 4.05C459.781 4.05 460.798 4.08333 461.731 4.15C462.698 4.18333 463.398 4.26666 463.831 4.4C463.698 5.66667 463.498 7.18333 463.231 8.95C462.998 10.6833 462.731 12.5167 462.431 14.45C462.131 16.3833 461.815 18.3333 461.481 20.3C461.181 22.2667 460.881 24.1 460.581 25.8C460.315 27.4667 460.065 28.9167 459.831 30.15C459.631 31.35 459.481 32.1833 459.381 32.65C458.548 32.85 457.631 32.9833 456.631 33.05C455.665 33.1167 454.731 33.15 453.831 33.15C452.998 33.15 452.248 33.1333 451.581 33.1C450.948 33.1 450.498 33.1 450.231 33.1ZM469.485 5.05C469.985 4.91666 470.935 4.8 472.335 4.7C473.735 4.56667 475.335 4.45 477.135 4.35C478.935 4.25 480.818 4.18333 482.785 4.15C484.752 4.08333 486.568 4.05 488.235 4.05C488.902 4.05 489.535 4.05 490.135 4.05C490.735 4.05 491.285 4.06667 491.785 4.1C491.718 4.76666 491.635 5.51666 491.535 6.35C491.468 7.18333 491.368 8 491.235 8.8C491.135 9.6 491.018 10.35 490.885 11.05C490.752 11.7167 490.635 12.25 490.535 12.65C489.335 12.5833 488.235 12.5 487.235 12.4C486.268 12.3 485.302 12.2 484.335 12.1C483.402 11.9667 482.435 11.8667 481.435 11.8C480.435 11.7 479.335 11.6333 478.135 11.6L477.135 16.55C478.402 16.2167 479.802 15.9333 481.335 15.7C482.902 15.4333 484.385 15.3 485.785 15.3H486.385C486.385 16.4333 486.318 17.6 486.185 18.8C486.085 19.9667 485.968 20.95 485.835 21.75H484.535C482.968 21.75 481.552 21.8167 480.285 21.95C479.052 22.05 477.702 22.1667 476.235 22.3C476.135 22.9333 476.052 23.55 475.985 24.15C475.952 24.7167 475.902 25.3333 475.835 26C477.602 25.9667 479.518 25.8167 481.585 25.55C483.652 25.25 486.052 24.9333 488.785 24.6C488.818 25.3333 488.852 26.0167 488.885 26.65C488.918 27.2833 488.935 27.9333 488.935 28.6C488.935 29.7 488.885 30.9667 488.785 32.4C487.218 32.6333 485.335 32.7833 483.135 32.85C480.935 32.9167 478.702 32.95 476.435 32.95C474.368 32.95 472.418 32.9333 470.585 32.9C468.752 32.8667 467.218 32.8167 465.985 32.75C466.018 31.7833 466.118 30.5167 466.285 28.95C466.452 27.35 466.635 25.65 466.835 23.85C467.068 22.0167 467.302 20.1333 467.535 18.2C467.802 16.2333 468.052 14.4 468.285 12.7C468.552 10.9667 468.785 9.43333 468.985 8.1C469.185 6.73333 469.352 5.71666 469.485 5.05ZM497.413 5.05C497.913 4.91666 498.863 4.8 500.263 4.7C501.663 4.56667 503.263 4.45 505.063 4.35C506.863 4.25 508.746 4.18333 510.713 4.15C512.68 4.08333 514.496 4.05 516.163 4.05C516.83 4.05 517.463 4.05 518.063 4.05C518.663 4.05 519.213 4.06667 519.713 4.1C519.646 4.76666 519.563 5.51666 519.463 6.35C519.396 7.18333 519.296 8 519.163 8.8C519.063 9.6 518.946 10.35 518.813 11.05C518.68 11.7167 518.563 12.25 518.463 12.65C517.263 12.5833 516.163 12.5 515.163 12.4C514.196 12.3 513.23 12.2 512.263 12.1C511.33 11.9667 510.363 11.8667 509.363 11.8C508.363 11.7 507.263 11.6333 506.063 11.6L505.063 16.55C506.33 16.2167 507.73 15.9333 509.263 15.7C510.83 15.4333 512.313 15.3 513.713 15.3H514.313C514.313 16.4333 514.246 17.6 514.113 18.8C514.013 19.9667 513.896 20.95 513.763 21.75H512.463C510.896 21.75 509.48 21.8167 508.213 21.95C506.98 22.05 505.63 22.1667 504.163 22.3C504.063 22.9333 503.98 23.55 503.913 24.15C503.88 24.7167 503.83 25.3333 503.763 26C505.53 25.9667 507.446 25.8167 509.513 25.55C511.58 25.25 513.98 24.9333 516.713 24.6C516.746 25.3333 516.78 26.0167 516.813 26.65C516.846 27.2833 516.863 27.9333 516.863 28.6C516.863 29.7 516.813 30.9667 516.713 32.4C515.146 32.6333 513.263 32.7833 511.063 32.85C508.863 32.9167 506.63 32.95 504.363 32.95C502.296 32.95 500.346 32.9333 498.513 32.9C496.68 32.8667 495.146 32.8167 493.913 32.75C493.946 31.7833 494.046 30.5167 494.213 28.95C494.38 27.35 494.563 25.65 494.763 23.85C494.996 22.0167 495.23 20.1333 495.463 18.2C495.73 16.2333 495.98 14.4 496.213 12.7C496.48 10.9667 496.713 9.43333 496.913 8.1C497.113 6.73333 497.28 5.71666 497.413 5.05ZM525.941 5.35C528.207 4.65 530.307 4.11667 532.241 3.75C534.207 3.38333 536.024 3.2 537.691 3.2C541.124 3.2 543.774 3.96666 545.641 5.5C547.541 7 548.491 9.28333 548.491 12.35C548.491 14.8167 548.107 16.9333 547.341 18.7C546.574 20.4667 545.574 21.9167 544.341 23.05C543.107 24.15 541.691 24.9667 540.091 25.5C538.524 26 536.941 26.25 535.341 26.25C534.274 26.25 533.224 26.15 532.191 25.95C531.924 27.5167 531.774 28.7833 531.741 29.75C531.707 30.7167 531.624 31.6333 531.491 32.5C530.724 32.7 529.907 32.8333 529.041 32.9C528.207 33 527.374 33.05 526.541 33.05C525.774 33.05 525.057 33.0167 524.391 32.95C523.757 32.8833 523.157 32.8167 522.591 32.75C522.591 32.2167 522.641 31.3 522.741 30C522.874 28.6667 523.024 27.15 523.191 25.45C523.391 23.7167 523.607 21.8667 523.841 19.9C524.074 17.9333 524.307 16.0333 524.541 14.2C524.807 12.3333 525.057 10.6333 525.291 9.1C525.524 7.53333 525.741 6.28333 525.941 5.35ZM534.391 12.3C534.191 13.2667 533.957 14.4 533.691 15.7C533.457 16.9667 533.257 18.4333 533.091 20.1C533.257 20.1333 533.424 20.1667 533.591 20.2C533.757 20.2 533.941 20.2 534.141 20.2C534.674 20.2 535.224 20.1167 535.791 19.95C536.391 19.7833 536.924 19.5 537.391 19.1C537.857 18.6667 538.241 18.1167 538.541 17.45C538.841 16.7833 538.991 15.95 538.991 14.95C538.991 13.8833 538.757 13.1333 538.291 12.7C537.824 12.2667 537.191 12.05 536.391 12.05C536.091 12.05 535.774 12.0833 535.441 12.15C535.107 12.1833 534.757 12.2333 534.391 12.3ZM547.542 27.1C547.542 26.3 547.692 25.6167 547.992 25.05C548.326 24.45 548.742 23.95 549.242 23.55C549.776 23.15 550.359 22.85 550.992 22.65C551.659 22.45 552.342 22.35 553.042 22.35C554.642 22.35 555.959 22.8167 556.992 23.75C558.059 24.65 558.592 26.05 558.592 27.95C558.592 29.25 558.342 30.45 557.842 31.55C557.342 32.65 556.692 33.6167 555.892 34.45C555.126 35.3167 554.259 36.0167 553.292 36.55C552.359 37.1167 551.442 37.5167 550.542 37.75C550.242 37.6167 549.976 37.3833 549.742 37.05C549.509 36.75 549.292 36.4 549.092 36C548.926 35.6333 548.792 35.25 548.692 34.85C548.592 34.45 548.542 34.0667 548.542 33.7C548.542 33.4667 548.809 33.2333 549.342 33C549.909 32.8 550.509 32.55 551.142 32.25C551.809 31.95 552.409 31.5833 552.942 31.15C553.509 30.6833 553.792 30.1 553.792 29.4V29.2C553.259 29.7 552.726 30.0667 552.192 30.3C551.692 30.5 551.209 30.6 550.742 30.6C549.842 30.6 549.076 30.2833 548.442 29.65C547.842 28.9833 547.542 28.1333 547.542 27.1Z" fill="black"/>
<path d="M637.45 33.1C637.517 32.5 637.617 31.65 637.75 30.55C637.883 29.4167 638.05 28.1167 638.25 26.65C637.683 26.6833 637.1 26.7 636.5 26.7C635.9 26.7 635.317 26.7 634.75 26.7C634.317 26.7 633.9 26.7 633.5 26.7C633.1 26.7 632.717 26.6833 632.35 26.65C632.15 28.0167 631.983 29.2 631.85 30.2C631.75 31.1667 631.667 31.8833 631.6 32.35C631.167 32.4167 630.6 32.4833 629.9 32.55C629.233 32.6167 628.517 32.6833 627.75 32.75C626.983 32.8167 626.233 32.8667 625.5 32.9C624.767 32.9667 624.133 33 623.6 33C623.4 33 623.217 33 623.05 33C622.883 33 622.733 32.9833 622.6 32.95C622.633 32.1833 622.717 31 622.85 29.4C623.017 27.8 623.2 26 623.4 24C623.633 21.9667 623.85 19.8833 624.05 17.75C624.283 15.5833 624.5 13.5667 624.7 11.7C624.933 9.83333 625.133 8.25 625.3 6.95C625.467 5.61667 625.583 4.78333 625.65 4.45C626.317 4.38333 627.067 4.33333 627.9 4.3C628.767 4.23333 629.667 4.2 630.6 4.2C631.567 4.2 632.533 4.23333 633.5 4.3C634.467 4.33333 635.333 4.41667 636.1 4.55C635.933 5.35 635.733 6.33333 635.5 7.5C635.3 8.66667 635.067 9.93333 634.8 11.3C634.567 12.6667 634.317 14.1 634.05 15.6C633.817 17.0667 633.583 18.5333 633.35 20C634.15 19.8667 635.05 19.7167 636.05 19.55C637.083 19.3833 638.133 19.25 639.2 19.15C639.4 17.5167 639.6 15.9 639.8 14.3C640 12.7 640.183 11.2333 640.35 9.9C640.517 8.53333 640.65 7.35 640.75 6.35C640.85 5.35 640.917 4.65 640.95 4.25C641.583 4.18333 642.333 4.13333 643.2 4.1C644.1 4.06667 645 4.05 645.9 4.05C647 4.05 648.017 4.08333 648.95 4.15C649.917 4.18333 650.617 4.26666 651.05 4.4C650.917 5.66667 650.717 7.18333 650.45 8.95C650.217 10.6833 649.95 12.5167 649.65 14.45C649.35 16.3833 649.033 18.3333 648.7 20.3C648.4 22.2667 648.1 24.1 647.8 25.8C647.533 27.4667 647.283 28.9167 647.05 30.15C646.85 31.35 646.7 32.1833 646.6 32.65C645.767 32.85 644.85 32.9833 643.85 33.05C642.883 33.1167 641.95 33.15 641.05 33.15C640.217 33.15 639.467 33.1333 638.8 33.1C638.167 33.1 637.717 33.1 637.45 33.1ZM666.554 3.3C666.987 3.2 667.587 3.11667 668.354 3.05C669.154 2.98333 670.087 2.95 671.154 2.95C672.254 2.95 673.487 3 674.854 3.1C675.321 6.3 675.804 9.21667 676.304 11.85C676.837 14.4833 677.371 16.9167 677.904 19.15C678.471 21.3833 679.054 23.4667 679.654 25.4C680.287 27.3 680.954 29.1 681.654 30.8C680.421 31.4667 678.904 32.0667 677.104 32.6C675.337 33.1667 673.521 33.7 671.654 34.2C671.254 33.5667 670.837 32.7 670.404 31.6C669.971 30.5 669.621 29.3167 669.354 28.05C668.454 28.2167 667.387 28.3667 666.154 28.5C664.954 28.6333 663.587 28.7333 662.054 28.8C661.787 29.7667 661.537 30.6167 661.304 31.35C661.104 32.05 660.921 32.8167 660.754 33.65C659.054 33.5833 657.454 33.35 655.954 32.95C654.487 32.55 652.971 32.0833 651.404 31.55C652.137 29.5167 653.071 27.2833 654.204 24.85C655.337 22.4167 656.571 19.95 657.904 17.45C659.271 14.9167 660.687 12.4333 662.154 10C663.654 7.56667 665.121 5.33333 666.554 3.3ZM667.954 13.3C667.487 14.2 666.954 15.35 666.354 16.75C665.787 18.15 665.171 19.7333 664.504 21.5C664.604 21.5 664.737 21.5167 664.904 21.55C665.071 21.55 665.271 21.55 665.504 21.55C665.971 21.55 666.487 21.55 667.054 21.55C667.621 21.5167 668.121 21.5 668.554 21.5C668.354 20.1 668.204 18.7667 668.104 17.5C668.004 16.2 667.954 14.8 667.954 13.3ZM681.009 5.4C681.375 5.23333 682.059 5.03333 683.059 4.8C684.059 4.53333 685.142 4.28333 686.309 4.05C687.509 3.78333 688.659 3.56667 689.759 3.4C690.892 3.23333 691.775 3.15 692.409 3.15C692.575 3.15 692.742 3.53333 692.909 4.3C693.075 5.06667 693.225 6.06667 693.359 7.3C693.492 8.5 693.609 9.85 693.709 11.35C693.842 12.8167 693.942 14.2833 694.009 15.75C694.109 17.1833 694.175 18.5333 694.209 19.8C694.275 21.0333 694.309 22 694.309 22.7C694.842 21.6667 695.409 20.3167 696.009 18.65C696.642 16.9833 697.259 15.2333 697.859 13.4C698.459 11.5667 698.992 9.76667 699.459 8C699.959 6.2 700.342 4.66666 700.609 3.4C701.542 3.43333 702.509 3.53333 703.509 3.7C704.509 3.83333 705.475 4.03333 706.409 4.3C707.375 4.53333 708.275 4.81666 709.109 5.15C709.975 5.48333 710.742 5.85 711.409 6.25C710.909 7.65 710.225 9.21667 709.359 10.95C708.525 12.65 707.609 14.4167 706.609 16.25C705.609 18.0833 704.592 19.9 703.559 21.7C702.525 23.4667 701.559 25.1167 700.659 26.65C699.792 28.15 699.025 29.4667 698.359 30.6C697.725 31.7333 697.325 32.5333 697.159 33C696.892 33.0333 696.609 33.05 696.309 33.05C696.042 33.05 695.775 33.05 695.509 33.05C694.742 33.05 693.975 33.0167 693.209 32.95C692.475 32.9167 691.775 32.8667 691.109 32.8C690.442 32.7333 689.842 32.65 689.309 32.55C688.775 32.4833 688.359 32.4 688.059 32.3C687.792 30.6 687.409 28.6167 686.909 26.35C686.409 24.05 685.842 21.6833 685.209 19.25C684.609 16.7833 683.942 14.35 683.209 11.95C682.475 9.55 681.742 7.36667 681.009 5.4ZM715.245 5.05C715.745 4.91666 716.695 4.8 718.095 4.7C719.495 4.56667 721.095 4.45 722.895 4.35C724.695 4.25 726.578 4.18333 728.545 4.15C730.512 4.08333 732.328 4.05 733.995 4.05C734.662 4.05 735.295 4.05 735.895 4.05C736.495 4.05 737.045 4.06667 737.545 4.1C737.478 4.76666 737.395 5.51666 737.295 6.35C737.228 7.18333 737.128 8 736.995 8.8C736.895 9.6 736.778 10.35 736.645 11.05C736.512 11.7167 736.395 12.25 736.295 12.65C735.095 12.5833 733.995 12.5 732.995 12.4C732.028 12.3 731.062 12.2 730.095 12.1C729.162 11.9667 728.195 11.8667 727.195 11.8C726.195 11.7 725.095 11.6333 723.895 11.6L722.895 16.55C724.162 16.2167 725.562 15.9333 727.095 15.7C728.662 15.4333 730.145 15.3 731.545 15.3H732.145C732.145 16.4333 732.078 17.6 731.945 18.8C731.845 19.9667 731.728 20.95 731.595 21.75H730.295C728.728 21.75 727.312 21.8167 726.045 21.95C724.812 22.05 723.462 22.1667 721.995 22.3C721.895 22.9333 721.812 23.55 721.745 24.15C721.712 24.7167 721.662 25.3333 721.595 26C723.362 25.9667 725.278 25.8167 727.345 25.55C729.412 25.25 731.812 24.9333 734.545 24.6C734.578 25.3333 734.612 26.0167 734.645 26.65C734.678 27.2833 734.695 27.9333 734.695 28.6C734.695 29.7 734.645 30.9667 734.545 32.4C732.978 32.6333 731.095 32.7833 728.895 32.85C726.695 32.9167 724.462 32.95 722.195 32.95C720.128 32.95 718.178 32.9333 716.345 32.9C714.512 32.8667 712.978 32.8167 711.745 32.75C711.778 31.7833 711.878 30.5167 712.045 28.95C712.212 27.35 712.395 25.65 712.595 23.85C712.828 22.0167 713.062 20.1333 713.295 18.2C713.562 16.2333 713.812 14.4 714.045 12.7C714.312 10.9667 714.545 9.43333 714.745 8.1C714.945 6.73333 715.112 5.71666 715.245 5.05ZM755.179 5.5C755.679 5.3 756.345 5.1 757.179 4.9C758.012 4.66666 758.929 4.45 759.929 4.25C760.929 4.05 761.979 3.88333 763.079 3.75C764.212 3.61667 765.329 3.51667 766.429 3.45C766.362 3.85 766.329 4.26667 766.329 4.7C766.329 5.1 766.329 5.51666 766.329 5.95C766.329 6.98333 766.379 8.05 766.479 9.15C766.579 10.2167 766.712 11.2667 766.879 12.3C767.045 13.3 767.262 14.2333 767.529 15.1C767.795 15.9667 768.112 16.7 768.479 17.3C769.412 15.9333 770.429 14.0833 771.529 11.75C772.629 9.38333 773.512 6.61667 774.179 3.45C775.645 3.45 777.312 3.63333 779.179 4C781.045 4.33333 782.862 4.96667 784.629 5.9C783.729 8.36667 782.712 10.4833 781.579 12.25C780.445 14.0167 779.295 15.5667 778.129 16.9C776.962 18.2 775.812 19.3333 774.679 20.3C773.579 21.2333 772.612 22.1 771.779 22.9C771.779 23.6667 771.745 24.55 771.679 25.55C771.612 26.5167 771.529 27.4667 771.429 28.4C771.329 29.3333 771.229 30.1667 771.129 30.9C771.062 31.6333 771.012 32.1333 770.979 32.4C769.845 32.5 768.762 32.5833 767.729 32.65C766.695 32.7167 765.712 32.75 764.779 32.75C764.179 32.75 763.612 32.7333 763.079 32.7C762.545 32.6667 762.045 32.6167 761.579 32.55C761.779 31.45 761.929 30.5 762.029 29.7C762.129 28.8667 762.229 28.1 762.329 27.4C762.429 26.6667 762.529 25.9667 762.629 25.3C762.729 24.6333 762.862 23.9 763.029 23.1C762.262 22.3 761.479 21.4167 760.679 20.45C759.879 19.45 759.112 18.2833 758.379 16.95C757.645 15.5833 756.995 13.9833 756.429 12.15C755.862 10.2833 755.445 8.06667 755.179 5.5ZM797.859 26.3C798.759 26.3 799.526 26.0167 800.159 25.45C800.826 24.85 801.359 24.0833 801.759 23.15C802.193 22.2167 802.509 21.1833 802.709 20.05C802.909 18.9167 803.009 17.8167 803.009 16.75C803.009 15.5167 802.793 14.5167 802.359 13.75C801.959 12.9833 801.176 12.6 800.009 12.6C799.176 12.6 798.426 12.8833 797.759 13.45C797.093 14.0167 796.509 14.7333 796.009 15.6C795.543 16.4667 795.176 17.45 794.909 18.55C794.676 19.6167 794.559 20.65 794.559 21.65C794.559 23.1833 794.809 24.3333 795.309 25.1C795.843 25.8333 796.693 26.2333 797.859 26.3ZM800.509 3.15C802.109 3.15 803.693 3.36667 805.259 3.8C806.859 4.2 808.276 4.88333 809.509 5.85C810.776 6.78333 811.793 8.03333 812.559 9.6C813.326 11.1667 813.709 13.1 813.709 15.4C813.709 17.8 813.443 19.9333 812.909 21.8C812.376 23.6333 811.659 25.2333 810.759 26.6C809.893 27.9333 808.893 29.05 807.759 29.95C806.626 30.85 805.459 31.5667 804.259 32.1C803.059 32.6667 801.859 33.0667 800.659 33.3C799.493 33.5333 798.443 33.65 797.509 33.65C795.576 33.65 793.793 33.4 792.159 32.9C790.559 32.4333 789.176 31.7 788.009 30.7C786.843 29.7 785.926 28.4167 785.259 26.85C784.626 25.2833 784.309 23.4167 784.309 21.25C784.309 18.1833 784.776 15.5167 785.709 13.25C786.643 10.9833 787.859 9.1 789.359 7.6C790.893 6.1 792.626 4.98333 794.559 4.25C796.493 3.51667 798.476 3.15 800.509 3.15ZM819.683 4.5C820.083 4.5 820.516 4.48333 820.983 4.45C821.383 4.45 821.849 4.45 822.383 4.45C822.949 4.41667 823.549 4.4 824.183 4.4C825.083 4.4 826.016 4.41667 826.983 4.45C827.949 4.48333 828.866 4.53333 829.733 4.6C828.766 10.0667 828.066 14.2667 827.633 17.2C827.199 20.1 826.983 21.9167 826.983 22.65C826.983 23.7167 827.216 24.5167 827.683 25.05C828.183 25.55 828.766 25.8 829.433 25.8C830.099 25.8 830.749 25.5167 831.383 24.95C832.049 24.35 832.499 23.4667 832.733 22.3C833.299 19.2 833.633 16.2 833.733 13.3C833.866 10.4 833.966 7.75 834.033 5.35C834.399 5.25 834.916 5.15 835.583 5.05C836.283 4.95 837.049 4.86666 837.883 4.8C838.749 4.7 839.649 4.63333 840.583 4.6C841.549 4.53333 842.466 4.5 843.333 4.5H844.583C844.249 9.3 843.916 13.0833 843.583 15.85C843.283 18.5833 843.016 20.6333 842.783 22C842.483 23.6667 841.966 25.2333 841.233 26.7C840.533 28.1667 839.599 29.45 838.433 30.55C837.266 31.6167 835.866 32.4667 834.233 33.1C832.633 33.7333 830.783 34.05 828.683 34.05C826.583 34.05 824.816 33.75 823.383 33.15C821.983 32.5833 820.849 31.8 819.983 30.8C819.116 29.8 818.483 28.65 818.083 27.35C817.716 26.0167 817.533 24.6167 817.533 23.15C817.533 21.55 817.599 19.8333 817.733 18C817.899 16.1667 818.099 14.4 818.333 12.7C818.566 10.9667 818.799 9.38333 819.033 7.95C819.299 6.48333 819.516 5.33333 819.683 4.5ZM874.4 3.3C874.833 3.2 875.433 3.11667 876.2 3.05C877 2.98333 877.933 2.95 879 2.95C880.1 2.95 881.333 3 882.7 3.1C883.166 6.3 883.65 9.21667 884.15 11.85C884.683 14.4833 885.216 16.9167 885.75 19.15C886.316 21.3833 886.9 23.4667 887.5 25.4C888.133 27.3 888.8 29.1 889.5 30.8C888.266 31.4667 886.75 32.0667 884.95 32.6C883.183 33.1667 881.366 33.7 879.5 34.2C879.1 33.5667 878.683 32.7 878.25 31.6C877.816 30.5 877.466 29.3167 877.2 28.05C876.3 28.2167 875.233 28.3667 874 28.5C872.8 28.6333 871.433 28.7333 869.9 28.8C869.633 29.7667 869.383 30.6167 869.15 31.35C868.95 32.05 868.766 32.8167 868.6 33.65C866.9 33.5833 865.3 33.35 863.8 32.95C862.333 32.55 860.816 32.0833 859.25 31.55C859.983 29.5167 860.916 27.2833 862.05 24.85C863.183 22.4167 864.416 19.95 865.75 17.45C867.116 14.9167 868.533 12.4333 870 10C871.5 7.56667 872.966 5.33333 874.4 3.3ZM875.8 13.3C875.333 14.2 874.8 15.35 874.2 16.75C873.633 18.15 873.016 19.7333 872.35 21.5C872.45 21.5 872.583 21.5167 872.75 21.55C872.916 21.55 873.116 21.55 873.35 21.55C873.816 21.55 874.333 21.55 874.9 21.55C875.466 21.5167 875.966 21.5 876.4 21.5C876.2 20.1 876.05 18.7667 875.95 17.5C875.85 16.2 875.8 14.8 875.8 13.3ZM892.443 33.15C892.51 32.6167 892.626 31.6833 892.793 30.35C892.96 28.9833 893.143 27.4167 893.343 25.65C893.576 23.8833 893.826 22 894.093 20C894.36 18 894.626 16.0667 894.893 14.2C895.193 12.3 895.46 10.5833 895.693 9.05C895.926 7.48333 896.143 6.25 896.343 5.35C897.943 5.01666 899.576 4.71667 901.243 4.45C902.91 4.18333 904.776 4.03333 906.843 4C907.11 4.7 907.41 5.58333 907.743 6.65C908.076 7.71667 908.426 8.86667 908.793 10.1C909.16 11.3333 909.51 12.6167 909.843 13.95C910.21 15.25 910.526 16.4833 910.793 17.65C911.06 18.8167 911.276 19.8667 911.443 20.8C911.643 21.7 911.76 22.3833 911.793 22.85C911.893 21.25 911.976 19.7667 912.043 18.4C912.11 17 912.21 15.6 912.343 14.2C912.476 12.8 912.66 11.35 912.893 9.85C913.126 8.35 913.426 6.7 913.793 4.9H915.793C917.193 4.9 918.576 4.95 919.943 5.05C921.31 5.11667 922.443 5.25 923.343 5.45C922.843 7.78333 922.36 9.98333 921.893 12.05C921.46 14.1167 921.043 16.2 920.643 18.3C920.243 20.4 919.876 22.6 919.543 24.9C919.21 27.2 918.893 29.75 918.593 32.55C917.36 32.7833 916.226 32.9333 915.193 33C914.193 33.1 913.26 33.15 912.393 33.15C911.693 33.15 911.026 33.1333 910.393 33.1C909.793 33.0667 909.21 33.05 908.643 33.05C908.01 31.1167 907.426 29.4333 906.893 28C906.393 26.5333 905.926 25.25 905.493 24.15C905.06 23.0167 904.643 22.0167 904.243 21.15C903.843 20.25 903.426 19.3833 902.993 18.55C902.893 19.9833 902.793 21.3167 902.693 22.55C902.593 23.7833 902.51 24.9667 902.443 26.1C902.376 27.2333 902.31 28.3333 902.243 29.4C902.21 30.4667 902.193 31.5167 902.193 32.55C901.493 32.7167 900.71 32.8333 899.843 32.9C898.976 32.9667 898.093 33 897.193 33C896.326 33.0333 895.476 33.05 894.643 33.05C893.81 33.0833 893.076 33.1167 892.443 33.15ZM926.358 5.5C926.858 5.3 927.525 5.1 928.358 4.9C929.192 4.66666 930.108 4.45 931.108 4.25C932.108 4.05 933.158 3.88333 934.258 3.75C935.392 3.61667 936.508 3.51667 937.608 3.45C937.542 3.85 937.508 4.26667 937.508 4.7C937.508 5.1 937.508 5.51666 937.508 5.95C937.508 6.98333 937.558 8.05 937.658 9.15C937.758 10.2167 937.892 11.2667 938.058 12.3C938.225 13.3 938.442 14.2333 938.708 15.1C938.975 15.9667 939.292 16.7 939.658 17.3C940.592 15.9333 941.608 14.0833 942.708 11.75C943.808 9.38333 944.692 6.61667 945.358 3.45C946.825 3.45 948.492 3.63333 950.358 4C952.225 4.33333 954.042 4.96667 955.808 5.9C954.908 8.36667 953.892 10.4833 952.758 12.25C951.625 14.0167 950.475 15.5667 949.308 16.9C948.142 18.2 946.992 19.3333 945.858 20.3C944.758 21.2333 943.792 22.1 942.958 22.9C942.958 23.6667 942.925 24.55 942.858 25.55C942.792 26.5167 942.708 27.4667 942.608 28.4C942.508 29.3333 942.408 30.1667 942.308 30.9C942.242 31.6333 942.192 32.1333 942.158 32.4C941.025 32.5 939.942 32.5833 938.908 32.65C937.875 32.7167 936.892 32.75 935.958 32.75C935.358 32.75 934.792 32.7333 934.258 32.7C933.725 32.6667 933.225 32.6167 932.758 32.55C932.958 31.45 933.108 30.5 933.208 29.7C933.308 28.8667 933.408 28.1 933.508 27.4C933.608 26.6667 933.708 25.9667 933.808 25.3C933.908 24.6333 934.042 23.9 934.208 23.1C933.442 22.3 932.658 21.4167 931.858 20.45C931.058 19.45 930.292 18.2833 929.558 16.95C928.825 15.5833 928.175 13.9833 927.608 12.15C927.042 10.2833 926.625 8.06667 926.358 5.5ZM971.221 5.6C971.655 5.4 972.305 5.15 973.171 4.85C974.038 4.55 975.005 4.26667 976.071 4C977.138 3.73333 978.238 3.5 979.371 3.3C980.505 3.1 981.571 3 982.571 3C982.871 4.9 983.121 7 983.321 9.3C983.521 11.6 983.621 14.0667 983.621 16.7C983.621 17.2333 983.621 17.7667 983.621 18.3C983.621 18.8333 983.605 19.3833 983.571 19.95C983.805 19.3167 984.105 18.4833 984.471 17.45C984.871 16.4167 985.288 15.2667 985.721 14C986.188 12.7 986.655 11.35 987.121 9.95C987.621 8.51667 988.105 7.11667 988.571 5.75C989.371 5.75 990.288 5.85 991.321 6.05C992.388 6.21667 993.421 6.43333 994.421 6.7C994.488 7.96667 994.571 9.68333 994.671 11.85C994.805 13.9833 994.905 16.7 994.971 20C995.705 17.9333 996.438 15.5333 997.171 12.8C997.905 10.0333 998.655 6.86667 999.421 3.3C1000.92 3.36667 1002.59 3.65 1004.42 4.15C1006.29 4.61666 1008.07 5.3 1009.77 6.2C1008.84 9 1007.79 11.7833 1006.62 14.55C1005.45 17.3167 1004.34 19.9 1003.27 22.3C1002.2 24.7 1001.25 26.8333 1000.42 28.7C999.588 30.5667 999.021 32.0167 998.721 33.05C998.588 33.05 998.438 33.05 998.271 33.05C998.138 33.0833 997.988 33.1 997.821 33.1C997.255 33.1 996.605 33.0833 995.871 33.05C995.171 33.0167 994.455 32.9667 993.721 32.9C992.988 32.8667 992.305 32.8 991.671 32.7C991.038 32.6333 990.538 32.5667 990.171 32.5C990.071 30.4333 989.888 28.4833 989.621 26.65C989.388 24.8167 989.121 22.9333 988.821 21C988.588 21.8 988.321 22.7 988.021 23.7C987.721 24.6667 987.371 25.6667 986.971 26.7C986.605 27.7 986.221 28.7167 985.821 29.75C985.421 30.7833 985.005 31.7667 984.571 32.7C984.405 32.7333 984.238 32.75 984.071 32.75C983.938 32.75 983.788 32.75 983.621 32.75C982.521 32.75 981.305 32.6667 979.971 32.5C978.671 32.3333 977.505 32.15 976.471 31.95C976.205 30.2167 975.905 28.3333 975.571 26.3C975.238 24.2333 974.855 22.0667 974.421 19.8C974.021 17.5333 973.538 15.2 972.971 12.8C972.438 10.4 971.855 8 971.221 5.6ZM1023.97 26.3C1024.87 26.3 1025.63 26.0167 1026.27 25.45C1026.93 24.85 1027.47 24.0833 1027.87 23.15C1028.3 22.2167 1028.62 21.1833 1028.82 20.05C1029.02 18.9167 1029.12 17.8167 1029.12 16.75C1029.12 15.5167 1028.9 14.5167 1028.47 13.75C1028.07 12.9833 1027.28 12.6 1026.12 12.6C1025.28 12.6 1024.53 12.8833 1023.87 13.45C1023.2 14.0167 1022.62 14.7333 1022.12 15.6C1021.65 16.4667 1021.28 17.45 1021.02 18.55C1020.78 19.6167 1020.67 20.65 1020.67 21.65C1020.67 23.1833 1020.92 24.3333 1021.42 25.1C1021.95 25.8333 1022.8 26.2333 1023.97 26.3ZM1026.62 3.15C1028.22 3.15 1029.8 3.36667 1031.37 3.8C1032.97 4.2 1034.38 4.88333 1035.62 5.85C1036.88 6.78333 1037.9 8.03333 1038.67 9.6C1039.43 11.1667 1039.82 13.1 1039.82 15.4C1039.82 17.8 1039.55 19.9333 1039.02 21.8C1038.48 23.6333 1037.77 25.2333 1036.87 26.6C1036 27.9333 1035 29.05 1033.87 29.95C1032.73 30.85 1031.57 31.5667 1030.37 32.1C1029.17 32.6667 1027.97 33.0667 1026.77 33.3C1025.6 33.5333 1024.55 33.65 1023.62 33.65C1021.68 33.65 1019.9 33.4 1018.27 32.9C1016.67 32.4333 1015.28 31.7 1014.12 30.7C1012.95 29.7 1012.03 28.4167 1011.37 26.85C1010.73 25.2833 1010.42 23.4167 1010.42 21.25C1010.42 18.1833 1010.88 15.5167 1011.82 13.25C1012.75 10.9833 1013.97 9.1 1015.47 7.6C1017 6.1 1018.73 4.98333 1020.67 4.25C1022.6 3.51667 1024.58 3.15 1026.62 3.15ZM1056.78 26.3C1057.68 26.3 1058.44 26.0167 1059.08 25.45C1059.74 24.85 1060.28 24.0833 1060.68 23.15C1061.11 22.2167 1061.43 21.1833 1061.63 20.05C1061.83 18.9167 1061.93 17.8167 1061.93 16.75C1061.93 15.5167 1061.71 14.5167 1061.28 13.75C1060.88 12.9833 1060.09 12.6 1058.93 12.6C1058.09 12.6 1057.34 12.8833 1056.68 13.45C1056.01 14.0167 1055.43 14.7333 1054.93 15.6C1054.46 16.4667 1054.09 17.45 1053.83 18.55C1053.59 19.6167 1053.48 20.65 1053.48 21.65C1053.48 23.1833 1053.73 24.3333 1054.23 25.1C1054.76 25.8333 1055.61 26.2333 1056.78 26.3ZM1059.43 3.15C1061.03 3.15 1062.61 3.36667 1064.18 3.8C1065.78 4.2 1067.19 4.88333 1068.43 5.85C1069.69 6.78333 1070.71 8.03333 1071.48 9.6C1072.24 11.1667 1072.63 13.1 1072.63 15.4C1072.63 17.8 1072.36 19.9333 1071.83 21.8C1071.29 23.6333 1070.58 25.2333 1069.68 26.6C1068.81 27.9333 1067.81 29.05 1066.68 29.95C1065.54 30.85 1064.38 31.5667 1063.18 32.1C1061.98 32.6667 1060.78 33.0667 1059.58 33.3C1058.41 33.5333 1057.36 33.65 1056.43 33.65C1054.49 33.65 1052.71 33.4 1051.08 32.9C1049.48 32.4333 1048.09 31.7 1046.93 30.7C1045.76 29.7 1044.84 28.4167 1044.18 26.85C1043.54 25.2833 1043.23 23.4167 1043.23 21.25C1043.23 18.1833 1043.69 15.5167 1044.63 13.25C1045.56 10.9833 1046.78 9.1 1048.28 7.6C1049.81 6.1 1051.54 4.98333 1053.48 4.25C1055.41 3.51667 1057.39 3.15 1059.43 3.15ZM1079.69 4.3C1080.32 4.2 1081.2 4.15 1082.34 4.15C1083.57 4.15 1084.9 4.23333 1086.34 4.4C1087.8 4.53333 1089.12 4.73333 1090.29 5C1089.92 6.26667 1089.52 7.78333 1089.09 9.55C1088.69 11.3167 1088.29 13.15 1087.89 15.05C1087.52 16.9167 1087.17 18.75 1086.84 20.55C1086.54 22.35 1086.29 23.9167 1086.09 25.25C1087.42 24.95 1089.07 24.6333 1091.04 24.3C1093 23.9333 1095.34 23.65 1098.04 23.45C1098.04 23.8167 1098.04 24.2833 1098.04 24.85C1098.07 25.3833 1098.09 25.9833 1098.09 26.65C1098.09 27.6167 1098.05 28.6333 1097.99 29.7C1097.92 30.7667 1097.8 31.6833 1097.64 32.45C1096.97 32.55 1095.97 32.6333 1094.64 32.7C1093.3 32.8 1091.82 32.8833 1090.19 32.95C1088.59 33.0167 1086.9 33.0667 1085.14 33.1C1083.37 33.1333 1081.72 33.15 1080.19 33.15C1079.32 33.15 1078.52 33.1333 1077.79 33.1C1077.05 33.1 1076.39 33.0833 1075.79 33.05C1075.89 31.9167 1076.02 30.6 1076.19 29.1C1076.35 27.6 1076.54 26 1076.74 24.3C1076.97 22.5667 1077.2 20.8 1077.44 19C1077.7 17.1667 1077.95 15.3833 1078.19 13.65C1078.45 11.8833 1078.7 10.2 1078.94 8.6C1079.2 7 1079.45 5.56667 1079.69 4.3ZM1107.05 22.3C1107.08 21.3667 1107.32 20.5167 1107.75 19.75C1108.22 18.9833 1108.77 18.2833 1109.4 17.65C1110.03 16.9833 1110.7 16.3833 1111.4 15.85C1112.13 15.2833 1112.8 14.7667 1113.4 14.3C1114.03 13.8 1114.55 13.3167 1114.95 12.85C1115.38 12.3833 1115.6 11.9167 1115.6 11.45C1115.6 10.95 1115.42 10.5667 1115.05 10.3C1114.68 10 1114.25 9.85 1113.75 9.85C1112.92 9.85 1111.95 10.2 1110.85 10.9C1109.78 11.5667 1108.78 12.55 1107.85 13.85C1106.55 12.9833 1105.45 12.1 1104.55 11.2C1103.65 10.3 1102.85 9.26667 1102.15 8.1C1103.05 6.93333 1104 5.98333 1105 5.25C1106.03 4.48333 1107.1 3.9 1108.2 3.5C1109.33 3.06667 1110.5 2.78333 1111.7 2.65C1112.9 2.48333 1114.13 2.4 1115.4 2.4C1116.8 2.4 1118.12 2.58333 1119.35 2.95C1120.58 3.28333 1121.67 3.78333 1122.6 4.45C1123.53 5.08333 1124.27 5.85 1124.8 6.75C1125.33 7.65 1125.6 8.63333 1125.6 9.7C1125.6 11.3 1125.33 12.5667 1124.8 13.5C1124.27 14.4333 1123.6 15.2 1122.8 15.8C1122 16.3667 1121.12 16.85 1120.15 17.25C1119.22 17.6167 1118.32 18.0333 1117.45 18.5C1116.58 18.9333 1115.83 19.4833 1115.2 20.15C1114.57 20.8167 1114.18 21.75 1114.05 22.95H1113.25C1112.02 22.95 1110.85 22.8833 1109.75 22.75C1108.65 22.6167 1107.75 22.4667 1107.05 22.3ZM1107.1 25.75C1107.8 25.45 1108.5 25.3 1109.2 25.3C1109.8 25.3 1110.37 25.4 1110.9 25.6C1111.47 25.8 1111.97 26.0833 1112.4 26.45C1112.83 26.7833 1113.17 27.1833 1113.4 27.65C1113.67 28.1167 1113.8 28.6333 1113.8 29.2C1113.8 30.0333 1113.63 30.7333 1113.3 31.3C1113 31.8333 1112.62 32.2667 1112.15 32.6C1111.72 32.9333 1111.23 33.1667 1110.7 33.3C1110.2 33.4333 1109.75 33.5 1109.35 33.5C1107.78 33.5 1106.57 33.15 1105.7 32.45C1104.87 31.7833 1104.45 30.8667 1104.45 29.7C1104.45 28.9333 1104.67 28.1833 1105.1 27.45C1105.53 26.7167 1106.2 26.15 1107.1 25.75ZM1143.19 5.5C1143.69 5.3 1144.35 5.1 1145.19 4.9C1146.02 4.66666 1146.94 4.45 1147.94 4.25C1148.94 4.05 1149.99 3.88333 1151.09 3.75C1152.22 3.61667 1153.34 3.51667 1154.44 3.45C1154.37 3.85 1154.34 4.26667 1154.34 4.7C1154.34 5.1 1154.34 5.51666 1154.34 5.95C1154.34 6.98333 1154.39 8.05 1154.49 9.15C1154.59 10.2167 1154.72 11.2667 1154.89 12.3C1155.05 13.3 1155.27 14.2333 1155.54 15.1C1155.8 15.9667 1156.12 16.7 1156.49 17.3C1157.42 15.9333 1158.44 14.0833 1159.54 11.75C1160.64 9.38333 1161.52 6.61667 1162.19 3.45C1163.65 3.45 1165.32 3.63333 1167.19 4C1169.05 4.33333 1170.87 4.96667 1172.64 5.9C1171.74 8.36667 1170.72 10.4833 1169.59 12.25C1168.45 14.0167 1167.3 15.5667 1166.14 16.9C1164.97 18.2 1163.82 19.3333 1162.69 20.3C1161.59 21.2333 1160.62 22.1 1159.79 22.9C1159.79 23.6667 1159.75 24.55 1159.69 25.55C1159.62 26.5167 1159.54 27.4667 1159.44 28.4C1159.34 29.3333 1159.24 30.1667 1159.14 30.9C1159.07 31.6333 1159.02 32.1333 1158.99 32.4C1157.85 32.5 1156.77 32.5833 1155.74 32.65C1154.7 32.7167 1153.72 32.75 1152.79 32.75C1152.19 32.75 1151.62 32.7333 1151.09 32.7C1150.55 32.6667 1150.05 32.6167 1149.59 32.55C1149.79 31.45 1149.94 30.5 1150.04 29.7C1150.14 28.8667 1150.24 28.1 1150.34 27.4C1150.44 26.6667 1150.54 25.9667 1150.64 25.3C1150.74 24.6333 1150.87 23.9 1151.04 23.1C1150.27 22.3 1149.49 21.4167 1148.69 20.45C1147.89 19.45 1147.12 18.2833 1146.39 16.95C1145.65 15.5833 1145 13.9833 1144.44 12.15C1143.87 10.2833 1143.45 8.06667 1143.19 5.5ZM1176.3 5.05C1176.8 4.91666 1177.75 4.8 1179.15 4.7C1180.55 4.56667 1182.15 4.45 1183.95 4.35C1185.75 4.25 1187.63 4.18333 1189.6 4.15C1191.56 4.08333 1193.38 4.05 1195.05 4.05C1195.71 4.05 1196.35 4.05 1196.95 4.05C1197.55 4.05 1198.1 4.06667 1198.6 4.1C1198.53 4.76666 1198.45 5.51666 1198.35 6.35C1198.28 7.18333 1198.18 8 1198.05 8.8C1197.95 9.6 1197.83 10.35 1197.7 11.05C1197.56 11.7167 1197.45 12.25 1197.35 12.65C1196.15 12.5833 1195.05 12.5 1194.05 12.4C1193.08 12.3 1192.11 12.2 1191.15 12.1C1190.21 11.9667 1189.25 11.8667 1188.25 11.8C1187.25 11.7 1186.15 11.6333 1184.95 11.6L1183.95 16.55C1185.21 16.2167 1186.61 15.9333 1188.15 15.7C1189.71 15.4333 1191.2 15.3 1192.6 15.3H1193.2C1193.2 16.4333 1193.13 17.6 1193 18.8C1192.9 19.9667 1192.78 20.95 1192.65 21.75H1191.35C1189.78 21.75 1188.36 21.8167 1187.1 21.95C1185.86 22.05 1184.51 22.1667 1183.05 22.3C1182.95 22.9333 1182.86 23.55 1182.8 24.15C1182.76 24.7167 1182.71 25.3333 1182.65 26C1184.41 25.9667 1186.33 25.8167 1188.4 25.55C1190.46 25.25 1192.86 24.9333 1195.6 24.6C1195.63 25.3333 1195.66 26.0167 1195.7 26.65C1195.73 27.2833 1195.75 27.9333 1195.75 28.6C1195.75 29.7 1195.7 30.9667 1195.6 32.4C1194.03 32.6333 1192.15 32.7833 1189.95 32.85C1187.75 32.9167 1185.51 32.95 1183.25 32.95C1181.18 32.95 1179.23 32.9333 1177.4 32.9C1175.56 32.8667 1174.03 32.8167 1172.8 32.75C1172.83 31.7833 1172.93 30.5167 1173.1 28.95C1173.26 27.35 1173.45 25.65 1173.65 23.85C1173.88 22.0167 1174.11 20.1333 1174.35 18.2C1174.61 16.2333 1174.86 14.4 1175.1 12.7C1175.36 10.9667 1175.6 9.43333 1175.8 8.1C1176 6.73333 1176.16 5.71666 1176.3 5.05ZM1221.54 15.2C1221.34 15.1333 1220.99 14.95 1220.49 14.65C1220.02 14.3167 1219.45 13.9667 1218.79 13.6C1218.15 13.2333 1217.45 12.9 1216.69 12.6C1215.95 12.3 1215.24 12.15 1214.54 12.15C1213.64 12.15 1212.92 12.3667 1212.39 12.8C1211.89 13.2 1211.64 13.6833 1211.64 14.25C1211.64 14.8167 1211.92 15.3667 1212.49 15.9C1213.05 16.4333 1213.97 16.8333 1215.24 17.1C1217.14 17.5 1218.65 18.0333 1219.79 18.7C1220.92 19.3333 1221.79 20.0167 1222.39 20.75C1223.02 21.45 1223.44 22.1667 1223.64 22.9C1223.84 23.6 1223.94 24.2 1223.94 24.7C1223.94 26.3667 1223.59 27.85 1222.89 29.15C1222.19 30.4167 1221.29 31.4833 1220.19 32.35C1219.09 33.2167 1217.84 33.8667 1216.44 34.3C1215.07 34.7667 1213.69 35 1212.29 35C1210.82 35 1209.44 34.8333 1208.14 34.5C1206.84 34.2 1205.65 33.7667 1204.59 33.2C1203.55 32.6667 1202.65 32.0167 1201.89 31.25C1201.15 30.4833 1200.62 29.6333 1200.29 28.7C1200.72 28.1333 1201.2 27.5667 1201.74 27C1202.3 26.4 1202.89 25.8333 1203.49 25.3C1204.09 24.7333 1204.67 24.2 1205.24 23.7C1205.84 23.2 1206.37 22.75 1206.84 22.35C1208 23.75 1209.12 24.7333 1210.19 25.3C1211.29 25.8333 1212.27 26.1 1213.14 26.1C1213.57 26.1 1213.99 26 1214.39 25.8C1214.79 25.5667 1214.99 25.0667 1214.99 24.3C1214.99 23.9 1214.9 23.5833 1214.74 23.35C1214.57 23.0833 1214.29 22.85 1213.89 22.65C1213.49 22.45 1212.97 22.25 1212.34 22.05C1211.7 21.85 1210.92 21.6 1209.99 21.3C1208.82 20.9333 1207.74 20.5333 1206.74 20.1C1205.77 19.6333 1204.94 19.0833 1204.24 18.45C1203.54 17.8167 1202.99 17.0833 1202.59 16.25C1202.19 15.3833 1201.99 14.35 1201.99 13.15C1201.99 11.2167 1202.32 9.55 1202.99 8.15C1203.65 6.75 1204.55 5.6 1205.69 4.7C1206.82 3.8 1208.12 3.15 1209.59 2.75C1211.09 2.31666 1212.67 2.1 1214.34 2.1C1216.67 2.1 1219 2.5 1221.34 3.3C1223.67 4.06667 1225.7 5.15 1227.44 6.55C1227.17 7.31667 1226.8 8.11667 1226.34 8.95C1225.87 9.75 1225.35 10.5333 1224.79 11.3C1224.25 12.0667 1223.69 12.8 1223.09 13.5C1222.52 14.1667 1222 14.7333 1221.54 15.2ZM1227.99 27.1C1227.99 26.3 1228.14 25.6167 1228.44 25.05C1228.77 24.45 1229.19 23.95 1229.69 23.55C1230.22 23.15 1230.8 22.85 1231.44 22.65C1232.1 22.45 1232.79 22.35 1233.49 22.35C1235.09 22.35 1236.4 22.8167 1237.44 23.75C1238.5 24.65 1239.04 26.05 1239.04 27.95C1239.04 29.25 1238.79 30.45 1238.29 31.55C1237.79 32.65 1237.14 33.6167 1236.34 34.45C1235.57 35.3167 1234.7 36.0167 1233.74 36.55C1232.8 37.1167 1231.89 37.5167 1230.99 37.75C1230.69 37.6167 1230.42 37.3833 1230.19 37.05C1229.95 36.75 1229.74 36.4 1229.54 36C1229.37 35.6333 1229.24 35.25 1229.14 34.85C1229.04 34.45 1228.99 34.0667 1228.99 33.7C1228.99 33.4667 1229.25 33.2333 1229.79 33C1230.35 32.8 1230.95 32.55 1231.59 32.25C1232.25 31.95 1232.85 31.5833 1233.39 31.15C1233.95 30.6833 1234.24 30.1 1234.24 29.4V29.2C1233.7 29.7 1233.17 30.0667 1232.64 30.3C1232.14 30.5 1231.65 30.6 1231.19 30.6C1230.29 30.6 1229.52 30.2833 1228.89 29.65C1228.29 28.9833 1227.99 28.1333 1227.99 27.1ZM1279.15 15.2C1278.95 15.1333 1278.6 14.95 1278.1 14.65C1277.63 14.3167 1277.06 13.9667 1276.4 13.6C1275.76 13.2333 1275.06 12.9 1274.3 12.6C1273.56 12.3 1272.85 12.15 1272.15 12.15C1271.25 12.15 1270.53 12.3667 1270 12.8C1269.5 13.2 1269.25 13.6833 1269.25 14.25C1269.25 14.8167 1269.53 15.3667 1270.1 15.9C1270.66 16.4333 1271.58 16.8333 1272.85 17.1C1274.75 17.5 1276.26 18.0333 1277.4 18.7C1278.53 19.3333 1279.4 20.0167 1280 20.75C1280.63 21.45 1281.05 22.1667 1281.25 22.9C1281.45 23.6 1281.55 24.2 1281.55 24.7C1281.55 26.3667 1281.2 27.85 1280.5 29.15C1279.8 30.4167 1278.9 31.4833 1277.8 32.35C1276.7 33.2167 1275.45 33.8667 1274.05 34.3C1272.68 34.7667 1271.3 35 1269.9 35C1268.43 35 1267.05 34.8333 1265.75 34.5C1264.45 34.2 1263.26 33.7667 1262.2 33.2C1261.16 32.6667 1260.26 32.0167 1259.5 31.25C1258.76 30.4833 1258.23 29.6333 1257.9 28.7C1258.33 28.1333 1258.81 27.5667 1259.35 27C1259.91 26.4 1260.5 25.8333 1261.1 25.3C1261.7 24.7333 1262.28 24.2 1262.85 23.7C1263.45 23.2 1263.98 22.75 1264.45 22.35C1265.61 23.75 1266.73 24.7333 1267.8 25.3C1268.9 25.8333 1269.88 26.1 1270.75 26.1C1271.18 26.1 1271.6 26 1272 25.8C1272.4 25.5667 1272.6 25.0667 1272.6 24.3C1272.6 23.9 1272.51 23.5833 1272.35 23.35C1272.18 23.0833 1271.9 22.85 1271.5 22.65C1271.1 22.45 1270.58 22.25 1269.95 22.05C1269.31 21.85 1268.53 21.6 1267.6 21.3C1266.43 20.9333 1265.35 20.5333 1264.35 20.1C1263.38 19.6333 1262.55 19.0833 1261.85 18.45C1261.15 17.8167 1260.6 17.0833 1260.2 16.25C1259.8 15.3833 1259.6 14.35 1259.6 13.15C1259.6 11.2167 1259.93 9.55 1260.6 8.15C1261.26 6.75 1262.16 5.6 1263.3 4.7C1264.43 3.8 1265.73 3.15 1267.2 2.75C1268.7 2.31666 1270.28 2.1 1271.95 2.1C1274.28 2.1 1276.61 2.5 1278.95 3.3C1281.28 4.06667 1283.31 5.15 1285.05 6.55C1284.78 7.31667 1284.41 8.11667 1283.95 8.95C1283.48 9.75 1282.96 10.5333 1282.4 11.3C1281.86 12.0667 1281.3 12.8 1280.7 13.5C1280.13 14.1667 1279.61 14.7333 1279.15 15.2ZM1287.31 33.15C1287.28 32.95 1287.26 32.7333 1287.26 32.5C1287.26 32.2667 1287.26 32 1287.26 31.7C1287.26 30.7 1287.31 29.45 1287.41 27.95C1287.51 26.45 1287.63 24.8333 1287.76 23.1C1287.93 21.3333 1288.11 19.5333 1288.31 17.7C1288.55 15.8667 1288.78 14.1 1289.01 12.4C1289.25 10.6667 1289.48 9.08333 1289.71 7.65C1289.98 6.18333 1290.23 4.98333 1290.46 4.05C1291.6 3.95 1292.85 3.9 1294.21 3.9C1295.41 3.9 1296.56 3.95 1297.66 4.05C1298.8 4.15 1299.76 4.3 1300.56 4.5C1300.1 6.23333 1299.63 8.31667 1299.16 10.75C1298.73 13.15 1298.31 15.65 1297.91 18.25C1297.55 20.85 1297.21 23.4 1296.91 25.9C1296.61 28.4 1296.38 30.6 1296.21 32.5C1294.78 32.6667 1293.3 32.8167 1291.76 32.95C1290.26 33.0833 1288.78 33.15 1287.31 33.15ZM1314.12 23.7C1313.85 23.7333 1313.62 23.75 1313.42 23.75C1313.25 23.75 1313.1 23.7667 1312.97 23.8C1312.83 23.8333 1312.72 23.85 1312.62 23.85C1312.58 24.0167 1312.55 24.35 1312.52 24.85C1312.48 25.3167 1312.45 25.8667 1312.42 26.5C1312.38 27.1333 1312.35 27.8 1312.32 28.5C1312.28 29.2 1312.25 29.85 1312.22 30.45C1312.22 31.0167 1312.2 31.5 1312.17 31.9C1312.17 32.2667 1312.17 32.4667 1312.17 32.5C1311.4 32.7 1310.47 32.85 1309.37 32.95C1308.3 33.05 1307.25 33.1 1306.22 33.1C1304.95 33.1 1303.93 33.0167 1303.17 32.85C1303.2 32.05 1303.28 30.8833 1303.42 29.35C1303.55 27.7833 1303.7 26.05 1303.87 24.15C1304.07 22.2167 1304.28 20.2167 1304.52 18.15C1304.75 16.0833 1304.98 14.15 1305.22 12.35C1305.45 10.5167 1305.67 8.91667 1305.87 7.55C1306.07 6.15 1306.25 5.18333 1306.42 4.65C1310.35 3.81666 1313.77 3.4 1316.67 3.4C1318.87 3.4 1320.75 3.61667 1322.32 4.05C1323.92 4.48333 1325.22 5.08333 1326.22 5.85C1327.25 6.61667 1328 7.51667 1328.47 8.55C1328.97 9.58333 1329.22 10.7 1329.22 11.9C1329.22 13.1333 1329.05 14.3 1328.72 15.4C1328.42 16.5 1327.9 17.5 1327.17 18.4C1326.43 19.3 1325.45 20.1 1324.22 20.8C1323.02 21.5 1321.52 22.0833 1319.72 22.55C1320.82 23.5167 1322.13 24.25 1323.67 24.75C1325.23 25.2167 1327.07 25.5167 1329.17 25.65C1329 27.4833 1328.63 29.2667 1328.07 31C1327.5 32.7333 1326.78 34.1833 1325.92 35.35C1324.25 35.3167 1322.75 35.0833 1321.42 34.65C1320.12 34.2167 1318.97 33.5333 1317.97 32.6C1317 31.7 1316.2 30.5167 1315.57 29.05C1314.93 27.5833 1314.45 25.8 1314.12 23.7ZM1313.22 18.35C1313.32 18.35 1313.42 18.3667 1313.52 18.4C1313.62 18.4 1313.72 18.4 1313.82 18.4C1314.52 18.4 1315.2 18.3167 1315.87 18.15C1316.57 17.9833 1317.18 17.7167 1317.72 17.35C1318.28 16.9833 1318.73 16.5167 1319.07 15.95C1319.4 15.3833 1319.57 14.7 1319.57 13.9C1319.57 12.7333 1319.23 11.9667 1318.57 11.6C1317.9 11.2333 1317.17 11.05 1316.37 11.05C1316.03 11.05 1315.72 11.0667 1315.42 11.1C1315.12 11.1333 1314.83 11.1667 1314.57 11.2C1314.4 11.6333 1314.23 12.1667 1314.07 12.8C1313.93 13.4333 1313.8 14.0833 1313.67 14.75C1313.57 15.4167 1313.47 16.0833 1313.37 16.75C1313.3 17.3833 1313.25 17.9167 1313.22 18.35ZM1333.06 27.1C1333.06 26.3 1333.21 25.6167 1333.51 25.05C1333.84 24.45 1334.26 23.95 1334.76 23.55C1335.29 23.15 1335.87 22.85 1336.51 22.65C1337.17 22.45 1337.86 22.35 1338.56 22.35C1340.16 22.35 1341.47 22.8167 1342.51 23.75C1343.57 24.65 1344.11 26.05 1344.11 27.95C1344.11 29.25 1343.86 30.45 1343.36 31.55C1342.86 32.65 1342.21 33.6167 1341.41 34.45C1340.64 35.3167 1339.77 36.0167 1338.81 36.55C1337.87 37.1167 1336.96 37.5167 1336.06 37.75C1335.76 37.6167 1335.49 37.3833 1335.26 37.05C1335.02 36.75 1334.81 36.4 1334.61 36C1334.44 35.6333 1334.31 35.25 1334.21 34.85C1334.11 34.45 1334.06 34.0667 1334.06 33.7C1334.06 33.4667 1334.32 33.2333 1334.86 33C1335.42 32.8 1336.02 32.55 1336.66 32.25C1337.32 31.95 1337.92 31.5833 1338.46 31.15C1339.02 30.6833 1339.31 30.1 1339.31 29.4V29.2C1338.77 29.7 1338.24 30.0667 1337.71 30.3C1337.21 30.5 1336.72 30.6 1336.26 30.6C1335.36 30.6 1334.59 30.2833 1333.96 29.65C1333.36 28.9833 1333.06 28.1333 1333.06 27.1Z" fill="black"/>
<path d="M1418.45 5.5C1418.95 5.3 1419.62 5.1 1420.45 4.9C1421.28 4.66666 1422.2 4.45 1423.2 4.25C1424.2 4.05 1425.25 3.88333 1426.35 3.75C1427.48 3.61667 1428.6 3.51667 1429.7 3.45C1429.63 3.85 1429.6 4.26667 1429.6 4.7C1429.6 5.1 1429.6 5.51666 1429.6 5.95C1429.6 6.98333 1429.65 8.05 1429.75 9.15C1429.85 10.2167 1429.98 11.2667 1430.15 12.3C1430.32 13.3 1430.53 14.2333 1430.8 15.1C1431.07 15.9667 1431.38 16.7 1431.75 17.3C1432.68 15.9333 1433.7 14.0833 1434.8 11.75C1435.9 9.38333 1436.78 6.61667 1437.45 3.45C1438.92 3.45 1440.58 3.63333 1442.45 4C1444.32 4.33333 1446.13 4.96667 1447.9 5.9C1447 8.36667 1445.98 10.4833 1444.85 12.25C1443.72 14.0167 1442.57 15.5667 1441.4 16.9C1440.23 18.2 1439.08 19.3333 1437.95 20.3C1436.85 21.2333 1435.88 22.1 1435.05 22.9C1435.05 23.6667 1435.02 24.55 1434.95 25.55C1434.88 26.5167 1434.8 27.4667 1434.7 28.4C1434.6 29.3333 1434.5 30.1667 1434.4 30.9C1434.33 31.6333 1434.28 32.1333 1434.25 32.4C1433.12 32.5 1432.03 32.5833 1431 32.65C1429.97 32.7167 1428.98 32.75 1428.05 32.75C1427.45 32.75 1426.88 32.7333 1426.35 32.7C1425.82 32.6667 1425.32 32.6167 1424.85 32.55C1425.05 31.45 1425.2 30.5 1425.3 29.7C1425.4 28.8667 1425.5 28.1 1425.6 27.4C1425.7 26.6667 1425.8 25.9667 1425.9 25.3C1426 24.6333 1426.13 23.9 1426.3 23.1C1425.53 22.3 1424.75 21.4167 1423.95 20.45C1423.15 19.45 1422.38 18.2833 1421.65 16.95C1420.92 15.5833 1420.27 13.9833 1419.7 12.15C1419.13 10.2833 1418.72 8.06667 1418.45 5.5ZM1451.56 5.05C1452.06 4.91666 1453.01 4.8 1454.41 4.7C1455.81 4.56667 1457.41 4.45 1459.21 4.35C1461.01 4.25 1462.89 4.18333 1464.86 4.15C1466.82 4.08333 1468.64 4.05 1470.31 4.05C1470.97 4.05 1471.61 4.05 1472.21 4.05C1472.81 4.05 1473.36 4.06667 1473.86 4.1C1473.79 4.76666 1473.71 5.51666 1473.61 6.35C1473.54 7.18333 1473.44 8 1473.31 8.8C1473.21 9.6 1473.09 10.35 1472.96 11.05C1472.82 11.7167 1472.71 12.25 1472.61 12.65C1471.41 12.5833 1470.31 12.5 1469.31 12.4C1468.34 12.3 1467.37 12.2 1466.41 12.1C1465.47 11.9667 1464.51 11.8667 1463.51 11.8C1462.51 11.7 1461.41 11.6333 1460.21 11.6L1459.21 16.55C1460.47 16.2167 1461.87 15.9333 1463.41 15.7C1464.97 15.4333 1466.46 15.3 1467.86 15.3H1468.46C1468.46 16.4333 1468.39 17.6 1468.26 18.8C1468.16 19.9667 1468.04 20.95 1467.91 21.75H1466.61C1465.04 21.75 1463.62 21.8167 1462.36 21.95C1461.12 22.05 1459.77 22.1667 1458.31 22.3C1458.21 22.9333 1458.12 23.55 1458.06 24.15C1458.02 24.7167 1457.97 25.3333 1457.91 26C1459.67 25.9667 1461.59 25.8167 1463.66 25.55C1465.72 25.25 1468.12 24.9333 1470.86 24.6C1470.89 25.3333 1470.92 26.0167 1470.96 26.65C1470.99 27.2833 1471.01 27.9333 1471.01 28.6C1471.01 29.7 1470.96 30.9667 1470.86 32.4C1469.29 32.6333 1467.41 32.7833 1465.21 32.85C1463.01 32.9167 1460.77 32.95 1458.51 32.95C1456.44 32.95 1454.49 32.9333 1452.66 32.9C1450.82 32.8667 1449.29 32.8167 1448.06 32.75C1448.09 31.7833 1448.19 30.5167 1448.36 28.95C1448.52 27.35 1448.71 25.65 1448.91 23.85C1449.14 22.0167 1449.37 20.1333 1449.61 18.2C1449.87 16.2333 1450.12 14.4 1450.36 12.7C1450.62 10.9667 1450.86 9.43333 1451.06 8.1C1451.26 6.73333 1451.42 5.71666 1451.56 5.05ZM1496.8 15.2C1496.6 15.1333 1496.25 14.95 1495.75 14.65C1495.28 14.3167 1494.71 13.9667 1494.05 13.6C1493.41 13.2333 1492.71 12.9 1491.95 12.6C1491.21 12.3 1490.5 12.15 1489.8 12.15C1488.9 12.15 1488.18 12.3667 1487.65 12.8C1487.15 13.2 1486.9 13.6833 1486.9 14.25C1486.9 14.8167 1487.18 15.3667 1487.75 15.9C1488.31 16.4333 1489.23 16.8333 1490.5 17.1C1492.4 17.5 1493.91 18.0333 1495.05 18.7C1496.18 19.3333 1497.05 20.0167 1497.65 20.75C1498.28 21.45 1498.7 22.1667 1498.9 22.9C1499.1 23.6 1499.2 24.2 1499.2 24.7C1499.2 26.3667 1498.85 27.85 1498.15 29.15C1497.45 30.4167 1496.55 31.4833 1495.45 32.35C1494.35 33.2167 1493.1 33.8667 1491.7 34.3C1490.33 34.7667 1488.95 35 1487.55 35C1486.08 35 1484.7 34.8333 1483.4 34.5C1482.1 34.2 1480.91 33.7667 1479.85 33.2C1478.81 32.6667 1477.91 32.0167 1477.15 31.25C1476.41 30.4833 1475.88 29.6333 1475.55 28.7C1475.98 28.1333 1476.46 27.5667 1477 27C1477.56 26.4 1478.15 25.8333 1478.75 25.3C1479.35 24.7333 1479.93 24.2 1480.5 23.7C1481.1 23.2 1481.63 22.75 1482.1 22.35C1483.26 23.75 1484.38 24.7333 1485.45 25.3C1486.55 25.8333 1487.53 26.1 1488.4 26.1C1488.83 26.1 1489.25 26 1489.65 25.8C1490.05 25.5667 1490.25 25.0667 1490.25 24.3C1490.25 23.9 1490.16 23.5833 1490 23.35C1489.83 23.0833 1489.55 22.85 1489.15 22.65C1488.75 22.45 1488.23 22.25 1487.6 22.05C1486.96 21.85 1486.18 21.6 1485.25 21.3C1484.08 20.9333 1483 20.5333 1482 20.1C1481.03 19.6333 1480.2 19.0833 1479.5 18.45C1478.8 17.8167 1478.25 17.0833 1477.85 16.25C1477.45 15.3833 1477.25 14.35 1477.25 13.15C1477.25 11.2167 1477.58 9.55 1478.25 8.15C1478.91 6.75 1479.81 5.6 1480.95 4.7C1482.08 3.8 1483.38 3.15 1484.85 2.75C1486.35 2.31666 1487.93 2.1 1489.6 2.1C1491.93 2.1 1494.26 2.5 1496.6 3.3C1498.93 4.06667 1500.96 5.15 1502.7 6.55C1502.43 7.31667 1502.06 8.11667 1501.6 8.95C1501.13 9.75 1500.61 10.5333 1500.05 11.3C1499.51 12.0667 1498.95 12.8 1498.35 13.5C1497.78 14.1667 1497.26 14.7333 1496.8 15.2ZM1503.25 27.1C1503.25 26.3 1503.4 25.6167 1503.7 25.05C1504.03 24.45 1504.45 23.95 1504.95 23.55C1505.48 23.15 1506.07 22.85 1506.7 22.65C1507.37 22.45 1508.05 22.35 1508.75 22.35C1510.35 22.35 1511.67 22.8167 1512.7 23.75C1513.77 24.65 1514.3 26.05 1514.3 27.95C1514.3 29.25 1514.05 30.45 1513.55 31.55C1513.05 32.65 1512.4 33.6167 1511.6 34.45C1510.83 35.3167 1509.97 36.0167 1509 36.55C1508.07 37.1167 1507.15 37.5167 1506.25 37.75C1505.95 37.6167 1505.68 37.3833 1505.45 37.05C1505.22 36.75 1505 36.4 1504.8 36C1504.63 35.6333 1504.5 35.25 1504.4 34.85C1504.3 34.45 1504.25 34.0667 1504.25 33.7C1504.25 33.4667 1504.52 33.2333 1505.05 33C1505.62 32.8 1506.22 32.55 1506.85 32.25C1507.52 31.95 1508.12 31.5833 1508.65 31.15C1509.22 30.6833 1509.5 30.1 1509.5 29.4V29.2C1508.97 29.7 1508.43 30.0667 1507.9 30.3C1507.4 30.5 1506.92 30.6 1506.45 30.6C1505.55 30.6 1504.78 30.2833 1504.15 29.65C1503.55 28.9833 1503.25 28.1333 1503.25 27.1ZM1554.41 15.2C1554.21 15.1333 1553.86 14.95 1553.36 14.65C1552.89 14.3167 1552.32 13.9667 1551.66 13.6C1551.02 13.2333 1550.32 12.9 1549.56 12.6C1548.82 12.3 1548.11 12.15 1547.41 12.15C1546.51 12.15 1545.79 12.3667 1545.26 12.8C1544.76 13.2 1544.51 13.6833 1544.51 14.25C1544.51 14.8167 1544.79 15.3667 1545.36 15.9C1545.92 16.4333 1546.84 16.8333 1548.11 17.1C1550.01 17.5 1551.52 18.0333 1552.66 18.7C1553.79 19.3333 1554.66 20.0167 1555.26 20.75C1555.89 21.45 1556.31 22.1667 1556.51 22.9C1556.71 23.6 1556.81 24.2 1556.81 24.7C1556.81 26.3667 1556.46 27.85 1555.76 29.15C1555.06 30.4167 1554.16 31.4833 1553.06 32.35C1551.96 33.2167 1550.71 33.8667 1549.31 34.3C1547.94 34.7667 1546.56 35 1545.16 35C1543.69 35 1542.31 34.8333 1541.01 34.5C1539.71 34.2 1538.52 33.7667 1537.46 33.2C1536.42 32.6667 1535.52 32.0167 1534.76 31.25C1534.02 30.4833 1533.49 29.6333 1533.16 28.7C1533.59 28.1333 1534.07 27.5667 1534.61 27C1535.17 26.4 1535.76 25.8333 1536.36 25.3C1536.96 24.7333 1537.54 24.2 1538.11 23.7C1538.71 23.2 1539.24 22.75 1539.71 22.35C1540.87 23.75 1541.99 24.7333 1543.06 25.3C1544.16 25.8333 1545.14 26.1 1546.01 26.1C1546.44 26.1 1546.86 26 1547.26 25.8C1547.66 25.5667 1547.86 25.0667 1547.86 24.3C1547.86 23.9 1547.77 23.5833 1547.61 23.35C1547.44 23.0833 1547.16 22.85 1546.76 22.65C1546.36 22.45 1545.84 22.25 1545.21 22.05C1544.57 21.85 1543.79 21.6 1542.86 21.3C1541.69 20.9333 1540.61 20.5333 1539.61 20.1C1538.64 19.6333 1537.81 19.0833 1537.11 18.45C1536.41 17.8167 1535.86 17.0833 1535.46 16.25C1535.06 15.3833 1534.86 14.35 1534.86 13.15C1534.86 11.2167 1535.19 9.55 1535.86 8.15C1536.52 6.75 1537.42 5.6 1538.56 4.7C1539.69 3.8 1540.99 3.15 1542.46 2.75C1543.96 2.31666 1545.54 2.1 1547.21 2.1C1549.54 2.1 1551.87 2.5 1554.21 3.3C1556.54 4.06667 1558.57 5.15 1560.31 6.55C1560.04 7.31667 1559.67 8.11667 1559.21 8.95C1558.74 9.75 1558.22 10.5333 1557.66 11.3C1557.12 12.0667 1556.56 12.8 1555.96 13.5C1555.39 14.1667 1554.87 14.7333 1554.41 15.2ZM1562.57 33.15C1562.54 32.95 1562.52 32.7333 1562.52 32.5C1562.52 32.2667 1562.52 32 1562.52 31.7C1562.52 30.7 1562.57 29.45 1562.67 27.95C1562.77 26.45 1562.89 24.8333 1563.02 23.1C1563.19 21.3333 1563.37 19.5333 1563.57 17.7C1563.81 15.8667 1564.04 14.1 1564.27 12.4C1564.51 10.6667 1564.74 9.08333 1564.97 7.65C1565.24 6.18333 1565.49 4.98333 1565.72 4.05C1566.86 3.95 1568.11 3.9 1569.47 3.9C1570.67 3.9 1571.82 3.95 1572.92 4.05C1574.06 4.15 1575.02 4.3 1575.82 4.5C1575.36 6.23333 1574.89 8.31667 1574.42 10.75C1573.99 13.15 1573.57 15.65 1573.17 18.25C1572.81 20.85 1572.47 23.4 1572.17 25.9C1571.87 28.4 1571.64 30.6 1571.47 32.5C1570.04 32.6667 1568.56 32.8167 1567.02 32.95C1565.52 33.0833 1564.04 33.15 1562.57 33.15ZM1589.38 23.7C1589.11 23.7333 1588.88 23.75 1588.68 23.75C1588.51 23.75 1588.36 23.7667 1588.23 23.8C1588.1 23.8333 1587.98 23.85 1587.88 23.85C1587.85 24.0167 1587.81 24.35 1587.78 24.85C1587.75 25.3167 1587.71 25.8667 1587.68 26.5C1587.65 27.1333 1587.61 27.8 1587.58 28.5C1587.55 29.2 1587.51 29.85 1587.48 30.45C1587.48 31.0167 1587.46 31.5 1587.43 31.9C1587.43 32.2667 1587.43 32.4667 1587.43 32.5C1586.66 32.7 1585.73 32.85 1584.63 32.95C1583.56 33.05 1582.51 33.1 1581.48 33.1C1580.21 33.1 1579.2 33.0167 1578.43 32.85C1578.46 32.05 1578.55 30.8833 1578.68 29.35C1578.81 27.7833 1578.96 26.05 1579.13 24.15C1579.33 22.2167 1579.55 20.2167 1579.78 18.15C1580.01 16.0833 1580.25 14.15 1580.48 12.35C1580.71 10.5167 1580.93 8.91667 1581.13 7.55C1581.33 6.15 1581.51 5.18333 1581.68 4.65C1585.61 3.81666 1589.03 3.4 1591.93 3.4C1594.13 3.4 1596.01 3.61667 1597.58 4.05C1599.18 4.48333 1600.48 5.08333 1601.48 5.85C1602.51 6.61667 1603.26 7.51667 1603.73 8.55C1604.23 9.58333 1604.48 10.7 1604.48 11.9C1604.48 13.1333 1604.31 14.3 1603.98 15.4C1603.68 16.5 1603.16 17.5 1602.43 18.4C1601.7 19.3 1600.71 20.1 1599.48 20.8C1598.28 21.5 1596.78 22.0833 1594.98 22.55C1596.08 23.5167 1597.4 24.25 1598.93 24.75C1600.5 25.2167 1602.33 25.5167 1604.43 25.65C1604.26 27.4833 1603.9 29.2667 1603.33 31C1602.76 32.7333 1602.05 34.1833 1601.18 35.35C1599.51 35.3167 1598.01 35.0833 1596.68 34.65C1595.38 34.2167 1594.23 33.5333 1593.23 32.6C1592.26 31.7 1591.46 30.5167 1590.83 29.05C1590.2 27.5833 1589.71 25.8 1589.38 23.7ZM1588.48 18.35C1588.58 18.35 1588.68 18.3667 1588.78 18.4C1588.88 18.4 1588.98 18.4 1589.08 18.4C1589.78 18.4 1590.46 18.3167 1591.13 18.15C1591.83 17.9833 1592.45 17.7167 1592.98 17.35C1593.55 16.9833 1594 16.5167 1594.33 15.95C1594.66 15.3833 1594.83 14.7 1594.83 13.9C1594.83 12.7333 1594.5 11.9667 1593.83 11.6C1593.16 11.2333 1592.43 11.05 1591.63 11.05C1591.3 11.05 1590.98 11.0667 1590.68 11.1C1590.38 11.1333 1590.1 11.1667 1589.83 11.2C1589.66 11.6333 1589.5 12.1667 1589.33 12.8C1589.2 13.4333 1589.06 14.0833 1588.93 14.75C1588.83 15.4167 1588.73 16.0833 1588.63 16.75C1588.56 17.3833 1588.51 17.9167 1588.48 18.35ZM1608.32 27.1C1608.32 26.3 1608.47 25.6167 1608.77 25.05C1609.1 24.45 1609.52 23.95 1610.02 23.55C1610.55 23.15 1611.13 22.85 1611.77 22.65C1612.43 22.45 1613.12 22.35 1613.82 22.35C1615.42 22.35 1616.73 22.8167 1617.77 23.75C1618.83 24.65 1619.37 26.05 1619.37 27.95C1619.37 29.25 1619.12 30.45 1618.62 31.55C1618.12 32.65 1617.47 33.6167 1616.67 34.45C1615.9 35.3167 1615.03 36.0167 1614.07 36.55C1613.13 37.1167 1612.22 37.5167 1611.32 37.75C1611.02 37.6167 1610.75 37.3833 1610.52 37.05C1610.28 36.75 1610.07 36.4 1609.87 36C1609.7 35.6333 1609.57 35.25 1609.47 34.85C1609.37 34.45 1609.32 34.0667 1609.32 33.7C1609.32 33.4667 1609.58 33.2333 1610.12 33C1610.68 32.8 1611.28 32.55 1611.92 32.25C1612.58 31.95 1613.18 31.5833 1613.72 31.15C1614.28 30.6833 1614.57 30.1 1614.57 29.4V29.2C1614.03 29.7 1613.5 30.0667 1612.97 30.3C1612.47 30.5 1611.98 30.6 1611.52 30.6C1610.62 30.6 1609.85 30.2833 1609.22 29.65C1608.62 28.9833 1608.32 28.1333 1608.32 27.1ZM1640.58 4.45C1641.84 4.28333 1643.48 4.15 1645.48 4.05C1647.48 3.91667 1649.81 3.85 1652.48 3.85C1654.51 3.85 1656.69 3.9 1659.03 4C1661.39 4.1 1663.91 4.28333 1666.58 4.55C1666.54 5.21666 1666.49 5.96667 1666.43 6.8C1666.39 7.63333 1666.33 8.48333 1666.23 9.35C1666.13 10.1833 1666.01 11.0167 1665.88 11.85C1665.74 12.65 1665.59 13.3667 1665.43 14C1663.89 13.8333 1662.49 13.5833 1661.23 13.25C1659.99 12.9167 1658.86 12.75 1657.83 12.75H1657.53C1656.93 16.5833 1656.48 20.2333 1656.18 23.7C1655.88 27.1333 1655.66 30.0833 1655.53 32.55C1654.76 32.65 1653.84 32.7167 1652.78 32.75C1651.71 32.7833 1650.64 32.8 1649.58 32.8C1648.71 32.8 1647.88 32.7833 1647.08 32.75C1646.31 32.75 1645.66 32.7333 1645.13 32.7C1645.36 31.1667 1645.59 29.65 1645.83 28.15C1646.09 26.6167 1646.36 25.05 1646.63 23.45C1646.93 21.8167 1647.23 20.1167 1647.53 18.35C1647.86 16.5833 1648.23 14.6667 1648.63 12.6C1647.09 12.7667 1645.58 13.05 1644.08 13.45C1642.58 13.85 1641.16 14.1167 1639.83 14.25C1639.83 13.2167 1639.84 11.8833 1639.88 10.25C1639.91 8.58333 1640.14 6.65 1640.58 4.45ZM1683.06 33.1C1683.13 32.5 1683.23 31.65 1683.36 30.55C1683.5 29.4167 1683.66 28.1167 1683.86 26.65C1683.3 26.6833 1682.71 26.7 1682.11 26.7C1681.51 26.7 1680.93 26.7 1680.36 26.7C1679.93 26.7 1679.51 26.7 1679.11 26.7C1678.71 26.7 1678.33 26.6833 1677.96 26.65C1677.76 28.0167 1677.6 29.2 1677.46 30.2C1677.36 31.1667 1677.28 31.8833 1677.21 32.35C1676.78 32.4167 1676.21 32.4833 1675.51 32.55C1674.85 32.6167 1674.13 32.6833 1673.36 32.75C1672.6 32.8167 1671.85 32.8667 1671.11 32.9C1670.38 32.9667 1669.75 33 1669.21 33C1669.01 33 1668.83 33 1668.66 33C1668.5 33 1668.35 32.9833 1668.21 32.95C1668.25 32.1833 1668.33 31 1668.46 29.4C1668.63 27.8 1668.81 26 1669.01 24C1669.25 21.9667 1669.46 19.8833 1669.66 17.75C1669.9 15.5833 1670.11 13.5667 1670.31 11.7C1670.55 9.83333 1670.75 8.25 1670.91 6.95C1671.08 5.61667 1671.2 4.78333 1671.26 4.45C1671.93 4.38333 1672.68 4.33333 1673.51 4.3C1674.38 4.23333 1675.28 4.2 1676.21 4.2C1677.18 4.2 1678.15 4.23333 1679.11 4.3C1680.08 4.33333 1680.95 4.41667 1681.71 4.55C1681.55 5.35 1681.35 6.33333 1681.11 7.5C1680.91 8.66667 1680.68 9.93333 1680.41 11.3C1680.18 12.6667 1679.93 14.1 1679.66 15.6C1679.43 17.0667 1679.2 18.5333 1678.96 20C1679.76 19.8667 1680.66 19.7167 1681.66 19.55C1682.7 19.3833 1683.75 19.25 1684.81 19.15C1685.01 17.5167 1685.21 15.9 1685.41 14.3C1685.61 12.7 1685.8 11.2333 1685.96 9.9C1686.13 8.53333 1686.26 7.35 1686.36 6.35C1686.46 5.35 1686.53 4.65 1686.56 4.25C1687.2 4.18333 1687.95 4.13333 1688.81 4.1C1689.71 4.06667 1690.61 4.05 1691.51 4.05C1692.61 4.05 1693.63 4.08333 1694.56 4.15C1695.53 4.18333 1696.23 4.26666 1696.66 4.4C1696.53 5.66667 1696.33 7.18333 1696.06 8.95C1695.83 10.6833 1695.56 12.5167 1695.26 14.45C1694.96 16.3833 1694.65 18.3333 1694.31 20.3C1694.01 22.2667 1693.71 24.1 1693.41 25.8C1693.15 27.4667 1692.9 28.9167 1692.66 30.15C1692.46 31.35 1692.31 32.1833 1692.21 32.65C1691.38 32.85 1690.46 32.9833 1689.46 33.05C1688.5 33.1167 1687.56 33.15 1686.66 33.15C1685.83 33.15 1685.08 33.1333 1684.41 33.1C1683.78 33.1 1683.33 33.1 1683.06 33.1ZM1710.27 23.7C1710 23.7333 1709.77 23.75 1709.57 23.75C1709.4 23.75 1709.25 23.7667 1709.12 23.8C1708.98 23.8333 1708.87 23.85 1708.77 23.85C1708.73 24.0167 1708.7 24.35 1708.67 24.85C1708.63 25.3167 1708.6 25.8667 1708.57 26.5C1708.53 27.1333 1708.5 27.8 1708.47 28.5C1708.43 29.2 1708.4 29.85 1708.37 30.45C1708.37 31.0167 1708.35 31.5 1708.32 31.9C1708.32 32.2667 1708.32 32.4667 1708.32 32.5C1707.55 32.7 1706.62 32.85 1705.52 32.95C1704.45 33.05 1703.4 33.1 1702.37 33.1C1701.1 33.1 1700.08 33.0167 1699.32 32.85C1699.35 32.05 1699.43 30.8833 1699.57 29.35C1699.7 27.7833 1699.85 26.05 1700.02 24.15C1700.22 22.2167 1700.43 20.2167 1700.67 18.15C1700.9 16.0833 1701.13 14.15 1701.37 12.35C1701.6 10.5167 1701.82 8.91667 1702.02 7.55C1702.22 6.15 1702.4 5.18333 1702.57 4.65C1706.5 3.81666 1709.92 3.4 1712.82 3.4C1715.02 3.4 1716.9 3.61667 1718.47 4.05C1720.07 4.48333 1721.37 5.08333 1722.37 5.85C1723.4 6.61667 1724.15 7.51667 1724.62 8.55C1725.12 9.58333 1725.37 10.7 1725.37 11.9C1725.37 13.1333 1725.2 14.3 1724.87 15.4C1724.57 16.5 1724.05 17.5 1723.32 18.4C1722.58 19.3 1721.6 20.1 1720.37 20.8C1719.17 21.5 1717.67 22.0833 1715.87 22.55C1716.97 23.5167 1718.28 24.25 1719.82 24.75C1721.38 25.2167 1723.22 25.5167 1725.32 25.65C1725.15 27.4833 1724.78 29.2667 1724.22 31C1723.65 32.7333 1722.93 34.1833 1722.07 35.35C1720.4 35.3167 1718.9 35.0833 1717.57 34.65C1716.27 34.2167 1715.12 33.5333 1714.12 32.6C1713.15 31.7 1712.35 30.5167 1711.72 29.05C1711.08 27.5833 1710.6 25.8 1710.27 23.7ZM1709.37 18.35C1709.47 18.35 1709.57 18.3667 1709.67 18.4C1709.77 18.4 1709.87 18.4 1709.97 18.4C1710.67 18.4 1711.35 18.3167 1712.02 18.15C1712.72 17.9833 1713.33 17.7167 1713.87 17.35C1714.43 16.9833 1714.88 16.5167 1715.22 15.95C1715.55 15.3833 1715.72 14.7 1715.72 13.9C1715.72 12.7333 1715.38 11.9667 1714.72 11.6C1714.05 11.2333 1713.32 11.05 1712.52 11.05C1712.18 11.05 1711.87 11.0667 1711.57 11.1C1711.27 11.1333 1710.98 11.1667 1710.72 11.2C1710.55 11.6333 1710.38 12.1667 1710.22 12.8C1710.08 13.4333 1709.95 14.0833 1709.82 14.75C1709.72 15.4167 1709.62 16.0833 1709.52 16.75C1709.45 17.3833 1709.4 17.9167 1709.37 18.35ZM1731.86 5.05C1732.36 4.91666 1733.31 4.8 1734.71 4.7C1736.11 4.56667 1737.71 4.45 1739.51 4.35C1741.31 4.25 1743.19 4.18333 1745.16 4.15C1747.12 4.08333 1748.94 4.05 1750.61 4.05C1751.27 4.05 1751.91 4.05 1752.51 4.05C1753.11 4.05 1753.66 4.06667 1754.16 4.1C1754.09 4.76666 1754.01 5.51666 1753.91 6.35C1753.84 7.18333 1753.74 8 1753.61 8.8C1753.51 9.6 1753.39 10.35 1753.26 11.05C1753.12 11.7167 1753.01 12.25 1752.91 12.65C1751.71 12.5833 1750.61 12.5 1749.61 12.4C1748.64 12.3 1747.67 12.2 1746.71 12.1C1745.77 11.9667 1744.81 11.8667 1743.81 11.8C1742.81 11.7 1741.71 11.6333 1740.51 11.6L1739.51 16.55C1740.77 16.2167 1742.17 15.9333 1743.71 15.7C1745.27 15.4333 1746.76 15.3 1748.16 15.3H1748.76C1748.76 16.4333 1748.69 17.6 1748.56 18.8C1748.46 19.9667 1748.34 20.95 1748.21 21.75H1746.91C1745.34 21.75 1743.92 21.8167 1742.66 21.95C1741.42 22.05 1740.07 22.1667 1738.61 22.3C1738.51 22.9333 1738.42 23.55 1738.36 24.15C1738.32 24.7167 1738.27 25.3333 1738.21 26C1739.97 25.9667 1741.89 25.8167 1743.96 25.55C1746.02 25.25 1748.42 24.9333 1751.16 24.6C1751.19 25.3333 1751.22 26.0167 1751.26 26.65C1751.29 27.2833 1751.31 27.9333 1751.31 28.6C1751.31 29.7 1751.26 30.9667 1751.16 32.4C1749.59 32.6333 1747.71 32.7833 1745.51 32.85C1743.31 32.9167 1741.07 32.95 1738.81 32.95C1736.74 32.95 1734.79 32.9333 1732.96 32.9C1731.12 32.8667 1729.59 32.8167 1728.36 32.75C1728.39 31.7833 1728.49 30.5167 1728.66 28.95C1728.82 27.35 1729.01 25.65 1729.21 23.85C1729.44 22.0167 1729.67 20.1333 1729.91 18.2C1730.17 16.2333 1730.42 14.4 1730.66 12.7C1730.92 10.9667 1731.16 9.43333 1731.36 8.1C1731.56 6.73333 1731.72 5.71666 1731.86 5.05ZM1759.78 5.05C1760.28 4.91666 1761.23 4.8 1762.63 4.7C1764.03 4.56667 1765.63 4.45 1767.43 4.35C1769.23 4.25 1771.12 4.18333 1773.08 4.15C1775.05 4.08333 1776.87 4.05 1778.53 4.05C1779.2 4.05 1779.83 4.05 1780.43 4.05C1781.03 4.05 1781.58 4.06667 1782.08 4.1C1782.02 4.76666 1781.93 5.51666 1781.83 6.35C1781.77 7.18333 1781.67 8 1781.53 8.8C1781.43 9.6 1781.32 10.35 1781.18 11.05C1781.05 11.7167 1780.93 12.25 1780.83 12.65C1779.63 12.5833 1778.53 12.5 1777.53 12.4C1776.57 12.3 1775.6 12.2 1774.63 12.1C1773.7 11.9667 1772.73 11.8667 1771.73 11.8C1770.73 11.7 1769.63 11.6333 1768.43 11.6L1767.43 16.55C1768.7 16.2167 1770.1 15.9333 1771.63 15.7C1773.2 15.4333 1774.68 15.3 1776.08 15.3H1776.68C1776.68 16.4333 1776.62 17.6 1776.48 18.8C1776.38 19.9667 1776.27 20.95 1776.13 21.75H1774.83C1773.27 21.75 1771.85 21.8167 1770.58 21.95C1769.35 22.05 1768 22.1667 1766.53 22.3C1766.43 22.9333 1766.35 23.55 1766.28 24.15C1766.25 24.7167 1766.2 25.3333 1766.13 26C1767.9 25.9667 1769.82 25.8167 1771.88 25.55C1773.95 25.25 1776.35 24.9333 1779.08 24.6C1779.12 25.3333 1779.15 26.0167 1779.18 26.65C1779.22 27.2833 1779.23 27.9333 1779.23 28.6C1779.23 29.7 1779.18 30.9667 1779.08 32.4C1777.52 32.6333 1775.63 32.7833 1773.43 32.85C1771.23 32.9167 1769 32.95 1766.73 32.95C1764.67 32.95 1762.72 32.9333 1760.88 32.9C1759.05 32.8667 1757.52 32.8167 1756.28 32.75C1756.32 31.7833 1756.42 30.5167 1756.58 28.95C1756.75 27.35 1756.93 25.65 1757.13 23.85C1757.37 22.0167 1757.6 20.1333 1757.83 18.2C1758.1 16.2333 1758.35 14.4 1758.58 12.7C1758.85 10.9667 1759.08 9.43333 1759.28 8.1C1759.48 6.73333 1759.65 5.71666 1759.78 5.05ZM1799.02 33C1799.05 32.4 1799.1 31.45 1799.17 30.15C1799.27 28.8167 1799.38 27.2833 1799.52 25.55C1799.68 23.8167 1799.85 21.9667 1800.02 20C1800.22 18 1800.42 16.05 1800.62 14.15C1800.85 12.2167 1801.08 10.4167 1801.32 8.75C1801.58 7.05 1801.83 5.63333 1802.07 4.5C1803.9 4.13333 1805.95 3.8 1808.22 3.5C1810.52 3.16666 1812.77 3 1814.97 3C1816.4 3 1817.73 3.1 1818.97 3.3C1820.23 3.5 1821.32 3.85 1822.22 4.35C1823.15 4.81666 1823.88 5.45 1824.42 6.25C1824.95 7.05 1825.22 8.06667 1825.22 9.3C1825.22 10.5667 1825.02 11.7333 1824.62 12.8C1824.25 13.8333 1823.73 14.75 1823.07 15.55C1822.43 16.3167 1821.68 16.95 1820.82 17.45C1819.95 17.95 1819.03 18.2667 1818.07 18.4C1818.9 18.4667 1819.67 18.65 1820.37 18.95C1821.1 19.25 1821.73 19.65 1822.27 20.15C1822.83 20.65 1823.27 21.2333 1823.57 21.9C1823.9 22.5333 1824.07 23.2333 1824.07 24C1824.07 24.4333 1824 25 1823.87 25.7C1823.77 26.3667 1823.53 27.0833 1823.17 27.85C1822.83 28.5833 1822.33 29.3333 1821.67 30.1C1821 30.8333 1820.12 31.5 1819.02 32.1C1817.95 32.7 1816.62 33.1833 1815.02 33.55C1813.42 33.95 1811.52 34.15 1809.32 34.15C1807.88 34.15 1806.32 34.05 1804.62 33.85C1802.92 33.6833 1801.05 33.4 1799.02 33ZM1810.82 11.75C1810.55 12.6167 1810.33 13.5 1810.17 14.4C1810 15.2667 1809.83 16.1333 1809.67 17C1809.93 17.0667 1810.18 17.1 1810.42 17.1C1810.68 17.1 1810.95 17.1 1811.22 17.1C1812.68 17.1 1813.82 16.7333 1814.62 16C1815.42 15.2667 1815.82 14.2667 1815.82 13C1815.82 12.4 1815.58 11.9833 1815.12 11.75C1814.68 11.5167 1814.13 11.4 1813.47 11.4C1813.03 11.4 1812.58 11.4333 1812.12 11.5C1811.65 11.5667 1811.22 11.65 1810.82 11.75ZM1808.92 26C1809.32 26.1 1809.75 26.2 1810.22 26.3C1810.68 26.4 1811.18 26.45 1811.72 26.45C1812.05 26.45 1812.4 26.4 1812.77 26.3C1813.17 26.2 1813.52 26.0333 1813.82 25.8C1814.15 25.5667 1814.42 25.25 1814.62 24.85C1814.85 24.45 1814.97 23.9333 1814.97 23.3C1814.97 22.6333 1814.73 22.1833 1814.27 21.95C1813.83 21.6833 1813.27 21.55 1812.57 21.55C1812.03 21.55 1811.47 21.6167 1810.87 21.75C1810.3 21.85 1809.72 22 1809.12 22.2C1809.05 22.9 1809 23.5667 1808.97 24.2C1808.93 24.8333 1808.92 25.4333 1808.92 26ZM1841.06 3.3C1841.5 3.2 1842.1 3.11667 1842.86 3.05C1843.66 2.98333 1844.6 2.95 1845.66 2.95C1846.76 2.95 1848 3 1849.36 3.1C1849.83 6.3 1850.31 9.21667 1850.81 11.85C1851.35 14.4833 1851.88 16.9167 1852.41 19.15C1852.98 21.3833 1853.56 23.4667 1854.16 25.4C1854.8 27.3 1855.46 29.1 1856.16 30.8C1854.93 31.4667 1853.41 32.0667 1851.61 32.6C1849.85 33.1667 1848.03 33.7 1846.16 34.2C1845.76 33.5667 1845.35 32.7 1844.91 31.6C1844.48 30.5 1844.13 29.3167 1843.86 28.05C1842.96 28.2167 1841.9 28.3667 1840.66 28.5C1839.46 28.6333 1838.1 28.7333 1836.56 28.8C1836.3 29.7667 1836.05 30.6167 1835.81 31.35C1835.61 32.05 1835.43 32.8167 1835.26 33.65C1833.56 33.5833 1831.96 33.35 1830.46 32.95C1829 32.55 1827.48 32.0833 1825.91 31.55C1826.65 29.5167 1827.58 27.2833 1828.71 24.85C1829.85 22.4167 1831.08 19.95 1832.41 17.45C1833.78 14.9167 1835.2 12.4333 1836.66 10C1838.16 7.56667 1839.63 5.33333 1841.06 3.3ZM1842.46 13.3C1842 14.2 1841.46 15.35 1840.86 16.75C1840.3 18.15 1839.68 19.7333 1839.01 21.5C1839.11 21.5 1839.25 21.5167 1839.41 21.55C1839.58 21.55 1839.78 21.55 1840.01 21.55C1840.48 21.55 1841 21.55 1841.56 21.55C1842.13 21.5167 1842.63 21.5 1843.06 21.5C1842.86 20.1 1842.71 18.7667 1842.61 17.5C1842.51 16.2 1842.46 14.8 1842.46 13.3ZM1885.58 18.35C1885.38 20.1167 1885.15 21.8833 1884.88 23.65C1884.65 25.4167 1884.4 27.1167 1884.13 28.75C1883.86 30.3833 1883.58 31.9167 1883.28 33.35C1883.01 34.7833 1882.73 36.0333 1882.43 37.1C1881.76 37.0667 1881.05 37 1880.28 36.9C1879.55 36.8333 1878.85 36.7333 1878.18 36.6C1877.51 36.5 1876.9 36.4 1876.33 36.3C1875.76 36.2 1875.33 36.1 1875.03 36C1875.23 35.2333 1875.51 34.2667 1875.88 33.1C1876.25 31.9333 1876.63 30.5 1877.03 28.8C1876 30.1 1874.66 31.2333 1873.03 32.2C1871.4 33.1667 1869.6 33.65 1867.63 33.65C1866.7 33.65 1865.7 33.4833 1864.63 33.15C1863.56 32.8167 1862.56 32.2167 1861.63 31.35C1860.73 30.4833 1859.98 29.3167 1859.38 27.85C1858.78 26.35 1858.48 24.45 1858.48 22.15C1858.48 19.8833 1858.83 17.6333 1859.53 15.4C1860.26 13.1667 1861.33 11.1667 1862.73 9.4C1864.16 7.6 1865.93 6.15 1868.03 5.05C1870.16 3.91667 1872.63 3.35 1875.43 3.35C1876.4 3.35 1877.31 3.38333 1878.18 3.45C1879.08 3.51667 1879.98 3.65 1880.88 3.85C1881.78 4.05 1882.7 4.31666 1883.63 4.65C1884.56 4.95 1885.56 5.35 1886.63 5.85C1886.46 6.65 1886.23 7.5 1885.93 8.4C1885.63 9.3 1885.3 10.2 1884.93 11.1C1884.56 11.9667 1884.2 12.8 1883.83 13.6C1883.46 14.4 1883.13 15.0833 1882.83 15.65C1881.6 15.2167 1880.28 14.7667 1878.88 14.3C1877.48 13.8333 1876.01 13.6 1874.48 13.6C1873.95 13.6 1873.36 13.7333 1872.73 14C1872.13 14.2333 1871.56 14.65 1871.03 15.25C1870.5 15.85 1870.05 16.6667 1869.68 17.7C1869.31 18.7 1869.13 19.95 1869.13 21.45C1869.13 22.85 1869.38 23.9667 1869.88 24.8C1870.38 25.6 1871.18 26 1872.28 26C1872.58 26 1872.95 25.95 1873.38 25.85C1873.85 25.75 1874.3 25.6 1874.73 25.4C1875.2 25.1667 1875.61 24.9 1875.98 24.6C1876.38 24.3 1876.65 23.95 1876.78 23.55C1876.21 23.55 1875.66 23.5667 1875.13 23.6C1874.6 23.6 1874.05 23.6 1873.48 23.6V23.25C1873.48 22.5833 1873.51 21.8167 1873.58 20.95C1873.65 20.05 1873.7 19.2333 1873.73 18.5C1874.03 18.4667 1874.46 18.4333 1875.03 18.4C1875.6 18.3333 1876.23 18.2833 1876.93 18.25C1877.66 18.1833 1878.41 18.15 1879.18 18.15C1879.98 18.1167 1880.75 18.1 1881.48 18.1C1882.41 18.1 1883.25 18.1333 1883.98 18.2C1884.71 18.2333 1885.25 18.2833 1885.58 18.35ZM1910 15.2C1909.8 15.1333 1909.45 14.95 1908.95 14.65C1908.48 14.3167 1907.91 13.9667 1907.25 13.6C1906.61 13.2333 1905.91 12.9 1905.15 12.6C1904.41 12.3 1903.7 12.15 1903 12.15C1902.1 12.15 1901.38 12.3667 1900.85 12.8C1900.35 13.2 1900.1 13.6833 1900.1 14.25C1900.1 14.8167 1900.38 15.3667 1900.95 15.9C1901.51 16.4333 1902.43 16.8333 1903.7 17.1C1905.6 17.5 1907.11 18.0333 1908.25 18.7C1909.38 19.3333 1910.25 20.0167 1910.85 20.75C1911.48 21.45 1911.9 22.1667 1912.1 22.9C1912.3 23.6 1912.4 24.2 1912.4 24.7C1912.4 26.3667 1912.05 27.85 1911.35 29.15C1910.65 30.4167 1909.75 31.4833 1908.65 32.35C1907.55 33.2167 1906.3 33.8667 1904.9 34.3C1903.53 34.7667 1902.15 35 1900.75 35C1899.28 35 1897.9 34.8333 1896.6 34.5C1895.3 34.2 1894.11 33.7667 1893.05 33.2C1892.01 32.6667 1891.11 32.0167 1890.35 31.25C1889.61 30.4833 1889.08 29.6333 1888.75 28.7C1889.18 28.1333 1889.66 27.5667 1890.2 27C1890.76 26.4 1891.35 25.8333 1891.95 25.3C1892.55 24.7333 1893.13 24.2 1893.7 23.7C1894.3 23.2 1894.83 22.75 1895.3 22.35C1896.46 23.75 1897.58 24.7333 1898.65 25.3C1899.75 25.8333 1900.73 26.1 1901.6 26.1C1902.03 26.1 1902.45 26 1902.85 25.8C1903.25 25.5667 1903.45 25.0667 1903.45 24.3C1903.45 23.9 1903.36 23.5833 1903.2 23.35C1903.03 23.0833 1902.75 22.85 1902.35 22.65C1901.95 22.45 1901.43 22.25 1900.8 22.05C1900.16 21.85 1899.38 21.6 1898.45 21.3C1897.28 20.9333 1896.2 20.5333 1895.2 20.1C1894.23 19.6333 1893.4 19.0833 1892.7 18.45C1892 17.8167 1891.45 17.0833 1891.05 16.25C1890.65 15.3833 1890.45 14.35 1890.45 13.15C1890.45 11.2167 1890.78 9.55 1891.45 8.15C1892.11 6.75 1893.01 5.6 1894.15 4.7C1895.28 3.8 1896.58 3.15 1898.05 2.75C1899.55 2.31666 1901.13 2.1 1902.8 2.1C1905.13 2.1 1907.46 2.5 1909.8 3.3C1912.13 4.06667 1914.16 5.15 1915.9 6.55C1915.63 7.31667 1915.26 8.11667 1914.8 8.95C1914.33 9.75 1913.81 10.5333 1913.25 11.3C1912.71 12.0667 1912.15 12.8 1911.55 13.5C1910.98 14.1667 1910.46 14.7333 1910 15.2ZM1931.62 32.95C1931.65 32.2167 1931.73 31.0833 1931.87 29.55C1932 27.9833 1932.17 26.2333 1932.37 24.3C1932.57 22.3667 1932.78 20.35 1933.02 18.25C1933.25 16.15 1933.47 14.1833 1933.67 12.35C1933.9 10.5167 1934.1 8.93333 1934.27 7.6C1934.47 6.26667 1934.62 5.38333 1934.72 4.95C1935.55 4.85 1936.63 4.73333 1937.97 4.6C1939.33 4.46666 1940.82 4.35 1942.42 4.25C1944.02 4.11667 1945.68 4.01667 1947.42 3.95C1949.15 3.88333 1950.8 3.85 1952.37 3.85C1954.1 3.85 1955.62 3.9 1956.92 4C1956.75 5.5 1956.48 7.01666 1956.12 8.55C1955.78 10.0833 1955.43 11.5333 1955.07 12.9C1952.37 12.7667 1950.07 12.65 1948.17 12.55C1946.27 12.45 1944.63 12.4 1943.27 12.4C1943.17 13.0667 1943.03 13.9 1942.87 14.9C1942.73 15.8667 1942.62 16.85 1942.52 17.85C1943.58 17.5833 1944.9 17.3 1946.47 17C1948.03 16.6667 1949.87 16.5 1951.97 16.5C1951.87 17.8667 1951.78 19.25 1951.72 20.65C1951.65 22.0167 1951.5 23.4333 1951.27 24.9C1949.93 24.8 1948.6 24.7 1947.27 24.6C1945.93 24.4667 1944.68 24.4 1943.52 24.4C1943.25 24.4 1942.98 24.4 1942.72 24.4C1942.45 24.4 1942.18 24.4167 1941.92 24.45C1941.75 25.9833 1941.63 27.5167 1941.57 29.05C1941.5 30.55 1941.43 31.7333 1941.37 32.6C1940 32.7333 1938.72 32.8333 1937.52 32.9C1936.32 32.9667 1935.12 33 1933.92 33C1933.55 33 1933.17 33 1932.77 33C1932.37 33 1931.98 32.9833 1931.62 32.95ZM1961.48 4.5C1961.88 4.5 1962.31 4.48333 1962.78 4.45C1963.18 4.45 1963.65 4.45 1964.18 4.45C1964.75 4.41667 1965.35 4.4 1965.98 4.4C1966.88 4.4 1967.81 4.41667 1968.78 4.45C1969.75 4.48333 1970.66 4.53333 1971.53 4.6C1970.56 10.0667 1969.86 14.2667 1969.43 17.2C1969 20.1 1968.78 21.9167 1968.78 22.65C1968.78 23.7167 1969.01 24.5167 1969.48 25.05C1969.98 25.55 1970.56 25.8 1971.23 25.8C1971.9 25.8 1972.55 25.5167 1973.18 24.95C1973.85 24.35 1974.3 23.4667 1974.53 22.3C1975.1 19.2 1975.43 16.2 1975.53 13.3C1975.66 10.4 1975.76 7.75 1975.83 5.35C1976.2 5.25 1976.71 5.15 1977.38 5.05C1978.08 4.95 1978.85 4.86666 1979.68 4.8C1980.55 4.7 1981.45 4.63333 1982.38 4.6C1983.35 4.53333 1984.26 4.5 1985.13 4.5H1986.38C1986.05 9.3 1985.71 13.0833 1985.38 15.85C1985.08 18.5833 1984.81 20.6333 1984.58 22C1984.28 23.6667 1983.76 25.2333 1983.03 26.7C1982.33 28.1667 1981.4 29.45 1980.23 30.55C1979.06 31.6167 1977.66 32.4667 1976.03 33.1C1974.43 33.7333 1972.58 34.05 1970.48 34.05C1968.38 34.05 1966.61 33.75 1965.18 33.15C1963.78 32.5833 1962.65 31.8 1961.78 30.8C1960.91 29.8 1960.28 28.65 1959.88 27.35C1959.51 26.0167 1959.33 24.6167 1959.33 23.15C1959.33 21.55 1959.4 19.8333 1959.53 18C1959.7 16.1667 1959.9 14.4 1960.13 12.7C1960.36 10.9667 1960.6 9.38333 1960.83 7.95C1961.1 6.48333 1961.31 5.33333 1961.48 4.5ZM1992.74 4.3C1993.37 4.2 1994.26 4.15 1995.39 4.15C1996.62 4.15 1997.96 4.23333 1999.39 4.4C2000.86 4.53333 2002.17 4.73333 2003.34 5C2002.97 6.26667 2002.57 7.78333 2002.14 9.55C2001.74 11.3167 2001.34 13.15 2000.94 15.05C2000.57 16.9167 2000.22 18.75 1999.89 20.55C1999.59 22.35 1999.34 23.9167 1999.14 25.25C2000.47 24.95 2002.12 24.6333 2004.09 24.3C2006.06 23.9333 2008.39 23.65 2011.09 23.45C2011.09 23.8167 2011.09 24.2833 2011.09 24.85C2011.12 25.3833 2011.14 25.9833 2011.14 26.65C2011.14 27.6167 2011.11 28.6333 2011.04 29.7C2010.97 30.7667 2010.86 31.6833 2010.69 32.45C2010.02 32.55 2009.02 32.6333 2007.69 32.7C2006.36 32.8 2004.87 32.8833 2003.24 32.95C2001.64 33.0167 1999.96 33.0667 1998.19 33.1C1996.42 33.1333 1994.77 33.15 1993.24 33.15C1992.37 33.15 1991.57 33.1333 1990.84 33.1C1990.11 33.1 1989.44 33.0833 1988.84 33.05C1988.94 31.9167 1989.07 30.6 1989.24 29.1C1989.41 27.6 1989.59 26 1989.79 24.3C1990.02 22.5667 1990.26 20.8 1990.49 19C1990.76 17.1667 1991.01 15.3833 1991.24 13.65C1991.51 11.8833 1991.76 10.2 1991.99 8.6C1992.26 7 1992.51 5.56667 1992.74 4.3ZM2019.64 4.3C2020.28 4.2 2021.16 4.15 2022.29 4.15C2023.53 4.15 2024.86 4.23333 2026.29 4.4C2027.76 4.53333 2029.08 4.73333 2030.24 5C2029.88 6.26667 2029.48 7.78333 2029.04 9.55C2028.64 11.3167 2028.24 13.15 2027.84 15.05C2027.48 16.9167 2027.13 18.75 2026.79 20.55C2026.49 22.35 2026.24 23.9167 2026.04 25.25C2027.38 24.95 2029.03 24.6333 2030.99 24.3C2032.96 23.9333 2035.29 23.65 2037.99 23.45C2037.99 23.8167 2037.99 24.2833 2037.99 24.85C2038.03 25.3833 2038.04 25.9833 2038.04 26.65C2038.04 27.6167 2038.01 28.6333 2037.94 29.7C2037.88 30.7667 2037.76 31.6833 2037.59 32.45C2036.93 32.55 2035.93 32.6333 2034.59 32.7C2033.26 32.8 2031.78 32.8833 2030.14 32.95C2028.54 33.0167 2026.86 33.0667 2025.09 33.1C2023.33 33.1333 2021.68 33.15 2020.14 33.15C2019.28 33.15 2018.48 33.1333 2017.74 33.1C2017.01 33.1 2016.34 33.0833 2015.74 33.05C2015.84 31.9167 2015.98 30.6 2016.14 29.1C2016.31 27.6 2016.49 26 2016.69 24.3C2016.93 22.5667 2017.16 20.8 2017.39 19C2017.66 17.1667 2017.91 15.3833 2018.14 13.65C2018.41 11.8833 2018.66 10.2 2018.89 8.6C2019.16 7 2019.41 5.56667 2019.64 4.3Z" fill="black"/>
<path d="M1398.81 21.5368L1393.12 0.27391C1393.08 0.125967 1392.92 0.0426393 1392.78 0.0932291L1376.33 6.21628C1376.2 6.26279 1376.13 6.39841 1376.17 6.52911L1381.5 26.4192C1380.15 25.1926 1377.93 24.9967 1376.02 26.0747C1373.7 27.3827 1372.72 30.0717 1373.83 32.0793C1374.94 34.0874 1377.72 34.6551 1380.04 33.3471C1382.22 32.1149 1383.22 29.656 1382.4 27.6963L1378.24 12.1946L1394.16 6.26169L1397.91 20.2595C1396.57 19.0329 1394.35 18.837 1392.43 19.9152C1390.12 21.223 1389.14 23.9121 1390.25 25.9197C1391.36 27.9278 1394.14 28.495 1396.45 27.187C1398.64 25.9543 1399.63 23.4959 1398.81 21.5364L1398.81 21.5368Z" fill="black"/>
<path d="M2079.81 21.5368L2074.12 0.27391C2074.08 0.125967 2073.92 0.0426393 2073.78 0.0932291L2057.33 6.21628C2057.2 6.26279 2057.13 6.39841 2057.17 6.52911L2062.5 26.4192C2061.15 25.1926 2058.93 24.9967 2057.02 26.0747C2054.7 27.3827 2053.72 30.0717 2054.83 32.0793C2055.94 34.0874 2058.72 34.6551 2061.04 33.3471C2063.22 32.1149 2064.22 29.656 2063.4 27.6963L2059.24 12.1946L2075.16 6.26169L2078.91 20.2595C2077.57 19.0329 2075.35 18.837 2073.43 19.9152C2071.12 21.223 2070.14 23.9121 2071.25 25.9197C2072.36 27.9278 2075.14 28.495 2077.45 27.187C2079.64 25.9543 2080.63 23.4959 2079.81 21.5364L2079.81 21.5368Z" fill="black"/>
<path d="M599.814 21.5368L594.116 0.27391C594.077 0.125967 593.921 0.0426393 593.78 0.0932291L577.325 6.21628C577.201 6.26279 577.132 6.39841 577.167 6.52911L582.496 26.4192C581.153 25.1926 578.928 24.9967 577.018 26.0747C574.7 27.3827 573.721 30.0717 574.831 32.0793C575.941 34.0874 578.72 34.6551 581.038 33.3471C583.222 32.1149 584.218 29.656 583.397 27.6963L579.244 12.1946L595.163 6.26169L598.914 20.2595C597.57 19.0329 595.346 18.8371 593.435 19.9152C591.117 21.223 590.138 23.9121 591.247 25.9197C592.357 27.9278 595.136 28.495 597.455 27.1871C599.639 25.9543 600.635 23.4963 599.814 21.5368Z" fill="black"/>
</svg>
