<?xml version="1.0" encoding="UTF-8"?> <svg xmlns="http://www.w3.org/2000/svg" width="251" height="20" viewBox="0 0 251 20" fill="none"><path d="M2.17867 2.69855C3.43846 2.3141 4.60562 2.02118 5.68014 1.8198C6.7732 1.61841 7.78288 1.51772 8.7092 1.51772C10.6174 1.51772 12.0903 1.93879 13.1277 2.78094C14.1837 3.60477 14.7117 4.85883 14.7117 6.54312C14.7117 7.89787 14.4987 9.0604 14.0726 10.0307C13.6465 11.001 13.0907 11.7974 12.4052 12.4198C11.7197 13.024 10.9324 13.4725 10.0431 13.7654C9.17236 14.04 8.29236 14.1773 7.40309 14.1773C6.81025 14.1773 6.22667 14.1224 5.65235 14.0126C5.50414 14.873 5.42077 15.5687 5.40225 16.0996C5.38372 16.6305 5.33741 17.134 5.2633 17.61C4.8372 17.7198 4.3833 17.7931 3.90162 17.8297C3.43846 17.8846 2.9753 17.9121 2.51214 17.9121C2.08604 17.9121 1.68772 17.8937 1.31719 17.8571C0.965194 17.8205 0.63172 17.7839 0.316772 17.7473C0.316772 17.4544 0.344562 16.9509 0.400141 16.2369C0.474246 15.5046 0.557615 14.6716 0.650246 13.738C0.761404 12.786 0.881825 11.7699 1.01151 10.6898C1.14119 9.60962 1.27088 8.5661 1.40056 7.55919C1.54877 6.53397 1.68772 5.60029 1.8174 4.75814C1.94709 3.89769 2.06751 3.21116 2.17867 2.69855ZM6.87509 6.51566C6.76393 7.04658 6.63425 7.66903 6.48604 8.38302C6.35635 9.0787 6.2452 9.88423 6.15257 10.7996C6.2452 10.8179 6.33783 10.8362 6.43046 10.8545C6.52309 10.8545 6.62499 10.8545 6.73614 10.8545C7.03257 10.8545 7.33825 10.8088 7.6532 10.7172C7.98667 10.6257 8.28309 10.4701 8.54246 10.2504C8.80183 10.0124 9.01488 9.71031 9.18162 9.34416C9.34836 8.97801 9.43172 8.52033 9.43172 7.9711C9.43172 7.38526 9.30204 6.97335 9.04267 6.73535C8.7833 6.49735 8.4313 6.37835 7.98667 6.37835C7.81993 6.37835 7.64393 6.39666 7.45867 6.43328C7.27341 6.45158 7.07888 6.47904 6.87509 6.51566Z" fill="white"></path><path d="M22.6348 14.2048C23.135 14.2048 23.5611 14.0492 23.9131 13.738C24.2836 13.4084 24.58 12.9873 24.8023 12.4747C25.0432 11.9621 25.2192 11.3946 25.3303 10.7721C25.4415 10.1497 25.4971 9.54555 25.4971 8.95971C25.4971 8.28233 25.3767 7.73311 25.1358 7.31203C24.9135 6.89096 24.4781 6.68043 23.8297 6.68043C23.3666 6.68043 22.9497 6.83604 22.5792 7.14727C22.2087 7.45849 21.8845 7.8521 21.6066 8.3281C21.3472 8.80409 21.1434 9.34416 20.9952 9.94831C20.8655 10.5341 20.8007 11.1017 20.8007 11.6509C20.8007 12.493 20.9396 13.1247 21.2175 13.5457C21.5139 13.9485 21.9863 14.1682 22.6348 14.2048ZM24.1076 1.49026C24.9969 1.49026 25.8769 1.60926 26.7476 1.84726C27.6369 2.06694 28.4242 2.44225 29.1097 2.97317C29.8137 3.48577 30.3788 4.1723 30.8049 5.03275C31.231 5.89321 31.444 6.95504 31.444 8.21825C31.444 9.53639 31.2958 10.7081 30.9994 11.7333C30.703 12.7402 30.3047 13.619 29.8045 14.3696C29.3228 15.1019 28.767 15.7152 28.1371 16.2095C27.5072 16.7038 26.8588 17.0974 26.1918 17.3903C25.5249 17.7015 24.8579 17.9212 24.191 18.0494C23.5426 18.1775 22.959 18.2416 22.4402 18.2416C21.3657 18.2416 20.3746 18.1043 19.4668 17.8297C18.5775 17.5734 17.8087 17.1706 17.1602 16.6214C16.5118 16.0722 16.0023 15.3673 15.6318 14.5069C15.2798 13.6464 15.1038 12.6212 15.1038 11.4312C15.1038 9.74693 15.3632 8.28233 15.8819 7.03742C16.4007 5.79251 17.0769 4.75814 17.9106 3.93431C18.7628 3.11047 19.7261 2.49717 20.8007 2.09441C21.8752 1.69164 22.9775 1.49026 24.1076 1.49026Z" fill="white"></path><path d="M31.6375 2.83586C31.8783 2.72601 32.2396 2.58871 32.7213 2.42394C33.2029 2.25917 33.7402 2.10356 34.3331 1.9571C34.9259 1.81064 35.5373 1.68249 36.1672 1.57264C36.7971 1.4628 37.3899 1.40788 37.9457 1.40788C38.1124 2.4514 38.2514 3.60477 38.3625 4.86799C38.4737 6.1312 38.5293 7.48596 38.5293 8.93224C38.5293 9.22516 38.5293 9.51808 38.5293 9.811C38.5293 10.1039 38.52 10.406 38.5015 10.7172C38.6312 10.3694 38.7979 9.91169 39.0017 9.34416C39.224 8.77663 39.4556 8.14502 39.6964 7.44934C39.9558 6.73535 40.2152 5.9939 40.4745 5.22498C40.7524 4.43776 41.0211 3.66885 41.2804 2.91824C41.7251 2.91824 42.2345 2.97316 42.8088 3.08301C43.4017 3.17455 43.976 3.29355 44.5318 3.44C44.5689 4.13569 44.6152 5.07852 44.6707 6.26851C44.7449 7.44019 44.8004 8.93224 44.8375 10.7447C45.2451 9.60962 45.6526 8.29148 46.0602 6.79027C46.4678 5.27075 46.8846 3.53154 47.3107 1.57264C48.1444 1.60926 49.0708 1.76487 50.0897 2.03948C51.1272 2.29579 52.1183 2.67109 53.0632 3.16539C52.5444 4.70322 51.9609 6.23189 51.3124 7.75141C50.664 9.27093 50.0434 10.6898 49.4505 12.0079C48.8577 13.326 48.3297 14.4977 47.8665 15.5229C47.4034 16.5482 47.0884 17.3445 46.9217 17.9121C46.8476 17.9121 46.7642 17.9121 46.6716 17.9121C46.5975 17.9304 46.5141 17.9395 46.4215 17.9395C46.1065 17.9395 45.7453 17.9304 45.3377 17.9121C44.9486 17.8937 44.5503 17.8663 44.1427 17.8297C43.7352 17.8114 43.3554 17.7748 43.0034 17.7198C42.6514 17.6832 42.3735 17.6466 42.1697 17.61C42.1141 16.4749 42.0122 15.4039 41.864 14.397C41.7343 13.3901 41.5861 12.3557 41.4194 11.2939C41.2897 11.7333 41.1415 12.2276 40.9747 12.7768C40.808 13.3077 40.6135 13.857 40.3912 14.4245C40.1874 14.9737 39.9743 15.5321 39.752 16.0996C39.5297 16.6671 39.2981 17.2072 39.0573 17.7198C38.9646 17.7381 38.872 17.7473 38.7794 17.7473C38.7053 17.7473 38.6219 17.7473 38.5293 17.7473C37.9179 17.7473 37.2417 17.7015 36.5006 17.61C35.7781 17.5184 35.1297 17.4178 34.5554 17.3079C34.4072 16.3559 34.2404 15.3216 34.0552 14.2048C33.8699 13.0697 33.6568 11.8797 33.416 10.6348C33.1937 9.38993 32.9251 8.10841 32.6101 6.79027C32.3137 5.47213 31.9895 4.154 31.6375 2.83586Z" fill="white"></path><path d="M53.9776 2.53379C54.2555 2.46056 54.7835 2.39648 55.5616 2.34156C56.3397 2.26833 57.229 2.20425 58.2294 2.14933C59.2298 2.09441 60.2766 2.05779 61.3696 2.03948C62.4627 2.00287 63.4724 1.98456 64.3987 1.98456C64.7692 1.98456 65.1212 1.98456 65.4547 1.98456C65.7881 1.98456 66.0938 1.99372 66.3717 2.01202C66.3347 2.37817 66.2884 2.79009 66.2328 3.24778C66.1957 3.70546 66.1402 4.154 66.066 4.59338C66.0105 5.03275 65.9456 5.44467 65.8715 5.82913C65.7974 6.19528 65.7326 6.4882 65.677 6.70789C65.01 6.67127 64.3987 6.6255 63.8429 6.57058C63.3056 6.51566 62.7684 6.46074 62.2311 6.40581C61.7124 6.33258 61.1751 6.27766 60.6193 6.24105C60.0635 6.18613 59.4521 6.14951 58.7852 6.1312L58.2294 8.84986C58.9334 8.66679 59.7115 8.51117 60.5637 8.38302C61.4345 8.23656 62.2589 8.16333 63.037 8.16333H63.3705C63.3705 8.78579 63.3334 9.42655 63.2593 10.0856C63.2037 10.7264 63.1389 11.2664 63.0648 11.7058H62.3423C61.4715 11.7058 60.6841 11.7424 59.9801 11.8157C59.2947 11.8706 58.5444 11.9347 57.7292 12.0079C57.6736 12.3557 57.6273 12.6944 57.5903 13.024C57.5717 13.3352 57.5439 13.6739 57.5069 14.04C58.4888 14.0217 59.554 13.9393 60.7027 13.7929C61.8513 13.6281 63.1852 13.4542 64.7044 13.2711C64.7229 13.6739 64.7414 14.0492 64.7599 14.397C64.7785 14.7449 64.7877 15.1019 64.7877 15.468C64.7877 16.0722 64.7599 16.7678 64.7044 17.5551C63.8336 17.6832 62.7869 17.7656 61.5641 17.8022C60.3414 17.8388 59.1001 17.8571 57.8404 17.8571C56.6917 17.8571 55.6079 17.848 54.589 17.8297C53.57 17.8114 52.7178 17.7839 52.0324 17.7473C52.0509 17.2164 52.1065 16.5207 52.1991 15.6602C52.2917 14.7815 52.3936 13.8478 52.5048 12.8592C52.6345 11.8523 52.7641 10.8179 52.8938 9.75608C53.042 8.67594 53.181 7.66903 53.3107 6.73535C53.4589 5.78336 53.5886 4.94122 53.6997 4.20892C53.8109 3.45831 53.9035 2.89993 53.9776 2.53379Z" fill="white"></path><path d="M72.8065 12.7768C72.6583 12.7951 72.5286 12.8043 72.4175 12.8043C72.3248 12.8043 72.2415 12.8134 72.1674 12.8317C72.0933 12.85 72.0284 12.8592 71.9728 12.8592C71.9543 12.9507 71.9358 13.1338 71.9173 13.4084C71.8987 13.6647 71.8802 13.9668 71.8617 14.3146C71.8431 14.6625 71.8246 15.0286 71.8061 15.4131C71.7876 15.7975 71.769 16.1545 71.7505 16.4841C71.7505 16.7953 71.7412 17.0608 71.7227 17.2805C71.7227 17.4818 71.7227 17.5917 71.7227 17.61C71.2966 17.7198 70.7779 17.8022 70.1665 17.8571C69.5737 17.9121 68.9901 17.9395 68.4158 17.9395C67.7118 17.9395 67.1467 17.8937 66.7206 17.8022C66.7391 17.3628 66.7855 16.7221 66.8596 15.8799C66.9337 15.0195 67.017 14.0675 67.1097 13.024C67.2208 11.9621 67.3412 10.8637 67.4709 9.72862C67.6006 8.59356 67.7303 7.53172 67.86 6.54312C67.9897 5.53621 68.1101 4.65745 68.2212 3.90685C68.3324 3.13793 68.4343 2.60702 68.5269 2.3141C70.713 1.85641 72.612 1.62757 74.2238 1.62757C75.4465 1.62757 76.4932 1.74656 77.364 1.98456C78.2533 2.22256 78.9758 2.55209 79.5316 2.97317C80.1059 3.39424 80.5227 3.88854 80.7821 4.45607C81.06 5.0236 81.1989 5.6369 81.1989 6.29597C81.1989 6.97335 81.1063 7.61411 80.921 8.21825C80.7543 8.8224 80.4671 9.37162 80.0596 9.86593C79.652 10.3602 79.1055 10.7996 78.42 11.1841C77.753 11.5685 76.9194 11.8889 75.9189 12.1452C76.5303 12.6761 77.2621 13.0789 78.1143 13.3535C78.985 13.6098 80.004 13.7746 81.1712 13.8478C81.0785 14.8547 80.8747 15.8342 80.5598 16.7861C80.2448 17.7381 79.8465 18.5345 79.3648 19.1753C78.4385 19.157 77.6048 19.0288 76.8638 18.7908C76.1413 18.5528 75.5021 18.1775 74.9463 17.6649C74.409 17.1706 73.9644 16.5207 73.6124 15.7152C73.2604 14.9096 72.9918 13.9302 72.8065 12.7768ZM72.3063 9.83846C72.3619 9.83846 72.4175 9.84762 72.473 9.86593C72.5286 9.86593 72.5842 9.86593 72.6398 9.86593C73.0288 9.86593 73.4086 9.82016 73.7791 9.72862C74.1682 9.63708 74.5109 9.49062 74.8074 9.28924C75.1223 9.08786 75.3724 8.83155 75.5577 8.52033C75.7429 8.2091 75.8356 7.8338 75.8356 7.39442C75.8356 6.75366 75.6503 6.33258 75.2798 6.1312C74.9092 5.92982 74.5017 5.82913 74.057 5.82913C73.8718 5.82913 73.6958 5.83828 73.529 5.85659C73.3623 5.8749 73.2048 5.89321 73.0566 5.91151C72.964 6.14951 72.8714 6.44243 72.7787 6.79027C72.7046 7.13811 72.6305 7.49511 72.5564 7.86126C72.5008 8.22741 72.4453 8.59356 72.3897 8.95971C72.3526 9.30755 72.3248 9.60047 72.3063 9.83846Z" fill="white"></path><path d="M83.6939 2.53379C83.9718 2.46056 84.4998 2.39648 85.2779 2.34156C86.056 2.26833 86.9453 2.20425 87.9457 2.14933C88.9461 2.09441 89.9929 2.05779 91.0859 2.03948C92.179 2.00287 93.1887 1.98456 94.115 1.98456C94.4855 1.98456 94.8375 1.98456 95.171 1.98456C95.5044 1.98456 95.8101 1.99372 96.088 2.01202C96.051 2.37817 96.0047 2.79009 95.9491 3.24778C95.912 3.70546 95.8564 4.154 95.7823 4.59338C95.7268 5.03275 95.6619 5.44467 95.5878 5.82913C95.5137 6.19528 95.4489 6.4882 95.3933 6.70789C94.7263 6.67127 94.115 6.6255 93.5592 6.57058C93.0219 6.51566 92.4847 6.46074 91.9474 6.40581C91.4287 6.33258 90.8914 6.27766 90.3356 6.24105C89.7798 6.18613 89.1684 6.14951 88.5015 6.1312L87.9457 8.84986C88.6497 8.66679 89.4278 8.51117 90.28 8.38302C91.1508 8.23656 91.9752 8.16333 92.7533 8.16333H93.0868C93.0868 8.78579 93.0497 9.42655 92.9756 10.0856C92.92 10.7264 92.8552 11.2664 92.7811 11.7058H92.0585C91.1878 11.7058 90.4004 11.7424 89.6964 11.8157C89.011 11.8706 88.2607 11.9347 87.4455 12.0079C87.3899 12.3557 87.3436 12.6944 87.3065 13.024C87.288 13.3352 87.2602 13.6739 87.2232 14.04C88.2051 14.0217 89.2703 13.9393 90.419 13.7929C91.5676 13.6281 92.9015 13.4542 94.4207 13.2711C94.4392 13.6739 94.4577 14.0492 94.4762 14.397C94.4948 14.7449 94.504 15.1019 94.504 15.468C94.504 16.0722 94.4762 16.7678 94.4207 17.5551C93.5499 17.6832 92.5032 17.7656 91.2804 17.8022C90.0577 17.8388 88.8164 17.8571 87.5566 17.8571C86.408 17.8571 85.3242 17.848 84.3053 17.8297C83.2863 17.8114 82.4341 17.7839 81.7486 17.7473C81.7672 17.2164 81.8228 16.5207 81.9154 15.6602C82.008 14.7815 82.1099 13.8478 82.2211 12.8592C82.3508 11.8523 82.4804 10.8179 82.6101 9.75608C82.7583 8.67594 82.8973 7.66903 83.027 6.73535C83.1752 5.78336 83.3049 4.94122 83.416 4.20892C83.5272 3.45831 83.6198 2.89993 83.6939 2.53379Z" fill="white"></path><path d="M98.1599 2.28663C99.2159 2.10356 100.216 1.9571 101.161 1.84726C102.124 1.73741 103.051 1.68249 103.94 1.68249C105.052 1.68249 106.061 1.79233 106.969 2.01202C107.877 2.2134 108.646 2.55209 109.276 3.02809C109.924 3.48577 110.415 4.08992 110.748 4.84053C111.1 5.57282 111.276 6.46989 111.276 7.53172C111.276 7.80634 111.267 8.09926 111.249 8.41048C111.23 8.7034 111.193 9.01463 111.138 9.34416C110.86 11.12 110.424 12.5571 109.831 13.6556C109.257 14.754 108.553 15.6053 107.719 16.2095C106.904 16.8136 105.969 17.2164 104.913 17.4178C103.875 17.6374 102.754 17.7473 101.55 17.7473C100.772 17.7473 99.9754 17.7198 99.1603 17.6649C98.3451 17.61 97.5022 17.5551 96.6314 17.5001C96.6314 17.2621 96.65 16.777 96.687 16.0447C96.7426 15.3124 96.8074 14.4519 96.8815 13.4633C96.9742 12.4564 97.0668 11.3946 97.1594 10.2778C97.2706 9.14278 97.3818 8.05349 97.4929 7.00996C97.6226 5.94813 97.743 4.99614 97.8542 4.154C97.9653 3.31185 98.0672 2.6894 98.1599 2.28663ZM105.607 9.59131C105.644 9.35332 105.672 9.13363 105.691 8.93224C105.709 8.71256 105.719 8.51117 105.719 8.3281C105.719 7.55919 105.561 7.03742 105.246 6.76281C104.95 6.46989 104.542 6.32343 104.023 6.32343C103.82 6.32343 103.616 6.34174 103.412 6.37835C103.208 6.41497 102.986 6.45158 102.745 6.4882C102.615 7.09234 102.495 7.74226 102.384 8.43794C102.273 9.13363 102.171 9.80185 102.078 10.4426C102.004 11.0834 101.93 11.6692 101.856 12.2001C101.8 12.731 101.763 13.1155 101.745 13.3535C101.856 13.3718 101.967 13.381 102.078 13.381C102.189 13.381 102.3 13.381 102.412 13.381C102.782 13.381 103.134 13.3443 103.468 13.2711C103.801 13.1796 104.107 12.9965 104.385 12.7219C104.663 12.4473 104.903 12.0628 105.107 11.5685C105.33 11.0742 105.496 10.4151 105.607 9.59131Z" fill="white"></path><path d="M118.745 17.8846C118.764 17.5551 118.791 17.0333 118.829 16.3193C118.884 15.587 118.949 14.7449 119.023 13.7929C119.116 12.8409 119.208 11.8248 119.301 10.7447C119.412 9.64624 119.523 8.57525 119.634 7.53172C119.764 6.46989 119.894 5.48129 120.023 4.56591C120.172 3.63223 120.311 2.85417 120.44 2.23171C121.459 2.03033 122.599 1.84725 123.858 1.68249C125.137 1.49941 126.387 1.40788 127.61 1.40788C128.407 1.40788 129.148 1.4628 129.833 1.57264C130.537 1.68249 131.139 1.87472 131.639 2.14933C132.158 2.40563 132.566 2.75347 132.862 3.19285C133.159 3.63223 133.307 4.19061 133.307 4.86799C133.307 5.56367 133.196 6.20443 132.973 6.79027C132.77 7.3578 132.482 7.86126 132.112 8.30064C131.76 8.72171 131.343 9.06955 130.861 9.34416C130.38 9.61878 129.87 9.7927 129.333 9.86593C129.796 9.90254 130.222 10.0032 130.611 10.168C131.019 10.3328 131.371 10.5525 131.667 10.8271C131.982 11.1017 132.223 11.4221 132.39 11.7882C132.575 12.1361 132.668 12.5205 132.668 12.9416C132.668 13.1796 132.631 13.4908 132.557 13.8753C132.501 14.2414 132.371 14.635 132.167 15.0561C131.982 15.4589 131.704 15.8708 131.334 16.2918C130.963 16.6946 130.472 17.0608 129.861 17.3903C129.268 17.7198 128.527 17.9853 127.638 18.1867C126.749 18.4064 125.693 18.5162 124.47 18.5162C123.673 18.5162 122.802 18.4613 121.858 18.3514C120.913 18.2599 119.875 18.1043 118.745 17.8846ZM125.303 6.21359C125.155 6.68958 125.035 7.17473 124.942 7.66903C124.85 8.14502 124.757 8.62102 124.664 9.09701C124.813 9.13363 124.951 9.15193 125.081 9.15193C125.229 9.15193 125.378 9.15193 125.526 9.15193C126.341 9.15193 126.971 8.95055 127.415 8.54779C127.86 8.14502 128.082 7.5958 128.082 6.90012C128.082 6.57058 127.953 6.34174 127.693 6.21359C127.453 6.08543 127.147 6.02136 126.776 6.02136C126.535 6.02136 126.285 6.03967 126.026 6.07628C125.767 6.1129 125.526 6.15866 125.303 6.21359ZM124.247 14.04C124.47 14.0949 124.711 14.1499 124.97 14.2048C125.229 14.2597 125.507 14.2872 125.804 14.2872C125.989 14.2872 126.183 14.2597 126.387 14.2048C126.61 14.1499 126.804 14.0583 126.971 13.9302C127.156 13.802 127.304 13.6281 127.415 13.4084C127.545 13.1887 127.61 12.905 127.61 12.5571C127.61 12.191 127.48 11.9438 127.221 11.8157C126.98 11.6692 126.665 11.596 126.276 11.596C125.98 11.596 125.665 11.6326 125.331 11.7058C125.016 11.7607 124.692 11.8431 124.359 11.953C124.322 12.3374 124.294 12.7036 124.275 13.0514C124.257 13.3993 124.247 13.7288 124.247 14.04Z" fill="white"></path><path d="M134.277 2.78094C134.555 2.67109 134.926 2.56125 135.389 2.4514C135.852 2.32325 136.361 2.20425 136.917 2.09441C137.473 1.98456 138.057 1.89302 138.668 1.8198C139.298 1.74657 139.919 1.69164 140.53 1.65503C140.493 1.87472 140.474 2.10356 140.474 2.34156C140.474 2.56125 140.474 2.79009 140.474 3.02809C140.474 3.59562 140.502 4.18146 140.558 4.7856C140.613 5.37144 140.687 5.94813 140.78 6.51566C140.873 7.06488 140.993 7.57749 141.141 8.05349C141.29 8.52948 141.465 8.93225 141.669 9.26178C142.188 8.51117 142.753 7.49511 143.364 6.21359C143.976 4.91376 144.467 3.39424 144.837 1.65503C145.652 1.65503 146.579 1.75572 147.616 1.9571C148.654 2.14018 149.663 2.48802 150.645 3.00063C150.145 4.35538 149.58 5.5179 148.95 6.4882C148.32 7.45849 147.681 8.30979 147.033 9.04209C146.384 9.75608 145.745 10.3785 145.115 10.9095C144.504 11.4221 143.967 11.8981 143.503 12.3374C143.503 12.7585 143.485 13.2437 143.448 13.7929C143.411 14.3238 143.364 14.8456 143.309 15.3582C143.253 15.8708 143.198 16.3285 143.142 16.7312C143.105 17.134 143.077 17.4086 143.059 17.5551C142.429 17.61 141.827 17.6558 141.252 17.6924C140.678 17.729 140.132 17.7473 139.613 17.7473C139.279 17.7473 138.964 17.7381 138.668 17.7198C138.372 17.7015 138.094 17.6741 137.834 17.6374C137.945 17.0333 138.029 16.5115 138.084 16.0722C138.14 15.6145 138.196 15.1934 138.251 14.8089C138.307 14.4062 138.362 14.0217 138.418 13.6556C138.473 13.2894 138.548 12.8867 138.64 12.4473C138.214 12.0079 137.779 11.5228 137.334 10.9918C136.889 10.4426 136.463 9.80185 136.056 9.06955C135.648 8.31894 135.287 7.44019 134.972 6.43328C134.657 5.40806 134.426 4.19061 134.277 2.78094Z" fill="white"></path><path d="M168.271 8.10841C168.16 8.07179 167.966 7.9711 167.688 7.80634C167.428 7.62326 167.113 7.43103 166.743 7.22965C166.391 7.02827 166.002 6.84519 165.576 6.68043C165.168 6.51566 164.77 6.43328 164.381 6.43328C163.88 6.43328 163.482 6.55227 163.186 6.79027C162.908 7.00996 162.769 7.27542 162.769 7.58665C162.769 7.89787 162.926 8.19995 163.241 8.49287C163.556 8.78579 164.066 9.00548 164.77 9.15193C165.826 9.37162 166.669 9.66454 167.299 10.0307C167.928 10.3785 168.41 10.7538 168.744 11.1566C169.096 11.5411 169.327 11.9347 169.438 12.3374C169.55 12.7219 169.605 13.0514 169.605 13.326C169.605 14.2414 169.411 15.0561 169.022 15.7701C168.632 16.4658 168.132 17.0516 167.521 17.5276C166.91 18.0036 166.215 18.3606 165.437 18.5986C164.677 18.8549 163.908 18.983 163.13 18.983C162.315 18.983 161.546 18.8915 160.824 18.7084C160.101 18.5437 159.443 18.3057 158.851 17.9944C158.276 17.7015 157.776 17.3445 157.35 16.9235C156.942 16.5024 156.646 16.0355 156.461 15.5229C156.702 15.2117 156.97 14.9005 157.267 14.5893C157.582 14.2597 157.906 13.9485 158.239 13.6556C158.573 13.3443 158.897 13.0514 159.212 12.7768C159.545 12.5022 159.842 12.255 160.101 12.0354C160.75 12.8043 161.37 13.3443 161.963 13.6556C162.574 13.9485 163.121 14.095 163.603 14.095C163.843 14.095 164.075 14.04 164.297 13.9302C164.52 13.802 164.631 13.5274 164.631 13.1063C164.631 12.8867 164.584 12.7127 164.492 12.5846C164.399 12.4381 164.242 12.31 164.019 12.2001C163.797 12.0903 163.51 11.9804 163.158 11.8706C162.806 11.7607 162.371 11.6234 161.852 11.4587C161.203 11.2573 160.601 11.0376 160.046 10.7996C159.508 10.5433 159.045 10.2412 158.656 9.89339C158.267 9.54554 157.961 9.14278 157.739 8.68509C157.517 8.2091 157.406 7.64157 157.406 6.9825C157.406 5.92067 157.591 5.00529 157.961 4.23638C158.332 3.46747 158.832 2.83586 159.462 2.34156C160.092 1.84726 160.814 1.49026 161.63 1.27057C162.463 1.03257 163.343 0.913574 164.27 0.913574C165.566 0.913574 166.863 1.13326 168.16 1.57264C169.457 1.99372 170.587 2.58871 171.55 3.35762C171.402 3.77869 171.198 4.21807 170.939 4.67576C170.68 5.11514 170.392 5.54536 170.078 5.96643C169.781 6.38751 169.466 6.79027 169.133 7.17473C168.818 7.54088 168.531 7.8521 168.271 8.10841Z" fill="white"></path><path d="M178.652 14.2048C179.152 14.2048 179.578 14.0492 179.93 13.738C180.301 13.4084 180.597 12.9873 180.82 12.4747C181.061 11.9621 181.237 11.3946 181.348 10.7721C181.459 10.1497 181.514 9.54555 181.514 8.95971C181.514 8.28233 181.394 7.73311 181.153 7.31203C180.931 6.89096 180.495 6.68043 179.847 6.68043C179.384 6.68043 178.967 6.83604 178.597 7.14727C178.226 7.45849 177.902 7.8521 177.624 8.3281C177.365 8.80409 177.161 9.34416 177.013 9.94831C176.883 10.5341 176.818 11.1017 176.818 11.6509C176.818 12.493 176.957 13.1247 177.235 13.5457C177.531 13.9485 178.004 14.1682 178.652 14.2048ZM180.125 1.49026C181.014 1.49026 181.894 1.60926 182.765 1.84726C183.654 2.06694 184.442 2.44225 185.127 2.97317C185.831 3.48577 186.396 4.1723 186.822 5.03275C187.248 5.89321 187.461 6.95504 187.461 8.21825C187.461 9.53639 187.313 10.7081 187.017 11.7333C186.72 12.7402 186.322 13.619 185.822 14.3696C185.34 15.1019 184.784 15.7152 184.154 16.2095C183.525 16.7038 182.876 17.0974 182.209 17.3903C181.542 17.7015 180.875 17.9212 180.208 18.0494C179.56 18.1775 178.976 18.2416 178.458 18.2416C177.383 18.2416 176.392 18.1043 175.484 17.8297C174.595 17.5734 173.826 17.1706 173.178 16.6214C172.529 16.0722 172.02 15.3673 171.649 14.5069C171.297 13.6464 171.121 12.6212 171.121 11.4312C171.121 9.74693 171.381 8.28233 171.899 7.03742C172.418 5.79251 173.094 4.75814 173.928 3.93431C174.78 3.11047 175.743 2.49717 176.818 2.09441C177.893 1.69164 178.995 1.49026 180.125 1.49026Z" fill="white"></path><path d="M190.274 2.12187C190.626 2.06694 191.117 2.03948 191.747 2.03948C192.432 2.03948 193.173 2.08525 193.97 2.17679C194.785 2.25002 195.517 2.35986 196.165 2.50632C195.962 3.20201 195.739 4.035 195.498 5.00529C195.276 5.97559 195.054 6.9825 194.831 8.02603C194.628 9.05124 194.433 10.0582 194.248 11.0468C194.081 12.0354 193.942 12.8958 193.831 13.6281C194.572 13.4633 195.489 13.2894 196.582 13.1063C197.675 12.905 198.972 12.7494 200.473 12.6395C200.473 12.8409 200.473 13.0972 200.473 13.4084C200.491 13.7013 200.5 14.0309 200.5 14.397C200.5 14.9279 200.482 15.4863 200.445 16.0722C200.408 16.658 200.343 17.1615 200.25 17.5825C199.88 17.6374 199.324 17.6832 198.583 17.7198C197.842 17.7748 197.018 17.8205 196.11 17.8571C195.22 17.8937 194.285 17.9212 193.303 17.9395C192.321 17.9578 191.404 17.967 190.552 17.967C190.07 17.967 189.626 17.9578 189.218 17.9395C188.81 17.9395 188.44 17.9304 188.106 17.9121C188.162 17.2896 188.236 16.5665 188.329 15.7426C188.421 14.9188 188.523 14.04 188.634 13.1063C188.764 12.1544 188.894 11.1841 189.023 10.1955C189.172 9.18855 189.311 8.2091 189.44 7.25711C189.589 6.28682 189.727 5.36229 189.857 4.48353C190.005 3.60477 190.144 2.81755 190.274 2.12187Z" fill="white"></path><path d="M209.228 1.57264C209.469 1.51772 209.802 1.47195 210.228 1.43534C210.673 1.39872 211.191 1.38042 211.784 1.38042C212.396 1.38042 213.081 1.40788 213.841 1.4628C214.1 3.22032 214.369 4.82222 214.647 6.26851C214.943 7.7148 215.24 9.05124 215.536 10.2778C215.851 11.5044 216.175 12.6487 216.509 13.7105C216.861 14.754 217.231 15.7426 217.62 16.6763C216.935 17.0425 216.092 17.372 215.091 17.6649C214.109 17.9761 213.1 18.2691 212.062 18.5437C211.84 18.1958 211.608 17.7198 211.367 17.1157C211.127 16.5115 210.932 15.8616 210.784 15.1659C210.284 15.2575 209.691 15.3399 209.005 15.4131C208.338 15.4863 207.579 15.5412 206.727 15.5779C206.578 16.1088 206.439 16.5756 206.31 16.9784C206.199 17.3628 206.097 17.7839 206.004 18.2416C205.059 18.205 204.17 18.0768 203.336 17.8571C202.521 17.6374 201.678 17.3811 200.807 17.0882C201.215 15.9715 201.734 14.7449 202.364 13.4084C202.994 12.072 203.679 10.7172 204.42 9.34416C205.18 7.9528 205.967 6.58889 206.782 5.25244C207.616 3.916 208.431 2.6894 209.228 1.57264ZM210.006 7.06488C209.746 7.55919 209.45 8.19079 209.117 8.95971C208.802 9.72862 208.459 10.5982 208.088 11.5685C208.144 11.5685 208.218 11.5777 208.311 11.596C208.403 11.596 208.514 11.596 208.644 11.596C208.903 11.596 209.191 11.596 209.506 11.596C209.821 11.5777 210.098 11.5685 210.339 11.5685C210.228 10.7996 210.145 10.0673 210.089 9.37162C210.034 8.65763 210.006 7.88872 210.006 7.06488Z" fill="white"></path><path d="M218.144 17.967C218.182 17.6741 218.246 17.1615 218.339 16.4292C218.432 15.6785 218.533 14.8181 218.645 13.8478C218.774 12.8775 218.913 11.8431 219.061 10.7447C219.21 9.64624 219.358 8.5844 219.506 7.55919C219.673 6.51566 219.821 5.57282 219.951 4.73068C220.08 3.87023 220.201 3.19285 220.312 2.69855C221.201 2.51548 222.109 2.35071 223.035 2.20425C223.962 2.05779 224.999 1.97541 226.148 1.9571C226.296 2.34156 226.463 2.8267 226.648 3.41254C226.833 3.99838 227.028 4.62999 227.232 5.30737C227.435 5.98474 227.63 6.68958 227.815 7.42188C228.019 8.13587 228.195 8.81325 228.343 9.45401C228.491 10.0948 228.612 10.6715 228.704 11.1841C228.816 11.6784 228.88 12.0537 228.899 12.31C228.955 11.4312 229.001 10.6165 229.038 9.86593C229.075 9.09701 229.131 8.3281 229.205 7.55919C229.279 6.79027 229.381 5.9939 229.51 5.17006C229.64 4.34622 229.807 3.44 230.011 2.4514H231.122C231.9 2.4514 232.669 2.47886 233.429 2.53379C234.188 2.5704 234.818 2.64363 235.318 2.75348C235.04 4.035 234.772 5.24329 234.512 6.37835C234.272 7.51342 234.04 8.65763 233.818 9.811C233.595 10.9644 233.392 12.1727 233.206 13.4359C233.021 14.6991 232.845 16.0996 232.678 17.6374C231.993 17.7656 231.363 17.848 230.789 17.8846C230.233 17.9395 229.714 17.967 229.232 17.967C228.843 17.967 228.473 17.9578 228.121 17.9395C227.787 17.9212 227.463 17.9121 227.148 17.9121C226.796 16.8502 226.472 15.9257 226.176 15.1385C225.898 14.3329 225.638 13.6281 225.397 13.024C225.157 12.4015 224.925 11.8523 224.703 11.3763C224.48 10.882 224.249 10.406 224.008 9.94831C223.952 10.7355 223.897 11.4678 223.841 12.1452C223.786 12.8226 223.739 13.4725 223.702 14.095C223.665 14.7174 223.628 15.3216 223.591 15.9074C223.573 16.4932 223.563 17.0699 223.563 17.6374C223.174 17.729 222.739 17.7931 222.257 17.8297C221.776 17.8663 221.285 17.8846 220.784 17.8846C220.303 17.9029 219.83 17.9121 219.367 17.9121C218.904 17.9304 218.496 17.9487 218.144 17.967Z" fill="white"></path><path d="M242.608 1.57264C242.848 1.51772 243.182 1.47195 243.608 1.43534C244.053 1.39872 244.571 1.38042 245.164 1.38042C245.776 1.38042 246.461 1.40788 247.221 1.4628C247.48 3.22032 247.749 4.82222 248.027 6.26851C248.323 7.7148 248.619 9.05124 248.916 10.2778C249.231 11.5044 249.555 12.6487 249.889 13.7105C250.241 14.754 250.611 15.7426 251 16.6763C250.315 17.0425 249.472 17.372 248.471 17.6649C247.489 17.9761 246.48 18.2691 245.442 18.5437C245.22 18.1958 244.988 17.7198 244.747 17.1157C244.507 16.5115 244.312 15.8616 244.164 15.1659C243.664 15.2575 243.071 15.3399 242.385 15.4131C241.718 15.4863 240.959 15.5412 240.107 15.5779C239.958 16.1088 239.819 16.5756 239.69 16.9784C239.579 17.3628 239.477 17.7839 239.384 18.2416C238.439 18.205 237.55 18.0768 236.716 17.8571C235.901 17.6374 235.058 17.3811 234.187 17.0882C234.595 15.9715 235.114 14.7449 235.744 13.4084C236.374 12.072 237.059 10.7172 237.8 9.34416C238.56 7.9528 239.347 6.58889 240.162 5.25244C240.996 3.916 241.811 2.6894 242.608 1.57264ZM243.386 7.06488C243.126 7.55919 242.83 8.19079 242.496 8.95971C242.182 9.72862 241.839 10.5982 241.468 11.5685C241.524 11.5685 241.598 11.5777 241.691 11.596C241.783 11.596 241.894 11.596 242.024 11.596C242.283 11.596 242.571 11.596 242.886 11.596C243.201 11.5777 243.478 11.5685 243.719 11.5685C243.608 10.7996 243.525 10.0673 243.469 9.37162C243.414 8.65763 243.386 7.88872 243.386 7.06488Z" fill="white"></path></svg> 