<?xml version="1.0" encoding="UTF-8"?> <svg xmlns="http://www.w3.org/2000/svg" width="783" height="782" viewBox="0 0 783 782" fill="none"><g opacity="0.8"><g opacity="0.58"><path d="M392.036 0.0390625H369.422L392.036 390.889L414.646 0.0390625H392.036Z" fill="#7E99E5"></path><path d="M493.533 13.4466L471.698 7.57471L392.036 390.889L515.367 19.3186L493.533 13.4466Z" fill="#7E99E5"></path><path d="M588.066 52.7533L568.505 41.4131L392.036 390.89L607.626 64.0936L588.066 52.7533Z" fill="#7E99E5"></path><path d="M669.149 115.259L653.204 99.2266L392.036 390.889L685.094 131.292L669.149 115.259Z" fill="#7E99E5"></path><path d="M731.22 196.677L719.982 177.057L392.036 390.89L742.455 216.3L731.22 196.677Z" fill="#7E99E5"></path><path d="M770.014 291.421L764.261 269.555L392.036 390.889L775.77 313.291L770.014 291.421Z" fill="#7E99E5"></path><path d="M782.877 392.992L783 370.382L392.036 390.89L782.754 415.602L782.877 392.992Z" fill="#7E99E5"></path><path d="M768.922 494.415L774.913 472.612L392.036 390.89L762.935 516.218L768.922 494.415Z" fill="#7E99E5"></path><path d="M729.107 588.738L740.556 569.238L392.036 390.89L717.662 608.239L729.107 588.738Z" fill="#7E99E5"></path><path d="M666.166 669.482L682.283 653.624L392.036 390.89L650.049 685.343L666.166 669.482Z" fill="#7E99E5"></path><path d="M584.415 731.114L604.098 719.985L392.036 390.89L564.732 742.244L584.415 731.114Z" fill="#7E99E5"></path><path d="M489.465 769.399L511.362 763.763L392.036 390.89L467.567 775.036L489.465 769.399Z" fill="#7E99E5"></path><path d="M387.828 781.715L410.438 781.961L392.036 390.89L365.218 781.473L387.828 781.715Z" fill="#7E99E5"></path><path d="M286.482 767.216L308.254 773.323L392.036 390.89L264.711 761.109L286.482 767.216Z" fill="#7E99E5"></path><path d="M192.378 726.895L211.815 738.446L392.036 390.89L172.937 715.345L192.378 726.895Z" fill="#7E99E5"></path><path d="M111.971 663.519L127.744 679.72L392.036 390.89L96.1982 647.317L111.971 663.519Z" fill="#7E99E5"></path><path d="M50.7816 581.438L61.8059 601.177L392.036 390.89L39.7573 561.695L50.7816 581.438Z" fill="#7E99E5"></path><path d="M13.0057 486.28L18.5266 508.209L392.036 390.89L7.48828 464.354L13.0057 486.28Z" fill="#7E99E5"></path><path d="M1.23709 384.579L0.87207 407.186L392.036 390.89L1.60211 361.972L1.23709 384.579Z" fill="#7E99E5"></path><path d="M16.2839 283.31L10.061 305.049L392.036 390.889L22.5068 261.573L16.2839 283.31Z" fill="#7E99E5"></path><path d="M57.1097 189.422L45.4536 208.8L392.036 390.889L68.7657 170.048L57.1097 189.422Z" fill="#7E99E5"></path><path d="M120.918 109.359L104.632 125.045L392.036 390.889L137.203 93.6738L120.918 109.359Z" fill="#7E99E5"></path><path d="M203.328 48.6113L183.526 59.5304L392.036 390.889L223.127 37.6958L203.328 48.6113Z" fill="#7E99E5"></path><path d="M298.686 11.3478L276.729 16.7494L392.036 390.889L320.64 5.94971L298.686 11.3478Z" fill="#7E99E5"></path></g></g></svg> 