<?xml version="1.0" encoding="UTF-8"?>
<svg id="_Слой_1" data-name="Слой_1" xmlns="http://www.w3.org/2000/svg" version="1.1" viewBox="0 0 907 445">
  <!-- Generator: Adobe Illustrator 29.3.1, SVG Export Plug-In . SVG Version: 2.1.0 Build 151)  -->
  <defs>
    <style>
      .st0 {
        fill: #fff;
      }
    </style>
  </defs>
  <path class="st0" d="M0,430.1c4.7-12.5,9.8-26.3,15.2-41.4,5.7-15.3,11-31.1,15.9-47.4,5.2-16.3,9.8-32.6,13.8-49.1s6.8-32.2,8.5-47c10.1-3.1,20.9-5.5,32.2-7.4,11.6-1.9,24.5-3.4,38.9-4.6,1.9,4,3.5,9.9,5,17.7,1.6,7.8,2.9,16.7,3.9,26.9,1.2,10.1,2,21.2,2.5,33.2.7,12,1.1,24.2,1.1,36.4v9.5c8.5-23.3,18.2-45.5,29-66.5,11.1-21.2,23-40.3,35.7-57.3,4,.5,8.7,1.2,14.1,2.1,5.7.7,11.4,1.8,17.3,3.2,6.1,1.2,12,2.5,17.7,3.9,5.7,1.2,10.6,2.4,14.9,3.5-1.9,18.4-3.5,37.4-5,56.9-1.2,19.3-1.8,38.2-1.8,56.6s.5,26.2,1.4,38.2c.9,11.8,2.5,22.6,4.6,32.5-4.7,1.9-10.7,3.7-18,5.3-7.3,1.6-14.7,3.1-22.3,4.2-7.5,1.4-14.6,2.5-21.2,3.2-6.6.9-11.7,1.4-15.2,1.4-.9-5.4-1.7-11.1-2.1-17-.5-6.1-.7-12.4-.7-18.7,0-23.8,2.8-49.4,8.5-76.7-5.2,8.5-10,17.1-14.5,25.8-4.2,8.5-8.1,16.7-11.7,24.8-3.3,8-6.2,15.6-8.8,22.6-2.4,6.8-4.1,12.8-5.3,18-2.6.5-5.3.7-8.1.7h-7.8c-7.8,0-14.9-.4-21.2-1.1s-10.8-1.3-13.4-1.8c-1.9-20.7-3.7-38.7-5.3-53.7s-3.4-28.6-5.3-40.7c-.7,9.7-2,20.5-3.9,32.5-1.7,11.8-3.7,23.5-6,35-2.1,11.3-4.4,21.7-6.7,31.1-2.1,9.2-3.9,15.8-5.3,19.8-5.2,0-11.3-.6-18.4-1.8-7.1-1.2-14-2.6-20.9-4.2-6.8-1.4-13.1-2.9-18.7-4.6-5.9-1.6-10-3.1-12.4-4.2Z"/>
  <path class="st0" d="M302.4,244.2c3.5-.9,10.3-1.8,20.2-2.5,9.9-.9,21.2-1.8,33.9-2.5,12.7-.7,26.1-1.2,40-1.4,13.9-.5,26.8-.7,38.5-.7h13.4c4.2,0,8.1.1,11.7.4-.5,4.7-1.1,10-1.8,15.9-.5,5.9-1.2,11.7-2.1,17.3-.7,5.7-1.5,11-2.5,15.9-.9,4.7-1.8,8.5-2.5,11.3-8.5-.5-16.3-1.1-23.3-1.8l-20.5-2.1c-6.6-.9-13.4-1.6-20.5-2.1-7.1-.7-14.9-1.2-23.3-1.4l-7.1,35c9-2.4,18.9-4.4,29.7-6,11.1-1.9,21.6-2.8,31.5-2.8h4.2c0,8-.5,16.3-1.4,24.8-.7,8.3-1.5,15.2-2.5,20.9h-9.2c-11.1,0-21.1.5-30.1,1.4-8.7.7-18.3,1.5-28.6,2.5-.7,4.5-1.3,8.8-1.8,13.1-.2,4-.6,8.4-1.1,13.1,12.5-.2,26.1-1.3,40.7-3.2,14.6-2.1,31.6-4.4,50.9-6.7.2,5.2.5,10,.7,14.5.2,4.5.4,9.1.4,13.8,0,7.8-.4,16.7-1.1,26.9-11.1,1.7-24.4,2.7-40,3.2-15.6.5-31.4.7-47.4.7s-28.4-.1-41.4-.4c-13-.2-23.8-.6-32.5-1.1.2-6.8.9-15.8,2.1-26.9,1.2-11.3,2.5-23.3,3.9-36.1,1.6-13,3.3-26.3,5-40,1.9-13.9,3.7-26.9,5.3-38.9,1.9-12.3,3.5-23.1,5-32.5,1.4-9.7,2.6-16.9,3.5-21.6Z"/>
  <path class="st0" d="M446.9,430.1c4.7-12.5,9.8-26.3,15.2-41.4,5.7-15.3,11-31.1,15.9-47.4,5.2-16.3,9.8-32.6,13.8-49.1,4-16.5,6.8-32.2,8.5-47,10.1-3.1,20.9-5.5,32.2-7.4,11.6-1.9,24.5-3.4,38.9-4.6,1.9,4,3.5,9.9,5,17.7,1.7,7.8,2.9,16.7,3.9,26.9,1.2,10.1,2,21.2,2.5,33.2.7,12,1.1,24.2,1.1,36.4v9.5c8.5-23.3,18.2-45.5,29-66.5,11.1-21.2,23-40.3,35.7-57.3,4,.5,8.7,1.2,14.1,2.1,5.7.7,11.4,1.8,17.3,3.2,6.1,1.2,12,2.5,17.7,3.9,5.7,1.2,10.6,2.4,14.9,3.5-1.9,18.4-3.5,37.4-5,56.9-1.2,19.3-1.8,38.2-1.8,56.6s.5,26.2,1.4,38.2c.9,11.8,2.5,22.6,4.6,32.5-4.7,1.9-10.7,3.7-18,5.3-7.3,1.6-14.7,3.1-22.3,4.2-7.5,1.4-14.6,2.5-21.2,3.2-6.6.9-11.7,1.4-15.2,1.4-.9-5.4-1.7-11.1-2.1-17-.5-6.1-.7-12.4-.7-18.7,0-23.8,2.8-49.4,8.5-76.7-5.2,8.5-10,17.1-14.5,25.8-4.2,8.5-8.1,16.7-11.7,24.8-3.3,8-6.2,15.6-8.8,22.6-2.4,6.8-4.1,12.8-5.3,18-2.6.5-5.3.7-8.1.7h-7.8c-7.8,0-14.9-.4-21.2-1.1-6.4-.7-10.8-1.3-13.4-1.8-1.9-20.7-3.7-38.7-5.3-53.7-1.7-15.1-3.4-28.6-5.3-40.7-.7,9.7-2,20.5-3.9,32.5-1.7,11.8-3.7,23.5-6,35-2.1,11.3-4.4,21.7-6.7,31.1-2.1,9.2-3.9,15.8-5.3,19.8-5.2,0-11.3-.6-18.4-1.8-7.1-1.2-14-2.6-20.9-4.2-6.8-1.4-13.1-2.9-18.7-4.6-5.9-1.6-10-3.1-12.4-4.2Z"/>
  <path class="st0" d="M749.3,244.2c3.5-.9,10.3-1.8,20.2-2.5,9.9-.9,21.2-1.8,33.9-2.5s26.1-1.2,40-1.4c13.9-.5,26.8-.7,38.5-.7h13.4c4.2,0,8.1.1,11.7.4-.5,4.7-1.1,10-1.8,15.9-.5,5.9-1.2,11.7-2.1,17.3-.7,5.7-1.5,11-2.5,15.9-.9,4.7-1.8,8.5-2.5,11.3-8.5-.5-16.3-1.1-23.3-1.8-6.8-.7-13.7-1.4-20.5-2.1-6.6-.9-13.4-1.6-20.5-2.1-7.1-.7-14.9-1.2-23.3-1.4l-7.1,35c9-2.4,18.9-4.4,29.7-6,11.1-1.9,21.6-2.8,31.5-2.8h4.2c0,8-.5,16.3-1.4,24.8-.7,8.3-1.5,15.2-2.5,20.9h-9.2c-11.1,0-21.1.5-30.1,1.4-8.7.7-18.3,1.5-28.6,2.5-.7,4.5-1.3,8.8-1.8,13.1-.2,4-.6,8.4-1.1,13.1,12.5-.2,26.1-1.3,40.7-3.2,14.6-2.1,31.6-4.4,50.9-6.7.2,5.2.5,10,.7,14.5.2,4.5.4,9.1.4,13.8,0,7.8-.4,16.7-1.1,26.9-11.1,1.7-24.4,2.7-40,3.2-15.6.5-31.4.7-47.4.7s-28.4-.1-41.4-.4c-13-.2-23.8-.6-32.5-1.1.2-6.8.9-15.8,2.1-26.9,1.2-11.3,2.5-23.3,3.9-36.1,1.6-13,3.3-26.3,5-40,1.9-13.9,3.7-26.9,5.3-38.9,1.9-12.3,3.5-23.1,5-32.5,1.4-9.7,2.6-16.9,3.5-21.6Z"/>
</svg>