<?xml version="1.0" encoding="UTF-8"?> <svg xmlns="http://www.w3.org/2000/svg" width="378" height="372" viewBox="0 0 378 372" fill="none"><path d="M54.562 232.907C32.1276 249.87 63.5091 291.196 85.9102 274.233C75.6611 283.498 88.9148 298.095 99.1638 288.863C75.5609 319.891 112.584 347.92 136.187 316.892C116.257 353.385 144.967 368.982 164.865 332.489C157.353 376.448 193.809 382.68 201.321 338.688C226.292 394.278 270.694 374.382 245.689 318.825C286.485 365.65 349.482 310.959 308.686 264.134C353.287 292.963 375.555 258.602 330.953 229.807C382.165 251.137 395.285 219.809 344.04 198.479C402.062 176.05 379.828 118.694 321.806 141.123C358.662 107.962 332.489 78.934 295.632 112.128C317.265 83.6665 283.246 57.9045 261.613 86.3661C280.976 49.7392 234.538 25.2769 215.142 61.8704C215.977 24.4104 166.601 16.3785 169.906 58.9376C154.949 16.7451 105.64 34.1753 120.597 76.3678C103.771 50.8724 73.3576 70.8688 90.1834 96.3643C70.0525 77.3343 27.4871 122.293 47.618 141.29C28.7891 132.791 16.4368 160.12 35.2657 168.618C16.3367 167.118 14.1333 195.247 33.029 196.746C14.634 203.512 20.877 220.476 39.2719 213.71C19.1076 229.674 34.3643 248.904 54.5286 232.907H54.562Z" fill="#1E3FE7"></path><path d="M34.6477 202.907C12.2133 219.87 43.5948 261.196 65.9958 244.233C55.7468 253.498 69.0005 268.095 79.2495 258.863C55.6466 289.891 92.6701 317.92 116.273 286.892C96.3424 323.385 125.053 338.982 144.95 302.489C137.439 346.448 173.895 352.68 181.406 308.688C206.378 364.278 250.78 344.382 225.775 288.825C266.57 335.65 329.567 280.959 288.771 234.134C333.373 262.963 355.641 228.602 311.039 199.807C362.251 221.137 375.371 189.809 324.126 168.479C382.148 146.05 359.914 88.6936 301.891 111.123C338.748 77.9622 312.574 48.934 275.718 82.1281C297.351 53.6665 263.332 27.9045 241.699 56.3661C261.062 19.7392 214.624 -4.72307 195.228 31.8704C196.062 -5.58958 146.686 -13.6215 149.991 28.9376C135.035 -13.2549 85.7261 4.17535 100.682 46.3678C83.8566 20.8724 53.4432 40.8688 70.2691 66.3643C50.1382 47.3343 7.5728 92.293 27.7037 111.29C8.8748 102.791 -3.47749 130.12 15.3514 138.618C-3.57765 137.118 -5.78103 165.247 13.1146 166.746C-5.28026 173.512 0.962657 190.476 19.3576 183.71C-0.806726 199.674 14.45 218.904 34.6143 202.907H34.6477Z" fill="white"></path></svg> 