<?xml version="1.0" encoding="UTF-8"?> <svg xmlns="http://www.w3.org/2000/svg" width="907" height="445" viewBox="0 0 907 445" fill="none"><path d="M18.0354 212.513C18.2712 208.27 18.6248 201.552 19.0963 192.358C19.8036 182.929 20.6287 172.085 21.5718 159.827C22.7505 147.569 23.9293 134.486 25.1081 120.578C26.5226 106.434 27.9372 92.6432 29.3517 79.2064C31.002 65.5338 32.6523 52.8042 34.3026 41.0176C36.1887 28.9952 37.9569 18.9765 39.6072 10.9616C52.5738 8.36853 67.0728 6.01119 83.1043 3.88959C99.3715 1.53226 115.285 0.353595 130.845 0.353595C140.983 0.353595 150.413 1.0608 159.136 2.47521C168.095 3.8896 175.757 6.3648 182.122 9.90079C188.723 13.2011 193.91 17.68 197.682 23.3376C201.454 28.9952 203.34 36.185 203.34 44.9072C203.34 53.865 201.926 62.1157 199.097 69.6592C196.503 76.9669 192.849 83.4496 188.134 89.1071C183.655 94.529 178.35 99.0079 172.22 102.544C166.091 106.08 159.607 108.319 152.77 109.262C158.664 109.734 164.087 111.03 169.038 113.152C174.224 115.274 178.704 118.102 182.476 121.638C186.484 125.174 189.549 129.3 191.67 134.014C194.028 138.493 195.207 143.444 195.207 148.866C195.207 151.93 194.735 155.938 193.792 160.888C193.085 165.603 191.435 170.671 188.841 176.093C186.484 181.279 182.947 186.583 178.232 192.005C173.517 197.191 167.269 201.905 159.49 206.149C151.945 210.392 142.515 213.81 131.199 216.403C119.882 219.232 106.444 220.646 90.8843 220.646C80.7467 220.646 69.6662 219.939 57.6426 218.525C45.619 217.346 32.4166 215.342 18.0354 212.513ZM101.493 62.2336C99.6073 68.3626 98.0749 74.6096 96.8961 80.9743C95.7173 87.1034 94.5385 93.2325 93.3597 99.3615C95.2458 99.833 97.014 100.069 98.6643 100.069C100.55 100.069 102.436 100.069 104.322 100.069C114.696 100.069 122.711 97.4757 128.37 92.2896C134.028 87.1034 136.857 80.0314 136.857 71.0736C136.857 66.8304 135.207 63.8837 131.906 62.2336C128.841 60.5834 124.951 59.7584 120.236 59.7584C117.171 59.7584 113.988 59.9941 110.688 60.4656C107.387 60.937 104.322 61.5264 101.493 62.2336ZM88.0552 163.01C90.8843 163.717 93.9491 164.424 97.2497 165.131C100.55 165.838 104.087 166.192 107.859 166.192C110.216 166.192 112.692 165.838 115.285 165.131C118.114 164.424 120.59 163.245 122.711 161.595C125.069 159.945 126.955 157.706 128.37 154.877C130.02 152.048 130.845 148.394 130.845 143.915C130.845 139.2 129.195 136.018 125.894 134.368C122.829 132.482 118.821 131.539 113.871 131.539C110.098 131.539 106.091 132.011 101.847 132.954C97.8391 133.661 93.7134 134.722 89.4697 136.136C88.9982 141.086 88.6446 145.801 88.4088 150.28C88.1731 154.759 88.0552 159.002 88.0552 163.01Z" fill="white"></path><path d="M301.27 2.47521C304.334 1.768 308.578 1.17866 314.001 0.70719C319.659 0.23573 326.26 0 333.804 0C341.584 0 350.307 0.353602 359.973 1.06081C363.274 23.6912 366.692 44.3178 370.229 62.9408C374.001 81.5637 377.773 98.7722 381.545 114.566C385.553 130.36 389.678 145.094 393.922 158.766C398.401 172.203 403.117 184.933 408.068 196.955C399.345 201.67 388.618 205.913 375.887 209.685C363.392 213.692 350.543 217.464 337.34 221C334.511 216.521 331.564 210.392 328.5 202.613C325.435 194.833 322.959 186.465 321.073 177.507C314.708 178.686 307.164 179.747 298.441 180.689C289.953 181.632 280.287 182.34 269.442 182.811C267.556 189.647 265.788 195.659 264.138 200.845C262.723 205.795 261.427 211.217 260.248 217.11C248.224 216.639 236.908 214.989 226.299 212.16C215.926 209.331 205.199 206.031 194.118 202.259C199.305 187.879 205.906 172.085 213.922 154.877C221.937 137.668 230.66 120.224 240.091 102.544C249.757 84.6282 259.776 67.0661 270.15 49.8576C280.759 32.6491 291.132 16.8549 301.27 2.47521ZM311.171 73.1952C307.871 79.56 304.099 87.6928 299.855 97.5936C295.847 107.494 291.486 118.692 286.771 131.186C287.478 131.186 288.421 131.303 289.6 131.539C290.778 131.539 292.193 131.539 293.843 131.539C297.144 131.539 300.798 131.539 304.806 131.539C308.814 131.303 312.35 131.186 315.415 131.186C314.001 121.285 312.94 111.855 312.232 102.898C311.525 93.7039 311.171 83.8032 311.171 73.1952Z" fill="white"></path><path d="M509.514 2.47521C512.579 1.768 516.822 1.17866 522.245 0.70719C527.903 0.23573 534.504 0 542.048 0C549.828 0 558.551 0.353602 568.217 1.06081C571.518 23.6912 574.936 44.3178 578.473 62.9408C582.245 81.5637 586.017 98.7722 589.789 114.566C593.797 130.36 597.923 145.094 602.166 158.766C606.646 172.203 611.361 184.933 616.312 196.955C607.589 201.67 596.862 205.913 584.131 209.685C571.636 213.692 558.787 217.464 545.585 221C542.756 216.521 539.809 210.392 536.744 202.613C533.679 194.833 531.203 186.465 529.317 177.507C522.952 178.686 515.408 179.747 506.685 180.689C498.198 181.632 488.532 182.34 477.687 182.811C475.801 189.647 474.032 195.659 472.382 200.845C470.968 205.795 469.671 211.217 468.492 217.11C456.469 216.639 445.152 214.989 434.543 212.16C424.17 209.331 413.443 206.031 402.362 202.259C407.549 187.879 414.15 172.085 422.166 154.877C430.182 137.668 438.905 120.224 448.335 102.544C458.001 84.6282 468.021 67.0661 478.394 49.8576C489.003 32.6491 499.376 16.8549 509.514 2.47521ZM519.416 73.1952C516.115 79.56 512.343 87.6928 508.099 97.5936C504.091 107.494 499.73 118.692 495.015 131.186C495.722 131.186 496.665 131.303 497.844 131.539C499.023 131.539 500.437 131.539 502.088 131.539C505.388 131.539 509.042 131.539 513.05 131.539C517.058 131.303 520.594 131.186 523.659 131.186C522.245 121.285 521.184 111.855 520.477 102.898C519.769 93.7039 519.416 83.8032 519.416 73.1952Z" fill="white"></path><path d="M650.214 139.672C655.4 136.843 661.176 135.429 667.542 135.429C672.257 135.429 676.854 136.254 681.334 137.904C685.813 139.318 689.821 141.558 693.357 144.622C696.894 147.451 699.723 150.869 701.845 154.877C704.202 158.884 705.381 163.363 705.381 168.313C705.381 176.093 703.966 182.575 701.137 187.761C698.308 192.712 694.772 196.719 690.528 199.784C686.52 202.613 682.277 204.616 677.797 205.795C673.318 207.209 669.546 207.917 666.481 207.917C654.693 207.917 645.734 204.852 639.605 198.723C633.711 192.594 630.764 184.461 630.764 174.325C630.764 167.488 632.296 160.888 635.361 154.523C638.662 147.923 643.613 142.972 650.214 139.672Z" fill="white"></path><path d="M0 430.149C4.71514 417.655 9.78391 403.865 15.2063 388.778C20.8645 373.455 26.169 357.661 31.1199 341.395C36.3066 325.13 40.9038 308.746 44.9117 292.245C48.9196 275.744 51.7486 260.067 53.3989 245.216C63.5365 242.152 74.2634 239.676 85.5798 237.79C97.1318 235.905 110.098 234.372 124.48 233.194C126.366 237.201 128.016 243.094 129.431 250.874C131.081 258.653 132.377 267.611 133.321 277.747C134.499 287.884 135.324 298.963 135.796 310.986C136.503 323.008 136.857 335.148 136.857 347.406V356.954C145.344 333.616 155.01 311.457 165.855 290.477C176.936 269.261 188.841 250.166 201.572 233.194C205.58 233.665 210.295 234.372 215.718 235.315C221.376 236.022 227.152 237.083 233.046 238.498C239.175 239.676 245.069 240.973 250.727 242.387C256.386 243.566 261.337 244.745 265.58 245.923C263.694 264.31 262.044 283.287 260.629 302.853C259.45 322.183 258.861 341.042 258.861 359.429C258.861 372.866 259.333 385.595 260.276 397.618C261.219 409.404 262.751 420.248 264.873 430.149C260.158 432.035 254.146 433.803 246.837 435.453C239.529 437.103 232.103 438.517 224.558 439.696C217.014 441.11 209.942 442.171 203.34 442.878C196.739 443.821 191.67 444.293 188.134 444.293C187.191 438.871 186.484 433.213 186.012 427.32C185.541 421.191 185.305 414.944 185.305 408.579C185.305 384.77 188.134 359.193 193.792 331.848C188.606 340.334 183.772 348.939 179.293 357.661C175.049 366.147 171.16 374.398 167.623 382.413C164.323 390.428 161.376 397.971 158.782 405.043C156.425 411.879 154.657 417.891 153.478 423.077C150.884 423.548 148.173 423.784 145.344 423.784C142.751 423.784 140.157 423.784 137.564 423.784C129.784 423.784 122.711 423.43 116.346 422.723C109.981 422.016 105.501 421.427 102.908 420.955C101.022 400.211 99.2536 382.295 97.6033 367.208C95.953 352.121 94.1849 338.566 92.2988 326.544C91.5916 336.209 90.2949 347.053 88.4088 359.075C86.7585 370.862 84.7546 382.531 82.397 394.082C80.2752 405.397 78.0355 415.769 75.678 425.198C73.5561 434.392 71.788 440.993 70.3734 445C65.1868 445 59.0571 444.411 51.9844 443.232C44.9117 442.053 37.9569 440.639 31.1199 438.989C24.283 437.574 18.0354 436.042 12.3772 434.392C6.48332 432.742 2.35757 431.327 0 430.149Z" fill="white"></path><path d="M302.4 244.155C305.936 243.212 312.655 242.387 322.557 241.68C332.459 240.737 343.775 239.912 356.506 239.205C369.237 238.498 382.557 238.026 396.467 237.79C410.376 237.319 423.225 237.083 435.013 237.083C439.728 237.083 444.207 237.083 448.451 237.083C452.695 237.083 456.585 237.201 460.121 237.437C459.649 242.152 459.06 247.456 458.353 253.349C457.881 259.242 457.174 265.018 456.231 270.675C455.524 276.333 454.699 281.637 453.756 286.587C452.813 291.302 451.987 295.074 451.28 297.902C442.793 297.431 435.013 296.842 427.94 296.134C421.103 295.427 414.266 294.72 407.429 294.013C400.828 293.07 393.991 292.363 386.918 291.891C379.846 291.184 372.066 290.713 363.579 290.477L356.506 325.483C365.465 323.126 375.366 321.122 386.211 319.472C397.292 317.586 407.783 316.643 417.685 316.643H421.928C421.928 324.658 421.457 332.909 420.514 341.395C419.807 349.646 418.981 356.6 418.038 362.258H408.844C397.763 362.258 387.744 362.729 378.785 363.672C370.062 364.379 360.514 365.204 350.14 366.147C349.433 370.626 348.844 374.987 348.372 379.23C348.136 383.238 347.783 387.599 347.311 392.314C359.806 392.078 373.362 391.017 387.979 389.131C402.596 387.01 419.571 384.77 438.903 382.413C439.139 387.599 439.374 392.431 439.61 396.91C439.846 401.389 439.964 405.986 439.964 410.701C439.964 418.48 439.61 427.438 438.903 437.574C427.822 439.225 414.502 440.285 398.942 440.757C383.382 441.228 367.586 441.464 351.555 441.464C336.938 441.464 323.146 441.346 310.18 441.11C297.213 440.875 286.368 440.521 277.645 440.05C277.881 433.213 278.588 424.255 279.767 413.176C280.946 401.861 282.242 389.838 283.657 377.109C285.307 364.143 286.958 350.825 288.608 337.152C290.494 323.244 292.262 310.278 293.912 298.256C295.798 285.998 297.449 275.154 298.863 265.725C300.278 256.06 301.457 248.87 302.4 244.155Z" fill="white"></path><path d="M446.879 430.149C451.594 417.655 456.663 403.865 462.085 388.778C467.743 373.455 473.048 357.661 477.999 341.395C483.186 325.13 487.783 308.746 491.791 292.245C495.799 275.744 498.628 260.067 500.278 245.216C510.415 242.152 521.142 239.676 532.459 237.79C544.011 235.905 556.977 234.372 571.359 233.194C573.245 237.201 574.895 243.094 576.31 250.874C577.96 258.653 579.256 267.611 580.2 277.747C581.378 287.884 582.203 298.963 582.675 310.986C583.382 323.008 583.736 335.148 583.736 347.406V356.954C592.223 333.616 601.889 311.457 612.734 290.477C623.815 269.261 635.72 250.166 648.451 233.194C652.459 233.665 657.174 234.372 662.596 235.315C668.255 236.022 674.031 237.083 679.925 238.498C686.054 239.676 691.948 240.973 697.606 242.387C703.265 243.566 708.215 244.745 712.459 245.923C710.573 264.31 708.923 283.287 707.508 302.853C706.329 322.183 705.74 341.042 705.74 359.429C705.74 372.866 706.212 385.595 707.155 397.618C708.098 409.404 709.63 420.248 711.752 430.149C707.037 432.035 701.025 433.803 693.716 435.453C686.408 437.103 678.982 438.517 671.437 439.696C663.893 441.11 656.82 442.171 650.219 442.878C643.618 443.821 638.549 444.293 635.013 444.293C634.07 438.871 633.363 433.213 632.891 427.32C632.42 421.191 632.184 414.944 632.184 408.579C632.184 384.77 635.013 359.193 640.671 331.848C635.484 340.334 630.651 348.939 626.172 357.661C621.928 366.147 618.038 374.398 614.502 382.413C611.201 390.428 608.255 397.971 605.661 405.043C603.304 411.879 601.536 417.891 600.357 423.077C597.763 423.548 595.052 423.784 592.223 423.784C589.63 423.784 587.036 423.784 584.443 423.784C576.663 423.784 569.59 423.43 563.225 422.723C556.86 422.016 552.38 421.427 549.787 420.955C547.901 400.211 546.133 382.295 544.482 367.208C542.832 352.121 541.064 338.566 539.178 326.544C538.471 336.209 537.174 347.053 535.288 359.075C533.638 370.862 531.634 382.531 529.276 394.082C527.154 405.397 524.915 415.769 522.557 425.198C520.435 434.392 518.667 440.993 517.252 445C512.066 445 505.936 444.411 498.863 443.232C491.791 442.053 484.836 440.639 477.999 438.989C471.162 437.574 464.914 436.042 459.256 434.392C453.362 432.742 449.237 431.327 446.879 430.149Z" fill="white"></path><path d="M749.279 244.155C752.815 243.212 759.534 242.387 769.436 241.68C779.338 240.737 790.654 239.912 803.385 239.205C816.116 238.498 829.436 238.026 843.346 237.79C857.255 237.319 870.104 237.083 881.892 237.083C886.607 237.083 891.086 237.083 895.33 237.083C899.574 237.083 903.464 237.201 907 237.437C906.528 242.152 905.939 247.456 905.232 253.349C904.76 259.242 904.053 265.018 903.11 270.675C902.403 276.333 901.578 281.637 900.635 286.587C899.692 291.302 898.866 295.074 898.159 297.902C889.672 297.431 881.892 296.842 874.819 296.134C867.982 295.427 861.145 294.72 854.308 294.013C847.707 293.07 840.87 292.363 833.797 291.891C826.725 291.184 818.945 290.713 810.458 290.477L803.385 325.483C812.344 323.126 822.245 321.122 833.09 319.472C844.171 317.586 854.662 316.643 864.564 316.643H868.807C868.807 324.658 868.336 332.909 867.393 341.395C866.686 349.646 865.86 356.6 864.917 362.258H855.723C844.642 362.258 834.623 362.729 825.664 363.672C816.941 364.379 807.393 365.204 797.019 366.147C796.312 370.626 795.723 374.987 795.251 379.23C795.015 383.238 794.662 387.599 794.19 392.314C806.685 392.078 820.241 391.017 834.858 389.131C849.475 387.01 866.45 384.77 885.782 382.413C886.018 387.599 886.253 392.431 886.489 396.91C886.725 401.389 886.843 405.986 886.843 410.701C886.843 418.48 886.489 427.438 885.782 437.574C874.701 439.225 861.381 440.285 845.821 440.757C830.261 441.228 814.465 441.464 798.434 441.464C783.817 441.464 770.025 441.346 757.059 441.11C744.092 440.875 733.247 440.521 724.524 440.05C724.76 433.213 725.467 424.255 726.646 413.176C727.825 401.861 729.121 389.838 730.536 377.109C732.186 364.143 733.837 350.825 735.487 337.152C737.373 323.244 739.141 310.278 740.791 298.256C742.677 285.998 744.328 275.154 745.742 265.725C747.157 256.06 748.336 248.87 749.279 244.155Z" fill="white"></path></svg> 