<?xml version="1.0" encoding="UTF-8"?> <svg xmlns="http://www.w3.org/2000/svg" width="421" height="337" viewBox="0 0 421 337" fill="none"><path d="M384.32 144.685C430.197 137.87 434.585 157.414 388.707 164.229C421.507 167.515 414.734 212.174 381.934 208.922C416.651 245.001 382.488 266.656 347.771 230.576C383.468 252.093 346.45 292.565 310.754 271.049C341.381 302.908 319.444 316.814 288.816 284.955C311.435 328.506 275.014 340.994 252.395 297.443C260.318 346.909 228.157 350.299 220.234 300.833C224.451 333.003 189.521 336.047 185.304 303.877C189.266 346.805 159.618 348.639 155.614 305.676C160.47 340.544 123.24 343.969 118.341 309.1C106.669 342.966 83.2407 337.639 94.9124 303.773C64.7534 322.902 46.9903 304.396 77.1493 285.301C46.9903 304.43 22.2412 278.659 52.4002 259.565C-3.48769 271.81 -22.1454 215.633 33.6999 203.387C-7.10847 200.862 -1.01703 136.417 39.7913 138.942C6.99129 117.703 37.4059 86.7085 70.2059 107.983C40.2173 82.0386 81.7498 50.387 111.738 76.3309C76.1696 39.3521 146.924 -5.47904 182.45 31.4652C176.274 -5.06394 212.907 -9.14579 219.084 27.3833C219.936 -9.69926 277.017 -8.83446 276.165 28.2481C296.356 -2.60791 325.407 9.91438 305.216 40.7704C335.588 21.5373 376.822 64.4313 346.493 83.699C376.865 64.4659 404.766 93.4885 374.437 112.756C406.981 107.429 412.008 127.596 379.463 132.958C429.515 119.502 434.329 131.298 384.277 144.788L384.32 144.685Z" fill="#0F0E16"></path></svg> 