<?xml version="1.0" encoding="UTF-8"?> <svg xmlns="http://www.w3.org/2000/svg" width="939" height="757" viewBox="0 0 939 757" fill="none"><path d="M81.8122 325.004C-20.5131 309.696 -30.2991 353.599 72.0262 368.906C-1.13116 376.288 13.9754 476.603 87.1327 469.299C9.69993 550.344 85.8976 598.987 163.33 517.942C83.7124 566.273 166.276 657.187 245.894 608.855C177.582 680.42 226.512 711.657 294.824 640.092C244.373 737.921 325.607 765.972 376.057 668.143C358.385 779.259 430.117 786.874 447.789 675.758C438.383 748.022 516.291 754.86 525.697 682.596C516.861 779.026 582.987 783.144 591.918 686.636C581.087 764.961 664.126 772.654 675.052 694.329C701.084 770.401 753.34 758.434 727.307 682.363C794.574 725.333 834.193 683.761 766.926 640.869C834.193 683.839 889.393 625.95 822.126 583.057C946.779 610.564 988.393 484.374 863.836 456.867C954.855 451.194 941.268 306.433 850.249 312.105C923.407 264.395 855.57 194.773 782.412 242.56C849.299 184.283 756.665 113.184 689.778 171.461C769.111 88.3963 611.3 -12.3075 532.062 70.6799C545.839 -11.3751 464.131 -20.5441 450.354 61.5109C448.454 -21.7874 321.141 -19.8448 323.041 63.4535C278.007 -5.85812 213.21 22.2706 258.245 91.5822C190.503 48.379 98.5338 144.731 166.181 188.012C98.4388 144.809 36.2076 210.002 103.854 253.283C31.2671 241.317 20.056 286.618 92.6432 298.662C-18.993 268.436 -29.729 294.932 81.9072 325.237L81.8122 325.004Z" fill="white"></path></svg> 