<?xml version="1.0" encoding="UTF-8"?> <svg xmlns="http://www.w3.org/2000/svg" width="753" height="93" viewBox="0 0 753 93" fill="none"><g clip-path="url(#clip0_156_8851)"><path d="M750.79 42.7702C746.97 41.8202 736.99 59.6902 736.99 59.6902C736.99 59.6902 731.27 47.0602 723.65 46.4702C716.03 45.8902 707.45 57.0602 707.45 57.0602C707.45 57.0602 693.63 32.2902 686.96 33.7102C680.29 35.1302 678.86 59.6802 678.86 59.6802C678.86 59.6802 669.33 51.3402 665.52 50.3802C661.71 49.4202 644.56 59.6802 644.56 59.6802C644.56 59.6802 634.08 41.8102 628.84 41.3302C623.6 40.8502 613.12 56.5802 613.12 56.5802C613.12 56.5802 606.45 47.5302 602.16 46.4702C597.87 45.4102 591.68 56.5802 591.68 56.5802C591.68 56.5802 576.88 11.8402 561.63 11.8402C542.15 11.8402 517.83 59.6802 517.83 59.6802C517.83 59.6802 518.78 49.9102 515.45 49.9102C512.12 49.9102 504.02 59.6802 504.02 59.6802C504.02 59.6802 500.68 42.2802 495.92 42.2802C491.16 42.2802 481.91 59.6802 481.91 59.6802C481.91 59.6802 463.23 34.2602 454.84 34.7402C446.45 35.2202 437.32 59.6802 437.32 59.6802C437.32 59.6802 426.35 45.1402 421.48 46.4602C416.61 47.7802 412.97 59.6802 412.97 59.6802C412.97 59.6802 395.65 40.3802 388.69 39.8402C381.73 39.3002 359.16 57.1702 359.16 57.1702C359.16 57.1702 357.19 43.0902 354.44 41.4602C351.68 39.8402 344.31 48.5002 344.31 48.5002C344.31 48.5002 348.54 36.5802 346.88 34.9602C345.23 33.3402 336.02 46.4602 336.02 46.4602C336.02 46.4602 317.9 13.5602 298.18 16.5502C281.51 19.0702 270.87 59.6802 270.87 59.6802C270.87 59.6802 248.34 44.7202 243.46 43.6302C238.59 42.5502 222.88 55.0002 222.88 55.0002C222.88 55.0002 218.55 40.3802 213.67 39.8302C208.8 39.2902 201.21 49.8702 201.21 49.8702C201.21 49.8702 190.92 9.50022 182.25 11.8302C173.58 14.1602 166.54 55.0002 166.54 55.0002C166.54 55.0002 155.71 36.5802 148.67 36.4102C141.63 36.2402 136.21 59.6702 136.21 59.6702C136.21 59.6702 123.21 50.6702 119.42 49.8702C115.63 49.0802 97.21 57.1602 97.21 57.1602C97.21 57.1602 96.67 45.2402 93.42 44.0602C90.17 42.8802 75.55 49.8702 75.55 49.8702C75.55 49.8702 68.51 1.92022 57.13 0.500218C45.75 -0.919782 23.01 46.1902 23.01 46.1902C23.01 46.1902 7.84 32.8102 2.43 35.5302C-2.99 38.2502 4.8 92.4502 4.8 92.4502H750.79V76.0702C750.79 76.0702 754.61 43.7202 750.79 42.7702Z" fill="#379C43"></path><path d="M674.54 66.5202C635.21 73.7202 593.46 77.3402 559.79 48.6002C557.79 47.6002 553.79 47.6002 551.79 48.6002C505.79 78.6002 453.79 80.6002 402.79 67.6002C398.29 66.6002 393.29 67.1002 389.29 69.1002C376.49 75.5002 361.7 76.6902 348.45 71.2902C338.37 67.1802 329.03 61.2902 321.79 52.6002C314.79 45.6002 296.79 43.6002 291.79 53.6002C287.79 61.6002 283.79 68.6002 276.79 69.6002C243.79 70.6002 210.79 68.6002 178.79 60.6002C156.79 79.6002 127.79 76.6002 100.79 67.6002C92.79 64.6002 83.79 66.6002 75.79 69.6002C60.79 75.6002 56.79 56.6002 45.79 52.6002C33.79 48.6002 31.79 68.6002 21.79 71.6002C13.47 74.3702 7.71 66.9002 1.36 62.5902C2.61 77.2802 4.79 92.4502 4.79 92.4502H750.78V76.0702C750.78 76.0702 751.17 72.7402 751.58 68.1902C738.76 69.4302 724.9 71.9802 712.83 68.6102C700.34 65.1202 687.28 64.1902 674.53 66.5202H674.54Z" fill="#21732A"></path><path d="M736.95 59.6899C736.95 59.6899 737.34 58.8999 738.08 57.5499C738.83 56.2099 739.88 54.2799 741.3 52.0499C742.01 50.9299 742.79 49.7399 743.67 48.4999C744.55 47.2599 745.51 45.9699 746.65 44.7499C747.23 44.1399 747.85 43.5399 748.58 43.0199C748.94 42.7499 749.37 42.5299 749.84 42.3699C750.1 42.3199 750.36 42.2499 750.66 42.2999C750.76 42.3199 750.75 42.2999 750.93 42.3399L751.08 42.3999C751.22 42.4699 751.42 42.6099 751.5 42.6999C751.91 43.1299 752.06 43.5899 752.22 44.0299C752.37 44.4799 752.46 44.9199 752.54 45.3599C752.7 46.2499 752.79 47.1399 752.85 48.0199C753.04 51.5699 752.88 55.0899 752.7 58.3799C752.51 61.6699 752.18 64.7399 751.91 67.3599C751.64 69.9799 751.32 72.1599 751.11 73.6799C750.88 75.1999 750.75 76.0699 750.75 76.0699C750.75 76.0699 750.99 72.5699 751.35 67.3099C751.54 64.6899 751.68 61.6199 751.83 58.3399C751.97 55.0599 752.07 51.5499 751.85 48.0899C751.8 47.2299 751.72 46.3599 751.59 45.5299C751.45 44.7299 751.25 43.8099 750.84 43.3599C750.78 43.2899 750.79 43.3099 750.75 43.2699L750.6 43.2099C750.67 43.2399 750.56 43.2099 750.55 43.2099C750.42 43.1699 750.25 43.2199 750.09 43.2399C749.76 43.3599 749.41 43.5099 749.09 43.7499C748.44 44.1999 747.84 44.7599 747.28 45.3399C745.06 47.6999 743.26 50.1999 741.77 52.3599C740.29 54.5299 739.07 56.3499 738.25 57.6499C737.43 58.9499 736.96 59.6899 736.96 59.6899H736.95Z" fill="#7B8E2D"></path><path d="M707.41 57.06C707.41 57.06 708.78 54.98 711.39 52.32C711.73 52 712.08 51.66 712.44 51.31C712.82 50.98 713.21 50.63 713.61 50.27C714.03 49.93 714.46 49.59 714.9 49.23C715.36 48.9 715.84 48.57 716.33 48.25C717.34 47.64 718.41 47.03 719.61 46.62L720.51 46.32C720.82 46.23 721.14 46.19 721.45 46.13C722.08 45.97 722.74 46 723.39 45.98H723.64L723.91 46.02L724.37 46.1C724.68 46.17 724.97 46.17 725.29 46.3C725.91 46.53 726.57 46.72 727.1 47.05L727.93 47.5L728.68 48.05C729.19 48.39 729.63 48.82 730.07 49.21C730.95 50.01 731.69 50.88 732.36 51.72C733.02 52.57 733.6 53.4 734.1 54.19C735.11 55.76 735.79 57.16 736.27 58.13C736.73 59.11 736.95 59.69 736.95 59.69C736.95 59.69 736.65 59.15 736.1 58.22C735.56 57.29 734.71 56 733.64 54.5C733.1 53.76 732.48 52.97 731.8 52.18C731.1 51.4 730.34 50.61 729.49 49.86C729.05 49.5 728.63 49.11 728.14 48.8L727.42 48.31L726.65 47.9C726.14 47.58 725.61 47.46 725.08 47.25C724.82 47.14 724.49 47.13 724.19 47.07L723.73 46.99L723.55 46.96H723.33C722.75 46.98 722.17 46.94 721.6 47.09C721.31 47.15 721.02 47.18 720.74 47.25L719.9 47.52C718.79 47.89 717.75 48.42 716.76 48.99C716.28 49.3 715.81 49.6 715.35 49.89C714.9 50.21 714.47 50.52 714.04 50.83C713.63 51.16 713.23 51.47 712.84 51.78C712.46 52.1 712.1 52.42 711.75 52.72C710.38 53.95 709.28 55.03 708.54 55.81C707.79 56.59 707.38 57.05 707.38 57.05L707.41 57.06Z" fill="#7B8E2D"></path><path d="M678.83 59.6904C678.83 59.6904 678.83 58.7504 678.94 57.1004C679.05 55.4604 679.2 53.1104 679.58 50.3004C679.97 47.5004 680.46 44.2204 681.5 40.8104C682.03 39.1104 682.67 37.3604 683.72 35.7304C684.26 34.9304 684.91 34.1404 685.84 33.6204C686.06 33.4704 686.32 33.3904 686.58 33.3104L686.77 33.2504C686.77 33.2504 686.75 33.2504 686.87 33.2304H686.91L687 33.2204L687.35 33.1904C687.56 33.1504 687.9 33.2204 688.17 33.2404C688.46 33.2704 688.68 33.3704 688.94 33.4404C690.86 34.1704 692.3 35.5004 693.64 36.8104C694.97 38.1404 696.15 39.5404 697.25 40.9404C699.44 43.7304 701.23 46.5104 702.74 48.8904C704.25 51.2804 705.38 53.3404 706.19 54.7804C706.98 56.2204 707.4 57.0704 707.4 57.0704C707.4 57.0704 706.9 56.2704 706.02 54.8804C705.15 53.4904 703.85 51.5304 702.27 49.2004C700.7 46.8704 698.76 44.2104 696.57 41.4804C695.47 40.1204 694.28 38.7504 692.98 37.4804C691.68 36.2304 690.24 34.9804 688.61 34.3904C688.41 34.3404 688.2 34.2404 688.02 34.2304C687.82 34.2304 687.7 34.1404 687.44 34.1804L687.09 34.2104H687L686.96 34.2204C687.06 34.2104 686.96 34.2204 686.98 34.2204L686.84 34.2704C686.65 34.3304 686.46 34.3804 686.29 34.5004C685.57 34.8904 684.98 35.5604 684.48 36.2804C683.5 37.7604 682.84 39.4504 682.31 41.1004C681.25 44.4204 680.59 47.6404 680.11 50.4104C679.64 53.1804 679.3 55.5104 679.11 57.1404C678.92 58.7704 678.81 59.7104 678.81 59.7104L678.83 59.6904Z" fill="#7B8E2D"></path><path d="M644.52 59.6901C644.52 59.6901 645.03 59.3401 645.94 58.7501C646.86 58.1801 648.15 57.3301 649.75 56.4001C651.35 55.4701 653.23 54.3801 655.3 53.3301C657.37 52.2801 659.62 51.2201 662.01 50.4201C662.62 50.2401 663.22 50.0601 663.87 49.9501C664.19 49.9001 664.51 49.8501 664.87 49.8501C665.04 49.8501 665.22 49.8501 665.41 49.8901C665.51 49.9101 665.58 49.9001 665.7 49.9501L665.92 50.0201C666.48 50.1801 667.11 50.5001 667.64 50.7901C668.18 51.0801 668.69 51.4001 669.18 51.7201C671.15 52.9901 672.82 54.3801 674.26 55.5501C675.7 56.7301 676.82 57.7901 677.62 58.5101C678.41 59.2501 678.85 59.6901 678.85 59.6901C678.85 59.6901 678.36 59.3201 677.5 58.6601C676.65 58.0001 675.4 57.0901 673.92 55.9901C672.43 54.9001 670.67 53.6501 668.72 52.4601C668.23 52.1601 667.73 51.8701 667.22 51.6101C666.69 51.3501 666.25 51.1201 665.64 50.9401C664.72 50.6201 663.47 51.0301 662.35 51.3601C660.05 52.1101 657.81 53.1401 655.73 54.1101C653.65 55.1001 651.71 56.0301 650.06 56.8801C646.76 58.5601 644.56 59.6801 644.56 59.6801L644.52 59.6901Z" fill="#7B8E2D"></path><path d="M613.08 56.58C613.08 56.58 613.45 55.94 614.15 54.87C614.86 53.8 615.87 52.26 617.21 50.5C618.56 48.75 620.14 46.7 622.13 44.74C623.13 43.77 624.2 42.79 625.47 41.98C626.1 41.58 626.78 41.2 627.57 40.99C627.96 40.89 628.38 40.83 628.82 40.85C629.1 40.89 629.21 40.91 629.41 40.95L630.03 41.16C631.49 41.85 632.59 42.89 633.64 43.92C634.68 44.97 635.6 46.06 636.47 47.15C638.2 49.32 639.61 51.49 640.82 53.34C642.02 55.19 642.92 56.8 643.56 57.92C644.19 59.04 644.53 59.7 644.53 59.7C644.53 59.7 644.12 59.09 643.4 58.02C642.69 56.95 641.63 55.45 640.36 53.66C639.09 51.86 637.54 49.82 635.81 47.71C634.94 46.66 634.01 45.59 633 44.6C631.99 43.62 630.88 42.65 629.66 42.1C628.49 41.49 627.16 42.06 625.98 42.79C624.8 43.52 623.74 44.45 622.75 45.38C620.78 47.26 619.07 49.17 617.67 50.86C616.27 52.55 615.11 53.97 614.33 55C613.55 56.02 613.1 56.6 613.1 56.6L613.08 56.58Z" fill="#7B8E2D"></path><path d="M591.64 56.58C591.64 56.58 591.83 56.14 592.22 55.41C592.62 54.68 593.17 53.62 593.96 52.43C594.75 51.24 595.7 49.85 596.96 48.54C597.59 47.89 598.29 47.24 599.14 46.71C599.96 46.2 601.02 45.74 602.18 45.98C603.15 46.24 604.09 46.77 604.87 47.31C605.66 47.86 606.36 48.49 607.02 49.1C608.33 50.34 609.4 51.62 610.31 52.72C611.22 53.82 611.89 54.81 612.37 55.49C612.84 56.18 613.09 56.58 613.09 56.58C613.09 56.58 612.77 56.23 612.22 55.61C611.68 54.99 610.86 54.13 609.89 53.09C608.92 52.06 607.74 50.91 606.43 49.75C605.77 49.17 605.06 48.62 604.32 48.1C603.94 47.86 603.56 47.59 603.19 47.42C602.87 47.22 602.31 47.05 601.97 46.94C601.24 46.77 600.39 47.07 599.65 47.52C598.91 47.98 598.21 48.54 597.59 49.15C596.35 50.36 595.28 51.62 594.42 52.74C593.57 53.87 592.85 54.81 592.39 55.5C591.92 56.18 591.65 56.57 591.65 56.57L591.64 56.58Z" fill="#7B8E2D"></path><path d="M517.79 59.6901C517.79 59.6901 518.62 57.9601 520.21 54.9901C521.82 52.0401 524.13 47.8201 527.21 42.9401C530.3 38.0801 534.03 32.4501 538.68 26.9001C541.01 24.1401 543.54 21.3701 546.39 18.8301C549.25 16.3201 552.4 13.9501 556.07 12.4801C557.92 11.7701 559.85 11.3601 561.9 11.3801C562.38 11.4401 562.84 11.4201 563.34 11.5601C563.83 11.7001 564.36 11.7901 564.81 11.9801C565.26 12.1801 565.73 12.3601 566.17 12.5801L567.44 13.3201C570.67 15.5001 573.12 18.4401 575.24 21.3701C577.37 24.3101 579.13 27.3401 580.69 30.2601C582.25 33.1801 583.6 36.0101 584.78 38.6401C587.15 43.9001 588.81 48.4201 589.96 51.5701C591.09 54.7401 591.65 56.5701 591.65 56.5701C591.65 56.5701 591.01 54.7601 589.78 51.6301C588.56 48.5001 586.72 44.0701 584.27 38.8601C581.8 33.6801 578.74 27.6701 574.54 21.8701C572.44 19.0001 570.01 16.1401 566.93 14.1001L565.74 13.4101C565.33 13.2101 564.9 13.0501 564.49 12.8701C564.07 12.7001 563.64 12.6401 563.22 12.5101C562.8 12.3901 562.28 12.4001 561.82 12.3501C560.05 12.3501 558.16 12.7301 556.43 13.4101C552.94 14.7901 549.83 17.0801 547.01 19.5301C544.19 22.0101 541.67 24.7301 539.35 27.4601C534.71 32.9301 530.85 38.4401 527.69 43.2401C524.54 48.0501 522.06 52.1701 520.39 55.0801C518.71 57.9901 517.8 59.6801 517.8 59.6801L517.79 59.6901Z" fill="#7B8E2D"></path><path d="M503.97 59.6902C503.97 59.6902 504.2 59.3502 504.62 58.7702C505.06 58.2002 505.66 57.3702 506.46 56.4402C507.27 55.5102 508.2 54.4202 509.3 53.3402C509.85 52.8002 510.43 52.2502 511.06 51.7202C511.69 51.2002 512.35 50.6902 513.08 50.2402C513.79 49.8102 514.65 49.4002 515.65 49.4402C516.19 49.5002 516.68 49.8302 516.97 50.1902C517.27 50.5502 517.46 50.9502 517.61 51.3402C517.9 52.1102 518.01 52.8802 518.08 53.5902C518.15 54.3002 518.17 54.9802 518.17 55.6002C518.17 56.8402 518.04 57.8602 517.96 58.5702C517.87 59.2802 517.79 59.6802 517.79 59.6802C517.79 59.6802 517.79 59.2702 517.77 58.5602C517.77 57.8502 517.7 56.8302 517.61 55.6202C517.5 54.4302 517.33 52.9902 516.8 51.6702C516.54 51.0202 516.07 50.4502 515.57 50.4102C514.96 50.4002 514.26 50.6902 513.6 51.1102C512.93 51.5002 512.29 51.9902 511.68 52.4702C511.07 52.9702 510.47 53.4702 509.91 53.9802C508.79 55.0002 507.74 55.9602 506.88 56.8202C505.14 58.5402 503.97 59.6802 503.97 59.6802V59.6902Z" fill="#7B8E2D"></path><path d="M481.86 59.6901C481.86 59.6901 482.13 59.0801 482.66 58.0301C483.2 56.9901 483.95 55.4901 484.97 53.7601C485.99 52.0301 487.19 50.0101 488.67 47.9601C489.41 46.9401 490.2 45.9001 491.11 44.9101C492.02 43.9301 492.99 42.9401 494.28 42.2401C494.61 42.0701 494.96 41.9401 495.35 41.8501C495.57 41.8301 495.72 41.7901 496 41.8101C496.18 41.8401 496.3 41.8101 496.53 41.9001C497.39 42.1501 497.91 42.6501 498.41 43.1701C499.35 44.2301 499.94 45.4301 500.48 46.5801C501.53 48.9101 502.15 51.1801 502.67 53.1201C503.18 55.0701 503.48 56.7201 503.7 57.8701C503.91 59.0201 503.99 59.6901 503.99 59.6901C503.99 59.6901 503.82 59.0401 503.51 57.9101C503.21 56.7801 502.73 55.1801 502.13 53.2801C501.53 51.3801 500.75 49.1801 499.68 46.9501C499.15 45.8501 498.51 44.7301 497.7 43.8201C497.31 43.3801 496.77 42.9901 496.35 42.8701C496.28 42.8101 496.04 42.8201 495.9 42.8001C495.85 42.8001 495.66 42.8301 495.55 42.8301C495.28 42.8901 495.01 42.9901 494.75 43.1301C493.68 43.7001 492.71 44.6201 491.84 45.5601C490.97 46.5101 490.15 47.5001 489.4 48.4901C487.89 50.4701 486.56 52.3801 485.47 54.0601C484.38 55.7401 483.46 57.1301 482.86 58.1301C482.24 59.1201 481.89 59.6901 481.89 59.6901H481.86Z" fill="#7B8E2D"></path><path d="M437.28 59.69C437.28 59.69 437.61 58.66 438.29 56.9C438.98 55.14 439.97 52.63 441.38 49.71C442.08 48.25 442.88 46.68 443.79 45.06C444.7 43.44 445.72 41.75 446.96 40.11C448.18 38.48 449.58 36.84 451.4 35.56C452.32 34.94 453.37 34.42 454.56 34.3C455.7 34.17 456.92 34.52 457.93 34.95C459.99 35.86 461.75 37.19 463.41 38.54C465.06 39.91 466.59 41.35 468.02 42.79C470.88 45.67 473.32 48.58 475.37 51.08C477.43 53.58 479.02 55.76 480.15 57.28C481.26 58.81 481.87 59.7 481.87 59.7C481.87 59.7 481.19 58.86 480 57.4C478.81 55.94 477.06 53.88 474.95 51.45C472.84 49.01 470.27 46.25 467.42 43.41C465.99 42 464.46 40.59 462.83 39.26C461.2 37.95 459.46 36.68 457.55 35.87C456.59 35.47 455.67 35.18 454.66 35.26C453.7 35.35 452.77 35.78 451.93 36.34C450.25 37.5 448.87 39.06 447.66 40.64C445.25 43.83 443.38 47.12 441.89 49.97C440.41 52.83 439.25 55.27 438.48 56.99C437.7 58.71 437.29 59.7 437.29 59.7L437.28 59.69Z" fill="#7B8E2D"></path><path d="M412.93 59.6899C412.93 59.6899 413.06 59.1199 413.36 58.1399C413.67 57.1599 414.1 55.7599 414.8 54.1299C415.15 53.3199 415.54 52.4399 416.02 51.5499C416.48 50.6399 417.05 49.7199 417.72 48.8199C418.43 47.9499 419.23 47.0499 420.33 46.4199L421.22 46.0499C421.46 45.9599 421.53 45.9799 421.7 45.9499C421.83 45.9199 422.04 45.9299 422.21 45.9199C422.92 45.9499 423.52 46.1199 424.1 46.3699C425.25 46.8599 426.23 47.5599 427.16 48.2699C428.09 48.9899 428.93 49.7699 429.73 50.5399C431.32 52.0799 432.64 53.6599 433.78 54.9999C434.91 56.3499 435.76 57.5499 436.37 58.3699C436.97 59.1999 437.28 59.6999 437.28 59.6999C437.28 59.6999 436.89 59.2599 436.21 58.4999C435.54 57.7299 434.54 56.6599 433.35 55.3799C432.16 54.0999 430.72 52.6499 429.12 51.1799C428.32 50.4499 427.46 49.7299 426.57 49.0399C425.67 48.3699 424.72 47.7099 423.71 47.2999C422.68 46.8399 421.73 46.7399 420.78 47.2799C419.87 47.7999 419.09 48.5699 418.4 49.3799C417.75 50.2299 417.14 51.0699 416.64 51.9299C416.12 52.7699 415.68 53.6099 415.29 54.3899C414.52 55.9499 413.91 57.2799 413.53 58.2299C413.14 59.1799 412.92 59.7199 412.92 59.7199L412.93 59.6899Z" fill="#7B8E2D"></path><path d="M359.12 57.18C359.12 57.18 359.9 56.5 361.32 55.36C362.74 54.23 364.75 52.6 367.26 50.76C369.77 48.93 372.71 46.79 376.03 44.72C377.69 43.69 379.43 42.67 381.26 41.73C383.1 40.8 385 39.9 387.14 39.46C387.42 39.42 387.69 39.38 387.97 39.36C388.27 39.36 388.52 39.34 388.85 39.38C389.33 39.44 389.93 39.59 390.44 39.78C391.46 40.15 392.39 40.66 393.27 41.2C395.04 42.28 396.64 43.53 398.16 44.76C401.18 47.24 403.76 49.81 405.95 52.02C408.14 54.23 409.86 56.17 411.08 57.52C412.28 58.88 412.94 59.68 412.94 59.68C412.94 59.68 412.21 58.94 410.94 57.65C409.67 56.36 407.81 54.56 405.56 52.42C403.31 50.28 400.62 47.86 397.61 45.43C396.1 44.23 394.51 43.02 392.79 42C391.93 41.49 391.04 41.01 390.11 40.69C389.65 40.53 389.25 40.41 388.7 40.35C388.51 40.32 388.25 40.35 388.03 40.35L387.31 40.44C385.37 40.81 383.48 41.67 381.67 42.56C379.86 43.46 378.13 44.46 376.47 45.46C373.16 47.47 370.13 49.45 367.58 51.21C365.02 52.97 362.9 54.45 361.43 55.51C359.96 56.57 359.12 57.17 359.12 57.17V57.18Z" fill="#7B8E2D"></path><path d="M344.26 48.52C344.26 48.52 344.52 48.14 345.03 47.51C345.55 46.89 346.27 45.98 347.24 44.98C348.22 44 349.37 42.83 350.86 41.84C351.62 41.37 352.44 40.86 353.55 40.79C353.83 40.79 354.13 40.82 354.41 40.95L354.62 41.05C354.75 41.13 354.74 41.13 354.8 41.18C354.89 41.23 354.99 41.33 355.1 41.44C355.51 41.86 355.76 42.26 355.99 42.7C356.44 43.56 356.75 44.45 357.04 45.33C357.33 46.21 357.54 47.08 357.75 47.93C358.16 49.62 358.4 51.23 358.62 52.6C358.84 53.97 358.93 55.12 359.02 55.93C359.09 56.74 359.11 57.2 359.11 57.2C359.11 57.2 358.69 55.4 358.07 52.71C357.76 51.37 357.36 49.81 356.9 48.16C356.67 47.33 356.41 46.49 356.13 45.64C355.84 44.8 355.53 43.95 355.11 43.18C354.7 42.41 354.24 41.73 353.56 41.78C352.84 41.8 352.03 42.18 351.33 42.61C349.9 43.48 348.65 44.5 347.63 45.41C346.61 46.33 345.75 47.1 345.17 47.66C344.59 48.22 344.26 48.54 344.26 48.54V48.52Z" fill="#7B8E2D"></path><path d="M335.97 46.4701C335.97 46.4701 336.21 46.0601 336.65 45.3601C337.1 44.6701 337.72 43.6501 338.55 42.5001C339.38 41.3401 340.34 39.9901 341.47 38.6101C342.04 37.9201 342.63 37.2101 343.29 36.5301C343.97 35.8601 344.62 35.1601 345.56 34.6201C345.8 34.4901 346.08 34.3701 346.46 34.3501C346.68 34.3501 346.9 34.4101 347.1 34.5701L347.17 34.6201L347.22 34.6801L347.23 34.7101L347.28 34.7801C347.28 34.7801 347.35 34.8701 347.4 34.9701C347.71 35.6501 347.66 36.1001 347.68 36.6101C347.66 37.6001 347.47 38.5101 347.3 39.4001C346.92 41.1601 346.4 42.7401 345.96 44.0901C345.52 45.4401 345.06 46.5401 344.76 47.3101C344.45 48.0801 344.25 48.5101 344.25 48.5101C344.25 48.5101 344.72 46.6801 345.42 43.9301C345.77 42.5601 346.13 40.9501 346.44 39.2301C346.59 38.3701 346.71 37.4701 346.72 36.6001C346.72 36.3801 346.72 36.1701 346.69 35.9701C346.68 35.8701 346.67 35.7701 346.64 35.6801L346.61 35.5501C346.61 35.5501 346.59 35.5101 346.59 35.4901C346.59 35.4801 346.57 35.4301 346.53 35.3801L346.48 35.3101V35.2901H346.46C346.48 35.3101 346.41 35.2301 346.5 35.3301C346.49 35.3301 346.48 35.3301 346.47 35.3301C346.38 35.3301 346.21 35.3901 346.04 35.4901C345.32 35.8801 344.63 36.5601 343.99 37.1901C343.35 37.8401 342.73 38.5001 342.14 39.1601C340.97 40.4801 339.89 41.7301 339 42.8201C337.18 45.0001 335.97 46.4601 335.97 46.4601V46.4701Z" fill="#7B8E2D"></path><path d="M270.82 59.69C270.82 59.69 271.19 58.1101 271.98 55.3801C272.79 52.6601 273.97 48.77 275.74 44.22C276.62 41.95 277.63 39.5 278.81 36.97C279.99 34.44 281.33 31.79 282.94 29.19C284.55 26.59 286.39 23.99 288.64 21.64C289.18 21.03 289.81 20.51 290.4 19.95C291.05 19.45 291.66 18.89 292.37 18.45C293.72 17.48 295.28 16.78 296.9 16.33C297.32 16.24 297.7 16.14 298.16 16.06L299.37 15.95C299.77 15.9 300.18 15.89 300.61 15.91L301.87 15.93C303.52 16.1 305.16 16.35 306.7 16.89C309.82 17.86 312.61 19.49 315.11 21.26C317.62 23.04 319.82 25.04 321.78 27.04C323.74 29.04 325.47 31.05 327 32.95C330.05 36.76 332.25 40.19 333.75 42.6C335.24 45.02 335.98 46.47 335.98 46.47C335.98 46.47 335.16 45.07 333.59 42.71C332.02 40.35 329.67 37.04 326.57 33.31C323.46 29.6 319.53 25.46 314.62 21.97C312.16 20.25 309.43 18.69 306.43 17.78C304.95 17.27 303.38 17.05 301.82 16.89H300.66C300.28 16.86 299.88 16.87 299.48 16.93L298.27 17.05L297.16 17.3C295.67 17.71 294.21 18.34 292.92 19.25C292.25 19.66 291.66 20.19 291.03 20.67C290.46 21.21 289.84 21.71 289.32 22.29C287.13 24.55 285.29 27.09 283.69 29.65C280.51 34.79 278.12 39.95 276.28 44.44C274.44 48.94 273.07 52.7501 272.19 55.4501C271.3 58.1401 270.84 59.7001 270.84 59.7001L270.82 59.69Z" fill="#7B8E2D"></path><path d="M222.83 55.0099C222.83 55.0099 223.48 54.4299 224.67 53.4799C225.86 52.5299 227.56 51.1599 229.7 49.6499C230.77 48.8899 231.94 48.0899 233.2 47.2799C234.47 46.4699 235.82 45.6299 237.29 44.8899C238.77 44.1699 240.32 43.4099 242.15 43.1499C242.62 43.0899 243.08 43.0799 243.62 43.2099C244.03 43.3499 244.44 43.4499 244.86 43.6199L246.11 44.1599L247.3 44.7399C250.42 46.3499 253.4 48.1599 256.18 49.8699C258.96 51.5799 261.49 53.2799 263.67 54.7199C265.85 56.1599 267.62 57.4299 268.87 58.2999C270.11 59.1899 270.82 59.6999 270.82 59.6999C270.82 59.6999 267.84 57.8999 263.37 55.1999C261.13 53.8599 258.52 52.2899 255.73 50.6199C252.93 48.9599 249.93 47.1899 246.85 45.6399L245.7 45.0599L244.56 44.5499C244.18 44.3799 243.75 44.2699 243.34 44.1299C243.04 44.0599 242.63 44.0399 242.25 44.0899C240.67 44.2899 239.11 44.9899 237.67 45.6799C234.78 47.1199 232.18 48.7099 230.01 50.1299C227.83 51.5599 226.03 52.7699 224.78 53.6499C223.54 54.5299 222.82 55.0299 222.82 55.0299L222.83 55.0099Z" fill="#7B8E2D"></path><path d="M201.17 49.8901C201.17 49.8901 201.45 49.4201 202 48.6401C202.56 47.8701 203.34 46.7401 204.41 45.5001C205.49 44.2601 206.77 42.8201 208.41 41.5201C209.24 40.8901 210.13 40.2401 211.18 39.8101C211.7 39.5901 212.27 39.4201 212.88 39.3601C213.19 39.3201 213.47 39.3301 213.83 39.3801C213.97 39.4101 214.09 39.4201 214.24 39.4701L214.72 39.6401C215.85 40.1801 216.64 41.0401 217.32 41.9101C218.01 42.7801 218.55 43.7101 219.05 44.6201C220.03 46.4501 220.72 48.2401 221.29 49.7801C221.86 51.3201 222.22 52.6401 222.48 53.5601C222.73 54.4801 222.84 55.0201 222.84 55.0201C222.84 55.0201 222.64 54.5101 222.29 53.6301C221.95 52.7401 221.41 51.4901 220.76 50.0001C220.11 48.5101 219.28 46.8101 218.27 45.0601C217.77 44.1901 217.19 43.3301 216.55 42.5201C215.91 41.7201 215.16 40.9601 214.3 40.5601L214.01 40.4501C213.9 40.4101 213.75 40.3901 213.62 40.3601C213.44 40.3401 213.17 40.3101 212.95 40.3501C212.48 40.3901 211.99 40.5201 211.53 40.7101C210.6 41.0801 209.73 41.6401 208.92 42.2201C207.32 43.4101 205.93 44.7101 204.8 45.8701C203.67 47.0401 202.75 48.0301 202.13 48.7601C201.51 49.4801 201.15 49.8901 201.15 49.8901H201.17Z" fill="#7B8E2D"></path><path d="M166.5 55.0103C166.5 55.0103 166.7 53.6003 167.12 51.1403C167.56 48.6903 168.18 45.1803 169.12 41.0103C170.07 36.8403 171.21 31.9803 172.86 26.8803C173.69 24.3303 174.61 21.7203 175.79 19.1403C176.38 17.8503 177.02 16.5703 177.79 15.3403C178.58 14.1303 179.45 12.9103 180.73 12.0203C180.89 11.9103 181.05 11.7903 181.22 11.7103L181.78 11.4803L182.06 11.3703C182.22 11.3303 182.25 11.3303 182.36 11.3103C182.51 11.2703 182.77 11.2703 182.99 11.2603C183.84 11.2803 184.59 11.6103 185.24 12.0303C186.52 12.8803 187.45 14.0303 188.29 15.1803C189.94 17.5203 191.18 20.0103 192.3 22.4503C194.51 27.3403 196.08 32.0903 197.39 36.1603C198.69 40.2303 199.59 43.6803 200.23 46.0903C200.85 48.5003 201.16 49.8903 201.16 49.8903C201.16 49.8903 200.75 48.5303 200.04 46.1403C199.32 43.7503 198.23 40.3703 196.85 36.3303C195.46 32.3003 193.72 27.6303 191.5 22.8103C190.38 20.4103 189.12 17.9603 187.52 15.7203C186.71 14.6203 185.8 13.5503 184.7 12.8403C184.15 12.4903 183.55 12.2503 182.97 12.2403C182.83 12.2603 182.73 12.2303 182.54 12.2803L182.32 12.3303L182.11 12.4203L181.68 12.5903C181.54 12.6603 181.41 12.7703 181.28 12.8503C180.21 13.5803 179.35 14.7103 178.6 15.8603C177.86 17.0303 177.22 18.2703 176.63 19.5303C175.46 22.0503 174.52 24.6303 173.68 27.1503C172.01 32.2003 170.69 37.0003 169.67 41.1403C168.65 45.2803 167.84 48.7503 167.32 51.1803C166.8 53.6203 166.51 55.0103 166.51 55.0103H166.5Z" fill="#7B8E2D"></path><path d="M136.17 59.6904C136.17 59.6904 136.32 58.8604 136.65 57.4204C136.99 55.9904 137.47 53.9304 138.22 51.5004C138.98 49.0804 139.9 46.2604 141.28 43.3804C141.98 41.9404 142.77 40.4804 143.78 39.1104C144.3 38.4304 144.85 37.7604 145.55 37.1904C146.23 36.6304 147.06 36.1304 148.02 35.9804C148.27 35.9704 148.48 35.9204 148.77 35.9504C148.98 35.9804 149.18 35.9904 149.4 36.0304L150.1 36.2004L150.73 36.4304C151.55 36.7804 152.3 37.2204 152.99 37.7204C154.38 38.7104 155.58 39.8704 156.68 41.0204C158.88 43.3404 160.61 45.7604 162.07 47.8304C163.52 49.9104 164.6 51.7304 165.35 53.0004C166.1 54.2704 166.49 55.0204 166.49 55.0204C166.49 55.0204 166.02 54.3204 165.19 53.1004C164.36 51.8804 163.13 50.1704 161.61 48.1604C160.09 46.1504 158.23 43.8704 156.05 41.6204C154.96 40.5104 153.77 39.4004 152.45 38.4804C151.79 38.0204 151.09 37.6204 150.36 37.3204L149.81 37.1204L149.28 36.9904C149.09 36.9604 148.87 36.9504 148.66 36.9204C148.53 36.9104 148.32 36.9504 148.15 36.9504C146.71 37.1704 145.47 38.4004 144.51 39.6504C143.54 40.9304 142.74 42.3404 142.04 43.7404C140.65 46.5404 139.57 49.2804 138.74 51.6604C137.9 54.0404 137.25 56.0404 136.82 57.4504C136.4 58.8604 136.16 59.6704 136.16 59.6704L136.17 59.6904Z" fill="#7B8E2D"></path><path d="M97.17 57.1803C97.17 57.1803 97.77 56.8803 98.83 56.3603C99.9 55.8603 101.41 55.1303 103.27 54.3303C105.13 53.5403 107.29 52.6103 109.67 51.7403C110.86 51.3103 112.09 50.8603 113.36 50.4803C114.63 50.0803 115.95 49.7403 117.31 49.4803L118.36 49.3603C118.73 49.3403 119.09 49.3803 119.53 49.4203C120.16 49.5803 120.83 49.8503 121.47 50.1303C122.7 50.7003 123.83 51.3503 124.93 51.9903C127.12 53.2703 129.06 54.6003 130.74 55.7303C132.41 56.8603 133.76 57.8803 134.71 58.5703C135.66 59.2703 136.18 59.6903 136.18 59.6903C136.18 59.6903 133.88 58.3003 130.44 56.2103C128.72 55.1603 126.69 53.9803 124.5 52.7603C123.4 52.1503 122.26 51.5603 121.08 51.0203C120.51 50.7703 119.94 50.5403 119.27 50.3703C119.04 50.3803 118.72 50.3303 118.43 50.3503L117.48 50.4603C116.2 50.6903 114.91 51.0103 113.65 51.4003C112.39 51.7703 111.16 52.1603 109.97 52.5703C107.59 53.3803 105.37 54.1503 103.49 54.8503C99.71 56.2403 97.19 57.1703 97.19 57.1703L97.17 57.1803Z" fill="#7B8E2D"></path><path d="M75.51 49.8899C75.51 49.8899 75.96 49.6299 76.76 49.1999C77.56 48.7899 78.7 48.1699 80.11 47.5199C81.52 46.8699 83.16 46.1099 84.98 45.4099C86.8 44.7099 88.76 44.0199 90.85 43.6099C91.38 43.5199 91.91 43.4499 92.48 43.4599C93.04 43.4599 93.7 43.5799 94.2 43.9999C94.69 44.3899 94.99 44.8599 95.25 45.3299C95.5 45.7999 95.7 46.2799 95.86 46.7499C96.51 48.6399 96.73 50.4599 96.93 51.9999C97.12 53.5499 97.14 54.8499 97.17 55.7499C97.19 56.6599 97.17 57.1699 97.17 57.1699C97.17 57.1699 97.1 56.6599 96.98 55.7599C96.87 54.8599 96.64 53.5899 96.37 52.0799C96.09 50.5699 95.7 48.7999 95.03 47.0499C94.7 46.1899 94.24 45.2799 93.61 44.7599C93.03 44.2699 91.98 44.4199 91.02 44.5799C89.05 44.9299 87.09 45.5999 85.28 46.2199C83.46 46.8499 81.77 47.4599 80.33 48.0299C77.44 49.1399 75.51 49.8799 75.51 49.8799V49.8899Z" fill="#7B8E2D"></path><path d="M22.97 46.1902C22.97 46.1902 23.7 44.5802 25.06 41.8202C26.43 39.0602 28.39 35.1102 30.95 30.4802C33.52 25.8602 36.58 20.4902 40.32 15.0102C42.19 12.2802 44.22 9.51015 46.52 6.87015C47.67 5.56015 48.9 4.27016 50.25 3.10016C51.61 1.95016 53.09 0.840155 54.9 0.260155C55.78 -0.0198449 56.85 -0.0998449 57.74 0.140155C58.74 0.410155 59.53 0.910155 60.25 1.50016C61.67 2.70016 62.71 4.18016 63.62 5.69016C65.41 8.73015 66.68 11.9402 67.8 15.0602C69.99 21.3302 71.38 27.3602 72.52 32.5302C73.64 37.7002 74.34 42.0602 74.84 45.1002C75.32 48.1502 75.53 49.9002 75.53 49.9002C75.53 49.9002 75.23 48.1602 74.65 45.1402C74.08 42.1102 73.18 37.8002 71.97 32.6602C70.76 27.5202 69.19 21.5602 66.99 15.3602C65.87 12.2702 64.59 9.11015 62.83 6.18015C61.95 4.73015 60.93 3.32016 59.65 2.26016C59.02 1.74016 58.27 1.31016 57.56 1.12016C56.74 0.910155 55.99 1.00016 55.19 1.23016C53.62 1.72016 52.19 2.74016 50.88 3.84016C49.57 4.96016 48.36 6.20015 47.22 7.49015C44.94 10.0702 42.91 12.8002 41.03 15.5102C37.29 20.9302 34.08 26.1902 31.44 30.7702C28.81 35.3502 26.67 39.2002 25.23 41.9202C23.79 44.6502 22.97 46.2102 22.97 46.2102V46.1902Z" fill="#7B8E2D"></path><path d="M4.76 92.4501C4.76 92.4501 4.55 91.1901 4.19 88.9901C3.85 86.7901 3.35 83.6401 2.85 79.8501C2.36 76.0601 1.77 71.6401 1.29 66.8801C0.820001 62.1201 0.370001 57.0401 0.120001 51.9401C0.0200008 49.3901 -0.0299992 46.8301 0.0300008 44.3101C0.0600008 43.0501 0.130001 41.8001 0.250001 40.5601C0.380001 39.3201 0.550001 38.0901 0.950001 36.8901C1.17 36.3101 1.42 35.6601 2.09 35.2101C2.15 35.1801 2.14 35.1701 2.25 35.1201L2.35 35.0801L2.55 35.0001C2.68 34.9401 2.82 34.9001 3 34.8701C3.34 34.7801 3.66 34.7601 3.97 34.7601C5.22 34.7401 6.34 35.1001 7.39 35.4701C9.48 36.2601 11.29 37.3301 12.91 38.3501C16.15 40.4201 18.61 42.4601 20.33 43.8801C22.04 45.3201 22.96 46.2001 22.96 46.2001C22.96 46.2001 21.98 45.3901 20.21 44.0401C18.44 42.6901 15.87 40.8101 12.61 38.8401C10.98 37.8801 9.17 36.8701 7.14 36.1701C6.13 35.8401 5.05 35.5401 3.99 35.5901C3.72 35.6001 3.46 35.6301 3.24 35.6901C3.05 35.6901 2.64 35.8901 2.52 35.9501C2.2 36.1501 1.93 36.6601 1.76 37.1901C1.41 38.2601 1.25 39.4601 1.13 40.6601C1.02 41.8701 0.970001 43.1001 0.950001 44.3501C0.910001 46.8401 0.980001 49.3801 1.11 51.9201C1.31 57.0001 1.71 62.0701 2.14 66.8201C2.58 71.5701 2.98 76.0101 3.39 79.8001C4.21 87.4001 4.75 92.4601 4.75 92.4601L4.76 92.4501Z" fill="#7B8E2D"></path><path d="M60.86 17.2499C60.86 17.2499 64.15 6.79992 72.27 6.41992C72.27 6.41992 73.82 15.3199 60.86 17.2499Z" fill="#6FFA80"></path><path d="M62.09 18.21C62.09 18.21 73.12 15.68 75.51 21.06C75.51 21.06 71.9 24.54 62.09 18.21Z" fill="#6FFA80"></path><path d="M694.8 44.2802C694.8 44.2802 693.92 33.3602 701.3 29.9502C701.3 29.9502 706.08 37.6102 694.8 44.2802Z" fill="#6FFA80"></path><path d="M703.67 84.37C703.67 84.37 702.79 73.45 710.17 70.04C710.17 70.04 714.95 77.7 703.67 84.37Z" fill="#6FFA80"></path><path d="M696.29 44.6998C696.29 44.6998 705.56 38.2098 709.8 42.2898C709.8 42.2898 707.76 46.8698 696.29 44.6998Z" fill="#6FFA80"></path><path d="M569.83 22.3998C569.83 22.3998 568.95 11.4798 576.33 8.06982C576.33 8.06982 581.11 15.7298 569.83 22.3998Z" fill="#6FFA80"></path><path d="M571.33 22.8302C571.33 22.8302 580.6 16.3402 584.84 20.4202C584.84 20.4202 582.8 25.0002 571.33 22.8302Z" fill="#6FFA80"></path><path d="M282.33 37.8002C282.33 37.8002 275.39 34.4402 276.96 25.9302C276.96 25.9302 284.8 29.9602 282.33 37.8002Z" fill="#6FFA80"></path><path d="M279.77 39.3702C279.77 39.3702 277.85 34.2202 269.79 33.4302C269.79 33.4302 269.14 41.3902 279.77 39.3702Z" fill="#6FFA80"></path><path d="M494.54 46.47C494.54 46.47 487.37 43 488.99 34.21C488.99 34.21 497.08 38.37 494.54 46.47Z" fill="#6FFA80"></path><path d="M556.28 15.1602C556.28 15.1602 549.27 11.7702 550.85 3.18018C550.85 3.18018 558.76 7.25018 556.28 15.1602Z" fill="#6FFA80"></path><path d="M559.74 13.9701C559.74 13.9701 557.65 8.31012 563.16 4.37012C563.16 4.37012 565.39 10.9001 559.74 13.9701Z" fill="#6FFA80"></path><path d="M624.04 46.73C624.04 46.73 616.3 47.58 613.08 39.46C613.08 39.46 621.95 38.71 624.04 46.73Z" fill="#6FFA80"></path><path d="M626.34 43.8802C626.34 43.8802 621.57 40.1902 624.14 33.9302C624.14 33.9302 629.49 38.2802 626.34 43.8802Z" fill="#6FFA80"></path><path d="M744.87 50.67C744.87 50.67 737.13 51.52 733.91 43.4C733.91 43.4 742.78 42.65 744.87 50.67Z" fill="#6FFA80"></path><path d="M747.17 47.8201C747.17 47.8201 742.4 44.1301 744.97 37.8701C744.97 37.8701 750.32 42.2201 747.17 47.8201Z" fill="#6FFA80"></path><path d="M491.9 48.1002C491.9 48.1002 489.92 42.7802 481.6 41.9702C481.6 41.9702 480.93 50.1902 491.9 48.1002Z" fill="#6FFA80"></path><path d="M700.68 88.15C700.68 88.15 696.48 84.33 688.71 87.42C688.71 87.42 691.89 95.03 700.68 88.15Z" fill="#6FFA80"></path><path d="M149.01 39.8302C149.01 39.8302 144.58 30.3602 150.17 25.9302C150.17 25.9302 154.13 30.2002 149.01 39.8302Z" fill="#6FFA80"></path><path d="M151.63 39.8299C151.63 39.8299 152.73 34.2399 159.96 32.8799C159.96 32.8799 158.22 38.5799 151.63 39.8299Z" fill="#6FFA80"></path><path d="M33.36 32.4802C33.36 32.4802 21.53 36.4102 17.07 29.1802C17.07 29.1802 22.67 25.0802 33.36 32.4802Z" fill="#6FFA80"></path><path d="M34.69 30.9802C34.69 30.9802 29.26 29.2402 28.75 21.9102C28.75 21.9102 34.21 24.3002 34.69 30.9802Z" fill="#6FFA80"></path><path d="M27.55 42.5802C27.55 42.5802 27.82 36.8902 34.77 34.4902C34.77 34.4902 33.88 40.3902 27.55 42.5802Z" fill="#6FFA80"></path><path d="M115.52 69.98C115.52 69.98 103.45 66.89 103.6 58.39C103.6 58.39 110.53 57.97 115.52 69.98Z" fill="#6FFA80"></path><path d="M117.45 69.4401C117.45 69.4401 113.83 65.0401 117.37 58.6001C117.37 58.6001 120.67 63.5601 117.45 69.4401Z" fill="#6FFA80"></path><path d="M105.18 75.33C105.18 75.33 108.49 70.69 115.63 72.43C115.63 72.43 111.69 76.91 105.18 75.33Z" fill="#6FFA80"></path><path d="M243.51 73.4598C243.51 73.4598 241.21 61.2098 248.98 57.7598C248.98 57.7598 252.29 63.8598 243.51 73.4598Z" fill="#6FFA80"></path><path d="M244.82 74.9797C244.82 74.9797 247.28 69.8397 254.61 70.3197C254.61 70.3197 251.51 75.4097 244.82 74.9797Z" fill="#6FFA80"></path><path d="M234.3 66.3398C234.3 66.3398 239.9 67.3798 241.35 74.5798C241.35 74.5798 235.63 72.9098 234.3 66.3398Z" fill="#6FFA80"></path><path d="M407.43 70.4598C407.43 70.4598 405.13 58.2098 412.9 54.7598C412.9 54.7598 416.21 60.8598 407.43 70.4598Z" fill="#6FFA80"></path><path d="M408.74 71.9797C408.74 71.9797 411.2 66.8397 418.53 67.3197C418.53 67.3197 415.43 72.4097 408.74 71.9797Z" fill="#6FFA80"></path><path d="M398.21 63.3398C398.21 63.3398 403.81 64.3798 405.26 71.5798C405.26 71.5798 399.54 69.9098 398.21 63.3398Z" fill="#6FFA80"></path><path d="M613.79 83.6698C613.79 83.6698 607.76 72.7598 614.06 67.0498C614.06 67.0498 619.11 71.7998 613.79 83.6698Z" fill="#6FFA80"></path><path d="M615.51 84.6997C615.51 84.6997 616.23 79.0497 623.35 77.1997C623.35 77.1997 622 83.0097 615.51 84.6997Z" fill="#6FFA80"></path><path d="M691.65 79.8C691.65 79.8 697.3 79.03 700.92 85.42C700.92 85.42 694.96 85.63 691.65 79.8Z" fill="#6FFA80"></path><path d="M185.22 14.9302C185.22 14.9302 183.44 6.05016 192.1 2.16016C192.1 2.16016 193.65 12.2602 185.22 14.9302Z" fill="#6FFA80"></path><path d="M187.44 16.0398C187.44 16.0398 193.66 11.1598 197.43 14.9298C197.43 14.9298 194.99 18.6998 187.44 16.0398Z" fill="#6FFA80"></path><path d="M311.77 22.39C311.77 22.39 309.98 13.43 318.71 9.52002C318.71 9.52002 320.28 19.71 311.77 22.39Z" fill="#6FFA80"></path><path d="M314.01 23.4999C314.01 23.4999 320.28 18.5699 324.09 22.3799C324.09 22.3799 321.63 26.1899 314.01 23.4999Z" fill="#6FFA80"></path><path d="M386.8 42.4599C386.8 42.4599 379.35 35.7799 384.45 26.6099C384.45 26.6099 392.51 34.5199 386.8 42.4599Z" fill="#6FFA80"></path><path d="M389.49 41.9701C389.49 41.9701 391.76 33.5401 397.6 34.3801C397.6 34.3801 397.93 39.3301 389.49 41.9701Z" fill="#6FFA80"></path></g><defs><clipPath id="clip0_156_8851"><rect width="752.93" height="92.45" fill="white"></rect></clipPath></defs></svg> 