<?xml version="1.0" encoding="UTF-8"?> <svg xmlns="http://www.w3.org/2000/svg" width="185" height="185" viewBox="0 0 185 185" fill="none"><rect x="0.0767822" y="0.0927734" width="184.815" height="184.815" rx="92.4075" fill="white"></rect><path d="M96.6443 79.4291L74.5552 47.9705L74.4059 47.7578H74.146H48.2419H47.2798L47.8328 48.5452L81.5692 96.5845L47.8665 134.915L47.1365 135.745H48.2419H55.9155H56.1417L56.291 135.575L85.5633 102.274L108.916 135.532L109.065 135.745H109.325H135.229H136.191L135.638 134.958L100.656 85.1296L132.783 48.588L133.513 47.7578H132.407H124.734H124.508L124.359 47.9275L96.6443 79.4291ZM95.5972 89.9533L95.5977 89.9539L123.758 129.36H113.199L59.6545 54.4184H70.2136L92.1654 85.1346L92.1659 85.1352L95.5972 89.9533Z" fill="black" stroke="black"></path></svg> 