<?xml version="1.0" encoding="UTF-8"?>
<svg id="_Слой_1" data-name="Слой_1" xmlns="http://www.w3.org/2000/svg" version="1.1" viewBox="0 0 2082 38">
  <!-- Generator: Adobe Illustrator 29.3.1, SVG Export Plug-In . SVG Version: 2.1.0 Build 151)  -->
  <path d="M45.8,3.3c.4,0,1-.2,1.8-.2.8,0,1.7,0,2.8,0s2.3,0,3.7.1c.5,3.2,1,6.1,1.5,8.8.5,2.6,1.1,5.1,1.6,7.3.6,2.2,1.2,4.3,1.8,6.2.6,1.9,1.3,3.7,2,5.4-1.2.7-2.8,1.3-4.5,1.8-1.8.6-3.6,1.1-5.5,1.6-.4-.6-.8-1.5-1.2-2.6s-.8-2.3-1-3.6c-.9.2-2,.3-3.2.5-1.2.1-2.6.2-4.1.3-.3,1-.5,1.8-.8,2.6-.2.7-.4,1.5-.5,2.3-1.7,0-3.3-.3-4.8-.7-1.5-.4-3-.9-4.5-1.4.7-2,1.7-4.3,2.8-6.7,1.1-2.4,2.4-4.9,3.7-7.4,1.4-2.5,2.8-5,4.2-7.5,1.5-2.4,3-4.7,4.4-6.7ZM47.2,13.3c-.5.9-1,2.1-1.6,3.4-.6,1.4-1.2,3-1.8,4.8,0,0,.2,0,.4,0h2.2c.6,0,1.1,0,1.5,0-.2-1.4-.4-2.7-.5-4,0-1.3-.2-2.7-.2-4.2ZM135.4,3.3c.4,0,1-.2,1.8-.2.8,0,1.7,0,2.8,0s2.3,0,3.7.1c.5,3.2,1,6.1,1.5,8.8.5,2.6,1.1,5.1,1.6,7.3.6,2.2,1.2,4.3,1.8,6.2.6,1.9,1.3,3.7,2,5.4-1.2.7-2.8,1.3-4.5,1.8-1.8.6-3.6,1.1-5.5,1.6-.4-.6-.8-1.5-1.2-2.6s-.8-2.3-1-3.6c-.9.2-2,.3-3.2.5-1.2.1-2.6.2-4.1.3-.3,1-.5,1.8-.8,2.6-.2.7-.4,1.5-.5,2.3-1.7,0-3.3-.3-4.8-.7-1.5-.4-3-.9-4.5-1.4.7-2,1.7-4.3,2.8-6.7,1.1-2.4,2.4-4.9,3.7-7.4,1.4-2.5,2.8-5,4.2-7.5,1.5-2.4,3-4.7,4.4-6.7ZM136.8,13.3c-.5.9-1,2.1-1.6,3.4-.6,1.4-1.2,3-1.8,4.8,0,0,.2,0,.4,0h2.2c.6,0,1.1,0,1.5,0-.2-1.4-.4-2.7-.5-4,0-1.3-.2-2.7-.2-4.2ZM15.7,3.3c.4,0,1-.2,1.8-.2.8,0,1.7,0,2.8,0s2.3,0,3.7.1c.5,3.2,1,6.1,1.5,8.8.5,2.6,1.1,5.1,1.6,7.3.6,2.2,1.2,4.3,1.8,6.2.6,1.9,1.3,3.7,2,5.4-1.2.7-2.8,1.3-4.5,1.8-1.8.6-3.6,1.1-5.5,1.6-.4-.6-.8-1.5-1.2-2.6s-.8-2.3-1-3.6c-.9.2-2,.3-3.2.5-1.2.1-2.6.2-4.1.3-.3,1-.5,1.8-.8,2.6-.2.7-.4,1.5-.5,2.3-1.7,0-3.3-.3-4.8-.7-1.5-.4-3-.9-4.5-1.4.7-2,1.7-4.3,2.8-6.7,1.1-2.4,2.4-4.9,3.7-7.4,1.4-2.5,2.8-5,4.2-7.5,1.5-2.4,3-4.7,4.4-6.7ZM17.1,13.3c-.5.9-1,2.1-1.6,3.4-.6,1.4-1.2,3-1.8,4.8,0,0,.2,0,.4,0h2.2c.6,0,1.1,0,1.5,0-.2-1.4-.4-2.7-.5-4,0-1.3-.2-2.7-.2-4.2ZM77.2,3.3c.4,0,1-.2,1.8-.2.8,0,1.7,0,2.8,0s2.3,0,3.7.1c.5,3.2,1,6.1,1.5,8.8.5,2.6,1.1,5.1,1.6,7.3.6,2.2,1.2,4.3,1.8,6.2.6,1.9,1.3,3.7,2,5.4-1.2.7-2.8,1.3-4.6,1.8-1.8.6-3.6,1.1-5.4,1.6-.4-.6-.8-1.5-1.2-2.6-.4-1.1-.8-2.3-1.1-3.6-.9.2-2,.3-3.2.5-1.2.1-2.6.2-4.1.3-.3,1-.5,1.8-.8,2.6-.2.7-.4,1.5-.6,2.3-1.7,0-3.3-.3-4.8-.7-1.5-.4-3-.9-4.5-1.4.7-2,1.7-4.3,2.8-6.7,1.1-2.4,2.4-4.9,3.7-7.4,1.4-2.5,2.8-5,4.2-7.5,1.5-2.4,3-4.7,4.4-6.7ZM78.6,13.3c-.5.9-1,2.1-1.6,3.4-.6,1.4-1.2,3-1.8,4.8,0,0,.2,0,.4,0h2.2c.6,0,1.1,0,1.5,0-.2-1.4-.3-2.7-.5-4,0-1.3-.1-2.7-.1-4.2ZM95.9,27.1c0-.8.2-1.5.4-2.1.3-.6.8-1.1,1.2-1.5.5-.4,1.1-.7,1.8-.9.7-.2,1.4-.3,2.1-.3,1.6,0,2.9.5,4,1.4,1.1.9,1.6,2.3,1.6,4.2s-.2,2.5-.8,3.6c-.5,1.1-1.2,2.1-2,2.9-.8.9-1.6,1.6-2.6,2.1-.9.6-1.8,1-2.8,1.2-.3-.1-.6-.4-.8-.7-.2-.3-.4-.6-.6-1-.2-.4-.3-.8-.4-1.2,0-.4-.2-.8-.2-1.1s.3-.5.8-.7c.6-.2,1.2-.5,1.8-.8.7-.3,1.3-.7,1.8-1.1.6-.5.8-1,.8-1.8v-.2c-.5.5-1.1.9-1.6,1.1-.5.2-1,.3-1.5.3-.9,0-1.7-.3-2.3-1-.6-.7-.9-1.5-.9-2.5ZM165.6,3.3c.4,0,1-.2,1.8-.2.8,0,1.7,0,2.8,0s2.3,0,3.7.1c.5,3.2.9,6.1,1.4,8.8.5,2.6,1.1,5.1,1.6,7.3.6,2.2,1.1,4.3,1.8,6.2.6,1.9,1.3,3.7,2,5.4-1.2.7-2.8,1.3-4.6,1.8-1.8.6-3.6,1.1-5.4,1.6-.4-.6-.8-1.5-1.2-2.6-.4-1.1-.8-2.3-1.1-3.6-.9.2-2,.3-3.2.5-1.2.1-2.6.2-4.1.3-.3,1-.5,1.8-.8,2.6-.2.7-.4,1.5-.6,2.3-1.7,0-3.3-.3-4.8-.7-1.5-.4-3-.9-4.5-1.4.7-2,1.7-4.3,2.8-6.7,1.1-2.4,2.4-4.9,3.7-7.4,1.4-2.5,2.8-5,4.2-7.5,1.5-2.4,3-4.7,4.4-6.7ZM167,13.3c-.5.9-1,2.1-1.6,3.4-.6,1.4-1.2,3-1.9,4.8.1,0,.2,0,.4,0h2.1c.6,0,1.1,0,1.5,0-.2-1.4-.4-2.7-.4-4-.1-1.3-.2-2.7-.2-4.2ZM197.1,3.3c.4,0,1-.2,1.8-.2.8,0,1.7,0,2.8,0s2.3,0,3.7.1c.5,3.2.9,6.1,1.4,8.8.5,2.6,1.1,5.1,1.6,7.3.6,2.2,1.1,4.3,1.8,6.2.6,1.9,1.3,3.7,2,5.4-1.2.7-2.8,1.3-4.6,1.8-1.8.6-3.6,1.1-5.4,1.6-.4-.6-.8-1.5-1.2-2.6-.4-1.1-.8-2.3-1.1-3.6-.9.2-2,.3-3.2.5-1.2.1-2.6.2-4.1.3-.3,1-.5,1.8-.8,2.6-.2.7-.4,1.5-.5,2.3-1.7,0-3.3-.3-4.8-.7-1.5-.4-3-.9-4.6-1.4.7-2,1.7-4.3,2.8-6.7,1.1-2.4,2.4-4.9,3.7-7.4,1.4-2.5,2.8-5,4.2-7.5,1.5-2.4,3-4.7,4.4-6.7ZM198.5,13.3c-.5.9-1,2.1-1.6,3.4-.6,1.4-1.2,3-1.8,4.8,0,0,.2,0,.4,0h2.1c.6,0,1.1,0,1.5,0-.2-1.4-.3-2.7-.4-4,0-1.3-.1-2.7-.1-4.2ZM216,27.1c0-.8.2-1.5.5-2.1.3-.6.8-1.1,1.2-1.5.5-.4,1.1-.7,1.8-.9.7-.2,1.3-.3,2-.3,1.6,0,2.9.5,4,1.4,1.1.9,1.6,2.3,1.6,4.2s-.2,2.5-.8,3.6c-.5,1.1-1.1,2.1-1.9,2.9-.8.9-1.6,1.6-2.6,2.1-.9.6-1.8,1-2.8,1.2-.3-.1-.6-.4-.8-.7-.2-.3-.5-.6-.7-1-.2-.4-.3-.8-.4-1.2-.1-.4-.2-.8-.2-1.1s.3-.5.8-.7c.6-.2,1.2-.5,1.8-.8.7-.3,1.3-.7,1.8-1.1.6-.5.8-1,.8-1.8v-.2c-.5.5-1.1.9-1.6,1.1-.5.2-1,.3-1.4.3-.9,0-1.7-.3-2.3-1-.6-.7-.9-1.5-.9-2.5ZM246.4,33c0-.6,0-1.5.1-2.9.1-1.3.2-2.9.4-4.6.2-1.7.3-3.6.5-5.5.2-2,.4-4,.6-5.9.2-1.9.5-3.7.7-5.4.3-1.7.5-3.1.8-4.2,1.8-.4,3.9-.7,6.2-1,2.3-.3,4.5-.5,6.8-.5s2.8,0,4,.3c1.3.2,2.4.5,3.2,1,.9.5,1.7,1.1,2.2,1.9.5.8.8,1.8.8,3.1s-.2,2.4-.6,3.5c-.4,1-.9,1.9-1.5,2.8-.6.8-1.4,1.4-2.2,1.9-.9.5-1.8.8-2.8.9.8,0,1.6.2,2.3.6.7.3,1.4.7,1.9,1.2.6.5,1,1.1,1.3,1.8.3.6.5,1.3.5,2.1s0,1-.2,1.7c-.1.7-.3,1.4-.7,2.1-.3.7-.8,1.5-1.5,2.2-.7.7-1.6,1.4-2.7,2-1.1.6-2.4,1.1-4,1.5-1.6.4-3.5.6-5.7.6s-3-.1-4.7-.3c-1.7-.2-3.6-.4-5.6-.8ZM258.2,11.8c-.3.9-.5,1.8-.6,2.6-.2.9-.3,1.7-.5,2.6.3,0,.5.1.8.1h.8c1.5,0,2.6-.4,3.4-1.1.8-.7,1.2-1.7,1.2-3s-.2-1-.7-1.2c-.4-.2-1-.4-1.6-.4s-.9,0-1.4.1c-.5,0-.9.1-1.3.2ZM256.3,26c.4.1.8.2,1.3.3.5.1,1,.2,1.5.2s.7,0,1-.2c.4,0,.8-.3,1.1-.5.3-.2.6-.5.8-.9.2-.4.4-.9.4-1.6s-.2-1.1-.7-1.3c-.4-.3-1-.4-1.7-.4s-1.1,0-1.7.2c-.6.1-1.1.2-1.8.5,0,.7-.1,1.4-.1,2,0,.6,0,1.2,0,1.8ZM279.3,4.3c.6-.1,1.5-.2,2.6-.2s2.6,0,4,.2c1.5.1,2.8.3,4,.6-.4,1.3-.8,2.8-1.2,4.6-.4,1.8-.8,3.6-1.2,5.5-.4,1.9-.7,3.7-1.1,5.5-.3,1.8-.5,3.4-.8,4.7,1.3-.3,3-.6,5-1,2-.4,4.3-.6,7-.8v1.4c0,.5,0,1.1,0,1.8,0,1,0,2-.1,3.1,0,1.1-.2,2-.3,2.8-.7,0-1.7.2-3,.2-1.3,0-2.8.2-4.5.2-1.6,0-3.3.1-5,.1-1.8,0-3.4,0-5,0s-1.7,0-2.4,0c-.7,0-1.4,0-2,0,.1-1.1.2-2.4.4-3.9.2-1.5.4-3.1.5-4.8.2-1.7.5-3.5.7-5.3.3-1.8.5-3.6.8-5.4.3-1.8.5-3.4.8-5,.3-1.6.5-3,.8-4.3ZM315.4,3.3c.4,0,1-.2,1.8-.2.8,0,1.7,0,2.8,0s2.3,0,3.7.1c.5,3.2.9,6.1,1.4,8.8.5,2.6,1.1,5.1,1.6,7.3.6,2.2,1.1,4.3,1.8,6.2.6,1.9,1.3,3.7,2,5.4-1.2.7-2.8,1.3-4.5,1.8-1.8.6-3.6,1.1-5.5,1.6-.4-.6-.8-1.5-1.2-2.6-.4-1.1-.8-2.3-1-3.6-.9.2-2,.3-3.2.5-1.2.1-2.6.2-4.1.3-.3,1-.5,1.8-.8,2.6-.2.7-.4,1.5-.5,2.3-1.7,0-3.3-.3-4.8-.7-1.5-.4-3-.9-4.6-1.4.7-2,1.7-4.3,2.8-6.7,1.1-2.4,2.4-4.9,3.7-7.4,1.4-2.5,2.8-5,4.2-7.5,1.5-2.4,3-4.7,4.4-6.7ZM316.8,13.3c-.5.9-1,2.1-1.6,3.4-.6,1.4-1.2,3-1.9,4.8.1,0,.2,0,.4,0h2.1c.6,0,1.1,0,1.5,0-.2-1.4-.3-2.7-.4-4-.1-1.3-.1-2.7-.1-4.2ZM359.6,4.4c-.2.9-.4,1.9-.6,2.9-.3,1-.6,2-.9,3-.3.9-.6,1.8-.9,2.6-.3.8-.6,1.4-.8,1.9-.3,0-.8-.2-1.4-.2-.6-.1-1.3-.2-2-.4-.7,0-1.3-.2-1.9-.2-.6,0-1-.1-1.3-.1-1.3,0-2.3.2-3.1.8-.8.5-1.5,1.1-2,1.8-.5.7-.9,1.5-1.1,2.4-.2.8-.3,1.6-.3,2.3s0,1.1.2,1.5c.2.4.4.8.7,1,.3.3.5.5.8.6.3.1.7.2,1,.2,1.2,0,2.4-.3,3.6-1,1.3-.7,2.5-1.5,3.8-2.6.3.3.7.8,1.1,1.4.4.6.9,1.3,1.2,2.1.4.7.8,1.5,1,2.2.3.7.5,1.4.6,1.9-2,1.9-4.1,3.4-6.4,4.4-2.2,1.1-4.5,1.6-6.9,1.6s-3.8-.4-5.2-1.2c-1.4-.8-2.5-1.8-3.4-3-.9-1.2-1.5-2.5-1.9-4-.4-1.4-.6-2.8-.6-4.1,0-3.3.6-6.1,1.8-8.4,1.2-2.4,2.6-4.3,4.3-5.8,1.7-1.5,3.6-2.7,5.5-3.3,2-.7,3.7-1.1,5.3-1.1s1.4,0,2.2,0c.9,0,1.8,0,2.6.2s1.8.2,2.6.2c.9,0,1.6.2,2.3.4ZM361.9,32.7c0-.7,0-1.9.1-3.4.1-1.6.2-3.3.4-5.2.2-1.9.4-3.9.6-6,.2-2.1.5-4.1.7-5.9.2-1.9.5-3.5.7-5,.2-1.4.4-2.4.6-3,.4,0,.9,0,1.4,0,.5,0,.9,0,1.4,0,1.2,0,2.4,0,3.7.2,1.3,0,2.5.2,3.7.3-.2,1-.4,2-.7,2.9-.2.9-.5,1.9-.8,2.9-.3,1-.5,2-.8,3-.2,1-.4,2.2-.5,3.4h.4c.7-1.3,1.5-2.7,2.4-4.1.9-1.4,2-2.8,3.2-4,1.2-1.2,2.5-2.3,4-3.2,1.5-.9,3.3-1.5,5.2-1.8.2.4.4.9.6,1.6.2.7.5,1.5.7,2.4.2.9.4,1.8.5,2.8.2.9.3,1.8.3,2.7-2.7.4-5,1-6.9,2-1.9.9-3.5,2-4.9,3.1.3.7.7,1.4,1.4,1.9.7.5,1.5,1,2.5,1.4,1,.4,2.1.7,3.4.9,1.3.2,2.6.4,4.1.4-.1,1.1-.3,2.2-.5,3.2-.2,1.1-.5,2.1-.8,3.1-.3,1-.6,1.9-.9,2.7-.3.8-.6,1.5-.9,2.1-1.2,0-2.4-.3-3.9-.8-1.4-.5-2.8-1.2-4-2.2-1.3-1-2.4-2.2-3.4-3.6-1-1.5-1.6-3.2-2-5.1-.4.5-.7.9-1.1,1.2-.4.4-.6.7-.7.9,0,.6-.1,1.3-.2,2.1,0,.7-.1,1.5-.2,2.2,0,.7,0,1.4-.2,2,0,.6-.1,1.1-.1,1.5-1.4.2-2.9.3-4.5.4-1.7,0-3.1.2-4.2.2ZM427.9,15.2c-.2,0-.5-.2-1-.6-.5-.3-1-.7-1.7-1-.6-.4-1.3-.7-2.1-1-.7-.3-1.5-.5-2.2-.5s-1.6.2-2.1.7c-.5.4-.8.9-.8,1.4s.3,1.1.9,1.6c.6.5,1.5.9,2.8,1.2,1.9.4,3.4.9,4.5,1.6,1.1.6,2,1.3,2.6,2,.6.7,1.1,1.4,1.2,2.1.2.7.3,1.3.3,1.8,0,1.7-.4,3.1-1.1,4.4-.7,1.3-1.6,2.3-2.7,3.2-1.1.9-2.4,1.5-3.8,2-1.4.5-2.8.7-4.2.7s-2.8-.2-4.1-.5c-1.3-.3-2.5-.7-3.5-1.3-1-.5-1.9-1.2-2.7-2-.7-.8-1.3-1.6-1.6-2.5.4-.6.9-1.1,1.5-1.7.6-.6,1.1-1.2,1.8-1.7.6-.6,1.2-1.1,1.8-1.6.6-.5,1.1-1,1.6-1.4,1.2,1.4,2.3,2.4,3.4,2.9,1.1.5,2.1.8,2.9.8s.9-.1,1.2-.3c.4-.2.6-.7.6-1.5s0-.7-.2-.9c-.2-.3-.5-.5-.9-.7-.4-.2-.9-.4-1.5-.6-.6-.2-1.4-.4-2.4-.8-1.2-.4-2.2-.8-3.2-1.2-1-.5-1.8-1-2.5-1.6-.7-.6-1.2-1.4-1.6-2.2-.4-.9-.6-1.9-.6-3.1,0-1.9.3-3.6,1-5,.7-1.4,1.6-2.5,2.7-3.4,1.1-.9,2.4-1.5,3.9-1.9,1.5-.4,3.1-.7,4.8-.7s4.7.4,7,1.2c2.3.8,4.4,1.9,6.1,3.3-.3.8-.6,1.6-1.1,2.4-.5.8-1,1.6-1.6,2.4-.5.8-1.1,1.5-1.7,2.2-.6.7-1.1,1.2-1.6,1.7ZM450.2,33.1c0-.6.2-1.4.3-2.5.1-1.1.3-2.4.5-3.9-.6,0-1.1,0-1.8,0h-3c-.4,0-.8,0-1.1,0-.2,1.4-.4,2.6-.5,3.6-.1,1-.2,1.7-.2,2.1-.4,0-1,.1-1.7.2-.7,0-1.4.1-2.1.2-.8,0-1.5.1-2.2.2-.7,0-1.4,0-1.9,0h-.6c-.2,0-.3,0-.4,0,0-.8.1-2,.2-3.6.2-1.6.3-3.4.5-5.4.2-2,.5-4.1.6-6.2.2-2.2.5-4.2.6-6.1.2-1.9.4-3.4.6-4.8.2-1.3.3-2.2.4-2.5.7,0,1.4-.1,2.2-.1.9,0,1.8-.1,2.7-.1s1.9,0,2.9.1c1,0,1.8.1,2.6.2-.2.8-.4,1.8-.6,2.9-.2,1.2-.4,2.4-.7,3.8-.2,1.4-.5,2.8-.8,4.3-.2,1.5-.5,2.9-.7,4.4.8-.1,1.7-.3,2.7-.5,1-.2,2.1-.3,3.1-.4.2-1.6.4-3.2.6-4.8.2-1.6.4-3.1.6-4.4.2-1.4.3-2.5.4-3.5s.2-1.7.2-2.1c.6,0,1.4-.1,2.2-.2.9,0,1.8,0,2.7,0s2.1,0,3,0c1,0,1.7.1,2.1.2-.1,1.3-.3,2.8-.6,4.5-.2,1.7-.5,3.6-.8,5.5-.3,1.9-.6,3.9-1,5.8-.3,2-.6,3.8-.9,5.5-.3,1.7-.5,3.1-.8,4.4-.2,1.2-.4,2-.4,2.5-.8.2-1.8.3-2.8.4-1,0-1.9.1-2.8.1s-1.6,0-2.2,0h-1.4ZM469.5,5.1c.5-.1,1.5-.2,2.9-.4,1.4-.1,3-.2,4.8-.3,1.8,0,3.7-.2,5.6-.2,2,0,3.8,0,5.4,0h1.9c.6,0,1.1,0,1.6,0,0,.7-.1,1.4-.2,2.2,0,.8-.2,1.7-.3,2.5,0,.8-.2,1.6-.3,2.2-.1.7-.2,1.2-.4,1.6-1.2,0-2.3-.1-3.3-.2-1,0-1.9-.2-2.9-.3-.9-.1-1.9-.2-2.9-.3-1-.1-2.1-.2-3.3-.2l-1,4.9c1.3-.3,2.7-.6,4.2-.8,1.6-.3,3.1-.4,4.5-.4h.6c0,1.1,0,2.3-.2,3.5-.1,1.2-.2,2.2-.4,3h-1.3c-1.6,0-3,0-4.2.2-1.2,0-2.6.2-4.1.3,0,.6-.2,1.2-.2,1.9,0,.6,0,1.2-.1,1.9,1.8,0,3.7-.2,5.8-.5,2.1-.3,4.5-.6,7.2-.9,0,.7,0,1.4.1,2,0,.6,0,1.3,0,2,0,1.1,0,2.4-.1,3.8-1.6.2-3.5.4-5.6.4-2.2,0-4.4.1-6.7.1s-4,0-5.9,0c-1.8,0-3.4,0-4.6-.2,0-1,.1-2.2.3-3.8.2-1.6.4-3.3.5-5.1.2-1.8.5-3.7.7-5.6.3-2,.5-3.8.8-5.5.3-1.7.5-3.3.7-4.6.2-1.4.4-2.4.5-3.1ZM497.4,5.1c.5-.1,1.5-.2,2.9-.4,1.4-.1,3-.2,4.8-.3,1.8,0,3.7-.2,5.7-.2,2,0,3.8,0,5.5,0h1.9c.6,0,1.2,0,1.7,0,0,.7-.2,1.4-.2,2.2,0,.8-.2,1.7-.3,2.5-.1.8-.2,1.6-.4,2.2-.1.7-.2,1.2-.3,1.6-1.2,0-2.3-.1-3.3-.2-1,0-1.9-.2-2.9-.3-.9-.1-1.9-.2-2.9-.3-1-.1-2.1-.2-3.3-.2l-1,4.9c1.3-.3,2.7-.6,4.2-.8,1.6-.3,3-.4,4.5-.4h.6c0,1.1,0,2.3-.2,3.5,0,1.2-.2,2.2-.3,3h-1.3c-1.6,0-3,0-4.2.2-1.2,0-2.6.2-4.1.3-.1.6-.2,1.2-.2,1.9,0,.6,0,1.2-.1,1.9,1.8,0,3.7-.2,5.8-.5,2.1-.3,4.5-.6,7.2-.9,0,.7,0,1.4,0,2,0,.6,0,1.3,0,2,0,1.1,0,2.4-.1,3.8-1.6.2-3.5.4-5.7.4-2.2,0-4.4.1-6.7.1s-4,0-5.9,0c-1.8,0-3.4,0-4.6-.2,0-1,.1-2.2.3-3.8.2-1.6.3-3.3.5-5.1.2-1.8.5-3.7.7-5.6.3-2,.5-3.8.8-5.5.3-1.7.5-3.3.7-4.6.2-1.4.4-2.4.5-3.1ZM525.9,5.3c2.3-.7,4.4-1.2,6.3-1.6,2-.4,3.8-.5,5.4-.5,3.4,0,6.1.8,8,2.3,1.9,1.5,2.9,3.8,2.9,6.9s-.4,4.6-1.2,6.4c-.8,1.8-1.8,3.2-3,4.3-1.2,1.1-2.7,1.9-4.2,2.5-1.6.5-3.2.8-4.8.8s-2.1-.1-3.2-.3c-.3,1.6-.4,2.8-.4,3.8,0,1-.1,1.9-.2,2.8-.8.2-1.6.3-2.5.4-.8,0-1.7.1-2.5.1s-1.5,0-2.2,0c-.6,0-1.2-.1-1.8-.2,0-.5,0-1.5.2-2.8.1-1.3.3-2.9.4-4.5.2-1.7.4-3.6.7-5.6.2-2,.5-3.9.7-5.7.3-1.9.5-3.6.8-5.1.2-1.6.5-2.8.6-3.8ZM534.4,12.3c-.2,1-.4,2.1-.7,3.4-.2,1.3-.4,2.7-.6,4.4.2,0,.3,0,.5.1h.5c.5,0,1.1,0,1.7-.2.6-.2,1.1-.5,1.6-.9.5-.4.9-1,1.2-1.6.3-.7.5-1.5.5-2.5s-.2-1.8-.7-2.2c-.5-.4-1.1-.6-1.9-.6s-.6,0-1,0c-.3,0-.7,0-1,.2ZM547.5,27.1c0-.8.2-1.5.5-2.1.3-.6.8-1.1,1.2-1.5.5-.4,1.1-.7,1.8-.9.7-.2,1.3-.3,2-.3,1.6,0,2.9.5,4,1.4,1.1.9,1.6,2.3,1.6,4.2s-.2,2.5-.8,3.6c-.5,1.1-1.1,2.1-1.9,2.9-.8.9-1.6,1.6-2.6,2.1-.9.6-1.8,1-2.8,1.2-.3-.1-.6-.4-.8-.7-.2-.3-.5-.6-.7-1-.2-.4-.3-.8-.4-1.2-.1-.4-.2-.8-.2-1.1s.3-.5.8-.7c.6-.2,1.2-.5,1.8-.8.7-.3,1.3-.7,1.8-1.1.6-.5.8-1,.8-1.8v-.2c-.5.5-1.1.9-1.6,1.1-.5.2-1,.3-1.5.3-.9,0-1.7-.3-2.3-1-.6-.7-.9-1.5-.9-2.5Z"/>
  <path d="M637.5,33.1c0-.6.2-1.4.3-2.5.1-1.1.3-2.4.5-3.9-.6,0-1.2,0-1.8,0h-3c-.4,0-.8,0-1.2,0-.2,1.4-.4,2.6-.5,3.6,0,1-.2,1.7-.2,2.1-.4,0-1,.1-1.7.2-.7,0-1.4.1-2.2.2s-1.5.1-2.2.2c-.7,0-1.4,0-1.9,0h-.5c-.2,0-.3,0-.5,0,0-.8.1-2,.2-3.6.2-1.6.4-3.4.6-5.4.2-2,.4-4.1.6-6.2.2-2.2.5-4.2.7-6.1.2-1.9.4-3.4.6-4.8.2-1.3.3-2.2.4-2.5.7,0,1.4-.1,2.2-.1.9,0,1.8-.1,2.7-.1s1.9,0,2.9.1c1,0,1.8.1,2.6.2-.2.8-.4,1.8-.6,2.9-.2,1.2-.4,2.4-.7,3.8-.2,1.4-.5,2.8-.8,4.3-.2,1.5-.5,2.9-.7,4.4.8-.1,1.7-.3,2.7-.5,1-.2,2.1-.3,3.2-.4.2-1.6.4-3.2.6-4.8.2-1.6.4-3.1.5-4.4.2-1.4.3-2.5.4-3.5s.2-1.7.2-2.1c.6,0,1.4-.1,2.2-.2.9,0,1.8,0,2.7,0s2.1,0,3,0c1,0,1.7.1,2.1.2-.1,1.3-.3,2.8-.6,4.5-.2,1.7-.5,3.6-.8,5.5-.3,1.9-.6,3.9-1,5.8-.3,2-.6,3.8-.9,5.5-.3,1.7-.5,3.1-.8,4.4-.2,1.2-.3,2-.5,2.5-.8.2-1.8.3-2.8.4-1,0-1.9.1-2.8.1s-1.6,0-2.2,0h-1.3ZM666.6,3.3c.4,0,1-.2,1.8-.2.8,0,1.7,0,2.8,0s2.3,0,3.7.1c.5,3.2,1,6.1,1.5,8.8.5,2.6,1.1,5.1,1.6,7.3.6,2.2,1.2,4.3,1.8,6.2.6,1.9,1.3,3.7,2,5.4-1.2.7-2.8,1.3-4.5,1.8-1.8.6-3.6,1.1-5.5,1.6-.4-.6-.8-1.5-1.2-2.6s-.8-2.3-1-3.6c-.9.2-2,.3-3.2.5-1.2.1-2.6.2-4.1.3-.3,1-.5,1.8-.8,2.6-.2.7-.4,1.5-.5,2.3-1.7,0-3.3-.3-4.8-.7-1.5-.4-3-.9-4.5-1.4.7-2,1.7-4.3,2.8-6.7s2.4-4.9,3.7-7.4c1.4-2.5,2.8-5,4.2-7.5,1.5-2.4,3-4.7,4.4-6.7ZM668,13.3c-.5.9-1,2.1-1.6,3.4-.6,1.4-1.2,3-1.8,4.8,0,0,.2,0,.4,0h2.2c.6,0,1.1,0,1.5,0-.2-1.4-.4-2.7-.5-4,0-1.3-.2-2.7-.2-4.2ZM681,5.4c.4-.2,1.1-.4,2.1-.6,1-.3,2.1-.5,3.2-.8,1.2-.3,2.3-.5,3.4-.7,1.1-.2,2-.2,2.7-.2s.3.4.5,1.2c.2.8.3,1.8.5,3,.1,1.2.2,2.6.3,4.1.1,1.5.2,2.9.3,4.4.1,1.4.2,2.8.2,4,0,1.2.1,2.2.1,2.9.5-1,1.1-2.4,1.7-4.1.6-1.7,1.2-3.4,1.9-5.2.6-1.8,1.1-3.6,1.6-5.4.5-1.8.9-3.3,1.2-4.6.9,0,1.9.1,2.9.3,1,.1,2,.3,2.9.6,1,.2,1.9.5,2.7.8.9.3,1.6.7,2.3,1.1-.5,1.4-1.2,3-2,4.7-.8,1.7-1.8,3.5-2.8,5.3s-2,3.6-3,5.5c-1,1.8-2,3.4-2.9,4.9-.9,1.5-1.6,2.8-2.3,4-.6,1.1-1,1.9-1.2,2.4-.3,0-.5,0-.8,0h-.8c-.8,0-1.5,0-2.3,0-.7,0-1.4,0-2.1-.2-.7,0-1.3-.1-1.8-.2-.5,0-1-.1-1.2-.2-.3-1.7-.7-3.7-1.2-5.9-.5-2.3-1.1-4.7-1.7-7.1-.6-2.5-1.3-4.9-2-7.3-.7-2.4-1.5-4.6-2.2-6.5ZM715.2,5.1c.5-.1,1.5-.2,2.8-.4,1.4-.1,3-.2,4.8-.3,1.8,0,3.7-.2,5.6-.2,2,0,3.8,0,5.5,0h1.9c.6,0,1.1,0,1.6,0,0,.7-.1,1.4-.2,2.2,0,.8-.2,1.7-.3,2.5,0,.8-.2,1.6-.3,2.2-.1.7-.2,1.2-.4,1.6-1.2,0-2.3-.1-3.3-.2-1,0-1.9-.2-2.9-.3-.9-.1-1.9-.2-2.9-.3-1-.1-2.1-.2-3.3-.2l-1,4.9c1.3-.3,2.7-.6,4.2-.8,1.6-.3,3.1-.4,4.5-.4h.6c0,1.1,0,2.3-.2,3.5-.1,1.2-.2,2.2-.4,3h-1.3c-1.6,0-3,0-4.2.2-1.2,0-2.6.2-4,.3,0,.6-.2,1.2-.2,1.9,0,.6,0,1.2-.2,1.9,1.8,0,3.7-.2,5.8-.5,2.1-.3,4.5-.6,7.2-.9,0,.7,0,1.4.1,2,0,.6,0,1.3,0,2,0,1.1,0,2.4-.2,3.8-1.6.2-3.5.4-5.6.4-2.2,0-4.4.1-6.7.1s-4,0-5.9,0c-1.8,0-3.4,0-4.6-.2,0-1,.1-2.2.3-3.8.2-1.6.4-3.3.5-5.1.2-1.8.5-3.7.7-5.6.3-2,.5-3.8.8-5.5.3-1.7.5-3.3.7-4.6.2-1.4.4-2.4.5-3.1ZM755.2,5.5c.5-.2,1.2-.4,2-.6.8-.2,1.8-.5,2.8-.7s2-.4,3.1-.5c1.1-.1,2.2-.2,3.4-.3,0,.4-.1.8-.1,1.2v1.2c0,1,0,2.1.2,3.2,0,1.1.2,2.1.4,3.2.2,1,.4,1.9.6,2.8.3.9.6,1.6,1,2.2.9-1.4,2-3.2,3-5.5,1.1-2.4,2-5.1,2.7-8.3,1.5,0,3.1.2,5,.5,1.9.3,3.7,1,5.5,1.9-.9,2.5-1.9,4.6-3.1,6.3-1.1,1.8-2.3,3.3-3.4,4.6-1.2,1.3-2.3,2.4-3.5,3.4-1.1.9-2.1,1.8-2.9,2.6,0,.8,0,1.6,0,2.6,0,1-.2,1.9-.2,2.9-.1.9-.2,1.8-.3,2.5,0,.7-.1,1.2-.2,1.5-1.1,0-2.2.2-3.2.2-1,0-2,0-3,0s-1.2,0-1.7,0c-.5,0-1,0-1.5-.2.2-1.1.4-2,.5-2.8.1-.8.2-1.6.3-2.3.1-.7.2-1.4.3-2.1,0-.7.2-1.4.4-2.2-.8-.8-1.5-1.7-2.3-2.6-.8-1-1.6-2.2-2.3-3.5-.7-1.4-1.4-3-2-4.8-.6-1.9-1-4.1-1.2-6.6ZM797.9,26.3c.9,0,1.7-.3,2.3-.8.7-.6,1.2-1.4,1.6-2.3.4-.9.8-2,1-3.1.2-1.1.3-2.2.3-3.3s-.2-2.2-.6-3c-.4-.8-1.2-1.1-2.4-1.1s-1.6.3-2.2.8c-.7.6-1.2,1.3-1.8,2.2-.5.9-.8,1.9-1.1,2.9-.2,1.1-.3,2.1-.3,3.1,0,1.5.2,2.7.8,3.5.5.7,1.4,1.1,2.5,1.2ZM800.5,3.2c1.6,0,3.2.2,4.8.6,1.6.4,3,1.1,4.2,2,1.3.9,2.3,2.2,3.1,3.8.8,1.6,1.1,3.5,1.1,5.8s-.3,4.5-.8,6.4c-.5,1.8-1.2,3.4-2.2,4.8-.9,1.3-1.9,2.4-3,3.4-1.1.9-2.3,1.6-3.5,2.1-1.2.6-2.4,1-3.6,1.2-1.2.2-2.2.4-3.2.4-1.9,0-3.7-.2-5.3-.8-1.6-.5-3-1.2-4.2-2.2-1.2-1-2.1-2.3-2.8-3.9-.6-1.6-.9-3.4-.9-5.6,0-3.1.5-5.7,1.4-8,.9-2.3,2.2-4.1,3.7-5.7,1.5-1.5,3.3-2.6,5.2-3.3,1.9-.7,3.9-1.1,5.9-1.1ZM819.7,4.5c.4,0,.8,0,1.3,0h1.4c.6,0,1.2,0,1.8,0,.9,0,1.8,0,2.8,0,1,0,1.9,0,2.8.2-1,5.5-1.7,9.7-2.1,12.6-.4,2.9-.7,4.7-.7,5.4,0,1.1.2,1.9.7,2.4.5.5,1.1.8,1.8.8s1.3-.3,2-.8c.7-.6,1.1-1.5,1.3-2.7.6-3.1.9-6.1,1-9,.1-2.9.2-5.6.3-8,.4,0,.9-.2,1.5-.3.7-.1,1.5-.2,2.3-.2.9-.1,1.8-.2,2.7-.2,1,0,1.9,0,2.8,0h1.2c-.3,4.8-.7,8.6-1,11.4-.3,2.7-.6,4.8-.8,6.1-.3,1.7-.8,3.2-1.6,4.7-.7,1.5-1.6,2.8-2.8,3.8-1.2,1.1-2.6,1.9-4.2,2.5-1.6.6-3.4,1-5.5,1s-3.9-.3-5.3-.9c-1.4-.6-2.5-1.4-3.4-2.4-.9-1-1.5-2.1-1.9-3.4-.4-1.3-.5-2.7-.5-4.2s0-3.3.2-5.1c.2-1.8.4-3.6.6-5.3.2-1.7.5-3.3.7-4.8.3-1.5.5-2.6.6-3.4ZM874.4,3.3c.4,0,1-.2,1.8-.2.8,0,1.7,0,2.8,0s2.3,0,3.7.1c.5,3.2,1,6.1,1.5,8.8.5,2.6,1.1,5.1,1.6,7.3.6,2.2,1.2,4.3,1.8,6.2.6,1.9,1.3,3.7,2,5.4-1.2.7-2.8,1.3-4.5,1.8-1.8.6-3.6,1.1-5.5,1.6-.4-.6-.8-1.5-1.2-2.6-.4-1.1-.8-2.3-1-3.6-.9.2-2,.3-3.2.5-1.2.1-2.6.2-4.1.3-.3,1-.5,1.8-.8,2.6-.2.7-.4,1.5-.6,2.3-1.7,0-3.3-.3-4.8-.7-1.5-.4-3-.9-4.5-1.4.7-2,1.7-4.3,2.8-6.7,1.1-2.4,2.4-4.9,3.7-7.4,1.4-2.5,2.8-5,4.2-7.5,1.5-2.4,3-4.7,4.4-6.7ZM875.8,13.3c-.5.9-1,2.1-1.6,3.4-.6,1.4-1.2,3-1.9,4.8.1,0,.2,0,.4,0h2.2c.6,0,1.1,0,1.5,0-.2-1.4-.4-2.7-.5-4-.1-1.3-.2-2.7-.2-4.2ZM892.4,33.2c0-.5.2-1.5.4-2.8.2-1.4.3-2.9.5-4.7.2-1.8.5-3.6.8-5.6.3-2,.5-3.9.8-5.8.3-1.9.6-3.6.8-5.1.2-1.6.5-2.8.7-3.7,1.6-.3,3.2-.6,4.9-.9,1.7-.3,3.5-.4,5.6-.4.3.7.6,1.6.9,2.7s.7,2.2,1.1,3.5c.4,1.2.7,2.5,1,3.8.4,1.3.7,2.5,1,3.7.3,1.2.5,2.2.6,3.1.2.9.3,1.6.4,2.1,0-1.6.2-3.1.2-4.5,0-1.4.2-2.8.3-4.2.1-1.4.3-2.8.5-4.3.2-1.5.5-3.2.9-5h2c1.4,0,2.8,0,4.1.2,1.4,0,2.5.2,3.4.4-.5,2.3-1,4.5-1.5,6.6-.4,2.1-.8,4.2-1.2,6.2-.4,2.1-.8,4.3-1.1,6.6-.3,2.3-.7,4.9-1,7.6-1.2.2-2.4.4-3.4.5-1,0-1.9.2-2.8.2s-1.4,0-2,0c-.6,0-1.2,0-1.8,0-.6-1.9-1.2-3.6-1.8-5-.5-1.5-1-2.8-1.4-3.9-.4-1.1-.8-2.1-1.2-3-.4-.9-.8-1.8-1.2-2.6,0,1.4-.2,2.8-.3,4,0,1.2-.2,2.4-.2,3.6,0,1.1-.1,2.2-.2,3.3,0,1.1,0,2.1,0,3.1-.7.2-1.5.3-2.3.4s-1.8,0-2.7,0c-.9,0-1.7,0-2.5,0-.8,0-1.6,0-2.2.1ZM926.4,5.5c.5-.2,1.2-.4,2-.6.8-.2,1.8-.5,2.8-.7s2.1-.4,3.2-.5c1.1-.1,2.2-.2,3.3-.3,0,.4,0,.8,0,1.2v1.2c0,1,0,2.1.2,3.2,0,1.1.2,2.1.4,3.2.2,1,.4,1.9.7,2.8.3.9.6,1.6,1,2.2.9-1.4,1.9-3.2,3-5.5,1.1-2.4,2-5.1,2.6-8.3,1.5,0,3.1.2,5,.5,1.9.3,3.7,1,5.5,1.9-.9,2.5-1.9,4.6-3,6.3-1.1,1.8-2.3,3.3-3.5,4.6-1.2,1.3-2.3,2.4-3.5,3.4-1.1.9-2.1,1.8-2.9,2.6,0,.8,0,1.6-.1,2.6,0,1-.1,1.9-.2,2.9,0,.9-.2,1.8-.3,2.5,0,.7-.1,1.2-.1,1.5-1.1,0-2.2.2-3.2.2-1,0-2,0-3,0s-1.2,0-1.7,0c-.5,0-1,0-1.5-.2.2-1.1.3-2,.5-2.8,0-.8.2-1.6.3-2.3,0-.7.2-1.4.3-2.1.1-.7.2-1.4.4-2.2-.8-.8-1.5-1.7-2.4-2.6-.8-1-1.6-2.2-2.3-3.5-.7-1.4-1.4-3-2-4.8-.6-1.9-1-4.1-1.2-6.6ZM971.2,5.6c.4-.2,1.1-.4,2-.8.9-.3,1.8-.6,2.9-.8,1.1-.3,2.2-.5,3.3-.7,1.1-.2,2.2-.3,3.2-.3.3,1.9.5,4,.8,6.3s.3,4.8.3,7.4v1.6c0,.5,0,1.1,0,1.7.2-.6.5-1.5.9-2.5.4-1,.8-2.2,1.2-3.5.5-1.3.9-2.6,1.4-4.1.5-1.4,1-2.8,1.5-4.2.8,0,1.7,0,2.8.3,1.1.2,2.1.4,3.1.6,0,1.3.1,3,.2,5.2.1,2.1.2,4.9.3,8.1.7-2.1,1.5-4.5,2.2-7.2.7-2.8,1.5-5.9,2.2-9.5,1.5,0,3.2.4,5,.9,1.9.5,3.7,1.2,5.4,2-.9,2.8-2,5.6-3.2,8.4s-2.3,5.3-3.3,7.7c-1.1,2.4-2,4.5-2.9,6.4-.8,1.9-1.4,3.3-1.7,4.3h-.5c-.1,0-.3,0-.5,0-.6,0-1.2,0-2,0-.7,0-1.4,0-2.1-.1-.7,0-1.4-.1-2-.2-.6,0-1.1-.1-1.5-.2-.1-2.1-.3-4-.6-5.9-.2-1.8-.5-3.7-.8-5.6-.2.8-.5,1.7-.8,2.7-.3,1-.7,2-1,3-.4,1-.8,2-1.2,3-.4,1-.8,2-1.2,3-.2,0-.3,0-.5,0h-.5c-1.1,0-2.3,0-3.6-.2-1.3-.2-2.5-.3-3.5-.5-.3-1.7-.6-3.6-.9-5.7-.3-2.1-.7-4.2-1.1-6.5-.4-2.3-.9-4.6-1.5-7-.5-2.4-1.1-4.8-1.8-7.2ZM1024,26.3c.9,0,1.7-.3,2.3-.8.7-.6,1.2-1.4,1.6-2.3.4-.9.8-2,.9-3.1.2-1.1.3-2.2.3-3.3s-.2-2.2-.7-3c-.4-.8-1.2-1.1-2.3-1.1s-1.6.3-2.2.8c-.7.6-1.2,1.3-1.8,2.2-.5.9-.8,1.9-1.1,2.9-.2,1.1-.4,2.1-.4,3.1,0,1.5.2,2.7.8,3.5.5.7,1.4,1.1,2.5,1.2ZM1026.6,3.2c1.6,0,3.2.2,4.8.6,1.6.4,3,1.1,4.2,2,1.3.9,2.3,2.2,3.1,3.8.8,1.6,1.1,3.5,1.1,5.8s-.3,4.5-.8,6.4c-.5,1.8-1.2,3.4-2.2,4.8-.9,1.3-1.9,2.4-3,3.4-1.1.9-2.3,1.6-3.5,2.1-1.2.6-2.4,1-3.6,1.2-1.2.2-2.2.4-3.2.4-1.9,0-3.7-.2-5.3-.8-1.6-.5-3-1.2-4.2-2.2-1.2-1-2.1-2.3-2.8-3.9-.6-1.6-1-3.4-1-5.6,0-3.1.5-5.7,1.4-8,.9-2.3,2.1-4.1,3.6-5.7,1.5-1.5,3.3-2.6,5.2-3.3,1.9-.7,3.9-1.1,6-1.1ZM1056.8,26.3c.9,0,1.7-.3,2.3-.8.7-.6,1.2-1.4,1.6-2.3.4-.9.8-2,.9-3.1.2-1.1.3-2.2.3-3.3s-.2-2.2-.7-3c-.4-.8-1.2-1.1-2.3-1.1s-1.6.3-2.2.8c-.7.6-1.2,1.3-1.8,2.2-.5.9-.8,1.9-1.1,2.9-.2,1.1-.3,2.1-.3,3.1,0,1.5.2,2.7.8,3.5.5.7,1.4,1.1,2.6,1.2ZM1059.4,3.2c1.6,0,3.2.2,4.8.6,1.6.4,3,1.1,4.2,2,1.3.9,2.3,2.2,3,3.8.8,1.6,1.2,3.5,1.2,5.8s-.3,4.5-.8,6.4c-.5,1.8-1.2,3.4-2.1,4.8-.9,1.3-1.9,2.4-3,3.4-1.1.9-2.3,1.6-3.5,2.1-1.2.6-2.4,1-3.6,1.2-1.2.2-2.2.4-3.1.4-1.9,0-3.7-.2-5.4-.8-1.6-.5-3-1.2-4.1-2.2-1.2-1-2.1-2.3-2.8-3.9-.6-1.6-1-3.4-1-5.6,0-3.1.5-5.7,1.4-8,.9-2.3,2.2-4.1,3.7-5.7,1.5-1.5,3.3-2.6,5.2-3.3,1.9-.7,3.9-1.1,6-1.1ZM1079.7,4.3c.6-.1,1.5-.2,2.7-.2s2.6,0,4,.2c1.5.1,2.8.3,4,.6-.4,1.3-.8,2.8-1.2,4.6-.4,1.8-.8,3.6-1.2,5.5-.4,1.9-.7,3.7-1.1,5.5-.3,1.8-.5,3.4-.8,4.7,1.3-.3,3-.6,5-1,2-.4,4.3-.6,7-.8v1.4c0,.5,0,1.1,0,1.8,0,1,0,2,0,3.1,0,1.1-.2,2-.3,2.8-.7,0-1.7.2-3,.2-1.3,0-2.8.2-4.5.2-1.6,0-3.3.1-5,.1-1.8,0-3.4,0-5,0s-1.7,0-2.4,0c-.7,0-1.4,0-2,0,0-1.1.2-2.4.4-3.9.2-1.5.4-3.1.6-4.8.2-1.7.5-3.5.7-5.3.3-1.8.5-3.6.8-5.4.3-1.8.5-3.4.8-5,.3-1.6.5-3,.8-4.3ZM1107.1,22.3c0-.9.3-1.8.7-2.5.5-.8,1-1.5,1.7-2.1.6-.7,1.3-1.3,2-1.8.7-.6,1.4-1.1,2-1.6.6-.5,1.2-1,1.5-1.4.4-.5.7-.9.7-1.4s-.2-.9-.5-1.1c-.4-.3-.8-.4-1.3-.4-.8,0-1.8.3-2.9,1-1.1.7-2.1,1.7-3,3-1.3-.9-2.4-1.8-3.3-2.7-.9-.9-1.7-1.9-2.4-3.1.9-1.2,1.8-2.1,2.8-2.9,1-.8,2.1-1.3,3.2-1.8,1.1-.4,2.3-.7,3.5-.8,1.2-.2,2.4-.2,3.7-.2s2.7.2,3.9.5c1.2.3,2.3.8,3.2,1.5.9.6,1.7,1.4,2.2,2.3.5.9.8,1.9.8,2.9,0,1.6-.3,2.9-.8,3.8-.5.9-1.2,1.7-2,2.3-.8.6-1.7,1.1-2.7,1.4-.9.4-1.8.8-2.7,1.2-.9.4-1.6,1-2.2,1.6s-1,1.6-1.1,2.8h-.8c-1.2,0-2.4,0-3.5-.2s-2-.3-2.7-.5ZM1107.1,25.8c.7-.3,1.4-.5,2.1-.5s1.2.1,1.7.3c.6.2,1.1.5,1.5.9.4.3.8.7,1,1.2.3.5.4,1,.4,1.6,0,.8-.2,1.5-.5,2.1-.3.5-.7,1-1.2,1.3-.4.3-.9.6-1.5.7-.5.1-.9.2-1.3.2-1.6,0-2.8-.3-3.7-1-.8-.7-1.2-1.6-1.2-2.8s.2-1.5.7-2.2c.4-.7,1.1-1.3,2-1.7ZM1143.2,5.5c.5-.2,1.2-.4,2-.6.8-.2,1.8-.5,2.8-.7s2.1-.4,3.2-.5c1.1-.1,2.2-.2,3.3-.3,0,.4,0,.8,0,1.2v1.2c0,1,0,2.1.2,3.2,0,1.1.2,2.1.4,3.2.2,1,.4,1.9.7,2.8.3.9.6,1.6.9,2.2.9-1.4,1.9-3.2,3.1-5.5,1.1-2.4,2-5.1,2.6-8.3,1.5,0,3.1.2,5,.5,1.9.3,3.7,1,5.5,1.9-.9,2.5-1.9,4.6-3.1,6.3-1.1,1.8-2.3,3.3-3.4,4.6-1.2,1.3-2.3,2.4-3.5,3.4-1.1.9-2.1,1.8-2.9,2.6,0,.8,0,1.6-.1,2.6,0,1-.1,1.9-.2,2.9,0,.9-.2,1.8-.3,2.5,0,.7-.1,1.2-.2,1.5-1.1,0-2.2.2-3.2.2-1,0-2,0-2.9,0s-1.2,0-1.7,0c-.5,0-1,0-1.5-.2.2-1.1.3-2,.5-2.8,0-.8.2-1.6.3-2.3,0-.7.2-1.4.3-2.1,0-.7.2-1.4.4-2.2-.8-.8-1.6-1.7-2.4-2.6-.8-1-1.6-2.2-2.3-3.5-.7-1.4-1.4-3-2-4.8-.6-1.9-1-4.1-1.2-6.6ZM1176.3,5.1c.5-.1,1.4-.2,2.8-.4,1.4-.1,3-.2,4.8-.3,1.8,0,3.7-.2,5.7-.2,2,0,3.8,0,5.5,0h1.9c.6,0,1.2,0,1.7,0,0,.7-.2,1.4-.2,2.2,0,.8-.2,1.7-.3,2.5-.1.8-.2,1.6-.4,2.2-.1.7-.2,1.2-.3,1.6-1.2,0-2.3-.1-3.3-.2-1,0-1.9-.2-2.9-.3-.9-.1-1.9-.2-2.9-.3-1-.1-2.1-.2-3.3-.2l-1,4.9c1.3-.3,2.7-.6,4.2-.8,1.6-.3,3-.4,4.4-.4h.6c0,1.1,0,2.3-.2,3.5,0,1.2-.2,2.2-.3,3h-1.3c-1.6,0-3,0-4.2.2-1.2,0-2.6.2-4,.3-.1.6-.2,1.2-.2,1.9,0,.6,0,1.2-.2,1.9,1.8,0,3.7-.2,5.8-.5,2.1-.3,4.5-.6,7.2-.9,0,.7,0,1.4,0,2,0,.6,0,1.3,0,2,0,1.1,0,2.4-.2,3.8-1.6.2-3.4.4-5.7.4-2.2,0-4.4.1-6.7.1s-4,0-5.8,0c-1.8,0-3.4,0-4.6-.2,0-1,.1-2.2.3-3.8.2-1.6.3-3.3.6-5.1.2-1.8.5-3.7.7-5.6.3-2,.5-3.8.8-5.5.3-1.7.5-3.3.7-4.6.2-1.4.4-2.4.5-3.1ZM1221.5,15.2c-.2,0-.6-.2-1.1-.6-.5-.3-1-.7-1.7-1-.6-.4-1.3-.7-2.1-1-.7-.3-1.4-.5-2.1-.5s-1.6.2-2.2.7c-.5.4-.8.9-.8,1.4s.3,1.1.8,1.6c.6.5,1.5.9,2.8,1.2,1.9.4,3.4.9,4.6,1.6,1.1.6,2,1.3,2.6,2,.6.7,1,1.4,1.2,2.1.2.7.3,1.3.3,1.8,0,1.7-.3,3.1-1,4.4-.7,1.3-1.6,2.3-2.7,3.2-1.1.9-2.3,1.5-3.8,2-1.4.5-2.8.7-4.1.7s-2.9-.2-4.2-.5c-1.3-.3-2.5-.7-3.6-1.3-1-.5-1.9-1.2-2.7-2-.7-.8-1.3-1.6-1.6-2.5.4-.6.9-1.1,1.4-1.7.6-.6,1.2-1.2,1.8-1.7.6-.6,1.2-1.1,1.8-1.6.6-.5,1.1-1,1.6-1.4,1.2,1.4,2.3,2.4,3.3,2.9,1.1.5,2.1.8,3,.8s.8-.1,1.2-.3c.4-.2.6-.7.6-1.5s0-.7-.2-.9c-.2-.3-.4-.5-.8-.7-.4-.2-.9-.4-1.6-.6-.6-.2-1.4-.4-2.3-.8-1.2-.4-2.2-.8-3.2-1.2-1-.5-1.8-1-2.5-1.6-.7-.6-1.2-1.4-1.7-2.2-.4-.9-.6-1.9-.6-3.1,0-1.9.3-3.6,1-5,.7-1.4,1.6-2.5,2.7-3.4,1.1-.9,2.4-1.5,3.9-1.9,1.5-.4,3.1-.7,4.8-.7s4.7.4,7,1.2c2.3.8,4.4,1.9,6.1,3.3-.3.8-.6,1.6-1.1,2.4-.5.8-1,1.6-1.5,2.4-.5.8-1.1,1.5-1.7,2.2-.6.7-1.1,1.2-1.5,1.7ZM1228,27.1c0-.8.2-1.5.4-2.1.3-.6.8-1.1,1.2-1.5.5-.4,1.1-.7,1.8-.9.7-.2,1.4-.3,2.1-.3,1.6,0,2.9.5,3.9,1.4,1.1.9,1.6,2.3,1.6,4.2s-.2,2.5-.8,3.6c-.5,1.1-1.2,2.1-2,2.9-.8.9-1.6,1.6-2.6,2.1-.9.6-1.8,1-2.8,1.2-.3-.1-.6-.4-.8-.7-.2-.3-.4-.6-.6-1-.2-.4-.3-.8-.4-1.2,0-.4-.2-.8-.2-1.1s.3-.5.8-.7c.6-.2,1.2-.5,1.8-.8.7-.3,1.3-.7,1.8-1.1.6-.5.8-1,.8-1.8v-.2c-.5.5-1.1.9-1.6,1.1-.5.2-1,.3-1.5.3-.9,0-1.7-.3-2.3-1-.6-.7-.9-1.5-.9-2.5ZM1279.2,15.2c-.2,0-.6-.2-1.1-.6-.5-.3-1-.7-1.7-1-.6-.4-1.3-.7-2.1-1-.7-.3-1.5-.5-2.2-.5s-1.6.2-2.2.7c-.5.4-.8.9-.8,1.4s.3,1.1.8,1.6c.6.5,1.5.9,2.8,1.2,1.9.4,3.4.9,4.6,1.6,1.1.6,2,1.3,2.6,2,.6.7,1.1,1.4,1.2,2.1.2.7.3,1.3.3,1.8,0,1.7-.4,3.1-1.1,4.4-.7,1.3-1.6,2.3-2.7,3.2-1.1.9-2.4,1.5-3.8,2-1.4.5-2.8.7-4.2.7s-2.8-.2-4.2-.5c-1.3-.3-2.5-.7-3.6-1.3-1-.5-1.9-1.2-2.7-2-.7-.8-1.3-1.6-1.6-2.5.4-.6.9-1.1,1.4-1.7.6-.6,1.2-1.2,1.8-1.7.6-.6,1.2-1.1,1.8-1.6.6-.5,1.1-1,1.6-1.4,1.2,1.4,2.3,2.4,3.4,2.9,1.1.5,2.1.8,2.9.8s.8-.1,1.2-.3c.4-.2.6-.7.6-1.5s0-.7-.2-.9c-.2-.3-.4-.5-.8-.7-.4-.2-.9-.4-1.6-.6-.6-.2-1.4-.4-2.3-.8-1.2-.4-2.2-.8-3.2-1.2-1-.5-1.8-1-2.5-1.6-.7-.6-1.2-1.4-1.7-2.2-.4-.9-.6-1.9-.6-3.1,0-1.9.3-3.6,1-5,.7-1.4,1.6-2.5,2.7-3.4,1.1-.9,2.4-1.5,3.9-1.9,1.5-.4,3.1-.7,4.8-.7s4.7.4,7,1.2c2.3.8,4.4,1.9,6.1,3.3-.3.8-.6,1.6-1.1,2.4-.5.8-1,1.6-1.5,2.4-.5.8-1.1,1.5-1.7,2.2-.6.7-1.1,1.2-1.5,1.7ZM1287.3,33.2c0-.2,0-.4,0-.7v-.8c0-1,0-2.2.2-3.8s.2-3.1.3-4.9c.2-1.8.3-3.6.6-5.4.2-1.8.5-3.6.7-5.3.2-1.7.5-3.3.7-4.7.3-1.5.5-2.7.8-3.6,1.1-.1,2.4-.2,3.8-.2s2.4,0,3.5.2c1.1,0,2.1.2,2.9.4-.5,1.7-.9,3.8-1.4,6.2-.4,2.4-.8,4.9-1.2,7.5-.4,2.6-.7,5.1-1,7.6-.3,2.5-.5,4.7-.7,6.6-1.4.2-2.9.3-4.4.5-1.5.1-3,.2-4.4.2ZM1314.1,23.7c-.3,0-.5,0-.7,0s-.3,0-.5,0c-.1,0-.2,0-.3,0,0,.2,0,.5,0,1,0,.5,0,1,0,1.6,0,.6,0,1.3-.1,2,0,.7,0,1.4,0,2,0,.6,0,1,0,1.4v.6c-.8.2-1.7.3-2.8.5-1.1,0-2.1.1-3.2.1s-2.3,0-3-.2c0-.8.1-2,.2-3.5.1-1.6.3-3.3.4-5.2.2-1.9.4-3.9.7-6,.2-2.1.5-4,.7-5.8.2-1.8.5-3.4.7-4.8.2-1.4.4-2.4.6-2.9,3.9-.8,7.3-1.2,10.2-1.2s4.1.2,5.6.7c1.6.4,2.9,1,3.9,1.8,1,.8,1.8,1.7,2.2,2.7.5,1,.8,2.1.8,3.3s-.2,2.4-.5,3.5c-.3,1.1-.8,2.1-1.5,3-.7.9-1.7,1.7-3,2.4-1.2.7-2.7,1.3-4.5,1.8,1.1,1,2.4,1.7,4,2.2,1.6.5,3.4.8,5.5.9-.2,1.8-.5,3.6-1.1,5.4-.6,1.7-1.3,3.2-2.1,4.3-1.7,0-3.2-.3-4.5-.7-1.3-.4-2.5-1.1-3.5-2.1-1-.9-1.8-2.1-2.4-3.5-.6-1.5-1.1-3.2-1.4-5.3ZM1313.2,18.4c0,0,.2,0,.3,0h.3c.7,0,1.4,0,2.1-.2.7-.2,1.3-.4,1.8-.8.6-.4,1-.8,1.3-1.4.3-.6.5-1.2.5-2.1,0-1.2-.3-1.9-1-2.3-.7-.4-1.4-.6-2.2-.6s-.7,0-.9,0c-.3,0-.6,0-.9,0-.2.4-.3,1-.5,1.6-.1.6-.3,1.3-.4,1.9-.1.7-.2,1.3-.3,2,0,.6-.1,1.2-.2,1.6ZM1333.1,27.1c0-.8.1-1.5.4-2.1.3-.6.8-1.1,1.2-1.5.5-.4,1.1-.7,1.8-.9.7-.2,1.3-.3,2.1-.3,1.6,0,2.9.5,3.9,1.4,1.1.9,1.6,2.3,1.6,4.2s-.2,2.5-.8,3.6c-.5,1.1-1.2,2.1-1.9,2.9-.8.9-1.6,1.6-2.6,2.1-.9.6-1.9,1-2.8,1.2-.3-.1-.6-.4-.8-.7-.2-.3-.4-.6-.7-1-.2-.4-.3-.8-.4-1.2,0-.4-.1-.8-.1-1.1s.3-.5.8-.7c.6-.2,1.2-.5,1.8-.8.7-.3,1.3-.7,1.8-1.1.6-.5.9-1,.9-1.8v-.2c-.5.5-1.1.9-1.6,1.1-.5.2-1,.3-1.4.3-.9,0-1.7-.3-2.3-1-.6-.7-.9-1.5-.9-2.5Z"/>
  <path d="M1418.4,5.5c.5-.2,1.2-.4,2-.6.8-.2,1.8-.5,2.8-.7s2.1-.4,3.2-.5c1.1-.1,2.2-.2,3.3-.3,0,.4,0,.8,0,1.2v1.2c0,1,0,2.1.2,3.2,0,1.1.2,2.1.4,3.2.2,1,.4,1.9.7,2.8.3.9.6,1.6.9,2.2.9-1.4,1.9-3.2,3.1-5.5,1.1-2.4,2-5.1,2.6-8.3,1.5,0,3.1.2,5,.5,1.9.3,3.7,1,5.5,1.9-.9,2.5-1.9,4.6-3.1,6.3s-2.3,3.3-3.4,4.6c-1.2,1.3-2.3,2.4-3.5,3.4-1.1.9-2.1,1.8-2.9,2.6,0,.8,0,1.6-.1,2.6,0,1-.1,1.9-.2,2.9,0,.9-.2,1.8-.3,2.5,0,.7-.1,1.2-.2,1.5-1.1,0-2.2.2-3.2.2s-2,0-2.9,0-1.2,0-1.7,0c-.5,0-1,0-1.5-.2.2-1.1.3-2,.5-2.8,0-.8.2-1.6.3-2.3,0-.7.2-1.4.3-2.1,0-.7.2-1.4.4-2.2-.8-.8-1.6-1.7-2.4-2.6-.8-1-1.6-2.2-2.3-3.5-.7-1.4-1.4-3-2-4.8-.6-1.9-1-4.1-1.2-6.6ZM1451.6,5.1c.5-.1,1.4-.2,2.8-.4,1.4-.1,3-.2,4.8-.3,1.8,0,3.7-.2,5.7-.2,2,0,3.8,0,5.5,0h1.9c.6,0,1.2,0,1.7,0,0,.7-.2,1.4-.2,2.2,0,.8-.2,1.7-.3,2.5-.1.8-.2,1.6-.4,2.2-.1.7-.2,1.2-.3,1.6-1.2,0-2.3-.1-3.3-.2-1,0-1.9-.2-2.9-.3-.9-.1-1.9-.2-2.9-.3-1-.1-2.1-.2-3.3-.2l-1,4.9c1.3-.3,2.7-.6,4.2-.8,1.6-.3,3-.4,4.4-.4h.6c0,1.1,0,2.3-.2,3.5,0,1.2-.2,2.2-.3,3h-1.3c-1.6,0-3,0-4.2.2-1.2,0-2.6.2-4,.3-.1.6-.2,1.2-.2,1.9,0,.6,0,1.2-.2,1.9,1.8,0,3.7-.2,5.8-.5,2.1-.3,4.5-.6,7.2-.9,0,.7,0,1.4,0,2,0,.6,0,1.3,0,2,0,1.1,0,2.4-.2,3.8-1.6.2-3.4.4-5.7.4-2.2,0-4.4.1-6.7.1s-4,0-5.8,0c-1.8,0-3.4,0-4.6-.2,0-1,.1-2.2.3-3.8.2-1.6.3-3.3.6-5.1.2-1.8.5-3.7.7-5.6.3-2,.5-3.8.8-5.5.3-1.7.5-3.3.7-4.6.2-1.4.4-2.4.5-3.1ZM1496.8,15.2c-.2,0-.6-.2-1.1-.6-.5-.3-1-.7-1.7-1-.6-.4-1.3-.7-2.1-1-.7-.3-1.4-.5-2.1-.5s-1.6.2-2.2.7c-.5.4-.8.9-.8,1.4s.3,1.1.8,1.6c.6.5,1.5.9,2.8,1.2,1.9.4,3.4.9,4.6,1.6,1.1.6,2,1.3,2.6,2,.6.7,1,1.4,1.2,2.1.2.7.3,1.3.3,1.8,0,1.7-.3,3.1-1,4.4-.7,1.3-1.6,2.3-2.7,3.2-1.1.9-2.3,1.5-3.8,2-1.4.5-2.8.7-4.1.7s-2.9-.2-4.2-.5c-1.3-.3-2.5-.7-3.6-1.3-1-.5-1.9-1.2-2.7-2-.7-.8-1.3-1.6-1.6-2.5.4-.6.9-1.1,1.4-1.7.6-.6,1.2-1.2,1.8-1.7.6-.6,1.2-1.1,1.8-1.6.6-.5,1.1-1,1.6-1.4,1.2,1.4,2.3,2.4,3.3,2.9,1.1.5,2.1.8,3,.8s.8-.1,1.2-.3c.4-.2.6-.7.6-1.5s0-.7-.2-.9c-.2-.3-.4-.5-.8-.7-.4-.2-.9-.4-1.6-.6-.6-.2-1.4-.4-2.3-.8-1.2-.4-2.2-.8-3.2-1.2-1-.5-1.8-1-2.5-1.6-.7-.6-1.2-1.4-1.7-2.2-.4-.9-.6-1.9-.6-3.1,0-1.9.3-3.6,1-5,.7-1.4,1.6-2.5,2.7-3.4,1.1-.9,2.4-1.5,3.9-1.9,1.5-.4,3.1-.7,4.8-.7s4.7.4,7,1.2c2.3.8,4.4,1.9,6.1,3.3-.3.8-.6,1.6-1.1,2.4-.5.8-1,1.6-1.5,2.4-.5.8-1.1,1.5-1.7,2.2-.6.7-1.1,1.2-1.5,1.7ZM1503.2,27.1c0-.8.2-1.5.4-2.1.3-.6.8-1.1,1.2-1.5.5-.4,1.1-.7,1.8-.9.7-.2,1.4-.3,2.1-.3,1.6,0,2.9.5,3.9,1.4,1.1.9,1.6,2.3,1.6,4.2s-.2,2.5-.8,3.6c-.5,1.1-1.2,2.1-2,2.9-.8.9-1.6,1.6-2.6,2.1-.9.6-1.8,1-2.8,1.2-.3-.1-.6-.4-.8-.7-.2-.3-.4-.6-.6-1-.2-.4-.3-.8-.4-1.2,0-.4-.2-.8-.2-1.1s.3-.5.8-.7c.6-.2,1.2-.5,1.8-.8.7-.3,1.3-.7,1.8-1.1.6-.5.8-1,.8-1.8v-.2c-.5.5-1.1.9-1.6,1.1-.5.2-1,.3-1.5.3-.9,0-1.7-.3-2.3-1-.6-.7-.9-1.5-.9-2.5ZM1554.4,15.2c-.2,0-.6-.2-1.1-.6-.5-.3-1-.7-1.7-1-.6-.4-1.3-.7-2.1-1-.7-.3-1.5-.5-2.2-.5s-1.6.2-2.2.7c-.5.4-.8.9-.8,1.4s.3,1.1.8,1.6c.6.5,1.5.9,2.8,1.2,1.9.4,3.4.9,4.6,1.6,1.1.6,2,1.3,2.6,2,.6.7,1.1,1.4,1.2,2.1.2.7.3,1.3.3,1.8,0,1.7-.4,3.1-1.1,4.4-.7,1.3-1.6,2.3-2.7,3.2-1.1.9-2.4,1.5-3.8,2-1.4.5-2.8.7-4.2.7s-2.8-.2-4.2-.5c-1.3-.3-2.5-.7-3.6-1.3-1-.5-1.9-1.2-2.7-2-.7-.8-1.3-1.6-1.6-2.5.4-.6.9-1.1,1.4-1.7.6-.6,1.2-1.2,1.8-1.7.6-.6,1.2-1.1,1.8-1.6.6-.5,1.1-1,1.6-1.4,1.2,1.4,2.3,2.4,3.4,2.9,1.1.5,2.1.8,2.9.8s.8-.1,1.2-.3c.4-.2.6-.7.6-1.5s0-.7-.2-.9c-.2-.3-.4-.5-.8-.7-.4-.2-.9-.4-1.6-.6-.6-.2-1.4-.4-2.3-.8-1.2-.4-2.2-.8-3.2-1.2-1-.5-1.8-1-2.5-1.6-.7-.6-1.2-1.4-1.7-2.2-.4-.9-.6-1.9-.6-3.1,0-1.9.3-3.6,1-5,.7-1.4,1.6-2.5,2.7-3.4,1.1-.9,2.4-1.5,3.9-1.9,1.5-.4,3.1-.7,4.8-.7s4.7.4,7,1.2c2.3.8,4.4,1.9,6.1,3.3-.3.8-.6,1.6-1.1,2.4-.5.8-1,1.6-1.5,2.4-.5.8-1.1,1.5-1.7,2.2-.6.7-1.1,1.2-1.5,1.7ZM1562.6,33.2c0-.2,0-.4,0-.7v-.8c0-1,0-2.2.2-3.8,0-1.5.2-3.1.3-4.9.2-1.8.3-3.6.5-5.4.2-1.8.5-3.6.7-5.3.2-1.7.5-3.3.7-4.7.3-1.5.5-2.7.8-3.6,1.1-.1,2.4-.2,3.8-.2s2.3,0,3.5.2c1.1,0,2.1.2,2.9.4-.5,1.7-.9,3.8-1.4,6.2-.4,2.4-.9,4.9-1.2,7.5-.4,2.6-.7,5.1-1,7.6-.3,2.5-.5,4.7-.7,6.6-1.4.2-2.9.3-4.4.5-1.5.1-3,.2-4.5.2ZM1589.4,23.7c-.3,0-.5,0-.7,0s-.3,0-.5,0c-.1,0-.2,0-.3,0,0,.2,0,.5,0,1,0,.5,0,1,0,1.6,0,.6,0,1.3-.1,2,0,.7,0,1.4,0,2,0,.6,0,1,0,1.4v.6c-.8.2-1.7.3-2.8.5-1.1,0-2.1.1-3.2.1s-2.3,0-3-.2c0-.8.1-2,.2-3.5.1-1.6.3-3.3.4-5.2.2-1.9.4-3.9.7-6s.5-4,.7-5.8c.2-1.8.5-3.4.7-4.8.2-1.4.4-2.4.6-2.9,3.9-.8,7.3-1.2,10.2-1.2s4.1.2,5.6.7c1.6.4,2.9,1,3.9,1.8,1,.8,1.8,1.7,2.2,2.7.5,1,.8,2.1.8,3.3s-.2,2.4-.5,3.5c-.3,1.1-.8,2.1-1.5,3-.7.9-1.7,1.7-3,2.4-1.2.7-2.7,1.3-4.5,1.8,1.1,1,2.4,1.7,4,2.2,1.6.5,3.4.8,5.5.9-.2,1.8-.5,3.6-1.1,5.4-.6,1.7-1.3,3.2-2.1,4.3-1.7,0-3.2-.3-4.5-.7-1.3-.4-2.5-1.1-3.5-2.1-1-.9-1.8-2.1-2.4-3.5-.6-1.5-1.1-3.2-1.4-5.3ZM1588.5,18.4c0,0,.2,0,.3,0h.3c.7,0,1.4,0,2.1-.2.7-.2,1.3-.4,1.8-.8.6-.4,1-.8,1.3-1.4.3-.6.5-1.2.5-2.1,0-1.2-.3-1.9-1-2.3-.7-.4-1.4-.6-2.2-.6s-.7,0-.9,0c-.3,0-.6,0-.9,0-.2.4-.3,1-.5,1.6-.1.6-.3,1.3-.4,1.9-.1.7-.2,1.3-.3,2,0,.6-.1,1.2-.2,1.6ZM1608.3,27.1c0-.8.2-1.5.5-2.1.3-.6.8-1.1,1.2-1.5.5-.4,1.1-.7,1.8-.9.7-.2,1.3-.3,2-.3,1.6,0,2.9.5,4,1.4,1.1.9,1.6,2.3,1.6,4.2s-.2,2.5-.8,3.6c-.5,1.1-1.2,2.1-1.9,2.9-.8.9-1.6,1.6-2.6,2.1-.9.6-1.8,1-2.8,1.2-.3-.1-.6-.4-.8-.7-.2-.3-.5-.6-.7-1-.2-.4-.3-.8-.4-1.2,0-.4-.2-.8-.2-1.1s.3-.5.8-.7c.6-.2,1.2-.5,1.8-.8.7-.3,1.3-.7,1.8-1.1.6-.5.8-1,.8-1.8v-.2c-.5.5-1.1.9-1.6,1.1-.5.2-1,.3-1.4.3-.9,0-1.7-.3-2.3-1-.6-.7-.9-1.5-.9-2.5ZM1640.6,4.4c1.3-.2,2.9-.3,4.9-.4,2-.1,4.3-.2,7-.2s4.2,0,6.6.2c2.4,0,4.9.3,7.5.6,0,.7,0,1.4-.1,2.2,0,.8-.1,1.7-.2,2.6,0,.8-.2,1.7-.3,2.5-.1.8-.3,1.5-.4,2.1-1.5-.2-2.9-.4-4.2-.8-1.2-.3-2.4-.5-3.4-.5h-.3c-.6,3.8-1.1,7.5-1.3,11-.3,3.4-.5,6.4-.7,8.8-.8.1-1.7.2-2.8.2-1.1,0-2.1,0-3.2,0s-1.7,0-2.5,0c-.8,0-1.4,0-1.9,0,.2-1.5.5-3.1.7-4.6.3-1.5.5-3.1.8-4.7.3-1.6.6-3.3.9-5.1.3-1.8.7-3.7,1.1-5.8-1.5.2-3.1.4-4.6.8-1.5.4-2.9.7-4.2.8,0-1,0-2.4,0-4,0-1.7.3-3.6.7-5.8ZM1683.1,33.1c0-.6.2-1.4.3-2.5.1-1.1.3-2.4.5-3.9-.6,0-1.2,0-1.8,0h-3c-.4,0-.8,0-1.2,0-.2,1.4-.4,2.6-.5,3.6,0,1-.2,1.7-.2,2.1-.4,0-1,.1-1.7.2-.7,0-1.4.1-2.2.2-.8,0-1.5.1-2.2.2-.7,0-1.4,0-1.9,0h-.5c-.2,0-.3,0-.5,0,0-.8.1-2,.2-3.6.2-1.6.4-3.4.6-5.4.2-2,.4-4.1.7-6.2.2-2.2.4-4.2.7-6.1.2-1.9.4-3.4.6-4.8.2-1.3.3-2.2.3-2.5.7,0,1.4-.1,2.2-.1.9,0,1.8-.1,2.7-.1s1.9,0,2.9.1c1,0,1.8.1,2.6.2-.2.8-.4,1.8-.6,2.9-.2,1.2-.4,2.4-.7,3.8-.2,1.4-.5,2.8-.8,4.3-.2,1.5-.5,2.9-.7,4.4.8-.1,1.7-.3,2.7-.5,1-.2,2.1-.3,3.2-.4.2-1.6.4-3.2.6-4.8.2-1.6.4-3.1.5-4.4.2-1.4.3-2.5.4-3.5s.2-1.7.2-2.1c.6,0,1.4-.1,2.2-.2.9,0,1.8,0,2.7,0s2.1,0,3.1,0c1,0,1.7.1,2.1.2-.1,1.3-.3,2.8-.6,4.5-.2,1.7-.5,3.6-.8,5.5-.3,1.9-.6,3.9-.9,5.8-.3,2-.6,3.8-.9,5.5-.3,1.7-.5,3.1-.8,4.4-.2,1.2-.3,2-.5,2.5-.8.2-1.8.3-2.8.4-1,0-1.9.1-2.8.1s-1.6,0-2.2,0h-1.3ZM1710.3,23.7c-.3,0-.5,0-.7,0s-.3,0-.4,0c-.1,0-.2,0-.3,0,0,.2,0,.5,0,1,0,.5,0,1-.1,1.6,0,.6,0,1.3,0,2,0,.7,0,1.4,0,2,0,.6,0,1,0,1.4v.6c-.8.2-1.7.3-2.8.5-1.1,0-2.1.1-3.2.1s-2.3,0-3.1-.2c0-.8.1-2,.2-3.5.1-1.6.3-3.3.5-5.2.2-1.9.4-3.9.7-6,.2-2.1.5-4,.7-5.8.2-1.8.4-3.4.7-4.8.2-1.4.4-2.4.5-2.9,3.9-.8,7.4-1.2,10.2-1.2s4.1.2,5.7.7c1.6.4,2.9,1,3.9,1.8,1,.8,1.8,1.7,2.2,2.7.5,1,.8,2.1.8,3.3s-.2,2.4-.5,3.5c-.3,1.1-.8,2.1-1.6,3-.7.9-1.7,1.7-2.9,2.4-1.2.7-2.7,1.3-4.5,1.8,1.1,1,2.4,1.7,3.9,2.2,1.6.5,3.4.8,5.5.9-.2,1.8-.5,3.6-1.1,5.4-.6,1.7-1.3,3.2-2.2,4.3-1.7,0-3.2-.3-4.5-.7-1.3-.4-2.4-1.1-3.4-2.1-1-.9-1.8-2.1-2.4-3.5-.6-1.5-1.1-3.2-1.4-5.3ZM1709.4,18.4c0,0,.2,0,.3,0h.3c.7,0,1.4,0,2.1-.2.7-.2,1.3-.4,1.8-.8.6-.4,1-.8,1.3-1.4.3-.6.5-1.2.5-2.1,0-1.2-.3-1.9-1-2.3-.7-.4-1.4-.6-2.2-.6s-.7,0-1,0c-.3,0-.6,0-.8,0-.2.4-.3,1-.5,1.6-.1.6-.3,1.3-.4,1.9,0,.7-.2,1.3-.3,2,0,.6-.1,1.2-.2,1.6ZM1731.9,5.1c.5-.1,1.5-.2,2.8-.4,1.4-.1,3-.2,4.8-.3s3.7-.2,5.7-.2c2,0,3.8,0,5.4,0h1.9c.6,0,1.2,0,1.7,0,0,.7-.2,1.4-.2,2.2,0,.8-.2,1.7-.3,2.5,0,.8-.2,1.6-.3,2.2-.1.7-.2,1.2-.3,1.6-1.2,0-2.3-.1-3.3-.2-1,0-1.9-.2-2.9-.3-.9-.1-1.9-.2-2.9-.3-1-.1-2.1-.2-3.3-.2l-1,4.9c1.3-.3,2.7-.6,4.2-.8,1.6-.3,3.1-.4,4.5-.4h.6c0,1.1,0,2.3-.2,3.5-.1,1.2-.2,2.2-.4,3h-1.3c-1.6,0-3,0-4.2.2-1.2,0-2.6.2-4.1.3,0,.6-.2,1.2-.2,1.9,0,.6,0,1.2-.2,1.9,1.8,0,3.7-.2,5.8-.5,2.1-.3,4.5-.6,7.2-.9,0,.7,0,1.4,0,2,0,.6,0,1.3,0,2,0,1.1,0,2.4-.2,3.8-1.6.2-3.5.4-5.7.4s-4.4.1-6.7.1-4,0-5.9,0c-1.8,0-3.4,0-4.6-.2,0-1,.1-2.2.3-3.8.2-1.6.3-3.3.5-5.1.2-1.8.5-3.7.7-5.6.3-2,.5-3.8.8-5.5.3-1.7.5-3.3.7-4.6.2-1.4.4-2.4.5-3.1ZM1759.8,5.1c.5-.1,1.4-.2,2.8-.4,1.4-.1,3-.2,4.8-.3,1.8,0,3.7-.2,5.6-.2,2,0,3.8,0,5.5,0h1.9c.6,0,1.1,0,1.6,0,0,.7-.1,1.4-.2,2.2,0,.8-.2,1.7-.3,2.5,0,.8-.2,1.6-.3,2.2-.1.7-.2,1.2-.4,1.6-1.2,0-2.3-.1-3.3-.2-1,0-1.9-.2-2.9-.3-.9-.1-1.9-.2-2.9-.3-1-.1-2.1-.2-3.3-.2l-1,4.9c1.3-.3,2.7-.6,4.2-.8,1.6-.3,3.1-.4,4.4-.4h.6c0,1.1,0,2.3-.2,3.5,0,1.2-.2,2.2-.3,3h-1.3c-1.6,0-3,0-4.2.2-1.2,0-2.6.2-4,.3,0,.6-.2,1.2-.2,1.9,0,.6,0,1.2-.2,1.9,1.8,0,3.7-.2,5.8-.5,2.1-.3,4.5-.6,7.2-.9,0,.7,0,1.4.1,2,0,.6,0,1.3,0,2,0,1.1,0,2.4-.2,3.8-1.6.2-3.4.4-5.6.4-2.2,0-4.4.1-6.7.1s-4,0-5.8,0c-1.8,0-3.4,0-4.6-.2,0-1,.1-2.2.3-3.8.2-1.6.4-3.3.6-5.1.2-1.8.5-3.7.7-5.6.3-2,.5-3.8.8-5.5.3-1.7.5-3.3.7-4.6.2-1.4.4-2.4.5-3.1ZM1799,33c0-.6,0-1.5.2-2.9,0-1.3.2-2.9.3-4.6.2-1.7.3-3.6.5-5.5.2-2,.4-4,.6-5.9.2-1.9.5-3.7.7-5.4.3-1.7.5-3.1.8-4.2,1.8-.4,3.9-.7,6.2-1,2.3-.3,4.6-.5,6.8-.5s2.8,0,4,.3c1.3.2,2.3.5,3.2,1,.9.5,1.7,1.1,2.2,1.9.5.8.8,1.8.8,3.1s-.2,2.4-.6,3.5c-.4,1-.9,1.9-1.6,2.8-.6.8-1.4,1.4-2.2,1.9-.9.5-1.8.8-2.8.9.8,0,1.6.2,2.3.6.7.3,1.4.7,1.9,1.2.6.5,1,1.1,1.3,1.8.3.6.5,1.3.5,2.1s0,1-.2,1.7c0,.7-.3,1.4-.7,2.1-.3.7-.8,1.5-1.5,2.2-.7.7-1.6,1.4-2.7,2-1.1.6-2.4,1.1-4,1.5-1.6.4-3.5.6-5.7.6s-3-.1-4.7-.3c-1.7-.2-3.6-.4-5.6-.8ZM1810.8,11.8c-.3.9-.5,1.8-.6,2.6-.2.9-.3,1.7-.5,2.6.3,0,.5.1.8.1h.8c1.5,0,2.6-.4,3.4-1.1.8-.7,1.2-1.7,1.2-3s-.2-1-.7-1.2c-.4-.2-1-.4-1.7-.4s-.9,0-1.3.1c-.5,0-.9.1-1.3.2ZM1808.9,26c.4.1.8.2,1.3.3.5.1,1,.2,1.5.2s.7,0,1.1-.2c.4,0,.8-.3,1-.5.3-.2.6-.5.8-.9.2-.4.3-.9.3-1.6s-.2-1.1-.7-1.3c-.4-.3-1-.4-1.7-.4s-1.1,0-1.7.2c-.6.1-1.2.2-1.8.5,0,.7-.1,1.4-.2,2,0,.6,0,1.2,0,1.8ZM1841.1,3.3c.4,0,1-.2,1.8-.2.8,0,1.7,0,2.8,0s2.3,0,3.7.1c.5,3.2,1,6.1,1.5,8.8.5,2.6,1.1,5.1,1.6,7.3.6,2.2,1.2,4.3,1.8,6.2.6,1.9,1.3,3.7,2,5.4-1.2.7-2.8,1.3-4.6,1.8-1.8.6-3.6,1.1-5.4,1.6-.4-.6-.8-1.5-1.2-2.6-.4-1.1-.8-2.3-1.1-3.6-.9.2-2,.3-3.2.5-1.2.1-2.6.2-4.1.3-.3,1-.5,1.8-.8,2.6-.2.7-.4,1.5-.6,2.3-1.7,0-3.3-.3-4.8-.7-1.5-.4-3-.9-4.5-1.4.7-2,1.7-4.3,2.8-6.7,1.1-2.4,2.4-4.9,3.7-7.4,1.4-2.5,2.8-5,4.2-7.5,1.5-2.4,3-4.7,4.4-6.7ZM1842.5,13.3c-.5.9-1,2.1-1.6,3.4-.6,1.4-1.2,3-1.8,4.8,0,0,.2,0,.4,0h2.2c.6,0,1.1,0,1.5,0-.2-1.4-.4-2.7-.5-4,0-1.3-.2-2.7-.2-4.2ZM1885.6,18.4c-.2,1.8-.4,3.5-.7,5.3-.2,1.8-.5,3.5-.8,5.1s-.6,3.2-.8,4.6c-.3,1.4-.6,2.7-.8,3.8-.7,0-1.4,0-2.2-.2-.7,0-1.4-.2-2.1-.3-.7,0-1.3-.2-1.9-.3-.6,0-1-.2-1.3-.3.2-.8.5-1.7.8-2.9.4-1.2.8-2.6,1.2-4.3-1,1.3-2.4,2.4-4,3.4-1.6,1-3.4,1.5-5.4,1.5s-1.9-.2-3-.5c-1.1-.3-2.1-.9-3-1.8-.9-.9-1.7-2-2.2-3.5-.6-1.5-.9-3.4-.9-5.7s.3-4.5,1.1-6.8c.7-2.2,1.8-4.2,3.2-6,1.4-1.8,3.2-3.2,5.3-4.3,2.1-1.1,4.6-1.7,7.4-1.7s1.9,0,2.8.1c.9,0,1.8.2,2.7.4.9.2,1.8.5,2.8.8.9.3,1.9.7,3,1.2-.2.8-.4,1.7-.7,2.5-.3.9-.6,1.8-1,2.7-.4.9-.7,1.7-1.1,2.5-.4.8-.7,1.5-1,2-1.2-.4-2.5-.9-3.9-1.3-1.4-.5-2.9-.7-4.4-.7s-1.1.1-1.8.4c-.6.2-1.2.6-1.7,1.2s-1,1.4-1.3,2.5c-.4,1-.6,2.2-.6,3.8s.2,2.5.8,3.3c.5.8,1.3,1.2,2.4,1.2s.7,0,1.1-.1c.5-.1.9-.2,1.3-.5.5-.2.9-.5,1.2-.8.4-.3.7-.6.8-1.1-.6,0-1.1,0-1.7,0h-1.7v-.4c0-.7,0-1.4,0-2.3,0-.9.1-1.7.2-2.5.3,0,.7,0,1.3-.1.6,0,1.2-.1,1.9-.1.7,0,1.5-.1,2.2-.1.8,0,1.6,0,2.3,0s1.8,0,2.5.1c.7,0,1.3,0,1.6.1ZM1910,15.2c-.2,0-.6-.2-1.1-.6-.5-.3-1-.7-1.7-1-.6-.4-1.3-.7-2.1-1-.7-.3-1.5-.5-2.2-.5s-1.6.2-2.2.7c-.5.4-.8.9-.8,1.4s.3,1.1.8,1.6c.6.5,1.5.9,2.8,1.2,1.9.4,3.4.9,4.6,1.6,1.1.6,2,1.3,2.6,2,.6.7,1.1,1.4,1.2,2.1.2.7.3,1.3.3,1.8,0,1.7-.3,3.1-1.1,4.4-.7,1.3-1.6,2.3-2.7,3.2-1.1.9-2.3,1.5-3.8,2-1.4.5-2.8.7-4.2.7s-2.8-.2-4.2-.5c-1.3-.3-2.5-.7-3.5-1.3-1-.5-1.9-1.2-2.7-2-.7-.8-1.3-1.6-1.6-2.5.4-.6.9-1.1,1.4-1.7.6-.6,1.2-1.2,1.8-1.7.6-.6,1.2-1.1,1.8-1.6.6-.5,1.1-1,1.6-1.4,1.2,1.4,2.3,2.4,3.3,2.9,1.1.5,2.1.8,2.9.8s.8-.1,1.2-.3c.4-.2.6-.7.6-1.5s0-.7-.2-.9c-.2-.3-.4-.5-.8-.7-.4-.2-.9-.4-1.5-.6-.6-.2-1.4-.4-2.4-.8-1.2-.4-2.2-.8-3.2-1.2-1-.5-1.8-1-2.5-1.6-.7-.6-1.2-1.4-1.6-2.2-.4-.9-.6-1.9-.6-3.1,0-1.9.3-3.6,1-5,.7-1.4,1.6-2.5,2.7-3.4,1.1-.9,2.4-1.5,3.9-1.9,1.5-.4,3.1-.7,4.8-.7s4.7.4,7,1.2c2.3.8,4.4,1.9,6.1,3.3-.3.8-.6,1.6-1.1,2.4-.5.8-1,1.6-1.6,2.4-.5.8-1.1,1.5-1.7,2.2-.6.7-1.1,1.2-1.6,1.7ZM1931.6,33c0-.7.1-1.9.2-3.4.1-1.6.3-3.3.5-5.2s.4-3.9.7-6c.2-2.1.4-4.1.7-5.9.2-1.8.4-3.4.6-4.8.2-1.3.3-2.2.4-2.7.8,0,1.9-.2,3.2-.3,1.4-.1,2.8-.2,4.5-.3,1.6-.1,3.3-.2,5-.3,1.7,0,3.4-.1,4.9-.1s3.2,0,4.6.2c-.2,1.5-.4,3-.8,4.6-.3,1.5-.7,3-1.1,4.3-2.7-.1-5-.2-6.9-.3-1.9-.1-3.5-.2-4.9-.2,0,.7-.2,1.5-.4,2.5-.1,1-.2,2-.3,3,1.1-.3,2.4-.6,3.9-.9,1.6-.3,3.4-.5,5.5-.5,0,1.4-.2,2.8-.2,4.1,0,1.4-.2,2.8-.4,4.2-1.3-.1-2.7-.2-4-.3-1.3-.1-2.6-.2-3.8-.2h-.8c-.3,0-.5,0-.8,0-.2,1.5-.3,3.1-.4,4.6,0,1.5-.1,2.7-.2,3.5-1.4.1-2.7.2-3.8.3-1.2,0-2.4,0-3.6,0h-1.2c-.4,0-.8,0-1.2,0ZM1961.5,4.5c.4,0,.8,0,1.3,0h1.4c.6,0,1.2,0,1.8,0,.9,0,1.8,0,2.8,0s1.9,0,2.8.2c-1,5.5-1.7,9.7-2.1,12.6-.4,2.9-.7,4.7-.7,5.4,0,1.1.2,1.9.7,2.4.5.5,1.1.8,1.8.8s1.3-.3,2-.8c.7-.6,1.1-1.5,1.3-2.7.6-3.1.9-6.1,1-9,.1-2.9.2-5.6.3-8,.4,0,.9-.2,1.6-.3.7-.1,1.5-.2,2.3-.2.9-.1,1.8-.2,2.7-.2,1,0,1.9,0,2.8,0h1.2c-.3,4.8-.7,8.6-1,11.4-.3,2.7-.6,4.8-.8,6.1-.3,1.7-.8,3.2-1.5,4.7-.7,1.5-1.6,2.8-2.8,3.8-1.2,1.1-2.6,1.9-4.2,2.5-1.6.6-3.5,1-5.6,1s-3.9-.3-5.3-.9c-1.4-.6-2.5-1.4-3.4-2.4s-1.5-2.1-1.9-3.4c-.4-1.3-.6-2.7-.6-4.2s0-3.3.2-5.1c.2-1.8.4-3.6.6-5.3.2-1.7.5-3.3.7-4.8.3-1.5.5-2.6.7-3.4ZM1992.7,4.3c.6-.1,1.5-.2,2.7-.2s2.6,0,4,.2c1.5.1,2.8.3,3.9.6-.4,1.3-.8,2.8-1.2,4.6-.4,1.8-.8,3.6-1.2,5.5-.4,1.9-.7,3.7-1,5.5-.3,1.8-.6,3.4-.8,4.7,1.3-.3,3-.6,4.9-1,2-.4,4.3-.6,7-.8v1.4c0,.5,0,1.1,0,1.8,0,1,0,2,0,3.1,0,1.1-.2,2-.4,2.8-.7,0-1.7.2-3,.2-1.3,0-2.8.2-4.4.2-1.6,0-3.3.1-5.1.1-1.8,0-3.4,0-4.9,0s-1.7,0-2.4,0c-.7,0-1.4,0-2,0,0-1.1.2-2.4.4-3.9s.3-3.1.6-4.8c.2-1.7.5-3.5.7-5.3.3-1.8.5-3.6.8-5.4.3-1.8.5-3.4.8-5,.3-1.6.5-3,.8-4.3ZM2019.6,4.3c.6-.1,1.5-.2,2.7-.2s2.6,0,4,.2c1.5.1,2.8.3,3.9.6-.4,1.3-.8,2.8-1.2,4.6-.4,1.8-.8,3.6-1.2,5.5-.4,1.9-.7,3.7-1,5.5-.3,1.8-.6,3.4-.8,4.7,1.3-.3,3-.6,4.9-1,2-.4,4.3-.6,7-.8v1.4c0,.5,0,1.1,0,1.8,0,1,0,2-.1,3.1,0,1.1-.2,2-.3,2.8-.7,0-1.7.2-3,.2-1.3,0-2.8.2-4.4.2-1.6,0-3.3.1-5.1.1-1.8,0-3.4,0-4.9,0s-1.7,0-2.4,0c-.7,0-1.4,0-2,0,0-1.1.2-2.4.4-3.9.2-1.5.3-3.1.5-4.8.2-1.7.5-3.5.7-5.3.3-1.8.5-3.6.8-5.4.3-1.8.5-3.4.8-5,.3-1.6.5-3,.8-4.3Z"/>
  <path d="M1398.8,21.5l-5.7-21.3c0-.1-.2-.2-.3-.2l-16.5,6.1c-.1,0-.2.2-.2.3l5.3,19.9c-1.3-1.2-3.6-1.4-5.5-.3-2.3,1.3-3.3,4-2.2,6,1.1,2,3.9,2.6,6.2,1.3,2.2-1.2,3.2-3.7,2.4-5.7l-4.2-15.5,15.9-5.9,3.8,14c-1.3-1.2-3.6-1.4-5.5-.3-2.3,1.3-3.3,4-2.2,6,1.1,2,3.9,2.6,6.2,1.3,2.2-1.2,3.2-3.7,2.4-5.7h0Z"/>
  <path d="M2079.8,21.5l-5.7-21.3c0-.1-.2-.2-.3-.2l-16.4,6.1c-.1,0-.2.2-.2.3l5.3,19.9c-1.4-1.2-3.6-1.4-5.5-.3-2.3,1.3-3.3,4-2.2,6,1.1,2,3.9,2.6,6.2,1.3,2.2-1.2,3.2-3.7,2.4-5.7l-4.2-15.5,15.9-5.9,3.8,14c-1.3-1.2-3.6-1.4-5.5-.3-2.3,1.3-3.3,4-2.2,6,1.1,2,3.9,2.6,6.2,1.3,2.2-1.2,3.2-3.7,2.4-5.7h0Z"/>
  <path d="M599.8,21.5l-5.7-21.3c0-.1-.2-.2-.3-.2l-16.5,6.1c-.1,0-.2.2-.2.3l5.3,19.9c-1.3-1.2-3.6-1.4-5.5-.3-2.3,1.3-3.3,4-2.2,6,1.1,2,3.9,2.6,6.2,1.3,2.2-1.2,3.2-3.7,2.4-5.7l-4.2-15.5,15.9-5.9,3.8,14c-1.3-1.2-3.6-1.4-5.5-.3-2.3,1.3-3.3,4-2.2,6,1.1,2,3.9,2.6,6.2,1.3,2.2-1.2,3.2-3.7,2.4-5.7Z"/>
</svg>