<?xml version="1.0" encoding="UTF-8"?> <svg xmlns="http://www.w3.org/2000/svg" width="475" height="794" viewBox="0 0 475 794" fill="none"><path d="M3.25458 76.261C143.096 184.777 296.336 165.225 457.734 67.4682L472.062 60.789L475 0L0 1.47957L3.25458 76.261Z" fill="url(#paint0_linear_106_530)"></path><path style="mix-blend-mode:multiply" opacity="0.7" d="M236.845 9.30078L235.873 59.9019L463.588 56.2242L466.272 9.30078H236.845Z" fill="url(#paint1_linear_106_530)"></path><path style="mix-blend-mode:multiply" opacity="0.7" d="M466.293 9.30043L463.609 56.2027L457.163 56.3083C457.163 56.3083 464.349 14.6691 459.699 12.2173C455.05 9.76544 236.803 12.2173 236.803 12.2173L236.866 9.2793H466.314L466.293 9.30043Z" fill="url(#paint2_linear_106_530)"></path><path style="mix-blend-mode:multiply" opacity="0.7" d="M0 1.47939L3.25458 76.2609C73.9044 131.089 147.978 153.198 224.799 149.077L227.208 0.760742L0 1.47939Z" fill="url(#paint3_linear_106_530)"></path><path d="M3.25464 76.2616L26.713 793.259H454.796L457.734 67.4688L3.25464 76.2616Z" fill="url(#paint4_linear_106_530)"></path><path style="mix-blend-mode:screen" opacity="0.61" d="M238.81 83.5952C232.956 96.2984 255.421 778.589 262.269 782.5C269.116 786.41 435.269 788.355 442.095 780.555C448.942 772.735 457.734 78.7127 445.032 75.7747C432.331 72.8367 244.685 70.8921 238.81 83.5952Z" fill="url(#paint5_linear_106_530)"></path><path style="mix-blend-mode:screen" d="M236.359 99.7221C212.901 139.311 268.609 604.106 341.922 630.506C415.213 656.905 450.401 76.2604 435.755 76.2604C421.109 76.2604 259.838 60.1331 236.38 99.7221H236.359Z" fill="url(#paint6_linear_106_530)"></path><path d="M221.755 793.258H26.713L3.25464 76.2606L203.116 72.3926L221.755 793.258Z" fill="url(#paint7_linear_106_530)"></path><path style="mix-blend-mode:multiply" opacity="0.7" d="M221.755 793.258H26.713L3.25464 76.2606L203.116 72.3926L221.755 793.258Z" fill="url(#paint8_linear_106_530)"></path><path d="M229.321 71.0195C231.794 335.016 235.999 585.232 245.573 793.259H221.755L203.115 72.3934L229.321 71.0195Z" fill="url(#paint9_linear_106_530)"></path><path style="mix-blend-mode:multiply" opacity="0.7" d="M229.321 71.0195C231.794 335.016 235.999 585.232 245.573 793.259H221.755L203.115 72.3934L229.321 71.0195Z" fill="url(#paint10_linear_106_530)"></path><path style="mix-blend-mode:multiply" opacity="0.7" d="M203.115 72.3926C203.115 72.3926 206.666 291.136 210.956 447.716C215.225 604.296 215.775 793.871 221.755 793.258C227.736 792.645 214.295 317.514 203.115 72.3926Z" fill="url(#paint11_linear_106_530)"></path><path d="M245.7 15.8095L245.425 54.7432L355.003 54.2782L355.109 14.2031L245.7 15.8095Z" fill="url(#paint12_linear_106_530)"></path><path style="mix-blend-mode:multiply" opacity="0.7" d="M355.109 14.2031L355.003 54.2782L348.917 54.3205L349.001 15.7461L245.679 17.2891L245.7 15.8095L355.109 14.2031Z" fill="url(#paint13_linear_106_530)"></path><path d="M260.071 23.4615C255.485 22.5949 251.174 32.5714 259.225 33.0153C267.277 33.438 266.855 24.7509 260.071 23.4615Z" fill="url(#paint14_linear_106_530)"></path><path d="M278.309 22.6164L342.788 20.9043L341.287 27.0551L278.52 27.7103L278.309 22.6164Z" fill="url(#paint15_linear_106_530)"></path><path style="mix-blend-mode:multiply" opacity="0.7" d="M13.0393 85.5613C5.21989 101.202 32.3132 777.385 36.857 782.881C41.4007 788.376 209.498 791.314 212.435 785.438C215.373 779.562 205.588 78.713 191.915 78.713C178.241 78.713 20.8799 69.9202 13.0605 85.5613H13.0393Z" fill="url(#paint16_linear_106_530)"></path><path style="mix-blend-mode:multiply" opacity="0.7" d="M220.868 3.69933C213.069 3.08637 7.50238 -0.210946 4.41687 5.13663C1.33136 10.5053 5.85396 68.4409 10.1864 69.8782C14.5188 71.3155 214.274 70.7025 218.606 66.7922C222.939 62.882 226.236 4.12207 220.868 3.69933Z" fill="url(#paint17_linear_106_530)"></path><path style="mix-blend-mode:screen" opacity="0.61" d="M229.321 71.0195C226.088 76.7476 230.991 346.536 235.873 345.564C240.755 344.591 253.456 80.6578 248.574 77.7199C243.692 74.7819 229.321 71.0195 229.321 71.0195Z" fill="url(#paint18_linear_106_530)"></path><path style="mix-blend-mode:multiply" opacity="0.7" d="M3.25458 76.261C146.625 87.5268 299.717 70.237 457.734 67.4681L472.062 60.7889C378.018 64.7204 290.165 67.2145 225.433 64.3822C225.433 64.3822 26.8609 70.237 20.8378 67.4681C14.8147 64.6992 0 1.47949 0 1.47949L3.25458 76.261Z" fill="url(#paint19_linear_106_530)"></path><defs><linearGradient id="paint0_linear_106_530" x1="-7.12204" y1="79.2624" x2="447.252" y2="64.3231" gradientUnits="userSpaceOnUse"><stop stop-color="#634F66"></stop><stop offset="1" stop-color="#8F717B"></stop></linearGradient><linearGradient id="paint1_linear_106_530" x1="353.629" y1="-14.8584" x2="345.554" y2="98.0534" gradientUnits="userSpaceOnUse"><stop stop-color="#8B2774"></stop><stop offset="1" stop-color="white"></stop></linearGradient><linearGradient id="paint2_linear_106_530" x1="353.291" y1="-10.2087" x2="347.563" y2="70.0471" gradientUnits="userSpaceOnUse"><stop stop-color="#8B2774"></stop><stop offset="1" stop-color="white"></stop></linearGradient><linearGradient id="paint3_linear_106_530" x1="245.89" y1="-51.6793" x2="32.7919" y2="150.949" gradientUnits="userSpaceOnUse"><stop stop-color="#8B2774"></stop><stop offset="1" stop-color="white"></stop></linearGradient><linearGradient id="paint4_linear_106_530" x1="31.4469" y1="442.581" x2="355.68" y2="429.755" gradientUnits="userSpaceOnUse"><stop stop-color="#634F66"></stop><stop offset="1" stop-color="#8F717B"></stop></linearGradient><linearGradient id="paint5_linear_106_530" x1="122.913" y1="537.906" x2="540.77" y2="334.132" gradientUnits="userSpaceOnUse"><stop></stop><stop offset="1" stop-color="#64556E"></stop></linearGradient><linearGradient id="paint6_linear_106_530" x1="343.295" y1="224.703" x2="491.905" y2="876.675" gradientUnits="userSpaceOnUse"><stop></stop><stop offset="1" stop-color="#80362E"></stop></linearGradient><linearGradient id="paint7_linear_106_530" x1="151.824" y1="405.422" x2="-168.151" y2="644.096" gradientUnits="userSpaceOnUse"><stop stop-color="#634F66"></stop><stop offset="1" stop-color="#8F717B"></stop></linearGradient><linearGradient id="paint8_linear_106_530" x1="241.304" y1="52.4819" x2="58.4726" y2="594.959" gradientUnits="userSpaceOnUse"><stop stop-color="#8B2774"></stop><stop offset="1" stop-color="white"></stop></linearGradient><linearGradient id="paint9_linear_106_530" x1="199.016" y1="80.0026" x2="283.722" y2="1204.36" gradientUnits="userSpaceOnUse"><stop stop-color="#513A4C"></stop><stop offset="0.99" stop-color="#6E5565"></stop></linearGradient><linearGradient id="paint10_linear_106_530" x1="218.966" y1="-32.9305" x2="228.753" y2="814.543" gradientUnits="userSpaceOnUse"><stop stop-color="#8B2774"></stop><stop offset="1" stop-color="white"></stop></linearGradient><linearGradient id="paint11_linear_106_530" x1="102.245" y1="437.697" x2="13.8002" y2="441.607" gradientUnits="userSpaceOnUse"><stop stop-color="#8B2774"></stop><stop offset="1" stop-color="white"></stop></linearGradient><linearGradient id="paint12_linear_106_530" x1="298.661" y1="97.6929" x2="300.88" y2="15.6616" gradientUnits="userSpaceOnUse"><stop stop-color="#672B46"></stop><stop offset="1" stop-color="#34132D"></stop></linearGradient><linearGradient id="paint13_linear_106_530" x1="306.058" y1="25.321" x2="267.163" y2="91.495" gradientUnits="userSpaceOnUse"><stop stop-color="#8B2774"></stop><stop offset="1" stop-color="white"></stop></linearGradient><linearGradient id="paint14_linear_106_530" x1="231.329" y1="32.1276" x2="259.458" y2="28.2606" gradientUnits="userSpaceOnUse"><stop stop-color="#A72749"></stop><stop offset="0.25" stop-color="#C32D3C"></stop><stop offset="0.53" stop-color="#DC3330"></stop><stop offset="0.79" stop-color="#EB3629"></stop><stop offset="1" stop-color="#F13827"></stop></linearGradient><linearGradient id="paint15_linear_106_530" x1="135.657" y1="48.7624" x2="308.108" y2="25.0748" gradientUnits="userSpaceOnUse"><stop stop-color="#A72749"></stop><stop offset="0.25" stop-color="#C32D3C"></stop><stop offset="0.53" stop-color="#DC3330"></stop><stop offset="0.79" stop-color="#EB3629"></stop><stop offset="1" stop-color="#F13827"></stop></linearGradient><linearGradient id="paint16_linear_106_530" x1="-279.197" y1="457.228" x2="486.075" y2="410.339" gradientUnits="userSpaceOnUse"><stop stop-color="#8B2774"></stop><stop offset="1" stop-color="white"></stop></linearGradient><linearGradient id="paint17_linear_106_530" x1="118.94" y1="3.02296" x2="100.38" y2="88.7944" gradientUnits="userSpaceOnUse"><stop stop-color="#8B2774"></stop><stop offset="1" stop-color="white"></stop></linearGradient><linearGradient id="paint18_linear_106_530" x1="285.389" y1="281.519" x2="226.731" y2="186.708" gradientUnits="userSpaceOnUse"><stop></stop><stop offset="1" stop-color="#64556E"></stop></linearGradient><linearGradient id="paint19_linear_106_530" x1="231.139" y1="90.5493" x2="222.662" y2="193.527" gradientUnits="userSpaceOnUse"><stop stop-color="#8B2774"></stop><stop offset="1" stop-color="white"></stop></linearGradient></defs></svg> 