<?xml version="1.0" encoding="UTF-8"?> <svg xmlns="http://www.w3.org/2000/svg" width="73" height="74" viewBox="0 0 73 74" fill="none"><circle cx="36.4604" cy="36.9805" r="34.9604" fill="#F92F61" stroke="black" stroke-width="3"></circle><path d="M49.5209 41.0451L43.8235 19.7822C43.7839 19.6343 43.6283 19.5509 43.4867 19.6015L27.0321 25.7246C26.9076 25.7711 26.8389 25.9067 26.8739 26.0374L32.2034 45.9275C30.8598 44.7009 28.6355 44.505 26.7253 45.583C24.407 46.891 23.4279 49.58 24.5378 51.5876C25.6478 53.5957 28.4267 54.1634 30.745 52.8554C32.9294 51.6232 33.9248 49.1643 33.1042 47.2046L28.9505 31.7029L44.8698 25.77L48.6205 39.7678C47.2769 38.5412 45.0526 38.3453 43.142 39.4235C40.8241 40.7313 39.8445 43.4204 40.9544 45.428C42.0644 47.4361 44.8432 48.0033 47.1615 46.6953C49.3463 45.4626 50.3414 43.0042 49.5203 41.0447L49.5209 41.0451Z" fill="black"></path></svg> 