<?xml version="1.0" encoding="UTF-8"?> <svg xmlns="http://www.w3.org/2000/svg" width="1518" height="762" viewBox="0 0 1518 762" fill="none"><mask id="mask0_105_434" style="mask-type:luminance" maskUnits="userSpaceOnUse" x="0" y="0" width="1518" height="762"><path d="M768.707 0L1517.97 380.905L768.707 761.841L0 380.905L768.707 0Z" fill="white"></path></mask><g mask="url(#mask0_105_434)"><path d="M807.661 622.611C841.559 801.914 886.281 975.54 920.83 1154.41" stroke="#FFC840" stroke-width="1.7" stroke-miterlimit="10" stroke-dasharray="16.97 4.24 6.79 1.7 4.24 7.63"></path><path d="M768.708 624.689C767.87 807.186 767.87 986.086 768.708 1166.35" stroke="#FFC840" stroke-width="2.54" stroke-miterlimit="10" stroke-linecap="round" stroke-dasharray="2.54 5.94 12.72 2.54 7.63 21.21"></path><path d="M888.328 595.317C980.966 749.28 1080.95 899.241 1176.17 1055.72" stroke="#FFC840" stroke-width="1.7" stroke-miterlimit="10" stroke-dasharray="16.97 4.24 6.79 1.7 4.24 7.63"></path><path d="M852.073 609.988C912.581 780.854 978.361 949.239 1037.32 1118.99" stroke="#FFC840" stroke-width="2.54" stroke-miterlimit="10" stroke-linecap="round" stroke-dasharray="2.54 5.94 12.72 2.54 7.63 21.21"></path><path d="M953.891 541.04C1096.74 654.558 1241.45 762.431 1382.38 875.669" stroke="#FFC840" stroke-width="1.7" stroke-miterlimit="10" stroke-dasharray="16.97 4.24 6.79 1.7 4.24 7.63"></path><path d="M925.854 568.21C961.613 610.826 997.341 653.41 1033.1 696.026C1071.74 742.085 1110.39 788.143 1149.03 834.201C1179.42 870.428 1209.82 906.654 1240.24 942.881C1251.34 956.125 1262.45 969.337 1273.55 982.581" stroke="#FFC840" stroke-width="2.54" stroke-miterlimit="10" stroke-linecap="round" stroke-dasharray="2.54 5.94 12.72 2.54 7.63 21.21"></path><path d="M996.783 467.842C1167.76 525.656 1341.41 578.29 1514.56 635.948" stroke="#FFC840" stroke-width="1.7" stroke-miterlimit="10" stroke-dasharray="16.97 4.24 6.79 1.7 4.24 7.63"></path><path d="M981.648 503.883C1029.94 531.766 1078.19 559.618 1126.48 587.501C1178.52 617.556 1230.53 647.579 1282.57 677.633C1323.36 701.174 1364.11 724.715 1404.89 748.256C1419.53 756.724 1434.2 765.191 1448.84 773.627" stroke="#FFC840" stroke-width="2.54" stroke-miterlimit="10" stroke-linecap="round" stroke-dasharray="2.54 5.94 12.72 2.54 7.63 21.21"></path><path d="M1011.33 384.596C1194.06 380.936 1375.59 373.027 1556.77 365.397" stroke="#FFC840" stroke-width="1.7" stroke-miterlimit="10" stroke-dasharray="16.97 4.24 6.79 1.7 4.24 7.63"></path><path d="M1007.36 422.994C1186.22 454.599 1362.47 483.537 1542.16 517.313" stroke="#FFC840" stroke-width="2.54" stroke-miterlimit="10" stroke-linecap="round" stroke-dasharray="2.54 5.94 12.72 2.54 7.63 21.21"></path><path d="M999.295 300.854C1165.16 230.975 1336.17 165.191 1503.98 96.8008" stroke="#FFC840" stroke-width="1.7" stroke-miterlimit="10" stroke-dasharray="16.97 4.24 6.79 1.7 4.24 7.63"></path><path d="M1008.75 338.569C1186.22 304.637 1365.1 278.305 1542.16 244.529" stroke="#FFC840" stroke-width="2.54" stroke-miterlimit="10" stroke-linecap="round" stroke-dasharray="2.54 5.94 12.72 2.54 7.63 21.21"></path><path d="M957.489 227.284C1091.5 104.678 1228.3 -16.3452 1362.47 -137.586" stroke="#FFC840" stroke-width="1.7" stroke-miterlimit="10" stroke-dasharray="16.97 4.24 6.79 1.7 4.24 7.63"></path><path d="M979.167 259.386C1027.21 231.657 1075.28 203.898 1123.32 176.17C1175.42 146.085 1227.53 115.999 1279.63 85.9141C1320.78 62.156 1361.91 38.3979 1403.06 14.6398C1418.32 5.83134 1433.58 -2.97716 1448.84 -11.7856" stroke="#FFC840" stroke-width="2.54" stroke-miterlimit="10" stroke-linecap="round" stroke-dasharray="2.54 5.94 12.72 2.54 7.63 21.21"></path><path d="M893.228 172.603C946.789 70.4684 999.388 -29.5265 1057.29 -134.763C1088.86 -192.639 1115.16 -250.514 1149.34 -309.413" stroke="#FFC840" stroke-width="1.7" stroke-miterlimit="10" stroke-dasharray="16.97 4.24 6.79 1.7 4.24 7.63"></path><path d="M925.389 194.19C961.086 151.636 996.814 109.083 1032.51 66.5291C1071.18 20.4396 1109.83 -25.6189 1148.5 -71.7083C1178.96 -108.028 1209.44 -144.347 1239.9 -180.636C1251.13 -194.004 1262.32 -207.371 1273.55 -220.739" stroke="#FFC840" stroke-width="2.54" stroke-miterlimit="10" stroke-linecap="round" stroke-dasharray="2.54 5.94 12.72 2.54 7.63 21.21"></path><path d="M814.174 144.689C838.892 -37.374 865.222 -216.304 890.282 -397.933" stroke="#FFC840" stroke-width="1.7" stroke-miterlimit="10" stroke-dasharray="16.97 4.24 6.79 1.7 4.24 7.63"></path><path d="M851.111 154.521C870.03 102.569 888.917 50.618 907.835 -1.33349C928.429 -57.9373 949.022 -114.51 969.615 -171.114C985.959 -216.056 1002.33 -260.998 1018.68 -305.94C1024.88 -322.998 1031.08 -340.057 1037.32 -357.116" stroke="#FFC840" stroke-width="2.54" stroke-miterlimit="10" stroke-linecap="round" stroke-dasharray="2.54 5.94 12.72 2.54 7.63 21.21"></path><path d="M730.375 141.99C694.243 -37.405 654.763 -213.668 616.616 -392.567" stroke="#FFC840" stroke-width="1.7" stroke-miterlimit="10" stroke-dasharray="16.97 4.24 6.79 1.7 4.24 7.63"></path><path d="M768.708 139.975C767.87 -42.6775 767.87 -224.213 768.708 -404.508" stroke="#FFC840" stroke-width="2.54" stroke-miterlimit="10" stroke-linecap="round" stroke-dasharray="2.54 5.94 12.72 2.54 7.63 21.21"></path><path d="M650.979 169.533C621.671 122.668 592.394 75.8338 563.086 28.969C531.142 -22.1141 499.198 -73.1971 467.285 -124.28C441.822 -165.004 416.36 -205.728 390.898 -246.451C381.004 -262.269 371.142 -278.056 361.249 -293.875" stroke="#FFC840" stroke-width="1.7" stroke-miterlimit="10" stroke-dasharray="16.97 4.24 6.79 1.7 4.24 7.63"></path><path d="M686.335 154.521C625.827 -16.3453 560.078 -187.366 500.128 -357.147" stroke="#FFC840" stroke-width="2.54" stroke-miterlimit="10" stroke-linecap="round" stroke-dasharray="2.54 5.94 12.72 2.54 7.63 21.21"></path><path d="M585.23 222.105C499.57 157.313 418.004 94.1643 331.196 25.7435C270.688 -24.254 212.817 -66.3424 155.069 -113.828" stroke="#FFC840" stroke-width="1.7" stroke-miterlimit="10" stroke-dasharray="16.97 4.24 6.79 1.7 4.24 7.63"></path><path d="M612.491 194.717C576.825 152.226 541.159 109.703 505.494 67.2114C466.819 21.1219 428.145 -24.9675 389.471 -71.057C358.922 -107.439 328.405 -143.851 297.856 -180.233C286.536 -193.724 275.216 -207.247 263.865 -220.739" stroke="#FFC840" stroke-width="2.54" stroke-miterlimit="10" stroke-linecap="round" stroke-dasharray="2.54 5.94 12.72 2.54 7.63 21.21"></path><path d="M543.33 294.898C370.646 238.884 197 183.614 22.8572 125.924" stroke="#FFC840" stroke-width="1.7" stroke-miterlimit="10" stroke-dasharray="16.97 4.24 6.79 1.7 4.24 7.63"></path><path d="M558.248 259.386C510.208 231.626 462.136 203.898 414.096 176.17C361.993 146.085 309.89 115.999 257.787 85.9141C216.631 62.156 175.507 38.3979 134.352 14.6398C119.093 5.83134 103.834 -2.97716 88.5754 -11.7856" stroke="#FFC840" stroke-width="2.54" stroke-miterlimit="10" stroke-linecap="round" stroke-dasharray="2.54 5.94 12.72 2.54 7.63 21.21"></path><path d="M526.087 377.214C344.346 380.936 162.791 391.451 -19.3835 396.413" stroke="#FFC840" stroke-width="1.7" stroke-miterlimit="10" stroke-dasharray="16.97 4.24 6.79 1.7 4.24 7.63"></path><path d="M531.483 339.065C352.223 307.274 173.336 275.7 -4.68311 244.529" stroke="#FFC840" stroke-width="2.54" stroke-miterlimit="10" stroke-linecap="round" stroke-dasharray="2.54 5.94 12.72 2.54 7.63 21.21"></path><path d="M538.802 460.709C370.646 530.898 202.272 596.682 33.4639 665.041" stroke="#FFC840" stroke-width="1.7" stroke-miterlimit="10" stroke-dasharray="16.97 4.24 6.79 1.7 4.24 7.63"></path><path d="M528.661 423.242C349.587 454.599 173.305 486.173 -4.71411 517.313" stroke="#FFC840" stroke-width="2.54" stroke-miterlimit="10" stroke-linecap="round" stroke-dasharray="2.54 5.94 12.72 2.54 7.63 21.21"></path><path d="M578.376 535.984C444.303 657.194 310.138 778.218 174.98 899.397" stroke="#FFC840" stroke-width="1.7" stroke-miterlimit="10" stroke-dasharray="16.97 4.24 6.79 1.7 4.24 7.63"></path><path d="M555.767 503.883C399.582 594.046 244.358 683.495 88.5754 773.627" stroke="#FFC840" stroke-width="2.54" stroke-miterlimit="10" stroke-linecap="round" stroke-dasharray="2.54 5.94 12.72 2.54 7.63 21.21"></path><path d="M643.536 590.479C591.619 683.526 541.625 778.218 491.661 872.94C457.453 941.361 420.64 1004.48 388.106 1071.22" stroke="#FFC840" stroke-width="1.7" stroke-miterlimit="10" stroke-dasharray="16.97 4.24 6.79 1.7 4.24 7.63"></path><path d="M611.592 568.21C575.833 610.826 540.105 653.41 504.346 696.026C465.703 742.085 427.06 788.143 388.417 834.201C358.023 870.428 327.63 906.654 297.205 942.881C286.102 956.125 274.999 969.337 263.896 982.581" stroke="#FFC840" stroke-width="2.54" stroke-miterlimit="10" stroke-linecap="round" stroke-dasharray="2.54 5.94 12.72 2.54 7.63 21.21"></path><path d="M722.838 619.944C696.849 799.278 673.154 980.813 647.103 1159.77" stroke="#FFC840" stroke-width="1.7" stroke-miterlimit="10" stroke-dasharray="16.97 4.24 6.79 1.7 4.24 7.63"></path><path d="M685.342 609.988C620.555 778.218 562.683 949.239 500.097 1118.96" stroke="#FFC840" stroke-width="2.54" stroke-miterlimit="10" stroke-linecap="round" stroke-dasharray="2.54 5.94 12.72 2.54 7.63 21.21"></path></g></svg> 