<?xml version="1.0" encoding="UTF-8"?> <svg xmlns="http://www.w3.org/2000/svg" width="604" height="964" viewBox="0 0 604 964" fill="none"><g clip-path="url(#clip0_563_16851)"><g opacity="0.8"><g opacity="0.58"><path d="M366.48 -212H308.757L366.48 785.678L424.195 -212H366.48Z" fill="#7E99E5"></path><path d="M625.557 -177.776L569.822 -192.765L366.479 785.679L681.291 -162.787L625.557 -177.776Z" fill="#7E99E5"></path><path d="M866.86 -77.4427L816.932 -106.39L366.479 785.679L916.789 -48.4958L866.86 -77.4427Z" fill="#7E99E5"></path><path d="M1073.83 82.1098L1033.13 41.1846L366.479 785.678L1114.53 123.035L1073.83 82.1098Z" fill="#7E99E5"></path><path d="M1232.27 289.935L1203.59 239.854L366.479 785.679L1260.95 340.025L1232.27 289.935Z" fill="#7E99E5"></path><path d="M1331.3 531.777L1316.61 475.962L366.479 785.679L1345.99 587.601L1331.3 531.777Z" fill="#7E99E5"></path><path d="M1364.13 791.046L1364.45 733.331L366.479 785.679L1363.82 848.76L1364.13 791.046Z" fill="#7E99E5"></path><path d="M1328.51 1049.94L1343.81 994.283L366.479 785.679L1313.23 1105.59L1328.51 1049.94Z" fill="#7E99E5"></path><path d="M1226.88 1290.7L1256.11 1240.93L366.479 785.679L1197.66 1340.48L1226.88 1290.7Z" fill="#7E99E5"></path><path d="M1066.22 1496.81L1107.36 1456.33L366.479 785.679L1025.08 1537.3L1066.22 1496.81Z" fill="#7E99E5"></path><path d="M857.543 1654.13L907.785 1625.72L366.479 785.679L807.301 1682.54L857.543 1654.13Z" fill="#7E99E5"></path><path d="M615.173 1751.86L671.069 1737.47L366.479 785.679L559.278 1766.25L615.173 1751.86Z" fill="#7E99E5"></path><path d="M355.738 1783.3L413.452 1783.92L366.48 785.679L298.023 1782.68L355.738 1783.3Z" fill="#7E99E5"></path><path d="M97.0438 1746.28L152.617 1761.87L366.479 785.679L41.4707 1730.7L97.0438 1746.28Z" fill="#7E99E5"></path><path d="M-143.167 1643.36L-93.5514 1672.85L366.479 785.679L-192.791 1613.88L-143.167 1643.36Z" fill="#7E99E5"></path><path d="M-348.41 1481.59L-308.148 1522.94L366.479 785.679L-388.672 1440.23L-348.41 1481.59Z" fill="#7E99E5"></path><path d="M-504.603 1272.07L-476.462 1322.46L366.479 785.679L-532.743 1221.67L-504.603 1272.07Z" fill="#7E99E5"></path><path d="M-601.029 1029.17L-586.936 1085.15L366.479 785.679L-615.112 973.203L-601.029 1029.17Z" fill="#7E99E5"></path><path d="M-631.068 769.57L-632 827.276L366.479 785.679L-630.137 711.865L-631.068 769.57Z" fill="#7E99E5"></path><path d="M-592.661 511.072L-608.546 566.565L366.478 785.678L-576.777 455.588L-592.661 511.072Z" fill="#7E99E5"></path><path d="M-488.447 271.416L-518.2 320.879L366.481 785.678L-458.694 221.961L-488.447 271.416Z" fill="#7E99E5"></path><path d="M-325.572 67.049L-367.142 107.087L366.481 785.678L-284.001 27.0107L-325.572 67.049Z" fill="#7E99E5"></path><path d="M-115.215 -88.0151L-165.762 -60.1433L366.479 785.678L-64.6765 -115.878L-115.215 -88.0151Z" fill="#7E99E5"></path><path d="M128.194 -183.133L72.1465 -169.345L366.479 785.679L184.233 -196.913L128.194 -183.133Z" fill="#7E99E5"></path></g></g></g><defs><clipPath id="clip0_563_16851"><rect width="604" height="964" fill="white"></rect></clipPath></defs></svg> 