<?xml version="1.0" encoding="UTF-8"?> <svg xmlns="http://www.w3.org/2000/svg" width="143" height="143" viewBox="0 0 143 143" fill="none"><rect x="2.44949" y="31.5329" width="112.37" height="112.37" transform="rotate(-15 2.44949 31.5329)" fill="#83FBF0" stroke="black" stroke-width="4"></rect><path d="M71.6002 62.3409L53.2193 46.9585L53.02 46.7917L52.769 46.859L37.0141 51.0805L36.0848 51.3295L36.8227 51.9469L65.0583 75.5731L50.8715 104.247L50.3813 105.238L51.449 104.952L56.1161 103.702L56.3346 103.643L56.4348 103.44L68.707 78.6273L88.1496 94.8981L88.3489 95.0649L88.5999 94.9976L104.355 90.7761L105.284 90.5272L104.546 89.9097L75.2615 65.3986L88.7813 38.069L89.2714 37.0782L88.2037 37.3643L83.5366 38.6148L83.3183 38.6734L83.218 38.876L71.6002 62.3409ZM72.6222 69.3481L72.6228 69.3487L95.8942 88.4977L89.9119 90.1006L45.4842 53.5362L51.4666 51.9332L69.7496 66.9767L69.7503 66.9772L72.6222 69.3481Z" fill="black" stroke="black"></path></svg> 