<?xml version="1.0" encoding="UTF-8"?> <svg xmlns="http://www.w3.org/2000/svg" width="143" height="143" viewBox="0 0 143 143" fill="none"><rect x="31.9247" y="2.8074" width="112.37" height="112.37" transform="rotate(15 31.9247 2.8074)" fill="#83FBF0" stroke="black" stroke-width="4"></rect><path fill-rule="evenodd" clip-rule="evenodd" d="M71.865 41.9973C67.6497 42.9595 64.1863 43.8014 64.1689 43.8688C64.1241 44.0426 71.7645 50.9694 72.0819 51.0426C72.2263 51.0761 73.3939 50.8694 74.6765 50.5836L77.0087 50.064L78.9311 51.8282L80.8533 53.5926L84.9598 52.9048C91.1475 51.8683 91.794 51.7462 91.7291 51.6296C91.6429 51.4749 89.9539 49.8669 85.356 45.5629C83.134 43.4828 80.9809 41.4501 80.5714 41.0458C80.1619 40.6415 79.7599 40.2969 79.6781 40.2796C79.5964 40.2622 76.0804 41.0352 71.865 41.9973ZM53.3902 46.1667L49.0066 47.1512L46.6377 55.9922C45.3347 60.8548 44.3192 64.8467 44.3811 64.8633C44.4428 64.8798 46.5568 64.5548 49.0788 64.141L53.6643 63.3886L56.1613 54.0696L57.864 55.71C59.1763 56.9733 60.49 58.2351 61.805 59.4955L64.0433 61.6405L65.3547 61.4176C66.1773 61.2773 66.9994 61.1333 67.8208 60.9856C68.4559 60.8703 70.0091 60.6088 71.2724 60.4041C72.5357 60.1991 73.716 59.9689 73.8951 59.8924C74.1331 59.7907 72.096 57.8043 66.3606 52.545C62.0374 48.5807 58.3368 45.3022 58.137 45.2596C57.9372 45.2171 55.8012 45.6251 53.3902 46.1667ZM91.0677 56.8687C88.1286 57.3663 85.7092 57.8209 85.691 57.8789C85.673 57.9369 86.8692 59.18 88.3494 60.6411C89.8295 62.1024 91.0263 63.3511 91.0088 63.4163C90.9914 63.4813 89.2426 63.8269 87.1227 64.1847C85.0026 64.5421 79.6427 65.4504 75.2115 66.203L60.3642 68.7241C56.6293 69.3584 53.2628 69.9301 52.8829 69.9949C45.253 71.295 43.1537 71.6605 42.8574 71.7404C42.5594 71.8209 42.2681 72.6746 41.0531 77.0255L39.6039 82.2148L42.5651 84.9128L45.5261 87.6107L50.8771 86.7053C53.8202 86.2075 56.2449 85.7372 56.2656 85.6603C56.2861 85.5835 55.8875 85.1335 55.3801 84.66C54.8724 84.1864 53.837 83.1617 53.079 82.3825C52.3212 81.6033 51.5539 80.8691 51.374 80.7508C51.1941 80.6327 51.066 80.4761 51.0892 80.4025C51.1124 80.3292 53.4822 79.8801 56.3553 79.4043C61.9356 78.4804 66.2094 77.761 75.3889 76.2007C79.4936 75.5033 83.5985 74.8071 87.7035 74.112C91.3112 73.5014 95.5078 72.7838 97.0294 72.5173L99.7958 72.0328L101.261 66.7842L102.726 61.5359L99.7262 58.7862C98.0762 57.274 96.6555 56.0203 96.5687 56.0003C96.4821 55.98 94.0067 56.3707 91.0677 56.8687ZM96.9804 78.8039C96.3985 78.9208 95.256 79.1257 94.4416 79.2589C93.6273 79.3922 92.0795 79.6539 91.0022 79.8408L89.0437 80.1803L87.7658 84.7903C87.0629 87.3256 86.4166 89.3689 86.3294 89.3312C86.1315 89.2448 83.321 86.6704 80.5164 84.0059C78.4921 82.083 78.357 81.9919 77.7252 82.1225C77.36 82.1981 75.2016 82.558 72.9287 82.9227C70.6557 83.2873 68.714 83.6271 68.6133 83.6781C68.5129 83.7289 71.9957 87.0696 76.353 91.1021L84.2751 98.4338L88.7698 97.4215C91.2415 96.8648 93.3623 96.3211 93.4821 96.2133C93.7517 95.9711 98.3783 78.6392 98.1807 78.6113C98.1026 78.6003 97.5624 78.687 96.9804 78.8039ZM69.7099 93.2952C68.9465 93.4102 68.1832 93.5257 67.4199 93.6417C65.1143 93.9944 65.5106 94.1328 63.3885 92.2355C61.975 90.9719 61.3387 90.5284 60.9997 90.5701C60.7455 90.6013 58.5296 90.9736 56.0753 91.3971C53.6211 91.8207 51.5373 92.1469 51.4447 92.1221C50.5284 91.8765 51.8043 93.2082 56.8763 97.7917L62.8247 103.167L66.1146 102.491C67.924 102.119 71.5704 101.381 74.2179 100.851C76.8653 100.32 79.0106 99.8486 78.9852 99.8023C78.9595 99.7561 77.2744 98.2109 75.2402 96.3685L71.5417 93.0189L69.7099 93.2952Z" fill="black"></path></svg> 