<?xml version="1.0" encoding="UTF-8"?> <svg xmlns="http://www.w3.org/2000/svg" width="789" height="844" viewBox="0 0 789 844" fill="none"><path d="M670.866 261.935C696.147 305.882 709.683 355.568 710.197 406.216H419.437L565.868 155.329C609.422 181.282 645.584 217.986 670.866 261.935Z" stroke="#FEB46C" stroke-width="6"></path><path d="M670.701 582.42C645.158 626.45 608.731 663.157 564.937 689.036L419.113 436.463L710.757 437.684C710.03 488.548 696.245 538.391 670.701 582.42Z" stroke="#4DD147" stroke-width="6"></path><path d="M116.689 261.939C91.3242 305.885 77.7439 355.57 77.2277 406.216H368.979L222.054 155.323C178.347 181.277 142.059 217.985 116.689 261.939Z" stroke="#6365FA" stroke-width="6"></path><path d="M393.283 92.3617C342.38 92.4683 292.378 105.661 248.069 130.649L393.892 383.222L538.656 130.04C494.243 105.238 444.185 92.2551 393.283 92.3617Z" stroke="#F92F61" stroke-width="6"></path><path d="M117.511 582.42C143.055 626.45 179.481 663.157 223.276 689.036L369.099 436.463L77.4551 437.684C78.1821 488.548 91.9674 538.391 117.511 582.42Z" stroke="#FEA5F1" stroke-width="6"></path><path d="M393.283 750.747C342.38 750.64 292.378 737.448 248.069 712.459L393.892 459.886L538.656 713.068C494.243 737.87 444.185 750.853 393.283 750.747Z" stroke="#77D4FC" stroke-width="6"></path><ellipse cx="391" cy="120.5" rx="24" ry="11.5" fill="#FBCDFE"></ellipse><ellipse cx="24.322" cy="11.5165" rx="24.322" ry="11.5165" transform="matrix(0.989324 -0.145729 0.162939 0.986636 318.517 119)" fill="#FBCDFE"></ellipse><ellipse cx="24.2081" cy="11.5764" rx="24.2081" ry="11.5764" transform="matrix(0.949058 -0.315102 0.348851 0.937178 273.498 134)" fill="#FBCDFE"></ellipse><ellipse cx="24.322" cy="11.5165" rx="24.322" ry="11.5165" transform="matrix(-0.989324 -0.145729 -0.162939 0.986636 461.981 119)" fill="#FBCDFE"></ellipse><ellipse cx="24.2081" cy="11.5764" rx="24.2081" ry="11.5764" transform="matrix(-0.949058 -0.315102 -0.348851 0.937178 507 134)" fill="#FBCDFE"></ellipse><ellipse cx="389.498" cy="723.198" rx="24" ry="11.5" transform="rotate(180 389.498 723.198)" fill="#FBCDFE"></ellipse><ellipse cx="24.322" cy="11.5165" rx="24.322" ry="11.5165" transform="matrix(-0.989324 0.145729 -0.162939 -0.986636 461.981 724.698)" fill="#FBCDFE"></ellipse><ellipse cx="24.2081" cy="11.5764" rx="24.2081" ry="11.5764" transform="matrix(-0.949058 0.315102 -0.348851 -0.937178 507 709.698)" fill="#FBCDFE"></ellipse><ellipse cx="24.322" cy="11.5165" rx="24.322" ry="11.5165" transform="matrix(0.989324 0.145729 0.162939 -0.986636 318.516 724.698)" fill="#FBCDFE"></ellipse><ellipse cx="24.2081" cy="11.5764" rx="24.2081" ry="11.5764" transform="matrix(0.949058 0.315102 0.348851 -0.937178 273.497 709.698)" fill="#FBCDFE"></ellipse><ellipse cx="646.234" cy="279.51" rx="24" ry="11.5" transform="rotate(60 646.234 279.51)" fill="#FBCDFE"></ellipse><ellipse cx="24.322" cy="11.5165" rx="24.322" ry="11.5165" transform="matrix(0.620867 0.783915 -0.772982 0.634427 611.291 215.988)" fill="#FBCDFE"></ellipse><ellipse cx="24.2081" cy="11.5764" rx="24.2081" ry="11.5764" transform="matrix(0.747415 0.664357 -0.637195 0.770703 575.791 184.5)" fill="#FBCDFE"></ellipse><ellipse cx="24.322" cy="11.5165" rx="24.322" ry="11.5165" transform="matrix(-0.368457 -0.929645 -0.935921 0.352209 683.023 340.231)" fill="#FBCDFE"></ellipse><ellipse cx="24.2081" cy="11.5764" rx="24.2081" ry="11.5764" transform="matrix(-0.201643 -0.979459 -0.986046 0.166475 692.542 386.719)" fill="#FBCDFE"></ellipse><ellipse cx="24" cy="11.5" rx="24" ry="11.5" transform="matrix(-0.5 0.866025 0.866025 0.5 144 252.976)" fill="#FBCDFE"></ellipse><ellipse cx="24.322" cy="11.5165" rx="24.322" ry="11.5165" transform="matrix(-0.620867 0.783915 0.772982 0.634427 176.902 215.988)" fill="#FBCDFE"></ellipse><ellipse cx="24.2081" cy="11.5764" rx="24.2081" ry="11.5764" transform="matrix(-0.747415 0.664357 0.637195 0.770703 212.402 184.5)" fill="#FBCDFE"></ellipse><ellipse cx="24.322" cy="11.5165" rx="24.322" ry="11.5165" transform="matrix(0.368457 -0.929645 0.935921 0.352209 105.17 340.231)" fill="#FBCDFE"></ellipse><ellipse cx="24.2081" cy="11.5764" rx="24.2081" ry="11.5764" transform="matrix(0.201643 -0.979459 0.986046 0.166475 95.6506 386.719)" fill="#FBCDFE"></ellipse><ellipse cx="24" cy="11.5" rx="24" ry="11.5" transform="matrix(0.5 0.866025 0.866025 -0.5 120.751 552.325)" fill="#FBCDFE"></ellipse><ellipse cx="24.322" cy="11.5165" rx="24.322" ry="11.5165" transform="matrix(0.368457 0.929645 0.935921 -0.352209 105.17 505.337)" fill="#FBCDFE"></ellipse><ellipse cx="24.2081" cy="11.5764" rx="24.2081" ry="11.5764" transform="matrix(0.201643 0.979459 0.986046 -0.166475 95.6506 458.85)" fill="#FBCDFE"></ellipse><ellipse cx="24.322" cy="11.5165" rx="24.322" ry="11.5165" transform="matrix(-0.620867 -0.783915 0.772982 -0.634427 176.902 629.581)" fill="#FBCDFE"></ellipse><ellipse cx="24.2081" cy="11.5764" rx="24.2081" ry="11.5764" transform="matrix(-0.747415 -0.664357 0.637195 -0.770703 212.402 661.068)" fill="#FBCDFE"></ellipse><ellipse cx="644.483" cy="567.36" rx="24" ry="11.5" transform="rotate(120 644.483 567.36)" fill="#FBCDFE"></ellipse><ellipse cx="24.322" cy="11.5165" rx="24.322" ry="11.5165" transform="matrix(-0.368457 0.929645 -0.935921 -0.352209 682.023 505.337)" fill="#FBCDFE"></ellipse><ellipse cx="24.2081" cy="11.5764" rx="24.2081" ry="11.5764" transform="matrix(-0.201643 0.979459 -0.986046 -0.166475 691.542 458.85)" fill="#FBCDFE"></ellipse><ellipse cx="24.322" cy="11.5165" rx="24.322" ry="11.5165" transform="matrix(0.620867 -0.783915 -0.772982 -0.634427 610.291 629.581)" fill="#FBCDFE"></ellipse><ellipse cx="24.2081" cy="11.5764" rx="24.2081" ry="11.5764" transform="matrix(0.747415 -0.664357 -0.637195 -0.770703 574.791 661.068)" fill="#FBCDFE"></ellipse></svg> 