<?xml version="1.0" encoding="UTF-8"?> <svg xmlns="http://www.w3.org/2000/svg" width="85" height="69" viewBox="0 0 85 69" fill="none"><path d="M7.40579 29.6239C-1.85688 28.2286 -2.74273 32.2303 6.51994 33.6255C-0.102395 34.2984 1.26507 43.4421 7.88741 42.7763C0.878055 50.1635 7.77561 54.5972 14.785 47.21C7.5778 51.6154 15.0516 59.9021 22.2587 55.4967C16.075 62.0198 20.5043 64.867 26.688 58.3439C22.1211 67.2609 29.4745 69.8178 34.0413 60.9007C32.4417 71.0289 38.935 71.723 40.5347 61.5948C39.6832 68.1817 46.7356 68.8049 47.587 62.2181C46.7872 71.0076 52.7731 71.383 53.5815 62.5864C52.6011 69.7257 60.1179 70.4269 61.1069 63.2876C63.4634 70.2215 68.1937 69.1307 65.8372 62.1968C71.9263 66.1135 75.5126 62.3243 69.4235 58.4147C75.5126 62.3314 80.5095 57.0549 74.4204 53.1453C85.7042 55.6525 89.4712 44.1503 78.196 41.6431C86.4352 41.126 85.2053 27.9311 76.9661 28.4481C83.5885 24.0994 77.4477 17.7534 70.8254 22.1092C76.8801 16.7972 68.4947 10.3166 62.44 15.6286C69.6213 8.05726 55.336 -1.12182 48.1633 6.44242C49.4103 -1.03683 42.0139 -1.87258 40.7669 5.60667C40.5949 -1.9859 29.0703 -1.80884 29.2423 5.78374C25.1657 -0.533964 19.3002 2.02995 23.3768 8.34765C17.2447 4.40971 8.91946 13.1922 15.043 17.1372C8.91086 13.1992 3.27758 19.1416 9.40109 23.0866C2.83035 21.9959 1.8155 26.125 8.38624 27.2228C-1.71928 24.4677 -2.69113 26.8829 7.41439 29.6451L7.40579 29.6239Z" fill="#79D6D8"></path></svg> 