<?xml version="1.0" encoding="UTF-8"?> <svg xmlns="http://www.w3.org/2000/svg" width="194" height="94" viewBox="0 0 194 94" fill="none"><mask id="path-1-outside-1_70_10055" maskUnits="userSpaceOnUse" x="-5.58412" y="-1.77922" width="206.291" height="104.177" fill="black"><rect fill="white" x="-5.58412" y="-1.77922" width="206.291" height="104.177"></rect><path d="M46.7064 57.5238C46.9147 60.0143 47.0768 62.5139 47.1929 65.0227C47.355 67.5223 47.4759 69.9346 47.5553 72.2596C47.6348 74.5846 47.6638 76.7763 47.6422 78.8348C47.6668 80.8841 47.618 82.6852 47.4959 84.2382C46.5647 84.3758 45.5553 84.4813 44.4675 84.5545C43.435 84.6645 42.4394 84.7194 41.4808 84.7192C40.5314 84.7649 39.6511 84.7969 38.8399 84.8151C38.0288 84.8332 37.402 84.8147 36.9596 84.7595C37.0258 83.6475 37.1524 82.237 37.3393 80.5277C37.5262 78.8185 37.663 76.7371 37.7496 74.2835C36.6773 76.3601 35.1443 78.2895 33.1507 80.0718C31.1571 81.8541 28.8003 83.016 26.0803 83.5576C24.7895 83.8146 23.3608 83.8602 21.7941 83.6944C20.2274 83.5286 18.6797 82.9768 17.151 82.0391C15.6684 81.0922 14.311 79.6905 13.0786 77.8339C11.8371 75.9313 10.9007 73.3948 10.2695 70.2242C9.64741 67.0996 9.51395 63.9016 9.86912 60.6301C10.2704 57.3495 11.1967 54.2988 12.6481 51.478C14.1364 48.602 16.1817 46.1167 18.7842 44.0221C21.4236 41.8724 24.6795 40.412 28.5519 39.641C29.8889 39.3749 31.1658 39.1684 32.3827 39.0217C33.6457 38.8658 34.927 38.8017 36.2266 38.8296C37.5262 38.8575 38.8672 38.9727 40.2495 39.1752C41.6226 39.3318 43.1154 39.6078 44.7279 40.0034C44.717 41.1521 44.6275 42.388 44.4596 43.7113C44.2917 45.0346 44.0777 46.367 43.8176 47.7086C43.5484 49.0043 43.27 50.254 42.9825 51.4578C42.6949 52.6616 42.4214 53.6953 42.1621 54.5591C40.3374 54.3013 38.3929 54.0435 36.3286 53.7857C34.2643 53.5279 32.1719 53.6101 30.0512 54.0323C29.3136 54.1792 28.5435 54.5236 27.7407 55.0656C26.975 55.5525 26.3056 56.2829 25.7327 57.2568C25.1597 58.2308 24.7615 59.4805 24.538 61.0059C24.3053 62.4854 24.3949 64.259 24.8065 66.3267C25.1908 68.2567 25.843 69.7271 26.7632 70.7382C27.6743 71.7034 28.8905 72.0345 30.4118 71.7316C30.8267 71.649 31.3201 71.4791 31.892 71.2219C32.5099 70.9556 33.0911 70.6249 33.6355 70.2299C34.2169 69.7797 34.72 69.2974 35.1447 68.7829C35.6156 68.2592 35.8884 67.7033 35.963 67.1152C35.1793 67.2712 34.4232 67.4456 33.6947 67.6384C32.9571 67.7853 32.1965 67.9367 31.4127 68.0928L31.3167 67.6103C31.1337 66.6913 30.9694 65.6252 30.8237 64.4122C30.6689 63.1532 30.514 62.0136 30.3588 60.9935C30.7645 60.865 31.3547 60.6997 32.1293 60.4977C32.8947 60.2498 33.7569 60.0065 34.7158 59.7678C35.7118 59.4739 36.7399 59.2215 37.8002 59.0104C38.8974 58.7441 39.9532 58.5101 40.9674 58.3081C42.2582 58.0512 43.4199 57.8676 44.4524 57.7576C45.4758 57.6016 46.2271 57.5237 46.7064 57.5238Z"></path><path d="M66.0234 32.109C66.5953 31.8518 67.4022 31.5717 68.4443 31.2687C69.5324 30.9566 70.814 30.6536 72.2893 30.3599C73.8106 30.057 75.53 29.7864 77.4476 29.5479C78.9713 33.8306 80.4402 37.7182 81.8544 41.2106C83.3148 44.6938 84.7202 47.9013 86.0708 50.8331C87.4674 53.7558 88.846 56.467 90.2064 58.9669C91.6038 61.4117 93.0198 63.7095 94.4545 65.8602C92.9317 67.1188 90.9988 68.3635 88.6558 69.5943C86.368 70.8619 84.0018 72.0974 81.5574 73.3006C80.8304 72.5377 80.0163 71.4577 79.1151 70.0607C78.2139 68.6636 77.4051 67.1288 76.6886 65.4561C75.4896 65.9337 74.0556 66.4341 72.3865 66.9575C70.7634 67.4718 68.9007 67.9859 66.7984 68.5C66.6949 69.906 66.5824 71.1466 66.461 72.2218C66.3765 73.2418 66.3334 74.3491 66.3316 75.5438C63.9622 75.92 61.6853 76.0389 59.501 75.9005C57.3628 75.7529 55.1371 75.5273 52.824 75.2234C53.2802 72.2185 53.958 68.8829 54.8576 65.2164C55.7572 61.55 56.7859 57.8101 57.9438 53.9967C59.1387 50.1281 60.4164 46.3148 61.777 42.5566C63.1837 38.7892 64.5992 35.3066 66.0234 32.109ZM70.7042 45.5086C70.3058 46.8777 69.8838 48.6099 69.4382 50.705C69.0388 52.791 68.6204 55.1434 68.1833 57.7623C68.3216 57.7348 68.5106 57.721 68.7502 57.7211C68.9807 57.6752 69.2573 57.6201 69.58 57.5559C70.2254 57.4274 70.94 57.2851 71.7237 57.1291C72.4983 56.9271 73.1852 56.7665 73.7845 56.6471C73.1237 54.7723 72.5503 52.9756 72.0644 51.257C71.5693 49.4925 71.1159 47.5764 70.7042 45.5086Z"></path><path d="M94.6287 66.6137C95.0658 63.9948 95.5218 61.1094 95.9966 57.9574C96.5084 54.7504 96.9327 51.4652 97.2696 48.1019C97.6525 44.7294 97.9157 41.3569 98.059 37.9843C98.2023 34.6118 98.1471 31.446 97.8935 28.4868C99.7569 27.4948 101.758 26.5947 103.898 25.7866C106.084 24.9692 108.56 24.1657 111.326 23.3761C111.851 24.0838 112.402 25.1683 112.981 26.6296C113.605 28.0817 114.206 29.7774 114.784 31.7165C115.408 33.6465 115.999 35.774 116.558 38.0991C117.163 40.415 117.703 42.7677 118.179 45.1571L118.549 47.0181C119.303 42.1386 120.334 37.443 121.64 32.9312C122.983 28.3643 124.57 24.1788 126.401 20.3748C127.203 20.3106 128.153 20.2649 129.25 20.2376C130.383 20.1552 131.554 20.1371 132.761 20.1833C134.006 20.1744 135.209 20.1977 136.37 20.2531C137.522 20.2626 138.536 20.2996 139.412 20.3641C139.756 24.0217 140.17 27.7849 140.653 31.6539C141.172 35.4677 141.789 39.1667 142.503 42.7508C143.024 45.3699 143.61 47.8329 144.261 50.1397C144.903 52.4005 145.624 54.4545 146.423 56.3018C145.574 56.853 144.467 57.4317 143.102 58.0378C141.737 58.644 140.34 59.2088 138.91 59.7323C137.49 60.3017 136.148 60.7838 134.884 61.1787C133.63 61.6195 132.657 61.9087 131.966 62.0464C131.571 61.0262 131.213 59.951 130.892 58.8206C130.562 57.6442 130.274 56.4357 130.027 55.1951C129.103 50.5541 128.663 45.4583 128.708 39.9078C128.024 41.764 127.412 43.6293 126.875 45.5039C126.375 47.3233 125.934 49.083 125.554 50.783C125.219 52.4738 124.936 54.0589 124.703 55.5384C124.507 56.9627 124.395 58.2033 124.366 59.2601C123.877 59.453 123.356 59.6045 122.803 59.7146C122.296 59.8156 121.788 59.9165 121.281 60.0175C119.76 60.3204 118.363 60.5268 117.091 60.6368C115.819 60.7467 114.92 60.8062 114.395 60.8153C113.221 56.8451 112.18 53.4217 111.272 50.5451C110.363 47.6686 109.492 45.0953 108.656 42.8252C108.893 44.7367 109.06 46.9009 109.158 49.3178C109.293 51.6796 109.354 54.0321 109.341 56.3755C109.365 58.6637 109.33 60.7727 109.235 62.7025C109.177 64.5772 109.087 65.9326 108.966 66.7688C107.952 66.9708 106.73 67.0945 105.302 67.1401C103.873 67.1857 102.458 67.1808 101.057 67.1253C99.6652 67.1158 98.3841 67.0603 97.2136 66.959C95.9971 66.8668 95.1354 66.7517 94.6287 66.6137Z"></path><path d="M149.309 18.0354C149.964 17.7139 151.245 17.2915 153.154 16.7681C155.054 16.1988 157.235 15.5975 159.697 14.964C162.159 14.3305 164.745 13.72 167.456 13.1325C170.158 12.4991 172.661 11.9529 174.966 11.494C175.888 11.3105 176.764 11.1361 177.594 10.9709C178.423 10.8056 179.189 10.6772 179.889 10.5854C179.98 11.5228 180.071 12.5796 180.161 13.7559C180.298 14.923 180.383 16.0764 180.419 17.2159C180.5 18.3462 180.544 19.4122 180.552 20.4139C180.551 21.3696 180.536 22.1369 180.507 22.7159C178.829 22.9544 177.285 23.1424 175.875 23.2799C174.51 23.4082 173.146 23.5366 171.781 23.6649C170.454 23.7381 169.09 23.8664 167.688 24.0498C166.278 24.1873 164.738 24.3983 163.07 24.6828L163.045 31.7818C164.705 30.9735 166.564 30.1974 168.62 29.4536C170.714 28.6546 172.729 28.0623 174.665 27.6768L175.495 27.5116C175.806 29.0739 176.034 30.7006 176.179 32.3915C176.361 34.0273 176.469 35.4149 176.504 36.5545L174.707 36.9124C172.54 37.3438 170.599 37.8258 168.884 38.3584C167.205 38.8358 165.37 39.3684 163.378 39.956C163.414 40.8566 163.468 41.7296 163.54 42.5751C163.65 43.3654 163.75 44.2293 163.841 45.1666C166.275 44.6342 168.884 43.8997 171.67 42.963C174.445 41.9804 177.678 40.883 181.367 39.6709C181.614 40.6726 181.848 41.6054 182.067 42.4693C182.287 43.3332 182.489 44.2246 182.672 45.1436C182.974 46.66 183.252 48.4199 183.507 50.4233C181.405 51.1763 178.841 51.9017 175.817 52.5993C172.792 53.297 169.713 53.9579 166.578 54.5821C163.72 55.1511 161.018 55.6651 158.474 56.1239C155.929 56.5828 153.795 56.9361 152.071 57.1838C151.851 55.842 151.642 54.0684 151.443 51.8628C151.234 49.6113 151.021 47.2174 150.803 44.681C150.623 42.0895 150.429 39.429 150.221 36.6997C150.05 33.9152 149.893 31.3191 149.749 28.9114C149.642 26.4485 149.544 24.2706 149.454 22.3775C149.356 20.4385 149.307 18.9911 149.309 18.0354Z"></path></mask><path d="M46.7064 57.5238C46.9147 60.0143 47.0768 62.5139 47.1929 65.0227C47.355 67.5223 47.4759 69.9346 47.5553 72.2596C47.6348 74.5846 47.6638 76.7763 47.6422 78.8348C47.6668 80.8841 47.618 82.6852 47.4959 84.2382C46.5647 84.3758 45.5553 84.4813 44.4675 84.5545C43.435 84.6645 42.4394 84.7194 41.4808 84.7192C40.5314 84.7649 39.6511 84.7969 38.8399 84.8151C38.0288 84.8332 37.402 84.8147 36.9596 84.7595C37.0258 83.6475 37.1524 82.237 37.3393 80.5277C37.5262 78.8185 37.663 76.7371 37.7496 74.2835C36.6773 76.3601 35.1443 78.2895 33.1507 80.0718C31.1571 81.8541 28.8003 83.016 26.0803 83.5576C24.7895 83.8146 23.3608 83.8602 21.7941 83.6944C20.2274 83.5286 18.6797 82.9768 17.151 82.0391C15.6684 81.0922 14.311 79.6905 13.0786 77.8339C11.8371 75.9313 10.9007 73.3948 10.2695 70.2242C9.64741 67.0996 9.51395 63.9016 9.86912 60.6301C10.2704 57.3495 11.1967 54.2988 12.6481 51.478C14.1364 48.602 16.1817 46.1167 18.7842 44.0221C21.4236 41.8724 24.6795 40.412 28.5519 39.641C29.8889 39.3749 31.1658 39.1684 32.3827 39.0217C33.6457 38.8658 34.927 38.8017 36.2266 38.8296C37.5262 38.8575 38.8672 38.9727 40.2495 39.1752C41.6226 39.3318 43.1154 39.6078 44.7279 40.0034C44.717 41.1521 44.6275 42.388 44.4596 43.7113C44.2917 45.0346 44.0777 46.367 43.8176 47.7086C43.5484 49.0043 43.27 50.254 42.9825 51.4578C42.6949 52.6616 42.4214 53.6953 42.1621 54.5591C40.3374 54.3013 38.3929 54.0435 36.3286 53.7857C34.2643 53.5279 32.1719 53.6101 30.0512 54.0323C29.3136 54.1792 28.5435 54.5236 27.7407 55.0656C26.975 55.5525 26.3056 56.2829 25.7327 57.2568C25.1597 58.2308 24.7615 59.4805 24.538 61.0059C24.3053 62.4854 24.3949 64.259 24.8065 66.3267C25.1908 68.2567 25.843 69.7271 26.7632 70.7382C27.6743 71.7034 28.8905 72.0345 30.4118 71.7316C30.8267 71.649 31.3201 71.4791 31.892 71.2219C32.5099 70.9556 33.0911 70.6249 33.6355 70.2299C34.2169 69.7797 34.72 69.2974 35.1447 68.7829C35.6156 68.2592 35.8884 67.7033 35.963 67.1152C35.1793 67.2712 34.4232 67.4456 33.6947 67.6384C32.9571 67.7853 32.1965 67.9367 31.4127 68.0928L31.3167 67.6103C31.1337 66.6913 30.9694 65.6252 30.8237 64.4122C30.6689 63.1532 30.514 62.0136 30.3588 60.9935C30.7645 60.865 31.3547 60.6997 32.1293 60.4977C32.8947 60.2498 33.7569 60.0065 34.7158 59.7678C35.7118 59.4739 36.7399 59.2215 37.8002 59.0104C38.8974 58.7441 39.9532 58.5101 40.9674 58.3081C42.2582 58.0512 43.4199 57.8676 44.4524 57.7576C45.4758 57.6016 46.2271 57.5237 46.7064 57.5238Z" fill="#0F0E16"></path><path d="M66.0234 32.109C66.5953 31.8518 67.4022 31.5717 68.4443 31.2687C69.5324 30.9566 70.814 30.6536 72.2893 30.3599C73.8106 30.057 75.53 29.7864 77.4476 29.5479C78.9713 33.8306 80.4402 37.7182 81.8544 41.2106C83.3148 44.6938 84.7202 47.9013 86.0708 50.8331C87.4674 53.7558 88.846 56.467 90.2064 58.9669C91.6038 61.4117 93.0198 63.7095 94.4545 65.8602C92.9317 67.1188 90.9988 68.3635 88.6558 69.5943C86.368 70.8619 84.0018 72.0974 81.5574 73.3006C80.8304 72.5377 80.0163 71.4577 79.1151 70.0607C78.2139 68.6636 77.4051 67.1288 76.6886 65.4561C75.4896 65.9337 74.0556 66.4341 72.3865 66.9575C70.7634 67.4718 68.9007 67.9859 66.7984 68.5C66.6949 69.906 66.5824 71.1466 66.461 72.2218C66.3765 73.2418 66.3334 74.3491 66.3316 75.5438C63.9622 75.92 61.6853 76.0389 59.501 75.9005C57.3628 75.7529 55.1371 75.5273 52.824 75.2234C53.2802 72.2185 53.958 68.8829 54.8576 65.2164C55.7572 61.55 56.7859 57.8101 57.9438 53.9967C59.1387 50.1281 60.4164 46.3148 61.777 42.5566C63.1837 38.7892 64.5992 35.3066 66.0234 32.109ZM70.7042 45.5086C70.3058 46.8777 69.8838 48.6099 69.4382 50.705C69.0388 52.791 68.6204 55.1434 68.1833 57.7623C68.3216 57.7348 68.5106 57.721 68.7502 57.7211C68.9807 57.6752 69.2573 57.6201 69.58 57.5559C70.2254 57.4274 70.94 57.2851 71.7237 57.1291C72.4983 56.9271 73.1852 56.7665 73.7845 56.6471C73.1237 54.7723 72.5503 52.9756 72.0644 51.257C71.5693 49.4925 71.1159 47.5764 70.7042 45.5086Z" fill="#0F0E16"></path><path d="M94.6287 66.6137C95.0658 63.9948 95.5218 61.1094 95.9966 57.9574C96.5084 54.7504 96.9327 51.4652 97.2696 48.1019C97.6525 44.7294 97.9157 41.3569 98.059 37.9843C98.2023 34.6118 98.1471 31.446 97.8935 28.4868C99.7569 27.4948 101.758 26.5947 103.898 25.7866C106.084 24.9692 108.56 24.1657 111.326 23.3761C111.851 24.0838 112.402 25.1683 112.981 26.6296C113.605 28.0817 114.206 29.7774 114.784 31.7165C115.408 33.6465 115.999 35.774 116.558 38.0991C117.163 40.415 117.703 42.7677 118.179 45.1571L118.549 47.0181C119.303 42.1386 120.334 37.443 121.64 32.9312C122.983 28.3643 124.57 24.1788 126.401 20.3748C127.203 20.3106 128.153 20.2649 129.25 20.2376C130.383 20.1552 131.554 20.1371 132.761 20.1833C134.006 20.1744 135.209 20.1977 136.37 20.2531C137.522 20.2626 138.536 20.2996 139.412 20.3641C139.756 24.0217 140.17 27.7849 140.653 31.6539C141.172 35.4677 141.789 39.1667 142.503 42.7508C143.024 45.3699 143.61 47.8329 144.261 50.1397C144.903 52.4005 145.624 54.4545 146.423 56.3018C145.574 56.853 144.467 57.4317 143.102 58.0378C141.737 58.644 140.34 59.2088 138.91 59.7323C137.49 60.3017 136.148 60.7838 134.884 61.1787C133.63 61.6195 132.657 61.9087 131.966 62.0464C131.571 61.0262 131.213 59.951 130.892 58.8206C130.562 57.6442 130.274 56.4357 130.027 55.1951C129.103 50.5541 128.663 45.4583 128.708 39.9078C128.024 41.764 127.412 43.6293 126.875 45.5039C126.375 47.3233 125.934 49.083 125.554 50.783C125.219 52.4738 124.936 54.0589 124.703 55.5384C124.507 56.9627 124.395 58.2033 124.366 59.2601C123.877 59.453 123.356 59.6045 122.803 59.7146C122.296 59.8156 121.788 59.9165 121.281 60.0175C119.76 60.3204 118.363 60.5268 117.091 60.6368C115.819 60.7467 114.92 60.8062 114.395 60.8153C113.221 56.8451 112.18 53.4217 111.272 50.5451C110.363 47.6686 109.492 45.0953 108.656 42.8252C108.893 44.7367 109.06 46.9009 109.158 49.3178C109.293 51.6796 109.354 54.0321 109.341 56.3755C109.365 58.6637 109.33 60.7727 109.235 62.7025C109.177 64.5772 109.087 65.9326 108.966 66.7688C107.952 66.9708 106.73 67.0945 105.302 67.1401C103.873 67.1857 102.458 67.1808 101.057 67.1253C99.6652 67.1158 98.3841 67.0603 97.2136 66.959C95.9971 66.8668 95.1354 66.7517 94.6287 66.6137Z" fill="#0F0E16"></path><path d="M149.309 18.0354C149.964 17.7139 151.245 17.2915 153.154 16.7681C155.054 16.1988 157.235 15.5975 159.697 14.964C162.159 14.3305 164.745 13.72 167.456 13.1325C170.158 12.4991 172.661 11.9529 174.966 11.494C175.888 11.3105 176.764 11.1361 177.594 10.9709C178.423 10.8056 179.189 10.6772 179.889 10.5854C179.98 11.5228 180.071 12.5796 180.161 13.7559C180.298 14.923 180.383 16.0764 180.419 17.2159C180.5 18.3462 180.544 19.4122 180.552 20.4139C180.551 21.3696 180.536 22.1369 180.507 22.7159C178.829 22.9544 177.285 23.1424 175.875 23.2799C174.51 23.4082 173.146 23.5366 171.781 23.6649C170.454 23.7381 169.09 23.8664 167.688 24.0498C166.278 24.1873 164.738 24.3983 163.07 24.6828L163.045 31.7818C164.705 30.9735 166.564 30.1974 168.62 29.4536C170.714 28.6546 172.729 28.0623 174.665 27.6768L175.495 27.5116C175.806 29.0739 176.034 30.7006 176.179 32.3915C176.361 34.0273 176.469 35.4149 176.504 36.5545L174.707 36.9124C172.54 37.3438 170.599 37.8258 168.884 38.3584C167.205 38.8358 165.37 39.3684 163.378 39.956C163.414 40.8566 163.468 41.7296 163.54 42.5751C163.65 43.3654 163.75 44.2293 163.841 45.1666C166.275 44.6342 168.884 43.8997 171.67 42.963C174.445 41.9804 177.678 40.883 181.367 39.6709C181.614 40.6726 181.848 41.6054 182.067 42.4693C182.287 43.3332 182.489 44.2246 182.672 45.1436C182.974 46.66 183.252 48.4199 183.507 50.4233C181.405 51.1763 178.841 51.9017 175.817 52.5993C172.792 53.297 169.713 53.9579 166.578 54.5821C163.72 55.1511 161.018 55.6651 158.474 56.1239C155.929 56.5828 153.795 56.9361 152.071 57.1838C151.851 55.842 151.642 54.0684 151.443 51.8628C151.234 49.6113 151.021 47.2174 150.803 44.681C150.623 42.0895 150.429 39.429 150.221 36.6997C150.05 33.9152 149.893 31.3191 149.749 28.9114C149.642 26.4485 149.544 24.2706 149.454 22.3775C149.356 20.4385 149.307 18.9911 149.309 18.0354Z" fill="#0F0E16"></path><path d="M46.7064 57.5238C46.9147 60.0143 47.0768 62.5139 47.1929 65.0227C47.355 67.5223 47.4759 69.9346 47.5553 72.2596C47.6348 74.5846 47.6638 76.7763 47.6422 78.8348C47.6668 80.8841 47.618 82.6852 47.4959 84.2382C46.5647 84.3758 45.5553 84.4813 44.4675 84.5545C43.435 84.6645 42.4394 84.7194 41.4808 84.7192C40.5314 84.7649 39.6511 84.7969 38.8399 84.8151C38.0288 84.8332 37.402 84.8147 36.9596 84.7595C37.0258 83.6475 37.1524 82.237 37.3393 80.5277C37.5262 78.8185 37.663 76.7371 37.7496 74.2835C36.6773 76.3601 35.1443 78.2895 33.1507 80.0718C31.1571 81.8541 28.8003 83.016 26.0803 83.5576C24.7895 83.8146 23.3608 83.8602 21.7941 83.6944C20.2274 83.5286 18.6797 82.9768 17.151 82.0391C15.6684 81.0922 14.311 79.6905 13.0786 77.8339C11.8371 75.9313 10.9007 73.3948 10.2695 70.2242C9.64741 67.0996 9.51395 63.9016 9.86912 60.6301C10.2704 57.3495 11.1967 54.2988 12.6481 51.478C14.1364 48.602 16.1817 46.1167 18.7842 44.0221C21.4236 41.8724 24.6795 40.412 28.5519 39.641C29.8889 39.3749 31.1658 39.1684 32.3827 39.0217C33.6457 38.8658 34.927 38.8017 36.2266 38.8296C37.5262 38.8575 38.8672 38.9727 40.2495 39.1752C41.6226 39.3318 43.1154 39.6078 44.7279 40.0034C44.717 41.1521 44.6275 42.388 44.4596 43.7113C44.2917 45.0346 44.0777 46.367 43.8176 47.7086C43.5484 49.0043 43.27 50.254 42.9825 51.4578C42.6949 52.6616 42.4214 53.6953 42.1621 54.5591C40.3374 54.3013 38.3929 54.0435 36.3286 53.7857C34.2643 53.5279 32.1719 53.6101 30.0512 54.0323C29.3136 54.1792 28.5435 54.5236 27.7407 55.0656C26.975 55.5525 26.3056 56.2829 25.7327 57.2568C25.1597 58.2308 24.7615 59.4805 24.538 61.0059C24.3053 62.4854 24.3949 64.259 24.8065 66.3267C25.1908 68.2567 25.843 69.7271 26.7632 70.7382C27.6743 71.7034 28.8905 72.0345 30.4118 71.7316C30.8267 71.649 31.3201 71.4791 31.892 71.2219C32.5099 70.9556 33.0911 70.6249 33.6355 70.2299C34.2169 69.7797 34.72 69.2974 35.1447 68.7829C35.6156 68.2592 35.8884 67.7033 35.963 67.1152C35.1793 67.2712 34.4232 67.4456 33.6947 67.6384C32.9571 67.7853 32.1965 67.9367 31.4127 68.0928L31.3167 67.6103C31.1337 66.6913 30.9694 65.6252 30.8237 64.4122C30.6689 63.1532 30.514 62.0136 30.3588 60.9935C30.7645 60.865 31.3547 60.6997 32.1293 60.4977C32.8947 60.2498 33.7569 60.0065 34.7158 59.7678C35.7118 59.4739 36.7399 59.2215 37.8002 59.0104C38.8974 58.7441 39.9532 58.5101 40.9674 58.3081C42.2582 58.0512 43.4199 57.8676 44.4524 57.7576C45.4758 57.6016 46.2271 57.5237 46.7064 57.5238Z" stroke="white" stroke-width="18" mask="url(#path-1-outside-1_70_10055)"></path><path d="M66.0234 32.109C66.5953 31.8518 67.4022 31.5717 68.4443 31.2687C69.5324 30.9566 70.814 30.6536 72.2893 30.3599C73.8106 30.057 75.53 29.7864 77.4476 29.5479C78.9713 33.8306 80.4402 37.7182 81.8544 41.2106C83.3148 44.6938 84.7202 47.9013 86.0708 50.8331C87.4674 53.7558 88.846 56.467 90.2064 58.9669C91.6038 61.4117 93.0198 63.7095 94.4545 65.8602C92.9317 67.1188 90.9988 68.3635 88.6558 69.5943C86.368 70.8619 84.0018 72.0974 81.5574 73.3006C80.8304 72.5377 80.0163 71.4577 79.1151 70.0607C78.2139 68.6636 77.4051 67.1288 76.6886 65.4561C75.4896 65.9337 74.0556 66.4341 72.3865 66.9575C70.7634 67.4718 68.9007 67.9859 66.7984 68.5C66.6949 69.906 66.5824 71.1466 66.461 72.2218C66.3765 73.2418 66.3334 74.3491 66.3316 75.5438C63.9622 75.92 61.6853 76.0389 59.501 75.9005C57.3628 75.7529 55.1371 75.5273 52.824 75.2234C53.2802 72.2185 53.958 68.8829 54.8576 65.2164C55.7572 61.55 56.7859 57.8101 57.9438 53.9967C59.1387 50.1281 60.4164 46.3148 61.777 42.5566C63.1837 38.7892 64.5992 35.3066 66.0234 32.109ZM70.7042 45.5086C70.3058 46.8777 69.8838 48.6099 69.4382 50.705C69.0388 52.791 68.6204 55.1434 68.1833 57.7623C68.3216 57.7348 68.5106 57.721 68.7502 57.7211C68.9807 57.6752 69.2573 57.6201 69.58 57.5559C70.2254 57.4274 70.94 57.2851 71.7237 57.1291C72.4983 56.9271 73.1852 56.7665 73.7845 56.6471C73.1237 54.7723 72.5503 52.9756 72.0644 51.257C71.5693 49.4925 71.1159 47.5764 70.7042 45.5086Z" stroke="white" stroke-width="18" mask="url(#path-1-outside-1_70_10055)"></path><path d="M94.6287 66.6137C95.0658 63.9948 95.5218 61.1094 95.9966 57.9574C96.5084 54.7504 96.9327 51.4652 97.2696 48.1019C97.6525 44.7294 97.9157 41.3569 98.059 37.9843C98.2023 34.6118 98.1471 31.446 97.8935 28.4868C99.7569 27.4948 101.758 26.5947 103.898 25.7866C106.084 24.9692 108.56 24.1657 111.326 23.3761C111.851 24.0838 112.402 25.1683 112.981 26.6296C113.605 28.0817 114.206 29.7774 114.784 31.7165C115.408 33.6465 115.999 35.774 116.558 38.0991C117.163 40.415 117.703 42.7677 118.179 45.1571L118.549 47.0181C119.303 42.1386 120.334 37.443 121.64 32.9312C122.983 28.3643 124.57 24.1788 126.401 20.3748C127.203 20.3106 128.153 20.2649 129.25 20.2376C130.383 20.1552 131.554 20.1371 132.761 20.1833C134.006 20.1744 135.209 20.1977 136.37 20.2531C137.522 20.2626 138.536 20.2996 139.412 20.3641C139.756 24.0217 140.17 27.7849 140.653 31.6539C141.172 35.4677 141.789 39.1667 142.503 42.7508C143.024 45.3699 143.61 47.8329 144.261 50.1397C144.903 52.4005 145.624 54.4545 146.423 56.3018C145.574 56.853 144.467 57.4317 143.102 58.0378C141.737 58.644 140.34 59.2088 138.91 59.7323C137.49 60.3017 136.148 60.7838 134.884 61.1787C133.63 61.6195 132.657 61.9087 131.966 62.0464C131.571 61.0262 131.213 59.951 130.892 58.8206C130.562 57.6442 130.274 56.4357 130.027 55.1951C129.103 50.5541 128.663 45.4583 128.708 39.9078C128.024 41.764 127.412 43.6293 126.875 45.5039C126.375 47.3233 125.934 49.083 125.554 50.783C125.219 52.4738 124.936 54.0589 124.703 55.5384C124.507 56.9627 124.395 58.2033 124.366 59.2601C123.877 59.453 123.356 59.6045 122.803 59.7146C122.296 59.8156 121.788 59.9165 121.281 60.0175C119.76 60.3204 118.363 60.5268 117.091 60.6368C115.819 60.7467 114.92 60.8062 114.395 60.8153C113.221 56.8451 112.18 53.4217 111.272 50.5451C110.363 47.6686 109.492 45.0953 108.656 42.8252C108.893 44.7367 109.06 46.9009 109.158 49.3178C109.293 51.6796 109.354 54.0321 109.341 56.3755C109.365 58.6637 109.33 60.7727 109.235 62.7025C109.177 64.5772 109.087 65.9326 108.966 66.7688C107.952 66.9708 106.73 67.0945 105.302 67.1401C103.873 67.1857 102.458 67.1808 101.057 67.1253C99.6652 67.1158 98.3841 67.0603 97.2136 66.959C95.9971 66.8668 95.1354 66.7517 94.6287 66.6137Z" stroke="white" stroke-width="18" mask="url(#path-1-outside-1_70_10055)"></path><path d="M149.309 18.0354C149.964 17.7139 151.245 17.2915 153.154 16.7681C155.054 16.1988 157.235 15.5975 159.697 14.964C162.159 14.3305 164.745 13.72 167.456 13.1325C170.158 12.4991 172.661 11.9529 174.966 11.494C175.888 11.3105 176.764 11.1361 177.594 10.9709C178.423 10.8056 179.189 10.6772 179.889 10.5854C179.98 11.5228 180.071 12.5796 180.161 13.7559C180.298 14.923 180.383 16.0764 180.419 17.2159C180.5 18.3462 180.544 19.4122 180.552 20.4139C180.551 21.3696 180.536 22.1369 180.507 22.7159C178.829 22.9544 177.285 23.1424 175.875 23.2799C174.51 23.4082 173.146 23.5366 171.781 23.6649C170.454 23.7381 169.09 23.8664 167.688 24.0498C166.278 24.1873 164.738 24.3983 163.07 24.6828L163.045 31.7818C164.705 30.9735 166.564 30.1974 168.62 29.4536C170.714 28.6546 172.729 28.0623 174.665 27.6768L175.495 27.5116C175.806 29.0739 176.034 30.7006 176.179 32.3915C176.361 34.0273 176.469 35.4149 176.504 36.5545L174.707 36.9124C172.54 37.3438 170.599 37.8258 168.884 38.3584C167.205 38.8358 165.37 39.3684 163.378 39.956C163.414 40.8566 163.468 41.7296 163.54 42.5751C163.65 43.3654 163.75 44.2293 163.841 45.1666C166.275 44.6342 168.884 43.8997 171.67 42.963C174.445 41.9804 177.678 40.883 181.367 39.6709C181.614 40.6726 181.848 41.6054 182.067 42.4693C182.287 43.3332 182.489 44.2246 182.672 45.1436C182.974 46.66 183.252 48.4199 183.507 50.4233C181.405 51.1763 178.841 51.9017 175.817 52.5993C172.792 53.297 169.713 53.9579 166.578 54.5821C163.72 55.1511 161.018 55.6651 158.474 56.1239C155.929 56.5828 153.795 56.9361 152.071 57.1838C151.851 55.842 151.642 54.0684 151.443 51.8628C151.234 49.6113 151.021 47.2174 150.803 44.681C150.623 42.0895 150.429 39.429 150.221 36.6997C150.05 33.9152 149.893 31.3191 149.749 28.9114C149.642 26.4485 149.544 24.2706 149.454 22.3775C149.356 20.4385 149.307 18.9911 149.309 18.0354Z" stroke="white" stroke-width="18" mask="url(#path-1-outside-1_70_10055)"></path></svg> 