<?xml version="1.0" encoding="UTF-8"?> <svg xmlns="http://www.w3.org/2000/svg" width="421" height="337" viewBox="0 0 421 337" fill="none"><path d="M36.6804 144.685C-9.19704 137.87 -13.5846 157.414 32.2929 164.229C-0.507155 167.515 6.26584 212.174 39.0659 208.922C4.34896 245.001 38.5121 266.656 73.2291 230.576C37.5324 252.093 74.5496 292.565 110.246 271.049C79.6187 302.908 101.556 316.814 132.184 284.955C109.565 328.506 145.986 340.994 168.605 297.443C160.682 346.909 192.843 350.299 200.766 300.833C196.549 333.003 231.479 336.047 235.696 303.877C231.734 346.805 261.382 348.639 265.386 305.676C260.53 340.544 297.76 343.969 302.659 309.1C314.331 342.966 337.759 337.639 326.088 303.773C356.247 322.902 374.01 304.396 343.851 285.301C374.01 304.43 398.759 278.659 368.6 259.565C424.488 271.81 443.145 215.633 387.3 203.387C428.108 200.862 422.017 136.417 381.209 138.942C414.009 117.703 383.594 86.7085 350.794 107.983C380.783 82.0386 339.25 50.387 309.262 76.3309C344.83 39.3521 274.076 -5.47904 238.55 31.4652C244.726 -5.06394 208.093 -9.14579 201.916 27.3833C201.064 -9.69926 143.983 -8.83446 144.835 28.2481C124.644 -2.60791 95.5927 9.91438 115.784 40.7704C85.4119 21.5373 44.1776 64.4313 74.507 83.699C44.135 64.4659 16.2336 93.4885 46.563 112.756C14.0186 107.429 8.99208 127.596 41.5365 132.958C-8.51548 119.502 -13.329 131.298 36.723 144.788L36.6804 144.685Z" fill="#0F0E16"></path></svg> 