<?xml version="1.0" encoding="UTF-8"?> <svg xmlns="http://www.w3.org/2000/svg" width="505" height="405" viewBox="0 0 505 405" fill="none"><path d="M43.9991 173.879C-11.0321 165.689 -16.295 189.178 38.7361 197.367C-0.608346 201.317 7.51603 254.986 46.8605 251.078C5.21668 294.438 46.1963 320.462 87.8401 277.102C45.021 302.96 89.4241 351.599 132.243 325.741C95.5046 364.029 121.819 380.741 158.558 342.453C131.426 394.792 175.113 409.8 202.246 357.461C192.742 416.909 231.32 420.983 240.824 361.535C235.765 400.197 277.664 403.855 282.723 365.193C277.971 416.784 313.534 418.987 318.337 367.355C312.512 409.259 357.171 413.375 363.047 371.471C377.047 412.169 405.151 405.767 391.15 365.068C427.327 388.058 448.634 365.817 412.457 342.869C448.634 365.858 478.321 334.887 442.145 311.94C509.184 326.656 531.564 259.143 464.576 244.427C513.527 241.392 506.22 163.943 457.269 166.978C496.614 141.453 460.131 104.205 420.786 129.771C456.758 98.5924 406.939 60.5541 370.967 91.733C413.633 47.2926 328.761 -6.58461 286.146 37.8142C293.555 -6.08575 249.612 -10.9912 242.203 32.9087C241.181 -11.6564 172.712 -10.6171 173.734 33.948C149.514 -3.13413 114.666 11.9149 138.886 48.9971C102.454 25.8831 52.9921 77.4323 89.373 100.588C52.941 77.4738 19.4727 112.353 55.8535 135.508C16.8156 129.106 10.7862 153.343 49.8241 159.786C-10.2145 143.615 -15.9885 157.791 44.0502 174.004L43.9991 173.879Z" fill="url(#paint0_linear_109_8476)"></path><path d="M77.6 179.7C82.1333 178.3 86.3333 177.233 90.2 176.5C94.1333 175.767 97.7667 175.4 101.1 175.4C107.967 175.4 113.267 176.933 117 180C120.8 183 122.7 187.567 122.7 193.7C122.7 198.633 121.933 202.867 120.4 206.4C118.867 209.933 116.867 212.833 114.4 215.1C111.933 217.3 109.1 218.933 105.9 220C102.767 221 99.6 221.5 96.4 221.5C94.2667 221.5 92.1667 221.3 90.1 220.9C89.5667 224.033 89.2667 226.567 89.2 228.5C89.1333 230.433 88.9667 232.267 88.7 234C87.1667 234.4 85.5333 234.667 83.8 234.8C82.1333 235 80.4667 235.1 78.8 235.1C77.2667 235.1 75.8333 235.033 74.5 234.9C73.2333 234.767 72.0333 234.633 70.9 234.5C70.9 233.433 71 231.6 71.2 229C71.4667 226.333 71.7667 223.3 72.1 219.9C72.5 216.433 72.9333 212.733 73.4 208.8C73.8667 204.867 74.3333 201.067 74.8 197.4C75.3333 193.667 75.8333 190.267 76.3 187.2C76.7667 184.067 77.2 181.567 77.6 179.7ZM94.5 193.6C94.1 195.533 93.6333 197.8 93.1 200.4C92.6333 202.933 92.2333 205.867 91.9 209.2C92.2333 209.267 92.5667 209.333 92.9 209.4C93.2333 209.4 93.6 209.4 94 209.4C95.0667 209.4 96.1667 209.233 97.3 208.9C98.5 208.567 99.5667 208 100.5 207.2C101.433 206.333 102.2 205.233 102.8 203.9C103.4 202.567 103.7 200.9 103.7 198.9C103.7 196.767 103.233 195.267 102.3 194.4C101.367 193.533 100.1 193.1 98.5 193.1C97.9 193.1 97.2667 193.167 96.6 193.3C95.9333 193.367 95.2333 193.467 94.5 193.6ZM157.611 235.2C157.744 234 157.944 232.3 158.211 230.1C158.478 227.833 158.811 225.233 159.211 222.3C158.078 222.367 156.911 222.4 155.711 222.4C154.511 222.4 153.344 222.4 152.211 222.4C151.344 222.4 150.511 222.4 149.711 222.4C148.911 222.4 148.144 222.367 147.411 222.3C147.011 225.033 146.678 227.4 146.411 229.4C146.211 231.333 146.044 232.767 145.911 233.7C145.044 233.833 143.911 233.967 142.511 234.1C141.178 234.233 139.744 234.367 138.211 234.5C136.678 234.633 135.178 234.733 133.711 234.8C132.244 234.933 130.978 235 129.911 235C129.511 235 129.144 235 128.811 235C128.478 235 128.178 234.967 127.911 234.9C127.978 233.367 128.144 231 128.411 227.8C128.744 224.6 129.111 221 129.511 217C129.978 212.933 130.411 208.767 130.811 204.5C131.278 200.167 131.711 196.133 132.111 192.4C132.578 188.667 132.978 185.5 133.311 182.9C133.644 180.233 133.878 178.567 134.011 177.9C135.344 177.767 136.844 177.667 138.511 177.6C140.244 177.467 142.044 177.4 143.911 177.4C145.844 177.4 147.778 177.467 149.711 177.6C151.644 177.667 153.378 177.833 154.911 178.1C154.578 179.7 154.178 181.667 153.711 184C153.311 186.333 152.844 188.867 152.311 191.6C151.844 194.333 151.344 197.2 150.811 200.2C150.344 203.133 149.878 206.067 149.411 209C151.011 208.733 152.811 208.433 154.811 208.1C156.878 207.767 158.978 207.5 161.111 207.3C161.511 204.033 161.911 200.8 162.311 197.6C162.711 194.4 163.078 191.467 163.411 188.8C163.744 186.067 164.011 183.7 164.211 181.7C164.411 179.7 164.544 178.3 164.611 177.5C165.878 177.367 167.378 177.267 169.111 177.2C170.911 177.133 172.711 177.1 174.511 177.1C176.711 177.1 178.744 177.167 180.611 177.3C182.544 177.367 183.944 177.533 184.811 177.8C184.544 180.333 184.144 183.367 183.611 186.9C183.144 190.367 182.611 194.033 182.011 197.9C181.411 201.767 180.778 205.667 180.111 209.6C179.511 213.533 178.911 217.2 178.311 220.6C177.778 223.933 177.278 226.833 176.811 229.3C176.411 231.7 176.111 233.367 175.911 234.3C174.244 234.7 172.411 234.967 170.411 235.1C168.478 235.233 166.611 235.3 164.811 235.3C163.144 235.3 161.644 235.267 160.311 235.2C159.044 235.2 158.144 235.2 157.611 235.2ZM215.819 175.6C216.685 175.4 217.885 175.233 219.419 175.1C221.019 174.967 222.885 174.9 225.019 174.9C227.219 174.9 229.685 175 232.419 175.2C233.352 181.6 234.319 187.433 235.319 192.7C236.385 197.967 237.452 202.833 238.519 207.3C239.652 211.767 240.819 215.933 242.019 219.8C243.285 223.6 244.619 227.2 246.019 230.6C243.552 231.933 240.519 233.133 236.919 234.2C233.385 235.333 229.752 236.4 226.019 237.4C225.219 236.133 224.385 234.4 223.519 232.2C222.652 230 221.952 227.633 221.419 225.1C219.619 225.433 217.485 225.733 215.019 226C212.619 226.267 209.885 226.467 206.819 226.6C206.285 228.533 205.785 230.233 205.319 231.7C204.919 233.1 204.552 234.633 204.219 236.3C200.819 236.167 197.619 235.7 194.619 234.9C191.685 234.1 188.652 233.167 185.519 232.1C186.985 228.033 188.852 223.567 191.119 218.7C193.385 213.833 195.852 208.9 198.519 203.9C201.252 198.833 204.085 193.867 207.019 189C210.019 184.133 212.952 179.667 215.819 175.6ZM218.619 195.6C217.685 197.4 216.619 199.7 215.419 202.5C214.285 205.3 213.052 208.467 211.719 212C211.919 212 212.185 212.033 212.519 212.1C212.852 212.1 213.252 212.1 213.719 212.1C214.652 212.1 215.685 212.1 216.819 212.1C217.952 212.033 218.952 212 219.819 212C219.419 209.2 219.119 206.533 218.919 204C218.719 201.4 218.619 198.6 218.619 195.6ZM289.43 199.4C289.03 199.267 288.33 198.9 287.33 198.3C286.396 197.633 285.263 196.933 283.93 196.2C282.663 195.467 281.263 194.8 279.73 194.2C278.263 193.6 276.83 193.3 275.43 193.3C273.63 193.3 272.196 193.733 271.13 194.6C270.13 195.4 269.63 196.367 269.63 197.5C269.63 198.633 270.196 199.733 271.33 200.8C272.463 201.867 274.296 202.667 276.83 203.2C280.63 204 283.663 205.067 285.93 206.4C288.196 207.667 289.93 209.033 291.13 210.5C292.396 211.9 293.23 213.333 293.63 214.8C294.03 216.2 294.23 217.4 294.23 218.4C294.23 221.733 293.53 224.7 292.13 227.3C290.73 229.833 288.93 231.967 286.73 233.7C284.53 235.433 282.03 236.733 279.23 237.6C276.496 238.533 273.73 239 270.93 239C267.996 239 265.23 238.667 262.63 238C260.03 237.4 257.663 236.533 255.53 235.4C253.463 234.333 251.663 233.033 250.13 231.5C248.663 229.967 247.596 228.267 246.93 226.4C247.796 225.267 248.763 224.133 249.83 223C250.963 221.8 252.13 220.667 253.33 219.6C254.53 218.467 255.696 217.4 256.83 216.4C258.03 215.4 259.096 214.5 260.03 213.7C262.363 216.5 264.596 218.467 266.73 219.6C268.93 220.667 270.896 221.2 272.63 221.2C273.496 221.2 274.33 221 275.13 220.6C275.93 220.133 276.33 219.133 276.33 217.6C276.33 216.8 276.163 216.167 275.83 215.7C275.496 215.167 274.93 214.7 274.13 214.3C273.33 213.9 272.296 213.5 271.03 213.1C269.763 212.7 268.196 212.2 266.33 211.6C263.996 210.867 261.83 210.067 259.83 209.2C257.896 208.267 256.23 207.167 254.83 205.9C253.43 204.633 252.33 203.167 251.53 201.5C250.73 199.767 250.33 197.7 250.33 195.3C250.33 191.433 250.996 188.1 252.33 185.3C253.663 182.5 255.463 180.2 257.73 178.4C259.996 176.6 262.596 175.3 265.53 174.5C268.53 173.633 271.696 173.2 275.03 173.2C279.696 173.2 284.363 174 289.03 175.6C293.696 177.133 297.763 179.3 301.23 182.1C300.696 183.633 299.963 185.233 299.03 186.9C298.096 188.5 297.063 190.067 295.93 191.6C294.863 193.133 293.73 194.6 292.53 196C291.396 197.333 290.363 198.467 289.43 199.4ZM310.662 179.1C311.662 178.833 313.562 178.6 316.362 178.4C319.162 178.133 322.362 177.9 325.962 177.7C329.562 177.5 333.328 177.367 337.262 177.3C341.195 177.167 344.828 177.1 348.162 177.1C349.495 177.1 350.762 177.1 351.962 177.1C353.162 177.1 354.262 177.133 355.262 177.2C355.128 178.533 354.962 180.033 354.762 181.7C354.628 183.367 354.428 185 354.162 186.6C353.962 188.2 353.728 189.7 353.462 191.1C353.195 192.433 352.962 193.5 352.762 194.3C350.362 194.167 348.162 194 346.162 193.8C344.228 193.6 342.295 193.4 340.362 193.2C338.495 192.933 336.562 192.733 334.562 192.6C332.562 192.4 330.362 192.267 327.962 192.2L325.962 202.1C328.495 201.433 331.295 200.867 334.362 200.4C337.495 199.867 340.462 199.6 343.262 199.6H344.462C344.462 201.867 344.328 204.2 344.062 206.6C343.862 208.933 343.628 210.9 343.362 212.5H340.762C337.628 212.5 334.795 212.633 332.262 212.9C329.795 213.1 327.095 213.333 324.162 213.6C323.962 214.867 323.795 216.1 323.662 217.3C323.595 218.433 323.495 219.667 323.362 221C326.895 220.933 330.728 220.633 334.862 220.1C338.995 219.5 343.795 218.867 349.262 218.2C349.328 219.667 349.395 221.033 349.462 222.3C349.528 223.567 349.562 224.867 349.562 226.2C349.562 228.4 349.462 230.933 349.262 233.8C346.128 234.267 342.362 234.567 337.962 234.7C333.562 234.833 329.095 234.9 324.562 234.9C320.428 234.9 316.528 234.867 312.862 234.8C309.195 234.733 306.128 234.633 303.662 234.5C303.728 232.567 303.928 230.033 304.262 226.9C304.595 223.7 304.962 220.3 305.362 216.7C305.828 213.033 306.295 209.267 306.762 205.4C307.295 201.467 307.795 197.8 308.262 194.4C308.795 190.933 309.262 187.867 309.662 185.2C310.062 182.467 310.395 180.433 310.662 179.1ZM389.929 191.8C391.129 191.533 392.796 190.933 394.929 190C397.129 189.067 399.396 187.967 401.729 186.7C404.062 185.367 406.262 183.933 408.329 182.4C410.396 180.867 411.896 179.367 412.829 177.9C413.962 177.7 415.196 177.567 416.529 177.5C417.862 177.367 419.196 177.3 420.529 177.3C422.262 177.3 423.862 177.367 425.329 177.5C426.796 177.633 427.962 177.8 428.829 178C428.496 182.067 428.029 186.367 427.429 190.9C426.896 195.367 426.329 199.6 425.729 203.6C425.196 207.533 424.696 211 424.229 214C423.762 217 423.429 219 423.229 220C424.229 219.867 425.096 219.8 425.829 219.8C426.562 219.733 427.262 219.7 427.929 219.7H431.129C431.129 220.9 431.096 222.167 431.029 223.5C430.962 224.833 430.862 226.2 430.729 227.6C430.596 228.933 430.429 230.233 430.229 231.5C430.096 232.7 429.929 233.8 429.729 234.8C426.196 235.2 422.662 235.467 419.129 235.6C415.662 235.733 412.296 235.8 409.029 235.8C404.762 235.8 400.896 235.7 397.429 235.5C393.962 235.367 391.196 235.167 389.129 234.9C389.129 232.767 389.162 230.467 389.229 228C389.362 225.467 389.662 222.933 390.129 220.4C393.529 220.4 396.496 220.367 399.029 220.3C401.562 220.167 403.262 220.1 404.129 220.1C404.396 218.3 404.762 216.233 405.229 213.9C405.696 211.5 406.162 209.167 406.629 206.9C407.096 204.633 407.529 202.567 407.929 200.7C408.329 198.833 408.629 197.467 408.829 196.6C407.896 198.133 406.929 199.433 405.929 200.5C404.996 201.567 404.029 202.467 403.029 203.2C402.029 203.933 400.962 204.6 399.829 205.2C398.762 205.8 397.629 206.4 396.429 207C395.496 205.933 394.662 204.733 393.929 203.4C393.196 202.067 392.562 200.733 392.029 199.4C391.496 198 391.062 196.667 390.729 195.4C390.396 194.067 390.129 192.867 389.929 191.8Z" fill="white"></path><defs><linearGradient id="paint0_linear_109_8476" x1="0" y1="405" x2="490.931" y2="-16.3912" gradientUnits="userSpaceOnUse"><stop stop-color="#B7A1FF"></stop><stop offset="0.485" stop-color="#7FA8DF"></stop><stop offset="1" stop-color="#83FBF0"></stop></linearGradient></defs></svg> 