<?xml version="1.0" encoding="UTF-8"?> <svg xmlns="http://www.w3.org/2000/svg" width="185" height="185" viewBox="0 0 185 185" fill="none"><rect x="0.184937" width="184.815" height="184.815" rx="92.4075" fill="white"></rect><path d="M47.2539 87.9019L105.913 63.0569C111.703 60.4689 131.34 52.1872 131.34 52.1872C131.34 52.1872 140.403 48.564 139.648 57.3633C139.396 60.9865 137.382 73.6678 135.368 87.3843L129.074 128.016C129.074 128.016 128.571 133.969 124.291 135.004C120.011 136.039 112.962 131.381 111.703 130.345C110.696 129.569 92.8216 117.923 86.2759 112.229C84.5136 110.676 82.4996 107.571 86.5277 103.948C95.5909 95.4072 106.416 84.7963 112.962 78.0674C115.983 74.9618 119.004 67.7153 106.416 76.5146L70.9189 101.101C70.9189 101.101 66.8908 103.689 59.3381 101.36C51.7855 99.0304 42.974 95.9248 42.974 95.9248C42.974 95.9248 36.9319 92.0427 47.2539 87.9019Z" fill="black"></path></svg> 