<?xml version="1.0" encoding="UTF-8"?> <svg xmlns="http://www.w3.org/2000/svg" width="722" height="474" viewBox="0 0 722 474" fill="none"><path d="M706.879 64.4915C707.239 62.6867 706.758 61.0323 704.925 60.0998C694.132 54.6854 686.587 46.4135 675.043 42.3827C660.553 37.3594 645.853 32.1556 631.122 27.9143C616.181 23.5828 600.76 22.4096 585.518 19.6122C571.359 17.0253 557.41 13.2653 543.191 11.0695C512.287 6.25671 480.481 8.93383 449.247 6.91847C414.646 4.66247 381.487 0.69192 346.705 3.00808C331.344 4.0308 315.982 5.59495 300.59 5.80551C284.687 6.01607 269.055 2.13576 253.092 4.51207C220.054 9.38503 186.595 13.9873 153.917 20.9057C126.711 26.681 97.3407 28.8768 71.9082 40.4576C58.4103 46.5939 44.4916 52.0083 31.1741 58.4154C24.831 61.4835 20.5622 66.5971 16.6241 72.0717C14.4296 71.9213 10.4614 74.1472 9.55953 76.1325C8.50736 78.4185 7.63556 80.7948 7.15457 83.1411C6.7337 84.4345 6.34289 85.758 5.98215 87.0816C5.53122 88.736 5.95208 89.6684 6.76376 90.0896C-5.35124 110.183 20.5923 132.562 36.1945 141.977C52.5783 151.874 68.9621 156.867 87.4503 161.289C105.307 165.53 121.571 173.922 139.638 177.592C157.856 181.262 176.945 181.803 195.403 183.759C216.386 185.984 237.37 188.21 258.383 189.985C300.77 193.565 342.106 191.97 384.463 189.865C424.386 187.88 464.398 188.15 504.26 184.631C545.235 181.021 584.436 170.644 623.667 158.762C653.488 149.738 688.33 142.729 707.931 116.349C718.302 102.392 720.978 76.2528 706.818 64.5216L706.879 64.4915Z" fill="#303C56"></path><path d="M3.48696 91.5634C0.450698 139.481 157.254 177.261 353.68 175.908C550.105 174.584 711.809 134.638 714.845 86.7205C717.851 38.8031 561.078 1.05278 364.622 2.37629C168.197 3.72989 6.49317 43.646 3.48696 91.5634Z" stroke="#1C1C1B" stroke-width="0.25" stroke-miterlimit="10"></path><path d="M3.48696 107.235C0.450698 155.152 157.254 192.933 353.68 191.579C550.105 190.256 711.809 150.31 714.845 102.392C717.851 54.4748 561.078 16.6944 364.622 18.048C168.197 19.3715 6.49317 59.2876 3.48696 107.235Z" stroke="#1C1C1B" stroke-width="0.25" stroke-miterlimit="10"></path><path d="M390.807 201.084L541.117 388.182" stroke="#1C1C1B" stroke-width="0.25" stroke-miterlimit="10"></path><path d="M447.954 198.137L632.385 326.368" stroke="#1C1C1B" stroke-width="0.25" stroke-miterlimit="10"></path><path d="M264.546 201.084L311.142 417.269" stroke="#1C1C1B" stroke-width="0.25" stroke-miterlimit="10"></path><path d="M205.925 193.444L218.13 404.545" stroke="#1C1C1B" stroke-width="0.25" stroke-miterlimit="10"></path><path d="M152.324 180.51L132.814 375.669" stroke="#1C1C1B" stroke-width="0.25" stroke-miterlimit="10"></path><path d="M112.973 171.696L80.6262 311.899" stroke="#1C1C1B" stroke-width="0.25" stroke-miterlimit="10"></path><path d="M613.596 261.094L489.981 192.542" stroke="#1C1C1B" stroke-width="0.25" stroke-miterlimit="10"></path><path d="M379.834 203.671L294.037 413.75" stroke="#1C1C1B" stroke-width="0.25" stroke-miterlimit="10"></path><path d="M322.205 201.084L171.895 388.182" stroke="#1C1C1B" stroke-width="0.25" stroke-miterlimit="10"></path><path d="M265.027 198.137L80.6262 326.368" stroke="#1C1C1B" stroke-width="0.25" stroke-miterlimit="10"></path><path d="M448.465 201.084L401.869 417.269" stroke="#1C1C1B" stroke-width="0.25" stroke-miterlimit="10"></path><path d="M114.837 261.094L218.581 195.339" stroke="#1C1C1B" stroke-width="0.25" stroke-miterlimit="10"></path><path d="M2.37472 93.5788C2.55509 93.7893 2.79559 93.9999 3.06615 94.0901C3.12627 94.1202 3.18639 94.1503 3.27658 94.1803C3.00602 93.5487 2.88577 93.4885 2.91584 93.9698C2.82565 95.0527 4.05819 95.2031 4.80974 94.9323C5.77173 94.5714 7.00427 93.5186 7.12452 92.4357C7.30489 91.0821 7.27483 89.7586 7.27483 88.3749C7.27483 87.262 6.16254 87.0815 5.29074 87.3823C4.2085 87.7733 3.15633 88.8261 2.88577 89.9692C1.89373 94.1202 2.25447 98.4216 3.8177 102.392C5.50117 106.724 8.41719 110.544 11.6038 113.823C15.572 117.913 20.1714 121.343 24.9212 124.441C30.6631 128.171 36.7056 131.449 42.8983 134.397C49.8126 137.706 56.9073 140.654 64.062 143.331C71.7579 146.219 79.574 148.806 87.4202 151.182C95.2664 153.558 103.533 155.784 111.68 157.769C119.827 159.755 127.763 161.469 135.88 163.003C143.546 164.447 151.272 165.71 159.028 166.733C165.762 167.606 172.496 168.388 179.26 168.809C180.763 168.899 182.236 168.959 183.739 169.019C185.122 169.079 186.475 167.786 187.046 166.613C187.497 165.62 187.467 164.206 186.084 164.146C179.59 163.936 173.097 163.485 166.634 162.733C159.389 161.92 151.903 160.807 144.869 159.574C136.902 158.191 128.996 156.566 121.12 154.761C113.244 152.957 104.916 150.821 96.9198 148.535C88.9233 146.249 81.2275 143.812 73.5015 141.105C65.7756 138.398 58.9214 135.691 51.7967 132.532C45.3935 129.675 39.1105 126.576 33.0681 123.027C30.3324 121.433 28.1078 120.019 25.4924 118.184C23.1776 116.56 20.923 114.815 18.7886 112.95C16.8646 111.266 15.0609 109.491 13.3774 107.566C12.6259 106.664 11.8743 105.761 11.213 104.799C11.0626 104.588 10.9123 104.377 10.762 104.167C10.7019 104.047 10.6117 103.956 10.5516 103.836C10.5215 103.776 10.251 103.355 10.3712 103.535C10.4614 103.686 10.1307 103.174 10.0706 103.024C9.92029 102.783 9.76998 102.543 9.64973 102.272C8.65769 100.497 7.84601 98.6021 7.33496 96.6168C7.27483 96.4063 7.21471 96.1957 7.18465 95.9551C7.15458 95.7746 7.00427 94.9925 7.09446 95.564C7.00427 95.0827 6.94415 94.6315 6.91409 94.1503C6.8239 93.1877 6.8239 92.1951 6.88403 91.2325C6.88403 91.022 6.91409 90.7813 6.94415 90.5708C6.97421 90.1196 6.88403 90.9317 6.94415 90.6008C6.94415 90.4805 6.97421 90.3903 7.00427 90.27C7.0644 89.7887 7.18465 89.3074 7.27483 88.8261L2.88577 90.4504C2.88577 91.5935 2.79559 92.7967 2.97596 93.9096L7.18465 91.3829C7.0644 90.8716 6.8239 90.4805 6.34291 90.27C5.98216 90.1196 5.65148 90.1196 5.44105 90.0293C3.99807 89.2472 1.32255 92.2252 2.46491 93.5186L2.37472 93.5788Z" fill="#1C1C1B"></path><path d="M200.965 171.606C218.731 174.103 236.769 174.825 254.686 175.366C278.825 176.118 302.965 176.238 327.105 176.088C353.229 175.908 379.383 175.366 405.507 174.464C429.917 173.622 454.328 172.509 478.708 170.854C497.286 169.591 515.925 168.147 534.353 165.53C536.066 165.289 537.78 165.019 539.493 164.748C541.958 164.357 544.634 158.912 540.786 159.544C523.44 162.372 505.884 163.906 488.207 165.259C464.398 167.094 440.529 168.358 416.66 169.29C390.536 170.313 364.412 170.944 338.258 171.215C313.787 171.486 289.317 171.456 264.846 170.854C245.907 170.403 226.968 169.621 208.059 168.147C206.316 167.997 204.572 167.846 202.829 167.696C201.085 167.545 198.469 171.275 200.935 171.606H200.965Z" fill="#1C1C1B"></path><path d="M539.764 163.785C547.52 162.522 555.246 160.928 562.942 159.304C570.638 157.679 579.055 155.874 587.082 154.009C603.556 150.189 619.939 145.888 636.053 140.774C643.899 138.278 651.715 135.601 659.381 132.593C666.445 129.825 673.33 126.727 680.124 123.418C686.377 120.38 692.569 117.071 698.341 113.131C700.896 111.386 703.392 109.491 705.887 107.656C708.382 105.821 710.787 103.986 712.771 101.761C717.671 96.286 719.655 88.2547 718.723 81.0655C718.272 77.6966 717.22 74.6284 715.236 71.8611C713.853 69.9059 712.29 68.071 710.637 66.3564C702.85 58.2349 693.02 52.1286 683.07 47.015C671.015 40.8186 658.268 35.9757 645.342 31.9751C631.273 27.6435 616.963 24.0339 602.564 20.9357C588.164 17.8375 574.395 15.401 560.206 13.2653C553.743 12.3028 547.249 11.4004 540.756 10.5882C537.81 10.2272 534.864 9.86628 531.888 9.5354C530.475 9.385 529.062 9.20452 527.619 9.05412C526.296 8.90372 524.703 8.96388 523.5 8.42244C521.336 7.4298 519.202 6.25669 516.887 5.68517C514.722 5.14373 512.438 5.14373 510.303 4.48197L508.139 8.09156L510.093 8.21188C511.506 8.30212 514.362 5.26405 512.377 4.36165C512.107 4.24133 511.776 4.27141 511.476 4.27141C510.213 4.27141 508.319 5.83557 508.529 7.21924C508.71 8.42244 509.401 8.75332 510.544 8.7834L512.498 4.72261C512.017 4.72261 511.536 4.78277 511.055 4.93317C510.844 4.99333 510.664 5.08357 510.484 5.14373C509.912 5.35429 510.393 5.17381 510.544 5.14373C509.311 5.23397 508.199 6.13637 507.688 7.21924C507.297 8.06148 507.327 9.29476 508.529 9.35492C510.333 9.41508 512.167 9.47524 514.001 9.47524C515.263 9.47524 516.496 8.39236 517.007 7.2794C517.428 6.40709 517.398 5.05349 516.135 5.05349C514.271 5.05349 512.438 5.11365 510.574 5.17381L509.041 9.32484C509.582 9.26468 510.213 8.84356 510.574 8.81348C511.746 8.72324 512.828 7.881 513.339 6.79813C513.7 6.01605 513.7 4.72261 512.528 4.75269C511.927 4.75269 512.438 4.75269 512.468 4.90309L509.582 8.27204C509.912 8.27204 510.243 8.27204 510.574 8.1818C511.596 7.85092 512.528 7.06884 512.858 6.04613C513.099 5.35429 513.009 4.24133 511.987 4.30149L509.912 4.42181C508.83 4.48197 507.868 5.29413 507.417 6.25669C507.026 7.09892 507.147 7.94116 508.139 8.12164C510.423 8.51268 512.798 8.4826 515.053 9.05412C517.308 9.62564 519.472 11.0093 521.757 11.7613C523.049 12.1824 524.643 12.0922 525.996 12.2125C527.408 12.3328 528.851 12.4832 530.264 12.6336C536.277 13.2653 542.319 13.9572 548.302 14.7392C561.95 16.514 575.538 18.8 589.036 21.4771C603.345 24.3047 617.534 27.6135 631.543 31.6141C644.801 35.4042 657.938 39.9763 670.564 45.5712C681.296 50.3238 691.848 55.9187 700.927 63.4387C704.744 66.5971 708.292 70.1164 711.298 74.0569C713.162 76.4934 714.424 79.1404 714.935 82.1785C715.537 85.5775 715.296 89.0969 714.545 92.4358C713.883 95.3836 712.621 98.542 710.607 100.678C708.592 102.813 706.398 104.588 704.203 106.393C701.798 108.378 699.123 110.033 696.477 111.657C693.832 113.281 690.976 115.026 688.12 116.56C675.073 123.689 661.034 129.013 646.965 133.766C631.273 139.09 615.25 143.451 599.167 147.452C583.083 151.453 567.361 154.882 551.398 158.13C547.76 158.882 544.153 159.634 540.546 160.447C539.614 160.657 538.682 161.59 538.471 162.522C538.261 163.455 538.832 163.906 539.704 163.755L539.764 163.785Z" fill="#1C1C1B"></path><path d="M9.98054 78.8696C26.7251 60.5509 50.5342 49.6018 73.5317 41.4802C104.586 30.5311 137.173 24.1241 169.7 19.4015C207.157 13.9871 244.945 10.8588 282.733 8.99385C320.521 7.12889 359.271 6.46713 397.54 6.61753C415.487 6.67769 433.404 6.91833 451.351 7.27929C467.374 7.61017 483.428 7.79065 499.421 8.69305C503.058 8.90361 506.696 9.20441 510.333 9.32473C512.678 9.41497 516.015 4.24121 512.828 4.15097C505.072 3.91033 497.316 4.03065 489.56 3.85017C481.323 3.63961 473.056 3.42905 464.819 3.24857C447.203 2.88762 429.586 2.6169 411.94 2.49658C373.401 2.25594 334.861 2.73722 296.382 4.42169C257.902 6.10617 219.814 8.81337 181.845 13.927C148.386 18.439 114.867 24.5151 82.7006 34.9529C58.0798 42.924 32.9479 53.5423 13.7082 71.3195C11.7542 73.1243 9.89035 75.0194 8.11669 76.9746C6.34303 78.9298 8.14675 80.9451 10.0407 78.8997L9.98054 78.8696Z" fill="#1C1C1B"></path><path d="M6.55341 86.1791C6.70372 85.6377 6.88409 85.0962 7.06446 84.5548C7.42521 83.5922 6.46322 83.2012 5.71167 83.4719C4.80981 83.7727 3.96807 84.7353 3.93801 85.7279C3.81776 87.9538 3.57727 90.1797 3.54721 92.4357L7.42521 90.1196C6.94422 89.2773 7.00434 88.3449 6.94422 87.3823C6.85403 86.1791 6.58347 85.1263 5.7718 84.2239C4.44907 82.7199 0.96187 86.149 2.2846 87.7132C2.0441 87.4425 2.07417 87.3522 2.16435 87.653C2.25454 87.9538 2.13429 87.1717 2.16435 87.5327C2.16435 87.653 2.16435 87.7733 2.19441 87.8636C2.25454 88.4953 2.2846 89.1269 2.31466 89.7586C2.37479 91.774 2.40485 93.7893 2.43491 95.7746C2.49503 101.009 2.58522 106.212 2.94597 111.416C3.03615 112.71 3.12634 114.033 3.30671 115.327C3.45702 116.379 3.90795 118.274 5.05031 118.696L4.62944 118.274C4.62944 118.274 4.62944 118.786 4.62944 118.966C4.62944 119.087 4.62944 119.237 4.62944 119.357C4.59938 118.726 4.68956 119.989 4.68956 120.019C4.80981 120.47 4.99018 120.891 5.17056 121.313C5.89205 122.847 6.79391 124.32 7.72583 125.734C9.55961 128.502 11.8744 130.998 14.2794 133.284C19.7206 138.428 26.3042 142.399 32.8577 145.888C47.1372 153.498 62.4087 158.792 77.9207 163.244C81.8288 164.357 85.7368 165.44 89.6749 166.523C91.4787 167.004 93.3125 167.515 95.1162 167.997C96.7395 168.448 98.3328 169.11 99.9562 169.621C101.279 170.042 102.722 168.929 103.413 167.906C103.894 167.215 104.706 165.229 103.323 164.868C101.79 164.477 100.257 164.207 98.7236 163.876C97.1905 163.545 95.5671 163.033 94.0039 162.582C90.5467 161.65 87.0595 160.687 83.6024 159.725C76.0268 157.589 68.4511 155.333 60.9958 152.776C46.3556 147.753 31.5049 141.977 19.7206 131.66C16.8647 129.163 14.1892 126.456 11.9345 123.388C10.9124 122.034 9.95042 120.621 9.10868 119.147C8.80806 118.635 8.59763 118.124 8.35713 117.613C8.26695 117.402 8.23688 117.312 8.08657 117.071C8.29701 117.402 7.99639 116.951 7.96633 116.891C7.81602 116.65 7.63564 116.349 7.57552 116.079L7.45527 117.161C8.47738 114.905 7.72583 112.108 7.48533 109.762C7.21477 107.175 7.06446 104.558 6.94422 101.941C6.70372 97.2786 6.6436 92.5861 6.4031 87.9237C6.34298 86.8409 6.49329 84.9458 5.71167 84.0735L2.22448 87.5628C3.45702 88.9164 2.61528 91.1423 3.54721 92.6764C4.68956 94.5714 7.42521 91.8341 7.42521 90.3602C7.42521 88.2546 7.15465 86.1189 7.0344 84.0133C6.97428 82.9606 5.89205 83.111 5.20062 83.502C4.59938 83.8629 3.42696 85.0361 3.87789 85.8783C4.08832 86.2393 4.20857 86.6303 4.38894 87.0213C4.83987 88.1042 6.31291 86.5701 6.46322 86.0287L6.55341 86.1791Z" fill="#1C1C1B"></path><path d="M94.7255 167.606C94.996 167.997 94.9359 168.327 95.5071 168.538C96.2286 168.809 97.0703 168.448 97.7317 168.147C98.9341 167.606 101.55 164.026 98.8139 163.815C97.7918 163.755 96.8298 163.364 95.8077 163.304L93.5831 167.967C96.7095 167.575 99.8059 169.651 102.662 170.644C106.45 171.937 110.448 172.599 114.296 173.622C118.144 174.644 122.322 175.517 126.351 176.479C130.379 177.442 134.528 178.555 138.646 179.427C146.432 181.111 154.308 182.435 162.215 183.277C170.121 184.119 178.719 185.293 186.926 186.436C203.61 188.692 220.295 190.948 237.099 192.061C253.904 193.174 270.168 194.828 286.762 195.129C303.356 195.43 319.499 194.407 335.883 194.587C337.897 194.587 339.972 194.527 341.956 194.798L344.451 189.594L343.82 189.534C341.415 189.293 337.927 194.527 341.264 194.858C341.415 194.858 341.535 194.858 341.685 194.888C341.835 194.888 341.835 194.888 341.625 194.858C341.865 194.948 342.136 194.978 342.377 194.948C343.97 194.948 345.503 193.565 346.134 192.211C346.645 191.128 346.645 189.414 345.022 189.414C344.751 189.414 344.451 189.414 344.18 189.504C344.421 189.504 344.451 189.474 344.27 189.504C344.12 189.504 343.97 189.504 343.82 189.534C342.256 189.684 340.873 190.767 340.212 192.181C339.761 193.113 339.701 195.008 341.264 194.888L341.956 194.828C343.459 194.678 344.842 193.625 345.503 192.241C345.954 191.309 345.984 189.504 344.481 189.594C340.392 189.865 336.214 189.534 332.125 189.564C328.037 189.594 323.949 189.684 319.86 189.775C311.653 189.955 303.446 190.226 295.239 190.256C278.615 190.316 262.081 188.662 245.487 187.579C237.099 187.037 228.772 186.436 220.415 185.533C212.058 184.631 203.7 183.548 195.373 182.435C187.046 181.322 178.629 180.149 170.241 179.096C162.335 178.103 154.429 177.321 146.582 175.787C138.736 174.253 130.409 172.057 122.352 170.192C118.324 169.26 114.356 168.177 110.358 167.215C108.494 166.763 106.66 166.312 104.856 165.62C103.293 165.019 101.76 164.297 100.137 163.815C98.5133 163.334 96.9801 163.124 95.2966 163.334C93.6132 163.545 90.7573 167.756 93.6132 167.936C94.6353 167.997 95.5973 168.358 96.6194 168.418L97.7016 164.086H97.7317C98.0623 164.086 98.4231 164.086 98.7538 164.086H98.6335C98.844 164.267 99.0544 164.477 99.2648 164.688C99.0544 164.327 98.9341 163.966 98.6636 163.635C97.912 162.642 96.1083 163.815 95.5071 164.417C94.7255 165.199 93.9438 166.553 94.7255 167.575V167.606Z" fill="#1C1C1B"></path><path d="M342.316 194.046C358.911 194.016 375.595 192.993 392.159 192.181C408.723 191.369 425.257 190.677 441.792 189.865C474.379 188.24 506.816 185.503 539.163 181.442C554.614 179.487 570.066 177.201 585.248 173.682C594.807 171.456 604.127 168.508 613.566 165.861C631.573 160.807 649.52 155.393 666.626 147.723C683.731 140.052 702.399 129.253 713.432 112.98C714.725 111.085 715.837 109.07 716.859 107.024C717.31 106.092 717.19 104.919 715.987 104.829C714.785 104.738 713.522 106.002 713.041 106.994C704.774 123.809 687.549 134.187 671.195 141.917C654.841 149.648 636.233 155.453 618.226 160.537C610.38 162.763 602.593 165.169 594.717 167.275C579.867 171.215 564.685 173.742 549.474 175.907C517.638 180.45 485.682 183.548 453.576 185.503C421.169 187.488 388.732 187.939 356.325 189.624C352.237 189.835 348.178 190.045 344.09 190.406C343.008 190.496 342.046 191.248 341.595 192.241C341.264 192.963 341.264 194.106 342.316 194.106V194.046Z" fill="#1C1C1B"></path><path d="M718.633 82.8702C718.693 81.3662 718.753 79.8622 718.392 78.4183V78.9899C718.453 78.8395 718.483 78.659 718.513 78.5086C718.573 78.2078 718.603 77.6964 718.332 77.4859C718.002 77.2452 717.731 77.1851 717.34 77.1249L718.272 78.0574C718.272 77.546 718.302 77.0347 718.332 76.5233L714.605 78.3281C714.695 83.2913 714.304 88.2545 713.823 93.2177C713.342 98.1809 712.831 103.054 712.921 107.987C712.921 109.13 714.154 109.16 714.965 108.799C715.987 108.318 716.919 107.205 716.949 106.062C717.07 101.099 717.551 96.1956 717.941 91.2625C718.332 86.3294 718.723 81.4564 718.302 76.5835C718.212 75.5607 717.22 75.4705 716.408 75.8315C715.536 76.2526 714.514 77.3054 714.574 78.3582C714.574 78.8395 714.605 79.3508 714.635 79.8321C714.665 80.6443 715.326 80.8247 715.987 80.7044C716.468 80.6443 716.979 80.4337 717.37 80.1028L715.717 80.0427C716.348 81.1255 716.228 82.7799 716.258 84.0132C716.258 84.675 716.949 84.675 717.43 84.4644C718.002 84.1937 718.543 83.562 718.573 82.9003L718.633 82.8702Z" fill="#1C1C1B"></path><path d="M110.328 175.637C108.133 183.277 106.48 191.098 104.796 198.859C102.962 207.431 101.159 216.004 99.3249 224.547C95.4469 242.866 91.5388 261.154 87.1498 279.353C85.9172 284.406 84.6847 289.429 83.392 294.453C82.0993 299.476 80.8969 304.259 79.3637 309.072C79.0029 310.245 79.9649 311.057 81.0772 310.786C82.3699 310.485 83.6325 309.222 83.9331 307.929C86.0375 299.085 88.5026 290.302 90.637 281.458C92.7714 272.615 94.9358 263.17 97.0101 254.025C101.038 236.248 104.826 218.411 108.704 200.573C110.568 191.94 112.582 183.337 114.115 174.644C114.296 173.682 113.725 172.99 112.703 173.23C111.59 173.501 110.658 174.524 110.328 175.607V175.637Z" fill="#1C1C1B"></path><path d="M82.6105 320.863C82.8209 319.269 83.2718 317.765 83.4823 316.17L79.8748 317.915C79.9349 318.667 80.1754 319.088 80.8969 319.359C82.3098 319.87 84.0234 317.975 84.0534 316.682V311.147C84.0835 310.064 82.9111 310.064 82.1595 310.395C81.1374 310.846 80.3859 311.869 80.2957 312.982C78.011 336.174 92.8015 354.763 110.989 367.246C136.241 384.542 166.724 393.837 196.245 400.695C232.5 409.117 269.626 413.75 306.723 416.186C342.046 418.502 377.639 418.893 412.962 416.457C433.404 415.043 453.786 412.607 473.958 409.087C496.805 405.087 519.773 399.793 541.177 390.678C545.746 388.723 550.256 386.558 554.705 384.302C556.058 383.61 557.891 381.805 557.47 380.12C557.05 378.255 555.005 379.038 553.893 379.729C544.844 385.264 534.683 389.084 524.643 392.363C513.52 396.033 502.156 398.92 490.733 401.357C469.238 405.929 447.383 408.877 425.498 410.802C391.378 413.81 356.927 413.87 322.746 412.156C285.68 410.321 248.583 406.32 212.208 398.83C181.725 392.543 150.46 384.181 123.254 368.63C104.706 358.012 85.5565 341.678 84.0234 318.817C83.843 316.291 83.9031 313.734 84.1136 311.207L80.3257 313.042V318.547C81.408 317.644 82.4601 316.742 83.5123 315.87L83.4522 315.93C83.0013 314.065 79.8748 316.802 79.9049 318.035C79.965 319.479 79.7245 320.923 79.7546 322.367C79.8147 324.262 82.4902 322.096 82.6405 320.983L82.6105 320.863Z" fill="#1C1C1B"></path><path d="M597.603 170.824C598.174 172.93 598.715 175.005 599.497 177.051C600.279 179.096 600.88 181.051 601.481 183.097C602.744 187.278 604.097 191.459 605.509 195.61C608.365 204.002 611.311 212.334 614.167 220.697C619.849 237.241 625.23 253.875 628.807 271.02C630.491 279.082 631.874 287.474 631.573 295.746C631.333 302.424 630.551 309.252 628.838 315.719C625.441 328.443 618.376 339.964 609.327 349.469C604.698 354.342 599.557 358.734 594.086 362.644C591.32 364.599 588.494 366.434 585.548 368.119C582.602 369.803 579.386 370.886 576.349 372.209C574.816 372.871 573.253 373.533 571.69 374.135C570.517 374.586 569.315 376.06 569.345 377.353C569.375 378.767 570.788 378.677 571.75 378.286C575.027 376.962 578.213 375.518 581.249 373.744C582.843 372.811 584.376 371.758 585.969 370.856C587.562 369.953 589.005 369.081 590.508 368.149C596.551 364.359 602.203 360.027 607.373 355.094C617.414 345.559 625.922 333.797 630.792 320.773C633.257 314.155 635.121 307.387 635.541 300.318C635.962 292.618 634.519 284.887 633.407 277.307C630.792 259.59 625.621 242.384 619.969 225.419C617.113 216.907 614.077 208.424 611.101 199.942C609.628 195.73 608.185 191.519 606.742 187.308C605.299 183.097 603.616 178.916 602.654 174.554C602.203 172.479 601.511 170.463 600.91 168.448C600.399 166.733 597.212 169.26 597.633 170.794L597.603 170.824Z" fill="#1C1C1B"></path><path d="M560.627 177.803C560.777 176.96 561.258 176.239 561.348 175.366L557.951 176.991C557.951 178.043 558.312 179.036 558.342 180.059C558.372 181.081 559.454 181.111 560.176 180.781C561.108 180.359 561.919 179.367 561.98 178.314C562.01 177.141 562.01 175.968 562.01 174.795L558.312 176.569C558.312 180.239 558.522 183.909 558.763 187.579C559.094 192.993 559.484 198.407 559.935 203.822C560.476 210.56 561.048 217.298 561.739 224.006C562.551 231.646 563.242 239.286 563.934 246.926C564.655 255.048 565.407 263.17 566.188 271.291C566.97 279.413 567.992 287.655 568.864 295.867C569.736 304.078 570.427 311.659 571.179 319.57C571.87 326.729 572.531 333.888 573.163 341.047C573.704 347.033 574.215 353.049 574.696 359.034C574.816 360.328 574.756 361.621 574.756 362.945C574.756 364.118 574.846 365.321 574.846 366.494C574.846 366.795 574.816 367.066 574.786 367.367C574.786 367.487 574.786 367.637 574.786 367.758C574.786 367.848 574.756 368.449 574.786 368.028C574.816 367.607 574.726 368.48 574.726 368.63C574.726 368.75 574.726 368.871 574.726 368.991C574.726 369.262 574.756 369.532 574.786 369.803C574.846 370.856 575.027 371.879 575.237 372.901C575.267 373.112 575.177 372.601 575.207 372.631C575.237 372.811 575.267 372.992 575.297 373.172C575.297 373.262 575.357 373.353 575.387 373.413C575.447 373.593 575.508 373.774 575.568 373.924C575.748 374.496 575.868 374.917 576.409 375.248L575.838 374.345C575.838 374.345 575.838 374.465 575.838 374.526C575.898 375.578 576.95 375.639 577.732 375.278C578.604 374.857 579.656 373.774 579.596 372.721C579.596 372.661 579.596 372.601 579.596 372.54L579.355 373.473C579.626 372.992 579.656 372.39 579.746 371.849C579.776 371.638 579.806 371.397 579.836 371.187C579.836 371.036 579.836 370.465 579.927 370.435C580.017 370.405 579.836 370.615 579.866 370.736C579.806 370.555 579.927 370.254 579.927 370.074C579.987 369.111 579.987 368.149 579.897 367.186C579.836 366.554 579.776 365.923 579.626 365.291C579.566 365.05 579.506 364.81 579.446 364.569C579.446 364.449 579.386 364.359 579.355 364.238C579.355 364.178 579.355 364.118 579.325 364.058C579.235 363.727 579.355 364.359 579.325 364.118C579.175 362.885 578.995 361.682 578.784 360.448C578.333 357.952 578.123 355.665 577.882 352.988C577.582 350.01 577.311 347.033 577.011 344.055C576.319 337.166 575.598 330.278 574.906 323.39C574.125 315.659 573.313 307.899 572.531 300.168C571.69 291.956 571.088 283.714 570.337 275.502C569.585 267.291 568.713 259.199 567.872 251.047C567.03 242.896 566.188 235.466 565.617 227.645C565.106 220.606 564.505 213.598 563.934 206.589C563.453 200.844 563.002 195.099 562.611 189.353C562.34 185.232 562.07 181.081 562.01 176.96C562.01 176.239 562.01 175.547 562.01 174.825C562.01 173.772 560.867 173.742 560.146 174.103C559.244 174.524 558.312 175.547 558.312 176.599C558.312 177.773 558.312 178.916 558.342 180.089L561.98 178.344C561.889 177.352 561.438 176.389 561.348 175.396C561.288 174.464 560.326 174.374 559.635 174.735C558.733 175.156 558.041 176.058 557.951 177.051C557.891 177.712 557.621 178.314 557.621 178.976C557.621 179.758 558.402 179.848 558.973 179.638C559.695 179.367 560.507 178.645 560.627 177.863V177.803Z" fill="#1C1C1B"></path><path d="M506.485 185.443C506.425 187.97 505.944 190.496 506.335 193.023C506.455 193.835 507.087 194.046 507.838 193.775C508.71 193.474 509.461 192.662 509.702 191.79C510.333 189.474 510.844 187.187 510.904 184.811L507.207 186.586C506.786 214.681 504.501 242.685 501.375 270.599C498.248 298.513 494.761 326.307 492.627 354.282C492.025 362.072 491.544 369.893 491.214 377.714C491.063 381.624 490.943 385.505 490.883 389.415C490.853 391.4 490.793 393.355 490.673 395.341C490.552 396.995 490.582 398.74 490.282 400.364C490.071 401.507 490.763 402.319 491.965 402.049C493.168 401.778 494.521 400.515 494.761 399.251C494.821 398.89 494.911 398.499 494.972 398.138C494.791 399.101 495.182 397.085 495.182 397.055C495.182 395.551 493.559 395.521 492.537 396.003C491.244 396.604 489.951 398.078 489.951 399.582C489.951 400.424 489.951 401.267 489.951 402.109C489.951 403.613 491.605 403.643 492.627 403.162C493.919 402.56 495.242 401.086 495.242 399.582C495.242 398.74 495.242 397.928 495.242 397.085C495.242 395.611 493.619 395.551 492.597 396.033C491.304 396.634 490.011 398.108 490.011 399.612C490.011 399.823 490.011 400.033 490.101 400.214C490.462 400.695 490.492 400.785 490.222 400.515C490.282 400.815 490.372 401.116 490.432 401.447C490.703 402.71 492.627 401.988 493.258 401.537C494.28 400.815 495.152 399.582 494.851 398.289C494.551 396.995 494.611 395.702 494.521 394.438C494.43 392.634 494.37 390.889 494.4 389.084C494.461 385.595 494.581 382.106 494.731 378.616C495.002 371.638 495.392 364.659 495.903 357.681C496.896 343.724 498.068 329.676 499.932 315.809C501.796 301.943 503.299 287.835 504.892 273.818C506.485 259.801 507.958 245.873 509.161 231.856C510.484 216.245 511.295 200.573 511.055 184.901C511.055 183.849 509.912 183.819 509.191 184.179C508.289 184.601 507.357 185.623 507.357 186.706C507.357 188.782 506.996 190.737 506.545 192.752L509.852 191.158C509.371 188.842 509.792 186.405 509.762 184.059C509.762 183.157 508.8 183.157 508.169 183.427C507.387 183.788 506.636 184.661 506.606 185.563L506.485 185.443Z" fill="#1C1C1B"></path><path d="M450.359 191.429C451.532 190.557 452.614 189.744 452.884 188.21C453.065 187.188 452.494 186.496 451.411 186.736C450.239 187.007 449.337 188.09 448.946 189.203C448.375 190.918 448.255 192.903 447.954 194.708C447.623 196.603 447.293 198.498 446.962 200.393C446.301 204.032 445.609 207.702 444.888 211.342C443.415 218.711 441.821 226.081 440.168 233.421C436.831 248.19 433.194 262.869 429.496 277.548C425.798 292.227 422.041 306.966 418.523 321.705C415.006 336.444 411.699 351.093 408.873 365.923C406.048 380.752 403.763 395.461 402.2 410.351C402.019 412.186 401.839 414.021 401.659 415.855L405.957 413.78C405.957 413.088 406.108 412.396 406.228 411.704C406.408 410.471 405.747 409.569 404.424 409.9C403.102 410.231 401.629 411.584 401.418 412.908C401.328 413.479 401.298 413.93 401.328 414.502L406.318 412.095C406.228 411.103 406.078 409.809 404.965 409.509C403.673 409.178 402.35 410.14 401.629 411.133C401.148 411.795 400.396 413.69 401.719 414.021C401.388 413.93 401.568 413.66 401.388 413.87C401.328 413.93 401.388 414.412 401.388 414.472C401.298 415.916 403.011 415.886 403.913 415.464C405.206 414.863 406.258 413.539 406.378 412.095C406.408 411.554 406.378 411.133 406.288 410.561C406.048 409.148 403.883 410.02 403.222 410.471C402.079 411.283 401.238 412.577 401.478 413.991C401.598 414.592 401.719 415.194 401.719 415.825C401.719 417.029 403.041 417.059 403.883 416.668C405.026 416.126 405.897 415.013 406.018 413.75C407.37 398.89 409.535 384.151 412.21 369.472C414.886 354.793 418.133 340.054 421.56 325.465C424.987 310.876 428.775 296.017 432.472 281.308C436.17 266.599 439.807 252.07 443.204 237.391C446.601 222.712 449.638 208.033 452.163 193.234C452.463 191.459 453.065 189.504 452.974 187.729L449.006 190.105L449.097 190.557L449.547 188.692C449.277 189.053 449.006 189.414 448.736 189.775C448.375 190.226 448.014 191.158 448.525 191.67C449.036 192.181 449.938 191.79 450.419 191.459L450.359 191.429Z" fill="#1C1C1B"></path><path d="M384.553 187.729C383.712 189.022 382.93 190.105 382.78 191.669C382.569 193.564 385.275 192.361 385.846 191.73C386.117 191.429 386.417 191.128 386.628 190.797C386.718 190.677 387.319 189.865 386.898 190.316L383.682 189.714C383.531 190.226 383.231 190.677 383.141 191.218L387.5 189.624V188.631C387.5 187.518 386.387 187.338 385.546 187.639C384.523 188 383.321 189.082 383.141 190.226C382.118 197.054 378.782 203.34 375.866 209.507C374.182 213.086 372.529 216.666 370.935 220.275C369.342 223.885 367.779 227.886 366.156 231.676C362.849 239.376 359.662 247.107 356.566 254.867C353.469 262.628 350.583 270.208 347.216 277.728C343.849 285.248 340.362 292.558 337.176 300.108C333.989 307.658 331.374 315.629 328.638 323.45C325.902 331.27 323.137 338.941 319.98 346.521C316.824 354.101 313.667 360.959 310.721 368.269C307.775 375.578 305.46 382.858 303.055 390.257C300.831 397.115 298.546 404.004 295.059 410.321C294.247 411.795 293.345 413.238 292.383 414.622L296.472 414.111V413.539C296.472 412.186 294.999 412.155 294.067 412.607C292.894 413.148 291.722 414.472 291.722 415.825C291.722 416.006 291.722 416.216 291.722 416.397C291.722 417.75 293.195 417.78 294.127 417.329C295.299 416.788 296.472 415.464 296.472 414.111C296.472 413.93 296.472 413.72 296.472 413.539C296.472 412.186 294.999 412.155 294.067 412.607C292.924 413.148 291.722 414.472 291.722 415.825V416.397C291.722 417.269 292.443 417.69 293.225 417.6C294.247 417.48 295.239 416.728 295.78 415.915C304.348 403.523 307.414 388.302 312.435 374.315C315.11 366.825 318.387 359.546 321.513 352.236C324.64 344.927 327.706 336.986 330.472 329.255C333.238 321.525 335.733 313.493 338.679 305.733C341.625 297.972 345.112 290.632 348.539 283.173C351.966 275.713 355.183 268.012 358.249 260.312C361.316 252.611 364.412 244.64 367.719 236.91C371.026 229.179 374.152 221.569 377.639 214.019C380.676 207.401 384.163 200.934 386.297 193.955C386.778 192.391 387.169 190.797 387.409 189.173L383.05 190.767V191.76C383.05 192.873 384.163 193.053 385.004 192.752C386.057 192.361 387.199 191.308 387.409 190.165C387.53 189.504 387.89 188.902 387.951 188.15C387.981 187.368 387.259 186.977 386.568 187.067C385.606 187.187 384.764 187.879 384.223 188.631C383.862 189.113 383.682 189.714 383.321 190.165L386.808 189.744C386.808 189.173 387.079 188.782 387.289 188.24C387.56 187.578 387.65 186.736 386.778 186.526C385.906 186.315 384.944 187.097 384.523 187.759L384.553 187.729Z" fill="#1C1C1B"></path><path d="M328.969 195.038C329.81 194.407 330.742 193.805 331.524 193.083C332.035 192.632 332.636 191.609 332.185 190.917C331.734 190.226 330.712 190.587 330.231 191.008C329.059 191.97 327.766 192.662 326.654 193.715L329.6 194.256C329.75 193.865 329.69 194.196 329.75 193.865C329.841 193.655 329.841 193.655 329.75 193.835C329.66 193.986 329.57 194.106 329.45 194.226C329.75 193.895 328.999 194.497 329.54 194.166C329.78 194.016 330.021 193.835 330.231 193.685L328.247 191.7C323.858 198.558 318.688 204.905 313.667 211.282C311.172 214.47 308.677 217.659 306.302 220.937C303.927 224.216 301.702 227.735 299.358 231.134C289.828 245.061 278.885 258.026 267.883 270.84C256.88 283.654 245.216 297.401 234.333 311.027C223.451 324.653 213.32 338.851 202.768 352.748C200.183 356.147 197.688 359.606 194.952 362.855C192.667 365.562 190.142 368.119 187.587 370.615C182.266 375.849 176.735 380.902 172.105 386.798C170.963 388.242 169.88 389.716 168.828 391.19L172.315 391.25C172.315 391.25 172.586 390.889 172.406 391.1C172.436 391.07 172.857 390.498 172.676 390.739C172.496 390.979 172.947 390.468 172.977 390.408C173.157 390.197 173.338 390.017 173.518 389.806C174.48 388.693 175.201 387.55 175.712 386.136C176.133 384.903 175.081 384.091 173.939 384.362C172.616 384.662 171.293 385.986 170.993 387.31C170.812 388.122 171.143 386.918 170.872 387.701L170.752 387.941C170.872 387.761 170.872 387.731 170.752 387.881C170.482 388.272 170.181 388.663 169.911 389.054C169.219 390.017 168.618 391.07 168.347 392.243C168.137 393.145 168.618 393.897 169.61 393.777C170.752 393.656 171.624 392.724 172.165 391.761C173.879 388.753 176.224 386.106 178.568 383.58C181.094 380.872 183.739 378.286 186.415 375.699C189.09 373.112 191.705 370.615 194.231 367.938C197.026 364.99 199.522 361.832 202.017 358.613C212.719 344.837 222.82 330.639 233.582 316.953C244.254 303.386 255.347 290.181 266.53 277.066C277.713 263.952 288.866 251.017 298.937 237.09C303.717 230.473 308.016 223.554 313.006 217.087C317.996 210.62 323.167 204.333 327.856 197.685C328.999 196.061 330.051 194.407 331.133 192.722C331.524 192.121 332.035 191.098 331.404 190.466C330.772 189.835 329.72 190.346 329.149 190.737C328.307 191.309 327.466 191.88 326.864 192.722C326.323 193.444 326.053 194.316 325.752 195.189C325.542 195.82 325.842 196.542 326.504 196.663C327.315 196.813 328.127 196.272 328.698 195.73C329.63 194.828 330.682 194.046 331.554 193.053L329.841 191.339C329.119 192.121 328.518 193.053 327.887 193.895C327.135 194.888 328.007 195.76 328.999 195.008L328.969 195.038Z" fill="#1C1C1B"></path><path d="M267.372 192.692L267.282 192.843L268.123 191.85C268.334 191.7 269.236 191.489 268.334 191.639C268.093 191.7 267.853 191.76 267.612 191.88C266.801 192.271 266.259 192.933 265.839 193.685C265.478 194.317 265.478 195.189 266.199 195.52L266.56 195.7C268.304 196.543 271.43 192.873 269.416 191.7C268.875 191.369 268.153 191.489 267.552 191.489L265.418 195.911C266.891 195.851 268.214 195.309 269.506 194.647L269.446 190.737C266.5 192.241 264.125 194.497 261.66 196.663C261.329 196.934 260.457 197.475 259.826 197.896C258.954 198.468 258.083 199.069 257.241 199.641C255.648 200.724 254.054 201.807 252.491 202.919C251.018 203.972 249.605 205.115 248.072 206.048C246.479 207.01 244.915 208.033 243.382 209.086C240.316 211.222 237.37 213.478 234.394 215.703C222.309 224.758 209.683 233.06 196.546 240.489C183.769 247.739 172.736 257.545 160.591 265.726C154.399 269.908 148.506 274.48 142.704 279.172C136.903 283.865 131.311 288.768 125.118 292.949C121.992 295.054 118.805 297.07 115.589 299.085C112.372 301.1 109.426 303.086 106.329 305.011C103.383 306.816 100.437 308.59 97.7016 310.696C95.1463 312.681 92.5309 315.118 90.2162 317.043C89.645 317.524 89.0137 318.005 88.3824 318.427C88.0216 318.637 87.5707 318.848 87.0897 318.968C85.9774 319.239 84.9553 320.231 84.5946 321.284C84.324 322.066 84.4142 323.209 85.5565 323.179C86.8492 323.149 88.202 322.517 89.2241 321.705C90.0057 321.074 90.7873 320.231 90.8775 319.179C90.9377 318.366 90.5769 317.765 89.7051 317.705L88.2621 317.584C86.9093 317.464 85.4964 318.878 84.9553 319.991C84.5344 320.863 84.5044 322.578 85.9173 322.457L87.4805 322.337L87.3903 318.818C87.0296 319.179 87.3302 318.908 87.4204 318.818C87.1198 319.028 87.3603 318.878 87.0897 318.938L86.6087 322.908C89.7352 321.735 92.1702 319.329 94.5752 317.133C96.9801 314.937 99.5955 312.922 102.331 311.117C108.374 307.116 114.596 303.326 120.729 299.476C123.946 297.461 127.132 295.415 130.199 293.189C133.265 290.964 135.941 288.587 138.796 286.271C144.598 281.518 150.46 276.796 156.533 272.404C159.569 270.208 162.696 268.193 165.762 266.027C168.828 263.861 171.564 261.816 174.45 259.62C180.252 255.229 185.994 250.777 192.157 246.896C195.163 245.001 198.319 243.317 201.416 241.542C204.813 239.557 208.21 237.511 211.547 235.436C218.07 231.345 224.443 227.074 230.696 222.562C236.949 218.05 242.39 213.538 248.703 209.687C251.92 207.732 254.896 205.356 258.022 203.25C259.586 202.198 261.209 201.175 262.772 200.062C263.524 199.52 264.185 198.829 264.847 198.197C265.147 197.926 265.448 197.655 265.748 197.385C265.748 197.385 266.109 197.084 265.929 197.234C265.778 197.355 266.29 196.934 266.35 196.873C266.951 196.392 267.582 195.911 268.214 195.46C268.454 195.279 268.725 195.099 268.995 194.948C269.055 194.918 269.506 194.647 269.236 194.798C268.935 194.978 269.566 194.647 269.536 194.647C270.618 194.076 271.791 192.903 271.731 191.609C271.671 190.316 270.378 190.286 269.476 190.737C268.875 191.038 268.244 191.429 267.552 191.489C266.259 191.579 265.087 192.542 264.546 193.685C264.155 194.557 264.155 195.941 265.418 195.941C266.38 195.941 267.101 195.881 268.003 195.55C268.965 195.189 269.927 193.986 270.017 192.963C270.107 192.061 269.446 191.369 268.484 191.7L267.943 191.88L269.296 192.422V192.301C269.296 192.572 269.296 192.843 269.296 193.113V192.993C269.175 193.294 269.055 193.595 268.905 193.895C268.574 194.347 268.935 193.895 269.025 193.835C269.206 193.625 269.386 193.414 269.536 193.174C269.807 192.692 269.897 192.301 269.777 191.79C269.687 191.279 268.965 191.369 268.634 191.489C268.033 191.7 267.612 192.181 267.312 192.722L267.372 192.692Z" fill="#1C1C1B"></path><path d="M90.4567 289.129V288.106C90.5769 286.181 87.8413 287.715 87.3603 288.497C86.7891 289.429 85.8271 290.031 85.2559 290.963L88.3523 291.505C88.8934 290.211 89.8855 289.189 90.6972 288.046C91.1781 287.384 91.6892 286.09 90.8174 285.519C89.9456 284.947 88.683 285.699 88.0517 286.361C87.0597 287.414 86.3983 288.647 85.7369 289.941L89.5247 290.001C90.607 287.294 92.4408 284.977 94.3647 282.842C96.6795 280.285 99.2047 277.939 101.76 275.653C102.872 274.66 103.985 273.728 105.067 272.705C106.48 271.381 107.772 269.937 109.245 268.644C112.192 266.057 115.378 263.741 118.474 261.305C124.517 256.582 130.499 251.95 137.053 247.889C143.606 243.828 150.16 240.459 157.014 237.301C170.903 230.954 185.393 226.081 200.183 222.231C215.815 218.14 231.688 215.312 247.621 212.485C251.89 211.733 256.159 210.891 260.367 209.898C262.532 209.387 264.666 208.725 266.861 208.304C269.055 207.883 271.25 207.702 273.474 207.552C275.699 207.401 277.893 207.341 280.118 207.161C282.132 207.01 284.116 206.589 286.13 206.469C289.738 206.288 293.345 206.98 296.953 206.469C297.825 206.348 298.546 206.108 299.207 205.988C299.869 205.867 300.5 205.596 301.101 205.326C302.214 204.814 303.356 203.551 303.476 202.288C303.566 201.175 302.785 200.483 301.673 200.814C300.38 201.175 299.027 201.265 297.734 201.566C296.201 201.927 294.578 203.551 294.428 205.175C294.247 206.95 295.78 207.1 297.133 206.559C298.215 206.138 299.418 205.957 300.53 205.566L301.101 201.054C300.44 201.385 300.5 201.325 299.598 201.596C299.177 201.716 298.336 201.927 297.734 202.017C295.841 202.258 293.917 202.167 292.023 202.197C287.994 202.197 284.056 203.07 280.028 203.31C275.519 203.611 270.919 203.671 266.47 204.634C262.021 205.596 257.932 206.649 253.603 207.461C244.945 209.086 236.167 210.229 227.51 211.853C219.964 213.237 212.478 214.921 205.053 216.786C189.932 220.576 174.991 225.329 160.682 231.586C146.492 237.782 132.874 245.633 120.789 255.349C117.603 257.906 114.326 260.402 111.139 262.959C109.426 264.343 107.742 265.726 106.119 267.23C104.796 268.464 103.624 269.817 102.271 271.02C97.2206 275.532 91.8696 280.074 88.0818 285.729C87.21 287.053 86.3983 288.437 85.8271 289.881C85.4664 290.753 85.4363 292.046 86.6989 292.076C87.9615 292.106 89.1339 290.963 89.645 289.941C89.8254 289.58 90.0057 289.189 90.2162 288.828C90.2162 288.798 90.5468 288.286 90.3665 288.497L87.721 286.812C86.6388 288.467 85.4964 289.971 84.8651 291.866C84.5946 292.738 85.1958 293.4 86.0375 293.31C87.0897 293.189 87.9615 292.317 88.4425 291.415C88.5928 291.114 88.9235 290.873 89.1339 290.633C89.6149 290.091 90.0057 289.55 90.3364 288.918L86.9394 289.76V290.753C87.0296 291.745 88.0517 291.806 88.7732 291.445C89.675 291.024 90.4867 290.061 90.5168 289.038L90.4567 289.129Z" fill="#1C1C1B"></path><path d="M311.563 205.476C332.276 205.536 353.018 205.446 373.731 205.747C394.444 206.048 416.69 206.92 438.124 208.635C459.498 210.349 480.842 212.996 501.916 216.967C519.803 220.366 537.028 226.081 553.833 233.029C572.141 240.61 589.847 249.543 607.073 259.319C609.207 260.522 611.311 261.756 613.446 262.989C615.58 264.222 619.759 259.319 617.143 257.815C599.918 247.799 582.091 238.714 563.783 230.864C547.039 223.675 529.723 217.388 511.836 213.628C491.093 209.296 469.93 206.77 448.856 204.875C427.332 202.98 405.747 202.077 384.163 201.536C362.698 201.024 341.234 200.904 319.8 200.964C317.786 200.964 315.772 200.964 313.757 200.964C312.495 200.964 311.232 202.047 310.751 203.16C310.36 204.032 310.36 205.416 311.623 205.416L311.563 205.476Z" fill="#1C1C1B"></path><path d="M165.672 231.164C165.732 230.683 165.822 230.804 165.07 231.616C164.169 232.608 164.259 232.277 164.71 232.217C164.98 232.187 165.251 232.067 165.491 232.007C166.123 231.856 166.724 231.676 167.325 231.465C168.498 231.044 169.67 230.623 170.812 230.142C173.067 229.209 175.292 228.187 177.456 227.044C182.025 224.667 186.415 221.84 190.653 218.922C199.221 213.056 207.308 206.439 216.086 200.874C218.521 199.31 220.355 198.197 222.88 196.843C224.052 196.212 225.225 195.58 226.397 195.008C227.028 194.708 227.66 194.407 228.291 194.106C229.433 193.595 230.245 192.813 230.997 191.79C231.538 191.068 232.049 189.534 230.936 189.083C229.463 188.481 227.99 189.534 226.728 190.226C225.555 190.857 224.413 191.549 223.271 192.211C220.986 193.595 218.731 195.038 216.507 196.542C212.057 199.581 207.668 202.799 203.339 206.018C194.772 212.364 186.264 218.832 176.915 223.975C174.42 225.359 171.834 226.622 169.189 227.705C167.866 228.247 166.513 228.788 165.191 229.3C163.658 229.901 162.635 231.044 163.026 232.729C163.177 233.39 164.139 233.09 164.499 232.879C165.131 232.488 165.551 231.916 165.642 231.164H165.672Z" fill="#1C1C1B"></path><path d="M149.017 182.044C148.296 194.708 147.304 207.371 146.192 220.005C144.989 233.511 143.576 247.017 142.073 260.492C140.57 273.968 138.977 287.294 137.413 300.679C135.94 313.132 134.588 325.616 133.235 338.099C132.093 348.687 131.161 359.245 130.379 369.863C130.289 370.976 130.199 372.119 130.138 373.232L134.407 371.187C134.437 369.653 134.497 368.118 134.558 366.614C134.618 365.291 133.085 365.291 132.243 365.712C131.04 366.284 130.078 367.487 129.988 368.84C129.898 369.833 129.838 370.796 129.477 371.728L134.347 369.923L134.167 368.991C134.167 368.991 134.077 368.269 134.077 368.66C134.077 367.366 132.664 367.336 131.762 367.758C130.65 368.299 129.507 369.562 129.507 370.856C129.507 370.465 129.417 371.187 129.417 371.307L129.237 372.42C129.026 373.743 129.778 374.676 131.161 374.345C132.543 374.014 134.016 372.6 134.377 371.126C134.738 369.653 134.738 368.179 134.618 366.645L130.018 368.84C130.078 370.314 130.138 371.788 130.169 373.292C130.169 374.495 131.491 374.556 132.333 374.134C133.415 373.623 134.407 372.45 134.437 371.217C134.768 360.929 135.79 350.672 136.812 340.445C138.015 328.112 139.548 315.84 140.991 303.537C142.554 290.211 144.147 276.886 145.681 263.53C147.214 250.175 148.687 236.459 149.949 222.892C151.122 210.199 152.144 197.445 152.535 184.691C152.565 183.247 152.625 181.803 152.655 180.359C152.655 179.337 151.543 179.337 150.851 179.637C149.919 180.059 149.138 181.021 149.078 182.074L149.017 182.044Z" fill="#1C1C1B"></path><path d="M207.488 187.699C207.488 186.887 207.458 186.045 207.458 185.232L203.4 187.188C203.46 199.671 203.64 212.184 204.091 224.667C204.572 238.083 205.233 251.499 205.985 264.914C206.767 279.142 207.669 293.34 208.57 307.568C209.532 322.638 210.524 337.708 211.456 352.808C211.937 360.629 212.388 368.48 212.779 376.3C213.17 384.121 214.312 391.43 214.733 399.011C214.793 399.883 214.883 400.785 214.853 401.658C214.823 402.41 214.613 403.162 214.463 403.884C214.102 405.658 215.575 406.17 216.988 405.508C218.401 404.846 219.844 403.132 219.423 401.477C219.272 400.936 219.092 400.364 219.002 399.793C218.882 398.8 218.942 397.777 218.882 396.785C218.761 394.92 218.611 393.085 218.431 391.25C218.04 387.49 217.559 383.73 217.228 379.94C216.507 372.179 216.236 364.359 215.755 356.598C214.823 341.408 213.951 326.217 212.99 311.027C212.088 296.709 211.186 282.391 210.374 268.043C209.623 254.507 208.931 240.971 208.39 227.435C207.909 214.831 207.428 202.228 207.428 189.654C207.428 188.18 207.428 186.676 207.428 185.202C207.428 184.059 206.165 184.029 205.384 184.39C204.392 184.871 203.37 185.984 203.37 187.158C203.37 188 203.37 188.842 203.34 189.684C203.34 190.857 204.632 190.887 205.444 190.496C206.436 190.015 207.518 188.842 207.488 187.669V187.699Z" fill="#1C1C1B"></path><path d="M265.628 195.159C264.907 194.226 264.606 193.444 264.846 192.271C265.027 191.339 264.456 190.677 263.494 190.917C262.442 191.158 261.51 192.151 261.239 193.173C260.728 195.038 261.299 196.753 261.66 198.618C261.991 200.272 262.321 201.897 262.622 203.551C263.283 206.86 263.975 210.139 264.666 213.447C266.109 220.336 267.582 227.224 269.055 234.112C272.182 248.821 275.338 263.561 278.495 278.27C281.651 292.979 285.078 308.891 288.325 324.202C291.572 339.512 294.698 354.071 297.825 368.991C300.771 382.978 303.717 396.995 306.573 410.982C306.903 412.577 307.234 414.171 307.565 415.765C307.655 416.216 308.226 416.367 308.587 416.427C308.196 416.367 308.406 416.186 308.226 416.427C308.256 416.367 308.136 417.179 308.196 416.908C307.955 418.593 309.218 419.164 310.661 418.502C312.104 417.841 313.337 416.216 313.036 414.592C312.765 413.148 312.164 412.306 310.631 412.186L311.653 412.847C308.887 399.101 306.062 385.384 303.206 371.698C300.079 356.778 296.923 341.889 293.736 326.969C290.55 312.049 287.243 296.558 283.966 281.368C280.689 266.177 277.593 251.709 274.436 236.85C271.55 223.283 268.725 209.717 265.748 196.181C265.388 194.617 265.207 192.963 264.816 191.429L261.239 194.016C261.66 195.279 262.442 196.452 263.464 197.324C264.486 198.197 266.38 196.151 265.598 195.189L265.628 195.159Z" fill="#1C1C1B"></path><path d="M332.817 193.926L332.997 192.331L329.36 194.076C329.149 195.881 329.059 197.625 329.54 199.37C330.051 201.295 330.712 203.19 331.374 205.055C332.697 208.935 334.049 212.816 335.432 216.696C338.168 224.366 340.994 232.007 343.91 239.617C349.742 254.868 355.844 269.968 362.007 285.098C368.17 300.228 374.423 315.418 380.435 330.669C386.447 345.92 392.219 361.05 397.57 376.451C398.923 380.331 400.246 384.211 401.539 388.092C402.711 391.641 403.974 395.16 404.936 398.77C405.507 400.966 406.018 403.222 406.439 405.448C406.95 408.035 407.401 410.772 408.273 413.269C408.453 413.81 408.844 414.291 409.144 414.743C409.265 414.893 409.355 415.073 409.475 415.224C409.565 415.314 409.866 415.795 409.655 415.374C410.768 417.66 415.097 414.111 414.135 412.156C414.405 412.697 414.014 411.554 414.044 411.795C414.074 412.005 413.984 411.434 413.984 411.343C413.894 410.682 413.864 410.02 413.654 409.388C413.263 408.215 412.812 407.042 412.421 405.839C411.609 403.402 410.708 400.996 409.926 398.529C407.912 392.152 405.807 385.745 403.703 379.399C398.562 363.937 392.791 348.687 386.868 333.527C380.946 318.366 374.753 303.236 368.591 288.106C362.428 272.976 356.325 258.026 350.463 242.866C344.601 227.705 339.01 212.365 333.749 196.964C333.238 195.46 333.147 193.926 332.937 192.361C332.636 190.105 329.089 192.452 329.3 194.106L329.48 195.52C329.6 196.422 330.412 196.482 331.133 196.151C332.005 195.76 332.636 194.888 332.757 193.956L332.817 193.926Z" fill="#1C1C1B"></path><path d="M383.742 194.166C384.223 195.069 384.884 195.73 385.215 196.693L389.123 193.354C388.582 192.752 388.131 191.79 387.259 191.609C386.147 191.369 385.125 192 384.433 192.843C383.862 193.535 383.201 194.738 383.922 195.55C392.46 205.055 400.126 215.403 407.761 225.63C415.998 236.639 424.115 247.769 432.262 258.868C440.409 269.968 448.195 279.804 456.612 289.911C469.238 305.071 482.285 319.87 494.791 335.121C500.984 342.671 507.237 350.191 513.159 357.982C513.85 358.884 514.542 359.786 515.263 360.689C516.045 361.651 517.067 362.434 517.819 363.456C518.51 364.389 519.111 365.381 519.742 366.314C520.494 367.427 521.336 368.54 521.907 369.743C522.418 370.856 522.959 371.969 523.47 373.082C523.981 374.195 524.733 375.278 525.364 376.391C526.567 378.496 527.859 380.542 529.002 382.677C530.144 384.813 531.196 387.009 532.338 389.175C533.872 392.032 539.132 387.46 537.449 384.843C536.096 382.737 534.593 380.752 533.18 378.707C531.767 376.661 530.505 374.736 529.092 372.811C528.43 371.879 527.829 370.916 527.048 370.104C526.206 369.201 525.334 368.329 524.492 367.397C523.651 366.464 523.049 365.472 522.358 364.509C521.576 363.456 520.735 362.434 520.013 361.321C519.382 360.328 518.961 359.185 518.33 358.192C517.638 357.109 516.917 356.087 516.165 355.034C514.752 353.049 513.309 351.093 511.956 349.108C509.161 345.017 506.064 341.077 502.998 337.226C490.763 321.886 477.926 307.026 465.3 292.016C456.071 281.037 446.962 269.938 438.455 258.357C430.578 247.618 422.762 236.82 414.796 226.141C406.829 215.463 398.803 204.724 390.055 194.617C389.273 193.685 388.462 192.783 387.65 191.88L384.313 195.821C384.734 195.911 385.125 196.753 385.455 197.084C386.177 197.866 387.56 197.084 388.131 196.573C388.852 195.941 389.724 194.798 389.363 193.745C389.003 192.752 388.311 192.121 387.83 191.248C387.259 190.226 386.027 190.617 385.215 191.188C384.493 191.7 383.201 193.174 383.742 194.196V194.166Z" fill="#1C1C1B"></path><path d="M442.783 187.879C442.182 187.879 441.731 187.669 441.22 187.368C440.409 186.947 439.236 187.879 438.755 188.451C438.334 188.962 437.583 190.226 438.304 190.797C444.136 195.52 450.179 199.911 456.251 204.333C462.324 208.755 468.607 213.237 474.83 217.598C487.486 226.472 500.202 235.255 512.888 244.069C525.574 252.882 538.441 261.876 551.097 270.99C557.41 275.532 563.663 280.165 569.976 284.737C576.289 289.309 582.542 293.851 588.735 298.514C591.801 300.83 594.837 303.206 597.843 305.612C600.85 308.019 603.736 310.546 606.862 312.802C608.425 313.914 609.958 315.088 611.552 316.17C612.363 316.712 613.115 317.283 613.897 317.855C614.678 318.426 615.52 318.938 616.211 319.57C616.933 320.261 616.933 321.495 617.534 322.277C618.135 323.059 618.646 323.841 619.338 324.473C620.721 325.766 622.104 327.059 623.456 328.383C624.809 329.706 626.132 331.03 627.575 332.263C628.627 333.196 630.31 332.233 631.122 331.391C631.844 330.639 633.046 328.834 631.994 327.842C629.228 325.225 626.162 322.969 623.216 320.592C622.434 319.961 621.562 319.539 620.691 319.058C619.819 318.577 618.526 318.697 617.684 318.066C616.933 317.524 616.302 316.712 615.64 316.08C614.979 315.449 614.287 314.757 613.626 314.065C612.965 313.373 612.273 312.741 611.552 312.11C610.83 311.478 610.199 310.756 609.508 310.124C608.125 308.831 606.622 307.628 605.149 306.425C602.172 303.988 599.166 301.582 596.16 299.205C590.118 294.423 584.165 289.49 578.063 284.767C571.96 280.044 565.677 275.412 559.394 270.84C546.768 261.696 534.022 252.732 521.245 243.828C508.559 234.985 495.843 226.171 483.187 217.268C470.531 208.364 458.386 199.761 446.18 190.767C444.677 189.654 443.084 188.662 441.551 187.579L438.635 191.008C439.417 191.339 440.198 191.549 441.07 191.519C442.122 191.519 443.114 190.647 443.535 189.714C443.896 188.962 443.866 187.91 442.814 187.879H442.783Z" fill="#1C1C1B"></path><path d="M479.52 186.075C479.46 186.315 479.429 186.586 479.46 186.827C479.46 187.007 479.52 187.188 479.55 187.338C479.49 186.947 479.55 187.368 479.64 187.639C479.82 188.21 480.181 188.692 480.602 189.113C481.624 190.226 482.826 191.158 484.059 192.031C488.057 194.918 492.266 197.445 496.505 199.942C506.906 206.018 517.578 211.583 527.829 217.899C530.174 219.343 532.188 220.607 534.503 222.171C535.405 222.772 536.307 223.374 537.058 224.156C537.81 224.938 538.411 225.66 539.523 226.021C540.516 226.352 541.688 225.66 542.349 224.968C542.921 224.367 543.882 223.043 543.401 222.141C543.071 221.539 542.83 221.088 542.199 220.727C541.838 220.516 541.478 220.336 541.087 220.155C540.696 219.975 540.335 219.794 539.944 219.614C539.554 219.433 540.245 219.794 539.854 219.584C539.764 219.524 539.704 219.494 539.614 219.433C539.373 219.283 539.133 219.133 538.922 218.982C536.908 217.689 534.864 216.425 532.79 215.222C527.829 212.304 522.749 209.567 517.789 206.649C512.498 203.551 507.207 200.453 501.916 197.355C499.541 195.971 497.196 194.587 494.851 193.144C493.799 192.512 492.747 191.85 491.665 191.218C490.582 190.587 489.981 190.196 489.079 189.594C487.486 188.571 485.923 187.488 484.42 186.315C484.149 186.105 483.909 185.894 483.638 185.684C483.518 185.593 483.428 185.473 483.338 185.383C483.217 185.263 483.127 185.232 482.947 185.112C483.338 185.413 483.097 185.202 483.037 185.142C482.947 185.082 482.857 184.992 482.766 184.932C482.736 184.932 482.706 184.872 482.676 184.841C482.315 184.631 482.285 184.601 482.586 184.781C482.586 184.781 482.556 184.781 482.526 184.721L482.376 184.541C482.436 184.511 482.526 184.872 482.436 184.601C482.225 183.969 481.414 184.12 480.963 184.33C480.301 184.631 479.67 185.293 479.52 186.015V186.075Z" fill="#1C1C1B"></path><g style="mix-blend-mode:multiply"><path d="M710.306 102.573C707.45 105.581 705.135 108.95 702.099 111.867C701.949 112.018 701.798 112.138 701.678 112.289C701.618 112.228 701.618 112.168 701.558 112.108C700.025 110.574 697.469 112.319 696.327 113.432C695.425 114.304 694.553 115.537 693.772 116.169C692.599 117.161 691.307 117.974 689.894 118.515C689.593 118.635 689.292 118.816 689.022 119.026C687.91 118.455 686.196 118.665 683.911 120.2C674.231 126.727 663.078 130.246 653.879 137.556C644.951 138.969 635.962 139.962 627.004 140.955C611.823 142.609 596.551 143.722 581.31 144.865C499.12 151.032 417.712 154.25 335.372 148.385C306.272 146.309 275.819 145.798 248.252 135.179C228.141 127.419 205.745 117.131 197.808 95.3535C183.769 56.7008 226.487 25.8087 258.534 17.7773C268.514 15.2807 277.863 14.8896 286.702 9.26468C290.039 7.15909 290.91 -0.210502 285.529 2.58693C279.607 5.65509 273.053 6.97861 266.41 8.18181C267.071 6.49733 266.801 5.05349 264.396 4.87301C263.223 4.78277 262.051 4.72261 260.878 4.66245C260.488 4.15109 259.766 3.72997 258.684 3.54949C248.012 1.77478 239.113 4.54213 229.283 8.54277C224.112 10.6484 218.731 12.2426 213.26 13.536C204.031 12.3629 189.872 17.0253 182.326 17.9578C181.935 17.5968 181.334 17.3562 180.432 17.296C157.916 15.8221 136.241 21.9283 114.867 28.3955C96.3187 33.9904 77.3496 38.2918 59.1019 44.8192C34.9621 53.392 0.120208 70.5075 3.00616 101.249C3.15647 102.994 3.48716 104.648 3.87796 106.242C1.14232 109.01 1.50306 113.913 5.65162 111.476C5.68169 111.567 5.71175 111.657 5.77187 111.747C4.38902 114.454 6.64367 123.177 9.19894 124.892C15.1512 128.863 19.42 131.961 24.4404 136.984C38.4493 150.911 62.4388 156.536 80.6264 161.439C107.983 168.809 135.67 175.607 163.477 181.081C176.103 183.578 189.18 186.165 202.077 185.232C206.346 184.932 210.464 184.962 214.523 185.172C222.82 188.24 232.109 187.789 242.029 187.669C242.691 187.669 243.412 187.458 244.164 187.127C249.996 187.699 255.798 188.09 261.57 188.271C262.051 188.992 262.953 189.444 264.456 189.474C282.222 189.835 299.989 189.955 317.756 189.474C317.395 191.459 318.147 193.023 320.912 193.053C331.314 193.234 341.835 194.647 351.606 190.617C361.376 192.331 371.807 190.376 381.788 189.895C401.96 188.962 421.56 190.918 441.762 188.541C455.41 186.947 469.028 184.992 482.616 182.916C483.097 183.037 483.668 183.037 484.42 182.916C486.344 182.646 488.238 182.315 490.131 181.894C490.282 181.863 490.492 181.773 490.703 181.683C496.835 180.72 502.968 179.758 509.071 178.795C509.131 179.788 509.672 180.57 510.964 180.871C527.799 185.082 545.025 177.532 561.739 175.727C577.341 174.043 593.906 172.779 608.125 165.65C608.967 165.229 610.079 164.267 611.101 163.064C619.128 162.823 626.733 161.199 632.956 155.032C633.527 154.461 642.155 153.829 643.478 153.588C650.062 152.235 656.645 149.979 662.898 147.482C676.366 142.128 689.112 135.54 701.257 127.629C704.083 125.794 705.706 121.313 704.654 119.117C704.714 119.026 704.805 118.966 704.865 118.876C705.255 118.425 705.526 117.913 705.676 117.402C706.308 116.801 706.969 116.199 707.6 115.597C711.087 112.349 715.326 108.438 716.619 103.716C717.851 99.1737 712.17 100.648 710.366 102.573H710.306ZM163.628 167.305C170.392 168.297 177.186 169.11 184.01 169.681C184.791 170.373 185.573 170.914 186.355 171.396C179.771 170.493 173.187 169.23 166.544 167.906C165.582 167.726 164.59 167.515 163.628 167.305ZM254.806 176.239C254.896 175.817 254.926 175.456 254.956 175.095C255.197 175.126 255.437 175.156 255.708 175.186C258.233 175.547 260.788 175.938 263.343 176.389C260.488 176.389 257.662 176.329 254.806 176.239Z" fill="#B2B2B2"></path></g><path d="M170.362 106.995L227.81 49.4817" stroke="#1C1C1B" stroke-width="0.25" stroke-miterlimit="10"></path><path d="M276.39 71.6504L310.3 37.7202" stroke="#1C1C1B" stroke-width="0.25" stroke-miterlimit="10"></path><path d="M367.478 132.743L466.292 33.8701" stroke="#1C1C1B" stroke-width="0.25" stroke-miterlimit="10"></path><path d="M397.57 77.3958L426.31 48.6694" stroke="#1C1C1B" stroke-width="0.25" stroke-miterlimit="10"></path><path d="M106.72 95.4438L142.193 59.9495" stroke="#1C1C1B" stroke-width="0.25" stroke-miterlimit="10"></path><path d="M526.837 97.6697L571.99 52.4595" stroke="#1C1C1B" stroke-width="0.25" stroke-miterlimit="10"></path><path d="M520.825 121.824L545.415 97.2185" stroke="#1C1C1B" stroke-width="0.25" stroke-miterlimit="10"></path><path d="M170.362 127.659L185.182 112.83" stroke="#1C1C1B" stroke-width="0.25" stroke-miterlimit="10"></path><path d="M97.7014 75.0496L120.639 52.0986" stroke="#1C1C1B" stroke-width="0.25" stroke-miterlimit="10"></path></svg> 