<?xml version="1.0" encoding="UTF-8"?> <svg xmlns="http://www.w3.org/2000/svg" width="101" height="117" viewBox="0 0 101 117" fill="none"><path d="M61.2186 100.639C56.6008 101.555 51.9266 102.376 47.2977 103.493C45.1888 103.962 43.0211 104.66 41.1549 105.76C38.6188 107.255 37.7039 110.953 38.8356 113.639C39.64 115.551 42.6636 117.508 44.1862 116.481C50.2094 112.48 57.0484 113.8 63.5223 113.079C69.0331 112.474 74.6319 112.785 80.1427 112.18C84.147 111.754 88.2864 111.119 91.994 109.643C100.814 106.12 103.383 96.8048 97.2932 89.7556C88.8245 79.9825 79.8858 70.6152 69.4587 62.7701C67.4128 61.2681 65.1275 59.9071 62.733 59.1263C59.0652 57.9355 55.0504 62.1719 56.5181 65.7556C57.7712 68.7566 59.7786 71.5063 61.6624 74.2645C64.5443 78.4975 67.6657 82.5896 70.9168 87.1208C69.4053 87.9473 68.4739 88.883 67.6937 88.7626C54.4524 86.316 41.922 81.903 30.8078 74.2049C21.4747 67.7782 14.2605 59.5866 11.1863 48.2456C6.87158 32.2842 12.327 16.8182 26.0224 7.45602C27.545 6.42955 29.1326 5.62271 30.281 4.94578C30.954 1.71215 29.2662 0.708321 27.399 0.712811C23.2169 0.727827 19.5376 2.25183 16.2112 4.92178C0.82341 17.5382 -4.04941 38.915 4.23829 57.2412C9.10867 67.9104 16.3092 76.6258 26.079 83.2464C34.1242 88.6914 42.8384 92.646 51.949 95.8511C55.0647 96.9805 58.2199 97.9576 61.3553 99.0109C61.3135 99.4869 61.2519 100.039 61.2186 100.639Z" fill="#34304C"></path></svg> 