<?xml version="1.0" encoding="UTF-8"?> <svg xmlns="http://www.w3.org/2000/svg" width="505" height="405" viewBox="0 0 505 405" fill="none"><path d="M43.9991 173.879C-11.0321 165.689 -16.295 189.178 38.7361 197.367C-0.608346 201.317 7.51603 254.986 46.8605 251.078C5.21668 294.438 46.1963 320.462 87.8401 277.102C45.021 302.96 89.4241 351.599 132.243 325.741C95.5046 364.029 121.819 380.741 158.558 342.453C131.426 394.792 175.113 409.8 202.246 357.461C192.742 416.909 231.32 420.983 240.824 361.535C235.765 400.197 277.664 403.855 282.723 365.193C277.971 416.784 313.534 418.987 318.337 367.355C312.512 409.259 357.171 413.375 363.047 371.471C377.047 412.169 405.151 405.767 391.15 365.068C427.327 388.058 448.634 365.817 412.457 342.869C448.634 365.858 478.321 334.887 442.145 311.94C509.184 326.656 531.564 259.143 464.576 244.427C513.527 241.392 506.22 163.943 457.269 166.978C496.614 141.453 460.131 104.205 420.786 129.771C456.758 98.5924 406.939 60.5541 370.967 91.733C413.633 47.2926 328.761 -6.58461 286.146 37.8142C293.555 -6.08575 249.612 -10.9912 242.203 32.9087C241.181 -11.6564 172.712 -10.6171 173.734 33.948C149.514 -3.13413 114.666 11.9149 138.886 48.9971C102.454 25.8831 52.9921 77.4323 89.373 100.588C52.941 77.4738 19.4727 112.353 55.8535 135.508C16.8156 129.106 10.7862 153.343 49.8241 159.786C-10.2145 143.615 -15.9885 157.791 44.0502 174.004L43.9991 173.879Z" fill="url(#paint0_linear_285_13)"></path><path d="M78.6879 179.7C83.2212 178.3 87.4212 177.233 91.2879 176.5C95.2212 175.767 98.8546 175.4 102.188 175.4C109.055 175.4 114.355 176.933 118.088 180C121.888 183 123.788 187.567 123.788 193.7C123.788 198.633 123.021 202.867 121.488 206.4C119.955 209.933 117.955 212.833 115.488 215.1C113.021 217.3 110.188 218.933 106.988 220C103.855 221 100.688 221.5 97.4879 221.5C95.3546 221.5 93.2546 221.3 91.1879 220.9C90.6546 224.033 90.3546 226.567 90.2879 228.5C90.2212 230.433 90.0546 232.267 89.7879 234C88.2546 234.4 86.6212 234.667 84.8879 234.8C83.2212 235 81.5546 235.1 79.8879 235.1C78.3546 235.1 76.9212 235.033 75.5879 234.9C74.3212 234.767 73.1212 234.633 71.9879 234.5C71.9879 233.433 72.0879 231.6 72.2879 229C72.5546 226.333 72.8546 223.3 73.1879 219.9C73.5879 216.433 74.0212 212.733 74.4879 208.8C74.9546 204.867 75.4212 201.067 75.8879 197.4C76.4212 193.667 76.9212 190.267 77.3879 187.2C77.8546 184.067 78.2879 181.567 78.6879 179.7ZM95.5879 193.6C95.1879 195.533 94.7212 197.8 94.1879 200.4C93.7212 202.933 93.3212 205.867 92.9879 209.2C93.3212 209.267 93.6546 209.333 93.9879 209.4C94.3212 209.4 94.6879 209.4 95.0879 209.4C96.1546 209.4 97.2546 209.233 98.3879 208.9C99.5879 208.567 100.655 208 101.588 207.2C102.521 206.333 103.288 205.233 103.888 203.9C104.488 202.567 104.788 200.9 104.788 198.9C104.788 196.767 104.321 195.267 103.388 194.4C102.455 193.533 101.188 193.1 99.5879 193.1C98.9879 193.1 98.3546 193.167 97.6879 193.3C97.0212 193.367 96.3212 193.467 95.5879 193.6ZM158.699 235.2C158.832 234 159.032 232.3 159.299 230.1C159.565 227.833 159.899 225.233 160.299 222.3C159.165 222.367 157.999 222.4 156.799 222.4C155.599 222.4 154.432 222.4 153.299 222.4C152.432 222.4 151.599 222.4 150.799 222.4C149.999 222.4 149.232 222.367 148.499 222.3C148.099 225.033 147.765 227.4 147.499 229.4C147.299 231.333 147.132 232.767 146.999 233.7C146.132 233.833 144.999 233.967 143.599 234.1C142.265 234.233 140.832 234.367 139.299 234.5C137.765 234.633 136.265 234.733 134.799 234.8C133.332 234.933 132.065 235 130.999 235C130.599 235 130.232 235 129.899 235C129.565 235 129.265 234.967 128.999 234.9C129.065 233.367 129.232 231 129.499 227.8C129.832 224.6 130.199 221 130.599 217C131.065 212.933 131.499 208.767 131.899 204.5C132.365 200.167 132.799 196.133 133.199 192.4C133.665 188.667 134.065 185.5 134.399 182.9C134.732 180.233 134.965 178.567 135.099 177.9C136.432 177.767 137.932 177.667 139.599 177.6C141.332 177.467 143.132 177.4 144.999 177.4C146.932 177.4 148.865 177.467 150.799 177.6C152.732 177.667 154.465 177.833 155.999 178.1C155.665 179.7 155.265 181.667 154.799 184C154.399 186.333 153.932 188.867 153.399 191.6C152.932 194.333 152.432 197.2 151.899 200.2C151.432 203.133 150.965 206.067 150.499 209C152.099 208.733 153.899 208.433 155.899 208.1C157.965 207.767 160.065 207.5 162.199 207.3C162.599 204.033 162.999 200.8 163.399 197.6C163.799 194.4 164.165 191.467 164.499 188.8C164.832 186.067 165.099 183.7 165.299 181.7C165.499 179.7 165.632 178.3 165.699 177.5C166.965 177.367 168.465 177.267 170.199 177.2C171.999 177.133 173.799 177.1 175.599 177.1C177.799 177.1 179.832 177.167 181.699 177.3C183.632 177.367 185.032 177.533 185.899 177.8C185.632 180.333 185.232 183.367 184.699 186.9C184.232 190.367 183.699 194.033 183.099 197.9C182.499 201.767 181.865 205.667 181.199 209.6C180.599 213.533 179.999 217.2 179.399 220.6C178.865 223.933 178.365 226.833 177.899 229.3C177.499 231.7 177.199 233.367 176.999 234.3C175.332 234.7 173.499 234.967 171.499 235.1C169.565 235.233 167.699 235.3 165.899 235.3C164.232 235.3 162.732 235.267 161.399 235.2C160.132 235.2 159.232 235.2 158.699 235.2ZM216.907 175.6C217.773 175.4 218.973 175.233 220.507 175.1C222.107 174.967 223.973 174.9 226.107 174.9C228.307 174.9 230.773 175 233.507 175.2C234.44 181.6 235.407 187.433 236.407 192.7C237.473 197.967 238.54 202.833 239.607 207.3C240.74 211.767 241.907 215.933 243.107 219.8C244.373 223.6 245.707 227.2 247.107 230.6C244.64 231.933 241.607 233.133 238.007 234.2C234.473 235.333 230.84 236.4 227.107 237.4C226.307 236.133 225.473 234.4 224.607 232.2C223.74 230 223.04 227.633 222.507 225.1C220.707 225.433 218.573 225.733 216.107 226C213.707 226.267 210.973 226.467 207.907 226.6C207.373 228.533 206.873 230.233 206.407 231.7C206.007 233.1 205.64 234.633 205.307 236.3C201.907 236.167 198.707 235.7 195.707 234.9C192.773 234.1 189.74 233.167 186.607 232.1C188.073 228.033 189.94 223.567 192.207 218.7C194.473 213.833 196.94 208.9 199.607 203.9C202.34 198.833 205.173 193.867 208.107 189C211.107 184.133 214.04 179.667 216.907 175.6ZM219.707 195.6C218.773 197.4 217.707 199.7 216.507 202.5C215.373 205.3 214.14 208.467 212.807 212C213.007 212 213.273 212.033 213.607 212.1C213.94 212.1 214.34 212.1 214.807 212.1C215.74 212.1 216.773 212.1 217.907 212.1C219.04 212.033 220.04 212 220.907 212C220.507 209.2 220.207 206.533 220.007 204C219.807 201.4 219.707 198.6 219.707 195.6ZM290.518 199.4C290.118 199.267 289.418 198.9 288.418 198.3C287.484 197.633 286.351 196.933 285.018 196.2C283.751 195.467 282.351 194.8 280.818 194.2C279.351 193.6 277.918 193.3 276.518 193.3C274.718 193.3 273.284 193.733 272.218 194.6C271.218 195.4 270.718 196.367 270.718 197.5C270.718 198.633 271.284 199.733 272.418 200.8C273.551 201.867 275.384 202.667 277.918 203.2C281.718 204 284.751 205.067 287.018 206.4C289.284 207.667 291.018 209.033 292.218 210.5C293.484 211.9 294.318 213.333 294.718 214.8C295.118 216.2 295.318 217.4 295.318 218.4C295.318 221.733 294.618 224.7 293.218 227.3C291.818 229.833 290.018 231.967 287.818 233.7C285.618 235.433 283.118 236.733 280.318 237.6C277.584 238.533 274.818 239 272.018 239C269.084 239 266.318 238.667 263.718 238C261.118 237.4 258.751 236.533 256.618 235.4C254.551 234.333 252.751 233.033 251.218 231.5C249.751 229.967 248.684 228.267 248.018 226.4C248.884 225.267 249.851 224.133 250.918 223C252.051 221.8 253.218 220.667 254.418 219.6C255.618 218.467 256.784 217.4 257.918 216.4C259.118 215.4 260.184 214.5 261.118 213.7C263.451 216.5 265.684 218.467 267.818 219.6C270.018 220.667 271.984 221.2 273.718 221.2C274.584 221.2 275.418 221 276.218 220.6C277.018 220.133 277.418 219.133 277.418 217.6C277.418 216.8 277.251 216.167 276.918 215.7C276.584 215.167 276.018 214.7 275.218 214.3C274.418 213.9 273.384 213.5 272.118 213.1C270.851 212.7 269.284 212.2 267.418 211.6C265.084 210.867 262.918 210.067 260.918 209.2C258.984 208.267 257.318 207.167 255.918 205.9C254.518 204.633 253.418 203.167 252.618 201.5C251.818 199.767 251.418 197.7 251.418 195.3C251.418 191.433 252.084 188.1 253.418 185.3C254.751 182.5 256.551 180.2 258.818 178.4C261.084 176.6 263.684 175.3 266.618 174.5C269.618 173.633 272.784 173.2 276.118 173.2C280.784 173.2 285.451 174 290.118 175.6C294.784 177.133 298.851 179.3 302.318 182.1C301.784 183.633 301.051 185.233 300.118 186.9C299.184 188.5 298.151 190.067 297.018 191.6C295.951 193.133 294.818 194.6 293.618 196C292.484 197.333 291.451 198.467 290.518 199.4ZM311.75 179.1C312.75 178.833 314.65 178.6 317.45 178.4C320.25 178.133 323.45 177.9 327.05 177.7C330.65 177.5 334.416 177.367 338.35 177.3C342.283 177.167 345.916 177.1 349.25 177.1C350.583 177.1 351.85 177.1 353.05 177.1C354.25 177.1 355.35 177.133 356.35 177.2C356.216 178.533 356.05 180.033 355.85 181.7C355.716 183.367 355.516 185 355.25 186.6C355.05 188.2 354.816 189.7 354.55 191.1C354.283 192.433 354.05 193.5 353.85 194.3C351.45 194.167 349.25 194 347.25 193.8C345.316 193.6 343.383 193.4 341.45 193.2C339.583 192.933 337.65 192.733 335.65 192.6C333.65 192.4 331.45 192.267 329.05 192.2L327.05 202.1C329.583 201.433 332.383 200.867 335.45 200.4C338.583 199.867 341.55 199.6 344.35 199.6H345.55C345.55 201.867 345.416 204.2 345.15 206.6C344.95 208.933 344.716 210.9 344.45 212.5H341.85C338.716 212.5 335.883 212.633 333.35 212.9C330.883 213.1 328.183 213.333 325.25 213.6C325.05 214.867 324.883 216.1 324.75 217.3C324.683 218.433 324.583 219.667 324.45 221C327.983 220.933 331.816 220.633 335.95 220.1C340.083 219.5 344.883 218.867 350.35 218.2C350.416 219.667 350.483 221.033 350.55 222.3C350.616 223.567 350.65 224.867 350.65 226.2C350.65 228.4 350.55 230.933 350.35 233.8C347.216 234.267 343.45 234.567 339.05 234.7C334.65 234.833 330.183 234.9 325.65 234.9C321.516 234.9 317.616 234.867 313.95 234.8C310.283 234.733 307.216 234.633 304.75 234.5C304.816 232.567 305.016 230.033 305.35 226.9C305.683 223.7 306.05 220.3 306.45 216.7C306.916 213.033 307.383 209.267 307.85 205.4C308.383 201.467 308.883 197.8 309.35 194.4C309.883 190.933 310.35 187.867 310.75 185.2C311.15 182.467 311.483 180.433 311.75 179.1ZM395.117 177C395.783 176.8 396.783 176.633 398.117 176.5C399.517 176.367 401.117 176.267 402.917 176.2C404.717 176.067 406.683 176 408.817 176C410.95 175.933 413.117 175.9 415.317 175.9C417.583 175.9 419.85 175.933 422.117 176C424.383 176.067 426.517 176.167 428.517 176.3C430.517 176.367 432.317 176.5 433.917 176.7C435.517 176.833 436.783 177.033 437.717 177.3V179.2C437.717 182.4 437.517 185.3 437.117 187.9C436.783 190.433 436.35 192.367 435.817 193.7C433.817 195.233 431.517 196.8 428.917 198.4C426.383 199.933 423.85 201.467 421.317 203C425.05 203.733 428.05 205.3 430.317 207.7C432.583 210.033 433.717 213.233 433.717 217.3C433.717 218.1 433.583 219.2 433.317 220.6C433.05 221.933 432.55 223.367 431.817 224.9C431.15 226.367 430.217 227.867 429.017 229.4C427.883 230.933 426.417 232.333 424.617 233.6C422.883 234.867 420.783 235.867 418.317 236.6C415.85 237.4 412.983 237.8 409.717 237.8C408.183 237.8 406.417 237.7 404.417 237.5C402.483 237.367 400.417 236.967 398.217 236.3C396.083 235.7 393.917 234.767 391.717 233.5C389.583 232.3 387.55 230.6 385.617 228.4C386.083 227.067 386.75 225.667 387.617 224.2C388.417 222.733 389.317 221.3 390.317 219.9C391.317 218.433 392.35 217.067 393.417 215.8C394.483 214.533 395.517 213.433 396.517 212.5C398.85 214.3 401.15 215.967 403.417 217.5C405.683 219.033 407.983 219.8 410.317 219.8C411.45 219.8 412.417 219.633 413.217 219.3C414.017 218.9 414.65 218.433 415.117 217.9C415.65 217.3 416.017 216.667 416.217 216C416.417 215.333 416.517 214.7 416.517 214.1C416.517 213.033 415.983 212.133 414.917 211.4C413.917 210.667 412.25 210.3 409.917 210.3C408.317 210.3 406.483 210.5 404.417 210.9C404.15 210.167 403.95 209.233 403.817 208.1C403.683 206.967 403.617 205.8 403.617 204.6C403.617 204.2 403.617 203.8 403.617 203.4C403.617 202.933 403.65 202.533 403.717 202.2C404.85 201.8 406.15 201.333 407.617 200.8C409.15 200.267 410.65 199.667 412.117 199C413.65 198.267 415.083 197.533 416.417 196.8C417.75 196 418.85 195.167 419.717 194.3C418.717 194.233 417.75 194.2 416.817 194.2C415.883 194.133 414.95 194.1 414.017 194.1C410.883 194.1 407.817 194.3 404.817 194.7C401.817 195.1 398.583 195.667 395.117 196.4C394.717 192.8 394.517 189.433 394.517 186.3C394.517 183.033 394.717 179.933 395.117 177Z" fill="white"></path><defs><linearGradient id="paint0_linear_285_13" x1="0" y1="405" x2="490.931" y2="-16.3912" gradientUnits="userSpaceOnUse"><stop stop-color="#B7A1FF"></stop><stop offset="0.485" stop-color="#7FA8DF"></stop><stop offset="1" stop-color="#83FBF0"></stop></linearGradient></defs></svg> 