<?xml version="1.0" encoding="UTF-8"?> <svg xmlns="http://www.w3.org/2000/svg" width="445" height="163" viewBox="0 0 445 163" fill="none"><rect x="2.7167" y="41.7402" width="429.725" height="118.174" transform="rotate(-5.21024 2.7167 41.7402)" fill="white" stroke="#FB3B3B" stroke-width="5"></rect><path fill-rule="evenodd" clip-rule="evenodd" d="M179.925 94.2139L175.877 88.4553L170.771 88.9216L171.326 94.9991L168.318 95.2738L166.651 77.0168L175.711 76.1894C176.814 76.0765 177.933 76.2807 178.931 76.7656C179.93 77.2505 180.78 77.994 181.392 78.931C182.003 79.8679 182.335 80.953 182.375 82.0646C182.415 83.1763 182.15 84.2913 181.603 85.2605C181.037 86.2928 180.184 87.1305 179.145 87.6789L183.455 93.8916L179.925 94.2139ZM175.982 79.2901L169.942 79.8417L170.496 85.9071L176.548 85.3544C176.948 85.3179 177.329 85.1973 177.678 85.0061C178.028 84.8148 178.334 84.554 178.574 84.2379C178.948 83.7748 179.19 83.2134 179.245 82.6078C179.301 82.0144 179.185 81.4122 178.915 80.873C178.635 80.3471 178.215 79.9074 177.687 79.6124C177.159 79.3175 176.572 79.1872 175.978 79.2415L175.982 79.2901ZM207.914 73.2489L200.496 92.3355L203.868 92.0276L208.524 80.069L215.257 90.9876L218.629 90.6797L207.914 73.2489ZM246.144 69.7578L242.3 70.1089L237.747 77.3147L231.99 71.0504L228.133 71.4026L236.59 80.4477L237.368 88.9685L240.376 88.6938L239.585 80.0272L246.144 69.7578ZM267.589 67.7997C269.991 67.5925 272.372 68.3556 274.215 69.9155C276.068 71.4622 277.238 73.6963 277.47 76.102C277.679 78.5219 276.932 80.9189 275.39 82.7878C273.849 84.6568 271.644 85.8264 269.244 86.0578L263.215 86.6083L261.548 68.3512L267.589 67.7997ZM268.973 82.9571C270.574 82.8109 272.043 82.0272 273.067 80.7816C274.09 79.536 274.592 77.9336 274.446 76.3291C274.275 74.7269 273.503 73.2407 272.272 72.2133C271.041 71.1859 269.453 70.6691 267.863 70.802L264.818 71.08L265.928 83.2351L268.973 82.9571ZM296.759 65.136L293.751 65.4107L295.418 83.6677L298.426 83.393L296.759 65.136ZM329.92 72.8323C330.025 73.8401 329.934 74.8534 329.63 75.8126C329.338 76.7708 328.845 77.6615 328.18 78.4208C327.223 79.5868 325.942 80.4269 324.501 80.8527C323.06 81.2784 321.531 81.271 320.095 80.8138C318.66 80.3688 317.393 79.4916 316.454 78.315C315.515 77.1383 314.944 75.7074 314.807 74.2002L313.836 63.5766L316.844 63.3019L317.815 73.9255C317.926 75.141 318.504 76.2525 319.443 77.0248C320.37 77.7981 321.566 78.1791 322.767 78.0694C323.968 77.9598 325.076 77.3684 325.847 76.44C326.618 75.5116 326.985 74.3015 326.875 73.0981L325.905 62.4745L328.937 62.1976L329.908 72.8334L329.92 72.8323ZM350.714 78.6183L349.717 67.703L356.338 73.239L361.822 66.5977L362.819 77.513L365.875 77.2339L364.208 58.9769L355.945 68.936L346.051 60.6349L347.718 78.8919L350.714 78.6183Z" fill="#193650"></path><path d="M144.245 78.4867L146.723 105.629L118.344 125.796L86.7696 111.104L83.5863 76.2429L111.987 56.0491L136.245 67.353L139.542 65.0173L111.619 52.0136L79.932 74.5297L83.485 113.438L118.726 129.843L150.413 107.327L147.566 76.1489L144.245 78.4867Z" fill="url(#paint0_linear_15_31201)"></path><path d="M108.374 109.156L103.364 109.613L101.817 92.6687L118.531 91.1425C120.107 90.9864 121.564 90.2037 122.575 88.9592C123.588 87.7269 124.067 86.1389 123.933 84.5454C123.873 83.7542 123.645 82.9907 123.275 82.2891C122.905 81.5875 122.396 80.9721 121.789 80.476C121.192 79.9667 120.496 79.5768 119.752 79.3383C119.009 79.0997 118.218 79.0126 117.431 79.0968L100.717 80.623L100.247 75.4692L116.972 73.9419C119.897 73.6871 122.819 74.6214 125.071 76.5116C127.336 78.4129 128.758 81.1266 129.052 84.078C129.271 86.3378 128.792 88.5999 127.675 90.5649C126.648 92.4359 125.1 93.9744 123.223 94.9793C121.339 95.7764 119.353 96.2642 117.327 96.437L107.296 97.3529L108.374 109.156Z" fill="url(#paint1_linear_15_31201)"></path><path d="M130.992 106.661L125.146 107.195L119.91 99.6819C121.683 99.4097 123.408 98.8845 125.039 98.1228L130.992 106.661Z" fill="url(#paint2_linear_15_31201)"></path><path d="M140.237 73.1657L143.87 74.7827L147.15 72.5344L146.776 68.4381L143.135 66.736L139.863 69.0694L140.237 73.1657Z" fill="url(#paint3_linear_15_31201)"></path><defs><linearGradient id="paint0_linear_15_31201" x1="372.341" y1="53.1827" x2="295.199" y2="214.619" gradientUnits="userSpaceOnUse"><stop stop-color="#C200FB"></stop><stop offset="0.4897" stop-color="#3772FF"></stop><stop offset="0.4898" stop-color="#3773FE"></stop><stop offset="1" stop-color="#5AC4BE"></stop></linearGradient><linearGradient id="paint1_linear_15_31201" x1="562.703" y1="8.80603" x2="393.376" y2="386.068" gradientUnits="userSpaceOnUse"><stop stop-color="#C200FB"></stop><stop offset="0.4897" stop-color="#3772FF"></stop><stop offset="0.4898" stop-color="#3773FE"></stop><stop offset="1" stop-color="#5AC4BE"></stop></linearGradient><linearGradient id="paint2_linear_15_31201" x1="1092.51" y1="-105.186" x2="319.688" y2="1071.4" gradientUnits="userSpaceOnUse"><stop stop-color="#C200FB"></stop><stop offset="0.4897" stop-color="#3772FF"></stop><stop offset="0.4898" stop-color="#3773FE"></stop><stop offset="1" stop-color="#5AC4BE"></stop></linearGradient><linearGradient id="paint3_linear_15_31201" x1="147.049" y1="68.9653" x2="78.5286" y2="103.677" gradientUnits="userSpaceOnUse"><stop stop-color="#C200FB"></stop><stop offset="0.4897" stop-color="#3772FF"></stop><stop offset="0.4898" stop-color="#3773FE"></stop><stop offset="1" stop-color="#5AC4BE"></stop></linearGradient></defs></svg> 