<?xml version="1.0" encoding="UTF-8"?> <svg xmlns="http://www.w3.org/2000/svg" width="215" height="147" viewBox="0 0 215 147" fill="none"><g clip-path="url(#clip0_14_31141)"><path d="M4.8881 55.1289H3.99957V121.466H4.8881V55.1289Z" fill="#1E9100"></path><path d="M210.93 0H210.184V57.036H210.93V0Z" fill="#1E9100"></path><path d="M192.263 29.1865H191.374V65.2968H192.263V29.1865Z" fill="#1E9100"></path><path d="M173.526 23.5576H172.637V92.5698H173.526V23.5576Z" fill="#F83400"></path><path d="M154.729 41.5195H153.958V99.4968H154.729V41.5195Z" fill="#1E9100"></path><path d="M136.051 55.1289H135.163V121.466H136.051V55.1289Z" fill="#F83400"></path><path d="M117.313 82.3154H116.425V106.925H117.313V82.3154Z" fill="#1E9100"></path><path d="M98.5166 35.0161H97.7444V146.766H98.5166V35.0161Z" fill="#1E9100"></path><path d="M79.8374 55.5342H78.9489V105.822H79.8374V55.5342Z" fill="#F83400"></path><path d="M61.1007 43.1982H60.2122V143.774H61.1007V43.1982Z" fill="#1E9100"></path><path d="M42.3628 68.7188H41.4742V138.679H42.3628V68.7188Z" fill="#F83400"></path><path d="M23.6249 49.9409H22.7363V116.278H23.6249V49.9409Z" fill="#F83400"></path><path d="M8.88649 78.2471H0V98.3491H8.88649V78.2471Z" fill="#1E9100"></path><path d="M215 16.2378H206.114V40.7983H215V16.2378Z" fill="#1E9100"></path><path d="M196.261 41.771H187.374V52.7138H196.261V41.771Z" fill="#1E9100"></path><path d="M177.524 47.6064H168.638V68.5193H177.524V47.6064Z" fill="#F83400"></path><path d="M158.786 54.1724H149.9V85.2988H158.786V54.1724Z" fill="#1E9100"></path><path d="M140.05 78.2471H131.163V98.3491H140.05V78.2471Z" fill="#F83400"></path><path d="M121.312 90.8921H112.425V98.3492H121.312V90.8921Z" fill="#1E9100"></path><path d="M102.574 68.5195H93.6873V113.264H102.574V68.5195Z" fill="#1E9100"></path><path d="M83.8369 73.0596H74.9504V88.2989H83.8369V73.0596Z" fill="#F83400"></path><path d="M65.0991 78.2471H56.2126V108.725H65.0991V78.2471Z" fill="#1E9100"></path><path d="M46.3623 88.2974H37.4758V119.099H46.3623V88.2974Z" fill="#F83400"></path><path d="M27.6232 73.0596H18.7368V93.1616H27.6232V73.0596Z" fill="#F83400"></path></g><defs><clipPath id="clip0_14_31141"><rect width="215" height="146.766" fill="white"></rect></clipPath></defs></svg> 