<?xml version="1.0" encoding="UTF-8"?> <svg xmlns="http://www.w3.org/2000/svg" width="270" height="489" viewBox="0 0 270 489" fill="none"><g clip-path="url(#clip0_14_30497)"><path d="M143.361 469.59C144.013 474.188 145.577 478.235 149.4 479.865C154.674 482.102 173.376 481.315 174.996 475.02C175.749 472.085 166.314 371.508 165.628 352.161C163.48 292.02 159.555 231.125 156.969 170.994C156.024 149.062 150.322 57.8149 148.86 35.9052C148.489 30.4306 148.107 24.956 147.713 19.4815C147.421 15.4795 148.219 9.66765 147.027 5.94672C145.026 -0.303535 139.144 -0.314776 133.926 0.202331C129.709 0.618266 125.75 1.91103 121.848 3.54105C114.797 6.48631 101.651 11.3201 100.054 19.7512C98.738 26.6985 103.596 104.377 104.372 111.246C105.519 121.43 106.666 131.615 107.802 141.811C110.276 163.822 112.75 185.844 115.224 207.855C116.9 222.817 118.587 237.78 120.274 252.742C124.581 290.985 128.955 329.218 133.218 367.461C135.377 386.774 137.502 406.098 139.571 425.422C140.606 435.09 140.527 443.442 141.539 453.11C141.944 457.033 142.619 464.329 143.361 469.601V469.59Z" fill="#C28848"></path><g style="mix-blend-mode:screen"><path d="M111.086 18.6944C119.779 17.1656 128.236 13.5009 135.478 8.47592C138.424 6.42997 141.27 4.12547 143.811 1.51745C141.09 -0.247458 137.367 -0.146285 133.926 0.202201C129.709 0.618135 125.75 1.9109 121.848 3.54092C114.943 6.41873 102.202 11.1289 100.177 19.2453C103.832 19.4476 107.42 19.3352 111.086 18.6944Z" fill="#C28848"></path></g><g style="mix-blend-mode:multiply"><path d="M110.546 8.65556C110.726 8.55439 110.906 8.45321 111.097 8.36328C110.917 8.46445 110.737 8.55439 110.546 8.65556Z" fill="#C28848"></path></g><g style="mix-blend-mode:multiply"><path d="M115.281 6.31757C115.415 6.25012 115.562 6.19391 115.697 6.12646C115.562 6.18267 115.415 6.25012 115.281 6.31757Z" fill="#C28848"></path></g><g style="mix-blend-mode:multiply"><path d="M116.866 5.62027C116.99 5.56406 117.114 5.50786 117.237 5.46289C117.114 5.5191 116.99 5.56406 116.866 5.62027Z" fill="#C28848"></path></g><g style="mix-blend-mode:multiply"><path d="M118.396 4.9684C118.508 4.92344 118.621 4.87847 118.733 4.82227C118.621 4.86723 118.508 4.9122 118.396 4.9684Z" fill="#C28848"></path></g><g style="mix-blend-mode:multiply"><path d="M119.903 4.3501C119.903 4.3501 119.858 4.36134 119.846 4.37258C119.869 4.37258 119.88 4.36134 119.903 4.3501Z" fill="#C28848"></path></g><g style="mix-blend-mode:multiply" opacity="0.6"><path d="M174.984 472.276C172.859 471.635 170.767 470.871 168.754 469.972C164.728 468.173 160.489 465.869 157.7 462.361C154.832 458.753 153.572 454.234 152.65 449.805C150.367 438.945 148.039 428.221 147.758 417.069C147.612 411.347 147.916 405.614 148.86 399.971C149.49 396.194 149.783 392.203 151.458 388.696C153.28 384.874 156.463 382.648 160.005 380.568C162.457 379.129 164.796 377.421 167.236 375.903C166.393 365.19 165.785 356.568 165.628 352.15C164.694 326.047 163.424 299.798 162.074 273.538C157.677 275.045 153.258 276.529 148.815 277.922C147.016 278.485 145.183 278.968 143.44 279.676C142.18 280.182 140.91 280.677 139.616 281.093C137.423 281.79 134.365 282.779 132.408 281.036C130.361 279.204 131.081 276.236 132.138 274.078C133.42 271.436 135.298 268.985 137.435 266.973C140.179 264.399 144.058 263.264 147.522 262.038C150.772 260.88 153.887 259.43 157.115 258.216C158.329 257.755 159.758 257.103 161.197 256.676C159.701 228.044 158.183 199.435 156.957 170.982C156.384 157.571 154.022 118.26 151.953 84.7153C142.889 86.4915 133.341 86.6938 124.446 83.9397C122.557 83.3551 119.948 82.1635 119.16 80.1962C118.688 79.0271 118.429 77.7231 118.081 76.509C117.766 75.4186 117.496 74.317 117.316 73.1928C116.506 68.0105 117.102 62.4685 117.62 57.2861C118.171 51.8453 118.947 46.4381 119.498 40.9972C120.037 35.6351 120.161 30.2729 120.071 24.877C120.026 22.0666 119.925 19.2225 119.846 16.3672C116.979 17.3564 114.043 18.1433 111.075 18.6604C107.42 19.3012 103.832 19.4136 100.189 19.2113C100.144 19.3799 100.087 19.5485 100.054 19.7284C98.738 26.6756 103.596 104.354 104.372 111.223C105.519 121.407 106.666 131.592 107.802 141.788C110.276 163.799 112.75 185.821 115.224 207.832C116.9 222.794 118.587 237.757 120.274 252.719C124.581 290.963 128.955 329.195 133.218 367.438C135.377 386.751 137.502 406.075 139.571 425.399C140.606 435.067 140.527 443.419 141.539 453.087C141.944 457.01 142.619 464.306 143.361 469.578C144.013 474.176 145.577 478.223 149.4 479.853C154.674 482.09 173.376 481.303 174.996 475.008C175.063 474.761 175.052 473.794 174.973 472.254L174.984 472.276Z" fill="#C28848"></path></g><g style="mix-blend-mode:multiply"><path d="M104.001 13.231C103.877 13.3434 103.765 13.467 103.641 13.5794C103.754 13.467 103.877 13.3434 104.001 13.231Z" fill="#C28848"></path></g><g style="mix-blend-mode:multiply"><path d="M102.573 14.7484C102.674 14.636 102.764 14.5123 102.865 14.3999C102.764 14.5123 102.674 14.6247 102.573 14.7484Z" fill="#C28848"></path></g><g style="mix-blend-mode:multiply"><path d="M101.673 15.9623C101.763 15.8162 101.864 15.6813 101.965 15.5464C101.864 15.6813 101.774 15.8274 101.673 15.9623Z" fill="#C28848"></path></g><g style="mix-blend-mode:multiply"><path d="M100.953 17.1879C101.021 17.0418 101.1 16.9069 101.178 16.772C101.1 16.9069 101.021 17.053 100.953 17.1879Z" fill="#C28848"></path></g><g style="mix-blend-mode:multiply"><path d="M100.402 18.4696C100.447 18.3459 100.492 18.2335 100.537 18.1099C100.492 18.2335 100.436 18.3459 100.402 18.4696Z" fill="#C28848"></path></g><g style="mix-blend-mode:multiply"><path d="M107.645 10.3982C107.791 10.2971 107.948 10.2071 108.094 10.106C107.937 10.2071 107.791 10.2971 107.645 10.3982Z" fill="#C28848"></path></g><g style="mix-blend-mode:multiply"><path d="M109.084 9.4876C109.253 9.38643 109.421 9.28526 109.601 9.18408C109.433 9.28526 109.264 9.38643 109.084 9.4876Z" fill="#C28848"></path></g><g style="mix-blend-mode:multiply"><path d="M106.205 11.3983C106.351 11.2858 106.498 11.1847 106.644 11.0835C106.498 11.1847 106.351 11.2971 106.205 11.3983Z" fill="#C28848"></path></g><g style="mix-blend-mode:screen"><path d="M120.825 24.124C121.466 51.126 124.232 77.847 129.079 104.388C121.308 78.5215 118.486 51.0249 120.825 24.124Z" fill="#9B5826"></path><path d="M127.741 49.5298C130.294 56.9379 131.43 64.8182 131.047 72.6535C128.483 65.2454 127.37 57.3651 127.741 49.5298Z" fill="#9B5826"></path><path d="M133.015 49.0352C135.748 55.4653 136.704 62.6823 135.714 69.5958C133.735 62.9184 132.835 55.9936 133.015 49.0352Z" fill="#9B5826"></path><path d="M141.472 14.6924C144.823 35.9725 146.701 57.4437 147.095 78.9711C143.744 57.691 141.877 36.231 141.472 14.6924Z" fill="#9B5826"></path><path d="M133.184 24.1128C135.141 30.1832 135.658 36.647 134.657 42.9423C132.689 36.9056 132.194 30.3855 133.184 24.1128Z" fill="#9B5826"></path><path d="M138.874 261.903C142.023 270.289 143.17 279.474 142.124 288.377C140.19 279.654 139.11 270.84 138.874 261.903Z" fill="#9B5826"></path><path d="M144.688 264.208C146.499 266.423 146.96 269.492 145.858 272.133C144.036 269.919 143.597 266.85 144.688 264.208Z" fill="#9B5826"></path><path d="M147.545 384.672C153.303 413.225 157.621 442.048 160.455 471.029C154.686 442.476 150.39 413.664 147.545 384.672Z" fill="#9B5826"></path><path d="M160.275 418.722C162.996 426.996 164.301 435.719 164.076 444.42C161.343 436.146 160.061 427.423 160.275 418.722Z" fill="#9B5826"></path><path d="M157.677 387.224C160.117 393.125 160.86 399.724 159.758 406.019C157.88 399.938 157.194 393.575 157.677 387.224Z" fill="#9B5826"></path></g><path d="M4.05969 115.169C4.05969 115.169 61.6718 91.6742 85.5579 90.8198C109.444 89.9655 126.684 93.6527 154.258 88.3467C181.833 83.0407 234.868 83.8501 244.101 85.8511C253.334 87.8521 258.304 90.2915 259.688 93.0119C261.071 95.7323 25.2355 128.524 21.9967 128.22C18.7467 127.928 4.05969 115.158 4.05969 115.158V115.169Z" fill="#9B5826"></path><g style="mix-blend-mode:screen"><path d="M4.05969 115.169C4.05969 115.169 61.6718 91.6742 85.5579 90.8198C109.444 89.9655 126.684 93.6527 154.258 88.3467C181.833 83.0407 234.868 83.8501 244.101 85.8511C253.334 87.8521 258.304 90.2915 259.688 93.0119C261.071 95.7323 25.2355 128.524 21.9967 128.22C18.7467 127.928 4.05969 115.158 4.05969 115.158V115.169Z" fill="#9B5826"></path></g><path d="M18.0157 124.679L4.0597 115.169C4.0597 115.169 -2.00177 122.442 0.685968 131.188C3.38496 139.934 4.09344 140.473 4.8694 143.958C5.6566 147.443 11.4369 149.489 11.4369 149.489C11.4369 149.489 5.06058 153.547 6.08394 155.076C7.10731 156.605 8.81667 170.713 9.91876 172.984C11.0208 175.255 16.3738 176.053 16.8237 176.817C17.2735 177.582 11.9318 179.481 12.6177 180.999C13.3037 182.517 12.1567 189.812 14.1134 189.925C16.0702 190.037 19.9612 190.745 19.3877 192.195C18.8142 193.646 14.4508 196.827 16.0927 202.571C17.7346 208.316 22.514 261.162 23.7736 264.917C25.0331 268.671 24.3246 268.143 26.4388 269.986C28.5418 271.83 46.7937 276.079 46.7937 276.079C46.7937 276.079 46.0065 198.39 39.9675 170.78C33.9285 143.171 18.0157 124.69 18.0157 124.69V124.679Z" fill="#9B5826"></path><g style="mix-blend-mode:multiply"><path d="M18.0157 124.679L4.0597 115.169C4.0597 115.169 -2.00177 122.442 0.685968 131.188C3.38496 139.934 4.09344 140.473 4.8694 143.958C5.6566 147.443 11.4369 149.489 11.4369 149.489C11.4369 149.489 5.06058 153.547 6.08394 155.076C7.10731 156.605 8.81667 170.713 9.91876 172.984C11.0208 175.255 16.3738 176.053 16.8237 176.817C17.2735 177.582 11.9318 179.481 12.6177 180.999C13.3037 182.517 12.1567 189.812 14.1134 189.925C16.0702 190.037 19.9612 190.745 19.3877 192.195C18.8142 193.646 14.4508 196.827 16.0927 202.571C17.7346 208.316 22.514 261.162 23.7736 264.917C25.0331 268.671 24.3246 268.143 26.4388 269.986C28.5418 271.83 46.7937 276.079 46.7937 276.079C46.7937 276.079 46.0065 198.39 39.9675 170.78C33.9285 143.171 18.0157 124.69 18.0157 124.69V124.679Z" fill="#9B5826"></path></g><g style="mix-blend-mode:multiply"><path d="M11.9542 174.378C11.5044 174.164 11.0096 173.984 10.5148 173.771C11.7631 174.962 14.2034 175.659 15.6653 176.199C14.4283 175.58 13.2025 174.962 11.9542 174.378Z" fill="#9B5826"></path></g><g style="mix-blend-mode:multiply"><path d="M19.1403 154.559C24.3359 154.975 29.3965 155.863 34.4008 157.302C35.0081 157.403 35.6041 157.549 36.2002 157.718C35.4242 155.526 34.592 153.413 33.7486 151.389C32.759 151.389 31.7468 151.501 30.8247 151.445C29.329 151.367 27.8445 151.164 26.3713 150.917C23.5711 150.445 20.8047 149.827 18.0157 149.287C15.373 148.77 12.7527 148.433 10.0762 148.174C9.51392 148.118 8.95163 148.062 8.37809 147.994C9.94126 148.961 11.4257 149.489 11.4257 149.489C11.4257 149.489 7.11857 152.232 6.15143 154.065C10.4586 153.873 14.8669 154.211 19.1291 154.559H19.1403Z" fill="#9B5826"></path></g><g style="mix-blend-mode:multiply"><path d="M42.2054 197.209C42.5541 197.209 42.9027 197.209 43.24 197.254C43.3075 197.254 43.375 197.277 43.4425 197.288C43.1388 193.702 42.8015 190.24 42.4304 186.98C39.5289 186.609 36.7962 185.237 34.131 184.102C31.2183 182.854 28.1819 182 25.2468 180.797C22.3341 179.605 19.5452 178.155 16.7337 176.739C16.7562 176.761 16.8012 176.795 16.8125 176.817C17.1273 177.368 14.4958 178.492 13.2138 179.65C14.6308 180.392 15.9128 181.483 17.1948 182.393C19.5902 184.102 22.1317 185.631 24.6508 187.148C29.7226 190.195 34.9182 193.039 39.7314 196.501C40.2037 196.49 40.6648 196.456 41.1708 196.423C41.7893 196.389 42.138 196.771 42.1942 197.209H42.2054Z" fill="#9B5826"></path></g><g style="mix-blend-mode:multiply"><path d="M16.1939 197.378C20.0849 198.615 23.8635 200.222 27.5522 201.942C31.9268 203.977 36.0315 206.349 40.1474 208.788C40.2824 208.777 40.4173 208.788 40.5523 208.844C41.0021 209.047 41.407 209.305 41.868 209.496C42.3291 209.688 42.7789 209.912 43.2288 210.137C43.6449 210.351 44.0497 210.564 44.4546 210.789C44.2409 207.428 44.0047 204.112 43.7461 200.874C43.4762 200.796 43.2063 200.706 42.9364 200.627C41.823 200.278 40.7097 199.93 39.6189 199.492C39.5064 199.447 39.394 199.402 39.2815 199.357C39.214 199.323 39.1466 199.289 39.0791 199.255C39.0678 199.255 39.0678 199.255 39.0566 199.244C38.7754 199.109 39.1578 199.3 39.0566 199.244C39.0341 199.244 39.0116 199.222 38.9441 199.188C38.7192 199.076 38.5168 198.974 38.3369 198.783C38.3369 198.783 38.3369 198.783 38.3369 198.772C36.9986 198.806 35.6604 198.637 34.3671 198.266C31.8593 197.536 29.6326 196.085 27.2823 194.995C24.6957 193.792 22.053 192.702 19.399 191.679C19.4664 191.847 19.4777 192.027 19.399 192.218C19.0278 193.151 17.0936 194.804 16.1939 197.401V197.378Z" fill="#9B5826"></path></g><path d="M268.223 229.045C267.953 228.472 267.616 227.921 267.234 227.404C266.772 226.774 265.94 226.156 265.952 225.313C265.963 224.211 267.177 223.391 267.863 222.671C268.493 222.008 269.134 221.221 268.707 220.288C268.662 220.187 268.549 220.119 268.403 220.074C269.955 216.814 269.618 212.835 269.348 209.283C268.909 203.426 268.707 197.546 268.763 191.667C268.819 185.912 269.112 180.167 269.64 174.434C269.955 171.017 271.08 165.047 266.446 164.024C265.715 163.867 264.872 163.923 264.197 163.608C263.702 163.384 263.095 162.743 263.264 162.136C263.432 161.529 264.31 161.349 264.771 161.023C265.142 160.753 265.457 160.416 265.67 160.011C266.435 158.617 266.03 156.751 264.782 155.818C265.558 155.312 266.109 154.593 266.356 153.604C266.514 152.963 266.57 152.277 266.559 151.614C266.548 150.939 266.559 149.995 266.289 149.366C266.008 148.714 264.804 148.343 264.197 148.017C263.32 147.544 262.004 147.106 261.363 146.33C260.745 145.577 261.251 144.588 261.892 144.037C262.589 143.441 263.59 143.284 264.422 142.947C266.064 142.295 267.11 141.159 267.346 139.372C267.616 137.36 267.323 135.224 267.245 133.2L266.986 126.613C266.919 124.837 267.121 122.734 266.345 121.082C265.412 119.115 263.118 118.957 261.217 118.643C258.889 118.26 256.573 117.878 254.245 117.496C254.256 116.113 256.021 115.495 257.067 114.955C258.428 114.247 259.755 113.483 261.026 112.64C262.229 111.842 263.59 111.021 264.58 109.953C265.682 108.773 265.243 107.491 264.827 106.097C263.905 102.983 262.814 99.9256 261.543 96.9353C260.992 95.6313 260.497 94.1587 259.665 93.0008C258.912 91.9441 257.911 91.6181 256.651 91.7755C256.629 91.7755 256.584 91.7867 256.528 91.8092C240.84 89.2911 225.017 86.8517 209.07 87.3351C193.45 87.8073 178.257 91.5619 162.974 94.4285C155.293 95.8674 147.545 97.0702 139.729 97.4524C131.598 97.8459 123.456 97.4187 115.325 97.2951C107.375 97.1826 99.4464 97.4637 91.5856 98.7902C83.8036 100.094 76.1677 102.174 68.6105 104.445C53.5187 108.986 38.7192 114.517 24.3471 120.992C22.5478 121.801 20.7484 122.633 18.9604 123.465C18.7692 123.555 18.6117 123.668 18.5443 123.802C18.1619 123.96 17.8808 124.263 17.982 124.657C19.3989 130.345 20.2086 136.168 20.3886 142.025C20.4673 144.655 20.8272 147.039 22.8514 148.905C23.6723 149.669 24.662 150.276 25.6966 150.681C26.2026 150.883 26.72 151.052 27.2485 151.175C27.7433 151.288 28.2944 151.288 28.7779 151.468C29.5651 151.771 28.8004 152.007 28.3618 152.221C27.7208 152.524 27.0911 152.85 26.4838 153.221C25.2355 153.997 24.0884 154.941 23.0763 156.02C22.7389 156.38 22.7727 156.684 22.9864 156.897C23.7398 159.966 24.4708 163.046 24.9769 166.16C25.4604 169.106 25.5391 172.085 25.944 175.03C26.3039 177.627 27.0686 180.235 28.8679 182.213C30.2961 183.787 32.1854 184.799 34.2771 184.934C33.6586 187.913 30.9934 189.902 30.1387 192.803C29.4414 195.175 30.476 197.794 33.0513 198.288C33.7936 198.435 34.0297 198.671 33.7598 199.435C33.5349 200.053 33.0963 200.559 32.7027 201.076C31.8705 202.178 31.4207 203.448 31.252 204.82C30.8921 207.855 31.7356 210.958 32.3204 213.914C33.1076 217.961 33.906 222.008 34.6932 226.066C34.727 226.257 34.8956 226.37 35.1318 226.426C35.1318 226.493 35.1543 226.549 35.1655 226.617C35.9865 236.138 36.8074 245.66 37.6171 255.193C37.8533 257.936 38.0894 260.667 38.3256 263.41C38.4943 265.4 38.3931 267.738 39.8438 269.301C41.0021 270.549 43.0263 271.212 43.6224 272.932C43.9035 273.741 43.8248 274.697 44.4546 275.36C45.0393 275.956 45.9615 276.068 46.7487 276.034C47.7496 275.989 48.7842 275.72 49.6389 275.18C50.6397 274.551 51.337 273.561 52.2816 272.853C54.8906 270.886 58.8829 273.651 61.222 274.888C62.4253 275.517 62.8302 276.158 65.0456 276.034C67.5309 275.888 69.9263 275.056 72.3104 274.404C76.3139 273.325 80.3174 272.257 84.3321 271.212C92.2379 269.143 100.166 267.154 108.117 265.243C124.221 261.376 140.415 257.891 156.732 255.013C172.915 252.158 189.222 249.898 205.595 248.482C222.014 247.065 238.512 246.492 254.987 247.009C257.022 247.076 259.058 247.155 261.093 247.245C262.634 247.324 264.343 247.436 265.715 246.593C267.031 245.784 267.346 244.064 267.751 242.681C268.201 241.163 268.594 239.623 268.864 238.061C269.393 235.07 269.516 231.799 268.178 228.989L268.223 229.045Z" fill="#9B5826"></path><g style="mix-blend-mode:multiply" opacity="0.5"><path d="M236.105 163.755C230.044 164.811 223.982 165.89 217.898 166.857C208.778 168.319 199.399 168.364 190.335 170.173C197.959 170.342 205.584 169.982 213.186 169.488C221.947 168.914 230.696 168.15 239.468 167.779C248.431 167.408 257.405 167.071 266.368 166.756C267.413 166.722 268.459 166.7 269.505 166.666C269.022 165.385 268.111 164.384 266.446 164.024C265.715 163.867 264.872 163.923 264.197 163.608C263.702 163.384 263.095 162.743 263.264 162.136C263.432 161.529 264.31 161.349 264.771 161.023C265.142 160.753 265.457 160.416 265.67 160.011C265.985 159.427 266.098 158.775 266.03 158.134C261.948 158.932 257.922 160.101 253.851 160.832C247.947 161.888 241.998 162.732 236.094 163.766L236.105 163.755Z" fill="#9B5826"></path></g><g style="mix-blend-mode:multiply" opacity="0.5"><path d="M269.235 233.036C269.123 231.653 268.83 230.304 268.234 229.034C267.964 228.46 267.627 227.91 267.245 227.393C267.009 227.078 266.694 226.774 266.424 226.437C264.579 227.91 262.207 228.742 260.553 230.383C263.32 231.653 266.244 232.485 269.235 233.036Z" fill="#9B5826"></path></g><g style="mix-blend-mode:multiply" opacity="0.5"><path d="M234.373 220.929C227.187 222.098 220.069 223.48 212.838 224.324C199.658 225.852 186.061 226.482 173.208 230.012C178.133 229.854 183.059 229.438 187.962 228.944C194.462 228.281 200.951 227.46 207.451 226.842C213.906 226.223 220.384 225.909 226.85 225.56C239.996 224.874 253.143 224.324 266.289 223.773C266.413 223.773 266.536 223.795 266.671 223.829C267.054 223.402 267.526 223.031 267.863 222.671C268.493 222.008 269.134 221.221 268.707 220.288C268.662 220.187 268.549 220.119 268.403 220.074C269.494 217.781 269.64 215.139 269.55 212.531C265.198 214.442 260.587 215.791 255.954 216.915C248.835 218.635 241.593 219.76 234.373 220.94V220.929Z" fill="#9B5826"></path></g><g style="mix-blend-mode:multiply" opacity="0.5"><path d="M82.2178 209.339C112.716 205.303 143.069 200.042 173.714 197.153C180.247 196.535 186.815 196.22 193.337 195.557C196.216 195.264 199.298 195.017 202.064 194.129C202.233 194.073 202.491 193.972 202.739 193.87C202.615 193.792 202.48 193.724 202.312 193.646C197.431 191.577 192.01 191.217 186.77 191.375C180.112 191.566 173.455 192.623 166.831 193.308C159.049 194.129 151.301 195.219 143.552 196.242C135.815 197.254 128.067 198.075 120.341 199.12C90.8321 203.111 61.6043 208.934 32.0167 212.261C32.1404 212.835 32.2528 213.397 32.3653 213.959C32.5677 214.971 32.7589 215.971 32.9613 216.983C34.1309 216.724 35.3004 216.466 36.47 216.218C51.5956 213.138 66.9461 211.362 82.2291 209.339H82.2178Z" fill="#9B5826"></path></g><g style="mix-blend-mode:multiply" opacity="0.5"><path d="M103.855 130.457C116.585 128.512 129.248 126.354 141.866 123.769C133.712 124.578 125.559 125.365 117.383 125.848C106.734 126.478 96.0952 126.185 85.4454 126.422C80.0362 126.545 74.627 126.882 69.2852 127.726C63.9885 128.557 58.7367 129.704 53.5074 130.873C48.3343 132.031 43.1838 133.324 38.0219 134.504C35.5029 135.077 32.9726 135.606 30.4423 136.134C27.9007 136.663 25.5953 137.27 22.9863 137.225C22.0867 137.573 21.1645 137.854 20.2086 138.068C20.3098 139.394 20.3998 140.721 20.4335 142.047C20.456 142.924 20.5235 143.767 20.6697 144.577C21.0296 144.498 21.4007 144.408 21.7605 144.329C48.8966 138.405 76.4263 134.662 103.866 130.457H103.855Z" fill="#9B5826"></path></g><g style="mix-blend-mode:multiply" opacity="0.5"><path d="M221.553 245.255C212.5 243.749 203.346 243.873 194.215 244.244C184.937 244.626 175.67 245.019 166.415 245.716C147.916 247.099 129.45 249.403 111.333 253.439C102.325 255.44 93.5536 258.116 84.7144 260.746C76.2014 263.287 67.0361 265.378 58.1744 263.377C51.1233 261.78 44.1959 257.868 39.6076 252.225C38.5955 250.988 37.7745 249.651 37.0548 248.246C37.2572 250.573 37.4597 252.9 37.6508 255.226C37.887 257.969 38.1232 260.701 38.3593 263.444C38.528 265.434 38.4268 267.772 39.8775 269.335C41.0358 270.582 43.0601 271.246 43.6561 272.966C43.9372 273.775 43.8585 274.73 44.4883 275.394C45.0731 275.989 45.9952 276.102 46.7824 276.068C47.7833 276.023 48.8179 275.753 49.6726 275.214C50.6734 274.584 51.3707 273.595 52.3153 272.887C54.9244 270.92 58.9166 273.685 61.2557 274.922C62.459 275.551 62.8639 276.192 65.0793 276.068C67.5646 275.922 69.96 275.09 72.3441 274.438C76.3476 273.359 80.3511 272.291 84.3658 271.246C92.2716 269.177 100.2 267.187 108.151 265.276C124.255 261.409 140.449 257.924 156.766 255.047C172.949 252.191 189.255 249.932 205.629 248.515C213.771 247.807 221.935 247.324 230.111 247.065C227.277 246.346 224.432 245.727 221.553 245.244V245.255Z" fill="#9B5826"></path></g><g style="mix-blend-mode:multiply" opacity="0.5"><path d="M267.357 139.372C267.627 137.36 267.335 135.224 267.256 133.2C267.2 131.84 267.155 130.48 267.099 129.12C266.368 129.232 265.648 129.356 264.917 129.468C260.002 130.289 255.088 131.121 250.174 131.964C232.585 134.976 215.042 138.225 197.566 141.778C183.576 144.622 169.62 147.679 155.72 150.973C164.717 150.344 173.68 149.231 182.631 148.129C193.652 146.769 204.662 145.521 215.739 144.723C226.884 143.913 238.039 143.385 249.207 142.958C254.627 142.756 260.036 142.576 265.457 142.407C266.491 141.721 267.155 140.743 267.346 139.372H267.357Z" fill="#9B5826"></path></g><g style="mix-blend-mode:screen"><path d="M24.7857 126.107C48.1769 114.09 74.0985 106.749 100.324 104.737C74.582 109.829 49.3802 116.945 24.7857 126.107Z" fill="#9B5826"></path><path d="M62.9764 120.374C65.6754 118.17 68.9142 116.799 72.2317 115.888C75.5717 115.034 79.0578 114.629 82.4991 115.214C80.8572 115.832 79.2378 116.293 77.6296 116.743C73.0751 117.946 67.6321 119.553 62.9764 120.363V120.374Z" fill="#9B5826"></path><path d="M35.4467 199.188C52.2817 193.848 69.7688 190.509 87.391 189.318C70.2637 193.578 52.9452 196.85 35.4467 199.188Z" fill="#9B5826"></path><path d="M62.6615 202.672C68.2619 199.514 74.6158 197.726 81.0484 197.535C75.448 200.705 69.0941 202.47 62.6615 202.672Z" fill="#9B5826"></path><path d="M190.132 226.37C214.401 220.074 239.861 218.006 264.827 220.333C239.816 221.12 214.952 223.11 190.132 226.37Z" fill="#9B5826"></path><path d="M225.197 227.966C238.096 224.762 251.591 223.773 264.827 225.088C251.669 226.875 238.478 227.82 225.197 227.966Z" fill="#9B5826"></path><path d="M196.486 238.881C212.275 234.261 228.863 232.204 245.304 232.856C229.583 235.228 212.309 237.352 196.486 238.881Z" fill="#9B5826"></path><path d="M233.238 185.541C241.852 182.607 251.388 182.168 260.227 184.315C251.22 185.282 242.29 185.676 233.238 185.541Z" fill="#9B5826"></path><path d="M239.265 189.441C246.069 187.564 253.266 187.193 260.227 188.407C253.424 190.296 246.226 190.644 239.265 189.441Z" fill="#9B5826"></path><path d="M188.401 101.792C207.912 95.4627 228.975 93.5067 249.308 96.1709C228.852 96.6318 208.587 98.4979 188.401 101.792Z" fill="#9B5826"></path><path d="M246.451 117.237C253.109 115.472 260.295 115.675 266.829 117.844C260.036 118.777 253.176 118.564 246.451 117.237Z" fill="#9B5826"></path><path d="M251.613 121.666C256.348 120.138 261.532 120.138 266.255 121.7C261.521 123.24 256.348 123.218 251.613 121.666Z" fill="#9B5826"></path><path d="M47.1198 238.69C63.5387 233.013 80.9246 229.989 98.2994 229.832C81.8131 232.98 63.7073 236.105 47.1198 238.69Z" fill="#9B5826"></path><path d="M88.8304 247.616C98.7492 243.749 109.23 241.321 119.846 240.466C109.928 244.345 99.4465 246.75 88.8304 247.616Z" fill="#9B5826"></path><path d="M107.195 239.792C115.022 235.711 123.917 233.587 132.745 233.733C124.446 236.655 115.922 238.656 107.195 239.792Z" fill="#9B5826"></path><path d="M113.762 249.415C117.968 246.852 122.961 245.671 127.865 246.121C123.659 248.695 118.665 249.853 113.762 249.415Z" fill="#9B5826"></path></g><path d="M142.574 102.005C140.021 101.128 137.041 103.343 136.411 105.771C135.793 108.166 137.255 110.301 139.673 110.65C143.125 111.156 145.745 109.391 145.116 105.76C144.857 104.31 144.07 102.522 142.574 102.005Z" fill="#A6A6A6"></path><g style="mix-blend-mode:multiply"><path d="M138.042 105.929C138.537 104.006 140.505 102.23 142.563 101.994C140.01 101.128 137.041 103.343 136.411 105.76C135.793 108.154 137.255 110.29 139.673 110.639C140.1 110.706 140.516 110.729 140.921 110.729C138.728 110.212 137.446 108.188 138.042 105.917V105.929Z" fill="#A6A6A6"></path></g><path d="M151.829 238.646C149.277 237.769 146.296 239.984 145.667 242.412C145.048 244.806 146.51 246.931 148.928 247.291C152.38 247.796 155.001 246.032 154.371 242.401C154.112 240.95 153.325 239.163 151.829 238.646Z" fill="#A6A6A6"></path><g style="mix-blend-mode:multiply"><path d="M147.297 242.569C147.792 240.647 149.76 238.87 151.818 238.634C149.265 237.769 146.296 239.972 145.667 242.4C145.048 244.795 146.51 246.919 148.928 247.279C149.355 247.347 149.771 247.369 150.176 247.369C147.983 246.852 146.701 244.828 147.297 242.558V242.569Z" fill="#A6A6A6"></path></g><path d="M44.1285 324.148C44.1285 324.148 91.4058 300.012 104.181 295.122C116.956 290.232 166.977 278.305 171.386 278.136C175.794 277.968 180 279.744 180.776 278.609C181.563 277.473 213.602 267.738 218.314 268.379C223.026 269.031 230.786 275.18 231.776 276.45C232.765 277.721 67.4073 329.566 64.0897 329.139C60.761 328.712 44.1285 324.137 44.1285 324.137V324.148Z" fill="#9B5826"></path><g style="mix-blend-mode:screen"><path d="M44.1285 324.148C44.1285 324.148 91.4058 300.012 104.181 295.122C116.956 290.232 166.977 278.305 171.386 278.136C175.794 277.968 180 279.744 180.776 278.609C181.563 277.473 213.602 267.738 218.314 268.379C223.026 269.031 230.786 275.18 231.776 276.45C232.765 277.721 67.4073 329.566 64.0897 329.139C60.761 328.712 44.1285 324.137 44.1285 324.137V324.148Z" fill="#9B5826"></path></g><path d="M58.7705 324.969L44.1285 324.137C44.1285 324.137 43.7461 333.647 45.6916 335.232C47.6371 336.817 53.4287 338.402 54.3396 339.582C55.2505 340.752 46.2539 339.605 46.4563 340.695C46.67 341.775 47.4572 350.015 49.369 353.084C51.2808 356.152 58.2981 357.209 58.2981 357.209C58.2981 357.209 52.574 360.053 53.1701 361.638C53.7661 363.223 59.9175 363.471 61.6606 363.965C63.4037 364.46 54.8232 364.19 54.767 367.72C54.7107 371.25 65.979 394.699 68.8917 396.892C71.8043 399.084 87.9758 401.04 90.1575 400.264C92.3279 399.5 91.9005 381.041 86.3789 362.897C80.8572 344.754 58.7592 324.98 58.7592 324.98L58.7705 324.969Z" fill="#9B5826"></path><g style="mix-blend-mode:multiply"><path d="M58.7705 324.969L44.1285 324.137C44.1285 324.137 43.7461 333.647 45.6916 335.232C47.6371 336.817 53.4287 338.402 54.3396 339.582C55.2505 340.752 46.2539 339.605 46.4563 340.695C46.67 341.775 47.4572 350.015 49.369 353.084C51.2808 356.152 58.2981 357.209 58.2981 357.209C58.2981 357.209 52.574 360.053 53.1701 361.638C53.7661 363.223 59.9175 363.471 61.6606 363.965C63.4037 364.46 54.8232 364.19 54.767 367.72C54.7107 371.25 65.979 394.699 68.8917 396.892C71.8043 399.084 87.9758 401.04 90.1575 400.264C92.3279 399.5 91.9005 381.041 86.3789 362.897C80.8572 344.754 58.7592 324.98 58.7592 324.98L58.7705 324.969Z" fill="#9B5826"></path></g><g style="mix-blend-mode:multiply"><path d="M46.5126 340.572C48.1657 341.033 49.8076 341.932 51.2695 342.64C53.1813 343.562 55.0481 344.563 56.9374 345.529C61.1321 347.688 65.473 349.745 70.14 350.633C73.6936 351.307 77.236 351.24 80.7897 350.97C78.7092 347.575 76.3476 344.293 73.9523 341.269C71.1408 340.954 68.3406 340.471 65.5292 340.167C61.7056 339.762 57.9833 339.526 54.2497 338.582C52.5178 338.144 50.8085 337.615 49.1328 337.02C51.3707 337.964 53.8111 338.852 54.3734 339.583C55.2393 340.707 47.0749 339.706 46.5351 340.572H46.5126Z" fill="#9B5826"></path></g><g style="mix-blend-mode:multiply"><path d="M84.1972 357.344C83.4775 357.749 82.7352 358.075 81.948 358.311C81.4195 358.468 80.8572 358.57 80.3174 358.536C75.9653 360.649 71.242 362.156 66.4851 363.032C64.4721 363.403 62.3354 363.707 60.2437 363.684C60.8397 363.774 61.3457 363.864 61.6831 363.954C63.4037 364.449 55.0706 364.19 54.812 367.585C56.6 368.372 58.7142 368.428 60.6373 368.518C63.1788 368.642 65.6529 368.575 68.1607 368.136C73.3225 367.237 78.3494 365.213 83.0726 362.976C83.1963 362.92 83.32 362.909 83.4325 362.909C83.4775 362.886 83.5112 362.875 83.5562 362.853C83.8935 362.706 84.2197 362.56 84.557 362.403C85.0406 362.189 85.5129 361.942 85.9853 361.706C85.4904 360.245 84.8944 358.783 84.2197 357.322C84.2197 357.322 84.2084 357.322 84.1972 357.333V357.344Z" fill="#9B5826"></path></g><g style="mix-blend-mode:multiply"><path d="M85.4679 364.404C85.1081 364.55 84.7482 364.674 84.3883 364.797C83.9273 364.955 83.4662 365.112 82.9826 364.966C78.3606 367.855 73.3 369.878 67.8795 370.677C65.1693 371.07 62.5153 371.025 59.8051 370.789C58.2419 370.654 56.6113 370.474 55.228 369.789C55.7341 371.43 56.645 373.757 57.7808 376.365C57.882 376.219 58.0507 376.129 58.2981 376.162C63.2013 376.893 68.1832 376.578 72.9176 375.139C77.9782 373.599 83.0051 371.879 87.9758 370.047C88.0882 370.002 88.2007 369.991 88.3019 370.002C87.8295 367.99 87.2785 365.944 86.6712 363.898C86.2776 364.078 85.8728 364.258 85.4679 364.415V364.404Z" fill="#9B5826"></path></g><path d="M268.167 304.284C268.043 304.115 267.908 303.969 267.773 303.812C267.346 302.249 266.289 300.923 264.636 300.361C264.568 300.338 264.523 300.304 264.456 300.282C264.433 300.282 264.411 300.282 264.388 300.282C259.564 295.797 254.211 291.873 248.453 288.67C242.853 285.556 236.825 282.925 232.799 277.732C230.977 275.382 229.268 273.021 226.141 272.459C222.745 271.852 219.113 272.909 215.784 273.505L204.381 275.528C201.052 276.124 197.386 276.394 194.26 277.709C192.91 278.282 191.662 279.114 190.785 280.306C189.908 281.486 189.491 282.903 188.974 284.263C188.524 285.466 187.546 287.95 185.938 286.995C184.678 286.241 183.779 285.027 182.452 284.342C176.817 281.419 169.553 284.128 163.862 285.522C149.58 289.029 135.298 292.615 121.252 296.999C113.076 299.551 104.979 302.362 97.0399 305.577C91.7881 307.701 86.7612 310.219 81.4757 312.243C76.2576 314.233 71.0958 316.458 66.4401 319.572C64.517 320.854 62.684 322.282 60.716 323.507C60.03 323.934 59.3102 324.35 58.8042 324.979C57.0274 327.239 58.5905 331.668 58.8379 334.242C59.0741 336.581 59.5127 338.188 61.6719 339.369C65.7316 341.572 69.9937 343.46 74.2896 345.169C73.3675 346.215 72.3554 347.159 71.2195 347.98C70.0275 348.845 68.678 349.553 67.8008 350.79C66.8787 352.071 66.9236 353.499 67.3285 354.961C67.8795 356.984 68.5655 358.985 69.184 360.986C69.3752 361.593 70.1062 361.762 70.6572 361.717C72.3216 361.582 73.9523 361.582 75.6054 361.739C74.3796 363.527 73.1313 365.303 71.8156 367.023C71.0621 368.012 72.0967 368.731 73.0526 368.675C76.4938 368.461 79.935 368.248 83.3762 368.023C83.3762 369.518 81.7568 370.597 80.5985 371.418C79.3727 372.284 78.0795 373.295 77.4497 374.701C76.6962 376.398 77.2923 378.039 78.0232 379.624C78.9679 381.67 79.9125 383.705 80.8572 385.74C82.769 389.877 84.602 394.058 86.615 398.15C88.7405 402.467 92.9126 399.241 95.6566 397.431C96.4663 396.891 97.2873 396.363 98.097 395.823C112.39 390.36 126.684 384.897 140.977 379.433C148.478 376.567 155.979 373.7 163.48 370.833C167.146 369.428 170.812 368.034 174.478 366.629C177.942 365.303 181.676 364.212 184.993 362.537C186.275 361.885 187.197 361.042 187.692 359.682C187.917 359.086 188.041 358.445 188.277 357.85C188.401 357.546 188.614 356.917 188.918 356.737C188.704 356.68 188.738 356.669 189.03 356.714C189.244 356.725 189.458 356.759 189.66 356.815C191.178 357.13 192.562 357.883 194.035 358.355C195.497 358.828 197.037 359.007 198.556 358.974C205.292 358.828 211.128 355.095 217.314 352.948C223.083 350.947 229.369 351.285 235.172 349.351C237.882 348.452 240.502 347.103 242.482 345.012C244.787 342.572 246.238 339.38 247.925 336.513C252.153 329.341 256.842 322.45 261.959 315.885C264.107 313.131 267.189 310.242 267.875 306.678C268.009 305.993 268.021 305.296 267.931 304.621C268.111 304.486 268.212 304.363 268.156 304.273L268.167 304.284Z" fill="#9B5826"></path><g style="mix-blend-mode:multiply" opacity="0.5"><path d="M110.501 315.896C124.108 309.961 137.885 304.25 151.222 297.708C145.071 298.798 139.032 300.383 133.083 302.35C118.564 307.139 104.923 313.963 90.7872 319.673C79.98 324.035 69.2178 328.475 58.7142 333.489C58.7592 333.748 58.793 334.006 58.8154 334.242C59.0291 336.423 59.4452 337.963 61.2445 339.11C62.2004 338.593 63.1563 338.076 64.1235 337.57C79.2153 329.6 94.8694 322.731 110.501 315.907V315.896Z" fill="#9B5826"></path></g><g style="mix-blend-mode:multiply" opacity="0.5"><path d="M211.207 285.758C206.934 287.354 202.582 288.692 198.308 290.254C195.058 291.446 191.774 292.817 188.963 294.863C190.639 294.953 192.505 294.414 193.934 294.099C196.959 293.413 200.04 292.986 203.076 292.379C213.704 290.243 224.331 287.984 234.891 285.567C236.746 285.14 238.624 284.712 240.525 284.296C237.826 282.655 235.307 280.767 233.249 278.293C231.168 278.822 229.11 279.44 227.052 280.103C221.699 281.812 216.448 283.802 211.196 285.758H211.207Z" fill="#9B5826"></path></g><g style="mix-blend-mode:multiply" opacity="0.5"><path d="M215.391 304.149C221.969 303.733 228.357 300.821 234.666 299.248C242.144 297.381 249.791 295.144 257.54 294.582C255.74 293.233 253.885 291.963 251.984 290.771C251.31 290.963 250.635 291.154 249.96 291.345C245.529 292.626 241.087 293.885 236.69 295.268C229.38 297.573 222.037 300.271 215.391 304.149Z" fill="#9B5826"></path></g><g style="mix-blend-mode:multiply" opacity="0.5"><path d="M247.047 335.243C243.325 336.771 239.614 338.3 235.903 339.84C223.69 344.922 211.488 350.272 199.781 356.422C198.342 357.175 196.914 357.95 195.497 358.737C196.509 358.928 197.543 359.018 198.567 358.996C205.303 358.85 211.14 355.118 217.325 352.97C223.094 350.969 229.38 351.307 235.183 349.373C237.893 348.474 240.514 347.125 242.493 345.034C244.798 342.595 246.249 339.402 247.936 336.535C248.374 335.793 248.847 335.063 249.297 334.321C248.554 334.636 247.812 334.95 247.059 335.254L247.047 335.243Z" fill="#9B5826"></path></g><g style="mix-blend-mode:multiply" opacity="0.5"><path d="M131.879 368.236C140.797 363.908 149.681 359.558 158.678 355.387C163.345 353.229 168.012 351.082 172.657 348.901C174.962 347.822 177.38 346.922 179.696 345.832C172.567 347.372 165.56 349.497 158.712 352.015C143.125 357.759 128.292 365.325 113.29 372.396C106.138 375.768 98.8729 378.792 91.5632 381.827C88.0657 383.277 84.5795 384.772 81.1608 386.414C82.1167 388.482 83.0501 390.551 84.006 392.619C99.5364 383.705 115.787 376.049 131.891 368.236H131.879Z" fill="#9B5826"></path></g><g style="mix-blend-mode:multiply" opacity="0.5"><path d="M254.582 305.902C247.351 309.061 240.232 312.535 232.821 315.278C229.853 316.379 226.872 317.492 224.038 318.909C222.397 319.729 220.721 320.662 219.293 321.865C221.699 321.562 224.072 320.854 226.389 320.157C229.763 319.145 233.193 318.392 236.634 317.593C246.44 315.334 256.246 313.108 266.041 310.781C266.907 309.5 267.605 308.162 267.886 306.689C268.021 306.004 268.032 305.307 267.942 304.632C268.122 304.497 268.223 304.374 268.167 304.284C268.043 304.115 267.908 303.969 267.773 303.811C267.447 302.62 266.761 301.574 265.715 300.889C265.322 301.091 264.962 301.316 264.681 301.462C263.657 301.99 262.6 302.429 261.543 302.89C259.227 303.901 256.91 304.891 254.604 305.902H254.582Z" fill="#9B5826"></path></g><g style="mix-blend-mode:multiply" opacity="0.5"><path d="M141.078 334.849C152.875 330.24 164.661 325.62 176.435 320.977C181.777 318.875 187.096 316.672 192.517 314.761C195.249 313.794 198.196 312.838 200.805 311.388C199.826 311.703 198.859 312.074 197.87 312.366C195.047 313.187 192.213 313.985 189.379 314.783C183.644 316.413 177.92 318.054 172.173 319.651C162.164 322.427 152.257 325.575 142.405 328.857C132.633 332.117 122.86 335.389 113.211 338.975C103.697 342.516 94.3072 346.417 85.1643 350.834C80.9359 352.869 76.8874 355.162 72.7827 357.433C71.4445 358.175 70.0837 358.872 68.7005 359.502C68.8579 359.996 69.0154 360.491 69.1728 360.974C69.364 361.581 70.095 361.75 70.646 361.705C72.3104 361.559 73.941 361.57 75.5942 361.727C75.3243 362.121 75.0431 362.514 74.762 362.908C96.4663 352.656 118.733 343.573 141.09 334.849H141.078Z" fill="#9B5826"></path></g><g style="mix-blend-mode:screen"><path d="M62.2567 328.307C72.6253 320 85.1643 314.244 98.2432 311.827C86.1427 317.212 74.2334 322.653 62.2567 328.307Z" fill="#9B5826"></path><path d="M89.8763 319.46C98.4006 314.885 107.465 311.411 116.877 309.152C108.657 314.278 99.424 317.785 89.8763 319.46Z" fill="#9B5826"></path><path d="M231.697 320.562C241.233 315.379 251.489 311.569 262.106 309.287C252.58 314.48 242.313 318.269 231.697 320.562Z" fill="#9B5826"></path><path d="M236.319 323.811C240.244 320.247 245.675 318.325 250.972 318.673C246.44 321.349 241.514 323.057 236.319 323.811Z" fill="#9B5826"></path><path d="M215.942 343.641C223.679 339.2 232.169 336.109 240.963 334.58C233.226 339.032 224.724 342.101 215.942 343.641Z" fill="#9B5826"></path><path d="M152.414 300.968C154.461 298.573 157.643 297.371 160.758 297.854C158.723 300.26 155.529 301.44 152.414 300.968Z" fill="#9B5826"></path><path d="M149.265 306.768C155.552 302.036 163.57 299.484 171.442 299.754C164.267 302.519 156.721 304.88 149.265 306.768Z" fill="#9B5826"></path><path d="M122.051 364.302C133.915 356.602 147.264 351.116 161.107 348.261C148.658 353.881 134.848 359.536 122.051 364.302Z" fill="#9B5826"></path><path d="M130.631 364.786C135.489 361.121 141.258 358.726 147.286 357.906C142.439 361.582 136.659 363.954 130.631 364.786Z" fill="#9B5826"></path></g><path d="M150.986 294.459C148.433 293.583 145.453 295.797 144.823 298.225C144.205 300.62 145.667 302.744 148.085 303.104C151.537 303.61 154.157 301.845 153.527 298.214C153.269 296.764 152.482 294.976 150.986 294.459Z" fill="#A6A6A6"></path><g style="mix-blend-mode:multiply"><path d="M146.454 298.382C146.949 296.46 148.917 294.684 150.975 294.448C148.422 293.582 145.453 295.797 144.823 298.214C144.205 300.608 145.667 302.733 148.085 303.092C148.512 303.16 148.928 303.182 149.333 303.182C147.14 302.665 145.858 300.642 146.454 298.371V298.382Z" fill="#A6A6A6"></path></g><path d="M157.97 359.851C155.417 358.974 152.437 361.189 151.807 363.617C151.188 366.011 152.65 368.136 155.068 368.496C158.521 369.002 161.141 367.237 160.511 363.606C160.252 362.155 159.465 360.368 157.97 359.851Z" fill="#A6A6A6"></path><g style="mix-blend-mode:multiply"><path d="M153.438 363.774C153.932 361.852 155.9 360.076 157.958 359.839C155.406 358.974 152.437 361.177 151.807 363.605C151.188 366 152.65 368.124 155.068 368.484C155.495 368.552 155.912 368.574 156.316 368.574C154.124 368.057 152.841 366.033 153.438 363.763V363.774Z" fill="#A6A6A6"></path></g><path d="M237.016 299.844C235.554 295.617 229.043 295.819 224.511 295.201C220.417 294.639 216.301 294.178 212.185 293.807C208.722 293.492 205.247 293.245 201.761 293.054C199.242 292.919 195.148 291.997 192.708 292.784C191.561 293.155 190.987 294.223 191.167 295.381C190.267 294.864 188.907 294.515 187.973 295.223C187.748 295.403 187.535 295.628 187.265 295.707C186.939 295.808 186.59 295.707 186.264 295.617C185.252 295.347 183.655 295.156 182.654 295.628C181.181 296.336 180 298.382 180.439 300.125C181.26 303.407 186.275 302.677 188.389 304.363C187.31 304.7 186.118 304.801 184.971 304.981C181.912 305.442 178.875 306.015 175.85 306.656C169.733 307.96 163.694 309.579 157.655 311.209C145.138 314.593 132.622 317.976 120.105 321.36C113.088 323.26 106.07 325.148 99.0641 327.048C97.8608 327.374 97.7821 328.487 98.2656 329.544C95.7016 330.6 93.1601 331.713 90.6635 332.927C89.5839 333.445 88.5493 334.614 89.0778 335.895C89.1003 335.94 89.1228 335.974 89.1453 336.019C88.9654 336.48 88.9991 337.008 89.404 337.604C89.7076 338.065 90.2362 338.436 90.8434 338.683C90.5848 338.93 90.4386 339.211 90.3824 339.504C89.2128 340.662 90.3261 342.449 92.013 342.674C92.1817 342.696 92.3616 342.707 92.5303 342.73C92.5528 343.168 92.7552 343.618 93.0251 343.922C93.25 344.169 93.5312 344.349 93.846 344.506C93.0476 345.214 92.2604 345.934 91.5407 346.721C88.8417 349.632 87.346 353.758 89.955 357.164C89.955 357.344 89.9438 357.535 89.9325 357.715C89.9325 357.782 89.9325 357.838 89.9438 357.895C89.8988 357.973 89.8313 358.041 89.7863 358.108C89.2353 358.94 89.8426 359.941 90.551 360.435C91.2483 360.919 92.1704 361.087 93.0139 360.941C93.0251 360.941 93.0364 360.952 93.0476 360.964C92.2267 361.593 91.9455 362.549 92.744 363.437C93.5986 364.37 94.9032 364.527 96.0615 364.224C97.0286 364.561 98.1644 364.415 99.1428 364.145C99.7388 363.988 100.301 363.74 100.863 363.493C100.965 363.448 101.235 363.369 101.336 363.279C101.426 363.324 101.696 363.403 101.763 363.426C103.9 364.404 104.282 367.135 104.653 369.147C104.878 370.339 105.137 371.564 105.823 372.599C106.61 373.801 108.364 373.644 109.489 372.925C110.546 372.261 109.883 371.002 109.579 370.069C109.14 368.698 108.634 367.349 108.196 365.966C107.723 364.482 107.341 362.976 107.184 361.425C107.127 360.829 107.116 360.222 107.139 359.626C108.915 358.783 110.681 357.917 112.447 357.063C113.504 358.288 114.291 359.671 114.898 361.155L114.988 361.559C114.999 361.672 115.011 361.773 115.033 361.885C115.033 361.975 115.078 362.054 115.123 362.133C115.46 363.538 115.787 364.954 116.124 366.36C116.18 366.607 116.36 366.764 116.585 366.865C116.776 367.686 116.967 368.495 117.159 369.294C117.766 371.8 118.373 374.307 118.98 376.803C119.194 377.68 119.273 378.927 119.97 379.602C120.589 380.198 121.578 380.22 122.354 380.007C125.019 379.287 123.501 376.983 122.759 375.263C121.826 373.082 121.196 370.89 120.78 368.552C119.936 363.808 119.138 359.053 118.328 354.309C124.772 351.487 131.407 349.554 138.278 347.991C145.757 346.293 153.19 344.675 160.489 342.303C168.147 339.807 175.783 337.458 183.644 335.637C188.389 334.535 193.158 333.512 197.937 332.5C198.229 332.826 198.769 332.995 199.23 332.984C200.321 332.972 201.412 332.422 202.143 331.612C202.795 331.477 203.447 331.342 204.088 331.207C203.357 332.219 202.638 333.231 201.907 334.243C201.266 335.142 201.693 335.996 202.761 336.12C204.021 336.266 205.326 335.513 206.113 334.591C206.844 333.748 207.563 332.882 208.272 332.017C206.742 335.423 205.213 338.818 203.672 342.224C202.75 344.27 206.484 343.506 207.237 342.955C207.462 342.786 207.676 342.618 207.901 342.438C209.239 342.91 211.027 343.056 211.421 342.516C212.444 341.134 213.445 339.74 214.423 338.323C214.693 338.2 214.929 338.031 215.121 337.84C220.541 332.163 225.399 325.958 229.605 319.336C232.72 314.435 239.13 306.06 236.971 299.833L237.016 299.844ZM95.8478 351.307C95.5892 351.51 95.3417 351.723 95.0831 351.937C94.9257 351.644 94.6782 351.397 94.3634 351.195C94.6895 350.621 95.0943 350.082 95.5217 349.576C95.6566 350.037 95.7916 350.498 95.9378 350.959C95.904 351.071 95.8591 351.184 95.8478 351.307ZM102.157 344.585C101.493 344.989 100.841 345.405 100.211 345.855C100.155 345.686 100.11 345.518 100.054 345.36C101.617 343.978 103.191 342.606 104.754 341.235C104.822 341.763 105.047 342.314 105.339 342.786C104.271 343.359 103.203 343.955 102.157 344.574V344.585ZM140.64 326.924C152.02 322.405 163.806 318.853 175.817 316.402C177.537 316.054 179.258 315.728 180.99 315.413C180.427 315.897 179.876 316.402 179.348 316.942C165.156 320.202 151.098 324.002 137.199 328.341C138.346 327.857 139.493 327.385 140.651 326.924H140.64ZM184.431 321.855C184.363 321.888 184.296 321.922 184.228 321.967C184.026 322.079 183.824 322.181 183.621 322.293C183.565 322.315 183.52 322.36 183.464 322.394C169.047 325.778 154.787 329.836 140.741 334.535C133.409 336.772 126.178 339.313 119.138 342.336C118.553 342.561 117.968 342.775 117.395 343C115.809 343.629 114.223 344.293 112.649 344.933C112.728 344.9 112.806 344.855 112.885 344.821C118.508 342.179 124.3 339.953 130.125 337.795C142.135 333.366 154.326 329.443 166.629 325.924C173.376 323.99 180.157 322.192 186.961 320.483C186.118 320.933 185.286 321.394 184.442 321.843L184.431 321.855ZM188.299 318.044C189.851 317.257 191.403 316.47 192.933 315.638C195.497 314.705 198.049 313.738 200.58 312.715C201.401 312.547 202.222 312.389 203.043 312.221C201.007 313.277 198.96 314.334 196.925 315.391C193.967 316.841 191.032 318.336 188.119 319.876C188.412 319.393 188.412 318.662 188.299 318.044ZM200.67 318.313C197.87 320.191 194.856 322.158 195.024 322.698C194.743 321.776 194.091 320.91 193.281 320.551C194.867 319.73 196.453 318.909 198.038 318.089C200.051 317.043 202.874 314.446 205.258 314.772C204.887 315.436 202.829 316.852 200.659 318.302L200.67 318.313ZM207.08 319.696C206.641 320.146 206.203 320.607 205.764 321.056C205.303 321.191 204.842 321.326 204.37 321.472C205.438 320.708 206.506 319.944 207.575 319.168C207.406 319.348 207.237 319.516 207.069 319.696H207.08ZM210.161 322.563C210.105 322.428 210.049 322.293 209.981 322.158C210.679 321.326 211.376 320.494 212.084 319.662C211.454 320.629 210.813 321.596 210.161 322.552V322.563ZM212.298 306.083C206.99 306.881 200.793 305.835 195.778 304.048C195.294 303.879 195.339 303.171 195.845 303.07C198.702 302.485 208.058 303.542 212.68 303.531C213.377 303.531 214.828 303.508 215.334 304.149C216.234 305.285 214.277 305.723 213.254 305.914C212.939 305.97 212.624 306.027 212.298 306.083ZM212.838 331.871C214.052 329.184 215.256 326.486 216.47 323.799C217.73 321 218.989 318.201 220.249 315.402C220.901 313.963 221.576 312.625 222.104 311.13C222.509 309.961 223.521 308.41 223.6 307.196C223.622 306.858 223.544 306.521 223.622 306.195C223.847 305.228 224.938 305.577 225.399 305.06C225.534 304.914 225.658 304.824 225.849 304.846C226.794 306.6 225.096 308.882 224.41 310.433C223.319 312.873 222.172 315.29 220.957 317.684C218.494 322.552 215.784 327.284 212.838 331.882V331.871ZM223.802 300.136C223.409 299.844 222.993 299.574 222.588 299.315C225.804 299.731 229.02 300.192 232.214 300.732C229.403 300.586 226.603 300.383 223.802 300.147V300.136Z" fill="#4D1D0C"></path></g><path d="M74.4602 160.926C74.9585 160.637 75.5826 160.408 76.3326 160.238C77.13 160.062 77.9323 159.934 78.7393 159.853C79.5463 159.773 80.3344 159.741 81.1035 159.76C81.8726 159.778 82.5302 159.879 83.0763 160.062C83.0958 160.728 82.9565 161.719 82.6584 163.036C82.3604 164.354 82.0124 165.652 81.6146 166.931C84.1545 166.915 86.6306 167.215 89.0428 167.832C91.4978 168.396 93.7677 169.266 95.8528 170.439C95.6114 171.369 95.1849 172.366 94.5733 173.428C94.0092 174.486 93.3714 175.527 92.6601 176.552C91.9914 177.525 91.2705 178.455 90.4974 179.343C89.7717 180.226 89.129 180.982 88.5692 181.61C88.308 181.398 87.8496 181.134 87.1942 180.818C86.534 180.455 85.7813 180.126 84.936 179.829C84.0907 179.532 83.1814 179.313 82.208 179.172C81.2774 178.98 80.361 178.928 79.4591 179.019C78.4147 179.123 77.4393 179.436 76.533 179.956C75.674 180.471 75.2853 181.13 75.3666 181.932C75.467 182.923 75.9138 183.546 76.7068 183.8C77.4999 184.054 78.7748 184.332 80.5316 184.633C82.9295 185.107 84.9428 185.573 86.5716 186.03C88.2003 186.486 89.5016 187.023 90.4753 187.641C91.4965 188.254 92.2448 189.013 92.7202 189.919C93.2384 190.773 93.562 191.837 93.6912 193.112C93.9065 195.235 93.5685 197.105 92.6772 198.72C91.8286 200.283 90.7163 201.61 89.3404 202.701C87.9597 203.746 86.4601 204.563 84.8416 205.155C83.2232 205.746 81.7493 206.108 80.4201 206.241L80.5278 207.303C80.6091 208.106 80.6808 208.814 80.743 209.427C80.8527 210.036 80.9718 210.501 81.1002 210.822C80.5544 211.115 79.8828 211.349 79.0854 211.524C78.3354 211.695 77.5569 211.82 76.7499 211.901C75.9429 211.982 75.1548 212.013 74.3857 211.995C73.6641 211.972 73.0302 211.869 72.4841 211.685C72.4741 211.114 72.5851 210.316 72.8169 209.292C73.0488 208.267 73.3019 207.217 73.5765 206.14C72.1854 206.137 70.875 205.982 69.6452 205.676C68.4628 205.365 67.3658 204.951 66.3541 204.432C65.3425 203.914 64.4661 203.31 63.725 202.622C62.9838 201.933 62.4088 201.228 62 200.506C63.086 198.919 64.1815 197.427 65.2866 196.029C66.3869 194.584 67.6416 193.242 69.0506 192.005C70.5425 193.476 72.2073 194.525 74.0451 195.152C75.9256 195.726 77.5542 195.944 78.9308 195.806C79.8328 195.716 80.5305 195.503 81.024 195.167C81.5602 194.78 81.7948 194.256 81.7278 193.595C81.6943 193.265 81.592 192.965 81.4209 192.696C81.2972 192.422 80.9837 192.168 80.4803 191.932C79.9769 191.697 79.21 191.464 78.1796 191.233C77.1919 190.951 75.8433 190.657 74.134 190.351C72.135 190.027 70.4564 189.551 69.0981 188.925C67.7351 188.251 66.6022 187.482 65.6995 186.619C64.8442 185.751 64.1955 184.791 63.7531 183.739C63.3108 182.687 63.0322 181.594 62.9174 180.462C62.7404 178.715 62.986 177.117 63.6543 175.668C64.3701 174.213 65.3186 172.927 66.4999 171.807C67.7286 170.683 69.1213 169.756 70.6779 169.028C72.2345 168.3 73.789 167.787 75.3412 167.488L75.1403 165.506C75.0398 164.515 74.9228 163.597 74.7892 162.752C74.7031 161.903 74.5934 161.294 74.4602 160.926Z" fill="#4D1D0C"></path><path d="M104.151 204.007C104.112 203.152 104.047 201.8 103.956 199.95C103.907 198.048 103.853 195.86 103.794 193.387C103.782 190.909 103.754 188.265 103.709 185.457C103.707 182.597 103.712 179.807 103.724 177.088C103.779 174.317 103.853 171.735 103.946 169.342C104.082 166.897 104.235 164.856 104.404 163.218C106.963 162.437 109.834 161.672 113.019 160.924C116.247 160.124 119.428 159.567 122.561 159.253C124.602 159.049 126.515 159 128.3 159.107C130.133 159.21 131.726 159.551 133.079 160.13C134.476 160.658 135.611 161.45 136.485 162.506C137.36 163.563 137.885 164.964 138.062 166.711C138.244 168.504 138.127 170.185 137.71 171.752C137.336 173.268 136.732 174.639 135.897 175.867C135.105 177.043 134.128 178.047 132.966 178.878C131.803 179.71 130.543 180.289 129.186 180.616C130.382 180.591 131.5 180.742 132.54 181.066C133.628 181.387 134.587 181.863 135.418 182.494C136.297 183.122 136.998 183.886 137.521 184.787C138.086 185.636 138.424 186.603 138.534 187.689C138.597 188.302 138.583 189.114 138.493 190.125C138.447 191.083 138.217 192.131 137.805 193.269C137.436 194.355 136.831 195.488 135.992 196.668C135.148 197.802 133.985 198.872 132.505 199.878C131.072 200.88 129.242 201.755 127.016 202.502C124.795 203.297 122.118 203.851 118.985 204.165C116.944 204.37 114.698 204.452 112.248 204.411C109.803 204.418 107.104 204.283 104.151 204.007ZM117.906 172.235C117.651 173.5 117.469 174.781 117.361 176.079C117.248 177.33 117.135 178.581 117.022 179.832C117.411 179.889 117.772 179.9 118.104 179.867C118.484 179.829 118.864 179.791 119.244 179.753C121.332 179.543 122.894 178.862 123.928 177.71C124.962 176.557 125.388 175.084 125.206 173.291C125.12 172.441 124.728 171.885 124.03 171.621C123.379 171.352 122.579 171.266 121.63 171.361C121.013 171.423 120.377 171.534 119.722 171.695C119.067 171.856 118.462 172.036 117.906 172.235ZM117.245 192.683C117.829 192.767 118.461 192.847 119.14 192.922C119.819 192.997 120.538 192.996 121.298 192.92C121.772 192.873 122.264 192.752 122.772 192.558C123.327 192.359 123.801 192.073 124.195 191.7C124.636 191.322 124.971 190.836 125.198 190.241C125.473 189.641 125.565 188.893 125.474 187.996C125.378 187.052 124.982 186.448 124.283 186.185C123.628 185.869 122.802 185.761 121.805 185.861C121.045 185.937 120.248 186.112 119.413 186.387C118.62 186.609 117.811 186.905 116.985 187.273C116.99 188.274 117.015 189.225 117.058 190.127C117.102 191.028 117.164 191.88 117.245 192.683Z" fill="#4D1D0C"></path><path d="M159.768 155.954C160.371 155.751 161.214 155.547 162.296 155.343C163.426 155.135 164.75 154.954 166.269 154.802C167.836 154.645 169.6 154.54 171.56 154.487C172.684 158.951 173.791 163.012 174.881 166.669C176.019 170.322 177.127 173.691 178.207 176.777C179.335 179.858 180.465 182.725 181.597 185.377C182.771 187.977 183.979 190.43 185.22 192.737C183.559 193.857 181.485 194.923 178.998 195.935C176.564 196.99 174.053 198.004 171.466 198.978C170.806 198.139 170.088 196.971 169.313 195.475C168.538 193.98 167.87 192.354 167.308 190.599C166.05 190.963 164.553 191.328 162.815 191.692C161.126 192.052 159.194 192.389 157.02 192.702C156.778 194.109 156.544 195.348 156.317 196.42C156.133 197.44 155.982 198.551 155.864 199.755C153.434 199.903 151.121 199.801 148.928 199.449C146.782 199.092 144.555 198.647 142.247 198.116C143 195.132 144.008 191.837 145.273 188.229C146.538 184.622 147.94 180.954 149.48 177.224C151.063 173.442 152.724 169.723 154.464 166.069C156.251 162.409 158.019 159.038 159.768 155.954ZM163.197 169.914C162.662 171.255 162.068 172.959 161.414 175.027C160.808 177.09 160.157 179.42 159.461 182.016C159.603 182.002 159.796 182.007 160.038 182.03C160.275 182.006 160.56 181.978 160.892 181.945C161.557 181.878 162.293 181.804 163.1 181.723C163.902 181.595 164.612 181.5 165.229 181.439C164.743 179.485 164.338 177.618 164.014 175.839C163.685 174.013 163.413 172.037 163.197 169.914Z" fill="#4D1D0C"></path><path d="M204.549 151.468C205.151 151.264 205.994 151.06 207.076 150.857C208.206 150.648 209.53 150.468 211.049 150.316C212.616 150.159 214.38 150.053 216.34 150C217.464 154.464 218.571 158.525 219.661 162.182C220.799 165.835 221.907 169.204 222.987 172.29C224.115 175.372 225.245 178.238 226.377 180.89C227.551 183.49 228.759 185.944 230 188.251C228.339 189.371 226.265 190.437 223.778 191.449C221.344 192.503 218.833 193.517 216.246 194.492C215.586 193.652 214.868 192.484 214.093 190.989C213.318 189.493 212.65 187.867 212.088 186.112C210.83 186.476 209.333 186.841 207.596 187.206C205.906 187.566 203.974 187.902 201.8 188.216C201.559 189.622 201.325 190.862 201.097 191.933C200.913 192.953 200.762 194.065 200.644 195.268C198.214 195.416 195.902 195.314 193.708 194.962C191.562 194.605 189.335 194.161 187.027 193.629C187.78 190.645 188.788 187.35 190.053 183.743C191.318 180.136 192.72 176.467 194.26 172.737C195.843 168.955 197.504 165.237 199.244 161.582C201.031 157.923 202.799 154.551 204.549 151.468ZM207.978 165.427C207.442 166.768 206.848 168.472 206.194 170.54C205.588 172.603 204.937 174.933 204.241 177.53C204.383 177.516 204.576 177.52 204.818 177.544C205.055 177.52 205.34 177.491 205.672 177.458C206.337 177.391 207.073 177.318 207.88 177.237C208.682 177.109 209.392 177.014 210.009 176.952C209.523 174.998 209.118 173.132 208.794 171.352C208.465 169.526 208.193 167.551 207.978 165.427Z" fill="#4D1D0C"></path><g clip-path="url(#clip1_14_30497)"><path d="M185.35 468.07C184.87 464.51 184.55 460.93 184.39 457.34C184.33 455.98 184.07 452.23 182.45 454.99C180.59 458.18 179.31 461.69 178.24 465.22C177.99 466.05 176.08 471.42 176.59 471.8C176.56 471.78 176.54 471.75 176.51 471.73C176.49 471.66 176.46 471.59 176.44 471.52C176.13 470.43 175.87 469.1 175.67 467.9C175.47 466.68 175.72 465.87 174.43 466.12C173.28 466.35 171.88 467.86 171.05 468.66C169.91 469.76 168.85 470.95 167.89 472.22C167.54 472.68 165.5 475.16 165.8 475.76C164.56 473.31 163.61 470.74 162.65 468.17C162.32 467.29 162.08 465.63 161.14 465.39C160.5 465.23 159.2 465.99 158.81 466.48C156.62 469.3 155.27 473.63 154.12 476.98C154.59 475.6 152.95 472.06 152.47 470.72C151.26 467.35 149.25 464.13 146.71 461.51C145.49 460.26 144.12 459 142.64 458.07C142.16 457.77 140.22 456.66 140.84 458.11C143.02 463.21 143.46 468.67 143.4 474.13C143.41 472.81 141.5 471.3 140.68 470.44C139.13 468.83 137.71 467.12 136.27 465.41C135.81 464.86 134.54 463.9 134.07 464.88C133.74 465.57 134.56 466.96 134.8 467.63C135.33 469.09 135.82 470.54 136.12 472.07C136.7 475 136.77 478.04 136.29 481C135.61 485.21 138.42 486.01 141.98 486.61C144.74 487.08 147.52 487.47 150.31 487.77C156.48 488.44 162.7 488.82 168.9 488.35C174.52 487.92 180.68 487.24 184.76 482.91C188.28 479.18 186.47 475.29 185.76 470.85C185.61 469.92 185.47 468.98 185.35 468.05V468.07Z" fill="#379C43"></path><g style="mix-blend-mode:multiply"><path d="M144.01 479.04C143.91 477.11 143.7 475.19 143.41 473.27C143.41 473.56 143.41 473.85 143.41 474.14C143.42 472.82 141.51 471.31 140.69 470.45C139.14 468.84 137.72 467.13 136.28 465.42C135.98 465.06 135.33 464.53 134.79 464.48C138.17 468.18 140.33 472.8 141.65 477.61C142.47 480.57 142.95 483.68 142.91 486.76C143.32 486.83 143.73 486.88 144.14 486.95C144.29 484.34 144.16 481.71 144.02 479.03L144.01 479.04Z" fill="#379C43"></path></g><g style="mix-blend-mode:multiply"><path d="M148.84 474.06C147.71 470.56 146.22 467.21 144.6 463.92C143.53 461.75 142.25 459.56 140.74 457.59C140.72 457.7 140.74 457.87 140.85 458.12C141.43 459.48 141.88 460.86 142.24 462.26C144.32 467.75 145.79 473.37 146.24 479.26C146.44 481.85 146.63 484.46 146.46 487.06C146.46 487.14 146.45 487.22 146.44 487.3C147.73 487.48 149.02 487.64 150.31 487.78C150.57 487.81 150.84 487.83 151.1 487.86C150.98 483.18 150.28 478.52 148.84 474.06Z" fill="#379C43"></path></g><g style="mix-blend-mode:multiply"><path d="M166.55 483.46C166.11 478.86 165.14 474.35 163.06 470.2C162.93 469.93 163.02 469.71 163.19 469.57C163.01 469.11 162.84 468.64 162.66 468.18C162.52 467.82 162.4 467.33 162.24 466.86C162.19 467.1 162.15 467.35 162.11 467.58C161.88 468.78 161.72 469.99 161.61 471.21C161.38 473.7 161.4 476.22 161.63 478.71C161.94 482.06 162.55 485.35 163.46 488.57C164.58 488.57 165.7 488.53 166.82 488.48C166.77 486.8 166.7 485.13 166.54 483.46H166.55Z" fill="#379C43"></path></g><g style="mix-blend-mode:multiply"><path d="M182.51 469.4C182.39 465.75 182.46 462.08 182.67 458.43C182.71 457.67 182.72 456.89 182.73 456.1C178.12 465.17 178.08 476.19 179.95 486.23C181.53 485.56 182.99 484.64 184.28 483.41C183.25 478.82 182.68 474.12 182.52 469.4H182.51Z" fill="#379C43"></path></g><g style="mix-blend-mode:multiply"><path d="M184.8 469.37C184.93 473.45 185.25 477.5 185.86 481.5C187.84 478.21 186.39 474.75 185.77 470.88C185.62 469.95 185.48 469.01 185.36 468.08C185.1 466.19 184.9 464.29 184.73 462.39C184.73 464.72 184.73 467.04 184.81 469.37H184.8Z" fill="#379C43"></path></g></g><defs><clipPath id="clip0_14_30497"><rect width="270" height="481" fill="white"></rect></clipPath><clipPath id="clip1_14_30497"><rect width="52.86" height="34.58" fill="white" transform="translate(134 454)"></rect></clipPath></defs></svg> 