<?xml version="1.0" encoding="UTF-8"?> <svg xmlns="http://www.w3.org/2000/svg" width="505" height="405" viewBox="0 0 505 405" fill="none"><path d="M43.9991 173.879C-11.0321 165.689 -16.295 189.178 38.7361 197.367C-0.608346 201.317 7.51603 254.986 46.8605 251.078C5.21668 294.438 46.1963 320.462 87.8401 277.102C45.021 302.96 89.4241 351.599 132.243 325.741C95.5046 364.029 121.819 380.741 158.558 342.453C131.426 394.792 175.113 409.8 202.246 357.461C192.742 416.909 231.32 420.983 240.824 361.535C235.765 400.197 277.664 403.855 282.723 365.193C277.971 416.784 313.534 418.987 318.337 367.355C312.512 409.259 357.171 413.375 363.047 371.471C377.047 412.169 405.151 405.767 391.15 365.068C427.327 388.058 448.634 365.817 412.457 342.869C448.634 365.858 478.321 334.887 442.145 311.94C509.184 326.656 531.564 259.143 464.576 244.427C513.527 241.392 506.22 163.943 457.269 166.978C496.614 141.453 460.131 104.205 420.786 129.771C456.758 98.5924 406.939 60.5541 370.967 91.733C413.633 47.2926 328.761 -6.58461 286.146 37.8142C293.555 -6.08575 249.612 -10.9912 242.203 32.9087C241.181 -11.6564 172.712 -10.6171 173.734 33.948C149.514 -3.13413 114.666 11.9149 138.886 48.9971C102.454 25.8831 52.9921 77.4323 89.373 100.588C52.941 77.4738 19.4727 112.353 55.8535 135.508C16.8156 129.106 10.7862 153.343 49.8241 159.786C-10.2145 143.615 -15.9885 157.791 44.0502 174.004L43.9991 173.879Z" fill="url(#paint0_linear_287_19)"></path><path d="M78.6273 179.7C83.1607 178.3 87.3607 177.233 91.2273 176.5C95.1607 175.767 98.794 175.4 102.127 175.4C108.994 175.4 114.294 176.933 118.027 180C121.827 183 123.727 187.567 123.727 193.7C123.727 198.633 122.961 202.867 121.427 206.4C119.894 209.933 117.894 212.833 115.427 215.1C112.961 217.3 110.127 218.933 106.927 220C103.794 221 100.627 221.5 97.4273 221.5C95.294 221.5 93.194 221.3 91.1273 220.9C90.594 224.033 90.294 226.567 90.2273 228.5C90.1607 230.433 89.994 232.267 89.7273 234C88.194 234.4 86.5607 234.667 84.8273 234.8C83.1607 235 81.494 235.1 79.8273 235.1C78.294 235.1 76.8607 235.033 75.5273 234.9C74.2607 234.767 73.0607 234.633 71.9273 234.5C71.9273 233.433 72.0273 231.6 72.2273 229C72.494 226.333 72.794 223.3 73.1273 219.9C73.5273 216.433 73.9607 212.733 74.4273 208.8C74.894 204.867 75.3607 201.067 75.8273 197.4C76.3607 193.667 76.8607 190.267 77.3273 187.2C77.794 184.067 78.2273 181.567 78.6273 179.7ZM95.5273 193.6C95.1273 195.533 94.6607 197.8 94.1273 200.4C93.6607 202.933 93.2607 205.867 92.9273 209.2C93.2607 209.267 93.594 209.333 93.9273 209.4C94.2607 209.4 94.6273 209.4 95.0273 209.4C96.094 209.4 97.194 209.233 98.3273 208.9C99.5273 208.567 100.594 208 101.527 207.2C102.461 206.333 103.227 205.233 103.827 203.9C104.427 202.567 104.727 200.9 104.727 198.9C104.727 196.767 104.261 195.267 103.327 194.4C102.394 193.533 101.127 193.1 99.5273 193.1C98.9273 193.1 98.294 193.167 97.6273 193.3C96.9607 193.367 96.2607 193.467 95.5273 193.6ZM158.638 235.2C158.772 234 158.972 232.3 159.238 230.1C159.505 227.833 159.838 225.233 160.238 222.3C159.105 222.367 157.938 222.4 156.738 222.4C155.538 222.4 154.372 222.4 153.238 222.4C152.372 222.4 151.538 222.4 150.738 222.4C149.938 222.4 149.172 222.367 148.438 222.3C148.038 225.033 147.705 227.4 147.438 229.4C147.238 231.333 147.072 232.767 146.938 233.7C146.072 233.833 144.938 233.967 143.538 234.1C142.205 234.233 140.772 234.367 139.238 234.5C137.705 234.633 136.205 234.733 134.738 234.8C133.272 234.933 132.005 235 130.938 235C130.538 235 130.172 235 129.838 235C129.505 235 129.205 234.967 128.938 234.9C129.005 233.367 129.172 231 129.438 227.8C129.772 224.6 130.138 221 130.538 217C131.005 212.933 131.438 208.767 131.838 204.5C132.305 200.167 132.738 196.133 133.138 192.4C133.605 188.667 134.005 185.5 134.338 182.9C134.672 180.233 134.905 178.567 135.038 177.9C136.372 177.767 137.872 177.667 139.538 177.6C141.272 177.467 143.072 177.4 144.938 177.4C146.872 177.4 148.805 177.467 150.738 177.6C152.672 177.667 154.405 177.833 155.938 178.1C155.605 179.7 155.205 181.667 154.738 184C154.338 186.333 153.872 188.867 153.338 191.6C152.872 194.333 152.372 197.2 151.838 200.2C151.372 203.133 150.905 206.067 150.438 209C152.038 208.733 153.838 208.433 155.838 208.1C157.905 207.767 160.005 207.5 162.138 207.3C162.538 204.033 162.938 200.8 163.338 197.6C163.738 194.4 164.105 191.467 164.438 188.8C164.772 186.067 165.038 183.7 165.238 181.7C165.438 179.7 165.572 178.3 165.638 177.5C166.905 177.367 168.405 177.267 170.138 177.2C171.938 177.133 173.738 177.1 175.538 177.1C177.738 177.1 179.772 177.167 181.638 177.3C183.572 177.367 184.972 177.533 185.838 177.8C185.572 180.333 185.172 183.367 184.638 186.9C184.172 190.367 183.638 194.033 183.038 197.9C182.438 201.767 181.805 205.667 181.138 209.6C180.538 213.533 179.938 217.2 179.338 220.6C178.805 223.933 178.305 226.833 177.838 229.3C177.438 231.7 177.138 233.367 176.938 234.3C175.272 234.7 173.438 234.967 171.438 235.1C169.505 235.233 167.638 235.3 165.838 235.3C164.172 235.3 162.672 235.267 161.338 235.2C160.072 235.2 159.172 235.2 158.638 235.2ZM216.846 175.6C217.713 175.4 218.913 175.233 220.446 175.1C222.046 174.967 223.913 174.9 226.046 174.9C228.246 174.9 230.713 175 233.446 175.2C234.379 181.6 235.346 187.433 236.346 192.7C237.413 197.967 238.479 202.833 239.546 207.3C240.679 211.767 241.846 215.933 243.046 219.8C244.313 223.6 245.646 227.2 247.046 230.6C244.579 231.933 241.546 233.133 237.946 234.2C234.413 235.333 230.779 236.4 227.046 237.4C226.246 236.133 225.413 234.4 224.546 232.2C223.679 230 222.979 227.633 222.446 225.1C220.646 225.433 218.513 225.733 216.046 226C213.646 226.267 210.913 226.467 207.846 226.6C207.313 228.533 206.813 230.233 206.346 231.7C205.946 233.1 205.579 234.633 205.246 236.3C201.846 236.167 198.646 235.7 195.646 234.9C192.713 234.1 189.679 233.167 186.546 232.1C188.013 228.033 189.879 223.567 192.146 218.7C194.413 213.833 196.879 208.9 199.546 203.9C202.279 198.833 205.113 193.867 208.046 189C211.046 184.133 213.979 179.667 216.846 175.6ZM219.646 195.6C218.713 197.4 217.646 199.7 216.446 202.5C215.313 205.3 214.079 208.467 212.746 212C212.946 212 213.213 212.033 213.546 212.1C213.879 212.1 214.279 212.1 214.746 212.1C215.679 212.1 216.713 212.1 217.846 212.1C218.979 212.033 219.979 212 220.846 212C220.446 209.2 220.146 206.533 219.946 204C219.746 201.4 219.646 198.6 219.646 195.6ZM290.457 199.4C290.057 199.267 289.357 198.9 288.357 198.3C287.424 197.633 286.29 196.933 284.957 196.2C283.69 195.467 282.29 194.8 280.757 194.2C279.29 193.6 277.857 193.3 276.457 193.3C274.657 193.3 273.224 193.733 272.157 194.6C271.157 195.4 270.657 196.367 270.657 197.5C270.657 198.633 271.224 199.733 272.357 200.8C273.49 201.867 275.324 202.667 277.857 203.2C281.657 204 284.69 205.067 286.957 206.4C289.224 207.667 290.957 209.033 292.157 210.5C293.424 211.9 294.257 213.333 294.657 214.8C295.057 216.2 295.257 217.4 295.257 218.4C295.257 221.733 294.557 224.7 293.157 227.3C291.757 229.833 289.957 231.967 287.757 233.7C285.557 235.433 283.057 236.733 280.257 237.6C277.524 238.533 274.757 239 271.957 239C269.024 239 266.257 238.667 263.657 238C261.057 237.4 258.69 236.533 256.557 235.4C254.49 234.333 252.69 233.033 251.157 231.5C249.69 229.967 248.624 228.267 247.957 226.4C248.824 225.267 249.79 224.133 250.857 223C251.99 221.8 253.157 220.667 254.357 219.6C255.557 218.467 256.724 217.4 257.857 216.4C259.057 215.4 260.124 214.5 261.057 213.7C263.39 216.5 265.624 218.467 267.757 219.6C269.957 220.667 271.924 221.2 273.657 221.2C274.524 221.2 275.357 221 276.157 220.6C276.957 220.133 277.357 219.133 277.357 217.6C277.357 216.8 277.19 216.167 276.857 215.7C276.524 215.167 275.957 214.7 275.157 214.3C274.357 213.9 273.324 213.5 272.057 213.1C270.79 212.7 269.224 212.2 267.357 211.6C265.024 210.867 262.857 210.067 260.857 209.2C258.924 208.267 257.257 207.167 255.857 205.9C254.457 204.633 253.357 203.167 252.557 201.5C251.757 199.767 251.357 197.7 251.357 195.3C251.357 191.433 252.024 188.1 253.357 185.3C254.69 182.5 256.49 180.2 258.757 178.4C261.024 176.6 263.624 175.3 266.557 174.5C269.557 173.633 272.724 173.2 276.057 173.2C280.724 173.2 285.39 174 290.057 175.6C294.724 177.133 298.79 179.3 302.257 182.1C301.724 183.633 300.99 185.233 300.057 186.9C299.124 188.5 298.09 190.067 296.957 191.6C295.89 193.133 294.757 194.6 293.557 196C292.424 197.333 291.39 198.467 290.457 199.4ZM311.689 179.1C312.689 178.833 314.589 178.6 317.389 178.4C320.189 178.133 323.389 177.9 326.989 177.7C330.589 177.5 334.356 177.367 338.289 177.3C342.222 177.167 345.856 177.1 349.189 177.1C350.522 177.1 351.789 177.1 352.989 177.1C354.189 177.1 355.289 177.133 356.289 177.2C356.156 178.533 355.989 180.033 355.789 181.7C355.656 183.367 355.456 185 355.189 186.6C354.989 188.2 354.756 189.7 354.489 191.1C354.222 192.433 353.989 193.5 353.789 194.3C351.389 194.167 349.189 194 347.189 193.8C345.256 193.6 343.322 193.4 341.389 193.2C339.522 192.933 337.589 192.733 335.589 192.6C333.589 192.4 331.389 192.267 328.989 192.2L326.989 202.1C329.522 201.433 332.322 200.867 335.389 200.4C338.522 199.867 341.489 199.6 344.289 199.6H345.489C345.489 201.867 345.356 204.2 345.089 206.6C344.889 208.933 344.656 210.9 344.389 212.5H341.789C338.656 212.5 335.822 212.633 333.289 212.9C330.822 213.1 328.122 213.333 325.189 213.6C324.989 214.867 324.822 216.1 324.689 217.3C324.622 218.433 324.522 219.667 324.389 221C327.922 220.933 331.756 220.633 335.889 220.1C340.022 219.5 344.822 218.867 350.289 218.2C350.356 219.667 350.422 221.033 350.489 222.3C350.556 223.567 350.589 224.867 350.589 226.2C350.589 228.4 350.489 230.933 350.289 233.8C347.156 234.267 343.389 234.567 338.989 234.7C334.589 234.833 330.122 234.9 325.589 234.9C321.456 234.9 317.556 234.867 313.889 234.8C310.222 234.733 307.156 234.633 304.689 234.5C304.756 232.567 304.956 230.033 305.289 226.9C305.622 223.7 305.989 220.3 306.389 216.7C306.856 213.033 307.322 209.267 307.789 205.4C308.322 201.467 308.822 197.8 309.289 194.4C309.822 190.933 310.289 187.867 310.689 185.2C311.089 182.467 311.422 180.433 311.689 179.1ZM399.656 177.7C400.256 177.633 401.323 177.567 402.856 177.5C404.456 177.367 406.323 177.267 408.456 177.2C410.59 177.133 412.89 177.1 415.356 177.1C417.823 177.033 420.323 177 422.856 177C426.256 177 429.456 177.067 432.456 177.2C435.523 177.267 437.956 177.433 439.756 177.7C439.623 178.7 439.39 179.967 439.056 181.5C438.79 183.033 438.423 184.633 437.956 186.3C437.49 187.967 436.956 189.633 436.356 191.3C435.756 192.9 435.056 194.333 434.256 195.6C429.456 195.533 425.123 195 421.256 194C417.456 193 414.29 192.033 411.756 191.1C411.423 191.9 411.023 192.8 410.556 193.8C410.09 194.8 409.623 195.8 409.156 196.8C408.69 197.8 408.256 198.733 407.856 199.6C407.456 200.467 407.156 201.167 406.956 201.7C408.69 200.7 410.656 199.933 412.856 199.4C415.056 198.8 417.123 198.5 419.056 198.5C420.056 198.5 421.39 198.767 423.056 199.3C424.723 199.767 426.356 200.6 427.956 201.8C429.556 202.933 430.923 204.4 432.056 206.2C433.256 208 433.856 210.2 433.856 212.8C433.856 215.2 433.323 217.767 432.256 220.5C431.256 223.167 429.69 225.667 427.556 228C425.423 230.333 422.69 232.267 419.356 233.8C416.09 235.333 412.19 236.1 407.656 236.1C403.256 236.1 399.156 235.233 395.356 233.5C391.556 231.767 388.556 229.633 386.356 227.1C387.556 224.767 389.256 222.3 391.456 219.7C393.723 217.1 395.923 214.8 398.056 212.8C400.123 214.933 402.19 216.633 404.256 217.9C406.39 219.167 408.19 219.8 409.656 219.8C411.19 219.8 412.556 219.233 413.756 218.1C414.956 216.9 415.556 215.1 415.556 212.7C415.556 210.567 415.056 209.233 414.056 208.7C413.123 208.1 411.923 207.8 410.456 207.8C409.39 207.8 408.09 208.033 406.556 208.5C405.09 208.967 403.99 209.5 403.256 210.1C402.59 210.033 401.756 209.933 400.756 209.8C399.823 209.6 398.823 209.4 397.756 209.2C396.756 209 395.69 208.8 394.556 208.6C393.49 208.333 392.523 208.1 391.656 207.9C391.723 207.3 391.956 206.333 392.356 205C392.756 203.667 393.223 202.1 393.756 200.3C394.29 198.5 394.856 196.567 395.456 194.5C396.056 192.367 396.623 190.3 397.156 188.3C397.756 186.233 398.256 184.3 398.656 182.5C399.123 180.633 399.456 179.033 399.656 177.7Z" fill="white"></path><defs><linearGradient id="paint0_linear_287_19" x1="0" y1="405" x2="490.931" y2="-16.3912" gradientUnits="userSpaceOnUse"><stop stop-color="#B7A1FF"></stop><stop offset="0.485" stop-color="#7FA8DF"></stop><stop offset="1" stop-color="#83FBF0"></stop></linearGradient></defs></svg> 