<?xml version="1.0" encoding="UTF-8"?> <svg xmlns="http://www.w3.org/2000/svg" width="505" height="405" viewBox="0 0 505 405" fill="none"><path d="M43.9991 173.879C-11.0321 165.689 -16.295 189.178 38.7361 197.367C-0.608346 201.317 7.51603 254.986 46.8605 251.078C5.21668 294.438 46.1963 320.462 87.8401 277.102C45.021 302.96 89.4241 351.599 132.243 325.741C95.5046 364.029 121.819 380.741 158.558 342.453C131.426 394.792 175.113 409.8 202.246 357.461C192.742 416.909 231.32 420.983 240.824 361.535C235.765 400.197 277.664 403.855 282.723 365.193C277.971 416.784 313.534 418.987 318.337 367.355C312.512 409.259 357.171 413.375 363.047 371.471C377.047 412.169 405.151 405.767 391.15 365.068C427.327 388.058 448.634 365.817 412.457 342.869C448.634 365.858 478.321 334.887 442.145 311.94C509.184 326.656 531.564 259.143 464.576 244.427C513.527 241.392 506.22 163.943 457.269 166.978C496.614 141.453 460.131 104.205 420.786 129.771C456.758 98.5924 406.939 60.5541 370.967 91.733C413.633 47.2926 328.761 -6.58461 286.146 37.8142C293.555 -6.08575 249.612 -10.9912 242.203 32.9087C241.181 -11.6564 172.712 -10.6171 173.734 33.948C149.514 -3.13413 114.666 11.9149 138.886 48.9971C102.454 25.8831 52.9921 77.4323 89.373 100.588C52.941 77.4738 19.4727 112.353 55.8535 135.508C16.8156 129.106 10.7862 153.343 49.8241 159.786C-10.2145 143.615 -15.9885 157.791 44.0502 174.004L43.9991 173.879Z" fill="url(#paint0_linear_285_12)"></path><path d="M77.6625 179.7C82.1958 178.3 86.3958 177.233 90.2625 176.5C94.1958 175.767 97.8292 175.4 101.163 175.4C108.029 175.4 113.329 176.933 117.063 180C120.863 183 122.763 187.567 122.763 193.7C122.763 198.633 121.996 202.867 120.462 206.4C118.929 209.933 116.929 212.833 114.463 215.1C111.996 217.3 109.163 218.933 105.963 220C102.829 221 99.6625 221.5 96.4625 221.5C94.3292 221.5 92.2292 221.3 90.1625 220.9C89.6292 224.033 89.3292 226.567 89.2625 228.5C89.1958 230.433 89.0292 232.267 88.7625 234C87.2292 234.4 85.5958 234.667 83.8625 234.8C82.1958 235 80.5292 235.1 78.8625 235.1C77.3292 235.1 75.8958 235.033 74.5625 234.9C73.2958 234.767 72.0958 234.633 70.9625 234.5C70.9625 233.433 71.0625 231.6 71.2625 229C71.5292 226.333 71.8292 223.3 72.1625 219.9C72.5625 216.433 72.9958 212.733 73.4625 208.8C73.9292 204.867 74.3958 201.067 74.8625 197.4C75.3958 193.667 75.8958 190.267 76.3625 187.2C76.8292 184.067 77.2625 181.567 77.6625 179.7ZM94.5625 193.6C94.1625 195.533 93.6958 197.8 93.1625 200.4C92.6958 202.933 92.2958 205.867 91.9625 209.2C92.2958 209.267 92.6292 209.333 92.9625 209.4C93.2958 209.4 93.6625 209.4 94.0625 209.4C95.1292 209.4 96.2292 209.233 97.3625 208.9C98.5625 208.567 99.6292 208 100.563 207.2C101.496 206.333 102.263 205.233 102.863 203.9C103.463 202.567 103.763 200.9 103.763 198.9C103.763 196.767 103.296 195.267 102.363 194.4C101.429 193.533 100.163 193.1 98.5625 193.1C97.9625 193.1 97.3292 193.167 96.6625 193.3C95.9958 193.367 95.2958 193.467 94.5625 193.6ZM157.673 235.2C157.807 234 158.007 232.3 158.273 230.1C158.54 227.833 158.873 225.233 159.273 222.3C158.14 222.367 156.973 222.4 155.773 222.4C154.573 222.4 153.407 222.4 152.273 222.4C151.407 222.4 150.573 222.4 149.773 222.4C148.973 222.4 148.207 222.367 147.473 222.3C147.073 225.033 146.74 227.4 146.473 229.4C146.273 231.333 146.107 232.767 145.973 233.7C145.107 233.833 143.973 233.967 142.573 234.1C141.24 234.233 139.807 234.367 138.273 234.5C136.74 234.633 135.24 234.733 133.773 234.8C132.307 234.933 131.04 235 129.973 235C129.573 235 129.207 235 128.873 235C128.54 235 128.24 234.967 127.973 234.9C128.04 233.367 128.207 231 128.473 227.8C128.807 224.6 129.173 221 129.573 217C130.04 212.933 130.473 208.767 130.873 204.5C131.34 200.167 131.773 196.133 132.173 192.4C132.64 188.667 133.04 185.5 133.373 182.9C133.707 180.233 133.94 178.567 134.073 177.9C135.407 177.767 136.907 177.667 138.573 177.6C140.307 177.467 142.107 177.4 143.973 177.4C145.907 177.4 147.84 177.467 149.773 177.6C151.707 177.667 153.44 177.833 154.973 178.1C154.64 179.7 154.24 181.667 153.773 184C153.373 186.333 152.907 188.867 152.373 191.6C151.907 194.333 151.407 197.2 150.873 200.2C150.407 203.133 149.94 206.067 149.473 209C151.073 208.733 152.873 208.433 154.873 208.1C156.94 207.767 159.04 207.5 161.173 207.3C161.573 204.033 161.973 200.8 162.373 197.6C162.773 194.4 163.14 191.467 163.473 188.8C163.807 186.067 164.073 183.7 164.273 181.7C164.473 179.7 164.607 178.3 164.673 177.5C165.94 177.367 167.44 177.267 169.173 177.2C170.973 177.133 172.773 177.1 174.573 177.1C176.773 177.1 178.807 177.167 180.673 177.3C182.607 177.367 184.007 177.533 184.873 177.8C184.607 180.333 184.207 183.367 183.673 186.9C183.207 190.367 182.673 194.033 182.073 197.9C181.473 201.767 180.84 205.667 180.173 209.6C179.573 213.533 178.973 217.2 178.373 220.6C177.84 223.933 177.34 226.833 176.873 229.3C176.473 231.7 176.173 233.367 175.973 234.3C174.307 234.7 172.473 234.967 170.473 235.1C168.54 235.233 166.673 235.3 164.873 235.3C163.207 235.3 161.707 235.267 160.373 235.2C159.107 235.2 158.207 235.2 157.673 235.2ZM215.881 175.6C216.748 175.4 217.948 175.233 219.481 175.1C221.081 174.967 222.948 174.9 225.081 174.9C227.281 174.9 229.748 175 232.481 175.2C233.415 181.6 234.381 187.433 235.381 192.7C236.448 197.967 237.515 202.833 238.581 207.3C239.715 211.767 240.881 215.933 242.081 219.8C243.348 223.6 244.681 227.2 246.081 230.6C243.615 231.933 240.581 233.133 236.981 234.2C233.448 235.333 229.815 236.4 226.081 237.4C225.281 236.133 224.448 234.4 223.581 232.2C222.715 230 222.015 227.633 221.481 225.1C219.681 225.433 217.548 225.733 215.081 226C212.681 226.267 209.948 226.467 206.881 226.6C206.348 228.533 205.848 230.233 205.381 231.7C204.981 233.1 204.615 234.633 204.281 236.3C200.881 236.167 197.681 235.7 194.681 234.9C191.748 234.1 188.715 233.167 185.581 232.1C187.048 228.033 188.915 223.567 191.181 218.7C193.448 213.833 195.915 208.9 198.581 203.9C201.315 198.833 204.148 193.867 207.081 189C210.081 184.133 213.015 179.667 215.881 175.6ZM218.681 195.6C217.748 197.4 216.681 199.7 215.481 202.5C214.348 205.3 213.115 208.467 211.781 212C211.981 212 212.248 212.033 212.581 212.1C212.915 212.1 213.315 212.1 213.781 212.1C214.715 212.1 215.748 212.1 216.881 212.1C218.015 212.033 219.015 212 219.881 212C219.481 209.2 219.181 206.533 218.981 204C218.781 201.4 218.681 198.6 218.681 195.6ZM289.492 199.4C289.092 199.267 288.392 198.9 287.392 198.3C286.459 197.633 285.326 196.933 283.992 196.2C282.726 195.467 281.326 194.8 279.792 194.2C278.326 193.6 276.892 193.3 275.492 193.3C273.692 193.3 272.259 193.733 271.192 194.6C270.192 195.4 269.692 196.367 269.692 197.5C269.692 198.633 270.259 199.733 271.392 200.8C272.526 201.867 274.359 202.667 276.892 203.2C280.692 204 283.726 205.067 285.992 206.4C288.259 207.667 289.992 209.033 291.192 210.5C292.459 211.9 293.292 213.333 293.692 214.8C294.092 216.2 294.292 217.4 294.292 218.4C294.292 221.733 293.592 224.7 292.192 227.3C290.792 229.833 288.992 231.967 286.792 233.7C284.592 235.433 282.092 236.733 279.292 237.6C276.559 238.533 273.792 239 270.992 239C268.059 239 265.292 238.667 262.692 238C260.092 237.4 257.726 236.533 255.592 235.4C253.526 234.333 251.726 233.033 250.192 231.5C248.726 229.967 247.659 228.267 246.992 226.4C247.859 225.267 248.826 224.133 249.892 223C251.026 221.8 252.192 220.667 253.392 219.6C254.592 218.467 255.759 217.4 256.892 216.4C258.092 215.4 259.159 214.5 260.092 213.7C262.426 216.5 264.659 218.467 266.792 219.6C268.992 220.667 270.959 221.2 272.692 221.2C273.559 221.2 274.392 221 275.192 220.6C275.992 220.133 276.392 219.133 276.392 217.6C276.392 216.8 276.226 216.167 275.892 215.7C275.559 215.167 274.992 214.7 274.192 214.3C273.392 213.9 272.359 213.5 271.092 213.1C269.826 212.7 268.259 212.2 266.392 211.6C264.059 210.867 261.892 210.067 259.892 209.2C257.959 208.267 256.292 207.167 254.892 205.9C253.492 204.633 252.392 203.167 251.592 201.5C250.792 199.767 250.392 197.7 250.392 195.3C250.392 191.433 251.059 188.1 252.392 185.3C253.726 182.5 255.526 180.2 257.792 178.4C260.059 176.6 262.659 175.3 265.592 174.5C268.592 173.633 271.759 173.2 275.092 173.2C279.759 173.2 284.426 174 289.092 175.6C293.759 177.133 297.826 179.3 301.292 182.1C300.759 183.633 300.026 185.233 299.092 186.9C298.159 188.5 297.126 190.067 295.992 191.6C294.926 193.133 293.792 194.6 292.592 196C291.459 197.333 290.426 198.467 289.492 199.4ZM310.724 179.1C311.724 178.833 313.624 178.6 316.424 178.4C319.224 178.133 322.424 177.9 326.024 177.7C329.624 177.5 333.391 177.367 337.324 177.3C341.258 177.167 344.891 177.1 348.224 177.1C349.558 177.1 350.824 177.1 352.024 177.1C353.224 177.1 354.324 177.133 355.324 177.2C355.191 178.533 355.024 180.033 354.824 181.7C354.691 183.367 354.491 185 354.224 186.6C354.024 188.2 353.791 189.7 353.524 191.1C353.258 192.433 353.024 193.5 352.824 194.3C350.424 194.167 348.224 194 346.224 193.8C344.291 193.6 342.358 193.4 340.424 193.2C338.558 192.933 336.624 192.733 334.624 192.6C332.624 192.4 330.424 192.267 328.024 192.2L326.024 202.1C328.558 201.433 331.358 200.867 334.424 200.4C337.558 199.867 340.524 199.6 343.324 199.6H344.524C344.524 201.867 344.391 204.2 344.124 206.6C343.924 208.933 343.691 210.9 343.424 212.5H340.824C337.691 212.5 334.858 212.633 332.324 212.9C329.858 213.1 327.158 213.333 324.224 213.6C324.024 214.867 323.858 216.1 323.724 217.3C323.658 218.433 323.558 219.667 323.424 221C326.958 220.933 330.791 220.633 334.924 220.1C339.058 219.5 343.858 218.867 349.324 218.2C349.391 219.667 349.458 221.033 349.524 222.3C349.591 223.567 349.624 224.867 349.624 226.2C349.624 228.4 349.524 230.933 349.324 233.8C346.191 234.267 342.424 234.567 338.024 234.7C333.624 234.833 329.158 234.9 324.624 234.9C320.491 234.9 316.591 234.867 312.924 234.8C309.258 234.733 306.191 234.633 303.724 234.5C303.791 232.567 303.991 230.033 304.324 226.9C304.658 223.7 305.024 220.3 305.424 216.7C305.891 213.033 306.358 209.267 306.824 205.4C307.358 201.467 307.858 197.8 308.324 194.4C308.858 190.933 309.324 187.867 309.724 185.2C310.124 182.467 310.458 180.433 310.724 179.1ZM390.491 187.5C392.358 185.7 394.458 184.067 396.791 182.6C399.191 181.133 401.658 179.867 404.191 178.8C406.791 177.667 409.425 176.8 412.091 176.2C414.758 175.533 417.358 175.167 419.891 175.1C422.358 175.1 424.691 175.4 426.891 176C429.158 176.533 431.158 177.467 432.891 178.8C434.625 180.067 435.991 181.733 436.991 183.8C438.058 185.867 438.591 188.433 438.591 191.5C438.591 194.633 437.725 197.467 435.991 200C434.325 202.467 432.125 204.767 429.391 206.9C426.658 208.967 423.525 210.933 419.991 212.8C416.525 214.667 412.958 216.533 409.291 218.4C410.691 218.4 412.358 218.3 414.291 218.1C416.291 217.9 418.391 217.7 420.591 217.5C422.791 217.233 425.025 216.933 427.291 216.6C429.625 216.267 431.825 215.933 433.891 215.6V217.9C433.891 221.233 433.658 224.5 433.191 227.7C432.725 230.833 432.191 233.367 431.591 235.3C428.391 235.5 424.991 235.633 421.391 235.7C417.791 235.833 414.258 235.9 410.791 235.9C408.191 235.9 405.725 235.867 403.391 235.8C401.058 235.8 398.925 235.733 396.991 235.6C395.125 235.533 393.525 235.467 392.191 235.4C390.858 235.333 389.891 235.233 389.291 235.1C389.158 233.1 389.058 231.333 388.991 229.8C388.925 228.2 388.891 226.667 388.891 225.2C388.891 223.533 388.991 221.833 389.191 220.1C391.525 218.833 394.391 217.3 397.791 215.5C401.191 213.633 404.458 211.667 407.591 209.6C410.791 207.533 413.491 205.467 415.691 203.4C417.958 201.333 419.091 199.4 419.091 197.6C419.091 196.6 418.725 195.733 417.991 195C417.258 194.267 416.525 193.9 415.791 193.9C414.458 193.9 413.125 194.167 411.791 194.7C410.525 195.233 409.225 195.967 407.891 196.9C406.625 197.767 405.325 198.767 403.991 199.9C402.725 201.033 401.458 202.167 400.191 203.3C399.058 202.433 397.958 201.367 396.891 200.1C395.891 198.833 394.958 197.467 394.091 196C393.225 194.533 392.458 193.067 391.791 191.6C391.191 190.133 390.758 188.767 390.491 187.5Z" fill="white"></path><defs><linearGradient id="paint0_linear_285_12" x1="0" y1="405" x2="490.931" y2="-16.3912" gradientUnits="userSpaceOnUse"><stop stop-color="#B7A1FF"></stop><stop offset="0.485" stop-color="#7FA8DF"></stop><stop offset="1" stop-color="#83FBF0"></stop></linearGradient></defs></svg> 