<?xml version="1.0" encoding="UTF-8"?> <svg xmlns="http://www.w3.org/2000/svg" width="1627" height="248" viewBox="0 0 1627 248" fill="none"><mask id="path-1-outside-1_344_37" maskUnits="userSpaceOnUse" x="0" y="0" width="1627" height="248" fill="black"><rect fill="white" width="1627" height="248"></rect><path d="M85.5786 157.344C83.5919 157.592 81.8535 157.716 80.3635 157.716C79.1218 157.716 78.0043 157.84 77.0109 158.088C76.0176 158.336 75.1484 158.46 74.4034 158.46C74.1551 159.7 73.9067 162.179 73.6584 165.898C73.4101 169.369 73.1617 173.46 72.9134 178.171C72.6651 182.882 72.4167 187.841 72.1684 193.048C71.92 198.255 71.6717 203.09 71.4234 207.552C71.4234 211.767 71.2992 215.363 71.0509 218.338C71.0509 221.065 71.0509 222.553 71.0509 222.801C65.3391 224.289 58.3857 225.404 50.1906 226.148C42.2438 226.892 34.4212 227.264 26.7228 227.264C17.286 227.264 9.71174 226.644 4 225.404C4.24834 219.454 4.86918 210.776 5.86252 199.37C6.85587 187.717 7.97338 174.824 9.21507 160.691C10.7051 146.311 12.3193 131.434 14.0576 116.062C15.796 100.689 17.5343 86.3086 19.2727 72.9198C21.0111 59.2829 22.6252 47.3817 24.1153 37.216C25.6053 26.8025 26.9711 19.6121 28.2128 15.6451C57.5165 9.4465 82.971 6.34722 104.576 6.34722C120.967 6.34722 134.998 7.95885 146.669 11.1821C158.589 14.4054 168.275 18.8683 175.725 24.571C183.423 30.2737 189.011 36.9681 192.487 44.6543C196.212 52.3405 198.075 60.6466 198.075 69.5725C198.075 78.7464 196.833 87.4244 194.35 95.6065C192.115 103.789 188.266 111.227 182.802 117.921C177.339 124.616 170.013 130.566 160.825 135.773C151.884 140.98 140.709 145.319 127.299 148.79C135.494 155.98 145.303 161.435 156.727 165.154C168.399 168.626 182.057 170.857 197.703 171.849C196.461 185.486 193.729 198.751 189.507 211.644C185.286 224.537 179.946 235.322 173.49 244C161.073 243.752 149.898 242.016 139.964 238.793C130.279 235.57 121.712 230.487 114.261 223.545C107.06 216.85 101.1 208.048 96.3812 197.139C91.6628 186.229 88.0619 172.965 85.5786 157.344ZM78.8735 117.549C79.6185 117.549 80.3635 117.673 81.1085 117.921C81.8535 117.921 82.5985 117.921 83.3435 117.921C88.5586 117.921 93.6495 117.301 98.6162 116.062C103.831 114.822 108.426 112.838 112.399 110.111C116.621 107.384 119.973 103.913 122.457 99.6975C124.94 95.4825 126.182 90.3997 126.182 84.4491C126.182 75.7711 123.698 70.0684 118.731 67.341C113.765 64.6137 108.301 63.25 102.341 63.25C99.8579 63.25 97.4987 63.374 95.2637 63.6219C93.0286 63.8699 90.9178 64.1178 88.9311 64.3657C87.6894 67.589 86.4477 71.5561 85.206 76.267C84.2127 80.9779 83.2194 85.8128 82.226 90.7716C81.481 95.7304 80.736 100.689 79.991 105.648C79.4943 110.359 79.1218 114.326 78.8735 117.549Z"></path><path d="M325.018 176.684C331.723 176.684 337.434 174.576 342.153 170.361C347.12 165.898 351.093 160.195 354.073 153.253C357.301 146.311 359.661 138.624 361.151 130.194C362.641 121.764 363.386 113.582 363.386 105.648C363.386 96.4743 361.771 89.036 358.543 83.3333C355.563 77.6307 349.727 74.7793 341.035 74.7793C334.827 74.7793 329.239 76.8868 324.273 81.1018C319.306 85.3169 314.96 90.6476 311.235 97.0941C307.758 103.541 305.027 110.855 303.04 119.037C301.302 126.971 300.432 134.657 300.432 142.096C300.432 153.501 302.295 162.055 306.02 167.758C309.993 173.212 316.326 176.188 325.018 176.684ZM344.76 4.48766C356.681 4.48766 368.477 6.09928 380.148 9.32254C392.069 12.2978 402.623 17.3807 411.811 24.571C421.248 31.5134 428.822 40.8112 434.534 52.4645C440.246 64.1178 443.102 78.4985 443.102 95.6065C443.102 113.458 441.115 129.327 437.142 143.211C433.168 156.848 427.829 168.749 421.124 178.915C414.667 188.833 407.217 197.139 398.774 203.833C390.33 210.528 381.638 215.859 372.698 219.826C363.758 224.041 354.818 227.016 345.878 228.752C337.186 230.487 329.364 231.355 322.41 231.355C308.007 231.355 294.721 229.495 282.552 225.776C270.632 222.305 260.326 216.85 251.634 209.412C242.942 201.974 236.113 192.428 231.146 180.775C226.428 169.121 224.069 155.237 224.069 139.12C224.069 116.31 227.546 96.4743 234.499 79.6142C241.452 62.7541 250.517 48.7454 261.692 37.588C273.115 26.4305 286.029 18.1245 300.432 12.6698C314.836 7.21503 329.612 4.48766 344.76 4.48766Z"></path><path d="M556.969 5.60341C560.197 4.85957 564.667 4.23971 570.379 3.74382C576.339 3.24794 583.292 3 591.239 3C599.434 3 608.623 3.37192 618.805 4.11575C622.281 27.9182 625.882 49.6132 629.607 69.2006C633.581 88.7881 637.554 106.888 641.527 123.5C645.749 140.112 650.095 155.609 654.565 169.989C659.283 184.122 664.25 197.511 669.465 210.156C660.277 215.115 648.977 219.578 635.567 223.545C622.405 227.76 608.871 231.727 594.964 235.446C591.984 230.735 588.88 224.289 585.652 216.106C582.423 207.924 579.816 199.122 577.829 189.701C571.124 190.94 563.177 192.056 553.989 193.048C545.049 194.04 534.867 194.783 523.443 195.279C521.457 202.47 519.594 208.792 517.856 214.247C516.366 219.454 515 225.156 513.758 231.355C501.093 230.859 489.173 229.123 477.998 226.148C467.071 223.173 455.772 219.702 444.1 215.735C449.563 200.61 456.517 183.998 464.96 165.898C473.404 147.798 482.592 129.451 492.525 110.855C502.707 92.0113 513.262 73.5396 524.188 55.4398C535.363 37.34 546.29 20.7279 556.969 5.60341ZM567.399 79.9861C563.922 86.6806 559.949 95.2346 555.479 105.648C551.257 116.062 546.663 127.839 541.696 140.98C542.441 140.98 543.434 141.104 544.676 141.352C545.918 141.352 547.408 141.352 549.146 141.352C552.623 141.352 556.472 141.352 560.694 141.352C564.916 141.104 568.641 140.98 571.869 140.98C570.379 130.566 569.261 120.649 568.516 111.227C567.771 101.557 567.399 91.1435 567.399 79.9861Z"></path><path d="M718.586 15.2731C732.742 12.7937 746.152 10.8102 758.817 9.32254C771.73 7.83487 784.147 7.09104 796.067 7.09104C810.968 7.09104 824.502 8.5787 836.67 11.554C848.839 14.2814 859.145 18.8683 867.588 25.3148C876.28 31.5134 882.861 39.6955 887.331 49.8611C892.049 59.7788 894.409 71.928 894.409 86.3086C894.409 90.0278 894.284 93.9949 894.036 98.2099C893.788 102.177 893.291 106.392 892.546 110.855C888.821 134.905 882.985 154.369 875.038 169.245C867.34 184.122 857.903 195.651 846.728 203.833C835.801 212.015 823.26 217.47 809.105 220.198C795.198 223.173 780.174 224.66 764.032 224.66C753.602 224.66 742.923 224.289 731.997 223.545C721.07 222.801 709.77 222.057 698.099 221.313C698.099 218.09 698.347 211.52 698.844 201.602C699.589 191.684 700.458 180.031 701.451 166.642C702.693 153.005 703.935 138.624 705.176 123.5C706.666 108.128 708.156 93.375 709.646 79.2423C711.385 64.8616 712.999 51.9686 714.489 40.5633C715.979 29.1579 717.345 20.7279 718.586 15.2731ZM818.418 114.202C818.914 110.979 819.287 108.004 819.535 105.276C819.784 102.301 819.908 99.5736 819.908 97.0941C819.908 86.6806 817.797 79.6142 813.575 75.8951C809.602 71.928 804.138 69.9444 797.185 69.9444C794.453 69.9444 791.722 70.1924 788.99 70.6883C786.258 71.1842 783.278 71.68 780.05 72.1759C778.311 80.358 776.697 89.16 775.207 98.5818C773.717 108.004 772.351 117.053 771.11 125.731C770.116 134.409 769.123 142.344 768.13 149.534C767.385 156.724 766.888 161.931 766.64 165.154C768.13 165.402 769.62 165.526 771.11 165.526C772.6 165.526 774.09 165.526 775.58 165.526C780.546 165.526 785.265 165.03 789.735 164.039C794.205 162.799 798.302 160.319 802.027 156.6C805.753 152.881 808.981 147.674 811.713 140.98C814.693 134.285 816.928 125.36 818.418 114.202Z"></path><path d="M895.116 214.247C900.083 201.106 905.422 186.601 911.134 170.733C917.094 154.617 922.681 138.005 927.896 120.897C933.36 103.789 938.202 86.5566 942.424 69.2006C946.646 51.8447 949.626 35.3565 951.364 19.7361C962.043 16.5129 973.342 13.9095 985.262 11.9259C997.431 9.94239 1011.09 8.33077 1026.24 7.09104C1028.22 11.3061 1029.96 17.5046 1031.45 25.6867C1033.19 33.8688 1034.56 43.2906 1035.55 53.9522C1036.79 64.6137 1037.66 76.267 1038.16 88.912C1038.9 101.557 1039.28 114.326 1039.28 127.219V137.261C1048.22 112.715 1058.4 89.4079 1069.82 67.341C1081.49 45.0262 1094.03 24.9429 1107.44 7.09104C1111.67 7.58693 1116.63 8.33077 1122.34 9.32254C1128.3 10.0664 1134.39 11.1821 1140.6 12.6698C1147.05 13.9095 1153.26 15.2732 1159.22 16.7608C1165.18 18.0005 1170.4 19.2402 1174.87 20.4799C1172.88 39.8194 1171.14 59.7788 1169.65 80.358C1168.41 100.689 1167.79 120.525 1167.79 139.864C1167.79 153.997 1168.29 167.386 1169.28 180.031C1170.27 192.428 1171.89 203.833 1174.12 214.247C1169.16 216.23 1162.82 218.09 1155.12 219.826C1147.43 221.561 1139.6 223.049 1131.66 224.289C1123.71 225.776 1116.26 226.892 1109.31 227.636C1102.35 228.628 1097.01 229.123 1093.29 229.123C1092.3 223.421 1091.55 217.47 1091.05 211.272C1090.56 204.825 1090.31 198.255 1090.31 191.56C1090.31 166.518 1093.29 139.616 1099.25 110.855C1093.79 119.781 1088.69 128.831 1083.98 138.005C1079.51 146.931 1075.41 155.609 1071.68 164.039C1068.21 172.469 1065.1 180.403 1062.37 187.841C1059.89 195.031 1058.02 201.354 1056.78 206.809C1054.05 207.305 1051.2 207.552 1048.22 207.552C1045.48 207.552 1042.75 207.552 1040.02 207.552C1031.83 207.552 1024.37 207.181 1017.67 206.437C1010.96 205.693 1006.25 205.073 1003.51 204.577C1001.53 182.758 999.666 163.915 997.927 148.046C996.189 132.178 994.326 117.921 992.34 105.276C991.595 115.442 990.229 126.847 988.242 139.492C986.504 151.889 984.393 164.163 981.909 176.312C979.674 188.213 977.315 199.122 974.832 209.04C972.597 218.71 970.734 225.652 969.244 229.867C963.781 229.867 957.324 229.247 949.874 228.008C942.424 226.768 935.098 225.28 927.896 223.545C920.695 222.057 914.114 220.445 908.154 218.71C901.945 216.974 897.599 215.487 895.116 214.247Z"></path><path d="M1290.66 5.60341C1293.89 4.85957 1298.36 4.23971 1304.07 3.74382C1310.03 3.24794 1316.98 3 1324.93 3C1333.12 3 1342.31 3.37192 1352.49 4.11575C1355.97 27.9182 1359.57 49.6132 1363.3 69.2006C1367.27 88.7881 1371.24 106.888 1375.22 123.5C1379.44 140.112 1383.78 155.609 1388.25 169.989C1392.97 184.122 1397.94 197.511 1403.15 210.156C1393.97 215.115 1382.67 219.578 1369.26 223.545C1356.09 227.76 1342.56 231.727 1328.65 235.446C1325.67 230.735 1322.57 224.289 1319.34 216.106C1316.11 207.924 1313.5 199.122 1311.52 189.701C1304.81 190.94 1296.87 192.056 1287.68 193.048C1278.74 194.04 1268.56 194.783 1257.13 195.279C1255.15 202.47 1253.28 208.792 1251.54 214.247C1250.05 219.454 1248.69 225.156 1247.45 231.355C1234.78 230.859 1222.86 229.123 1211.69 226.148C1200.76 223.173 1189.46 219.702 1177.79 215.735C1183.25 200.61 1190.21 183.998 1198.65 165.898C1207.09 147.798 1216.28 129.451 1226.21 110.855C1236.4 92.0113 1246.95 73.5396 1257.88 55.4398C1269.05 37.34 1279.98 20.7279 1290.66 5.60341ZM1301.09 79.9861C1297.61 86.6806 1293.64 95.2346 1289.17 105.648C1284.95 116.062 1280.35 127.839 1275.39 140.98C1276.13 140.98 1277.12 141.104 1278.37 141.352C1279.61 141.352 1281.1 141.352 1282.84 141.352C1286.31 141.352 1290.16 141.352 1294.38 141.352C1298.6 141.104 1302.33 140.98 1305.56 140.98C1304.07 130.566 1302.95 120.649 1302.21 111.227C1301.46 101.557 1301.09 91.1435 1301.09 79.9861Z"></path><path d="M1456 20.8518C1472.89 15.6451 1488.53 11.678 1502.94 8.95063C1517.59 6.22325 1531.12 4.85957 1543.54 4.85957C1569.12 4.85957 1588.86 10.5622 1602.77 21.9676C1616.92 33.125 1624 50.1091 1624 72.9198C1624 91.2675 1621.14 107.012 1615.43 120.153C1609.72 133.294 1602.27 144.079 1593.08 152.509C1583.89 160.691 1573.34 166.766 1561.42 170.733C1549.75 174.452 1537.95 176.312 1526.03 176.312C1518.08 176.312 1510.26 175.568 1502.56 174.08C1500.58 185.734 1499.46 195.155 1499.21 202.346C1498.96 209.536 1498.34 216.354 1497.35 222.801C1491.64 224.289 1485.55 225.28 1479.1 225.776C1472.89 226.52 1466.68 226.892 1460.47 226.892C1454.76 226.892 1449.42 226.644 1444.45 226.148C1439.73 225.652 1435.26 225.156 1431.04 224.66C1431.04 220.693 1431.42 213.875 1432.16 204.205C1433.15 194.288 1434.27 183.006 1435.51 170.361C1437 157.468 1438.62 143.707 1440.36 129.079C1442.09 114.45 1443.83 100.317 1445.57 86.6806C1447.56 72.7958 1449.42 60.1507 1451.16 48.7454C1452.9 37.0921 1454.51 27.7942 1456 20.8518ZM1518.95 72.5478C1517.46 79.7382 1515.73 88.1682 1513.74 97.838C1512 107.26 1510.51 118.169 1509.27 130.566C1510.51 130.814 1511.75 131.062 1512.99 131.31C1514.24 131.31 1515.6 131.31 1517.09 131.31C1521.06 131.31 1525.16 130.69 1529.38 129.451C1533.85 128.211 1537.83 126.103 1541.3 123.128C1544.78 119.905 1547.64 115.814 1549.87 110.855C1552.11 105.896 1553.22 99.6975 1553.22 92.2593C1553.22 84.3251 1551.49 78.7464 1548.01 75.5231C1544.53 72.2999 1539.81 70.6883 1533.85 70.6883C1531.62 70.6883 1529.26 70.9362 1526.78 71.4321C1524.29 71.68 1521.69 72.052 1518.95 72.5478Z"></path></mask><path d="M85.5786 157.344C83.5919 157.592 81.8535 157.716 80.3635 157.716C79.1218 157.716 78.0043 157.84 77.0109 158.088C76.0176 158.336 75.1484 158.46 74.4034 158.46C74.1551 159.7 73.9067 162.179 73.6584 165.898C73.4101 169.369 73.1617 173.46 72.9134 178.171C72.6651 182.882 72.4167 187.841 72.1684 193.048C71.92 198.255 71.6717 203.09 71.4234 207.552C71.4234 211.767 71.2992 215.363 71.0509 218.338C71.0509 221.065 71.0509 222.553 71.0509 222.801C65.3391 224.289 58.3857 225.404 50.1906 226.148C42.2438 226.892 34.4212 227.264 26.7228 227.264C17.286 227.264 9.71174 226.644 4 225.404C4.24834 219.454 4.86918 210.776 5.86252 199.37C6.85587 187.717 7.97338 174.824 9.21507 160.691C10.7051 146.311 12.3193 131.434 14.0576 116.062C15.796 100.689 17.5343 86.3086 19.2727 72.9198C21.0111 59.2829 22.6252 47.3817 24.1153 37.216C25.6053 26.8025 26.9711 19.6121 28.2128 15.6451C57.5165 9.4465 82.971 6.34722 104.576 6.34722C120.967 6.34722 134.998 7.95885 146.669 11.1821C158.589 14.4054 168.275 18.8683 175.725 24.571C183.423 30.2737 189.011 36.9681 192.487 44.6543C196.212 52.3405 198.075 60.6466 198.075 69.5725C198.075 78.7464 196.833 87.4244 194.35 95.6065C192.115 103.789 188.266 111.227 182.802 117.921C177.339 124.616 170.013 130.566 160.825 135.773C151.884 140.98 140.709 145.319 127.299 148.79C135.494 155.98 145.303 161.435 156.727 165.154C168.399 168.626 182.057 170.857 197.703 171.849C196.461 185.486 193.729 198.751 189.507 211.644C185.286 224.537 179.946 235.322 173.49 244C161.073 243.752 149.898 242.016 139.964 238.793C130.279 235.57 121.712 230.487 114.261 223.545C107.06 216.85 101.1 208.048 96.3812 197.139C91.6628 186.229 88.0619 172.965 85.5786 157.344ZM78.8735 117.549C79.6185 117.549 80.3635 117.673 81.1085 117.921C81.8535 117.921 82.5985 117.921 83.3435 117.921C88.5586 117.921 93.6495 117.301 98.6162 116.062C103.831 114.822 108.426 112.838 112.399 110.111C116.621 107.384 119.973 103.913 122.457 99.6975C124.94 95.4825 126.182 90.3997 126.182 84.4491C126.182 75.7711 123.698 70.0684 118.731 67.341C113.765 64.6137 108.301 63.25 102.341 63.25C99.8579 63.25 97.4987 63.374 95.2637 63.6219C93.0286 63.8699 90.9178 64.1178 88.9311 64.3657C87.6894 67.589 86.4477 71.5561 85.206 76.267C84.2127 80.9779 83.2194 85.8128 82.226 90.7716C81.481 95.7304 80.736 100.689 79.991 105.648C79.4943 110.359 79.1218 114.326 78.8735 117.549Z" stroke="#3E3A57" stroke-width="6" mask="url(#path-1-outside-1_344_37)"></path><path d="M325.018 176.684C331.723 176.684 337.434 174.576 342.153 170.361C347.12 165.898 351.093 160.195 354.073 153.253C357.301 146.311 359.661 138.624 361.151 130.194C362.641 121.764 363.386 113.582 363.386 105.648C363.386 96.4743 361.771 89.036 358.543 83.3333C355.563 77.6307 349.727 74.7793 341.035 74.7793C334.827 74.7793 329.239 76.8868 324.273 81.1018C319.306 85.3169 314.96 90.6476 311.235 97.0941C307.758 103.541 305.027 110.855 303.04 119.037C301.302 126.971 300.432 134.657 300.432 142.096C300.432 153.501 302.295 162.055 306.02 167.758C309.993 173.212 316.326 176.188 325.018 176.684ZM344.76 4.48766C356.681 4.48766 368.477 6.09928 380.148 9.32254C392.069 12.2978 402.623 17.3807 411.811 24.571C421.248 31.5134 428.822 40.8112 434.534 52.4645C440.246 64.1178 443.102 78.4985 443.102 95.6065C443.102 113.458 441.115 129.327 437.142 143.211C433.168 156.848 427.829 168.749 421.124 178.915C414.667 188.833 407.217 197.139 398.774 203.833C390.33 210.528 381.638 215.859 372.698 219.826C363.758 224.041 354.818 227.016 345.878 228.752C337.186 230.487 329.364 231.355 322.41 231.355C308.007 231.355 294.721 229.495 282.552 225.776C270.632 222.305 260.326 216.85 251.634 209.412C242.942 201.974 236.113 192.428 231.146 180.775C226.428 169.121 224.069 155.237 224.069 139.12C224.069 116.31 227.546 96.4743 234.499 79.6142C241.452 62.7541 250.517 48.7454 261.692 37.588C273.115 26.4305 286.029 18.1245 300.432 12.6698C314.836 7.21503 329.612 4.48766 344.76 4.48766Z" stroke="#3E3A57" stroke-width="6" mask="url(#path-1-outside-1_344_37)"></path><path d="M556.969 5.60341C560.197 4.85957 564.667 4.23971 570.379 3.74382C576.339 3.24794 583.292 3 591.239 3C599.434 3 608.623 3.37192 618.805 4.11575C622.281 27.9182 625.882 49.6132 629.607 69.2006C633.581 88.7881 637.554 106.888 641.527 123.5C645.749 140.112 650.095 155.609 654.565 169.989C659.283 184.122 664.25 197.511 669.465 210.156C660.277 215.115 648.977 219.578 635.567 223.545C622.405 227.76 608.871 231.727 594.964 235.446C591.984 230.735 588.88 224.289 585.652 216.106C582.423 207.924 579.816 199.122 577.829 189.701C571.124 190.94 563.177 192.056 553.989 193.048C545.049 194.04 534.867 194.783 523.443 195.279C521.457 202.47 519.594 208.792 517.856 214.247C516.366 219.454 515 225.156 513.758 231.355C501.093 230.859 489.173 229.123 477.998 226.148C467.071 223.173 455.772 219.702 444.1 215.735C449.563 200.61 456.517 183.998 464.96 165.898C473.404 147.798 482.592 129.451 492.525 110.855C502.707 92.0113 513.262 73.5396 524.188 55.4398C535.363 37.34 546.29 20.7279 556.969 5.60341ZM567.399 79.9861C563.922 86.6806 559.949 95.2346 555.479 105.648C551.257 116.062 546.663 127.839 541.696 140.98C542.441 140.98 543.434 141.104 544.676 141.352C545.918 141.352 547.408 141.352 549.146 141.352C552.623 141.352 556.472 141.352 560.694 141.352C564.916 141.104 568.641 140.98 571.869 140.98C570.379 130.566 569.261 120.649 568.516 111.227C567.771 101.557 567.399 91.1435 567.399 79.9861Z" stroke="#3E3A57" stroke-width="6" mask="url(#path-1-outside-1_344_37)"></path><path d="M718.586 15.2731C732.742 12.7937 746.152 10.8102 758.817 9.32254C771.73 7.83487 784.147 7.09104 796.067 7.09104C810.968 7.09104 824.502 8.5787 836.67 11.554C848.839 14.2814 859.145 18.8683 867.588 25.3148C876.28 31.5134 882.861 39.6955 887.331 49.8611C892.049 59.7788 894.409 71.928 894.409 86.3086C894.409 90.0278 894.284 93.9949 894.036 98.2099C893.788 102.177 893.291 106.392 892.546 110.855C888.821 134.905 882.985 154.369 875.038 169.245C867.34 184.122 857.903 195.651 846.728 203.833C835.801 212.015 823.26 217.47 809.105 220.198C795.198 223.173 780.174 224.66 764.032 224.66C753.602 224.66 742.923 224.289 731.997 223.545C721.07 222.801 709.77 222.057 698.099 221.313C698.099 218.09 698.347 211.52 698.844 201.602C699.589 191.684 700.458 180.031 701.451 166.642C702.693 153.005 703.935 138.624 705.176 123.5C706.666 108.128 708.156 93.375 709.646 79.2423C711.385 64.8616 712.999 51.9686 714.489 40.5633C715.979 29.1579 717.345 20.7279 718.586 15.2731ZM818.418 114.202C818.914 110.979 819.287 108.004 819.535 105.276C819.784 102.301 819.908 99.5736 819.908 97.0941C819.908 86.6806 817.797 79.6142 813.575 75.8951C809.602 71.928 804.138 69.9444 797.185 69.9444C794.453 69.9444 791.722 70.1924 788.99 70.6883C786.258 71.1842 783.278 71.68 780.05 72.1759C778.311 80.358 776.697 89.16 775.207 98.5818C773.717 108.004 772.351 117.053 771.11 125.731C770.116 134.409 769.123 142.344 768.13 149.534C767.385 156.724 766.888 161.931 766.64 165.154C768.13 165.402 769.62 165.526 771.11 165.526C772.6 165.526 774.09 165.526 775.58 165.526C780.546 165.526 785.265 165.03 789.735 164.039C794.205 162.799 798.302 160.319 802.027 156.6C805.753 152.881 808.981 147.674 811.713 140.98C814.693 134.285 816.928 125.36 818.418 114.202Z" stroke="#3E3A57" stroke-width="6" mask="url(#path-1-outside-1_344_37)"></path><path d="M895.116 214.247C900.083 201.106 905.422 186.601 911.134 170.733C917.094 154.617 922.681 138.005 927.896 120.897C933.36 103.789 938.202 86.5566 942.424 69.2006C946.646 51.8447 949.626 35.3565 951.364 19.7361C962.043 16.5129 973.342 13.9095 985.262 11.9259C997.431 9.94239 1011.09 8.33077 1026.24 7.09104C1028.22 11.3061 1029.96 17.5046 1031.45 25.6867C1033.19 33.8688 1034.56 43.2906 1035.55 53.9522C1036.79 64.6137 1037.66 76.267 1038.16 88.912C1038.9 101.557 1039.28 114.326 1039.28 127.219V137.261C1048.22 112.715 1058.4 89.4079 1069.82 67.341C1081.49 45.0262 1094.03 24.9429 1107.44 7.09104C1111.67 7.58693 1116.63 8.33077 1122.34 9.32254C1128.3 10.0664 1134.39 11.1821 1140.6 12.6698C1147.05 13.9095 1153.26 15.2732 1159.22 16.7608C1165.18 18.0005 1170.4 19.2402 1174.87 20.4799C1172.88 39.8194 1171.14 59.7788 1169.65 80.358C1168.41 100.689 1167.79 120.525 1167.79 139.864C1167.79 153.997 1168.29 167.386 1169.28 180.031C1170.27 192.428 1171.89 203.833 1174.12 214.247C1169.16 216.23 1162.82 218.09 1155.12 219.826C1147.43 221.561 1139.6 223.049 1131.66 224.289C1123.71 225.776 1116.26 226.892 1109.31 227.636C1102.35 228.628 1097.01 229.123 1093.29 229.123C1092.3 223.421 1091.55 217.47 1091.05 211.272C1090.56 204.825 1090.31 198.255 1090.31 191.56C1090.31 166.518 1093.29 139.616 1099.25 110.855C1093.79 119.781 1088.69 128.831 1083.98 138.005C1079.51 146.931 1075.41 155.609 1071.68 164.039C1068.21 172.469 1065.1 180.403 1062.37 187.841C1059.89 195.031 1058.02 201.354 1056.78 206.809C1054.05 207.305 1051.2 207.552 1048.22 207.552C1045.48 207.552 1042.75 207.552 1040.02 207.552C1031.83 207.552 1024.37 207.181 1017.67 206.437C1010.96 205.693 1006.25 205.073 1003.51 204.577C1001.53 182.758 999.666 163.915 997.927 148.046C996.189 132.178 994.326 117.921 992.34 105.276C991.595 115.442 990.229 126.847 988.242 139.492C986.504 151.889 984.393 164.163 981.909 176.312C979.674 188.213 977.315 199.122 974.832 209.04C972.597 218.71 970.734 225.652 969.244 229.867C963.781 229.867 957.324 229.247 949.874 228.008C942.424 226.768 935.098 225.28 927.896 223.545C920.695 222.057 914.114 220.445 908.154 218.71C901.945 216.974 897.599 215.487 895.116 214.247Z" stroke="#3E3A57" stroke-width="6" mask="url(#path-1-outside-1_344_37)"></path><path d="M1290.66 5.60341C1293.89 4.85957 1298.36 4.23971 1304.07 3.74382C1310.03 3.24794 1316.98 3 1324.93 3C1333.12 3 1342.31 3.37192 1352.49 4.11575C1355.97 27.9182 1359.57 49.6132 1363.3 69.2006C1367.27 88.7881 1371.24 106.888 1375.22 123.5C1379.44 140.112 1383.78 155.609 1388.25 169.989C1392.97 184.122 1397.94 197.511 1403.15 210.156C1393.97 215.115 1382.67 219.578 1369.26 223.545C1356.09 227.76 1342.56 231.727 1328.65 235.446C1325.67 230.735 1322.57 224.289 1319.34 216.106C1316.11 207.924 1313.5 199.122 1311.52 189.701C1304.81 190.94 1296.87 192.056 1287.68 193.048C1278.74 194.04 1268.56 194.783 1257.13 195.279C1255.15 202.47 1253.28 208.792 1251.54 214.247C1250.05 219.454 1248.69 225.156 1247.45 231.355C1234.78 230.859 1222.86 229.123 1211.69 226.148C1200.76 223.173 1189.46 219.702 1177.79 215.735C1183.25 200.61 1190.21 183.998 1198.65 165.898C1207.09 147.798 1216.28 129.451 1226.21 110.855C1236.4 92.0113 1246.95 73.5396 1257.88 55.4398C1269.05 37.34 1279.98 20.7279 1290.66 5.60341ZM1301.09 79.9861C1297.61 86.6806 1293.64 95.2346 1289.17 105.648C1284.95 116.062 1280.35 127.839 1275.39 140.98C1276.13 140.98 1277.12 141.104 1278.37 141.352C1279.61 141.352 1281.1 141.352 1282.84 141.352C1286.31 141.352 1290.16 141.352 1294.38 141.352C1298.6 141.104 1302.33 140.98 1305.56 140.98C1304.07 130.566 1302.95 120.649 1302.21 111.227C1301.46 101.557 1301.09 91.1435 1301.09 79.9861Z" stroke="#3E3A57" stroke-width="6" mask="url(#path-1-outside-1_344_37)"></path><path d="M1456 20.8518C1472.89 15.6451 1488.53 11.678 1502.94 8.95063C1517.59 6.22325 1531.12 4.85957 1543.54 4.85957C1569.12 4.85957 1588.86 10.5622 1602.77 21.9676C1616.92 33.125 1624 50.1091 1624 72.9198C1624 91.2675 1621.14 107.012 1615.43 120.153C1609.72 133.294 1602.27 144.079 1593.08 152.509C1583.89 160.691 1573.34 166.766 1561.42 170.733C1549.75 174.452 1537.95 176.312 1526.03 176.312C1518.08 176.312 1510.26 175.568 1502.56 174.08C1500.58 185.734 1499.46 195.155 1499.21 202.346C1498.96 209.536 1498.34 216.354 1497.35 222.801C1491.64 224.289 1485.55 225.28 1479.1 225.776C1472.89 226.52 1466.68 226.892 1460.47 226.892C1454.76 226.892 1449.42 226.644 1444.45 226.148C1439.73 225.652 1435.26 225.156 1431.04 224.66C1431.04 220.693 1431.42 213.875 1432.16 204.205C1433.15 194.288 1434.27 183.006 1435.51 170.361C1437 157.468 1438.62 143.707 1440.36 129.079C1442.09 114.45 1443.83 100.317 1445.57 86.6806C1447.56 72.7958 1449.42 60.1507 1451.16 48.7454C1452.9 37.0921 1454.51 27.7942 1456 20.8518ZM1518.95 72.5478C1517.46 79.7382 1515.73 88.1682 1513.74 97.838C1512 107.26 1510.51 118.169 1509.27 130.566C1510.51 130.814 1511.75 131.062 1512.99 131.31C1514.24 131.31 1515.6 131.31 1517.09 131.31C1521.06 131.31 1525.16 130.69 1529.38 129.451C1533.85 128.211 1537.83 126.103 1541.3 123.128C1544.78 119.905 1547.64 115.814 1549.87 110.855C1552.11 105.896 1553.22 99.6975 1553.22 92.2593C1553.22 84.3251 1551.49 78.7464 1548.01 75.5231C1544.53 72.2999 1539.81 70.6883 1533.85 70.6883C1531.62 70.6883 1529.26 70.9362 1526.78 71.4321C1524.29 71.68 1521.69 72.052 1518.95 72.5478Z" stroke="#3E3A57" stroke-width="6" mask="url(#path-1-outside-1_344_37)"></path></svg> 