<?xml version="1.0" encoding="UTF-8"?> <svg xmlns="http://www.w3.org/2000/svg" width="519" height="617" viewBox="0 0 519 617" fill="none"><path d="M307.083 270.983H313.297C327.959 270.983 342.941 270.104 358.247 268.34C374.418 266.477 392.628 265.56 412.84 265.56C417.229 265.56 421.435 265.851 425.437 266.464H425.446H425.471H425.495H425.52H425.545H425.57H425.594H425.619H425.644H425.669H425.693H425.718H425.743H425.768H425.792H425.817H425.842H425.867H425.891H425.916H425.941H425.966H425.99H426.015H426.04H426.064H426.089H426.114H426.139H426.163H426.188H426.213H426.238H426.262H426.287H426.312H426.337H426.361H426.386H426.411H426.436H426.46H426.485H426.51H426.535H426.559H426.584H426.609H426.634H426.658H426.683H426.708H426.733H426.757H426.782H426.807H426.832H426.856H426.881H426.906H426.931H426.955H426.98H427.005H427.03H427.054H427.079H427.104H427.129H427.153H427.178H427.203H427.227H427.252H427.277H427.302H427.326H427.351H427.376H427.401H427.425H427.45H427.475H427.5H427.524H427.549H427.574H427.599H427.623H427.648H427.673H427.698H427.722H427.747H427.772H427.797H427.821H427.846H427.871H427.896H427.92H427.945H427.97H427.995H428.019H428.044H428.069H428.094H428.118H428.143H428.168H428.193H428.217H428.242H428.267H428.292H428.316H428.341H428.366H428.39H428.415H428.44H428.465H428.489H428.514H428.539H428.564H428.588H428.613H428.638H428.663H428.687H428.712H428.737H428.762H428.786H428.811H428.836H428.861H428.885H428.91H428.935H428.96H428.984H429.009H429.034H429.059H429.083H429.108H429.133H429.158H429.182H429.207H429.232H429.257H429.281H429.306H429.331H429.356H429.38H429.405H429.43H429.454H429.479H429.504H429.529H429.553H429.578H429.603H429.628H429.652H429.677H429.702H429.727H429.751H429.776H429.801H429.826H429.85H429.875H429.9H429.925H429.949H429.974H429.999H430.024H430.048H430.073H430.098H430.123H430.147H430.172H430.197H430.222H430.246H430.271H430.296H430.321H430.345H430.37H430.395H430.42H430.444H430.469H430.494H430.519H430.543H430.568H430.593H430.617H430.642H430.667H430.692H430.716H430.741H430.766H430.791H430.815H430.84H430.865H430.89H430.914H430.939H430.964H430.989H431.013H431.038H431.063H431.088H431.112H431.137H431.162H431.187H431.211H431.236H431.261H431.286H431.31H431.335H431.36H431.385H431.409H431.434H431.459H431.484H431.508H431.533H431.558H431.583H431.607H431.632H431.657H431.682H431.706H431.731H431.756H431.78H431.805H431.83H431.855H431.879H431.904H431.929H431.954H431.978H432.003H432.028H432.053H432.077H432.102H432.127H432.152H432.176H432.201H432.226H432.251H432.275H432.3H432.325H432.35H432.374H432.399H432.424H432.449H432.473H432.498H432.523H432.548H432.572H432.597H432.622H432.647H432.671H432.696H432.721H432.746H432.77H432.795H432.82H432.845H432.869H432.894H432.919H432.943H432.968H432.993H433.018H433.042H433.067H433.092H433.117H433.141H433.166H433.191H433.216H433.24H433.265H433.29H433.315H433.339H433.364H433.389H433.414H433.438H433.463H433.488H433.513H433.537H433.562H433.587H433.612H433.636H433.661H433.686H433.711H433.735H433.76H433.785H433.81H433.834H433.859H433.884H433.909H433.933H433.958H433.983H434.008H434.032H434.057H434.082H434.106H434.131H434.156H434.181H434.205H434.23H434.255H434.28H434.304H434.329H434.354H434.379H434.403H434.428H434.453H434.478H434.502H434.527H434.552H434.577H434.601H434.626H434.651H434.676H434.7H434.725H434.75H434.775H434.799H434.824H434.849H434.874H434.898H434.923H434.948H434.973H434.997H435.022H435.047H435.072H435.096H435.121H435.146H435.171H435.195H435.22H435.245H435.269H435.294H435.319H435.344H435.368H435.393H435.418H435.443H435.467H435.492H435.517H435.542H435.566H435.591H435.616H435.641H435.665H435.69H435.715H435.74H435.764H435.789H435.814H435.839H435.863H435.888H435.913H435.938H435.962H435.987H436.012H436.037H436.061H436.086H436.111H436.136H436.16H436.185H436.21H436.235H436.259H436.284H436.309H436.333H436.358H436.383H436.408H436.432H436.457H436.482H436.507H436.531H436.556H436.581H436.606H436.63H436.655H436.68H436.705H436.729H436.754H436.779H436.804H436.828H436.853H436.878H436.903H436.927H436.952H436.977H437.002H437.026H437.051H437.076H437.101H437.125H437.15H437.175H437.2H437.224H437.249H437.274H450.596L447.483 279.417C443.902 294.318 440.928 308.285 438.555 321.322C436.759 331.187 434.957 342.27 433.15 354.579C442.97 354.28 452.791 354.131 462.612 354.131C476.236 354.131 487.195 353.536 495.614 352.415L507.938 350.774L507.493 363.199C506.883 380.257 505.666 397.605 503.843 415.242C502.592 433.21 499.512 455.85 494.668 483.059L493.127 491.719H484.331H465.327H465.281H465.235H465.189H465.143H465.097H465.051H465.004H464.958H464.912H464.866H464.819H464.773H464.727H464.68H464.634H464.587H464.541H464.494H464.448H464.401H464.354H464.308H464.261H464.214H464.167H464.121H464.074H464.027H463.98H463.933H463.886H463.839H463.792H463.745H463.697H463.65H463.603H463.556H463.509H463.461H463.414H463.366H463.319H463.272H463.224H463.177H463.129H463.081H463.034H462.986H462.938H462.891H462.843H462.795H462.747H462.699H462.652H462.604H462.556H462.508H462.46H462.411H462.363H462.315H462.267H462.219H462.171H462.122H462.074H462.026H461.977H461.929H461.88H461.832H461.783H461.735H461.686H461.638H461.589H461.54H461.491H461.443H461.394H461.345H461.296H461.247H461.198H461.149H461.1H461.051H461.002H460.953H460.904H460.855H460.806H460.756H460.707H460.658H460.608H460.559H460.51H460.46H460.411H460.361H460.312H460.262H460.212H460.163H460.113H460.063H460.013H459.964H459.914H459.864H459.814H459.764H459.714H459.664H459.614H459.564H459.514H459.464H459.414H459.363H459.313H459.263H459.212H459.162H459.112H459.061H459.011H458.96H458.91H458.859H458.809H458.758H458.707H458.657H458.606H458.555H458.504H458.453H458.403H458.352H458.301H458.25H458.199H458.148H458.097H458.046H457.994H457.943H457.892H457.841H457.789H457.738H457.687H457.635H457.584H457.532H457.481H457.429H457.378H457.326H457.275H457.223H457.171H457.12H457.068H457.016H456.964H456.912H456.86H456.808H456.756H456.704H456.652H456.6H456.548H456.496H456.444H456.392H456.339H456.287H456.235H456.182H456.13H456.078H456.025H455.973H455.92H455.868H455.815H455.762H455.71H455.657H455.604H455.551H455.499H455.446H455.393H455.34H455.287H455.234H455.181H455.128H455.075H455.022H454.969H454.915H454.862H454.809H454.756H454.702H454.649H454.596H454.542H454.489H454.435H454.382H454.328H454.275H454.221H454.167H454.114H454.06H454.006H453.952H453.898H453.844H453.791H453.737H453.683H453.629H453.575H453.521H453.466H453.412H453.358H453.304H453.25H453.195H453.141H453.087H453.032H452.978H452.923H452.869H452.814H452.76H452.705H452.65H452.596H452.541H452.486H452.432H452.377H452.322H452.267H452.212H452.157H452.102H452.047H451.992H451.937H451.882H451.827H451.772H451.716H451.661H451.606H451.55H451.495H451.44H451.384H451.329H451.273H451.218H451.162H451.107H451.051H450.995H450.94H450.884H450.828H450.772H450.716H450.661H450.605H450.549H450.493H450.437H450.381H450.325H450.268H450.212H450.156H450.1H450.044H449.987H449.931H449.875H449.818H449.762H449.705H449.649H449.592H449.536H449.479H449.423H449.366H449.309H449.252H449.196H449.139H449.082H449.025H448.968H448.911H448.854H448.797H448.74H448.683H448.626H448.569H448.512H448.454H448.397H448.34H448.283H448.225H448.168H448.11H448.053H447.995H447.938H447.88H447.823H447.765H447.707H447.65H447.592H447.534H447.476H447.418H447.361H447.303H447.245H447.187H447.129H447.071H447.013H446.954H446.896H446.838H446.78H446.722H446.663H446.605H446.547H446.488H446.43H446.371H446.313H446.254H446.196H446.137H446.078H446.02H445.961H445.902H445.844H445.785H445.726H445.667H445.608H445.549H445.49H445.431H445.372H445.313H445.254H445.195H445.135H445.076H445.017H444.958H444.898H444.839H444.78H444.72H444.661H444.601H444.542H444.482H444.422H444.363H444.303H444.243H444.184H444.124H444.064H444.004H443.944H443.884H443.824H443.765H443.704H443.644H443.584H443.524H443.464H443.404H443.344H443.283H443.223H443.163H443.102H443.042H442.982H442.921H442.861H442.8H442.739H442.679H442.618H442.558H442.497H442.436H442.375H442.314H442.254H442.193H442.132H442.071H442.01H441.949H441.888H441.827H441.766H441.704H441.643H441.582H441.521H441.459H441.398H441.337H441.275H441.214H441.152H441.091H441.029H440.968H440.906H440.845H440.783H440.721H440.659H440.598H440.536H440.474H440.412H440.35H440.288H440.226H440.164H440.102H440.04H439.978H439.916H439.854H439.791H439.729H439.667H439.604H439.542H439.48H439.417H439.355H439.292H439.23H439.167H439.104H439.042H438.979H438.916H438.854H438.791H438.728H438.665H438.602H438.539H438.477H438.414H438.35H438.287H438.224H438.161H438.098H438.035H437.972H437.908H437.845H437.782H437.718H437.655H437.591H437.528H437.465H437.401H437.337H437.274C430.347 491.719 423.759 491.455 417.518 490.917C413.713 509.329 410.8 526.138 408.769 541.355C406.341 559.544 403.609 577.733 400.573 595.921L399.2 604.152L390.871 604.672C381.043 605.285 370.356 605.591 358.82 605.596C347.252 606.199 335.395 606.5 323.251 606.5C306.772 606.5 290.582 605.893 274.684 604.677C258.667 604.053 244.287 602.503 231.605 599.97L221.951 598.042L223.254 588.284C224.512 578.863 226.987 565.311 230.619 547.777L230.654 547.608L230.695 547.44C234.034 533.625 237.758 517.515 241.867 499.103C213.018 502.936 184.599 505.888 156.611 507.959L156.52 507.965L156.429 507.971C124.243 509.79 90.864 510.699 56.2928 510.699H37.289H28.5279L26.9588 502.079C24.552 488.859 21.2392 471.113 17.0181 448.83C12.6388 425.712 10.5 398.513 10.5 367.342V367.314V367.286V367.258V367.229V367.201V367.173V367.145V367.117V367.088V367.06V367.032V367.004V366.976V366.948V366.919V366.891V366.863V366.835V366.807V366.779V366.751V366.723V366.695V366.666V366.638V366.61V366.582V366.554V366.526V366.498V366.47V366.442V366.414V366.386V366.358V366.33V366.302V366.274V366.246V366.218V366.19V366.162V366.134V366.106V366.078V366.05V366.022V365.995V365.967V365.939V365.911V365.883V365.855V365.827V365.799V365.771V365.744V365.716V365.688V365.66V365.632V365.604V365.577V365.549V365.521V365.493V365.465V365.438V365.41V365.382V365.354V365.327V365.299V365.271V365.243V365.216V365.188V365.16V365.133V365.105V365.077V365.049V365.022V364.994V364.967V364.939V364.911V364.884V364.856V364.828V364.801V364.773V364.745V364.718V364.69V364.663V364.635V364.608V364.58V364.552V364.525V364.497V364.47V364.442V364.415V364.387V364.36V364.332V364.305V364.277V364.25V364.222V364.195V364.167V364.14V364.112V364.085V364.058V364.03V364.003V363.975V363.948V363.921V363.893V363.866V363.838V363.811V363.784V363.756V363.729V363.702V363.674V363.647V363.62V363.592V363.565V363.538V363.51V363.483V363.456V363.429V363.401V363.374V363.347V363.319V363.292V363.265V363.238V363.211V363.183V363.156V363.129V363.102V363.075V363.047V363.02V362.993V362.966V362.939V362.912V362.884V362.857V362.83V362.803V362.776V362.749V362.722V362.695V362.668V362.641V362.613V362.586V362.559V362.532V362.505V362.478V362.451V362.424V362.397V362.37V362.343V362.316V362.289V362.262V362.235V362.208V362.181V362.154V362.127V362.1V362.074V362.047V362.02V361.993V361.966V361.939V361.912V361.885V361.858V361.832V361.805V361.778V361.751V361.724V361.697V361.67V361.644V361.617V361.59V361.563V361.536V361.51V361.483V361.456V361.429V361.403V361.376V361.349V361.322V361.296V361.269V361.242V361.215V361.189V361.162V361.135V361.109V361.082V361.055V361.029V361.002V360.975V360.949V360.922V360.895V360.869V360.842V360.816V360.789V360.762V360.736V360.709V360.683V360.656V360.63V360.603V360.577V360.55V360.523V360.497V360.47V360.444V360.417V360.391V360.364V360.338V360.311V360.285V360.259V360.232V360.206V360.179V360.153V360.126V360.1V360.073V360.047V360.021V359.994V359.968V359.942V359.915V359.889V359.862V359.836V359.81V359.783V359.757V359.731V359.704V359.678V359.652V359.626V359.599V359.573V359.547V359.52V359.494V359.468V359.442V359.415V359.389V359.363V359.337V359.311V359.284V359.258V359.232V359.206V359.18V359.153V359.127V359.101V359.075V359.049V359.023V358.996V358.97V358.944V358.918V358.892V358.866V358.84V358.814V358.788V358.762V358.736V358.71V358.683V358.657V358.631V358.605V358.579V358.553V358.527V358.501V358.475V358.449V358.423V358.397V358.371V358.345V358.32V358.294V358.268V358.242V358.216V358.19V358.164V358.138V358.112V358.086V358.06V358.035V358.009V357.983V357.957V357.931V357.905V357.879V357.854V357.828V357.802V357.776V357.75V357.725V357.699V357.673V357.647V357.621V357.596V357.57V357.544V357.518V357.493V357.467V357.441V357.416V357.39V357.364V357.339V357.313V357.287V357.262V357.236V357.21V357.185V357.159V357.133V357.108V357.082V357.056V357.031V357.005V356.98V356.954V356.928V356.903V356.877V356.852V356.826V356.801V356.775V356.75V356.724V356.699V356.673V356.648V356.622V356.597V356.571V356.546V356.52V356.495V356.469V356.444V356.418V356.393V356.367V356.342V356.317V356.291V356.266V356.24V356.215V356.19V356.164V356.139V356.114V356.088V356.063V356.038V356.012V355.987V355.962V355.936V355.911V355.886V355.86V355.835V355.81V355.785V355.759V355.734V355.709V355.684V355.658V355.633V355.608V355.583V355.557V355.532V355.507V355.482V355.457V355.432V355.406V355.381V355.356V355.331V355.306V355.281V355.256V355.23V355.205V355.18V355.155V355.13V355.105V355.08V355.055V355.03V355.005V354.98V354.955V354.93V354.905V354.88V354.854V354.829V354.804V354.779V354.755V354.73V354.705V354.68V354.655V354.63V354.605V354.58V354.555V354.53V354.505V354.48V354.455V354.43V354.405V354.381V354.356V354.331V354.306V354.281V354.256V354.231V354.207V354.182V354.157V354.132V354.107V354.083V354.058V354.033V354.008V353.983V353.959V353.934V353.909V353.884V353.86V353.835V353.81V353.785C10.5 348.526 10.8292 343.27 11.4862 338.021L12.0501 333.516L15.7183 330.841C52.9067 303.722 93.6708 265.151 138.008 214.887L138.013 214.881C182.616 164.395 227.446 98.7953 272.448 17.8958L275.984 11.538L283.179 12.6159C296.243 14.5729 310.598 18.7535 326.177 24.9729C342.474 31.2379 358.135 39.0624 373.153 48.4367C388.173 57.8124 401.973 68.4525 414.536 80.3587C427.452 91.9915 436.956 104.68 442.496 118.512L444.593 123.748L441.386 128.388C423.422 154.371 401.213 179.915 374.834 205.034L374.787 205.079L374.74 205.123C348.611 229.398 321.868 252.465 294.512 274.321C267.255 296.099 241.482 315.784 217.196 333.369L217.176 333.383L217.157 333.397C206.032 341.374 196.157 348.585 187.522 355.035L307.083 270.983ZM307.083 270.983L304.093 276.429M307.083 270.983L304.093 276.429M304.093 276.429L313.297 281.483L304.093 276.429Z" stroke="white" stroke-width="21"></path></svg> 