<?xml version="1.0" encoding="UTF-8"?> <svg xmlns="http://www.w3.org/2000/svg" width="687" height="379" viewBox="0 0 687 379" fill="none"><g clip-path="url(#clip0_92_110)"><g style="mix-blend-mode:multiply" opacity="0.3"><path d="M680.233 240.485C673.123 232.974 659.087 234.64 649.967 234.535C634.689 234.376 619.41 231.89 604.158 231.044C570.139 229.14 535.432 231.758 501.412 233.027C466.943 234.323 432.501 235.698 398.005 236.016C363.854 236.306 330.178 232.71 296.37 228.135C262.905 223.613 229.573 221.921 196.003 218.589C162.723 215.283 131.69 202.299 101.477 188.733C75.4669 177.045 50.6725 162.236 21.1995 163.399C18.6883 163.505 15.6485 166.308 14.0096 169.111C-3.0398 181.461 -1.11018 208.408 2.29971 226.654C8.00929 257.25 37.6145 278.379 61.0872 295.436C97.2479 321.775 140.228 335.552 182.892 347.293C232.983 361.071 282.519 372.733 334.46 376.461C394.49 380.772 450.37 380.084 509.924 370.168C571.17 359.987 635.349 341.661 673.704 289.089C683.881 275.153 694.19 255.214 680.233 240.458V240.485Z" fill="#0000C5"></path></g><path d="M678.753 172.946C680.365 171.333 657.316 120.348 638.072 104.693C614.705 85.6796 591.603 70.2361 564.984 57.4371C562.552 54.2373 557.186 52.3333 552.111 51.8573C551.688 51.8044 551.213 51.8838 550.737 52.0424C546.64 50.1913 541.882 49.1865 538.128 48.0758C526.894 44.8231 515.845 40.9358 504.664 37.4187C476.829 28.6657 448.466 21.8166 420.606 13.0371C394.331 4.73355 364.62 4.38978 337.315 3.19978C307.286 1.87757 277.179 1.79823 247.177 3.35845C192.936 6.21443 136.818 12.2437 86.5689 33.981C66.0038 42.8663 47.5006 53.6027 35.2091 72.7483C32.7244 76.6357 30.5833 80.7345 28.5215 84.8598C27.5963 85.7325 26.8562 86.7109 26.5654 87.5836C26.5654 87.6629 26.5126 87.7158 26.4861 87.7687C24.8737 88.4298 23.2348 89.6463 22.4947 91.0478C21.9396 92.1056 21.4109 93.1634 20.8823 94.2211C18.0011 99.8009 15.0934 105.222 13.4017 111.357C13.3488 111.516 13.3752 111.621 13.3224 111.754C12.873 112.309 12.5558 112.838 12.4236 113.235C11.3399 116.857 10.9434 120.057 10.8641 123.654C10.5204 125.373 10.1504 127.091 9.88605 128.837C9.54242 130.661 9.25165 132.512 9.11948 134.39C5.36596 166.731 14.0625 200.184 32.5393 227.739C47.1569 249.502 72.7443 262.01 92.6221 278.432C156.723 331.294 277.893 342.427 396.842 347.399C430.968 348.827 466.097 345.786 499.721 339.386C504.294 338.514 508.84 337.509 513.36 336.425C519.625 337.906 527.502 336.24 533.767 335.393C547.697 333.489 561.416 330.554 574.685 325.82C599.03 317.173 625.173 304.929 646.293 289.988C669.951 273.249 677.537 249.396 678.991 221.445C679.652 208.646 679.784 195.556 679.361 182.757C679.255 179.636 679.097 176.251 678.726 172.893L678.753 172.946Z" fill="#083BEF"></path><g style="mix-blend-mode:multiply"><path d="M682.639 196.666C682.401 193.043 678.832 193.995 676.162 196.217C674.444 196.904 672.7 198.121 671.88 199.522C656.893 225.094 627.657 236.439 601.753 247.783C570.377 261.534 537.388 265.527 503.791 270.261C469.983 275.021 436.73 276.449 402.631 275.894C368.717 275.365 334.803 276.422 300.89 275.867C240.913 274.862 182.416 265.765 127.673 240.405C109.566 232.022 93.2036 221.603 78.216 209.042C77.4494 208.249 76.6564 207.456 75.8898 206.636C65.158 195.159 55.4834 182.73 47.2891 169.323C39.8349 157.132 34.3368 143.725 30.4775 129.974C26.1161 114.345 27.3056 99.2719 27.4377 83.3524C27.4641 80.1791 23.0762 83.6698 22.6533 85.0978C21.6753 88.324 20.9351 91.5766 20.3536 94.8822C17.8953 94.3268 13.9568 110.617 12.7937 115.218C10.9698 115.905 8.45865 126.88 9.01375 130.397C8.74941 132.116 8.61725 133.808 8.67011 135.501C8.69655 136.558 8.77585 137.59 8.88158 138.621C8.77585 138.833 8.69655 139.018 8.64368 139.176C2.96053 156.392 8.64368 180.165 16.7058 196.561C18.2654 201.929 37.7995 236.994 53.8974 252.147C77.2379 274.122 124.236 298.213 153.762 308.658C183.79 319.289 265.548 342.454 375.246 347.61C410.535 349.276 448.44 344.252 483.728 343.036C516.532 341.925 551.265 332.907 582.298 322.594C595.885 318.072 609.524 312.149 622.291 305.696C626.812 303.396 630.565 300.143 634.16 296.599C634.689 296.071 635.693 294.431 636.565 292.739C648.593 286.815 659.694 277.374 667.466 268.092C674.523 259.657 676.03 249 677.828 238.554C680.26 224.512 683.564 210.999 682.612 196.64L682.639 196.666Z" fill="#0000C5"></path></g><g style="mix-blend-mode:multiply"><path d="M445.559 123.733C443.841 118.682 440.457 113.869 440.008 108.845C439.479 102.789 441.197 96.7333 442.519 90.9156C443.999 84.3309 445.982 77.7198 447.092 71.0823C447.938 66.0843 442.149 68.9139 440.51 70.9765C412.2 107.152 363.774 108.977 321.904 103.953C307.524 102.234 293.541 98.3729 279.373 95.5169C264.174 92.4493 249.001 89.0909 233.802 86.0498C218.576 83.0087 200.813 76.6356 185.191 79.6238C182.099 80.2056 169.305 84.0929 176.336 88.2976C180.46 90.7569 186.909 90.5982 191.562 91.0478C196.822 91.5767 202.109 92.1849 207.342 93.0047C222.912 95.4904 238.269 98.8489 253.627 102.392C269.989 106.174 286.246 109.797 302.661 112.653C329.543 117.307 355.289 127.091 382.225 131.455C392.719 133.147 403.107 135.395 413.627 136.823C421.716 137.934 447.991 141.239 446.457 127.647C446.325 126.325 445.982 125.029 445.559 123.759V123.733Z" fill="#0000C5"></path></g><path d="M664.215 146.396C666.091 212.454 524.224 257.33 347.359 246.673C170.494 235.989 25.6138 173.792 23.7371 107.761C21.8867 41.6764 163.754 -3.1996 340.592 7.45746C517.457 18.1145 662.364 80.338 664.215 146.396Z" stroke="black" stroke-width="0.25" stroke-miterlimit="10"></path><path d="M96.6664 88.2712C128.439 83.0352 160.793 86.7903 192.381 91.418C224.048 96.0458 255.451 102.392 286.589 109.77C317.728 117.148 345.826 124.711 375.934 129.947C391.397 132.645 407.072 134.734 422.773 135.368C438.475 136.003 453.779 135.21 469.137 133.306C484.098 131.455 498.927 128.546 513.571 124.976C528.215 121.406 542.569 116.302 557.451 114.107C561.548 113.499 565.645 113.182 569.769 113.155C569.874 113.155 570.006 112.944 569.874 112.944C554.834 113.023 540.533 117.651 526.18 121.538C511.351 125.558 496.363 128.969 481.191 131.402C465.516 133.914 449.656 135.368 433.77 135.368C417.883 135.368 402.605 133.808 387.194 131.481C356.082 126.827 325.578 118.867 295.048 111.489C264.517 104.111 233.934 97.6324 203.007 92.7402C171.684 87.7952 139.488 83.1939 107.768 86.5258C104.068 86.9225 100.393 87.4249 96.7192 88.0332C96.6399 88.0332 96.5606 88.2183 96.6664 88.1918V88.2712Z" fill="black"></path><path d="M384.207 131.508C376.489 130.609 368.876 129.181 361.29 127.515C355.051 126.139 348.866 124.421 342.575 123.204C332.266 121.247 321.666 120.665 311.199 121.115C300.308 121.591 289.444 123.231 278.95 126.166C269.223 128.89 259.707 132.777 251.248 138.383C247.362 140.948 243.741 143.857 240.516 147.216C238.904 148.882 237.397 150.68 235.97 152.531C234.199 154.832 232.665 157.344 230.498 159.301C229.308 160.385 227.934 161.205 226.454 161.813C226.348 161.866 226.295 162.051 226.454 161.998C231.661 159.856 234.304 154.779 237.688 150.6C240.675 146.925 244.164 143.698 247.944 140.869C256.112 134.76 265.575 130.503 275.276 127.435C285.664 124.183 296.475 122.279 307.339 121.512C318.203 120.745 328.645 121.115 339.139 122.807C345.033 123.759 350.796 125.32 356.611 126.668C363.906 128.361 371.229 129.868 378.63 130.926C380.454 131.19 382.278 131.428 384.101 131.64C384.181 131.64 384.287 131.481 384.181 131.481L384.207 131.508Z" fill="black"></path><path d="M381.775 131.402C389.388 132.645 396.948 131.032 403.556 127.118C410.508 123.019 416.139 116.963 421.135 110.722C427.003 103.371 432.131 95.4905 437.312 87.6629C442.493 79.8354 447.964 71.6906 454.123 64.3391C459.833 57.5429 466.362 51.1433 474.212 46.8594C475.138 46.3569 476.063 45.8809 477.014 45.4578C477.147 45.4049 477.199 45.1405 477.014 45.2198C469.19 48.8162 462.555 54.6075 456.819 60.9542C450.528 67.9355 445.109 75.6572 439.876 83.4583C434.642 91.2594 429.514 99.2984 423.857 106.862C418.808 113.605 413.205 120.242 406.253 125.108C399.961 129.524 392.613 132.037 384.868 131.534C383.837 131.481 382.833 131.375 381.828 131.217C381.749 131.217 381.643 131.375 381.749 131.402H381.775Z" fill="black"></path><path d="M78.8239 269.388C65.2108 259.366 52.5757 247.863 41.7381 234.852C32.7508 224.036 25.1116 212.322 19.6663 199.311C14.9084 187.94 11.8157 175.934 10.5733 163.664C9.41024 152.346 9.75388 140.869 11.4456 129.63C13.2431 117.704 16.3358 105.936 21.4902 95.0146C26.6447 84.0931 33.9139 73.9384 42.5575 65.2912C51.2012 56.6439 61.1401 49.451 71.7398 43.4746C82.3396 37.4982 94.1817 32.4738 106.077 28.5864C117.972 24.6991 130.369 21.658 142.792 19.3574C155.216 17.0567 166.688 15.6552 178.715 14.6767C181.491 14.4652 184.293 14.3594 187.068 14.1743C188.469 14.095 189.738 13.0372 190.319 11.7943C190.742 10.9216 190.769 9.28209 189.368 9.36142C177.129 10.1547 164.864 11.6885 152.758 13.6983C140.07 15.8138 127.488 18.6169 115.17 22.3191C102.852 26.0213 90.666 30.7284 79.1147 36.5462C67.5634 42.3639 57.0694 49.1337 47.4477 57.4372C37.826 65.7407 29.6845 75.34 23.2613 86.1557C16.838 96.9715 12.3443 109.295 9.70101 121.829C7.34845 133.041 6.21182 144.518 6.58189 155.995C6.97839 168.239 9.06661 180.456 12.8466 192.092C17.0495 205.129 23.4199 217.505 31.1384 228.796C40.39 242.336 51.9678 254.024 64.7086 264.285C68.2506 267.141 71.8984 269.864 75.5991 272.509C77.1322 273.593 80.1985 270.367 78.7711 269.336L78.8239 269.388Z" fill="black"></path><path d="M204.091 11.2918C207.131 11.4769 209.906 11.424 212.735 10.1811C213.766 9.73157 215.827 6.87559 213.607 6.63759C212.497 6.53181 211.44 6.1087 210.329 5.92359L208.479 9.78446C215.801 9.78446 222.885 7.43092 230.207 7.98625C237.529 8.54158 245.433 8.70025 253.098 8.03914C261.689 7.2987 270.333 6.76981 278.95 6.50537C298.22 5.8707 317.516 6.26737 336.76 7.40447C357.695 8.64736 378.577 10.7893 399.327 13.7511C420.077 16.7129 442.44 20.8382 463.692 25.8362C484.627 30.7548 505.351 36.6519 525.625 43.8183C544.683 50.5352 563.398 58.3891 581.294 67.8033C597.656 76.4241 613.383 86.3672 627.525 98.2936C640.16 108.951 651.58 121.221 660.223 135.342C672.145 154.832 677.643 177.283 678.145 200.051C678.462 214.728 677.061 229.907 672.594 243.922C668.523 256.642 661.016 267.511 652.637 277.745C649.121 282.029 644.865 286.842 639.473 288.719L639.526 292.395L639.209 292.342C640.478 292.183 641.641 291.364 642.169 290.174C642.513 289.433 642.592 287.794 641.297 287.952C640.134 288.084 639.288 288.534 638.336 289.222C637.623 289.75 636.645 290.835 636.75 291.84C636.83 292.659 637.543 293.215 638.389 292.897C649.729 288.772 657.078 277.163 663.845 267.828C672.25 256.298 677.378 243.473 679.916 229.431C684.833 202.14 683.062 172.496 672.197 146.792C665.827 131.693 656.1 118.233 644.733 106.518C632.098 93.5336 617.454 82.665 602.07 73.1979C584.915 62.6731 566.702 53.9729 548.067 46.4627C528.004 38.3972 507.413 31.7597 486.557 26.1799C465.119 20.4415 443.418 15.8138 421.531 12.138C399.644 8.46225 378.365 5.81782 356.637 4.04605C336.442 2.4065 316.168 1.53384 295.894 1.6925C286.695 1.77184 277.496 2.03628 268.297 2.59161C263.989 2.85605 259.707 3.17338 255.398 3.5436C247.653 4.23116 239.961 4.20471 232.216 3.70227C224.471 3.19983 217.704 5.65915 210.329 5.8707C208.717 5.92359 205.941 9.41424 208.479 9.73158C209.616 9.89024 210.647 10.2605 211.81 10.3398L212.682 6.79626C210.356 7.88047 208.003 8.17136 205.466 8.33003C204.303 8.40936 202.188 11.1067 204.091 11.2125V11.2918Z" fill="black"></path><path d="M75.6784 272.112C76.7357 274.492 79.5112 276.211 81.5994 277.56C85.8023 280.283 90.1902 282.716 94.6046 285.043C106.949 291.601 119.637 297.525 132.404 303.158C144.14 308.341 156.009 313.392 168.168 317.464C186.566 323.626 205.756 327.989 224.656 332.167C267.98 341.74 312.256 347.743 356.611 349.409C400.966 351.075 442.281 347.796 484.68 341.793C524.462 336.134 564.27 327.592 601.885 313.154C606.141 311.514 610.37 309.769 614.547 307.944C616.635 307.018 617.692 302.735 614.494 304.11C578.333 319.606 539.82 329.047 501.121 335.525C459.542 342.48 417.09 345.971 374.929 345.469C330.706 344.94 286.536 339.809 243.159 331.242C222.039 327.063 201.051 322.145 180.328 316.3C168.512 312.968 157.119 308.579 145.779 303.872C132.721 298.451 119.822 292.659 107.134 286.445C98.2259 282.082 88.8686 277.718 80.8857 271.768C80.1985 271.266 79.1411 270.42 78.8239 269.864C77.9516 268.278 75.0969 270.737 75.7048 272.112H75.6784Z" fill="black"></path><path d="M65.3165 45.4313C63.4927 46.5155 62.1446 47.3617 60.4264 48.631C59.0519 49.6624 57.6773 50.7202 56.3028 51.8044C53.5802 53.9728 50.9369 56.2206 48.3728 58.5741C43.9849 62.6201 39.8613 67.0099 36.1871 71.7169C30.2396 79.3329 25.4288 88.0595 23.3141 97.5795C21.5167 105.671 21.8603 114.054 24.16 122.014C25.3231 126.086 27.0148 129.63 28.9708 133.279C31.0326 137.14 33.4645 140.79 36.1342 144.28C42.0024 151.896 48.8486 158.719 56.2235 164.854C64.4443 171.703 73.273 177.785 82.3924 183.338C91.5119 188.892 101.821 194.366 111.865 199.205C121.91 204.044 132.193 208.408 142.634 212.374C152.335 216.05 162.168 219.356 172.107 222.264C176.548 223.56 181.041 224.697 185.509 225.887C187.57 226.416 189.711 226.839 191.72 227.527C193.571 228.135 195.421 228.717 197.324 229.193C199.227 229.669 201.078 230.066 202.981 230.356C205.043 230.674 208.056 226.205 205.201 225.755C204.276 225.596 203.351 225.464 202.426 225.332C202.32 225.332 202.003 225.253 202.426 225.332C202.188 225.279 201.976 225.279 201.739 225.226C201.501 225.2 201.236 225.173 200.998 225.12C200.523 225.068 200.047 224.988 199.545 224.935C199.439 224.935 199.307 224.909 199.201 224.882C199.835 224.962 198.461 224.777 198.778 224.803C198.54 224.777 198.302 224.777 198.064 224.75C197.536 224.697 197.007 224.618 196.478 224.565C195.712 224.459 194.469 224.327 193.359 224.195C191.456 223.957 189.236 223.375 187.253 222.926C185.059 222.423 182.892 221.841 180.751 221.26C171.129 218.694 161.639 215.706 152.255 212.374C141.973 208.725 131.823 204.705 121.857 200.289C111.892 195.873 101.662 190.796 91.9877 185.269C82.3131 179.742 73.6695 174.136 65.1315 167.63C57.3601 161.707 49.9853 155.175 43.562 147.797C40.6543 144.465 37.9846 140.895 35.632 137.167C33.4381 133.65 31.3234 129.921 29.9753 126.007C29.3145 124.05 28.6008 122.093 28.0457 120.11C27.7813 119.158 27.517 118.206 27.3055 117.228C27.1998 116.778 27.0941 116.302 27.0148 115.853C26.9619 115.615 26.9355 115.403 26.8826 115.165C26.8826 115.165 26.8033 114.715 26.8562 114.953C26.8826 115.139 26.8033 114.663 26.8033 114.61C26.1689 110.722 26.0103 106.756 26.3539 102.815C26.3804 102.339 26.4332 101.863 26.4861 101.387C26.4861 101.255 26.5125 101.097 26.539 100.964C26.539 101.07 26.4861 101.414 26.539 100.964C26.5654 100.7 26.6183 100.435 26.6447 100.171C26.8033 99.1397 26.9883 98.1084 27.1998 97.1035C27.6492 95.0144 28.2307 92.9782 28.9444 90.9684C28.9973 90.8097 29.288 90.0429 29.0766 90.6246C29.1559 90.3866 29.2616 90.1486 29.3409 89.8842C29.5524 89.3553 29.7638 88.8 29.9753 88.2711C30.4247 87.2398 30.874 86.2084 31.3763 85.2035C31.8785 84.1987 32.4336 83.1409 32.9887 82.1096C33.253 81.6071 33.5438 81.1311 33.8346 80.6287C34.1253 80.1262 33.5438 81.0782 33.861 80.5758C33.9139 80.47 33.9932 80.3907 34.046 80.2849C34.2311 79.994 34.4161 79.7031 34.6011 79.3858C35.9492 77.2438 37.4295 75.1547 38.989 73.1449C39.3855 72.616 39.8085 72.0872 40.2314 71.5847C40.4429 71.3467 40.6279 71.0823 40.8394 70.8443C40.9451 70.7121 41.0508 70.6063 41.1566 70.4741C41.2094 70.4212 41.6852 69.8394 41.4473 70.1303C41.183 70.4476 41.6059 69.9452 41.6059 69.9452C41.7117 69.813 41.8174 69.7072 41.9231 69.575C42.1346 69.3105 42.3725 69.0725 42.584 68.8345C43.0862 68.2792 43.5884 67.7238 44.0907 67.1685C46.1524 64.9472 48.32 62.8052 50.5404 60.7425C51.7034 59.6583 52.8929 58.6006 54.1089 57.5692C54.3996 57.3048 54.6904 57.0668 54.9811 56.8023C54.9811 56.8023 55.5362 56.3263 55.2719 56.5643C55.0076 56.8023 55.5891 56.2999 55.5627 56.3263C56.2499 55.7446 56.9108 55.1892 57.598 54.6339C60.2942 52.439 63.2283 50.2177 65.7659 48.0757C66.3474 47.5733 67.114 46.78 66.929 45.9337C66.7704 45.1933 65.8981 45.114 65.3165 45.4577V45.4313Z" fill="black"></path><path d="M449.154 247.492C452.881 247.677 456.634 247.413 460.361 247.149C464.406 246.858 468.45 246.514 472.468 246.17C481.323 245.377 490.178 244.398 499.007 243.261C507.835 242.124 517.51 240.67 526.682 239.03C535.855 237.391 545.424 235.434 554.702 233.212C563.98 230.991 572.941 228.505 581.901 225.596C590.862 222.688 599.162 219.567 607.515 215.839C615.366 212.321 622.714 208.302 629.825 203.674C636.301 199.496 642.486 194.762 647.932 189.288C653.06 184.158 657.474 178.288 660.778 171.809C661.545 170.301 662.206 168.768 662.893 167.207C663.237 166.414 663.58 165.647 663.897 164.827C664.056 164.431 664.188 164.061 664.347 163.664C664.452 163.347 664.585 163.029 664.69 162.712C664.717 162.633 664.743 162.527 664.796 162.447C664.664 162.844 664.928 162.13 664.928 162.077C666.091 158.666 666.937 155.175 667.387 151.605C667.492 150.706 667.651 149.781 667.677 148.855C667.704 148.035 667.519 146.845 667.519 146.29C667.519 145.074 666.171 145.047 665.325 145.444C664.241 145.946 663.21 147.136 663.184 148.379C663.184 148.538 663.104 149.172 663.051 149.41C662.972 149.992 662.866 150.6 662.814 151.209C662.761 152.081 662.734 152.954 662.655 153.827C662.629 154.197 662.576 154.593 662.549 154.964C662.549 155.043 662.47 155.651 662.496 155.44C662.523 155.202 662.496 155.519 662.496 155.545C662.47 155.783 662.417 156.048 662.391 156.286C662.391 156.418 662.391 156.524 662.364 156.656C662.364 156.63 662.417 156.339 662.364 156.577C662.364 156.762 662.311 156.947 662.285 157.132C662.232 157.555 662.153 158.005 662.073 158.428C661.809 160.067 661.439 161.707 661.016 163.32C660.805 164.113 660.567 164.907 660.302 165.7C660.197 166.044 660.065 166.388 659.959 166.731C659.774 167.26 659.774 167.287 659.615 167.657C658.928 169.217 658.241 170.751 657.448 172.232C657.051 172.972 656.628 173.713 656.205 174.453C656.152 174.533 656.1 174.612 656.073 174.691C656.073 174.665 656.232 174.427 656.1 174.638C655.994 174.823 655.862 175.008 655.756 175.194C655.518 175.564 655.28 175.934 655.042 176.331C654.117 177.759 653.139 179.134 652.108 180.482C651.579 181.17 651.024 181.858 650.469 182.545C650.337 182.704 650.231 182.836 650.099 182.995C650.02 183.1 649.941 183.206 649.835 183.286C649.835 183.286 650.073 183.021 649.888 183.206C649.597 183.55 649.28 183.894 648.989 184.238C643.94 189.897 638.865 194.26 632.706 198.517C626.045 203.145 619.199 206.742 611.797 210.259C603.947 213.987 595.832 217.214 587.69 219.99C578.967 222.978 570.086 225.544 561.151 227.818C552.217 230.092 542.833 232.128 533.581 233.874C524.33 235.619 515.21 237.1 505.985 238.396C497.341 239.612 488.671 240.617 479.975 241.463C471.966 242.256 463.956 242.865 455.947 243.499C454.044 243.658 452.167 243.87 450.29 244.16C449.127 244.346 447.092 247.281 449.101 247.387L449.154 247.492Z" fill="black"></path></g><defs><clipPath id="clip0_92_110"><rect width="687" height="379" fill="white"></rect></clipPath></defs></svg> 