<?xml version="1.0" encoding="UTF-8"?> <svg xmlns="http://www.w3.org/2000/svg" width="817" height="296" viewBox="0 0 817 296" fill="none"><mask id="mask0_109_8633" style="mask-type:luminance" maskUnits="userSpaceOnUse" x="0" y="0" width="817" height="296"><path d="M8.55115 160.584C7.27497 178.089 1.25865 193.466 6.7888 210.424C9.40195 218.386 15.2359 223.37 17.1198 232.062C19.0645 240.997 14.9929 251.33 17.1198 260.265C22.4677 282.936 32.9203 276.493 56.1348 277.587C78.8631 278.681 107.729 290.594 129.971 282.45C141.275 278.317 153.307 267.011 164.611 264.58C210.432 254.551 252.06 289.196 297.274 287.495C349.05 285.61 386.06 264.945 441.969 273.576C456.311 275.825 465.73 287.191 482.017 287.251C502.983 287.251 509.242 275.581 526.805 273.636C556.461 270.293 583.626 286.036 611.702 287.373C637.165 288.589 682.257 267.862 697.632 295.457C726.863 296.186 755.304 285.306 785.932 286.4C775.237 286.036 770.375 199.848 808.721 205.562C801.733 200.517 793.346 192.068 787.573 184.896C796.75 181.371 807.324 181.371 816.561 179.79C801.186 162.164 804.285 136.271 798.086 114.998C788.971 83.574 802.401 44.0663 788.971 15.56C751.414 11.67 711.488 6.01733 674.357 19.0245C657.523 24.981 648.833 34.5844 630.967 32.6394C614.011 30.816 591.283 22.489 574.936 15.9854C576.759 16.7148 574.024 35.8608 573.66 37.9882C555.489 36.2255 542.423 18.9029 523.706 15.2561C503.469 11.3053 480.376 10.6367 459.593 7.77998C403.623 0.0607825 346.863 0 290.407 0C239.298 0 189.588 6.50358 138.479 6.50358C119.093 6.50358 99.7683 7.47607 80.4431 8.44857C69.1397 8.9956 25.8101 4.43702 18.0922 11.5484C11.4682 17.6265 -8.95086 72.8765 4.4795 77.739C15.6006 81.8113 25.9316 84.9719 38.5112 84.9719C31.9479 98.3438 18.5783 105.273 4.72259 109.163C8.30807 125.574 9.76657 143.686 8.49038 160.644L8.55115 160.584Z" fill="white"></path></mask><g mask="url(#mask0_109_8633)"><path d="M129.364 49.4756H684.141C722.548 49.4756 753.724 80.6563 753.724 119.07V494.454C753.724 532.867 722.548 564.048 684.141 564.048H129.364C90.9567 564.048 59.7812 532.867 59.7812 494.454V119.131C59.7812 80.7171 90.9567 49.5364 129.364 49.5364V49.4756Z" fill="#210D06"></path><path d="M-49.6672 185.261L-27.5466 210.059L4.115 185.261H-49.6672Z" fill="#1C0D07"></path><path d="M128.999 -31.8496C128.999 -31.8496 93.9952 -17.87 96.9122 -14.8309C99.8292 -11.8526 133.8 2.18779 133.8 2.18779L128.999 -31.8496Z" fill="#1C0D07"></path><path d="M437.533 -31.8496L413.103 -7.29405L425.014 30.2687L465.548 -9.78608L437.533 -31.8496Z" fill="#1C0D07"></path><path d="M855.333 37.8055C855.333 -0.668915 824.218 -31.7888 785.75 -31.7888H437.472L449.079 -6.13921L430.605 21.8809L430.301 -14.4662L412.617 -31.8496H128.999L125.353 -11.1233L93.3267 -31.8496H19.9762C-18.4918 -31.8496 -49.6672 -0.668918 -49.6672 37.7447V185.2L-13.5693 196.809L-49.6672 210.059V379.821L-5.06141 386.689L-49.6672 402.31V561.495C-49.6672 599.97 -18.5525 631.09 19.9154 631.09H289.738L306.086 620.514L320.671 596.323L319.273 615.651L309.246 631.09H741.448L729.719 609.33L755.912 631.09H785.629C804.832 631.09 815.528 607.081 811.213 600.456C811.213 600.456 779.308 588.421 777.728 584.774C777.728 584.774 831.389 592.676 833.577 584.774C835.218 578.879 855.272 567.877 855.272 561.495V407.111L834.367 411.244L819.174 401.641L838.499 402.188L855.272 391.551V241.665L825.98 233.095L855.272 231.819V37.8055H855.333Z" fill="#95522A"></path><path d="M25.9925 65.8254C33.9535 66.6763 35.1689 75.5504 43.6161 75.915C52.124 76.2797 59.4165 70.9918 67.0129 74.1524C78.4378 78.8933 86.5203 83.0264 99.7076 83.0264C109.249 83.0264 118.668 81.9324 128.209 81.8716C133.739 81.8716 143.098 84.1813 148.264 82.4794C153.125 80.8991 150.877 80.1089 152.274 76.0974C154.158 70.6271 157.987 67.4665 162.849 64.549C178.163 55.2495 195.665 57.6807 212.62 60.1728C236.138 63.6373 259.535 68.3782 283.175 71.1133C290.771 72.0251 309.306 73.1799 311.676 61.7531C313.013 55.2495 305.782 54.5201 300.555 55.371C294.053 56.4043 283.722 62.6648 277.341 58.4101C272.358 55.0671 276.125 48.9282 269.38 46.5578C265.004 45.0383 258.684 46.6186 254.066 45.8284C247.806 44.7951 243.37 42.2423 238.265 38.5955C228.907 31.9095 221.553 29.5999 210.25 32.3958C201.863 34.4623 200.344 34.2192 195.665 26.9255C191.411 20.3004 184.24 12.4596 175.793 11.0616C168.136 9.84601 159.385 16.2888 151.424 16.8966C141.032 17.626 131.065 13.7968 120.795 13.3713C114.536 13.0674 101.045 15.9849 99.8899 7.47555C99.2214 2.4915 107.608 -3.34348 102.868 -7.29425C98.553 -10.8803 82.6917 -7.17269 77.7085 -6.68644C70.2945 -6.01785 64.0959 -6.13941 59.0519 -0.182862C54.1294 5.65212 51.1517 9.60289 42.7045 10.5146C35.8982 11.244 29.3957 8.81274 22.8324 8.69117C14.993 8.56961 9.64515 15.4379 1.8057 15.0732C-5.79066 14.7085 -15.0886 11.3048 -22.685 9.9068C-29.1267 8.69117 -35.0215 5.95603 -41.2809 5.409C-46.6895 14.8908 -49.6672 26.0138 -49.6672 37.7445V76.6444C-46.3248 78.5286 -42.1924 79.0757 -37.0269 77.5561C-24.8727 73.9701 -7.7961 45.7676 6.78891 57.1337C9.82746 59.5042 11.2252 64.4274 14.9322 66.0685C18.4569 67.6488 22.407 65.5215 25.9317 65.8862L25.9925 65.8254Z" fill="#98542C"></path><path d="M855.333 161.13C854.117 161.13 852.902 161.069 851.747 161.008C836.555 160.218 824.097 155.903 810.666 149.399C785.264 137.061 761.503 142.774 734.216 139.674C724.797 138.58 717.565 133.292 708.267 130.861C692.831 126.849 675.451 130.922 659.59 129.341C626.713 126.059 590.007 112.566 555.915 123.385C542.727 124.904 540.783 132.38 531.242 137.486C512.585 147.515 483.415 138.033 463.239 144.719C439.478 152.62 420.335 154.687 393.96 154.687C371.171 154.687 351.117 153.593 332.339 165.02C306.632 180.701 273.391 179.486 245.862 192.311C271.325 191.885 297.334 195.593 322.19 192.25C338.416 190.062 353.73 184.348 370.442 184.713C381.381 184.956 390.8 188.299 401.313 189.454C412.556 190.73 424.163 191.642 435.649 191.034C448.958 190.366 467.311 184.956 480.498 188.421C491.862 191.399 490.1 199.726 500.248 204.467C510.701 209.329 530.999 207.749 542.606 208.478C557.13 209.39 571.229 211.457 585.632 212.247C598.576 212.976 610.122 208.661 622.641 208.478C635.099 208.296 637.712 215.894 649.927 217.231C666.031 218.993 685.66 216.501 700.975 211.335C713.797 206.959 724.007 196.869 736.526 193.405C748.437 190.122 762.293 189.697 774.629 188.542C797.904 186.354 820.268 183.133 843.3 179.668C846.886 179.121 850.957 178.756 855.211 178.392V161.13H855.333Z" fill="#98542C"></path><path d="M151.971 228.597C146.197 222.458 124.867 220.392 116.845 217.596C108.58 214.678 76.5539 212.247 68.2891 210.788C48.2954 207.324 52.8533 202.887 32.6165 202.218C15.2361 201.671 -0.807442 198.997 -15.8786 197.599L-49.6672 210.059V241.239C-47.9657 241.118 -46.4464 240.996 -45.231 240.996C-16.9725 240.996 88.465 237.228 116.845 237.228C124.806 233.703 144.86 233.703 151.971 228.536V228.597Z" fill="#98542C"></path><path d="M306.997 301.17C337.018 304.148 367.89 304.756 397.424 310.227C421.672 314.724 444.035 309.072 468.222 303.966C490.525 299.286 514.104 304.635 536.59 298.374C560.229 291.749 579.676 285.853 604.288 283.604C628.05 281.416 652.054 278.681 674.904 274.974C689.428 272.603 707.356 280.322 721.515 274.974C712.096 260.69 674.843 257.469 659.043 253.335C636.558 247.379 614.559 246.103 590.433 246.103C530.209 246.103 470.592 248.595 410.065 248.595C394.386 248.595 377.491 245.191 363.028 249.871H361.812C355.675 250.296 349.294 250.236 342.852 249.871L308.395 254.733L284.937 251.39C276.429 254.673 268.59 259.11 259.231 261.115C244.464 264.215 225.868 265.431 210.979 266.1C198.582 266.647 175.914 264.641 167.832 274.609C186.367 286.583 215.658 286.4 236.685 291.445C247.016 293.876 253.519 300.806 262.938 302.447C276.247 304.756 293.02 299.772 307.119 301.17H306.997Z" fill="#98542C"></path><path d="M394.507 74.8208C409.214 68.7427 425.257 59.4432 441.605 58.7138C459.836 57.8629 479.1 58.8354 496.724 59.6863C515.624 60.598 588.184 48.3202 596.267 37.9875C583.991 35.7993 527.535 41.6343 513.557 40.1756C473.388 36.1032 439.356 34.3406 398.64 32.274C380.53 31.3623 293.081 39.9325 238.144 14.8907C231.884 12.0339 218.697 8.75176 214.261 9.72426C212.377 16.7141 273.755 32.4564 281.048 34.8876C298.307 40.6618 320.306 38.7776 338.294 37.9267C357.072 37.015 378.038 34.7661 395.54 39.8717C422.948 47.834 408.971 60.3549 394.507 74.76V74.8208Z" fill="#884826"></path><path d="M814.069 -25.7713C794.501 -26.3183 779.612 -17.6266 761.138 -10.8799C742.542 -4.13324 723.095 -2.49215 703.831 0.5469C677.76 4.68001 658.8 9.05625 631.331 3.88986C603.984 -1.21575 582.35 -3.09996 555.307 -0.547159C534.219 1.45862 522.187 -24.1302 503.834 -16.0463C478.614 -4.9234 460.687 5.16626 439.538 8.44844L430.727 21.8811L430.605 9.36016C423.677 9.78563 416.324 9.48172 408.12 8.2661C390.192 5.53095 373.845 -3.52543 355.918 -0.729503C316.538 5.47017 301.71 -5.89589 282.689 -0.547159C267.618 3.64674 231.459 -10.9407 226.84 -3.09997C222.829 3.70752 260.811 18.5989 314.229 19.5714C333.919 24.4946 348.929 24.13 369.287 25.4671C401.374 27.5337 494.05 27.5337 513.01 27.5337C544.55 27.5337 605.868 21.1517 637.226 24.3123C683.898 28.9317 736.647 28.9317 783.441 22.0026C806.169 18.5989 826.345 11.0012 847.554 5.71329C840.322 -8.20558 828.533 -19.3285 814.13 -25.7105L814.069 -25.7713Z" fill="#934E29"></path><path d="M434.859 276.554C429.086 276.007 421.733 278.62 422.28 283.787C423.252 293.025 448.593 297.463 446.953 286.34C445.98 281.356 441.969 277.162 434.859 276.493V276.554Z" fill="#824424"></path><path d="M432.914 274.67C438.262 274.305 442.455 276.068 443.367 276.858C440.268 272.421 431.881 271.995 426.169 272.542C422.948 272.846 415.169 274.73 413.346 278.013C410.855 282.51 416.567 286.583 418.573 288.589C420.335 290.412 424.953 294.241 430.666 294.241C424.163 292.6 418.633 286.644 420.76 281.052C421.55 278.864 424.163 275.217 432.975 274.609L432.914 274.67Z" fill="#834728"></path><path d="M449.444 294.301C457.101 294.301 460.444 290.776 468.708 287.129C476.912 283.482 495.508 281.173 495.569 276.432C495.63 271.387 460.687 272.967 451.146 269.199C443.428 266.16 429.025 264.823 418.998 266.403C395.723 270.11 376.458 266.16 373.663 272.967C371.293 278.741 397.971 288.588 414.44 289.986C405.81 283.543 408.606 272.967 419.605 271.205C427.445 269.989 437.229 269.989 444.4 273.271C457.344 279.228 455.46 289.013 449.505 294.241L449.444 294.301Z" fill="#824424"></path><path d="M434.616 286.4L446.345 289.865L436.196 286.157C436.196 286.157 435.224 282.146 435.224 281.052C435.224 279.958 439.964 278.013 439.964 278.013H439.113C439.113 278.013 434.434 279.958 434.677 281.052C434.92 282.146 435.224 285.793 435.224 285.793L434.312 284.638L425.804 283.605L422.28 283.726L433.765 284.942L434.312 285.914L428.174 287.859L434.616 286.34V286.4Z" fill="#70381B"></path><path d="M438.809 285.792C440.085 285.914 441.544 285.61 442.698 285.367C443.731 285.184 445.19 285.002 446.041 284.516C444.825 284.516 443.549 284.698 442.395 285.002C441.301 285.306 439.903 285.67 438.748 285.731L438.809 285.792Z" fill="#70381B"></path><path d="M436.5 290.047C435.831 290.533 435.284 291.992 435.284 292.66C435.953 292.174 436.5 290.715 436.561 290.047H436.5Z" fill="#70381B"></path><path d="M426.169 281.294C425.44 280.504 424.71 279.775 423.799 279.714C424.407 280.261 424.953 280.382 426.169 281.294Z" fill="#70381B"></path><path d="M443.671 291.566C443.185 290.594 439.295 288.588 439.295 288.649C439.721 289.013 443.063 291.445 443.671 291.566Z" fill="#70381B"></path><path d="M432.124 281.295C431.881 280.808 429.633 277.648 429.086 277.344C429.207 278.377 432.124 281.295 432.124 281.295Z" fill="#70381B"></path><path d="M379.011 256.678C355.978 253.822 298.125 254.794 298.125 276.493C298.125 287.373 319.455 289.986 345.343 289.986C386.364 289.986 402.104 301.778 429.147 304.635C448.411 306.64 464.637 302.082 483.354 297.766C492.531 295.639 579.615 285.914 579.615 273.089C579.615 255.037 497.028 256.739 450.963 261.966C436.925 263.547 400.098 259.353 379.071 256.739L379.011 256.678ZM483.415 262.635C527.96 257.347 558.042 262.331 560.108 272.056C562.174 281.781 491.376 291.688 482.078 293.876C463.847 298.07 444.947 302.447 426.837 299.833H426.716C423.191 299.468 375.06 288.649 356.586 287.616C342.244 286.826 317.875 284.881 315.809 276.068C313.743 267.254 339.388 263 348.443 262.149C365.276 260.568 377.977 259.596 394.143 260.872C412.07 262.27 453.151 266.221 483.415 262.635Z" fill="#894824"></path><path d="M452.969 314.238C495.569 314.542 514.469 300.197 536.103 296.246C605.321 283.543 672.899 294.484 672.899 269.928C672.899 250.843 635.95 264.397 574.875 246.771C548.622 239.173 517.568 245.069 488.398 247.925C480.984 248.655 440.207 256.07 425.014 252.849C416.081 250.965 397.424 247.318 375.304 245.251L354.155 248.229C371.414 248.594 391.226 250.296 413.832 253.821C430.119 256.313 444.522 255.888 460.018 254.551C462.51 254.307 547.528 246.102 573.964 250.661C586.543 252.849 641.541 261.662 641.541 273.028C641.541 289.257 600.338 284.455 575.787 286.704C567.036 287.494 530.452 294.788 518.297 298.07C496.541 303.966 476.001 309.497 452.847 310.287C433.279 310.895 353.426 299.042 353.426 299.042C353.426 299.042 253.58 293.207 252.668 280.322C252.121 273.15 264.579 260.082 296.362 253.031L286.821 251.694C267.131 257.286 228.299 269.746 228.299 282.206C229.453 298.009 264.214 297.644 293.567 298.556C386.182 301.413 416.992 313.995 453.09 314.298L452.969 314.238Z" fill="#824424"></path><path d="M855.333 280.14C836.068 282.632 805.318 291.506 753.055 282.267C715.195 275.581 684.931 280.14 647.922 291.931C626.713 298.678 580.831 292.965 553.301 298.739C506.751 308.525 515.32 317.46 461.234 322.018C412.738 326.09 330.333 305.06 228.177 305.06C167.589 305.06 162.605 291.141 119.397 285.549C96.1829 282.571 40.2129 289.196 1.98801 287.069C-24.5081 285.61 -40.2477 283.361 -49.6672 281.052V287.312C2.2311 300.137 81.294 284.638 119.276 293.451C150.937 300.805 189.952 314.177 228.177 314.177C324.134 314.177 401.01 332.837 459.836 329.433C508.574 326.577 519.513 311.685 554.76 305.06C579.433 300.441 629.265 301.535 652.054 294.302C687.666 282.997 714.405 285.489 752.265 290.169C797.6 295.7 834.063 286.036 855.333 283.179V280.079V280.14Z" fill="#8C4A28"></path><path d="M855.333 154.687C777.911 169.457 658.982 123.993 542.97 124.236C471.686 124.358 457.162 140.404 374.331 126.91C314.411 117.185 287.003 135.42 246.105 138.52C225.564 140.039 158.838 137.851 91.3212 134.63C55.1018 132.928 -11.4424 142.774 -49.6672 149.582V157.058C-13.2047 149.521 53.461 137.425 87.4926 138.763C139.209 140.768 225.929 147.515 247.381 146.421C307.119 143.443 324.621 128.126 369.773 134.265C439.964 143.807 496.967 130.132 547.711 130.983C605.078 131.955 643.182 142.166 711.427 151.952C779.977 161.799 812.307 166.357 855.333 158.395V154.748V154.687Z" fill="#824424"></path><path d="M105.238 261.783C115.447 261.479 144.07 260.264 154.705 260.689C188.494 262.087 225.2 262.877 272.418 249.566L268.894 249.08C247.989 252.362 204.173 258.136 167.589 255.523C156.893 254.733 47.4447 251.815 44.163 265.734C40.7599 280.261 136.352 274.426 169.23 284.272C202.836 294.301 223.133 294.301 223.133 294.301C206.725 291.992 188.251 285.427 181.141 282.874C147.474 270.718 104.144 272.177 88.1612 270.657C64.4605 268.408 66.0406 267.132 65.129 265.734C64.6428 265.005 88.8904 262.27 105.177 261.783H105.238Z" fill="#824424"></path><path d="M645.734 170.916C654.85 155.295 620.575 148.245 613.586 161.434C609.636 168.789 617.172 176.69 624.646 179C633.823 181.857 641.358 177.845 645.795 170.916H645.734Z" fill="#824424"></path><path d="M613.586 161.434L617.84 163.561L629.083 166.6L630.906 165.385C630.906 165.385 628.171 170.673 627.199 172.132C626.227 173.651 630.784 179 630.784 179L631.878 179.486C631.878 179.486 627.26 174.077 627.928 172.435C628.597 170.794 632.364 165.385 632.364 165.385H647.314L630.602 164.169L623.553 158.517L629.934 164.656L628.657 165.81L613.647 161.373L613.586 161.434Z" fill="#70381B"></path><path d="M639.961 170.065C638.563 169.093 637.044 167.816 635.342 167.33V167.452C636.618 168.181 638.198 169.457 639.353 170.491C640.568 171.524 642.027 172.557 643.546 173.165C642.817 171.949 641.115 170.855 639.961 170.065Z" fill="#70381B"></path><path d="M635.22 155.234C634.795 156.207 634.613 158.699 635.099 159.732V159.854C635.524 158.76 635.707 156.328 635.22 155.295V155.234Z" fill="#70381B"></path><path d="M612.918 168.303C614.072 168.728 615.409 167.999 616.807 167.27C614.802 167.938 614.012 167.817 612.918 168.303Z" fill="#70381B"></path><path d="M645.005 161.435C644.154 161.313 638.563 163.076 637.773 163.44C637.773 163.44 643.85 162.529 645.005 161.435Z" fill="#70381B"></path><path d="M618.022 174.684C618.873 174.502 623.613 171.037 624.282 170.49C624.282 170.49 618.812 173.225 618.022 174.684Z" fill="#70381B"></path><path d="M167.224 57.6809C197.245 48.7461 232.674 60.3553 255.585 68.8039C285.484 79.8052 353.608 77.1917 340.482 62.4826C332.703 53.7909 253.762 56.283 180.533 22.9749C157.805 12.6422 133.314 14.7695 107.486 16.9576C85.8518 18.8418 63.5489 20.726 41.9752 14.8911C25.0809 10.2717 -5.5476 12.0951 -35.2646 13.797C-38.7893 13.9793 -42.2532 14.2225 -45.6564 14.4048C-46.2033 15.9851 -46.7503 17.6262 -47.1757 19.2673C-43.2255 19.0242 -39.1539 18.8418 -35.0215 18.5987C-7.06687 16.9576 24.5948 15.1342 40.699 19.5712C63.0627 25.6493 85.791 23.7043 107.851 21.8201C133.132 19.632 156.954 17.5654 178.588 27.412C248.718 59.322 326.444 58.3495 327.112 64.4276C328.085 73.1193 287.247 71.1743 260.264 65.2178C230.426 58.6534 192.322 45.0385 161.147 54.2772C113.928 68.3176 47.5662 61.7533 -8.46459 55.3105C-22.685 53.6694 -36.5407 52.0891 -49.728 50.8734V55.6144C-36.7231 56.83 -23.0496 58.4103 -9.01153 59.9906C47.4446 66.4942 119.033 72.0253 167.163 57.7417L167.224 57.6809Z" fill="#824424"></path><path d="M59.7204 49.4754C65.3113 49.2323 71.0845 48.9891 76.7362 48.9891C83.6641 48.9891 90.7743 50.2048 97.7022 51.3596C107.182 52.9399 117.088 54.581 126.447 53.1222C131.552 52.3321 136.656 50.3871 141.64 48.5029C146.927 46.4971 152.335 44.4306 157.561 43.8227C161.876 43.3365 166.677 43.3973 170.992 43.5188C178.71 43.6404 183.146 43.6404 185.151 41.6954C185.759 41.0876 186.124 40.2974 186.124 39.3857C186.124 37.9878 185.455 36.7114 184.179 35.5565C175.063 27.2295 131.065 25.8315 105.967 28.5059C74.3054 31.9097 16.573 23.9473 5.45195 23.5219C-5.97297 23.0964 -28.5797 23.218 -48.5126 25.1022C-48.6949 26.0747 -48.8772 27.1079 -48.9988 28.0804C-36.0546 27.1079 -20.0718 26.9864 -2.87366 28.5059C7.76125 29.4176 37.4174 33.7939 43.1907 34.4625C60.6927 36.4074 74.3661 35.0703 106.271 31.6665C133.435 28.749 174.517 31.0587 182.052 37.927C182.599 38.474 182.903 38.9603 182.903 39.3857C182.234 40.5406 175.428 40.419 170.992 40.3582C166.616 40.2974 161.694 40.1759 157.197 40.7229C151.545 41.3307 145.954 43.5188 140.485 45.5854C135.684 47.4088 130.701 49.293 125.961 50.0224C117.027 51.3596 107.851 49.8401 98.1883 48.2598C91.1389 47.1049 83.9072 45.8893 76.6754 45.8893C70.963 45.8893 36.6882 47.4088 25.3848 45.8893C17.8492 44.856 -5.66912 40.1151 -27.1212 37.5623C-34.4137 36.7114 -42.314 36.7114 -49.6672 36.9545C-49.6672 37.2584 -49.6672 37.6231 -49.6672 37.927V40.3582C-42.1316 40.1151 -34.353 40.1151 -27.4251 40.7229C-17.4587 41.6346 17.4238 48.0166 25.0202 49.0499C36.5666 50.6302 48.3562 50.144 59.7204 49.5969V49.4754Z" fill="#824424"></path><path d="M844.516 0.546855C772.806 16.5931 669.07 27.5944 599.852 23.279C541.755 19.6321 540.843 -8.93499 502.254 15.8637C479.222 30.6335 413.954 25.5279 375.729 25.224C319.273 24.6769 215.78 -18.5992 126.994 -20.4834L125.596 -12.7034C189.466 -13.3112 247.988 18.6596 329.239 27.169C384.176 32.9432 543.274 23.3398 610.001 30.6335C683.351 38.6566 772.381 35.5568 851.869 16.1068C850.046 10.5757 847.554 5.34856 844.516 0.546855Z" fill="#824424"></path><path d="M844.394 0.303691C772.684 16.3499 668.948 27.3513 599.73 23.0358C541.633 19.3889 540.722 -9.11738 502.132 15.6205C479.039 30.3903 413.832 25.2847 375.607 24.9808C319.212 24.4946 215.78 -18.7816 127.054 -20.7266L125.657 -12.9466C189.466 -13.4328 247.989 18.4165 329.118 26.9258C384.055 32.7 543.153 23.0966 609.879 30.3903C683.29 38.4134 772.32 35.3136 851.808 15.8636C849.985 10.3326 847.493 5.16618 844.394 0.303691Z" fill="#884826"></path><path d="M650.596 -21.9423C679.887 -23.3403 695.262 -19.0856 711.974 -16.5936C736.89 -12.9467 782.833 -15.8034 822.213 -21.5169C819.6 -23.0972 816.865 -24.5559 814.069 -25.8323C775.784 -22.307 732.089 -21.5776 711.974 -22.9148C694.898 -24.0697 679.948 -31.3634 650.231 -29.9046C600.156 -27.4734 540.479 -22.5501 540.297 -8.93517C540.053 8.32665 610.305 6.62478 619.116 5.77385C629.508 4.74057 639.292 3.76807 647.861 6.07775C650.9 6.92868 660.197 14.0401 663.236 15.0126C686.086 22.4279 737.316 5.04447 744.122 3.52495C761.32 -0.304261 779.612 -2.55316 798.573 -3.16097C801.49 -3.28254 820.511 -3.28253 840.383 -5.22753C839.836 -5.9569 839.228 -6.68627 838.621 -7.35486C819.66 -5.59221 801.307 -5.59222 798.33 -5.47065C778.883 -4.80206 760.105 -4.3766 742.42 -0.486606C735.249 1.0937 682.804 15.0126 666.396 7.77962C664.208 6.80712 648.651 2.55245 644.154 1.33683C634.188 -1.33754 615.774 1.21526 605.2 2.30932C596.874 3.16026 566.55 -1.51988 563.693 -6.20003C560.837 -10.8802 604.41 -19.5719 650.596 -21.8208V-21.9423Z" fill="#824424"></path><path d="M635.828 -5.34895C642.635 -5.59208 649.745 -5.71364 656.247 -4.37646C663.297 -2.91771 668.705 1.58009 675.755 3.82899C701.582 11.9737 728.443 -3.40396 753.724 -9.11738C730.509 -6.19989 710.88 -8.44879 698.969 -11.0016C687.18 -13.5544 682.075 -18.66 669.252 -18.4777C655.7 -18.2953 647.739 -17.6875 626.166 -14.9524C616.868 -13.7975 582.593 -10.9408 583.991 -6.13911C587.272 0.850715 626.53 -4.98427 635.828 -5.34895Z" fill="#914F2A"></path><path d="M648.833 -8.26671C658.374 -8.14515 663.054 -9.96858 677.396 -5.77469C683.412 -4.01204 688.517 0.121077 694.472 0.121077C708.085 0.181858 722.001 -2.97876 716.775 -4.01204C710.941 -4.37672 698.969 -6.01781 693.439 -7.17265C686.997 -8.50984 680.92 -12.0351 674.357 -13.19C666.396 -14.5879 659.711 -15.3173 651.629 -14.284C647.132 -13.737 618.569 -11.6097 617.84 -9.96858C616.442 -6.80797 643.364 -8.32749 648.833 -8.26671Z" fill="#824424"></path><path d="M495.569 23.765C493.199 27.8981 516.839 21.0906 528.75 22.1847C540.783 23.2787 551.721 27.0471 563.511 23.5826C565.638 20.6651 551.478 21.6376 545.766 19.4495C540.357 17.3829 536.103 13.5537 530.391 12.4597C514.773 9.42063 507.359 22.0023 495.569 23.765Z" fill="#834425"></path><path d="M846.582 3.95043C837.466 6.56401 828.29 9.29916 818.992 11.3049C797.297 15.9851 775.541 18.8418 753.299 21.7593C720.543 26.0747 688.517 27.3511 655.761 29.5393C655.761 34.7057 754.453 26.1355 775.723 25.1022C795.109 24.1905 816.804 18.5379 835.886 13.9185C839.411 13.0676 844.637 12.0951 850.106 11.0618C849.073 8.63057 847.919 6.19933 846.643 3.88965L846.582 3.95043Z" fill="#834425"></path><path d="M138.176 32.9428C126.021 34.1584 114.05 33.1859 102.199 35.5564C96.3044 36.7112 91.0782 37.3798 85.1226 37.4406C79.5317 37.5013 68.8968 37.7445 66.2836 39.5071C64.6428 41.4521 70.8414 41.0267 71.8746 41.2698C82.3271 41.2698 93.2051 40.5404 102.807 43.8226C113.138 47.3479 120.187 46.6793 130.64 42.5462C135.745 40.5404 140.303 38.9601 145.772 38.717C149.965 38.5346 157.561 39.9934 160.965 37.4406C167.467 32.5173 158.352 32.335 153.976 32.335C148.567 32.335 143.402 32.4565 138.176 33.0036V32.9428Z" fill="#935129"></path><path d="M50.2401 41.4526C42.8869 36.347 31.1581 38.1096 22.5286 36.8332C12.623 35.3137 3.1427 31.9707 -6.51987 31.059C-16.7901 30.0865 -27.1212 30.9375 -37.4522 30.4512C-41.4024 30.2689 -45.474 30.2689 -49.2418 30.4512C-49.4241 31.9707 -49.4849 33.4903 -49.5457 35.0706C-44.0763 34.5843 -38.4854 33.9765 -33.016 34.2804C-23.4142 34.7667 -12.9616 35.3745 -3.35978 36.8332C6.36356 38.292 14.5676 42.2427 24.4125 43.2152C31.4619 43.9446 45.6215 48.0169 50.1794 41.4526H50.2401Z" fill="#935129"></path><path d="M293.02 107.157H293.384C293.384 107.157 292.898 106.853 293.02 107.157Z" fill="#8D4C2A"></path><path d="M294.539 107.156H293.384C293.384 107.156 293.992 107.825 294.357 108.372L294.539 107.156Z" fill="#8D4C2A"></path><path d="M713.19 50.266C690.522 48.9896 667.915 47.8347 645.309 46.8015C602.708 44.7957 566.428 59.6263 524.8 65.8259C504.259 68.865 484.144 66.7376 463.968 65.7652C443.732 64.7927 428.417 69.8375 410.125 76.0979C374.635 88.3149 327.477 79.5625 295.451 101.261L294.478 107.157H295.451C307.848 104.057 324.864 105.881 337.565 104.787C351.056 103.571 365.519 103.632 378.524 102.477C387.336 101.687 386.06 96.8243 393.717 93.4205C402.225 89.6521 419.849 86.7954 428.782 84.6681C450.416 79.4409 471.869 77.3743 494.293 76.7058C529.479 75.6117 619.359 55.0069 640.143 57.0127C701.704 62.9692 685.478 81.9937 746.674 67.8317C779.551 60.1733 820.329 45.2819 855.211 50.8738V37.502C836.494 38.4745 814.13 40.8449 800.7 43.5193C770.193 49.5974 744.001 52.0894 713.007 50.3268L713.19 50.266Z" fill="#8D4C2A"></path><path fill-rule="evenodd" clip-rule="evenodd" d="M451.146 102.416C451.571 102.598 452.057 102.659 452.604 102.72L451.146 102.416Z" fill="#8D4C2A"></path><path fill-rule="evenodd" clip-rule="evenodd" d="M855.333 67.1016C847.554 67.8309 839.654 69.2897 832.483 69.2897C811.821 69.2897 792.799 72.1464 772.563 73.9698C754.514 75.6717 736.343 82.0537 718.78 82.2968C701.643 82.54 687.301 75.5501 671.075 73.9698C661.595 72.9973 650.717 73.7875 641.845 75.2462C637.651 75.9148 636.314 77.1304 631.331 77.6167C626.773 78.0422 621.912 77.6167 617.293 77.6167C600.095 77.6167 581.681 80.2303 564.605 85.579C546.252 91.3532 528.507 92.5688 508.452 91.5355C498.304 90.9885 489.188 90.3199 479.222 93.2982C472.537 95.2432 459.167 103.449 452.604 102.78L458.499 104.056C461.598 103.813 465.852 103.631 471.078 103.388C478.492 99.8626 491.984 101.321 501.585 102.111C508.939 101.868 516.9 101.564 525.104 101.261C537.015 99.6802 548.926 96.7019 558.771 93.4198C572.748 88.7396 591.222 87.0378 605.564 86.3084C619.602 85.579 619.299 84.1203 633.64 84.6673C654.242 85.4574 674.478 87.2201 694.472 90.3199C716.167 93.6629 739.26 90.4415 761.198 89.1043C781.071 87.9495 805.44 89.2259 824.279 83.2085C833.941 80.1087 838.864 76.9481 850.046 77.4951C851.808 77.5559 853.57 77.7382 855.333 77.9206V67.1016Z" fill="#8D4C2A"></path><path fill-rule="evenodd" clip-rule="evenodd" d="M462.57 104.907L467.493 106.001C467.797 105.637 468.161 105.333 468.526 105.029L462.57 104.907Z" fill="#8D4C2A"></path><path d="M393.778 101.261C393.778 101.261 424.771 106.245 434.616 104.726C443.914 103.267 460.747 95.9731 469.559 92.6909C478.189 89.4695 483.536 86.5521 493.017 85.6403C511.856 83.7561 531.363 88.2539 549.23 82.7836C583.14 72.4508 641.966 66.6159 668.888 69.1079C661.899 67.3452 644.518 61.4495 637.165 60.9632C619.116 59.8692 593.471 62.4828 577.063 68.6824C559.804 75.186 544.55 77.131 526.076 79.9877C506.508 83.0267 487.79 81.568 468.708 83.4522C450.295 85.2756 411.219 94.9398 393.839 101.261H393.778Z" fill="#9A5932"></path><path d="M855.333 167.33C783.927 172.132 640.812 202.34 613.465 202.279C584.416 202.218 520.911 190.001 521.032 191.156C456.98 181.249 393.596 182.708 331.002 194.742C214.139 217.292 169.776 213.22 99.4645 191.825C56.6211 178.757 47.1408 188.786 17.8492 185.382C1.74495 183.498 -8.95073 175.475 -24.8119 174.502C-32.9552 174.016 -41.3416 176.143 -49.6064 177.237V185.2C-44.7448 182.404 -39.3969 180.216 -31.0106 183.437C-12.1716 190.67 11.3467 193.284 34.5612 192.068C76.6147 189.88 120.734 215.469 162.605 217.231C284.937 222.276 357.619 190.123 480.316 194.438C510.519 195.472 578.825 207.871 609.879 207.871C637.591 207.871 793.468 177.845 855.333 173.408V167.33Z" fill="#824424"></path><path d="M618.144 152.013C603.498 148.366 578.582 145.023 563.754 147.333C553.058 149.035 447.013 174.684 457.344 179.486C470.349 185.504 491.254 170.734 553.727 179.912C570.074 182.343 582.289 185.868 620.332 184.713C613.708 182.161 596.692 178.757 594.93 169.7C592.56 157.423 610.365 155.174 618.144 152.013Z" fill="#824424"></path><path d="M645.005 184.714C632.851 189.029 603.438 191.4 582.229 191.46C611.216 197.356 641.541 193.952 670.164 187.084C684.384 183.68 699.091 178.635 713.433 176.508C728.018 174.32 756.459 172.679 759.011 168.06C761.32 161.495 711.124 159.733 693.986 157.605C673.506 155.052 637.773 143.443 634.735 148.184C634.735 151.041 668.766 155.296 668.766 167.938C668.766 180.58 658.374 180.033 644.944 184.835L645.005 184.714Z" fill="#8D4C2A"></path><path d="M855.333 113.782C844.455 117.246 830.66 121.258 823.367 122.231C791.402 126.424 757.37 130.254 725.465 122.474C711.184 119.009 697.572 113.417 685.843 104.726L629.873 108.312L561.262 106.914C573.174 109.163 588.549 111.655 594.808 112.749C624.16 118.158 653.999 124.054 683.23 130.375C704.439 134.995 781.132 147.029 815.406 147.029C829.201 147.029 843.361 148.062 855.333 145.753V113.782Z" fill="#824424"></path><path d="M585.996 99.3159C606.294 98.7081 625.619 98.1611 641.298 97.6748C626.956 97.8571 605.2 98.3434 585.996 99.3159Z" fill="#824424"></path><path d="M379.436 144.355C354.702 145.814 328.631 146.361 304.87 151.892C285.302 156.45 268.043 160.766 246.408 159.733C199.129 157.362 152.639 153.594 105.663 148.488C84.0894 146.118 64.0958 141.559 41.6106 144.659C18.0923 147.88 -4.39296 154.019 -26.6959 158.456C-40.734 165.507 -17.4587 170.369 -11.8678 170.977C-1.17211 172.01 9.21971 173.53 20.28 173.53C41.0637 173.53 61.6042 168.971 82.1448 170.977C100.923 172.801 117.149 180.884 135.319 185.747C175.124 196.384 221.796 191.886 262.756 189.819C283.904 188.786 304.019 183.316 324.681 181.006C346.012 178.575 368.011 179.73 388.977 176.083C409.578 172.497 428.721 166.905 449.626 164.717C466.095 163.015 490.89 162.832 504.806 154.749C490.1 148.488 470.106 147.455 453.637 145.935C429.147 143.686 404.23 143.018 379.436 144.477V144.355ZM338.294 168.364C319.212 172.253 300.738 176.508 281.352 179.73C261.966 182.951 241.79 183.255 222.222 186.233C203.383 189.09 183.571 191.156 163.821 187.51C140.91 183.255 119.154 176.326 97.0336 168.424C76.8577 161.252 27.8156 166.662 37.6605 155.903C71.5099 138.338 118.668 157.241 151.484 165.932C186.124 175.11 233.282 173.408 270.231 169.701C312.649 165.385 352.271 153.594 396.33 156.147C387.275 166.722 352.575 165.507 338.294 168.424V168.364Z" fill="#8C4A28"></path><path d="M829.505 186.233C808.296 183.194 783.927 198.693 762.414 200.699C708.267 205.805 658.435 220.453 603.255 220.453C494.597 220.453 510.397 194.864 316.538 213.706C303.715 214.922 260.264 221.608 226.476 229.145L298.064 234.25C320.61 226.349 372.387 213.402 461.963 217.779C519.695 220.575 628.779 227.564 686.39 221.669C714.284 218.812 776.695 207.689 803.921 201.307C835.218 193.953 846.46 221.669 849.559 232.123L855.333 231.88V205.379C847.311 195.594 838.438 187.51 829.505 186.233Z" fill="#824424"></path><path d="M788.667 210.363C762.05 214.496 678.003 232.791 678.003 232.791C708.207 235.04 735.128 226.774 764.055 225.072C778.64 224.221 793.954 221.851 808.782 223.431C814.92 224.1 823.064 230.117 829.688 233.034L836.919 232.73C828.776 203.981 812.368 206.716 788.728 210.363H788.667Z" fill="#824424"></path><path d="M96.7298 223.492C100.194 216.442 52.3671 217.232 28.2411 213.767C10.1313 211.154 -25.055 198.45 -43.2863 212.187C-45.1094 212.977 -47.9049 214.497 -49.6064 216.016V219.906C-49.6064 219.906 -49.6064 219.906 -49.5457 219.906C-46.021 222.945 -24.4473 223.492 -11.7462 225.437C0.772614 227.382 12.6229 224.89 25.3241 225.012C47.8093 225.316 91.5035 233.764 96.7298 223.431V223.492Z" fill="#824424"></path><path d="M34.0143 243.124C31.7658 242.09 5.63427 232.001 -26.9997 231.818C-33.9883 231.818 -42.557 230.846 -49.6672 228.293V237.41C-47.2972 237.592 -45.0486 237.775 -43.1648 238.018C-34.5353 239.234 -25.7843 240.753 -17.0333 241.665C-9.07229 242.516 -0.746678 243.002 7.45739 243.002C15.6615 243.002 26.4179 245.919 34.0143 243.002V243.124Z" fill="#824424"></path><path d="M123.287 224.464C130.215 228.962 113.442 235.587 103.84 237.714C97.8237 239.052 86.2772 238.626 84.0287 246.467C90.1058 245.494 96.4259 245.373 102.442 244.036C108.459 242.759 135.38 234.493 143.22 232.852C148.02 231.879 164.611 232.548 164.611 228.536C164.611 224.525 141.7 219.48 136.96 218.508C119.701 214.982 109.309 215.955 92.2935 211.639C83.4817 209.39 54.4333 199.909 32.1303 198.389C22.4678 197.72 -2.14444 198.146 -19.8288 194.742L-13.5086 196.748L-22.5027 200.03C-7.73536 200.76 22.8324 203.191 33.1027 205.257C41.6106 206.959 109.431 215.347 123.347 224.403L123.287 224.464Z" fill="#824424"></path><path d="M215.962 130.679C242.519 131.834 271.507 125.877 295.998 116.031C302.561 113.356 309.549 110.682 316.599 108.737C304.749 108.251 292.898 107.765 280.987 107.886C280.562 107.886 280.136 107.886 279.711 107.886C277.949 109.162 276.186 110.439 274.302 111.168C270.595 112.688 266.098 113.417 262.027 114.025C239.481 117.429 216.57 116.942 193.659 115.484C180.411 114.694 167.589 113.052 154.219 113.052C135.562 113.052 117.027 114.754 98.4922 116.578C86.0341 117.793 74.123 115.97 61.4827 115.97C42.5222 115.97 24.1086 117.489 5.3304 119.434C-10.1054 121.015 -25.4197 125.817 -40.9162 125.817C-43.8333 125.817 -46.7503 125.817 -49.728 125.756V136.271C-47.7834 135.845 -46.021 135.481 -44.5625 135.055C-32.4691 131.651 -20.2541 129.767 -7.67458 129.767C29.8818 129.767 66.8913 124.601 104.205 121.44C142.126 118.219 178.467 129.159 215.901 130.801L215.962 130.679Z" fill="#824424"></path><path d="M855.333 247.925C839.532 247.257 822.517 248.898 807.932 248.898C784.352 248.898 760.47 250.114 736.951 248.898C717.322 247.865 697.572 246.953 679.948 239.902C661.96 232.669 643.668 234.797 622.702 234.797C623.249 235.101 626.774 236.924 627.867 237.41C644.701 244.947 664.451 245.129 682.379 253.7C701.886 262.999 718.538 264.519 740.658 265.552C762.353 266.585 782.712 271.812 805.258 270.658C821.666 269.807 838.439 269.563 855.211 269.442V247.925H855.333Z" fill="#894824"></path><path d="M53.6432 278.377C39.0582 278.377 13.3521 280.748 3.20341 269.382C12.5014 258.259 43.8591 243.914 57.7757 245.008C41.6106 237.411 8.61202 250.114 -8.09997 253.7C-18.3702 255.888 -35.3253 256.678 -49.728 259.778V271.752C-46.4464 271.752 -43.104 271.752 -39.7616 271.995C-28.6405 272.542 -19.1603 275.885 -8.09997 277.101C12.6229 279.41 32.5557 282.632 53.5825 278.377H53.6432Z" fill="#824424"></path><path opacity="0.75" d="M169.533 235.526C77.2224 236.317 -10.8954 238.809 -49.6064 240.024V243.61C-18.4918 243.549 44.71 243.185 118.547 242.699L169.594 235.526H169.533Z" fill="#783F25"></path><path opacity="0.75" d="M855.333 231.88L610.851 230.421C610.851 230.421 445.494 233.885 307.666 234.979L389.767 240.814C449.322 240.389 497.635 240.024 520.728 239.903C596.51 239.416 753.967 237.228 833.273 235.283L826.102 233.156L855.393 231.88H855.333Z" fill="#783F25"></path><path d="M826.041 233.156H827.743C742.36 235.527 534.28 241.422 381.745 244.401L308.334 254.734L248.171 246.163C246.469 246.163 244.768 246.163 243.127 246.163C131.369 246.103 -0.807465 243.489 -49.728 243.915V251.147C79.5924 251.634 481.835 257.104 519.574 256.861C603.255 256.314 787.452 244.826 855.211 241.726L826.041 233.156Z" fill="#9F5B36"></path><path d="M826.041 233.156L843.057 232.427L383.021 240.328L401.313 241.605L370.928 245.92L839.289 237.046L826.041 233.156Z" fill="#703D25"></path><path d="M226.293 243.064L106.392 244.401L123.591 241.97L-49.6672 242.76V246.103L248.232 246.164L226.293 243.064Z" fill="#703D25"></path><path d="M855.333 98.708C821.787 99.3158 786.54 99.9844 750.381 100.592L629.873 108.311L473.874 105.09C364.365 106.67 267.435 107.764 209.034 107.764C123.773 107.764 30.4288 106.974 -49.6672 106.366V112.87C176.887 113.174 525.043 116.942 614.741 116.578C673.081 116.335 764.602 111.229 855.333 109.102V98.708Z" fill="#9F5B36"></path><path d="M855.333 96.7627L711.61 98.4646L751.232 100.592L704.925 103.57L855.333 101.625V96.7627Z" fill="#703D25"></path><path d="M515.259 106.001L452.604 104.725C452.604 103.813 501.889 101.99 554.395 100.349L360.658 102.598L-49.6672 103.874V107.764H373.845L515.259 106.001Z" fill="#703D25"></path><path opacity="0.75" d="M855.333 92.448L748.619 92.0225C748.619 92.0225 431.456 96.5203 220.095 96.885C220.459 89.9559 216.752 88.3149 207.029 88.3756C197.306 88.4364 193.112 91.1108 197.549 96.885H187.096C106.271 96.885 22.6501 97.6143 -49.6064 98.6476V104.665C119.64 103.936 356.829 102.781 503.712 102.051C570.196 99.6201 678.064 96.7026 678.064 96.7026L750.928 100.593C784.535 100.289 820.025 99.9848 855.394 99.6201V92.5087L855.333 92.448Z" fill="#783F25"></path><path d="M218.636 91.0499C216.509 88.7402 211.404 88.3147 206.968 88.3755C197.245 88.4363 193.052 91.1107 197.488 96.8849H178.041C182.903 97.3103 186.671 97.5535 191.715 97.7966C194.996 97.9789 202.35 100.106 202.167 95.73C202.167 94.5144 199.433 93.2988 200.223 92.3871C203.383 88.7402 213.835 89.7127 218.636 91.0499Z" fill="#703D25"></path><path d="M124.867 88.4965C164.611 85.6398 194.267 64.4272 229.453 73.9698C241.668 77.252 262.634 88.8612 304.992 83.9379C347.288 79.0147 401.739 75.8541 401.374 56.2218C401.07 36.5895 337.869 48.4418 313.864 47.7124C281.352 46.6791 197.853 9.90658 172.39 2.06582C136.596 -8.93555 110.889 -4.07307 92.2328 -1.21635C46.8977 5.83425 49.0247 -9.17868 7.76125 -8.93555C-7.67455 -8.81399 -20.011 -5.53181 -34.6568 -5.41025C-35.7507 -4.01228 -36.8446 -2.61432 -37.8169 -1.15557C-25.2981 -0.912448 -9.98384 -1.52026 4.35809 -3.34369C34.6828 -7.1729 43.6769 11.183 91.3212 8.14393C101.166 7.53612 130.458 0.667858 170.566 11.3045C196.09 18.112 257.773 44.3087 313.803 53.4258C326.748 55.5532 380.226 49.1104 382.353 57.0727C386.242 71.6602 335.985 75.1247 309.549 77.6775C258.867 82.6008 239.785 71.1131 223.255 66.5546C196.819 59.2 143.402 87.0378 110.039 83.5125C76.6754 79.9872 54.9802 72.1464 31.4011 71.8425C9.46284 71.5994 -10.8954 79.197 -26.1489 78.65C-28.3974 78.5892 -38.5462 77.4951 -49.6672 76.3403V83.2693C-41.2809 83.5733 -34.0491 83.8164 -32.0437 83.8772C-15.8786 84.485 23.1363 78.2245 27.451 77.6167C43.4338 75.307 85.1226 91.2925 124.867 88.4357V88.4965Z" fill="#824424"></path><path d="M318.422 -0.425794C338.173 -4.68047 401.131 17.1399 430.544 8.02277L430.423 -6.44312C418.937 -3.52563 406.965 -1.39829 396.452 -2.85704C380.53 -5.10594 365.884 -9.36061 350.145 -11.6095C333.615 -13.9192 319.03 -8.87436 303.837 -8.99593C291.561 -9.11749 272.236 -17.9307 261.115 -23.8873C253.276 -28.0204 246.712 -30.4516 239.542 -31.8496H222.586C256.861 -15.6211 285.606 6.62481 318.483 -0.425794H318.422Z" fill="#8D4C29"></path><path d="M449.809 -11.7919C448.836 -11.5487 447.864 -11.2448 446.892 -10.9409L449.079 -6.13921L443.61 2.12701C482.807 -15.1348 548.683 -25.4676 559.379 -27.2302C564.909 -28.142 571.837 -29.9046 579.129 -31.8496H533.733C504.138 -24.9813 462.814 -15.4387 449.87 -11.7919H449.809Z" fill="#8D4C29"></path><path style="mix-blend-mode:multiply" d="M847.068 269.138C846.156 259.049 845.67 248.898 845.306 238.748L826.102 233.095L845.062 232.305C844.576 216.016 844.516 199.726 844.516 183.498C844.516 149.4 843.239 115.362 841.963 81.264C840.93 54.8242 847.311 14.6479 835.643 -10.6978C823.003 -23.7049 805.318 -31.8496 785.75 -31.8496H437.472L449.079 -6.2L430.605 21.8201L430.301 -14.527L412.617 -31.8496H128.999L125.353 -11.1233L93.3267 -31.8496H25.8102C10.2529 -23.9481 -3.96753 -13.2506 -16.2433 1.33686C-37.1484 26.1963 -45.8994 57.1339 -49.6672 89.591V185.2L-13.5693 196.809L-49.6672 210.059V379.821L-5.06141 386.689L-45.474 400.851C-39.5185 421.881 -33.8668 442.911 -33.7453 464.549C-33.563 508.312 -51.2473 543.2 -34.1707 587.753C11.8329 594.986 53.3394 621.729 101.288 631.15H289.799L306.146 620.574L320.731 596.384L319.334 615.712L309.306 631.15H606.598C630.724 629.631 654.85 627.139 678.793 623.31C685.964 622.155 692.71 621 699.212 619.906C710.82 617.961 721.698 616.259 733.001 615.226L729.841 609.391L736.526 614.922C745.094 614.314 753.967 614.132 763.63 614.618C776.27 615.287 793.59 617.475 808.965 615.773C812.307 609.634 813.34 603.373 811.456 600.456C811.456 600.456 779.551 588.421 777.971 584.774C777.971 584.774 831.632 592.676 833.82 584.774C834.124 583.62 835.218 582.222 836.676 580.763C831.024 569.093 821.058 556.815 821.909 545.935C822.577 537.244 834.61 525.027 837.405 515.909C841.599 502.112 841.659 486.917 839.411 472.816C838.499 467.224 837.405 462.24 836.008 457.803C837.588 442.851 840.201 424.92 842.571 409.664L834.61 411.244L819.417 401.641L838.742 402.188L844.333 398.663C845.853 389.181 847.068 381.705 847.554 378.362C853.327 336.97 851.018 310.652 847.25 269.138H847.068ZM736.222 367.482C732.636 368.333 689.55 371.433 690.704 373.256C703.709 393.314 740.901 389.485 740.901 415.013C740.901 441.574 693.561 432.883 693.804 459.93C701.947 462.544 729.233 479.258 733.973 485.884C752.083 511.108 724.554 536.757 700.428 536.818C674.722 536.879 649.745 534.265 623.796 536.757C599.852 539.067 576.212 548.306 550.81 547.333C541.694 546.969 532.396 543.93 523.038 543.443C510.033 542.714 511.673 545.267 502.132 549.157C489.067 554.445 477.52 553.958 462.145 552.56C450.903 551.527 431.76 550.798 422.462 543.443C408.302 532.199 413.468 516.517 391.165 526.911C380.287 531.956 371.84 543.504 361.326 549.157C346.62 556.997 314.229 555.6 296.909 555.843C273.573 556.207 250.602 550.251 227.326 549.157C211.648 548.427 203.565 544.902 192.201 539.006C180.047 532.685 169.898 528.126 156.042 528.248C141.032 528.309 133.375 537.061 121.281 538.763C113.867 539.796 94.9067 533.414 84.6972 531.713C74.3054 530.011 54.7371 526.546 51.5771 514.329C48.2954 501.565 65.3113 494.089 48.5385 482.541C37.2959 474.821 10.1313 481.386 19.8547 455.25C23.9263 444.249 38.2682 446.315 36.3236 432.153C35.8982 429.053 20.7662 411.731 19.2469 417.323C23.1971 402.978 24.9594 387.844 29.0311 373.378C34.9258 352.348 85.3049 356.724 103.962 355.934C104.083 357.089 104.144 358.183 104.205 359.277C130.397 345.054 165.522 351.922 192.566 357.818C223.802 364.625 252.364 366.57 284.755 368.151C299.522 368.88 313.135 369.245 328.267 368.151C343.885 367.057 355.067 359.033 370.016 357.696C398.153 355.265 429.572 363.349 458.742 364.686C481.045 365.659 502.983 366.327 525.225 366.449C545.644 366.51 563.754 371.494 582.654 374.776C609.393 379.456 601.432 357.149 618.812 347.303C632.182 339.766 741.57 337.031 748.862 360.492C749.591 362.802 746.188 365.233 736.343 367.604L736.222 367.482ZM783.38 150.25C782.651 152.621 781.071 154.87 778.336 156.936C768.977 164.109 735.614 166.236 723.703 168.181C704.256 171.281 679.401 172.557 665.241 188.239C668.948 184.166 707.356 183.315 714.466 182.161C732.576 179.182 749.47 177.663 767.762 179.122C818.992 183.255 767.215 204.285 763.083 227.017C759.558 246.467 776.817 257.833 755.122 269.807C733.487 281.72 704.56 274.062 681.467 274.122C668.158 274.122 656.369 267.74 643.303 266.889C628.475 265.917 615.956 274.062 601.432 274.122C588.549 274.183 577.853 268.591 564.909 267.193C537.744 264.215 509.182 270.658 483.172 265.431C469.377 262.635 459.532 255.888 444.886 255.037C428.113 254.004 418.269 259.656 403.197 264.154C387.701 268.774 376.337 262.999 361.387 263.668C347.592 264.276 333.615 272.177 319.577 274.122C301.163 276.675 291.136 264.093 272.722 261.966C250.602 259.413 230.243 256.253 208.427 253.274C186.914 250.357 166.92 250.114 147.413 258.502C131.187 265.491 116.541 266.282 100.376 269.868C100.315 269.685 100.255 269.442 100.133 269.26C86.8242 268.895 71.753 269.625 67.0736 255.341C59.2342 255.159 42.7045 256.921 36.0805 253.274C26.5394 248.047 27.6941 239.538 26.9648 227.199C26.0533 210.788 26.4179 199.605 22.5286 183.437C18.7608 167.999 13.2306 149.096 16.8769 133.171C21.1308 114.694 48.7208 106.184 46.1684 83.0266C34.3789 71.9037 19.7331 72.6938 17.3023 57.0123C15.2968 43.8836 25.0202 34.0979 35.9589 28.8099C49.3893 22.3063 66.8913 22.8534 81.294 21.4554C106.332 19.0242 129.546 9.42074 154.827 12.5814C181.019 15.8635 209.885 27.2904 236.503 20.5437C265.491 13.1892 291.197 9.90699 321.339 11.4265C352.332 13.0068 382.353 10.454 413.528 13.0676C432.185 14.6479 446.649 20.8476 463.908 27.1688C477.946 32.3352 492.105 38.3525 507.48 39.325C532.032 40.8446 549.473 44.3699 572.809 50.3872C590.311 54.885 581.195 51.4205 592.863 46.3149C604.774 41.0877 606.476 41.27 622.337 42.7896C639.353 44.4306 658.557 42.1817 673.202 36.2252C691.981 28.6276 697.45 20.1182 719.753 20.1182C741.144 20.1182 773.11 14.2832 783.502 35.6174C795.899 61.2062 778.761 88.4361 775.358 113.964C773.657 126.728 786.905 139.675 783.562 150.25H783.38Z" fill="url(#paint0_radial_109_8633)"></path><path opacity="0.6" d="M606.841 38.0486C455.704 30.0862 84.9404 38.0486 57.6542 46.8618C30.4289 55.7358 16.9377 173.773 16.9377 173.773C16.9377 173.773 43.3731 76.4622 70.8415 61.3277C98.2492 46.1932 606.841 38.0486 606.841 38.0486Z" fill="#824216"></path><g style="mix-blend-mode:multiply" opacity="0.6"><path d="M758.889 98.222L674.235 76.0977L421.064 98.222L674.235 89.4087L758.889 98.222Z" fill="#B09C8A"></path></g></g><defs><radialGradient id="paint0_radial_109_8633" cx="0" cy="0" r="1" gradientUnits="userSpaceOnUse" gradientTransform="translate(400.584 299.65) scale(395.315 395.381)"><stop stop-color="white"></stop><stop offset="1" stop-color="#C6BDA6"></stop></radialGradient></defs></svg> 