<?xml version="1.0" encoding="UTF-8"?>
<svg xmlns="http://www.w3.org/2000/svg" xmlns:xlink="http://www.w3.org/1999/xlink" version="1.1" viewBox="0 0 270 489">
  <!-- Generator: Adobe Illustrator 29.3.1, SVG Export Plug-In . SVG Version: 2.1.0 Build 151)  -->
  <defs>
    <style>
      .st0 {
        fill: none;
      }

      .st1 {
        fill: #4d1d0c;
      }

      .st2 {
        opacity: .5;
      }

      .st2, .st3, .st4 {
        mix-blend-mode: multiply;
      }

      .st3 {
        opacity: .6;
      }

      .st5 {
        fill: #379c43;
      }

      .st6 {
        fill: #9b5826;
      }

      .st7 {
        isolation: isolate;
      }

      .st8 {
        fill: #a6a6a6;
      }

      .st9 {
        clip-path: url(#clippath-1);
      }

      .st10 {
        mix-blend-mode: screen;
      }

      .st11 {
        fill: #c28848;
      }

      .st12 {
        clip-path: url(#clippath);
      }
    </style>
    <clipPath id="clippath">
      <rect class="st0" width="270" height="481"/>
    </clipPath>
    <clipPath id="clippath-1">
      <rect class="st0" x="134" y="454" width="52.9" height="34.6"/>
    </clipPath>
  </defs>
  <g class="st7">
    <g id="_Слой_1" data-name="Слой_1">
      <g class="st12">
        <g>
          <path class="st11" d="M143.4,469.6c.7,4.6,2.2,8.6,6,10.3,5.3,2.2,24,1.5,25.6-4.8.8-2.9-8.7-103.5-9.4-122.9-2.1-60.1-6.1-121-8.7-181.2-.9-21.9-6.6-113.2-8.1-135.1-.4-5.5-.8-10.9-1.1-16.4-.3-4,.5-9.8-.7-13.5-2-6.3-7.9-6.3-13.1-5.7-4.2.4-8.2,1.7-12.1,3.3-7.1,2.9-20.2,7.8-21.8,16.2-1.3,6.9,3.5,84.6,4.3,91.5,1.1,10.2,2.3,20.4,3.4,30.6,2.5,22,4.9,44,7.4,66,1.7,15,3.4,29.9,5.1,44.9,4.3,38.2,8.7,76.5,12.9,114.7,2.2,19.3,4.3,38.6,6.4,58,1,9.7,1,18,2,27.7.4,3.9,1.1,11.2,1.8,16.5h0Z"/>
          <g class="st10">
            <path class="st11" d="M111.1,18.7c8.7-1.5,17.1-5.2,24.4-10.2,2.9-2,5.8-4.4,8.3-7-2.7-1.8-6.4-1.7-9.9-1.3-4.2.4-8.2,1.7-12.1,3.3-6.9,2.9-19.6,7.6-21.7,15.7,3.7.2,7.2,0,10.9-.6Z"/>
          </g>
          <g class="st4">
            <path class="st11" d="M110.5,8.7c.2-.1.4-.2.6-.3-.2.1-.4.2-.6.3Z"/>
          </g>
          <g class="st4">
            <path class="st11" d="M115.3,6.3c.1,0,.3-.1.4-.2-.1,0-.3.1-.4.2Z"/>
          </g>
          <g class="st4">
            <path class="st11" d="M116.9,5.6c.1,0,.2-.1.4-.2-.1,0-.2.1-.4.2Z"/>
          </g>
          <g class="st4">
            <path class="st11" d="M118.4,5c.1,0,.2,0,.3-.1-.1,0-.2,0-.3.1Z"/>
          </g>
          <g class="st4">
            <path class="st11" d="M119.9,4.4s0,0,0,0c0,0,0,0,0,0Z"/>
          </g>
          <g class="st3">
            <path class="st11" d="M175,472.3c-2.1-.6-4.2-1.4-6.2-2.3-4-1.8-8.3-4.1-11.1-7.6-2.9-3.6-4.1-8.1-5.1-12.6-2.3-10.9-4.6-21.6-4.9-32.7-.1-5.7.2-11.5,1.1-17.1.6-3.8.9-7.8,2.6-11.3,1.8-3.8,5-6,8.5-8.1,2.5-1.4,4.8-3.1,7.2-4.7-.8-10.7-1.5-19.3-1.6-23.8-.9-26.1-2.2-52.4-3.6-78.6-4.4,1.5-8.8,3-13.3,4.4-1.8.6-3.6,1-5.4,1.8-1.3.5-2.5,1-3.8,1.4-2.2.7-5.3,1.7-7.2,0-2-1.8-1.3-4.8-.3-7,1.3-2.6,3.2-5.1,5.3-7.1,2.7-2.6,6.6-3.7,10.1-4.9,3.2-1.2,6.4-2.6,9.6-3.8,1.2-.5,2.6-1.1,4.1-1.5-1.5-28.6-3-57.2-4.2-85.7-.6-13.4-2.9-52.7-5-86.3-9.1,1.8-18.6,2-27.5-.8-1.9-.6-4.5-1.8-5.3-3.7-.5-1.2-.7-2.5-1.1-3.7-.3-1.1-.6-2.2-.8-3.3-.8-5.2-.2-10.7.3-15.9.6-5.4,1.3-10.8,1.9-16.3.5-5.4.7-10.7.6-16.1,0-2.8-.1-5.7-.2-8.5-2.9,1-5.8,1.8-8.8,2.3-3.7.6-7.2.8-10.9.6,0,.2-.1.3-.1.5-1.3,6.9,3.5,84.6,4.3,91.5,1.1,10.2,2.3,20.4,3.4,30.6,2.5,22,4.9,44,7.4,66,1.7,15,3.4,29.9,5.1,44.9,4.3,38.2,8.7,76.5,12.9,114.7,2.2,19.3,4.3,38.6,6.4,58,1,9.7,1,18,2,27.7.4,3.9,1.1,11.2,1.8,16.5.7,4.6,2.2,8.6,6,10.3,5.3,2.2,24,1.5,25.6-4.8,0-.2,0-1.2,0-2.8h0Z"/>
          </g>
          <g class="st4">
            <path class="st11" d="M104,13.2c-.1.1-.2.2-.4.3.1-.1.2-.2.4-.3Z"/>
          </g>
          <g class="st4">
            <path class="st11" d="M102.6,14.7c.1-.1.2-.2.3-.3-.1.1-.2.2-.3.3Z"/>
          </g>
          <g class="st4">
            <path class="st11" d="M101.7,16c0-.1.2-.3.3-.4-.1.1-.2.3-.3.4Z"/>
          </g>
          <g class="st4">
            <path class="st11" d="M101,17.2c0-.1.1-.3.2-.4,0,.1-.2.3-.2.4Z"/>
          </g>
          <g class="st4">
            <path class="st11" d="M100.4,18.5c0-.1,0-.2.1-.4,0,.1-.1.2-.1.4Z"/>
          </g>
          <g class="st4">
            <path class="st11" d="M107.6,10.4c.1-.1.3-.2.4-.3-.2.1-.3.2-.4.3Z"/>
          </g>
          <g class="st4">
            <path class="st11" d="M109.1,9.5c.2-.1.3-.2.5-.3-.2.1-.3.2-.5.3Z"/>
          </g>
          <g class="st4">
            <path class="st11" d="M106.2,11.4c.1-.1.3-.2.4-.3-.1.1-.3.2-.4.3Z"/>
          </g>
          <g class="st10">
            <path class="st6" d="M120.8,24.1c.6,27,3.4,53.7,8.3,80.3-7.8-25.9-10.6-53.4-8.3-80.3Z"/>
            <path class="st6" d="M127.7,49.5c2.6,7.4,3.7,15.3,3.3,23.1-2.6-7.4-3.7-15.3-3.3-23.1Z"/>
            <path class="st6" d="M133,49c2.7,6.4,3.7,13.6,2.7,20.6-2-6.7-2.9-13.6-2.7-20.6Z"/>
            <path class="st6" d="M141.5,14.7c3.4,21.3,5.2,42.8,5.6,64.3-3.4-21.3-5.2-42.7-5.6-64.3Z"/>
            <path class="st6" d="M133.2,24.1c2,6.1,2.5,12.5,1.5,18.8-2-6-2.5-12.6-1.5-18.8Z"/>
            <path class="st6" d="M138.9,261.9c3.1,8.4,4.3,17.6,3.2,26.5-1.9-8.7-3-17.5-3.2-26.5Z"/>
            <path class="st6" d="M144.7,264.2c1.8,2.2,2.3,5.3,1.2,7.9-1.8-2.2-2.3-5.3-1.2-7.9Z"/>
            <path class="st6" d="M147.5,384.7c5.8,28.6,10.1,57.4,12.9,86.4-5.8-28.6-10.1-57.4-12.9-86.4Z"/>
            <path class="st6" d="M160.3,418.7c2.7,8.3,4,17,3.8,25.7-2.7-8.3-4-17-3.8-25.7Z"/>
            <path class="st6" d="M157.7,387.2c2.4,5.9,3.2,12.5,2.1,18.8-1.9-6.1-2.6-12.4-2.1-18.8Z"/>
          </g>
          <path class="st6" d="M4.1,115.2s57.6-23.5,81.5-24.3c23.9-.9,41.1,2.8,68.7-2.5,27.6-5.3,80.6-4.5,89.8-2.5s14.2,4.4,15.6,7.2c1.4,2.7-234.5,35.5-237.7,35.2-3.2-.3-17.9-13.1-17.9-13.1h0Z"/>
          <g class="st10">
            <path class="st6" d="M4.1,115.2s57.6-23.5,81.5-24.3c23.9-.9,41.1,2.8,68.7-2.5,27.6-5.3,80.6-4.5,89.8-2.5s14.2,4.4,15.6,7.2c1.4,2.7-234.5,35.5-237.7,35.2-3.2-.3-17.9-13.1-17.9-13.1h0Z"/>
          </g>
          <path class="st6" d="M18,124.7l-14-9.5s-6.1,7.3-3.4,16c2.7,8.7,3.4,9.3,4.2,12.8.8,3.5,6.6,5.5,6.6,5.5,0,0-6.4,4.1-5.4,5.6,1,1.5,2.7,15.6,3.8,17.9,1.1,2.3,6.5,3.1,6.9,3.8.4.8-4.9,2.7-4.2,4.2.7,1.5-.5,8.8,1.5,8.9,2,.1,5.8.8,5.3,2.3-.6,1.5-4.9,4.6-3.3,10.4,1.6,5.7,6.4,58.6,7.7,62.3,1.3,3.8.6,3.2,2.7,5.1,2.1,1.8,20.4,6.1,20.4,6.1,0,0-.8-77.7-6.8-105.3-6-27.6-22-46.1-22-46.1h0Z"/>
          <g class="st4">
            <path class="st6" d="M18,124.7l-14-9.5s-6.1,7.3-3.4,16c2.7,8.7,3.4,9.3,4.2,12.8.8,3.5,6.6,5.5,6.6,5.5,0,0-6.4,4.1-5.4,5.6,1,1.5,2.7,15.6,3.8,17.9,1.1,2.3,6.5,3.1,6.9,3.8.4.8-4.9,2.7-4.2,4.2.7,1.5-.5,8.8,1.5,8.9,2,.1,5.8.8,5.3,2.3-.6,1.5-4.9,4.6-3.3,10.4,1.6,5.7,6.4,58.6,7.7,62.3,1.3,3.8.6,3.2,2.7,5.1,2.1,1.8,20.4,6.1,20.4,6.1,0,0-.8-77.7-6.8-105.3-6-27.6-22-46.1-22-46.1h0Z"/>
          </g>
          <g class="st4">
            <path class="st6" d="M12,174.4c-.4-.2-.9-.4-1.4-.6,1.2,1.2,3.7,1.9,5.2,2.4-1.2-.6-2.5-1.2-3.7-1.8Z"/>
          </g>
          <g class="st4">
            <path class="st6" d="M19.1,154.6c5.2.4,10.3,1.3,15.3,2.7.6.1,1.2.2,1.8.4-.8-2.2-1.6-4.3-2.5-6.3-1,0-2,.1-2.9,0-1.5,0-3-.3-4.5-.5-2.8-.5-5.6-1.1-8.4-1.6-2.6-.5-5.3-.9-7.9-1.1-.6,0-1.1-.1-1.7-.2,1.6,1,3,1.5,3,1.5,0,0-4.3,2.7-5.3,4.6,4.3-.2,8.7.1,13,.5h0Z"/>
          </g>
          <g class="st4">
            <path class="st6" d="M42.2,197.2c.3,0,.7,0,1,0,0,0,.1,0,.2,0-.3-3.6-.6-7-1-10.3-2.9-.4-5.6-1.7-8.3-2.9-2.9-1.2-5.9-2.1-8.9-3.3-2.9-1.2-5.7-2.6-8.5-4.1,0,0,0,0,0,0,.3.6-2.3,1.7-3.6,2.8,1.4.7,2.7,1.8,4,2.7,2.4,1.7,4.9,3.2,7.5,4.8,5.1,3,10.3,5.9,15.1,9.4.5,0,.9,0,1.4,0,.6,0,1,.3,1,.8h0Z"/>
          </g>
          <g class="st4">
            <path class="st6" d="M16.2,197.4c3.9,1.2,7.7,2.8,11.4,4.6,4.4,2,8.5,4.4,12.6,6.8.1,0,.3,0,.4,0,.4.2.9.5,1.3.7.5.2.9.4,1.4.6.4.2.8.4,1.2.7-.2-3.4-.4-6.7-.7-9.9-.3,0-.5-.2-.8-.2-1.1-.3-2.2-.7-3.3-1.1-.1,0-.2,0-.3-.1,0,0-.1,0-.2-.1t0,0c-.3-.1.1,0,0,0,0,0,0,0-.1,0-.2-.1-.4-.2-.6-.4h0c-1.3,0-2.7-.1-4-.5-2.5-.7-4.7-2.2-7.1-3.3-2.6-1.2-5.2-2.3-7.9-3.3,0,.2,0,.3,0,.5-.4.9-2.3,2.6-3.2,5.2h0Z"/>
          </g>
          <path class="st6" d="M268.2,229c-.3-.6-.6-1.1-1-1.6-.5-.6-1.3-1.2-1.3-2.1,0-1.1,1.2-1.9,1.9-2.6.6-.7,1.3-1.5.8-2.4,0-.1-.2-.2-.3-.2,1.6-3.3,1.2-7.2.9-10.8-.4-5.9-.6-11.7-.6-17.6,0-5.8.3-11.5.9-17.2.3-3.4,1.4-9.4-3.2-10.4-.7-.2-1.6-.1-2.2-.4-.5-.2-1.1-.9-.9-1.5.2-.6,1-.8,1.5-1.1.4-.3.7-.6.9-1,.8-1.4.4-3.3-.9-4.2.8-.5,1.3-1.2,1.6-2.2.2-.6.2-1.3.2-2,0-.7,0-1.6-.3-2.2-.3-.7-1.5-1-2.1-1.3-.9-.5-2.2-.9-2.8-1.7-.6-.8-.1-1.7.5-2.3.7-.6,1.7-.8,2.5-1.1,1.6-.7,2.7-1.8,2.9-3.6.3-2,0-4.1-.1-6.2l-.3-6.6c0-1.8.1-3.9-.6-5.5-.9-2-3.2-2.1-5.1-2.4-2.3-.4-4.6-.8-7-1.1,0-1.4,1.8-2,2.8-2.5,1.4-.7,2.7-1.5,4-2.3,1.2-.8,2.6-1.6,3.6-2.7,1.1-1.2.7-2.5.2-3.9-.9-3.1-2-6.2-3.3-9.2-.6-1.3-1-2.8-1.9-3.9-.8-1.1-1.8-1.4-3-1.2,0,0,0,0-.1,0-15.7-2.5-31.5-5-47.5-4.5-15.6.5-30.8,4.2-46.1,7.1-7.7,1.4-15.4,2.6-23.2,3-8.1.4-16.3,0-24.4-.2-7.9-.1-15.9.2-23.7,1.5-7.8,1.3-15.4,3.4-23,5.7-15.1,4.5-29.9,10.1-44.3,16.5-1.8.8-3.6,1.6-5.4,2.5-.2,0-.3.2-.4.3-.4.2-.7.5-.6.9,1.4,5.7,2.2,11.5,2.4,17.4,0,2.6.4,5,2.5,6.9.8.8,1.8,1.4,2.8,1.8.5.2,1,.4,1.6.5.5.1,1,.1,1.5.3.8.3,0,.5-.4.8-.6.3-1.3.6-1.9,1-1.2.8-2.4,1.7-3.4,2.8-.3.4-.3.7,0,.9.8,3.1,1.5,6.1,2,9.3.5,2.9.6,5.9,1,8.9.4,2.6,1.1,5.2,2.9,7.2,1.4,1.6,3.3,2.6,5.4,2.7-.6,3-3.3,5-4.1,7.9-.7,2.4.3,5,2.9,5.5.7.1,1,.4.7,1.1-.2.6-.7,1.1-1.1,1.6-.8,1.1-1.3,2.4-1.5,3.7-.4,3,.5,6.1,1.1,9.1.8,4,1.6,8.1,2.4,12.2,0,.2.2.3.4.4,0,0,0,.1,0,.2.8,9.5,1.6,19,2.5,28.6.2,2.7.5,5.5.7,8.2.2,2,0,4.3,1.5,5.9,1.2,1.2,3.2,1.9,3.8,3.6.3.8.2,1.8.8,2.4.6.6,1.5.7,2.3.7,1,0,2-.3,2.9-.9,1-.6,1.7-1.6,2.6-2.3,2.6-2,6.6.8,8.9,2,1.2.6,1.6,1.3,3.8,1.1,2.5-.1,4.9-1,7.3-1.6,4-1.1,8-2.1,12-3.2,7.9-2.1,15.8-4.1,23.8-6,16.1-3.9,32.3-7.4,48.6-10.2,16.2-2.9,32.5-5.1,48.9-6.5,16.4-1.4,32.9-2,49.4-1.5,2,0,4.1.1,6.1.2,1.5,0,3.2.2,4.6-.7,1.3-.8,1.6-2.5,2-3.9.4-1.5.8-3.1,1.1-4.6.5-3,.7-6.3-.7-9.1h0Z"/>
          <g class="st2">
            <path class="st6" d="M236.1,163.8c-6.1,1.1-12.1,2.1-18.2,3.1-9.1,1.5-18.5,1.5-27.6,3.3,7.6.2,15.2-.2,22.9-.7,8.8-.6,17.5-1.3,26.3-1.7,9-.4,17.9-.7,26.9-1,1,0,2.1,0,3.1,0-.5-1.3-1.4-2.3-3.1-2.6-.7-.2-1.6-.1-2.2-.4-.5-.2-1.1-.9-.9-1.5.2-.6,1-.8,1.5-1.1.4-.3.7-.6.9-1,.3-.6.4-1.2.4-1.9-4.1.8-8.1,2-12.2,2.7-5.9,1.1-11.9,1.9-17.8,2.9h0Z"/>
          </g>
          <g class="st2">
            <path class="st6" d="M269.2,233c-.1-1.4-.4-2.7-1-4-.3-.6-.6-1.1-1-1.6-.2-.3-.6-.6-.8-1-1.8,1.5-4.2,2.3-5.9,3.9,2.8,1.3,5.7,2.1,8.7,2.7Z"/>
          </g>
          <g class="st2">
            <path class="st6" d="M234.4,220.9c-7.2,1.2-14.3,2.6-21.5,3.4-13.2,1.5-26.8,2.2-39.6,5.7,4.9-.2,9.9-.6,14.8-1.1,6.5-.7,13-1.5,19.5-2.1,6.5-.6,12.9-.9,19.4-1.3,13.1-.7,26.3-1.2,39.4-1.8.1,0,.2,0,.4,0,.4-.4.9-.8,1.2-1.2.6-.7,1.3-1.5.8-2.4,0-.1-.2-.2-.3-.2,1.1-2.3,1.2-4.9,1.1-7.5-4.4,1.9-9,3.3-13.6,4.4-7.1,1.7-14.4,2.8-21.6,4h0Z"/>
          </g>
          <g class="st2">
            <path class="st6" d="M82.2,209.3c30.5-4,60.9-9.3,91.5-12.2,6.5-.6,13.1-.9,19.6-1.6,2.9-.3,6-.5,8.7-1.4.2,0,.4-.2.7-.3-.1,0-.3-.1-.4-.2-4.9-2.1-10.3-2.4-15.5-2.3-6.7.2-13.3,1.2-19.9,1.9-7.8.8-15.5,1.9-23.3,2.9-7.7,1-15.5,1.8-23.2,2.9-29.5,4-58.7,9.8-88.3,13.1.1.6.2,1.1.3,1.7.2,1,.4,2,.6,3,1.2-.3,2.3-.5,3.5-.8,15.1-3.1,30.5-4.9,45.8-6.9h0Z"/>
          </g>
          <g class="st2">
            <path class="st6" d="M103.9,130.5c12.7-1.9,25.4-4.1,38-6.7-8.2.8-16.3,1.6-24.5,2.1-10.6.6-21.3.3-31.9.6-5.4.1-10.8.5-16.2,1.3-5.3.8-10.5,2-15.8,3.1-5.2,1.2-10.3,2.5-15.5,3.6-2.5.6-5,1.1-7.6,1.6-2.5.5-4.8,1.1-7.5,1.1-.9.3-1.8.6-2.8.8.1,1.3.2,2.7.2,4,0,.9,0,1.7.2,2.5.4,0,.7-.2,1.1-.2,27.1-5.9,54.7-9.7,82.1-13.9h0Z"/>
          </g>
          <g class="st2">
            <path class="st6" d="M221.6,245.3c-9.1-1.5-18.2-1.4-27.3-1-9.3.4-18.5.8-27.8,1.5-18.5,1.4-37,3.7-55.1,7.7-9,2-17.8,4.7-26.6,7.3-8.5,2.5-17.7,4.6-26.5,2.6-7.1-1.6-14-5.5-18.6-11.2-1-1.2-1.8-2.6-2.6-4,.2,2.3.4,4.7.6,7,.2,2.7.5,5.5.7,8.2.2,2,0,4.3,1.5,5.9,1.2,1.2,3.2,1.9,3.8,3.6.3.8.2,1.8.8,2.4.6.6,1.5.7,2.3.7,1,0,2-.3,2.9-.9,1-.6,1.7-1.6,2.6-2.3,2.6-2,6.6.8,8.9,2,1.2.6,1.6,1.3,3.8,1.1,2.5-.1,4.9-1,7.3-1.6,4-1.1,8-2.1,12-3.2,7.9-2.1,15.8-4.1,23.8-6,16.1-3.9,32.3-7.4,48.6-10.2,16.2-2.9,32.5-5.1,48.9-6.5,8.1-.7,16.3-1.2,24.5-1.4-2.8-.7-5.7-1.3-8.6-1.8h0Z"/>
          </g>
          <g class="st2">
            <path class="st6" d="M267.4,139.4c.3-2,0-4.1-.1-6.2,0-1.4-.1-2.7-.2-4.1-.7.1-1.5.2-2.2.3-4.9.8-9.8,1.7-14.7,2.5-17.6,3-35.1,6.3-52.6,9.8-14,2.8-27.9,5.9-41.8,9.2,9-.6,18-1.7,26.9-2.8,11-1.4,22-2.6,33.1-3.4,11.1-.8,22.3-1.3,33.5-1.8,5.4-.2,10.8-.4,16.2-.6,1-.7,1.7-1.7,1.9-3h0Z"/>
          </g>
          <g class="st10">
            <path class="st6" d="M24.8,126.1c23.4-12,49.3-19.4,75.5-21.4-25.7,5.1-50.9,12.2-75.5,21.4Z"/>
            <path class="st6" d="M63,120.4c2.7-2.2,5.9-3.6,9.3-4.5,3.3-.9,6.8-1.3,10.3-.7-1.6.6-3.3,1.1-4.9,1.5-4.6,1.2-10,2.8-14.7,3.6h0Z"/>
            <path class="st6" d="M35.4,199.2c16.8-5.3,34.3-8.7,51.9-9.9-17.1,4.3-34.4,7.5-51.9,9.9Z"/>
            <path class="st6" d="M62.7,202.7c5.6-3.2,12-4.9,18.4-5.1-5.6,3.2-12,4.9-18.4,5.1Z"/>
            <path class="st6" d="M190.1,226.4c24.3-6.3,49.7-8.4,74.7-6-25,.8-49.9,2.8-74.7,6Z"/>
            <path class="st6" d="M225.2,228c12.9-3.2,26.4-4.2,39.6-2.9-13.2,1.8-26.3,2.7-39.6,2.9Z"/>
            <path class="st6" d="M196.5,238.9c15.8-4.6,32.4-6.7,48.8-6-15.7,2.4-33,4.5-48.8,6Z"/>
            <path class="st6" d="M233.2,185.5c8.6-2.9,18.1-3.4,27-1.2-9,1-17.9,1.4-27,1.2Z"/>
            <path class="st6" d="M239.3,189.4c6.8-1.9,14-2.2,21-1-6.8,1.9-14,2.2-21,1Z"/>
            <path class="st6" d="M188.4,101.8c19.5-6.3,40.6-8.3,60.9-5.6-20.5.5-40.7,2.3-60.9,5.6Z"/>
            <path class="st6" d="M246.5,117.2c6.7-1.8,13.8-1.6,20.4.6-6.8.9-13.7.7-20.4-.6Z"/>
            <path class="st6" d="M251.6,121.7c4.7-1.5,9.9-1.5,14.6,0-4.7,1.5-9.9,1.5-14.6,0Z"/>
            <path class="st6" d="M47.1,238.7c16.4-5.7,33.8-8.7,51.2-8.9-16.5,3.1-34.6,6.3-51.2,8.9Z"/>
            <path class="st6" d="M88.8,247.6c9.9-3.9,20.4-6.3,31-7.1-9.9,3.9-20.4,6.3-31,7.1Z"/>
            <path class="st6" d="M107.2,239.8c7.8-4.1,16.7-6.2,25.5-6.1-8.3,2.9-16.8,4.9-25.5,6.1Z"/>
            <path class="st6" d="M113.8,249.4c4.2-2.6,9.2-3.7,14.1-3.3-4.2,2.6-9.2,3.7-14.1,3.3Z"/>
          </g>
          <path class="st8" d="M142.6,102c-2.6-.9-5.5,1.3-6.2,3.8-.6,2.4.8,4.5,3.3,4.9,3.5.5,6.1-1.3,5.4-4.9-.3-1.5-1-3.2-2.5-3.8Z"/>
          <g class="st4">
            <path class="st8" d="M138,105.9c.5-1.9,2.5-3.7,4.5-3.9-2.6-.9-5.5,1.3-6.2,3.8-.6,2.4.8,4.5,3.3,4.9.4,0,.8,0,1.2,0-2.2-.5-3.5-2.5-2.9-4.8h0Z"/>
          </g>
          <path class="st8" d="M151.8,238.6c-2.6-.9-5.5,1.3-6.2,3.8-.6,2.4.8,4.5,3.3,4.9,3.5.5,6.1-1.3,5.4-4.9-.3-1.5-1-3.2-2.5-3.8Z"/>
          <g class="st4">
            <path class="st8" d="M147.3,242.6c.5-1.9,2.5-3.7,4.5-3.9-2.6-.9-5.5,1.3-6.2,3.8-.6,2.4.8,4.5,3.3,4.9.4,0,.8,0,1.2,0-2.2-.5-3.5-2.5-2.9-4.8h0Z"/>
          </g>
          <path class="st6" d="M44.1,324.1s47.3-24.1,60.1-29c12.8-4.9,62.8-16.8,67.2-17,4.4-.2,8.6,1.6,9.4.5.8-1.1,32.8-10.9,37.5-10.2,4.7.7,12.5,6.8,13.5,8.1,1,1.3-164.4,53.1-167.7,52.7-3.3-.4-20-5-20-5h0Z"/>
          <g class="st10">
            <path class="st6" d="M44.1,324.1s47.3-24.1,60.1-29c12.8-4.9,62.8-16.8,67.2-17,4.4-.2,8.6,1.6,9.4.5.8-1.1,32.8-10.9,37.5-10.2,4.7.7,12.5,6.8,13.5,8.1,1,1.3-164.4,53.1-167.7,52.7-3.3-.4-20-5-20-5h0Z"/>
          </g>
          <path class="st6" d="M58.8,325l-14.6-.8s-.4,9.5,1.6,11.1,7.7,3.2,8.6,4.4c.9,1.2-8.1,0-7.9,1.1.2,1.1,1,9.3,2.9,12.4,1.9,3.1,8.9,4.1,8.9,4.1,0,0-5.7,2.8-5.1,4.4.6,1.6,6.7,1.8,8.5,2.3,1.7.5-6.8.2-6.9,3.8,0,3.5,11.2,27,14.1,29.2,2.9,2.2,19.1,4.1,21.3,3.4,2.2-.8,1.7-19.2-3.8-37.4-5.5-18.1-27.6-37.9-27.6-37.9h0Z"/>
          <g class="st4">
            <path class="st6" d="M58.8,325l-14.6-.8s-.4,9.5,1.6,11.1,7.7,3.2,8.6,4.4c.9,1.2-8.1,0-7.9,1.1.2,1.1,1,9.3,2.9,12.4,1.9,3.1,8.9,4.1,8.9,4.1,0,0-5.7,2.8-5.1,4.4.6,1.6,6.7,1.8,8.5,2.3,1.7.5-6.8.2-6.9,3.8,0,3.5,11.2,27,14.1,29.2,2.9,2.2,19.1,4.1,21.3,3.4,2.2-.8,1.7-19.2-3.8-37.4-5.5-18.1-27.6-37.9-27.6-37.9h0Z"/>
          </g>
          <g class="st4">
            <path class="st6" d="M46.5,340.6c1.7.5,3.3,1.4,4.8,2.1,1.9.9,3.8,1.9,5.7,2.9,4.2,2.2,8.5,4.2,13.2,5.1,3.6.7,7.1.6,10.6.3-2.1-3.4-4.4-6.7-6.8-9.7-2.8-.3-5.6-.8-8.4-1.1-3.8-.4-7.5-.6-11.3-1.6-1.7-.4-3.4-1-5.1-1.6,2.2.9,4.7,1.8,5.2,2.6.9,1.1-7.3.1-7.8,1h0Z"/>
          </g>
          <g class="st4">
            <path class="st6" d="M84.2,357.3c-.7.4-1.5.7-2.2,1-.5.2-1.1.3-1.6.2-4.4,2.1-9.1,3.6-13.8,4.5-2,.4-4.1.7-6.2.7.6,0,1.1.2,1.4.3,1.7.5-6.6.2-6.9,3.6,1.8.8,3.9.8,5.8.9,2.5.1,5,0,7.5-.4,5.2-.9,10.2-2.9,14.9-5.2.1,0,.2,0,.4,0,0,0,0,0,.1,0,.3-.1.7-.3,1-.4.5-.2,1-.5,1.4-.7-.5-1.5-1.1-2.9-1.8-4.4,0,0,0,0,0,0h0Z"/>
          </g>
          <g class="st4">
            <path class="st6" d="M85.5,364.4c-.4.1-.7.3-1.1.4-.5.2-.9.3-1.4.2-4.6,2.9-9.7,4.9-15.1,5.7-2.7.4-5.4.3-8.1.1-1.6-.1-3.2-.3-4.6-1,.5,1.6,1.4,4,2.6,6.6.1-.1.3-.2.5-.2,4.9.7,9.9.4,14.6-1,5.1-1.5,10.1-3.3,15.1-5.1.1,0,.2,0,.3,0-.5-2-1-4.1-1.6-6.1-.4.2-.8.4-1.2.5h0Z"/>
          </g>
          <path class="st6" d="M268.2,304.3c-.1-.2-.3-.3-.4-.5-.4-1.6-1.5-2.9-3.1-3.5,0,0-.1,0-.2,0h0c-4.8-4.5-10.2-8.4-15.9-11.6-5.6-3.1-11.6-5.7-15.7-10.9-1.8-2.4-3.5-4.7-6.7-5.3-3.4-.6-7,.4-10.4,1l-11.4,2c-3.3.6-7,.9-10.1,2.2-1.3.6-2.6,1.4-3.5,2.6-.9,1.2-1.3,2.6-1.8,4-.4,1.2-1.4,3.7-3,2.7-1.3-.8-2.2-2-3.5-2.7-5.6-2.9-12.9-.2-18.6,1.2-14.3,3.5-28.6,7.1-42.6,11.5-8.2,2.6-16.3,5.4-24.2,8.6-5.3,2.1-10.3,4.6-15.6,6.7-5.2,2-10.4,4.2-15,7.3-1.9,1.3-3.8,2.7-5.7,3.9-.7.4-1.4.8-1.9,1.5-1.8,2.3-.2,6.7,0,9.3.2,2.3.7,3.9,2.8,5.1,4.1,2.2,8.3,4.1,12.6,5.8-.9,1-1.9,2-3.1,2.8-1.2.9-2.5,1.6-3.4,2.8-.9,1.3-.9,2.7-.5,4.2.6,2,1.2,4,1.9,6,.2.6.9.8,1.5.7,1.7-.1,3.3-.1,4.9,0-1.2,1.8-2.5,3.6-3.8,5.3-.8,1,.3,1.7,1.2,1.7,3.4-.2,6.9-.4,10.3-.7,0,1.5-1.6,2.6-2.8,3.4-1.2.9-2.5,1.9-3.1,3.3-.8,1.7-.2,3.3.6,4.9.9,2,1.9,4.1,2.8,6.1,1.9,4.1,3.7,8.3,5.8,12.4,2.1,4.3,6.3,1.1,9-.7.8-.5,1.6-1.1,2.4-1.6,14.3-5.5,28.6-10.9,42.9-16.4,7.5-2.9,15-5.7,22.5-8.6,3.7-1.4,7.3-2.8,11-4.2,3.5-1.3,7.2-2.4,10.5-4.1,1.3-.7,2.2-1.5,2.7-2.9.2-.6.3-1.2.6-1.8.1-.3.3-.9.6-1.1-.2,0-.2,0,.1,0,.2,0,.4,0,.6.1,1.5.3,2.9,1.1,4.4,1.5,1.5.5,3,.7,4.5.6,6.7-.1,12.6-3.9,18.8-6,5.8-2,12.1-1.7,17.9-3.6,2.7-.9,5.3-2.2,7.3-4.3,2.3-2.4,3.8-5.6,5.4-8.5,4.2-7.2,8.9-14.1,14-20.6,2.1-2.8,5.2-5.6,5.9-9.2.1-.7.1-1.4,0-2.1.2-.1.3-.3.2-.3h0Z"/>
          <g class="st2">
            <path class="st6" d="M110.5,315.9c13.6-5.9,27.4-11.6,40.7-18.2-6.2,1.1-12.2,2.7-18.1,4.6-14.5,4.8-28.2,11.6-42.3,17.3-10.8,4.4-21.6,8.8-32.1,13.8,0,.3,0,.5.1.8.2,2.2.6,3.7,2.4,4.9,1-.5,1.9-1,2.9-1.5,15.1-8,30.7-14.8,46.4-21.7h0Z"/>
          </g>
          <g class="st2">
            <path class="st6" d="M211.2,285.8c-4.3,1.6-8.6,2.9-12.9,4.5-3.2,1.2-6.5,2.6-9.3,4.6,1.7,0,3.5-.4,5-.8,3-.7,6.1-1.1,9.1-1.7,10.6-2.1,21.3-4.4,31.8-6.8,1.9-.4,3.7-.9,5.6-1.3-2.7-1.6-5.2-3.5-7.3-6-2.1.5-4.1,1.1-6.2,1.8-5.4,1.7-10.6,3.7-15.9,5.7h0Z"/>
          </g>
          <g class="st2">
            <path class="st6" d="M215.4,304.1c6.6-.4,13-3.3,19.3-4.9,7.5-1.9,15.1-4.1,22.9-4.7-1.8-1.3-3.7-2.6-5.6-3.8-.7.2-1.3.4-2,.6-4.4,1.3-8.9,2.5-13.3,3.9-7.3,2.3-14.7,5-21.3,8.9Z"/>
          </g>
          <g class="st2">
            <path class="st6" d="M247,335.2c-3.7,1.5-7.4,3.1-11.1,4.6-12.2,5.1-24.4,10.4-36.1,16.6-1.4.8-2.9,1.5-4.3,2.3,1,.2,2,.3,3.1.3,6.7-.1,12.6-3.9,18.8-6,5.8-2,12.1-1.7,17.9-3.6,2.7-.9,5.3-2.2,7.3-4.3,2.3-2.4,3.8-5.6,5.4-8.5.4-.7.9-1.5,1.4-2.2-.7.3-1.5.6-2.2.9h0Z"/>
          </g>
          <g class="st2">
            <path class="st6" d="M131.9,368.2c8.9-4.3,17.8-8.7,26.8-12.8,4.7-2.2,9.3-4.3,14-6.5,2.3-1.1,4.7-2,7-3.1-7.1,1.5-14.1,3.7-21,6.2-15.6,5.7-30.4,13.3-45.4,20.4-7.2,3.4-14.4,6.4-21.7,9.4-3.5,1.5-7,2.9-10.4,4.6,1,2.1,1.9,4.1,2.8,6.2,15.5-8.9,31.8-16.6,47.9-24.4h0Z"/>
          </g>
          <g class="st2">
            <path class="st6" d="M254.6,305.9c-7.2,3.2-14.4,6.6-21.8,9.4-3,1.1-5.9,2.2-8.8,3.6-1.6.8-3.3,1.8-4.7,3,2.4-.3,4.8-1,7.1-1.7,3.4-1,6.8-1.8,10.2-2.6,9.8-2.3,19.6-4.5,29.4-6.8.9-1.3,1.6-2.6,1.8-4.1.1-.7.1-1.4,0-2.1.2-.1.3-.3.2-.3-.1-.2-.3-.3-.4-.5-.3-1.2-1-2.2-2.1-2.9-.4.2-.8.4-1,.6-1,.5-2.1,1-3.1,1.4-2.3,1-4.6,2-6.9,3h0Z"/>
          </g>
          <g class="st2">
            <path class="st6" d="M141.1,334.8c11.8-4.6,23.6-9.2,35.4-13.9,5.3-2.1,10.7-4.3,16.1-6.2,2.7-1,5.7-1.9,8.3-3.4-1,.3-1.9.7-2.9,1-2.8.8-5.7,1.6-8.5,2.4-5.7,1.6-11.5,3.3-17.2,4.9-10,2.8-19.9,5.9-29.8,9.2-9.8,3.3-19.5,6.5-29.2,10.1-9.5,3.5-18.9,7.4-28,11.9-4.2,2-8.3,4.3-12.4,6.6-1.3.7-2.7,1.4-4.1,2.1.2.5.3,1,.5,1.5.2.6.9.8,1.5.7,1.7-.1,3.3-.1,4.9,0-.3.4-.6.8-.8,1.2,21.7-10.3,44-19.3,66.3-28.1h0Z"/>
          </g>
          <g class="st10">
            <path class="st6" d="M62.3,328.3c10.4-8.3,22.9-14.1,36-16.5-12.1,5.4-24,10.8-36,16.5Z"/>
            <path class="st6" d="M89.9,319.5c8.5-4.6,17.6-8,27-10.3-8.2,5.1-17.5,8.6-27,10.3Z"/>
            <path class="st6" d="M231.7,320.6c9.5-5.2,19.8-9,30.4-11.3-9.5,5.2-19.8,9-30.4,11.3Z"/>
            <path class="st6" d="M236.3,323.8c3.9-3.6,9.4-5.5,14.7-5.1-4.5,2.7-9.5,4.4-14.7,5.1Z"/>
            <path class="st6" d="M215.9,343.6c7.7-4.4,16.2-7.5,25-9.1-7.7,4.5-16.2,7.5-25,9.1Z"/>
            <path class="st6" d="M152.4,301c2-2.4,5.2-3.6,8.3-3.1-2,2.4-5.2,3.6-8.3,3.1Z"/>
            <path class="st6" d="M149.3,306.8c6.3-4.7,14.3-7.3,22.2-7-7.2,2.8-14.7,5.1-22.2,7Z"/>
            <path class="st6" d="M122.1,364.3c11.9-7.7,25.2-13.2,39.1-16-12.4,5.6-26.3,11.3-39.1,16Z"/>
            <path class="st6" d="M130.6,364.8c4.9-3.7,10.6-6.1,16.7-6.9-4.8,3.7-10.6,6-16.7,6.9Z"/>
          </g>
          <path class="st8" d="M151,294.5c-2.6-.9-5.5,1.3-6.2,3.8-.6,2.4.8,4.5,3.3,4.9,3.5.5,6.1-1.3,5.4-4.9-.3-1.4-1-3.2-2.5-3.8Z"/>
          <g class="st4">
            <path class="st8" d="M146.5,298.4c.5-1.9,2.5-3.7,4.5-3.9-2.6-.9-5.5,1.3-6.2,3.8-.6,2.4.8,4.5,3.3,4.9.4,0,.8,0,1.2,0-2.2-.5-3.5-2.5-2.9-4.8h0Z"/>
          </g>
          <path class="st8" d="M158,359.9c-2.6-.9-5.5,1.3-6.2,3.8-.6,2.4.8,4.5,3.3,4.9,3.5.5,6.1-1.3,5.4-4.9-.3-1.5-1-3.2-2.5-3.8Z"/>
          <g class="st4">
            <path class="st8" d="M153.4,363.8c.5-1.9,2.5-3.7,4.5-3.9-2.6-.9-5.5,1.3-6.2,3.8-.6,2.4.8,4.5,3.3,4.9.4,0,.8,0,1.2,0-2.2-.5-3.5-2.5-2.9-4.8h0Z"/>
          </g>
          <path class="st1" d="M237,299.8c-1.5-4.2-8-4-12.5-4.6-4.1-.6-8.2-1-12.3-1.4-3.5-.3-6.9-.6-10.4-.8-2.5-.1-6.6-1.1-9.1-.3-1.1.4-1.7,1.4-1.5,2.6-.9-.5-2.3-.9-3.2-.2-.2.2-.4.4-.7.5-.3.1-.7,0-1,0-1-.3-2.6-.5-3.6,0-1.5.7-2.7,2.8-2.2,4.5.8,3.3,5.8,2.6,8,4.2-1.1.3-2.3.4-3.4.6-3.1.5-6.1,1-9.1,1.7-6.1,1.3-12.2,2.9-18.2,4.6-12.5,3.4-25,6.8-37.5,10.2-7,1.9-14,3.8-21,5.7-1.2.3-1.3,1.4-.8,2.5-2.6,1.1-5.1,2.2-7.6,3.4-1.1.5-2.1,1.7-1.6,3,0,0,0,0,0,.1-.2.5-.1,1,.3,1.6.3.5.8.8,1.4,1.1-.3.2-.4.5-.5.8-1.2,1.2,0,2.9,1.6,3.2.2,0,.3,0,.5,0,0,.4.2.9.5,1.2.2.2.5.4.8.6-.8.7-1.6,1.4-2.3,2.2-2.7,2.9-4.2,7-1.6,10.4,0,.2,0,.4,0,.6,0,0,0,.1,0,.2,0,0-.1.1-.2.2-.6.8,0,1.8.8,2.3.7.5,1.6.7,2.5.5,0,0,0,0,0,0-.8.6-1.1,1.6-.3,2.5.9.9,2.2,1.1,3.3.8,1,.3,2.1.2,3.1,0,.6-.2,1.2-.4,1.7-.7.1,0,.4-.1.5-.2,0,0,.4.1.4.1,2.1,1,2.5,3.7,2.9,5.7.2,1.2.5,2.4,1.2,3.5.8,1.2,2.5,1,3.7.3,1.1-.7.4-1.9,0-2.9-.4-1.4-.9-2.7-1.4-4.1-.5-1.5-.9-3-1-4.5,0-.6,0-1.2,0-1.8,1.8-.8,3.5-1.7,5.3-2.6,1.1,1.2,1.8,2.6,2.5,4.1v.4c.1.1.1.2.1.3,0,0,0,.2,0,.2.3,1.4.7,2.8,1,4.2,0,.2.2.4.5.5.2.8.4,1.6.6,2.4.6,2.5,1.2,5,1.8,7.5.2.9.3,2.1,1,2.8.6.6,1.6.6,2.4.4,2.7-.7,1.1-3,.4-4.7-.9-2.2-1.6-4.4-2-6.7-.8-4.7-1.6-9.5-2.5-14.2,6.4-2.8,13.1-4.8,19.9-6.3,7.5-1.7,14.9-3.3,22.2-5.7,7.7-2.5,15.3-4.8,23.2-6.7,4.7-1.1,9.5-2.1,14.3-3.1.3.3.8.5,1.3.5,1.1,0,2.2-.6,2.9-1.4.7-.1,1.3-.3,1.9-.4-.7,1-1.4,2-2.2,3-.6.9-.2,1.8.9,1.9,1.3.1,2.6-.6,3.4-1.5.7-.8,1.4-1.7,2.2-2.6-1.5,3.4-3.1,6.8-4.6,10.2-.9,2,2.8,1.3,3.6.7.2-.2.4-.3.7-.5,1.3.5,3.1.6,3.5,0,1-1.4,2-2.8,3-4.2.3-.1.5-.3.7-.5,5.4-5.7,10.3-11.9,14.5-18.5,3.1-4.9,9.5-13.3,7.4-19.5h0ZM95.8,351.3c-.3.2-.5.4-.8.6-.2-.3-.4-.5-.7-.7.3-.6.7-1.1,1.2-1.6.1.5.3.9.4,1.4,0,.1,0,.2,0,.3ZM102.2,344.6c-.7.4-1.3.8-1.9,1.3,0-.2-.1-.3-.2-.5,1.6-1.4,3.1-2.8,4.7-4.1,0,.5.3,1.1.6,1.6-1.1.6-2.1,1.2-3.2,1.8h0ZM140.6,326.9c11.4-4.5,23.2-8.1,35.2-10.5,1.7-.3,3.4-.7,5.2-1-.6.5-1.1,1-1.6,1.5-14.2,3.3-28.2,7.1-42.1,11.4,1.1-.5,2.3-1,3.5-1.4h0ZM184.4,321.9c0,0-.1,0-.2.1-.2.1-.4.2-.6.3,0,0-.1,0-.2.1-14.4,3.4-28.7,7.4-42.7,12.1-7.3,2.2-14.6,4.8-21.6,7.8-.6.2-1.2.4-1.7.7-1.6.6-3.2,1.3-4.7,1.9,0,0,.2,0,.2-.1,5.6-2.6,11.4-4.9,17.2-7,12-4.4,24.2-8.4,36.5-11.9,6.7-1.9,13.5-3.7,20.3-5.4-.8.5-1.7.9-2.5,1.4h0ZM188.3,318c1.6-.8,3.1-1.6,4.6-2.4,2.6-.9,5.1-1.9,7.6-2.9.8-.2,1.6-.3,2.5-.5-2,1.1-4.1,2.1-6.1,3.2-3,1.5-5.9,2.9-8.8,4.5.3-.5.3-1.2.2-1.8ZM200.7,318.3c-2.8,1.9-5.8,3.8-5.6,4.4-.3-.9-.9-1.8-1.7-2.1,1.6-.8,3.2-1.6,4.8-2.5,2-1,4.8-3.6,7.2-3.3-.4.7-2.4,2.1-4.6,3.5h0ZM207.1,319.7c-.4.4-.9.9-1.3,1.4-.5.1-.9.3-1.4.4,1.1-.8,2.1-1.5,3.2-2.3-.2.2-.3.3-.5.5h0ZM210.2,322.6c0-.1-.1-.3-.2-.4.7-.8,1.4-1.7,2.1-2.5-.6,1-1.3,1.9-1.9,2.9h0ZM212.3,306.1c-5.3.8-11.5-.2-16.5-2-.5-.2-.4-.9,0-1,2.9-.6,12.2.5,16.8.5.7,0,2.1,0,2.7.6.9,1.1-1.1,1.6-2.1,1.8-.3,0-.6.1-1,.2ZM212.8,331.9c1.2-2.7,2.4-5.4,3.6-8.1,1.3-2.8,2.5-5.6,3.8-8.4.7-1.4,1.3-2.8,1.9-4.3.4-1.2,1.4-2.7,1.5-3.9,0-.3,0-.7,0-1,.2-1,1.3-.6,1.8-1.1.1-.1.3-.2.4-.2.9,1.8-.8,4-1.4,5.6-1.1,2.4-2.2,4.9-3.5,7.3-2.5,4.9-5.2,9.6-8.1,14.2h0ZM223.8,300.1c-.4-.3-.8-.6-1.2-.8,3.2.4,6.4.9,9.6,1.4-2.8-.1-5.6-.3-8.4-.6h0Z"/>
        </g>
      </g>
      <g class="st9">
        <g>
          <path class="st5" d="M185.4,468.1c-.5-3.6-.8-7.1-1-10.7,0-1.4-.3-5.1-1.9-2.4-1.9,3.2-3.1,6.7-4.2,10.2-.2.8-2.2,6.2-1.7,6.6,0,0,0,0,0,0,0,0,0-.1,0-.2-.3-1.1-.6-2.4-.8-3.6-.2-1.2,0-2-1.2-1.8-1.1.2-2.5,1.7-3.4,2.5-1.1,1.1-2.2,2.3-3.2,3.6-.4.5-2.4,2.9-2.1,3.5-1.2-2.5-2.2-5-3.2-7.6-.3-.9-.6-2.5-1.5-2.8-.6-.2-1.9.6-2.3,1.1-2.2,2.8-3.5,7.1-4.7,10.5.5-1.4-1.2-4.9-1.6-6.3-1.2-3.4-3.2-6.6-5.8-9.2-1.2-1.2-2.6-2.5-4.1-3.4-.5-.3-2.4-1.4-1.8,0,2.2,5.1,2.6,10.6,2.6,16,0-1.3-1.9-2.8-2.7-3.7-1.5-1.6-3-3.3-4.4-5-.5-.6-1.7-1.5-2.2-.5-.3.7.5,2.1.7,2.8.5,1.5,1,2.9,1.3,4.4.6,2.9.7,6,.2,8.9-.7,4.2,2.1,5,5.7,5.6,2.8.5,5.5.9,8.3,1.2,6.2.7,12.4,1.1,18.6.6,5.6-.4,11.8-1.1,15.9-5.4,3.5-3.7,1.7-7.6,1-12.1-.1-.9-.3-1.9-.4-2.8h0Z"/>
          <g class="st4">
            <path class="st5" d="M144,479c0-1.9-.3-3.9-.6-5.8v.9c0-1.3-1.9-2.8-2.7-3.7-1.6-1.6-3-3.3-4.4-5-.3-.4-.9-.9-1.5-.9,3.4,3.7,5.5,8.3,6.9,13.1.8,3,1.3,6.1,1.3,9.2.4,0,.8.1,1.2.2.1-2.6,0-5.2-.1-7.9h0Z"/>
          </g>
          <g class="st4">
            <path class="st5" d="M148.8,474.1c-1.1-3.5-2.6-6.9-4.2-10.1-1.1-2.2-2.4-4.4-3.9-6.3,0,.1,0,.3.1.5.6,1.4,1,2.7,1.4,4.1,2.1,5.5,3.5,11.1,4,17,.2,2.6.4,5.2.2,7.8,0,0,0,.2,0,.2,1.3.2,2.6.3,3.9.5.3,0,.5,0,.8,0-.1-4.7-.8-9.3-2.3-13.8Z"/>
          </g>
          <g class="st4">
            <path class="st5" d="M166.6,483.5c-.4-4.6-1.4-9.1-3.5-13.3-.1-.3,0-.5.1-.6-.2-.5-.4-.9-.5-1.4-.1-.4-.3-.9-.4-1.3,0,.2,0,.5-.1.7-.2,1.2-.4,2.4-.5,3.6-.2,2.5-.2,5,0,7.5.3,3.4.9,6.6,1.8,9.9,1.1,0,2.2,0,3.4,0,0-1.7-.1-3.4-.3-5h0Z"/>
          </g>
          <g class="st4">
            <path class="st5" d="M182.5,469.4c-.1-3.6,0-7.3.2-11,0-.8,0-1.5,0-2.3-4.6,9.1-4.6,20.1-2.8,30.1,1.6-.7,3-1.6,4.3-2.8-1-4.6-1.6-9.3-1.8-14h0Z"/>
          </g>
          <g class="st4">
            <path class="st5" d="M184.8,469.4c.1,4.1.4,8.1,1.1,12.1,2-3.3.5-6.8,0-10.6-.2-.9-.3-1.9-.4-2.8-.3-1.9-.5-3.8-.6-5.7,0,2.3,0,4.6,0,7h0Z"/>
          </g>
        </g>
      </g>
    </g>
  </g>
</svg>